[
  {
    "file": "data\\groove\\drummer1\\eval_session\\10_soul-groove10_102_beat_4-4.mid",
    "num_events": 495,
    "duration": 30756,
    "events": [
      {
        "type": "set_tempo",
        "tempo": 588235,
        "time": 0
      },
      {
        "type": "note_on",
        "note": 22,
        "velocity": 99,
        "time": 0,
        "channel": 9
      },
      {
        "type": "note_on",
        "note": 36,
        "velocity": 127,
        "time": 0,
        "channel": 9
      },
      {
        "type": "note_off",
        "note": 22,
        "time": 71,
        "channel": 9
      },
      {
        "type": "note_off",
        "note": 36,
        "time": 71,
        "channel": 9
      },
      {
        "type": "note_on",
        "note": 42,
        "velocity": 21,
        "time": 235,
        "channel": 9
      },
      {
        "type": "note_off",
        "note": 42,
        "time": 317,
        "channel": 9
      },
      {
        "type": "note_on",
        "note": 40,
        "velocity": 127,
        "time": 461,
        "channel": 9
      },
      {
        "type": "note_on",
        "note": 42,
        "velocity": 75,
        "time": 468,
        "channel": 9
      },
      {
        "type": "note_off",
        "note": 40,
        "time": 543,
        "channel": 9
      },
      {
        "type": "note_off",
        "note": 42,
        "time": 551,
        "channel": 9
      },
      {
        "type": "note_on",
        "note": 38,
        "velocity": 8,
        "time": 574,
        "channel": 9
      },
      {
        "type": "note_off",
        "note": 38,
        "time": 656,
        "channel": 9
      },
      {
        "type": "note_on",
        "note": 42,
        "velocity": 75,
        "time": 727,
        "channel": 9
      },
      {
        "type": "note_off",
        "note": 42,
        "time": 810,
        "channel": 9
      },
      {
        "type": "note_on",
        "note": 42,
        "velocity": 77,
        "time": 970,
        "channel": 9
      },
      {
        "type": "note_off",
        "note": 42,
        "time": 1053,
        "channel": 9
      },
      {
        "type": "note_on",
        "note": 36,
        "velocity": 127,
        "time": 1190,
        "channel": 9
      },
      {
        "type": "note_on",
        "note": 42,
        "velocity": 63,
        "time": 1206,
        "channel": 9
      },
      {
        "type": "note_off",
        "note": 36,
        "time": 1273,
        "channel": 9
      },
      {
        "type": "note_off",
        "note": 42,
        "time": 1288,
        "channel": 9
      },
      {
        "type": "note_on",
        "note": 40,
        "velocity": 127,
        "time": 1440,
        "channel": 9
      },
      {
        "type": "note_on",
        "note": 42,
        "velocity": 85,
        "time": 1441,
        "channel": 9
      },
      {
        "type": "note_on",
        "note": 38,
        "velocity": 28,
        "time": 1509,
        "channel": 9
      },
      {
        "type": "note_off",
        "note": 40,
        "time": 1522,
        "channel": 9
      },
      {
        "type": "note_off",
        "note": 42,
        "time": 1524,
        "channel": 9
      },
      {
        "type": "note_on",
        "note": 38,
        "velocity": 10,
        "time": 1555,
        "channel": 9
      },
      {
        "type": "note_off",
        "note": 38,
        "time": 1555,
        "channel": 9
      },
      {
        "type": "note_off",
        "note": 38,
        "time": 1591,
        "channel": 9
      },
      {
        "type": "note_on",
        "note": 42,
        "velocity": 83,
        "time": 1677,
        "channel": 9
      },
      {
        "type": "note_off",
        "note": 42,
        "time": 1759,
        "channel": 9
      },
      {
        "type": "note_on",
        "note": 36,
        "velocity": 44,
        "time": 1826,
        "channel": 9
      },
      {
        "type": "note_off",
        "note": 36,
        "time": 1909,
        "channel": 9
      },
      {
        "type": "note_on",
        "note": 36,
        "velocity": 84,
        "time": 1918,
        "channel": 9
      },
      {
        "type": "note_on",
        "note": 42,
        "velocity": 82,
        "time": 1924,
        "channel": 9
      },
      {
        "type": "note_off",
        "note": 36,
        "time": 2000,
        "channel": 9
      },
      {
        "type": "note_off",
        "note": 42,
        "time": 2007,
        "channel": 9
      },
      {
        "type": "note_on",
        "note": 42,
        "velocity": 88,
        "time": 2156,
        "channel": 9
      },
      {
        "type": "note_off",
        "note": 42,
        "time": 2239,
        "channel": 9
      },
      {
        "type": "note_on",
        "note": 40,
        "velocity": 127,
        "time": 2385,
        "channel": 9
      },
      {
        "type": "note_on",
        "note": 42,
        "velocity": 103,
        "time": 2394,
        "channel": 9
      },
      {
        "type": "note_off",
        "note": 40,
        "time": 2467,
        "channel": 9
      },
      {
        "type": "note_off",
        "note": 42,
        "time": 2477,
        "channel": 9
      },
      {
        "type": "note_on",
        "note": 42,
        "velocity": 60,
        "time": 2634,
        "channel": 9
      },
      {
        "type": "note_off",
        "note": 42,
        "time": 2717,
        "channel": 9
      },
      {
        "type": "note_on",
        "note": 42,
        "velocity": 48,
        "time": 2859,
        "channel": 9
      },
      {
        "type": "note_off",
        "note": 42,
        "time": 2941,
        "channel": 9
      },
      {
        "type": "note_on",
        "note": 36,
        "velocity": 127,
        "time": 3082,
        "channel": 9
      },
      {
        "type": "note_on",
        "note": 42,
        "velocity": 52,
        "time": 3086,
        "channel": 9
      },
      {
        "type": "note_off",
        "note": 36,
        "time": 3164,
        "channel": 9
      },
      {
        "type": "note_off",
        "note": 42,
        "time": 3169,
        "channel": 9
      },
      {
        "type": "note_on",
        "note": 40,
        "velocity": 127,
        "time": 3330,
        "channel": 9
      },
      {
        "type": "note_on",
        "note": 22,
        "velocity": 79,
        "time": 3336,
        "channel": 9
      },
      {
        "type": "note_off",
        "note": 40,
        "time": 3412,
        "channel": 9
      },
      {
        "type": "note_off",
        "note": 22,
        "time": 3418,
        "channel": 9
      },
      {
        "type": "note_on",
        "note": 42,
        "velocity": 70,
        "time": 3587,
        "channel": 9
      },
      {
        "type": "note_off",
        "note": 42,
        "time": 3669,
        "channel": 9
      },
      {
        "type": "note_on",
        "note": 36,
        "velocity": 43,
        "time": 3725,
        "channel": 9
      },
      {
        "type": "note_off",
        "note": 36,
        "time": 3807,
        "channel": 9
      },
      {
        "type": "note_on",
        "note": 42,
        "velocity": 70,
        "time": 3819,
        "channel": 9
      },
      {
        "type": "note_on",
        "note": 36,
        "velocity": 82,
        "time": 3822,
        "channel": 9
      },
      {
        "type": "note_off",
        "note": 42,
        "time": 3902,
        "channel": 9
      },
      {
        "type": "note_off",
        "note": 36,
        "time": 3905,
        "channel": 9
      },
      {
        "type": "note_on",
        "note": 42,
        "velocity": 87,
        "time": 4058,
        "channel": 9
      },
      {
        "type": "note_off",
        "note": 42,
        "time": 4141,
        "channel": 9
      },
      {
        "type": "note_on",
        "note": 40,
        "velocity": 127,
        "time": 4311,
        "channel": 9
      },
      {
        "type": "note_on",
        "note": 42,
        "velocity": 83,
        "time": 4314,
        "channel": 9
      },
      {
        "type": "note_off",
        "note": 40,
        "time": 4393,
        "channel": 9
      },
      {
        "type": "note_off",
        "note": 42,
        "time": 4397,
        "channel": 9
      },
      {
        "type": "note_on",
        "note": 38,
        "velocity": 10,
        "time": 4418,
        "channel": 9
      },
      {
        "type": "note_on",
        "note": 38,
        "velocity": 7,
        "time": 4448,
        "channel": 9
      },
      {
        "type": "note_off",
        "note": 38,
        "time": 4448,
        "channel": 9
      },
      {
        "type": "note_off",
        "note": 38,
        "time": 4500,
        "channel": 9
      },
      {
        "type": "note_on",
        "note": 42,
        "velocity": 57,
        "time": 4564,
        "channel": 9
      },
      {
        "type": "note_off",
        "note": 42,
        "time": 4646,
        "channel": 9
      },
      {
        "type": "note_on",
        "note": 42,
        "velocity": 61,
        "time": 4785,
        "channel": 9
      },
      {
        "type": "note_off",
        "note": 42,
        "time": 4867,
        "channel": 9
      },
      {
        "type": "note_on",
        "note": 38,
        "velocity": 23,
        "time": 4906,
        "channel": 9
      },
      {
        "type": "note_off",
        "note": 38,
        "time": 4988,
        "channel": 9
      },
      {
        "type": "note_on",
        "note": 42,
        "velocity": 59,
        "time": 5011,
        "channel": 9
      },
      {
        "type": "note_on",
        "note": 36,
        "velocity": 127,
        "time": 5018,
        "channel": 9
      },
      {
        "type": "note_off",
        "note": 42,
        "time": 5094,
        "channel": 9
      },
      {
        "type": "note_off",
        "note": 36,
        "time": 5100,
        "channel": 9
      },
      {
        "type": "note_on",
        "note": 40,
        "velocity": 127,
        "time": 5259,
        "channel": 9
      },
      {
        "type": "note_on",
        "note": 22,
        "velocity": 90,
        "time": 5263,
        "channel": 9
      },
      {
        "type": "note_off",
        "note": 40,
        "time": 5341,
        "channel": 9
      },
      {
        "type": "note_off",
        "note": 22,
        "time": 5346,
        "channel": 9
      },
      {
        "type": "note_on",
        "note": 38,
        "velocity": 14,
        "time": 5364,
        "channel": 9
      },
      {
        "type": "note_off",
        "note": 38,
        "time": 5447,
        "channel": 9
      },
      {
        "type": "note_on",
        "note": 22,
        "velocity": 77,
        "time": 5502,
        "channel": 9
      },
      {
        "type": "note_off",
        "note": 22,
        "time": 5585,
        "channel": 9
      },
      {
        "type": "note_on",
        "note": 36,
        "velocity": 46,
        "time": 5663,
        "channel": 9
      },
      {
        "type": "note_off",
        "note": 36,
        "time": 5745,
        "channel": 9
      },
      {
        "type": "note_on",
        "note": 42,
        "velocity": 70,
        "time": 5749,
        "channel": 9
      },
      {
        "type": "note_on",
        "note": 36,
        "velocity": 55,
        "time": 5756,
        "channel": 9
      },
      {
        "type": "note_off",
        "note": 42,
        "time": 5831,
        "channel": 9
      },
      {
        "type": "note_off",
        "note": 36,
        "time": 5839,
        "channel": 9
      },
      {
        "type": "note_on",
        "note": 42,
        "velocity": 85,
        "time": 5986,
        "channel": 9
      },
      {
        "type": "note_off",
        "note": 42,
        "time": 6069,
        "channel": 9
      },
      {
        "type": "note_on",
        "note": 40,
        "velocity": 127,
        "time": 6222,
        "channel": 9
      },
      {
        "type": "note_on",
        "note": 42,
        "velocity": 104,
        "time": 6235,
        "channel": 9
      },
      {
        "type": "note_off",
        "note": 40,
        "time": 6304,
        "channel": 9
      },
      {
        "type": "note_off",
        "note": 42,
        "time": 6317,
        "channel": 9
      },
      {
        "type": "note_on",
        "note": 42,
        "velocity": 76,
        "time": 6469,
        "channel": 9
      },
      {
        "type": "note_off",
        "note": 42,
        "time": 6552,
        "channel": 9
      },
      {
        "type": "note_on",
        "note": 42,
        "velocity": 57,
        "time": 6690,
        "channel": 9
      },
      {
        "type": "note_off",
        "note": 42,
        "time": 6773,
        "channel": 9
      },
      {
        "type": "note_on",
        "note": 38,
        "velocity": 27,
        "time": 6833,
        "channel": 9
      },
      {
        "type": "note_off",
        "note": 38,
        "time": 6916,
        "channel": 9
      },
      {
        "type": "note_on",
        "note": 36,
        "velocity": 127,
        "time": 6924,
        "channel": 9
      },
      {
        "type": "note_on",
        "note": 42,
        "velocity": 76,
        "time": 6928,
        "channel": 9
      },
      {
        "type": "note_off",
        "note": 36,
        "time": 7006,
        "channel": 9
      },
      {
        "type": "note_off",
        "note": 42,
        "time": 7011,
        "channel": 9
      },
      {
        "type": "note_on",
        "note": 40,
        "velocity": 127,
        "time": 7167,
        "channel": 9
      },
      {
        "type": "note_on",
        "note": 22,
        "velocity": 114,
        "time": 7175,
        "channel": 9
      },
      {
        "type": "note_on",
        "note": 38,
        "velocity": 33,
        "time": 7231,
        "channel": 9
      },
      {
        "type": "note_off",
        "note": 40,
        "time": 7249,
        "channel": 9
      },
      {
        "type": "note_off",
        "note": 22,
        "time": 7258,
        "channel": 9
      },
      {
        "type": "note_off",
        "note": 38,
        "time": 7313,
        "channel": 9
      },
      {
        "type": "note_on",
        "note": 42,
        "velocity": 80,
        "time": 7419,
        "channel": 9
      },
      {
        "type": "note_off",
        "note": 42,
        "time": 7502,
        "channel": 9
      },
      {
        "type": "note_on",
        "note": 36,
        "velocity": 41,
        "time": 7543,
        "channel": 9
      },
      {
        "type": "note_off",
        "note": 36,
        "time": 7626,
        "channel": 9
      },
      {
        "type": "note_on",
        "note": 36,
        "velocity": 78,
        "time": 7648,
        "channel": 9
      },
      {
        "type": "note_on",
        "note": 42,
        "velocity": 53,
        "time": 7672,
        "channel": 9
      },
      {
        "type": "note_off",
        "note": 36,
        "time": 7731,
        "channel": 9
      },
      {
        "type": "note_off",
        "note": 42,
        "time": 7754,
        "channel": 9
      },
      {
        "type": "note_on",
        "note": 42,
        "velocity": 91,
        "time": 7904,
        "channel": 9
      },
      {
        "type": "note_off",
        "note": 42,
        "time": 7987,
        "channel": 9
      },
      {
        "type": "note_on",
        "note": 40,
        "velocity": 127,
        "time": 8142,
        "channel": 9
      },
      {
        "type": "note_on",
        "note": 22,
        "velocity": 103,
        "time": 8160,
        "channel": 9
      },
      {
        "type": "note_off",
        "note": 40,
        "time": 8224,
        "channel": 9
      },
      {
        "type": "note_off",
        "note": 22,
        "time": 8242,
        "channel": 9
      },
      {
        "type": "note_on",
        "note": 42,
        "velocity": 72,
        "time": 8396,
        "channel": 9
      },
      {
        "type": "note_off",
        "note": 42,
        "time": 8478,
        "channel": 9
      },
      {
        "type": "note_on",
        "note": 38,
        "velocity": 28,
        "time": 8534,
        "channel": 9
      },
      {
        "type": "note_off",
        "note": 38,
        "time": 8616,
        "channel": 9
      },
      {
        "type": "note_on",
        "note": 42,
        "velocity": 61,
        "time": 8623,
        "channel": 9
      },
      {
        "type": "note_off",
        "note": 42,
        "time": 8705,
        "channel": 9
      },
      {
        "type": "note_on",
        "note": 38,
        "velocity": 31,
        "time": 8753,
        "channel": 9
      },
      {
        "type": "note_off",
        "note": 38,
        "time": 8835,
        "channel": 9
      },
      {
        "type": "note_on",
        "note": 36,
        "velocity": 113,
        "time": 8850,
        "channel": 9
      },
      {
        "type": "note_on",
        "note": 42,
        "velocity": 66,
        "time": 8854,
        "channel": 9
      },
      {
        "type": "note_off",
        "note": 36,
        "time": 8932,
        "channel": 9
      },
      {
        "type": "note_off",
        "note": 42,
        "time": 8937,
        "channel": 9
      },
      {
        "type": "note_on",
        "note": 40,
        "velocity": 127,
        "time": 9096,
        "channel": 9
      },
      {
        "type": "note_on",
        "note": 22,
        "velocity": 90,
        "time": 9100,
        "channel": 9
      },
      {
        "type": "note_off",
        "note": 40,
        "time": 9178,
        "channel": 9
      },
      {
        "type": "note_off",
        "note": 22,
        "time": 9183,
        "channel": 9
      },
      {
        "type": "note_on",
        "note": 22,
        "velocity": 82,
        "time": 9337,
        "channel": 9
      },
      {
        "type": "note_off",
        "note": 22,
        "time": 9420,
        "channel": 9
      },
      {
        "type": "note_on",
        "note": 36,
        "velocity": 44,
        "time": 9483,
        "channel": 9
      },
      {
        "type": "note_off",
        "note": 36,
        "time": 9566,
        "channel": 9
      },
      {
        "type": "note_on",
        "note": 36,
        "velocity": 55,
        "time": 9569,
        "channel": 9
      },
      {
        "type": "note_on",
        "note": 42,
        "velocity": 81,
        "time": 9575,
        "channel": 9
      },
      {
        "type": "note_off",
        "note": 36,
        "time": 9652,
        "channel": 9
      },
      {
        "type": "note_off",
        "note": 42,
        "time": 9658,
        "channel": 9
      },
      {
        "type": "note_on",
        "note": 42,
        "velocity": 81,
        "time": 9823,
        "channel": 9
      },
      {
        "type": "note_off",
        "note": 42,
        "time": 9906,
        "channel": 9
      },
      {
        "type": "note_on",
        "note": 40,
        "velocity": 127,
        "time": 10063,
        "channel": 9
      },
      {
        "type": "note_on",
        "note": 22,
        "velocity": 108,
        "time": 10075,
        "channel": 9
      },
      {
        "type": "note_off",
        "note": 40,
        "time": 10145,
        "channel": 9
      },
      {
        "type": "note_off",
        "note": 22,
        "time": 10157,
        "channel": 9
      },
      {
        "type": "note_on",
        "note": 42,
        "velocity": 41,
        "time": 10313,
        "channel": 9
      },
      {
        "type": "note_off",
        "note": 42,
        "time": 10396,
        "channel": 9
      },
      {
        "type": "note_on",
        "note": 42,
        "velocity": 47,
        "time": 10535,
        "channel": 9
      },
      {
        "type": "note_off",
        "note": 42,
        "time": 10618,
        "channel": 9
      },
      {
        "type": "note_on",
        "note": 38,
        "velocity": 13,
        "time": 10656,
        "channel": 9
      },
      {
        "type": "note_off",
        "note": 38,
        "time": 10738,
        "channel": 9
      },
      {
        "type": "note_on",
        "note": 42,
        "velocity": 59,
        "time": 10753,
        "channel": 9
      },
      {
        "type": "note_on",
        "note": 36,
        "velocity": 56,
        "time": 10762,
        "channel": 9
      },
      {
        "type": "note_off",
        "note": 42,
        "time": 10837,
        "channel": 9
      },
      {
        "type": "note_off",
        "note": 36,
        "time": 10845,
        "channel": 9
      },
      {
        "type": "note_on",
        "note": 40,
        "velocity": 127,
        "time": 11011,
        "channel": 9
      },
      {
        "type": "note_on",
        "note": 22,
        "velocity": 127,
        "time": 11013,
        "channel": 9
      },
      {
        "type": "note_off",
        "note": 40,
        "time": 11093,
        "channel": 9
      },
      {
        "type": "note_off",
        "note": 22,
        "time": 11096,
        "channel": 9
      },
      {
        "type": "note_on",
        "note": 22,
        "velocity": 109,
        "time": 11257,
        "channel": 9
      },
      {
        "type": "note_off",
        "note": 22,
        "time": 11340,
        "channel": 9
      },
      {
        "type": "note_on",
        "note": 36,
        "velocity": 46,
        "time": 11385,
        "channel": 9
      },
      {
        "type": "note_on",
        "note": 38,
        "velocity": 10,
        "time": 11403,
        "channel": 9
      },
      {
        "type": "note_off",
        "note": 36,
        "time": 11467,
        "channel": 9
      },
      {
        "type": "note_off",
        "note": 38,
        "time": 11485,
        "channel": 9
      },
      {
        "type": "note_on",
        "note": 36,
        "velocity": 107,
        "time": 11498,
        "channel": 9
      },
      {
        "type": "note_on",
        "note": 42,
        "velocity": 64,
        "time": 11505,
        "channel": 9
      },
      {
        "type": "note_off",
        "note": 36,
        "time": 11580,
        "channel": 9
      },
      {
        "type": "note_off",
        "note": 42,
        "time": 11588,
        "channel": 9
      },
      {
        "type": "note_on",
        "note": 42,
        "velocity": 76,
        "time": 11732,
        "channel": 9
      },
      {
        "type": "note_off",
        "note": 42,
        "time": 11814,
        "channel": 9
      },
      {
        "type": "note_on",
        "note": 40,
        "velocity": 127,
        "time": 11973,
        "channel": 9
      },
      {
        "type": "note_on",
        "note": 42,
        "velocity": 98,
        "time": 11982,
        "channel": 9
      },
      {
        "type": "note_off",
        "note": 40,
        "time": 12056,
        "channel": 9
      },
      {
        "type": "note_off",
        "note": 42,
        "time": 12065,
        "channel": 9
      },
      {
        "type": "note_on",
        "note": 42,
        "velocity": 71,
        "time": 12235,
        "channel": 9
      },
      {
        "type": "note_off",
        "note": 42,
        "time": 12318,
        "channel": 9
      },
      {
        "type": "note_on",
        "note": 38,
        "velocity": 7,
        "time": 12370,
        "channel": 9
      },
      {
        "type": "note_off",
        "note": 38,
        "time": 12452,
        "channel": 9
      },
      {
        "type": "note_on",
        "note": 42,
        "velocity": 46,
        "time": 12468,
        "channel": 9
      },
      {
        "type": "note_off",
        "note": 42,
        "time": 12551,
        "channel": 9
      },
      {
        "type": "note_on",
        "note": 38,
        "velocity": 8,
        "time": 12610,
        "channel": 9
      },
      {
        "type": "note_off",
        "note": 38,
        "time": 12693,
        "channel": 9
      },
      {
        "type": "note_on",
        "note": 36,
        "velocity": 63,
        "time": 12703,
        "channel": 9
      },
      {
        "type": "note_on",
        "note": 42,
        "velocity": 62,
        "time": 12703,
        "channel": 9
      },
      {
        "type": "note_off",
        "note": 36,
        "time": 12785,
        "channel": 9
      },
      {
        "type": "note_off",
        "note": 42,
        "time": 12785,
        "channel": 9
      },
      {
        "type": "note_on",
        "note": 40,
        "velocity": 127,
        "time": 12945,
        "channel": 9
      },
      {
        "type": "note_on",
        "note": 22,
        "velocity": 85,
        "time": 12949,
        "channel": 9
      },
      {
        "type": "note_off",
        "note": 40,
        "time": 13027,
        "channel": 9
      },
      {
        "type": "note_off",
        "note": 22,
        "time": 13032,
        "channel": 9
      },
      {
        "type": "note_on",
        "note": 42,
        "velocity": 75,
        "time": 13198,
        "channel": 9
      },
      {
        "type": "note_off",
        "note": 42,
        "time": 13281,
        "channel": 9
      },
      {
        "type": "note_on",
        "note": 36,
        "velocity": 41,
        "time": 13319,
        "channel": 9
      },
      {
        "type": "note_off",
        "note": 36,
        "time": 13402,
        "channel": 9
      },
      {
        "type": "note_on",
        "note": 36,
        "velocity": 58,
        "time": 13412,
        "channel": 9
      },
      {
        "type": "note_on",
        "note": 42,
        "velocity": 64,
        "time": 13433,
        "channel": 9
      },
      {
        "type": "note_off",
        "note": 36,
        "time": 13494,
        "channel": 9
      },
      {
        "type": "note_off",
        "note": 42,
        "time": 13515,
        "channel": 9
      },
      {
        "type": "note_on",
        "note": 42,
        "velocity": 84,
        "time": 13666,
        "channel": 9
      },
      {
        "type": "note_off",
        "note": 42,
        "time": 13748,
        "channel": 9
      },
      {
        "type": "note_on",
        "note": 40,
        "velocity": 127,
        "time": 13919,
        "channel": 9
      },
      {
        "type": "note_on",
        "note": 42,
        "velocity": 86,
        "time": 13925,
        "channel": 9
      },
      {
        "type": "note_off",
        "note": 40,
        "time": 14002,
        "channel": 9
      },
      {
        "type": "note_off",
        "note": 42,
        "time": 14007,
        "channel": 9
      },
      {
        "type": "note_on",
        "note": 42,
        "velocity": 76,
        "time": 14163,
        "channel": 9
      },
      {
        "type": "note_off",
        "note": 42,
        "time": 14246,
        "channel": 9
      },
      {
        "type": "note_on",
        "note": 42,
        "velocity": 55,
        "time": 14400,
        "channel": 9
      },
      {
        "type": "note_off",
        "note": 42,
        "time": 14482,
        "channel": 9
      },
      {
        "type": "note_on",
        "note": 38,
        "velocity": 25,
        "time": 14520,
        "channel": 9
      },
      {
        "type": "note_off",
        "note": 38,
        "time": 14602,
        "channel": 9
      },
      {
        "type": "note_on",
        "note": 36,
        "velocity": 74,
        "time": 14628,
        "channel": 9
      },
      {
        "type": "note_on",
        "note": 42,
        "velocity": 60,
        "time": 14628,
        "channel": 9
      },
      {
        "type": "note_off",
        "note": 36,
        "time": 14711,
        "channel": 9
      },
      {
        "type": "note_off",
        "note": 42,
        "time": 14711,
        "channel": 9
      },
      {
        "type": "note_on",
        "note": 22,
        "velocity": 74,
        "time": 14866,
        "channel": 9
      },
      {
        "type": "note_on",
        "note": 40,
        "velocity": 127,
        "time": 14866,
        "channel": 9
      },
      {
        "type": "note_off",
        "note": 22,
        "time": 14948,
        "channel": 9
      },
      {
        "type": "note_off",
        "note": 40,
        "time": 14948,
        "channel": 9
      },
      {
        "type": "note_on",
        "note": 22,
        "velocity": 91,
        "time": 15109,
        "channel": 9
      },
      {
        "type": "note_off",
        "note": 22,
        "time": 15192,
        "channel": 9
      },
      {
        "type": "note_on",
        "note": 36,
        "velocity": 41,
        "time": 15228,
        "channel": 9
      },
      {
        "type": "note_off",
        "note": 36,
        "time": 15311,
        "channel": 9
      },
      {
        "type": "note_on",
        "note": 36,
        "velocity": 88,
        "time": 15344,
        "channel": 9
      },
      {
        "type": "note_on",
        "note": 42,
        "velocity": 68,
        "time": 15350,
        "channel": 9
      },
      {
        "type": "note_off",
        "note": 36,
        "time": 15426,
        "channel": 9
      },
      {
        "type": "note_off",
        "note": 42,
        "time": 15433,
        "channel": 9
      },
      {
        "type": "note_on",
        "note": 42,
        "velocity": 103,
        "time": 15595,
        "channel": 9
      },
      {
        "type": "note_off",
        "note": 42,
        "time": 15678,
        "channel": 9
      },
      {
        "type": "note_on",
        "note": 40,
        "velocity": 112,
        "time": 15830,
        "channel": 9
      },
      {
        "type": "note_on",
        "note": 42,
        "velocity": 117,
        "time": 15837,
        "channel": 9
      },
      {
        "type": "note_off",
        "note": 40,
        "time": 15912,
        "channel": 9
      },
      {
        "type": "note_off",
        "note": 42,
        "time": 15919,
        "channel": 9
      },
      {
        "type": "note_on",
        "note": 42,
        "velocity": 76,
        "time": 16083,
        "channel": 9
      },
      {
        "type": "note_off",
        "note": 42,
        "time": 16166,
        "channel": 9
      },
      {
        "type": "note_on",
        "note": 38,
        "velocity": 8,
        "time": 16218,
        "channel": 9
      },
      {
        "type": "note_off",
        "note": 38,
        "time": 16300,
        "channel": 9
      },
      {
        "type": "note_on",
        "note": 42,
        "velocity": 54,
        "time": 16317,
        "channel": 9
      },
      {
        "type": "note_off",
        "note": 42,
        "time": 16400,
        "channel": 9
      },
      {
        "type": "note_on",
        "note": 38,
        "velocity": 31,
        "time": 16453,
        "channel": 9
      },
      {
        "type": "note_off",
        "note": 38,
        "time": 16535,
        "channel": 9
      },
      {
        "type": "note_on",
        "note": 42,
        "velocity": 77,
        "time": 16552,
        "channel": 9
      },
      {
        "type": "note_on",
        "note": 36,
        "velocity": 106,
        "time": 16554,
        "channel": 9
      },
      {
        "type": "note_off",
        "note": 36,
        "time": 16635,
        "channel": 9
      },
      {
        "type": "note_off",
        "note": 42,
        "time": 16635,
        "channel": 9
      },
      {
        "type": "note_on",
        "note": 40,
        "velocity": 127,
        "time": 16792,
        "channel": 9
      },
      {
        "type": "note_on",
        "note": 42,
        "velocity": 79,
        "time": 16795,
        "channel": 9
      },
      {
        "type": "note_off",
        "note": 40,
        "time": 16874,
        "channel": 9
      },
      {
        "type": "note_off",
        "note": 42,
        "time": 16878,
        "channel": 9
      },
      {
        "type": "note_on",
        "note": 42,
        "velocity": 104,
        "time": 17035,
        "channel": 9
      },
      {
        "type": "note_off",
        "note": 42,
        "time": 17118,
        "channel": 9
      },
      {
        "type": "note_on",
        "note": 36,
        "velocity": 45,
        "time": 17160,
        "channel": 9
      },
      {
        "type": "note_off",
        "note": 36,
        "time": 17242,
        "channel": 9
      },
      {
        "type": "note_on",
        "note": 36,
        "velocity": 115,
        "time": 17275,
        "channel": 9
      },
      {
        "type": "note_on",
        "note": 42,
        "velocity": 76,
        "time": 17275,
        "channel": 9
      },
      {
        "type": "note_off",
        "note": 36,
        "time": 17358,
        "channel": 9
      },
      {
        "type": "note_off",
        "note": 42,
        "time": 17358,
        "channel": 9
      },
      {
        "type": "note_on",
        "note": 22,
        "velocity": 89,
        "time": 17515,
        "channel": 9
      },
      {
        "type": "note_off",
        "note": 22,
        "time": 17598,
        "channel": 9
      },
      {
        "type": "note_on",
        "note": 40,
        "velocity": 127,
        "time": 17765,
        "channel": 9
      },
      {
        "type": "note_on",
        "note": 42,
        "velocity": 70,
        "time": 17772,
        "channel": 9
      },
      {
        "type": "note_off",
        "note": 40,
        "time": 17847,
        "channel": 9
      },
      {
        "type": "note_off",
        "note": 42,
        "time": 17855,
        "channel": 9
      },
      {
        "type": "note_on",
        "note": 42,
        "velocity": 77,
        "time": 18016,
        "channel": 9
      },
      {
        "type": "note_off",
        "note": 42,
        "time": 18099,
        "channel": 9
      },
      {
        "type": "note_on",
        "note": 38,
        "velocity": 11,
        "time": 18154,
        "channel": 9
      },
      {
        "type": "note_off",
        "note": 38,
        "time": 18236,
        "channel": 9
      },
      {
        "type": "note_on",
        "note": 42,
        "velocity": 64,
        "time": 18241,
        "channel": 9
      },
      {
        "type": "note_off",
        "note": 42,
        "time": 18323,
        "channel": 9
      },
      {
        "type": "note_on",
        "note": 38,
        "velocity": 26,
        "time": 18369,
        "channel": 9
      },
      {
        "type": "note_off",
        "note": 38,
        "time": 18452,
        "channel": 9
      },
      {
        "type": "note_on",
        "note": 36,
        "velocity": 92,
        "time": 18467,
        "channel": 9
      },
      {
        "type": "note_on",
        "note": 42,
        "velocity": 66,
        "time": 18473,
        "channel": 9
      },
      {
        "type": "note_off",
        "note": 36,
        "time": 18549,
        "channel": 9
      },
      {
        "type": "note_off",
        "note": 42,
        "time": 18556,
        "channel": 9
      },
      {
        "type": "note_on",
        "note": 40,
        "velocity": 127,
        "time": 18704,
        "channel": 9
      },
      {
        "type": "note_on",
        "note": 42,
        "velocity": 99,
        "time": 18714,
        "channel": 9
      },
      {
        "type": "note_off",
        "note": 40,
        "time": 18786,
        "channel": 9
      },
      {
        "type": "note_off",
        "note": 42,
        "time": 18796,
        "channel": 9
      },
      {
        "type": "note_on",
        "note": 42,
        "velocity": 127,
        "time": 18940,
        "channel": 9
      },
      {
        "type": "note_off",
        "note": 42,
        "time": 19023,
        "channel": 9
      },
      {
        "type": "note_on",
        "note": 36,
        "velocity": 46,
        "time": 19087,
        "channel": 9
      },
      {
        "type": "note_on",
        "note": 38,
        "velocity": 21,
        "time": 19122,
        "channel": 9
      },
      {
        "type": "note_off",
        "note": 36,
        "time": 19169,
        "channel": 9
      },
      {
        "type": "note_on",
        "note": 36,
        "velocity": 77,
        "time": 19179,
        "channel": 9
      },
      {
        "type": "note_on",
        "note": 42,
        "velocity": 82,
        "time": 19183,
        "channel": 9
      },
      {
        "type": "note_off",
        "note": 38,
        "time": 19204,
        "channel": 9
      },
      {
        "type": "note_off",
        "note": 36,
        "time": 19261,
        "channel": 9
      },
      {
        "type": "note_off",
        "note": 42,
        "time": 19266,
        "channel": 9
      },
      {
        "type": "note_on",
        "note": 42,
        "velocity": 92,
        "time": 19418,
        "channel": 9
      },
      {
        "type": "note_off",
        "note": 42,
        "time": 19501,
        "channel": 9
      },
      {
        "type": "note_on",
        "note": 40,
        "velocity": 127,
        "time": 19649,
        "channel": 9
      },
      {
        "type": "note_on",
        "note": 42,
        "velocity": 90,
        "time": 19660,
        "channel": 9
      },
      {
        "type": "note_off",
        "note": 40,
        "time": 19732,
        "channel": 9
      },
      {
        "type": "note_off",
        "note": 42,
        "time": 19742,
        "channel": 9
      },
      {
        "type": "note_on",
        "note": 42,
        "velocity": 97,
        "time": 19906,
        "channel": 9
      },
      {
        "type": "note_off",
        "note": 42,
        "time": 19989,
        "channel": 9
      },
      {
        "type": "note_on",
        "note": 42,
        "velocity": 64,
        "time": 20135,
        "channel": 9
      },
      {
        "type": "note_off",
        "note": 42,
        "time": 20218,
        "channel": 9
      },
      {
        "type": "note_on",
        "note": 38,
        "velocity": 12,
        "time": 20275,
        "channel": 9
      },
      {
        "type": "note_off",
        "note": 38,
        "time": 20357,
        "channel": 9
      },
      {
        "type": "note_on",
        "note": 42,
        "velocity": 64,
        "time": 20366,
        "channel": 9
      },
      {
        "type": "note_on",
        "note": 36,
        "velocity": 107,
        "time": 20379,
        "channel": 9
      },
      {
        "type": "note_off",
        "note": 42,
        "time": 20449,
        "channel": 9
      },
      {
        "type": "note_off",
        "note": 36,
        "time": 20462,
        "channel": 9
      },
      {
        "type": "note_on",
        "note": 40,
        "velocity": 127,
        "time": 20622,
        "channel": 9
      },
      {
        "type": "note_on",
        "note": 42,
        "velocity": 103,
        "time": 20623,
        "channel": 9
      },
      {
        "type": "note_on",
        "note": 38,
        "velocity": 37,
        "time": 20685,
        "channel": 9
      },
      {
        "type": "note_off",
        "note": 40,
        "time": 20704,
        "channel": 9
      },
      {
        "type": "note_off",
        "note": 42,
        "time": 20706,
        "channel": 9
      },
      {
        "type": "note_on",
        "note": 38,
        "velocity": 16,
        "time": 20728,
        "channel": 9
      },
      {
        "type": "note_off",
        "note": 38,
        "time": 20728,
        "channel": 9
      },
      {
        "type": "note_off",
        "note": 38,
        "time": 20767,
        "channel": 9
      },
      {
        "type": "note_on",
        "note": 42,
        "velocity": 117,
        "time": 20870,
        "channel": 9
      },
      {
        "type": "note_off",
        "note": 42,
        "time": 20953,
        "channel": 9
      },
      {
        "type": "note_on",
        "note": 36,
        "velocity": 49,
        "time": 21021,
        "channel": 9
      },
      {
        "type": "note_off",
        "note": 36,
        "time": 21103,
        "channel": 9
      },
      {
        "type": "note_on",
        "note": 36,
        "velocity": 65,
        "time": 21108,
        "channel": 9
      },
      {
        "type": "note_on",
        "note": 42,
        "velocity": 75,
        "time": 21112,
        "channel": 9
      },
      {
        "type": "note_off",
        "note": 36,
        "time": 21191,
        "channel": 9
      },
      {
        "type": "note_off",
        "note": 42,
        "time": 21195,
        "channel": 9
      },
      {
        "type": "note_on",
        "note": 42,
        "velocity": 125,
        "time": 21355,
        "channel": 9
      },
      {
        "type": "note_off",
        "note": 42,
        "time": 21438,
        "channel": 9
      },
      {
        "type": "note_on",
        "note": 40,
        "velocity": 113,
        "time": 21602,
        "channel": 9
      },
      {
        "type": "note_on",
        "note": 42,
        "velocity": 98,
        "time": 21608,
        "channel": 9
      },
      {
        "type": "note_off",
        "note": 40,
        "time": 21684,
        "channel": 9
      },
      {
        "type": "note_off",
        "note": 42,
        "time": 21691,
        "channel": 9
      },
      {
        "type": "note_on",
        "note": 42,
        "velocity": 77,
        "time": 21854,
        "channel": 9
      },
      {
        "type": "note_off",
        "note": 42,
        "time": 21936,
        "channel": 9
      },
      {
        "type": "note_on",
        "note": 37,
        "velocity": 20,
        "time": 21985,
        "channel": 9
      },
      {
        "type": "note_off",
        "note": 37,
        "time": 22068,
        "channel": 9
      },
      {
        "type": "note_on",
        "note": 42,
        "velocity": 61,
        "time": 22083,
        "channel": 9
      },
      {
        "type": "note_off",
        "note": 42,
        "time": 22166,
        "channel": 9
      },
      {
        "type": "note_on",
        "note": 38,
        "velocity": 19,
        "time": 22221,
        "channel": 9
      },
      {
        "type": "note_off",
        "note": 38,
        "time": 22303,
        "channel": 9
      },
      {
        "type": "note_on",
        "note": 26,
        "velocity": 85,
        "time": 22318,
        "channel": 9
      },
      {
        "type": "note_on",
        "note": 36,
        "velocity": 127,
        "time": 22321,
        "channel": 9
      },
      {
        "type": "note_off",
        "note": 26,
        "time": 22401,
        "channel": 9
      },
      {
        "type": "note_off",
        "note": 36,
        "time": 22404,
        "channel": 9
      },
      {
        "type": "note_on",
        "note": 44,
        "velocity": 57,
        "time": 22530,
        "channel": 9
      },
      {
        "type": "note_on",
        "note": 40,
        "velocity": 127,
        "time": 22562,
        "channel": 9
      },
      {
        "type": "note_on",
        "note": 22,
        "velocity": 94,
        "time": 22570,
        "channel": 9
      },
      {
        "type": "note_off",
        "note": 44,
        "time": 22612,
        "channel": 9
      },
      {
        "type": "note_off",
        "note": 40,
        "time": 22645,
        "channel": 9
      },
      {
        "type": "note_off",
        "note": 22,
        "time": 22652,
        "channel": 9
      },
      {
        "type": "note_on",
        "note": 42,
        "velocity": 66,
        "time": 22812,
        "channel": 9
      },
      {
        "type": "note_off",
        "note": 42,
        "time": 22895,
        "channel": 9
      },
      {
        "type": "note_on",
        "note": 36,
        "velocity": 43,
        "time": 22950,
        "channel": 9
      },
      {
        "type": "note_off",
        "note": 36,
        "time": 23032,
        "channel": 9
      },
      {
        "type": "note_on",
        "note": 36,
        "velocity": 73,
        "time": 23043,
        "channel": 9
      },
      {
        "type": "note_on",
        "note": 42,
        "velocity": 77,
        "time": 23045,
        "channel": 9
      },
      {
        "type": "note_off",
        "note": 36,
        "time": 23126,
        "channel": 9
      },
      {
        "type": "note_off",
        "note": 42,
        "time": 23128,
        "channel": 9
      },
      {
        "type": "note_on",
        "note": 42,
        "velocity": 86,
        "time": 23289,
        "channel": 9
      },
      {
        "type": "note_off",
        "note": 42,
        "time": 23372,
        "channel": 9
      },
      {
        "type": "note_on",
        "note": 40,
        "velocity": 127,
        "time": 23516,
        "channel": 9
      },
      {
        "type": "note_on",
        "note": 42,
        "velocity": 82,
        "time": 23529,
        "channel": 9
      },
      {
        "type": "note_off",
        "note": 40,
        "time": 23599,
        "channel": 9
      },
      {
        "type": "note_off",
        "note": 42,
        "time": 23612,
        "channel": 9
      },
      {
        "type": "note_on",
        "note": 42,
        "velocity": 64,
        "time": 23766,
        "channel": 9
      },
      {
        "type": "note_off",
        "note": 42,
        "time": 23849,
        "channel": 9
      },
      {
        "type": "note_on",
        "note": 38,
        "velocity": 7,
        "time": 23899,
        "channel": 9
      },
      {
        "type": "note_off",
        "note": 38,
        "time": 23981,
        "channel": 9
      },
      {
        "type": "note_on",
        "note": 42,
        "velocity": 54,
        "time": 23993,
        "channel": 9
      },
      {
        "type": "note_off",
        "note": 42,
        "time": 24075,
        "channel": 9
      },
      {
        "type": "note_on",
        "note": 38,
        "velocity": 15,
        "time": 24114,
        "channel": 9
      },
      {
        "type": "note_off",
        "note": 38,
        "time": 24196,
        "channel": 9
      },
      {
        "type": "note_on",
        "note": 36,
        "velocity": 71,
        "time": 24211,
        "channel": 9
      },
      {
        "type": "note_on",
        "note": 42,
        "velocity": 55,
        "time": 24217,
        "channel": 9
      },
      {
        "type": "note_off",
        "note": 36,
        "time": 24293,
        "channel": 9
      },
      {
        "type": "note_off",
        "note": 42,
        "time": 24299,
        "channel": 9
      },
      {
        "type": "note_on",
        "note": 40,
        "velocity": 127,
        "time": 24460,
        "channel": 9
      },
      {
        "type": "note_on",
        "note": 22,
        "velocity": 87,
        "time": 24463,
        "channel": 9
      },
      {
        "type": "note_off",
        "note": 40,
        "time": 24543,
        "channel": 9
      },
      {
        "type": "note_off",
        "note": 22,
        "time": 24546,
        "channel": 9
      },
      {
        "type": "note_on",
        "note": 38,
        "velocity": 10,
        "time": 24571,
        "channel": 9
      },
      {
        "type": "note_off",
        "note": 38,
        "time": 24654,
        "channel": 9
      },
      {
        "type": "note_on",
        "note": 42,
        "velocity": 71,
        "time": 24692,
        "channel": 9
      },
      {
        "type": "note_off",
        "note": 42,
        "time": 24775,
        "channel": 9
      },
      {
        "type": "note_on",
        "note": 36,
        "velocity": 45,
        "time": 24836,
        "channel": 9
      },
      {
        "type": "note_off",
        "note": 36,
        "time": 24918,
        "channel": 9
      },
      {
        "type": "note_on",
        "note": 36,
        "velocity": 73,
        "time": 24938,
        "channel": 9
      },
      {
        "type": "note_on",
        "note": 42,
        "velocity": 61,
        "time": 24951,
        "channel": 9
      },
      {
        "type": "note_off",
        "note": 36,
        "time": 25020,
        "channel": 9
      },
      {
        "type": "note_off",
        "note": 42,
        "time": 25033,
        "channel": 9
      },
      {
        "type": "note_on",
        "note": 42,
        "velocity": 92,
        "time": 25190,
        "channel": 9
      },
      {
        "type": "note_off",
        "note": 42,
        "time": 25273,
        "channel": 9
      },
      {
        "type": "note_on",
        "note": 40,
        "velocity": 127,
        "time": 25432,
        "channel": 9
      },
      {
        "type": "note_on",
        "note": 42,
        "velocity": 77,
        "time": 25449,
        "channel": 9
      },
      {
        "type": "note_off",
        "note": 40,
        "time": 25514,
        "channel": 9
      },
      {
        "type": "note_off",
        "note": 42,
        "time": 25532,
        "channel": 9
      },
      {
        "type": "note_on",
        "note": 42,
        "velocity": 90,
        "time": 25688,
        "channel": 9
      },
      {
        "type": "note_off",
        "note": 42,
        "time": 25771,
        "channel": 9
      },
      {
        "type": "note_on",
        "note": 38,
        "velocity": 10,
        "time": 25810,
        "channel": 9
      },
      {
        "type": "note_off",
        "note": 38,
        "time": 25892,
        "channel": 9
      },
      {
        "type": "note_on",
        "note": 42,
        "velocity": 57,
        "time": 25927,
        "channel": 9
      },
      {
        "type": "note_off",
        "note": 42,
        "time": 26009,
        "channel": 9
      },
      {
        "type": "note_on",
        "note": 38,
        "velocity": 15,
        "time": 26044,
        "channel": 9
      },
      {
        "type": "note_off",
        "note": 38,
        "time": 26126,
        "channel": 9
      },
      {
        "type": "note_on",
        "note": 42,
        "velocity": 65,
        "time": 26145,
        "channel": 9
      },
      {
        "type": "note_on",
        "note": 36,
        "velocity": 115,
        "time": 26147,
        "channel": 9
      },
      {
        "type": "note_off",
        "note": 42,
        "time": 26228,
        "channel": 9
      },
      {
        "type": "note_off",
        "note": 36,
        "time": 26229,
        "channel": 9
      },
      {
        "type": "note_on",
        "note": 40,
        "velocity": 127,
        "time": 26388,
        "channel": 9
      },
      {
        "type": "note_on",
        "note": 22,
        "velocity": 100,
        "time": 26391,
        "channel": 9
      },
      {
        "type": "note_off",
        "note": 40,
        "time": 26470,
        "channel": 9
      },
      {
        "type": "note_off",
        "note": 22,
        "time": 26474,
        "channel": 9
      },
      {
        "type": "note_on",
        "note": 42,
        "velocity": 82,
        "time": 26628,
        "channel": 9
      },
      {
        "type": "note_off",
        "note": 42,
        "time": 26711,
        "channel": 9
      },
      {
        "type": "note_on",
        "note": 36,
        "velocity": 43,
        "time": 26782,
        "channel": 9
      },
      {
        "type": "note_off",
        "note": 36,
        "time": 26864,
        "channel": 9
      },
      {
        "type": "note_on",
        "note": 42,
        "velocity": 82,
        "time": 26873,
        "channel": 9
      },
      {
        "type": "note_on",
        "note": 36,
        "velocity": 61,
        "time": 26877,
        "channel": 9
      },
      {
        "type": "note_off",
        "note": 42,
        "time": 26956,
        "channel": 9
      },
      {
        "type": "note_off",
        "note": 36,
        "time": 26959,
        "channel": 9
      },
      {
        "type": "note_on",
        "note": 42,
        "velocity": 86,
        "time": 27116,
        "channel": 9
      },
      {
        "type": "note_off",
        "note": 42,
        "time": 27199,
        "channel": 9
      },
      {
        "type": "note_on",
        "note": 40,
        "velocity": 127,
        "time": 27355,
        "channel": 9
      },
      {
        "type": "note_on",
        "note": 42,
        "velocity": 88,
        "time": 27363,
        "channel": 9
      },
      {
        "type": "note_off",
        "note": 40,
        "time": 27437,
        "channel": 9
      },
      {
        "type": "note_off",
        "note": 42,
        "time": 27446,
        "channel": 9
      },
      {
        "type": "note_on",
        "note": 42,
        "velocity": 80,
        "time": 27604,
        "channel": 9
      },
      {
        "type": "note_off",
        "note": 42,
        "time": 27687,
        "channel": 9
      },
      {
        "type": "note_on",
        "note": 38,
        "velocity": 10,
        "time": 27746,
        "channel": 9
      },
      {
        "type": "note_off",
        "note": 38,
        "time": 27828,
        "channel": 9
      },
      {
        "type": "note_on",
        "note": 42,
        "velocity": 45,
        "time": 27835,
        "channel": 9
      },
      {
        "type": "note_off",
        "note": 42,
        "time": 27918,
        "channel": 9
      },
      {
        "type": "note_on",
        "note": 38,
        "velocity": 18,
        "time": 27971,
        "channel": 9
      },
      {
        "type": "note_on",
        "note": 36,
        "velocity": 93,
        "time": 28053,
        "channel": 9
      },
      {
        "type": "note_off",
        "note": 38,
        "time": 28053,
        "channel": 9
      },
      {
        "type": "note_on",
        "note": 42,
        "velocity": 76,
        "time": 28066,
        "channel": 9
      },
      {
        "type": "note_off",
        "note": 36,
        "time": 28135,
        "channel": 9
      },
      {
        "type": "note_off",
        "note": 42,
        "time": 28149,
        "channel": 9
      },
      {
        "type": "note_on",
        "note": 40,
        "velocity": 127,
        "time": 28308,
        "channel": 9
      },
      {
        "type": "note_on",
        "note": 22,
        "velocity": 88,
        "time": 28313,
        "channel": 9
      },
      {
        "type": "note_off",
        "note": 40,
        "time": 28390,
        "channel": 9
      },
      {
        "type": "note_off",
        "note": 22,
        "time": 28395,
        "channel": 9
      },
      {
        "type": "note_on",
        "note": 22,
        "velocity": 78,
        "time": 28558,
        "channel": 9
      },
      {
        "type": "note_off",
        "note": 22,
        "time": 28641,
        "channel": 9
      },
      {
        "type": "note_on",
        "note": 36,
        "velocity": 42,
        "time": 28698,
        "channel": 9
      },
      {
        "type": "note_off",
        "note": 36,
        "time": 28780,
        "channel": 9
      },
      {
        "type": "note_on",
        "note": 36,
        "velocity": 55,
        "time": 28800,
        "channel": 9
      },
      {
        "type": "note_on",
        "note": 42,
        "velocity": 72,
        "time": 28801,
        "channel": 9
      },
      {
        "type": "note_off",
        "note": 36,
        "time": 28882,
        "channel": 9
      },
      {
        "type": "note_off",
        "note": 42,
        "time": 28882,
        "channel": 9
      },
      {
        "type": "note_on",
        "note": 42,
        "velocity": 71,
        "time": 29040,
        "channel": 9
      },
      {
        "type": "note_off",
        "note": 42,
        "time": 29123,
        "channel": 9
      },
      {
        "type": "note_on",
        "note": 40,
        "velocity": 127,
        "time": 29276,
        "channel": 9
      },
      {
        "type": "note_on",
        "note": 22,
        "velocity": 110,
        "time": 29279,
        "channel": 9
      },
      {
        "type": "note_off",
        "note": 40,
        "time": 29358,
        "channel": 9
      },
      {
        "type": "note_off",
        "note": 22,
        "time": 29362,
        "channel": 9
      },
      {
        "type": "note_on",
        "note": 22,
        "velocity": 86,
        "time": 29517,
        "channel": 9
      },
      {
        "type": "note_off",
        "note": 22,
        "time": 29599,
        "channel": 9
      },
      {
        "type": "note_on",
        "note": 38,
        "velocity": 7,
        "time": 29646,
        "channel": 9
      },
      {
        "type": "note_off",
        "note": 38,
        "time": 29728,
        "channel": 9
      },
      {
        "type": "note_on",
        "note": 22,
        "velocity": 56,
        "time": 29754,
        "channel": 9
      },
      {
        "type": "note_off",
        "note": 22,
        "time": 29836,
        "channel": 9
      },
      {
        "type": "note_on",
        "note": 38,
        "velocity": 113,
        "time": 29874,
        "channel": 9
      },
      {
        "type": "note_on",
        "note": 44,
        "velocity": 60,
        "time": 29943,
        "channel": 9
      },
      {
        "type": "note_off",
        "note": 38,
        "time": 29957,
        "channel": 9
      },
      {
        "type": "note_off",
        "note": 44,
        "time": 30025,
        "channel": 9
      },
      {
        "type": "note_on",
        "note": 48,
        "velocity": 117,
        "time": 30100,
        "channel": 9
      },
      {
        "type": "note_on",
        "note": 44,
        "velocity": 62,
        "time": 30178,
        "channel": 9
      },
      {
        "type": "note_off",
        "note": 48,
        "time": 30182,
        "channel": 9
      },
      {
        "type": "note_on",
        "note": 48,
        "velocity": 127,
        "time": 30214,
        "channel": 9
      },
      {
        "type": "note_off",
        "note": 44,
        "time": 30260,
        "channel": 9
      },
      {
        "type": "note_off",
        "note": 48,
        "time": 30297,
        "channel": 9
      },
      {
        "type": "note_on",
        "note": 43,
        "velocity": 96,
        "time": 30330,
        "channel": 9
      },
      {
        "type": "note_off",
        "note": 43,
        "time": 30412,
        "channel": 9
      },
      {
        "type": "note_on",
        "note": 44,
        "velocity": 77,
        "time": 30419,
        "channel": 9
      },
      {
        "type": "note_on",
        "note": 43,
        "velocity": 89,
        "time": 30446,
        "channel": 9
      },
      {
        "type": "note_off",
        "note": 44,
        "time": 30501,
        "channel": 9
      },
      {
        "type": "note_off",
        "note": 43,
        "time": 30529,
        "channel": 9
      },
      {
        "type": "note_on",
        "note": 43,
        "velocity": 112,
        "time": 30566,
        "channel": 9
      },
      {
        "type": "note_off",
        "note": 43,
        "time": 30649,
        "channel": 9
      },
      {
        "type": "note_on",
        "note": 36,
        "velocity": 127,
        "time": 30673,
        "channel": 9
      },
      {
        "type": "note_off",
        "note": 36,
        "time": 30756,
        "channel": 9
      }
    ]
  },
  {
    "file": "data\\groove\\drummer1\\eval_session\\1_funk-groove1_138_beat_4-4.mid",
    "num_events": 821,
    "duration": 30771,
    "events": [
      {
        "type": "set_tempo",
        "tempo": 434783,
        "time": 0
      },
      {
        "type": "note_on",
        "note": 55,
        "velocity": 60,
        "time": 3,
        "channel": 9
      },
      {
        "type": "note_on",
        "note": 51,
        "velocity": 55,
        "time": 7,
        "channel": 9
      },
      {
        "type": "note_on",
        "note": 36,
        "velocity": 64,
        "time": 10,
        "channel": 9
      },
      {
        "type": "note_off",
        "note": 55,
        "time": 115,
        "channel": 9
      },
      {
        "type": "note_off",
        "note": 51,
        "time": 118,
        "channel": 9
      },
      {
        "type": "note_off",
        "note": 36,
        "time": 120,
        "channel": 9
      },
      {
        "type": "note_on",
        "note": 36,
        "velocity": 57,
        "time": 211,
        "channel": 9
      },
      {
        "type": "note_on",
        "note": 51,
        "velocity": 31,
        "time": 238,
        "channel": 9
      },
      {
        "type": "note_off",
        "note": 36,
        "time": 322,
        "channel": 9
      },
      {
        "type": "note_off",
        "note": 51,
        "time": 348,
        "channel": 9
      },
      {
        "type": "note_on",
        "note": 44,
        "velocity": 77,
        "time": 446,
        "channel": 9
      },
      {
        "type": "note_on",
        "note": 51,
        "velocity": 54,
        "time": 467,
        "channel": 9
      },
      {
        "type": "note_on",
        "note": 38,
        "velocity": 93,
        "time": 475,
        "channel": 9
      },
      {
        "type": "note_off",
        "note": 44,
        "time": 558,
        "channel": 9
      },
      {
        "type": "note_off",
        "note": 51,
        "time": 578,
        "channel": 9
      },
      {
        "type": "note_off",
        "note": 38,
        "time": 586,
        "channel": 9
      },
      {
        "type": "note_on",
        "note": 44,
        "velocity": 52,
        "time": 666,
        "channel": 9
      },
      {
        "type": "note_on",
        "note": 51,
        "velocity": 42,
        "time": 704,
        "channel": 9
      },
      {
        "type": "note_off",
        "note": 44,
        "time": 779,
        "channel": 9
      },
      {
        "type": "note_off",
        "note": 51,
        "time": 816,
        "channel": 9
      },
      {
        "type": "note_on",
        "note": 38,
        "velocity": 33,
        "time": 828,
        "channel": 9
      },
      {
        "type": "note_on",
        "note": 44,
        "velocity": 77,
        "time": 908,
        "channel": 9
      },
      {
        "type": "note_off",
        "note": 38,
        "time": 939,
        "channel": 9
      },
      {
        "type": "note_on",
        "note": 51,
        "velocity": 46,
        "time": 940,
        "channel": 9
      },
      {
        "type": "note_off",
        "note": 44,
        "time": 971,
        "channel": 9
      },
      {
        "type": "note_off",
        "note": 51,
        "time": 971,
        "channel": 9
      },
      {
        "type": "note_on",
        "note": 38,
        "velocity": 33,
        "time": 1066,
        "channel": 9
      },
      {
        "type": "note_on",
        "note": 44,
        "velocity": 47,
        "time": 1131,
        "channel": 9
      },
      {
        "type": "note_on",
        "note": 36,
        "velocity": 59,
        "time": 1163,
        "channel": 9
      },
      {
        "type": "note_on",
        "note": 51,
        "velocity": 42,
        "time": 1168,
        "channel": 9
      },
      {
        "type": "note_off",
        "note": 38,
        "time": 1177,
        "channel": 9
      },
      {
        "type": "note_off",
        "note": 44,
        "time": 1243,
        "channel": 9
      },
      {
        "type": "note_off",
        "note": 36,
        "time": 1274,
        "channel": 9
      },
      {
        "type": "note_off",
        "note": 51,
        "time": 1280,
        "channel": 9
      },
      {
        "type": "note_on",
        "note": 44,
        "velocity": 77,
        "time": 1390,
        "channel": 9
      },
      {
        "type": "note_on",
        "note": 51,
        "velocity": 64,
        "time": 1422,
        "channel": 9
      },
      {
        "type": "note_on",
        "note": 40,
        "velocity": 114,
        "time": 1447,
        "channel": 9
      },
      {
        "type": "note_off",
        "note": 44,
        "time": 1502,
        "channel": 9
      },
      {
        "type": "note_off",
        "note": 51,
        "time": 1534,
        "channel": 9
      },
      {
        "type": "note_off",
        "note": 40,
        "time": 1558,
        "channel": 9
      },
      {
        "type": "note_on",
        "note": 44,
        "velocity": 17,
        "time": 1623,
        "channel": 9
      },
      {
        "type": "note_on",
        "note": 51,
        "velocity": 44,
        "time": 1679,
        "channel": 9
      },
      {
        "type": "note_off",
        "note": 44,
        "time": 1735,
        "channel": 9
      },
      {
        "type": "note_off",
        "note": 51,
        "time": 1790,
        "channel": 9
      },
      {
        "type": "note_on",
        "note": 38,
        "velocity": 30,
        "time": 1797,
        "channel": 9
      },
      {
        "type": "note_on",
        "note": 44,
        "velocity": 72,
        "time": 1879,
        "channel": 9
      },
      {
        "type": "note_off",
        "note": 38,
        "time": 1908,
        "channel": 9
      },
      {
        "type": "note_on",
        "note": 51,
        "velocity": 42,
        "time": 1913,
        "channel": 9
      },
      {
        "type": "note_on",
        "note": 36,
        "velocity": 55,
        "time": 1915,
        "channel": 9
      },
      {
        "type": "note_off",
        "note": 44,
        "time": 1992,
        "channel": 9
      },
      {
        "type": "note_off",
        "note": 36,
        "time": 2025,
        "channel": 9
      },
      {
        "type": "note_off",
        "note": 51,
        "time": 2025,
        "channel": 9
      },
      {
        "type": "note_on",
        "note": 44,
        "velocity": 60,
        "time": 2113,
        "channel": 9
      },
      {
        "type": "note_on",
        "note": 36,
        "velocity": 62,
        "time": 2150,
        "channel": 9
      },
      {
        "type": "note_on",
        "note": 51,
        "velocity": 41,
        "time": 2163,
        "channel": 9
      },
      {
        "type": "note_off",
        "note": 44,
        "time": 2225,
        "channel": 9
      },
      {
        "type": "note_off",
        "note": 36,
        "time": 2261,
        "channel": 9
      },
      {
        "type": "note_off",
        "note": 51,
        "time": 2274,
        "channel": 9
      },
      {
        "type": "note_on",
        "note": 44,
        "velocity": 80,
        "time": 2381,
        "channel": 9
      },
      {
        "type": "note_on",
        "note": 38,
        "velocity": 94,
        "time": 2404,
        "channel": 9
      },
      {
        "type": "note_on",
        "note": 51,
        "velocity": 51,
        "time": 2405,
        "channel": 9
      },
      {
        "type": "note_off",
        "note": 44,
        "time": 2493,
        "channel": 9
      },
      {
        "type": "note_off",
        "note": 38,
        "time": 2515,
        "channel": 9
      },
      {
        "type": "note_off",
        "note": 51,
        "time": 2515,
        "channel": 9
      },
      {
        "type": "note_on",
        "note": 44,
        "velocity": 67,
        "time": 2610,
        "channel": 9
      },
      {
        "type": "note_on",
        "note": 51,
        "velocity": 45,
        "time": 2647,
        "channel": 9
      },
      {
        "type": "note_off",
        "note": 44,
        "time": 2722,
        "channel": 9
      },
      {
        "type": "note_off",
        "note": 51,
        "time": 2758,
        "channel": 9
      },
      {
        "type": "note_on",
        "note": 38,
        "velocity": 32,
        "time": 2767,
        "channel": 9
      },
      {
        "type": "note_on",
        "note": 44,
        "velocity": 72,
        "time": 2862,
        "channel": 9
      },
      {
        "type": "note_off",
        "note": 38,
        "time": 2878,
        "channel": 9
      },
      {
        "type": "note_on",
        "note": 51,
        "velocity": 43,
        "time": 2882,
        "channel": 9
      },
      {
        "type": "note_off",
        "note": 44,
        "time": 2973,
        "channel": 9
      },
      {
        "type": "note_off",
        "note": 51,
        "time": 2993,
        "channel": 9
      },
      {
        "type": "note_on",
        "note": 38,
        "velocity": 24,
        "time": 2995,
        "channel": 9
      },
      {
        "type": "note_on",
        "note": 36,
        "velocity": 47,
        "time": 3074,
        "channel": 9
      },
      {
        "type": "note_on",
        "note": 44,
        "velocity": 35,
        "time": 3094,
        "channel": 9
      },
      {
        "type": "note_off",
        "note": 38,
        "time": 3106,
        "channel": 9
      },
      {
        "type": "note_on",
        "note": 51,
        "velocity": 36,
        "time": 3122,
        "channel": 9
      },
      {
        "type": "note_off",
        "note": 36,
        "time": 3185,
        "channel": 9
      },
      {
        "type": "note_off",
        "note": 44,
        "time": 3205,
        "channel": 9
      },
      {
        "type": "note_on",
        "note": 36,
        "velocity": 54,
        "time": 3219,
        "channel": 9
      },
      {
        "type": "note_off",
        "note": 51,
        "time": 3233,
        "channel": 9
      },
      {
        "type": "note_off",
        "note": 36,
        "time": 3331,
        "channel": 9
      },
      {
        "type": "note_on",
        "note": 38,
        "velocity": 89,
        "time": 3347,
        "channel": 9
      },
      {
        "type": "note_on",
        "note": 44,
        "velocity": 77,
        "time": 3356,
        "channel": 9
      },
      {
        "type": "note_on",
        "note": 51,
        "velocity": 54,
        "time": 3360,
        "channel": 9
      },
      {
        "type": "note_off",
        "note": 38,
        "time": 3458,
        "channel": 9
      },
      {
        "type": "note_off",
        "note": 44,
        "time": 3468,
        "channel": 9
      },
      {
        "type": "note_off",
        "note": 51,
        "time": 3471,
        "channel": 9
      },
      {
        "type": "note_on",
        "note": 44,
        "velocity": 52,
        "time": 3574,
        "channel": 9
      },
      {
        "type": "note_on",
        "note": 51,
        "velocity": 39,
        "time": 3607,
        "channel": 9
      },
      {
        "type": "note_off",
        "note": 44,
        "time": 3685,
        "channel": 9
      },
      {
        "type": "note_on",
        "note": 38,
        "velocity": 37,
        "time": 3710,
        "channel": 9
      },
      {
        "type": "note_off",
        "note": 51,
        "time": 3718,
        "channel": 9
      },
      {
        "type": "note_on",
        "note": 38,
        "velocity": 41,
        "time": 3747,
        "channel": 9
      },
      {
        "type": "note_off",
        "note": 38,
        "time": 3747,
        "channel": 9
      },
      {
        "type": "note_on",
        "note": 38,
        "velocity": 33,
        "time": 3796,
        "channel": 9
      },
      {
        "type": "note_off",
        "note": 38,
        "time": 3796,
        "channel": 9
      },
      {
        "type": "note_off",
        "note": 38,
        "time": 3822,
        "channel": 9
      },
      {
        "type": "note_on",
        "note": 44,
        "velocity": 72,
        "time": 3823,
        "channel": 9
      },
      {
        "type": "note_on",
        "note": 36,
        "velocity": 57,
        "time": 3836,
        "channel": 9
      },
      {
        "type": "note_on",
        "note": 51,
        "velocity": 45,
        "time": 3837,
        "channel": 9
      },
      {
        "type": "note_on",
        "note": 38,
        "velocity": 23,
        "time": 3846,
        "channel": 9
      },
      {
        "type": "note_off",
        "note": 38,
        "time": 3859,
        "channel": 9
      },
      {
        "type": "note_off",
        "note": 44,
        "time": 3935,
        "channel": 9
      },
      {
        "type": "note_off",
        "note": 36,
        "time": 3947,
        "channel": 9
      },
      {
        "type": "note_off",
        "note": 51,
        "time": 3947,
        "channel": 9
      },
      {
        "type": "note_on",
        "note": 44,
        "velocity": 22,
        "time": 4043,
        "channel": 9
      },
      {
        "type": "note_on",
        "note": 36,
        "velocity": 62,
        "time": 4072,
        "channel": 9
      },
      {
        "type": "note_on",
        "note": 51,
        "velocity": 45,
        "time": 4080,
        "channel": 9
      },
      {
        "type": "note_off",
        "note": 44,
        "time": 4154,
        "channel": 9
      },
      {
        "type": "note_off",
        "note": 36,
        "time": 4184,
        "channel": 9
      },
      {
        "type": "note_off",
        "note": 51,
        "time": 4191,
        "channel": 9
      },
      {
        "type": "note_on",
        "note": 44,
        "velocity": 80,
        "time": 4300,
        "channel": 9
      },
      {
        "type": "note_on",
        "note": 37,
        "velocity": 88,
        "time": 4317,
        "channel": 9
      },
      {
        "type": "note_on",
        "note": 51,
        "velocity": 50,
        "time": 4321,
        "channel": 9
      },
      {
        "type": "note_off",
        "note": 44,
        "time": 4412,
        "channel": 9
      },
      {
        "type": "note_off",
        "note": 37,
        "time": 4428,
        "channel": 9
      },
      {
        "type": "note_off",
        "note": 51,
        "time": 4433,
        "channel": 9
      },
      {
        "type": "note_on",
        "note": 44,
        "velocity": 57,
        "time": 4528,
        "channel": 9
      },
      {
        "type": "note_on",
        "note": 51,
        "velocity": 36,
        "time": 4564,
        "channel": 9
      },
      {
        "type": "note_off",
        "note": 44,
        "time": 4639,
        "channel": 9
      },
      {
        "type": "note_on",
        "note": 38,
        "velocity": 86,
        "time": 4668,
        "channel": 9
      },
      {
        "type": "note_off",
        "note": 51,
        "time": 4676,
        "channel": 9
      },
      {
        "type": "note_off",
        "note": 38,
        "time": 4779,
        "channel": 9
      },
      {
        "type": "note_on",
        "note": 44,
        "velocity": 75,
        "time": 4783,
        "channel": 9
      },
      {
        "type": "note_on",
        "note": 51,
        "velocity": 49,
        "time": 4806,
        "channel": 9
      },
      {
        "type": "note_off",
        "note": 44,
        "time": 4894,
        "channel": 9
      },
      {
        "type": "note_on",
        "note": 38,
        "velocity": 27,
        "time": 4905,
        "channel": 9
      },
      {
        "type": "note_off",
        "note": 51,
        "time": 4917,
        "channel": 9
      },
      {
        "type": "note_on",
        "note": 44,
        "velocity": 57,
        "time": 5007,
        "channel": 9
      },
      {
        "type": "note_off",
        "note": 38,
        "time": 5017,
        "channel": 9
      },
      {
        "type": "note_on",
        "note": 36,
        "velocity": 66,
        "time": 5038,
        "channel": 9
      },
      {
        "type": "note_on",
        "note": 51,
        "velocity": 47,
        "time": 5040,
        "channel": 9
      },
      {
        "type": "note_off",
        "note": 44,
        "time": 5118,
        "channel": 9
      },
      {
        "type": "note_off",
        "note": 36,
        "time": 5149,
        "channel": 9
      },
      {
        "type": "note_off",
        "note": 51,
        "time": 5151,
        "channel": 9
      },
      {
        "type": "note_on",
        "note": 44,
        "velocity": 77,
        "time": 5248,
        "channel": 9
      },
      {
        "type": "note_on",
        "note": 51,
        "velocity": 39,
        "time": 5269,
        "channel": 9
      },
      {
        "type": "note_off",
        "note": 44,
        "time": 5360,
        "channel": 9
      },
      {
        "type": "note_off",
        "note": 51,
        "time": 5380,
        "channel": 9
      },
      {
        "type": "note_on",
        "note": 44,
        "velocity": 52,
        "time": 5479,
        "channel": 9
      },
      {
        "type": "note_on",
        "note": 51,
        "velocity": 51,
        "time": 5507,
        "channel": 9
      },
      {
        "type": "note_on",
        "note": 38,
        "velocity": 94,
        "time": 5518,
        "channel": 9
      },
      {
        "type": "note_off",
        "note": 44,
        "time": 5591,
        "channel": 9
      },
      {
        "type": "note_off",
        "note": 51,
        "time": 5618,
        "channel": 9
      },
      {
        "type": "note_off",
        "note": 38,
        "time": 5628,
        "channel": 9
      },
      {
        "type": "note_on",
        "note": 44,
        "velocity": 77,
        "time": 5730,
        "channel": 9
      },
      {
        "type": "note_on",
        "note": 51,
        "velocity": 43,
        "time": 5748,
        "channel": 9
      },
      {
        "type": "note_off",
        "note": 44,
        "time": 5841,
        "channel": 9
      },
      {
        "type": "note_on",
        "note": 38,
        "velocity": 38,
        "time": 5845,
        "channel": 9
      },
      {
        "type": "note_off",
        "note": 51,
        "time": 5859,
        "channel": 9
      },
      {
        "type": "note_off",
        "note": 38,
        "time": 5956,
        "channel": 9
      },
      {
        "type": "note_on",
        "note": 44,
        "velocity": 60,
        "time": 5964,
        "channel": 9
      },
      {
        "type": "note_on",
        "note": 51,
        "velocity": 41,
        "time": 5971,
        "channel": 9
      },
      {
        "type": "note_on",
        "note": 36,
        "velocity": 45,
        "time": 5975,
        "channel": 9
      },
      {
        "type": "note_off",
        "note": 44,
        "time": 6074,
        "channel": 9
      },
      {
        "type": "note_off",
        "note": 51,
        "time": 6083,
        "channel": 9
      },
      {
        "type": "note_off",
        "note": 36,
        "time": 6086,
        "channel": 9
      },
      {
        "type": "note_on",
        "note": 36,
        "velocity": 48,
        "time": 6100,
        "channel": 9
      },
      {
        "type": "note_on",
        "note": 51,
        "velocity": 53,
        "time": 6210,
        "channel": 9
      },
      {
        "type": "note_off",
        "note": 36,
        "time": 6211,
        "channel": 9
      },
      {
        "type": "note_on",
        "note": 38,
        "velocity": 99,
        "time": 6216,
        "channel": 9
      },
      {
        "type": "note_on",
        "note": 44,
        "velocity": 80,
        "time": 6222,
        "channel": 9
      },
      {
        "type": "note_off",
        "note": 51,
        "time": 6322,
        "channel": 9
      },
      {
        "type": "note_off",
        "note": 38,
        "time": 6327,
        "channel": 9
      },
      {
        "type": "note_off",
        "note": 44,
        "time": 6334,
        "channel": 9
      },
      {
        "type": "note_on",
        "note": 44,
        "velocity": 55,
        "time": 6448,
        "channel": 9
      },
      {
        "type": "note_on",
        "note": 51,
        "velocity": 45,
        "time": 6451,
        "channel": 9
      },
      {
        "type": "note_on",
        "note": 38,
        "velocity": 88,
        "time": 6556,
        "channel": 9
      },
      {
        "type": "note_off",
        "note": 44,
        "time": 6560,
        "channel": 9
      },
      {
        "type": "note_off",
        "note": 51,
        "time": 6562,
        "channel": 9
      },
      {
        "type": "note_off",
        "note": 38,
        "time": 6667,
        "channel": 9
      },
      {
        "type": "note_on",
        "note": 51,
        "velocity": 58,
        "time": 6687,
        "channel": 9
      },
      {
        "type": "note_on",
        "note": 44,
        "velocity": 80,
        "time": 6700,
        "channel": 9
      },
      {
        "type": "note_off",
        "note": 51,
        "time": 6799,
        "channel": 9
      },
      {
        "type": "note_off",
        "note": 44,
        "time": 6812,
        "channel": 9
      },
      {
        "type": "note_on",
        "note": 38,
        "velocity": 37,
        "time": 6813,
        "channel": 9
      },
      {
        "type": "note_on",
        "note": 38,
        "velocity": 20,
        "time": 6867,
        "channel": 9
      },
      {
        "type": "note_off",
        "note": 38,
        "time": 6867,
        "channel": 9
      },
      {
        "type": "note_on",
        "note": 44,
        "velocity": 40,
        "time": 6916,
        "channel": 9
      },
      {
        "type": "note_on",
        "note": 52,
        "velocity": 61,
        "time": 6923,
        "channel": 9
      },
      {
        "type": "note_on",
        "note": 36,
        "velocity": 71,
        "time": 6924,
        "channel": 9
      },
      {
        "type": "note_off",
        "note": 38,
        "time": 6926,
        "channel": 9
      },
      {
        "type": "note_off",
        "note": 44,
        "time": 7027,
        "channel": 9
      },
      {
        "type": "note_off",
        "note": 52,
        "time": 7034,
        "channel": 9
      },
      {
        "type": "note_off",
        "note": 36,
        "time": 7036,
        "channel": 9
      },
      {
        "type": "note_on",
        "note": 44,
        "velocity": 80,
        "time": 7160,
        "channel": 9
      },
      {
        "type": "note_on",
        "note": 51,
        "velocity": 49,
        "time": 7163,
        "channel": 9
      },
      {
        "type": "note_off",
        "note": 44,
        "time": 7271,
        "channel": 9
      },
      {
        "type": "note_off",
        "note": 51,
        "time": 7274,
        "channel": 9
      },
      {
        "type": "note_on",
        "note": 44,
        "velocity": 62,
        "time": 7383,
        "channel": 9
      },
      {
        "type": "note_on",
        "note": 38,
        "velocity": 105,
        "time": 7400,
        "channel": 9
      },
      {
        "type": "note_on",
        "note": 51,
        "velocity": 56,
        "time": 7401,
        "channel": 9
      },
      {
        "type": "note_off",
        "note": 44,
        "time": 7495,
        "channel": 9
      },
      {
        "type": "note_off",
        "note": 38,
        "time": 7511,
        "channel": 9
      },
      {
        "type": "note_off",
        "note": 51,
        "time": 7513,
        "channel": 9
      },
      {
        "type": "note_on",
        "note": 44,
        "velocity": 77,
        "time": 7620,
        "channel": 9
      },
      {
        "type": "note_on",
        "note": 51,
        "velocity": 51,
        "time": 7651,
        "channel": 9
      },
      {
        "type": "note_on",
        "note": 36,
        "velocity": 50,
        "time": 7657,
        "channel": 9
      },
      {
        "type": "note_off",
        "note": 44,
        "time": 7733,
        "channel": 9
      },
      {
        "type": "note_on",
        "note": 38,
        "velocity": 34,
        "time": 7735,
        "channel": 9
      },
      {
        "type": "note_off",
        "note": 51,
        "time": 7762,
        "channel": 9
      },
      {
        "type": "note_off",
        "note": 36,
        "time": 7769,
        "channel": 9
      },
      {
        "type": "note_on",
        "note": 44,
        "velocity": 55,
        "time": 7845,
        "channel": 9
      },
      {
        "type": "note_off",
        "note": 38,
        "time": 7846,
        "channel": 9
      },
      {
        "type": "note_on",
        "note": 51,
        "velocity": 45,
        "time": 7879,
        "channel": 9
      },
      {
        "type": "note_on",
        "note": 36,
        "velocity": 63,
        "time": 7898,
        "channel": 9
      },
      {
        "type": "note_off",
        "note": 44,
        "time": 7957,
        "channel": 9
      },
      {
        "type": "note_off",
        "note": 51,
        "time": 7991,
        "channel": 9
      },
      {
        "type": "note_off",
        "note": 36,
        "time": 8010,
        "channel": 9
      },
      {
        "type": "note_on",
        "note": 44,
        "velocity": 80,
        "time": 8103,
        "channel": 9
      },
      {
        "type": "note_on",
        "note": 51,
        "velocity": 50,
        "time": 8139,
        "channel": 9
      },
      {
        "type": "note_on",
        "note": 38,
        "velocity": 101,
        "time": 8147,
        "channel": 9
      },
      {
        "type": "note_off",
        "note": 44,
        "time": 8215,
        "channel": 9
      },
      {
        "type": "note_off",
        "note": 51,
        "time": 8250,
        "channel": 9
      },
      {
        "type": "note_off",
        "note": 38,
        "time": 8259,
        "channel": 9
      },
      {
        "type": "note_on",
        "note": 44,
        "velocity": 45,
        "time": 8335,
        "channel": 9
      },
      {
        "type": "note_on",
        "note": 51,
        "velocity": 48,
        "time": 8400,
        "channel": 9
      },
      {
        "type": "note_off",
        "note": 44,
        "time": 8447,
        "channel": 9
      },
      {
        "type": "note_off",
        "note": 51,
        "time": 8512,
        "channel": 9
      },
      {
        "type": "note_on",
        "note": 38,
        "velocity": 92,
        "time": 8519,
        "channel": 9
      },
      {
        "type": "note_on",
        "note": 44,
        "velocity": 77,
        "time": 8607,
        "channel": 9
      },
      {
        "type": "note_off",
        "note": 38,
        "time": 8630,
        "channel": 9
      },
      {
        "type": "note_on",
        "note": 51,
        "velocity": 49,
        "time": 8640,
        "channel": 9
      },
      {
        "type": "note_off",
        "note": 44,
        "time": 8718,
        "channel": 9
      },
      {
        "type": "note_off",
        "note": 51,
        "time": 8752,
        "channel": 9
      },
      {
        "type": "note_on",
        "note": 38,
        "velocity": 33,
        "time": 8767,
        "channel": 9
      },
      {
        "type": "note_on",
        "note": 44,
        "velocity": 50,
        "time": 8834,
        "channel": 9
      },
      {
        "type": "note_on",
        "note": 36,
        "velocity": 49,
        "time": 8835,
        "channel": 9
      },
      {
        "type": "note_off",
        "note": 38,
        "time": 8879,
        "channel": 9
      },
      {
        "type": "note_on",
        "note": 51,
        "velocity": 38,
        "time": 8883,
        "channel": 9
      },
      {
        "type": "note_off",
        "note": 36,
        "time": 8946,
        "channel": 9
      },
      {
        "type": "note_off",
        "note": 44,
        "time": 8946,
        "channel": 9
      },
      {
        "type": "note_on",
        "note": 36,
        "velocity": 48,
        "time": 8958,
        "channel": 9
      },
      {
        "type": "note_off",
        "note": 51,
        "time": 8994,
        "channel": 9
      },
      {
        "type": "note_off",
        "note": 36,
        "time": 9069,
        "channel": 9
      },
      {
        "type": "note_on",
        "note": 44,
        "velocity": 87,
        "time": 9089,
        "channel": 9
      },
      {
        "type": "note_on",
        "note": 38,
        "velocity": 100,
        "time": 9096,
        "channel": 9
      },
      {
        "type": "note_on",
        "note": 51,
        "velocity": 62,
        "time": 9106,
        "channel": 9
      },
      {
        "type": "note_off",
        "note": 44,
        "time": 9200,
        "channel": 9
      },
      {
        "type": "note_off",
        "note": 38,
        "time": 9207,
        "channel": 9
      },
      {
        "type": "note_off",
        "note": 51,
        "time": 9217,
        "channel": 9
      },
      {
        "type": "note_on",
        "note": 44,
        "velocity": 65,
        "time": 9322,
        "channel": 9
      },
      {
        "type": "note_on",
        "note": 51,
        "velocity": 46,
        "time": 9357,
        "channel": 9
      },
      {
        "type": "note_off",
        "note": 44,
        "time": 9434,
        "channel": 9
      },
      {
        "type": "note_on",
        "note": 38,
        "velocity": 37,
        "time": 9468,
        "channel": 9
      },
      {
        "type": "note_off",
        "note": 51,
        "time": 9468,
        "channel": 9
      },
      {
        "type": "note_on",
        "note": 38,
        "velocity": 33,
        "time": 9506,
        "channel": 9
      },
      {
        "type": "note_off",
        "note": 38,
        "time": 9506,
        "channel": 9
      },
      {
        "type": "note_on",
        "note": 38,
        "velocity": 30,
        "time": 9532,
        "channel": 9
      },
      {
        "type": "note_off",
        "note": 38,
        "time": 9532,
        "channel": 9
      },
      {
        "type": "note_on",
        "note": 44,
        "velocity": 80,
        "time": 9570,
        "channel": 9
      },
      {
        "type": "note_on",
        "note": 38,
        "velocity": 23,
        "time": 9576,
        "channel": 9
      },
      {
        "type": "note_off",
        "note": 38,
        "time": 9576,
        "channel": 9
      },
      {
        "type": "note_off",
        "note": 38,
        "time": 9580,
        "channel": 9
      },
      {
        "type": "note_on",
        "note": 51,
        "velocity": 60,
        "time": 9598,
        "channel": 9
      },
      {
        "type": "note_on",
        "note": 36,
        "velocity": 55,
        "time": 9599,
        "channel": 9
      },
      {
        "type": "note_off",
        "note": 44,
        "time": 9682,
        "channel": 9
      },
      {
        "type": "note_off",
        "note": 36,
        "time": 9710,
        "channel": 9
      },
      {
        "type": "note_off",
        "note": 51,
        "time": 9710,
        "channel": 9
      },
      {
        "type": "note_on",
        "note": 44,
        "velocity": 52,
        "time": 9800,
        "channel": 9
      },
      {
        "type": "note_on",
        "note": 51,
        "velocity": 47,
        "time": 9826,
        "channel": 9
      },
      {
        "type": "note_on",
        "note": 36,
        "velocity": 63,
        "time": 9827,
        "channel": 9
      },
      {
        "type": "note_off",
        "note": 44,
        "time": 9912,
        "channel": 9
      },
      {
        "type": "note_off",
        "note": 36,
        "time": 9937,
        "channel": 9
      },
      {
        "type": "note_off",
        "note": 51,
        "time": 9937,
        "channel": 9
      },
      {
        "type": "note_on",
        "note": 44,
        "velocity": 82,
        "time": 10058,
        "channel": 9
      },
      {
        "type": "note_on",
        "note": 38,
        "velocity": 106,
        "time": 10079,
        "channel": 9
      },
      {
        "type": "note_on",
        "note": 51,
        "velocity": 59,
        "time": 10079,
        "channel": 9
      },
      {
        "type": "note_off",
        "note": 44,
        "time": 10169,
        "channel": 9
      },
      {
        "type": "note_off",
        "note": 38,
        "time": 10190,
        "channel": 9
      },
      {
        "type": "note_off",
        "note": 51,
        "time": 10190,
        "channel": 9
      },
      {
        "type": "note_on",
        "note": 44,
        "velocity": 40,
        "time": 10283,
        "channel": 9
      },
      {
        "type": "note_on",
        "note": 51,
        "velocity": 37,
        "time": 10333,
        "channel": 9
      },
      {
        "type": "note_off",
        "note": 44,
        "time": 10395,
        "channel": 9
      },
      {
        "type": "note_on",
        "note": 38,
        "velocity": 103,
        "time": 10439,
        "channel": 9
      },
      {
        "type": "note_off",
        "note": 51,
        "time": 10444,
        "channel": 9
      },
      {
        "type": "note_on",
        "note": 44,
        "velocity": 72,
        "time": 10534,
        "channel": 9
      },
      {
        "type": "note_off",
        "note": 38,
        "time": 10550,
        "channel": 9
      },
      {
        "type": "note_on",
        "note": 51,
        "velocity": 53,
        "time": 10576,
        "channel": 9
      },
      {
        "type": "note_off",
        "note": 44,
        "time": 10646,
        "channel": 9
      },
      {
        "type": "note_off",
        "note": 51,
        "time": 10688,
        "channel": 9
      },
      {
        "type": "note_on",
        "note": 38,
        "velocity": 33,
        "time": 10692,
        "channel": 9
      },
      {
        "type": "note_on",
        "note": 44,
        "velocity": 42,
        "time": 10757,
        "channel": 9
      },
      {
        "type": "note_on",
        "note": 36,
        "velocity": 46,
        "time": 10774,
        "channel": 9
      },
      {
        "type": "note_off",
        "note": 38,
        "time": 10803,
        "channel": 9
      },
      {
        "type": "note_on",
        "note": 51,
        "velocity": 42,
        "time": 10815,
        "channel": 9
      },
      {
        "type": "note_off",
        "note": 44,
        "time": 10868,
        "channel": 9
      },
      {
        "type": "note_off",
        "note": 36,
        "time": 10886,
        "channel": 9
      },
      {
        "type": "note_on",
        "note": 36,
        "velocity": 59,
        "time": 10914,
        "channel": 9
      },
      {
        "type": "note_off",
        "note": 51,
        "time": 10926,
        "channel": 9
      },
      {
        "type": "note_on",
        "note": 44,
        "velocity": 82,
        "time": 11014,
        "channel": 9
      },
      {
        "type": "note_off",
        "note": 36,
        "time": 11025,
        "channel": 9
      },
      {
        "type": "note_on",
        "note": 38,
        "velocity": 103,
        "time": 11041,
        "channel": 9
      },
      {
        "type": "note_on",
        "note": 51,
        "velocity": 63,
        "time": 11052,
        "channel": 9
      },
      {
        "type": "note_off",
        "note": 44,
        "time": 11125,
        "channel": 9
      },
      {
        "type": "note_off",
        "note": 38,
        "time": 11153,
        "channel": 9
      },
      {
        "type": "note_off",
        "note": 51,
        "time": 11163,
        "channel": 9
      },
      {
        "type": "note_on",
        "note": 44,
        "velocity": 40,
        "time": 11241,
        "channel": 9
      },
      {
        "type": "note_on",
        "note": 51,
        "velocity": 41,
        "time": 11287,
        "channel": 9
      },
      {
        "type": "note_off",
        "note": 44,
        "time": 11354,
        "channel": 9
      },
      {
        "type": "note_on",
        "note": 38,
        "velocity": 36,
        "time": 11397,
        "channel": 9
      },
      {
        "type": "note_off",
        "note": 51,
        "time": 11399,
        "channel": 9
      },
      {
        "type": "note_on",
        "note": 38,
        "velocity": 32,
        "time": 11441,
        "channel": 9
      },
      {
        "type": "note_off",
        "note": 38,
        "time": 11441,
        "channel": 9
      },
      {
        "type": "note_on",
        "note": 38,
        "velocity": 33,
        "time": 11468,
        "channel": 9
      },
      {
        "type": "note_off",
        "note": 38,
        "time": 11468,
        "channel": 9
      },
      {
        "type": "note_off",
        "note": 38,
        "time": 11508,
        "channel": 9
      },
      {
        "type": "note_on",
        "note": 44,
        "velocity": 77,
        "time": 11510,
        "channel": 9
      },
      {
        "type": "note_on",
        "note": 36,
        "velocity": 62,
        "time": 11530,
        "channel": 9
      },
      {
        "type": "note_on",
        "note": 51,
        "velocity": 60,
        "time": 11530,
        "channel": 9
      },
      {
        "type": "note_off",
        "note": 44,
        "time": 11622,
        "channel": 9
      },
      {
        "type": "note_off",
        "note": 36,
        "time": 11641,
        "channel": 9
      },
      {
        "type": "note_off",
        "note": 51,
        "time": 11641,
        "channel": 9
      },
      {
        "type": "note_on",
        "note": 44,
        "velocity": 50,
        "time": 11739,
        "channel": 9
      },
      {
        "type": "note_on",
        "note": 36,
        "velocity": 59,
        "time": 11766,
        "channel": 9
      },
      {
        "type": "note_on",
        "note": 51,
        "velocity": 49,
        "time": 11771,
        "channel": 9
      },
      {
        "type": "note_off",
        "note": 44,
        "time": 11850,
        "channel": 9
      },
      {
        "type": "note_off",
        "note": 36,
        "time": 11877,
        "channel": 9
      },
      {
        "type": "note_off",
        "note": 51,
        "time": 11882,
        "channel": 9
      },
      {
        "type": "note_on",
        "note": 44,
        "velocity": 82,
        "time": 11997,
        "channel": 9
      },
      {
        "type": "note_on",
        "note": 38,
        "velocity": 109,
        "time": 12016,
        "channel": 9
      },
      {
        "type": "note_on",
        "note": 51,
        "velocity": 63,
        "time": 12020,
        "channel": 9
      },
      {
        "type": "note_off",
        "note": 44,
        "time": 12108,
        "channel": 9
      },
      {
        "type": "note_off",
        "note": 38,
        "time": 12128,
        "channel": 9
      },
      {
        "type": "note_off",
        "note": 51,
        "time": 12131,
        "channel": 9
      },
      {
        "type": "note_on",
        "note": 44,
        "velocity": 62,
        "time": 12224,
        "channel": 9
      },
      {
        "type": "note_on",
        "note": 51,
        "velocity": 40,
        "time": 12267,
        "channel": 9
      },
      {
        "type": "note_off",
        "note": 44,
        "time": 12335,
        "channel": 9
      },
      {
        "type": "note_on",
        "note": 38,
        "velocity": 102,
        "time": 12370,
        "channel": 9
      },
      {
        "type": "note_off",
        "note": 51,
        "time": 12378,
        "channel": 9
      },
      {
        "type": "note_on",
        "note": 44,
        "velocity": 77,
        "time": 12476,
        "channel": 9
      },
      {
        "type": "note_off",
        "note": 38,
        "time": 12482,
        "channel": 9
      },
      {
        "type": "note_on",
        "note": 51,
        "velocity": 56,
        "time": 12503,
        "channel": 9
      },
      {
        "type": "note_off",
        "note": 44,
        "time": 12588,
        "channel": 9
      },
      {
        "type": "note_off",
        "note": 51,
        "time": 12614,
        "channel": 9
      },
      {
        "type": "note_on",
        "note": 38,
        "velocity": 22,
        "time": 12624,
        "channel": 9
      },
      {
        "type": "note_on",
        "note": 44,
        "velocity": 62,
        "time": 12701,
        "channel": 9
      },
      {
        "type": "note_on",
        "note": 36,
        "velocity": 73,
        "time": 12726,
        "channel": 9
      },
      {
        "type": "note_off",
        "note": 38,
        "time": 12735,
        "channel": 9
      },
      {
        "type": "note_on",
        "note": 51,
        "velocity": 52,
        "time": 12739,
        "channel": 9
      },
      {
        "type": "note_off",
        "note": 44,
        "time": 12813,
        "channel": 9
      },
      {
        "type": "note_off",
        "note": 36,
        "time": 12837,
        "channel": 9
      },
      {
        "type": "note_off",
        "note": 51,
        "time": 12849,
        "channel": 9
      },
      {
        "type": "note_on",
        "note": 44,
        "velocity": 77,
        "time": 12950,
        "channel": 9
      },
      {
        "type": "note_on",
        "note": 51,
        "velocity": 49,
        "time": 12970,
        "channel": 9
      },
      {
        "type": "note_off",
        "note": 44,
        "time": 13061,
        "channel": 9
      },
      {
        "type": "note_off",
        "note": 51,
        "time": 13081,
        "channel": 9
      },
      {
        "type": "note_on",
        "note": 44,
        "velocity": 50,
        "time": 13177,
        "channel": 9
      },
      {
        "type": "note_on",
        "note": 38,
        "velocity": 115,
        "time": 13204,
        "channel": 9
      },
      {
        "type": "note_on",
        "note": 51,
        "velocity": 67,
        "time": 13211,
        "channel": 9
      },
      {
        "type": "note_off",
        "note": 44,
        "time": 13289,
        "channel": 9
      },
      {
        "type": "note_off",
        "note": 38,
        "time": 13315,
        "channel": 9
      },
      {
        "type": "note_off",
        "note": 51,
        "time": 13322,
        "channel": 9
      },
      {
        "type": "note_on",
        "note": 44,
        "velocity": 77,
        "time": 13429,
        "channel": 9
      },
      {
        "type": "note_on",
        "note": 51,
        "velocity": 48,
        "time": 13446,
        "channel": 9
      },
      {
        "type": "note_off",
        "note": 44,
        "time": 13542,
        "channel": 9
      },
      {
        "type": "note_on",
        "note": 38,
        "velocity": 38,
        "time": 13557,
        "channel": 9
      },
      {
        "type": "note_off",
        "note": 51,
        "time": 13557,
        "channel": 9
      },
      {
        "type": "note_on",
        "note": 44,
        "velocity": 47,
        "time": 13655,
        "channel": 9
      },
      {
        "type": "note_on",
        "note": 51,
        "velocity": 39,
        "time": 13666,
        "channel": 9
      },
      {
        "type": "note_off",
        "note": 38,
        "time": 13668,
        "channel": 9
      },
      {
        "type": "note_on",
        "note": 36,
        "velocity": 42,
        "time": 13673,
        "channel": 9
      },
      {
        "type": "note_off",
        "note": 44,
        "time": 13767,
        "channel": 9
      },
      {
        "type": "note_off",
        "note": 51,
        "time": 13777,
        "channel": 9
      },
      {
        "type": "note_off",
        "note": 36,
        "time": 13785,
        "channel": 9
      },
      {
        "type": "note_on",
        "note": 51,
        "velocity": 39,
        "time": 13794,
        "channel": 9
      },
      {
        "type": "note_on",
        "note": 36,
        "velocity": 55,
        "time": 13805,
        "channel": 9
      },
      {
        "type": "note_on",
        "note": 44,
        "velocity": 75,
        "time": 13901,
        "channel": 9
      },
      {
        "type": "note_off",
        "note": 51,
        "time": 13905,
        "channel": 9
      },
      {
        "type": "note_on",
        "note": 38,
        "velocity": 102,
        "time": 13912,
        "channel": 9
      },
      {
        "type": "note_on",
        "note": 51,
        "velocity": 56,
        "time": 13916,
        "channel": 9
      },
      {
        "type": "note_off",
        "note": 36,
        "time": 13916,
        "channel": 9
      },
      {
        "type": "note_off",
        "note": 44,
        "time": 14012,
        "channel": 9
      },
      {
        "type": "note_off",
        "note": 38,
        "time": 14024,
        "channel": 9
      },
      {
        "type": "note_off",
        "note": 51,
        "time": 14027,
        "channel": 9
      },
      {
        "type": "note_on",
        "note": 44,
        "velocity": 37,
        "time": 14122,
        "channel": 9
      },
      {
        "type": "note_on",
        "note": 51,
        "velocity": 46,
        "time": 14163,
        "channel": 9
      },
      {
        "type": "note_off",
        "note": 44,
        "time": 14234,
        "channel": 9
      },
      {
        "type": "note_on",
        "note": 38,
        "velocity": 103,
        "time": 14263,
        "channel": 9
      },
      {
        "type": "note_off",
        "note": 51,
        "time": 14274,
        "channel": 9
      },
      {
        "type": "note_on",
        "note": 44,
        "velocity": 75,
        "time": 14374,
        "channel": 9
      },
      {
        "type": "note_off",
        "note": 38,
        "time": 14374,
        "channel": 9
      },
      {
        "type": "note_on",
        "note": 51,
        "velocity": 50,
        "time": 14397,
        "channel": 9
      },
      {
        "type": "note_off",
        "note": 44,
        "time": 14487,
        "channel": 9
      },
      {
        "type": "note_off",
        "note": 51,
        "time": 14508,
        "channel": 9
      },
      {
        "type": "note_on",
        "note": 38,
        "velocity": 16,
        "time": 14523,
        "channel": 9
      },
      {
        "type": "note_on",
        "note": 44,
        "velocity": 20,
        "time": 14587,
        "channel": 9
      },
      {
        "type": "note_on",
        "note": 36,
        "velocity": 87,
        "time": 14614,
        "channel": 9
      },
      {
        "type": "note_on",
        "note": 52,
        "velocity": 55,
        "time": 14624,
        "channel": 9
      },
      {
        "type": "note_off",
        "note": 38,
        "time": 14635,
        "channel": 9
      },
      {
        "type": "note_off",
        "note": 44,
        "time": 14698,
        "channel": 9
      },
      {
        "type": "note_off",
        "note": 36,
        "time": 14726,
        "channel": 9
      },
      {
        "type": "note_off",
        "note": 52,
        "time": 14735,
        "channel": 9
      },
      {
        "type": "note_on",
        "note": 38,
        "velocity": 8,
        "time": 14815,
        "channel": 9
      },
      {
        "type": "note_on",
        "note": 44,
        "velocity": 82,
        "time": 14845,
        "channel": 9
      },
      {
        "type": "note_on",
        "note": 51,
        "velocity": 49,
        "time": 14868,
        "channel": 9
      },
      {
        "type": "note_off",
        "note": 38,
        "time": 14926,
        "channel": 9
      },
      {
        "type": "note_off",
        "note": 44,
        "time": 14957,
        "channel": 9
      },
      {
        "type": "note_off",
        "note": 51,
        "time": 14979,
        "channel": 9
      },
      {
        "type": "note_on",
        "note": 44,
        "velocity": 57,
        "time": 15075,
        "channel": 9
      },
      {
        "type": "note_on",
        "note": 38,
        "velocity": 105,
        "time": 15088,
        "channel": 9
      },
      {
        "type": "note_on",
        "note": 51,
        "velocity": 52,
        "time": 15098,
        "channel": 9
      },
      {
        "type": "note_off",
        "note": 44,
        "time": 15187,
        "channel": 9
      },
      {
        "type": "note_off",
        "note": 38,
        "time": 15199,
        "channel": 9
      },
      {
        "type": "note_off",
        "note": 51,
        "time": 15209,
        "channel": 9
      },
      {
        "type": "note_on",
        "note": 44,
        "velocity": 75,
        "time": 15318,
        "channel": 9
      },
      {
        "type": "note_on",
        "note": 36,
        "velocity": 60,
        "time": 15335,
        "channel": 9
      },
      {
        "type": "note_on",
        "note": 51,
        "velocity": 54,
        "time": 15349,
        "channel": 9
      },
      {
        "type": "note_on",
        "note": 38,
        "velocity": 33,
        "time": 15407,
        "channel": 9
      },
      {
        "type": "note_off",
        "note": 44,
        "time": 15430,
        "channel": 9
      },
      {
        "type": "note_off",
        "note": 36,
        "time": 15446,
        "channel": 9
      },
      {
        "type": "note_off",
        "note": 51,
        "time": 15461,
        "channel": 9
      },
      {
        "type": "note_off",
        "note": 38,
        "time": 15518,
        "channel": 9
      },
      {
        "type": "note_on",
        "note": 44,
        "velocity": 35,
        "time": 15538,
        "channel": 9
      },
      {
        "type": "note_on",
        "note": 36,
        "velocity": 60,
        "time": 15575,
        "channel": 9
      },
      {
        "type": "note_on",
        "note": 51,
        "velocity": 38,
        "time": 15583,
        "channel": 9
      },
      {
        "type": "note_off",
        "note": 44,
        "time": 15649,
        "channel": 9
      },
      {
        "type": "note_off",
        "note": 36,
        "time": 15687,
        "channel": 9
      },
      {
        "type": "note_off",
        "note": 51,
        "time": 15695,
        "channel": 9
      },
      {
        "type": "note_on",
        "note": 44,
        "velocity": 85,
        "time": 15808,
        "channel": 9
      },
      {
        "type": "note_on",
        "note": 38,
        "velocity": 97,
        "time": 15820,
        "channel": 9
      },
      {
        "type": "note_on",
        "note": 51,
        "velocity": 70,
        "time": 15823,
        "channel": 9
      },
      {
        "type": "note_off",
        "note": 44,
        "time": 15920,
        "channel": 9
      },
      {
        "type": "note_off",
        "note": 38,
        "time": 15932,
        "channel": 9
      },
      {
        "type": "note_off",
        "note": 51,
        "time": 15934,
        "channel": 9
      },
      {
        "type": "note_on",
        "note": 44,
        "velocity": 57,
        "time": 16037,
        "channel": 9
      },
      {
        "type": "note_on",
        "note": 51,
        "velocity": 38,
        "time": 16072,
        "channel": 9
      },
      {
        "type": "note_off",
        "note": 44,
        "time": 16148,
        "channel": 9
      },
      {
        "type": "note_on",
        "note": 38,
        "velocity": 99,
        "time": 16184,
        "channel": 9
      },
      {
        "type": "note_off",
        "note": 51,
        "time": 16184,
        "channel": 9
      },
      {
        "type": "note_on",
        "note": 44,
        "velocity": 72,
        "time": 16281,
        "channel": 9
      },
      {
        "type": "note_off",
        "note": 38,
        "time": 16295,
        "channel": 9
      },
      {
        "type": "note_on",
        "note": 51,
        "velocity": 52,
        "time": 16306,
        "channel": 9
      },
      {
        "type": "note_off",
        "note": 44,
        "time": 16393,
        "channel": 9
      },
      {
        "type": "note_off",
        "note": 51,
        "time": 16417,
        "channel": 9
      },
      {
        "type": "note_on",
        "note": 38,
        "velocity": 27,
        "time": 16435,
        "channel": 9
      },
      {
        "type": "note_on",
        "note": 36,
        "velocity": 47,
        "time": 16506,
        "channel": 9
      },
      {
        "type": "note_on",
        "note": 44,
        "velocity": 30,
        "time": 16506,
        "channel": 9
      },
      {
        "type": "note_off",
        "note": 38,
        "time": 16546,
        "channel": 9
      },
      {
        "type": "note_on",
        "note": 51,
        "velocity": 49,
        "time": 16550,
        "channel": 9
      },
      {
        "type": "note_off",
        "note": 36,
        "time": 16617,
        "channel": 9
      },
      {
        "type": "note_off",
        "note": 44,
        "time": 16617,
        "channel": 9
      },
      {
        "type": "note_off",
        "note": 51,
        "time": 16662,
        "channel": 9
      },
      {
        "type": "note_on",
        "note": 44,
        "velocity": 80,
        "time": 16759,
        "channel": 9
      },
      {
        "type": "note_on",
        "note": 51,
        "velocity": 59,
        "time": 16787,
        "channel": 9
      },
      {
        "type": "note_on",
        "note": 38,
        "velocity": 110,
        "time": 16793,
        "channel": 9
      },
      {
        "type": "note_off",
        "note": 44,
        "time": 16870,
        "channel": 9
      },
      {
        "type": "note_off",
        "note": 51,
        "time": 16898,
        "channel": 9
      },
      {
        "type": "note_off",
        "note": 38,
        "time": 16903,
        "channel": 9
      },
      {
        "type": "note_on",
        "note": 44,
        "velocity": 57,
        "time": 16985,
        "channel": 9
      },
      {
        "type": "note_on",
        "note": 51,
        "velocity": 45,
        "time": 17046,
        "channel": 9
      },
      {
        "type": "note_off",
        "note": 44,
        "time": 17097,
        "channel": 9
      },
      {
        "type": "note_on",
        "note": 38,
        "velocity": 38,
        "time": 17147,
        "channel": 9
      },
      {
        "type": "note_off",
        "note": 51,
        "time": 17157,
        "channel": 9
      },
      {
        "type": "note_on",
        "note": 38,
        "velocity": 38,
        "time": 17182,
        "channel": 9
      },
      {
        "type": "note_off",
        "note": 38,
        "time": 17182,
        "channel": 9
      },
      {
        "type": "note_on",
        "note": 38,
        "velocity": 25,
        "time": 17241,
        "channel": 9
      },
      {
        "type": "note_off",
        "note": 38,
        "time": 17241,
        "channel": 9
      },
      {
        "type": "note_on",
        "note": 44,
        "velocity": 82,
        "time": 17244,
        "channel": 9
      },
      {
        "type": "note_on",
        "note": 36,
        "velocity": 64,
        "time": 17256,
        "channel": 9
      },
      {
        "type": "note_off",
        "note": 38,
        "time": 17258,
        "channel": 9
      },
      {
        "type": "note_on",
        "note": 51,
        "velocity": 49,
        "time": 17279,
        "channel": 9
      },
      {
        "type": "note_off",
        "note": 44,
        "time": 17355,
        "channel": 9
      },
      {
        "type": "note_off",
        "note": 36,
        "time": 17367,
        "channel": 9
      },
      {
        "type": "note_off",
        "note": 51,
        "time": 17390,
        "channel": 9
      },
      {
        "type": "note_on",
        "note": 44,
        "velocity": 47,
        "time": 17468,
        "channel": 9
      },
      {
        "type": "note_on",
        "note": 51,
        "velocity": 44,
        "time": 17510,
        "channel": 9
      },
      {
        "type": "note_on",
        "note": 36,
        "velocity": 125,
        "time": 17523,
        "channel": 9
      },
      {
        "type": "note_off",
        "note": 44,
        "time": 17579,
        "channel": 9
      },
      {
        "type": "note_off",
        "note": 51,
        "time": 17621,
        "channel": 9
      },
      {
        "type": "note_off",
        "note": 36,
        "time": 17634,
        "channel": 9
      },
      {
        "type": "note_on",
        "note": 44,
        "velocity": 80,
        "time": 17734,
        "channel": 9
      },
      {
        "type": "note_on",
        "note": 51,
        "velocity": 56,
        "time": 17759,
        "channel": 9
      },
      {
        "type": "note_on",
        "note": 38,
        "velocity": 90,
        "time": 17767,
        "channel": 9
      },
      {
        "type": "note_off",
        "note": 44,
        "time": 17845,
        "channel": 9
      },
      {
        "type": "note_off",
        "note": 51,
        "time": 17871,
        "channel": 9
      },
      {
        "type": "note_off",
        "note": 38,
        "time": 17878,
        "channel": 9
      },
      {
        "type": "note_on",
        "note": 44,
        "velocity": 42,
        "time": 17963,
        "channel": 9
      },
      {
        "type": "note_on",
        "note": 51,
        "velocity": 45,
        "time": 18000,
        "channel": 9
      },
      {
        "type": "note_off",
        "note": 44,
        "time": 18075,
        "channel": 9
      },
      {
        "type": "note_off",
        "note": 51,
        "time": 18111,
        "channel": 9
      },
      {
        "type": "note_on",
        "note": 38,
        "velocity": 100,
        "time": 18120,
        "channel": 9
      },
      {
        "type": "note_on",
        "note": 44,
        "velocity": 80,
        "time": 18221,
        "channel": 9
      },
      {
        "type": "note_off",
        "note": 38,
        "time": 18230,
        "channel": 9
      },
      {
        "type": "note_on",
        "note": 51,
        "velocity": 62,
        "time": 18234,
        "channel": 9
      },
      {
        "type": "note_off",
        "note": 44,
        "time": 18333,
        "channel": 9
      },
      {
        "type": "note_off",
        "note": 51,
        "time": 18345,
        "channel": 9
      },
      {
        "type": "note_on",
        "note": 38,
        "velocity": 36,
        "time": 18350,
        "channel": 9
      },
      {
        "type": "note_on",
        "note": 44,
        "velocity": 20,
        "time": 18444,
        "channel": 9
      },
      {
        "type": "note_off",
        "note": 38,
        "time": 18461,
        "channel": 9
      },
      {
        "type": "note_on",
        "note": 36,
        "velocity": 51,
        "time": 18467,
        "channel": 9
      },
      {
        "type": "note_on",
        "note": 51,
        "velocity": 48,
        "time": 18474,
        "channel": 9
      },
      {
        "type": "note_off",
        "note": 44,
        "time": 18556,
        "channel": 9
      },
      {
        "type": "note_off",
        "note": 36,
        "time": 18578,
        "channel": 9
      },
      {
        "type": "note_off",
        "note": 51,
        "time": 18585,
        "channel": 9
      },
      {
        "type": "note_on",
        "note": 36,
        "velocity": 65,
        "time": 18592,
        "channel": 9
      },
      {
        "type": "note_on",
        "note": 44,
        "velocity": 77,
        "time": 18700,
        "channel": 9
      },
      {
        "type": "note_on",
        "note": 38,
        "velocity": 90,
        "time": 18701,
        "channel": 9
      },
      {
        "type": "note_on",
        "note": 51,
        "velocity": 71,
        "time": 18702,
        "channel": 9
      },
      {
        "type": "note_off",
        "note": 36,
        "time": 18703,
        "channel": 9
      },
      {
        "type": "note_off",
        "note": 38,
        "time": 18811,
        "channel": 9
      },
      {
        "type": "note_off",
        "note": 44,
        "time": 18811,
        "channel": 9
      },
      {
        "type": "note_off",
        "note": 51,
        "time": 18813,
        "channel": 9
      },
      {
        "type": "note_on",
        "note": 44,
        "velocity": 17,
        "time": 18923,
        "channel": 9
      },
      {
        "type": "note_on",
        "note": 51,
        "velocity": 52,
        "time": 18956,
        "channel": 9
      },
      {
        "type": "note_off",
        "note": 44,
        "time": 19035,
        "channel": 9
      },
      {
        "type": "note_on",
        "note": 38,
        "velocity": 43,
        "time": 19056,
        "channel": 9
      },
      {
        "type": "note_off",
        "note": 51,
        "time": 19068,
        "channel": 9
      },
      {
        "type": "note_on",
        "note": 38,
        "velocity": 46,
        "time": 19092,
        "channel": 9
      },
      {
        "type": "note_off",
        "note": 38,
        "time": 19092,
        "channel": 9
      },
      {
        "type": "note_on",
        "note": 38,
        "velocity": 40,
        "time": 19116,
        "channel": 9
      },
      {
        "type": "note_off",
        "note": 38,
        "time": 19116,
        "channel": 9
      },
      {
        "type": "note_on",
        "note": 38,
        "velocity": 25,
        "time": 19157,
        "channel": 9
      },
      {
        "type": "note_off",
        "note": 38,
        "time": 19157,
        "channel": 9
      },
      {
        "type": "note_off",
        "note": 38,
        "time": 19167,
        "channel": 9
      },
      {
        "type": "note_on",
        "note": 44,
        "velocity": 80,
        "time": 19181,
        "channel": 9
      },
      {
        "type": "note_on",
        "note": 36,
        "velocity": 67,
        "time": 19185,
        "channel": 9
      },
      {
        "type": "note_on",
        "note": 51,
        "velocity": 57,
        "time": 19196,
        "channel": 9
      },
      {
        "type": "note_off",
        "note": 44,
        "time": 19294,
        "channel": 9
      },
      {
        "type": "note_off",
        "note": 36,
        "time": 19297,
        "channel": 9
      },
      {
        "type": "note_off",
        "note": 51,
        "time": 19307,
        "channel": 9
      },
      {
        "type": "note_on",
        "note": 44,
        "velocity": 20,
        "time": 19397,
        "channel": 9
      },
      {
        "type": "note_on",
        "note": 51,
        "velocity": 49,
        "time": 19439,
        "channel": 9
      },
      {
        "type": "note_on",
        "note": 36,
        "velocity": 65,
        "time": 19442,
        "channel": 9
      },
      {
        "type": "note_off",
        "note": 44,
        "time": 19509,
        "channel": 9
      },
      {
        "type": "note_off",
        "note": 51,
        "time": 19550,
        "channel": 9
      },
      {
        "type": "note_off",
        "note": 36,
        "time": 19553,
        "channel": 9
      },
      {
        "type": "note_on",
        "note": 44,
        "velocity": 80,
        "time": 19660,
        "channel": 9
      },
      {
        "type": "note_on",
        "note": 38,
        "velocity": 101,
        "time": 19686,
        "channel": 9
      },
      {
        "type": "note_on",
        "note": 51,
        "velocity": 60,
        "time": 19693,
        "channel": 9
      },
      {
        "type": "note_off",
        "note": 44,
        "time": 19772,
        "channel": 9
      },
      {
        "type": "note_off",
        "note": 38,
        "time": 19797,
        "channel": 9
      },
      {
        "type": "note_off",
        "note": 51,
        "time": 19805,
        "channel": 9
      },
      {
        "type": "note_on",
        "note": 44,
        "velocity": 40,
        "time": 19891,
        "channel": 9
      },
      {
        "type": "note_on",
        "note": 51,
        "velocity": 45,
        "time": 19932,
        "channel": 9
      },
      {
        "type": "note_off",
        "note": 44,
        "time": 20002,
        "channel": 9
      },
      {
        "type": "note_on",
        "note": 40,
        "velocity": 99,
        "time": 20037,
        "channel": 9
      },
      {
        "type": "note_off",
        "note": 51,
        "time": 20044,
        "channel": 9
      },
      {
        "type": "note_on",
        "note": 44,
        "velocity": 77,
        "time": 20148,
        "channel": 9
      },
      {
        "type": "note_off",
        "note": 40,
        "time": 20148,
        "channel": 9
      },
      {
        "type": "note_on",
        "note": 51,
        "velocity": 60,
        "time": 20164,
        "channel": 9
      },
      {
        "type": "note_off",
        "note": 44,
        "time": 20260,
        "channel": 9
      },
      {
        "type": "note_off",
        "note": 51,
        "time": 20276,
        "channel": 9
      },
      {
        "type": "note_on",
        "note": 38,
        "velocity": 32,
        "time": 20285,
        "channel": 9
      },
      {
        "type": "note_on",
        "note": 44,
        "velocity": 45,
        "time": 20368,
        "channel": 9
      },
      {
        "type": "note_on",
        "note": 36,
        "velocity": 71,
        "time": 20389,
        "channel": 9
      },
      {
        "type": "note_off",
        "note": 38,
        "time": 20397,
        "channel": 9
      },
      {
        "type": "note_on",
        "note": 51,
        "velocity": 51,
        "time": 20409,
        "channel": 9
      },
      {
        "type": "note_off",
        "note": 44,
        "time": 20479,
        "channel": 9
      },
      {
        "type": "note_off",
        "note": 36,
        "time": 20500,
        "channel": 9
      },
      {
        "type": "note_off",
        "note": 51,
        "time": 20520,
        "channel": 9
      },
      {
        "type": "note_on",
        "note": 44,
        "velocity": 87,
        "time": 20622,
        "channel": 9
      },
      {
        "type": "note_on",
        "note": 51,
        "velocity": 54,
        "time": 20640,
        "channel": 9
      },
      {
        "type": "note_off",
        "note": 44,
        "time": 20733,
        "channel": 9
      },
      {
        "type": "note_off",
        "note": 51,
        "time": 20751,
        "channel": 9
      },
      {
        "type": "note_on",
        "note": 44,
        "velocity": 57,
        "time": 20848,
        "channel": 9
      },
      {
        "type": "note_on",
        "note": 38,
        "velocity": 111,
        "time": 20881,
        "channel": 9
      },
      {
        "type": "note_on",
        "note": 51,
        "velocity": 59,
        "time": 20890,
        "channel": 9
      },
      {
        "type": "note_off",
        "note": 44,
        "time": 20959,
        "channel": 9
      },
      {
        "type": "note_off",
        "note": 38,
        "time": 20993,
        "channel": 9
      },
      {
        "type": "note_off",
        "note": 51,
        "time": 21001,
        "channel": 9
      },
      {
        "type": "note_on",
        "note": 44,
        "velocity": 80,
        "time": 21108,
        "channel": 9
      },
      {
        "type": "note_on",
        "note": 51,
        "velocity": 51,
        "time": 21129,
        "channel": 9
      },
      {
        "type": "note_off",
        "note": 44,
        "time": 21220,
        "channel": 9
      },
      {
        "type": "note_on",
        "note": 38,
        "velocity": 39,
        "time": 21227,
        "channel": 9
      },
      {
        "type": "note_off",
        "note": 51,
        "time": 21241,
        "channel": 9
      },
      {
        "type": "note_on",
        "note": 44,
        "velocity": 52,
        "time": 21335,
        "channel": 9
      },
      {
        "type": "note_off",
        "note": 38,
        "time": 21338,
        "channel": 9
      },
      {
        "type": "note_on",
        "note": 51,
        "velocity": 50,
        "time": 21344,
        "channel": 9
      },
      {
        "type": "note_on",
        "note": 36,
        "velocity": 50,
        "time": 21356,
        "channel": 9
      },
      {
        "type": "note_off",
        "note": 44,
        "time": 21448,
        "channel": 9
      },
      {
        "type": "note_off",
        "note": 51,
        "time": 21455,
        "channel": 9
      },
      {
        "type": "note_off",
        "note": 36,
        "time": 21467,
        "channel": 9
      },
      {
        "type": "note_on",
        "note": 51,
        "velocity": 49,
        "time": 21468,
        "channel": 9
      },
      {
        "type": "note_on",
        "note": 36,
        "velocity": 57,
        "time": 21480,
        "channel": 9
      },
      {
        "type": "note_off",
        "note": 51,
        "time": 21580,
        "channel": 9
      },
      {
        "type": "note_off",
        "note": 36,
        "time": 21591,
        "channel": 9
      },
      {
        "type": "note_on",
        "note": 38,
        "velocity": 99,
        "time": 21592,
        "channel": 9
      },
      {
        "type": "note_on",
        "note": 51,
        "velocity": 48,
        "time": 21596,
        "channel": 9
      },
      {
        "type": "note_on",
        "note": 44,
        "velocity": 85,
        "time": 21598,
        "channel": 9
      },
      {
        "type": "note_off",
        "note": 38,
        "time": 21704,
        "channel": 9
      },
      {
        "type": "note_off",
        "note": 44,
        "time": 21708,
        "channel": 9
      },
      {
        "type": "note_off",
        "note": 51,
        "time": 21708,
        "channel": 9
      },
      {
        "type": "note_on",
        "note": 44,
        "velocity": 57,
        "time": 21820,
        "channel": 9
      },
      {
        "type": "note_on",
        "note": 51,
        "velocity": 43,
        "time": 21836,
        "channel": 9
      },
      {
        "type": "note_on",
        "note": 38,
        "velocity": 102,
        "time": 21927,
        "channel": 9
      },
      {
        "type": "note_off",
        "note": 44,
        "time": 21932,
        "channel": 9
      },
      {
        "type": "note_off",
        "note": 51,
        "time": 21948,
        "channel": 9
      },
      {
        "type": "note_off",
        "note": 38,
        "time": 22038,
        "channel": 9
      },
      {
        "type": "note_on",
        "note": 44,
        "velocity": 77,
        "time": 22062,
        "channel": 9
      },
      {
        "type": "note_on",
        "note": 51,
        "velocity": 56,
        "time": 22062,
        "channel": 9
      },
      {
        "type": "note_off",
        "note": 44,
        "time": 22174,
        "channel": 9
      },
      {
        "type": "note_off",
        "note": 51,
        "time": 22174,
        "channel": 9
      },
      {
        "type": "note_on",
        "note": 38,
        "velocity": 33,
        "time": 22176,
        "channel": 9
      },
      {
        "type": "note_off",
        "note": 38,
        "time": 22288,
        "channel": 9
      },
      {
        "type": "note_on",
        "note": 44,
        "velocity": 52,
        "time": 22293,
        "channel": 9
      },
      {
        "type": "note_on",
        "note": 43,
        "velocity": 127,
        "time": 22299,
        "channel": 9
      },
      {
        "type": "note_off",
        "note": 44,
        "time": 22405,
        "channel": 9
      },
      {
        "type": "note_off",
        "note": 43,
        "time": 22410,
        "channel": 9
      },
      {
        "type": "note_on",
        "note": 38,
        "velocity": 34,
        "time": 22447,
        "channel": 9
      },
      {
        "type": "note_on",
        "note": 44,
        "velocity": 82,
        "time": 22529,
        "channel": 9
      },
      {
        "type": "note_on",
        "note": 51,
        "velocity": 53,
        "time": 22551,
        "channel": 9
      },
      {
        "type": "note_off",
        "note": 38,
        "time": 22558,
        "channel": 9
      },
      {
        "type": "note_off",
        "note": 44,
        "time": 22640,
        "channel": 9
      },
      {
        "type": "note_off",
        "note": 51,
        "time": 22662,
        "channel": 9
      },
      {
        "type": "note_on",
        "note": 36,
        "velocity": 52,
        "time": 22686,
        "channel": 9
      },
      {
        "type": "note_on",
        "note": 44,
        "velocity": 42,
        "time": 22737,
        "channel": 9
      },
      {
        "type": "note_on",
        "note": 51,
        "velocity": 83,
        "time": 22776,
        "channel": 9
      },
      {
        "type": "note_on",
        "note": 40,
        "velocity": 112,
        "time": 22779,
        "channel": 9
      },
      {
        "type": "note_off",
        "note": 36,
        "time": 22798,
        "channel": 9
      },
      {
        "type": "note_off",
        "note": 44,
        "time": 22848,
        "channel": 9
      },
      {
        "type": "note_off",
        "note": 51,
        "time": 22888,
        "channel": 9
      },
      {
        "type": "note_off",
        "note": 40,
        "time": 22890,
        "channel": 9
      },
      {
        "type": "note_on",
        "note": 44,
        "velocity": 75,
        "time": 23015,
        "channel": 9
      },
      {
        "type": "note_on",
        "note": 36,
        "velocity": 69,
        "time": 23032,
        "channel": 9
      },
      {
        "type": "note_on",
        "note": 51,
        "velocity": 38,
        "time": 23040,
        "channel": 9
      },
      {
        "type": "note_off",
        "note": 44,
        "time": 23127,
        "channel": 9
      },
      {
        "type": "note_on",
        "note": 38,
        "velocity": 30,
        "time": 23142,
        "channel": 9
      },
      {
        "type": "note_off",
        "note": 36,
        "time": 23143,
        "channel": 9
      },
      {
        "type": "note_off",
        "note": 51,
        "time": 23151,
        "channel": 9
      },
      {
        "type": "note_on",
        "note": 44,
        "velocity": 35,
        "time": 23237,
        "channel": 9
      },
      {
        "type": "note_off",
        "note": 38,
        "time": 23253,
        "channel": 9
      },
      {
        "type": "note_on",
        "note": 51,
        "velocity": 42,
        "time": 23268,
        "channel": 9
      },
      {
        "type": "note_on",
        "note": 36,
        "velocity": 60,
        "time": 23281,
        "channel": 9
      },
      {
        "type": "note_off",
        "note": 44,
        "time": 23350,
        "channel": 9
      },
      {
        "type": "note_off",
        "note": 51,
        "time": 23378,
        "channel": 9
      },
      {
        "type": "note_off",
        "note": 36,
        "time": 23393,
        "channel": 9
      },
      {
        "type": "note_on",
        "note": 44,
        "velocity": 82,
        "time": 23500,
        "channel": 9
      },
      {
        "type": "note_on",
        "note": 40,
        "velocity": 105,
        "time": 23515,
        "channel": 9
      },
      {
        "type": "note_on",
        "note": 51,
        "velocity": 59,
        "time": 23519,
        "channel": 9
      },
      {
        "type": "note_off",
        "note": 44,
        "time": 23612,
        "channel": 9
      },
      {
        "type": "note_off",
        "note": 40,
        "time": 23627,
        "channel": 9
      },
      {
        "type": "note_off",
        "note": 51,
        "time": 23630,
        "channel": 9
      },
      {
        "type": "note_on",
        "note": 44,
        "velocity": 45,
        "time": 23721,
        "channel": 9
      },
      {
        "type": "note_on",
        "note": 51,
        "velocity": 36,
        "time": 23766,
        "channel": 9
      },
      {
        "type": "note_off",
        "note": 44,
        "time": 23832,
        "channel": 9
      },
      {
        "type": "note_on",
        "note": 38,
        "velocity": 96,
        "time": 23859,
        "channel": 9
      },
      {
        "type": "note_off",
        "note": 51,
        "time": 23878,
        "channel": 9
      },
      {
        "type": "note_on",
        "note": 44,
        "velocity": 77,
        "time": 23969,
        "channel": 9
      },
      {
        "type": "note_off",
        "note": 38,
        "time": 23970,
        "channel": 9
      },
      {
        "type": "note_on",
        "note": 51,
        "velocity": 63,
        "time": 24000,
        "channel": 9
      },
      {
        "type": "note_off",
        "note": 44,
        "time": 24080,
        "channel": 9
      },
      {
        "type": "note_on",
        "note": 38,
        "velocity": 38,
        "time": 24108,
        "channel": 9
      },
      {
        "type": "note_off",
        "note": 51,
        "time": 24111,
        "channel": 9
      },
      {
        "type": "note_on",
        "note": 44,
        "velocity": 55,
        "time": 24186,
        "channel": 9
      },
      {
        "type": "note_on",
        "note": 36,
        "velocity": 52,
        "time": 24197,
        "channel": 9
      },
      {
        "type": "note_off",
        "note": 38,
        "time": 24220,
        "channel": 9
      },
      {
        "type": "note_on",
        "note": 51,
        "velocity": 45,
        "time": 24245,
        "channel": 9
      },
      {
        "type": "note_off",
        "note": 44,
        "time": 24298,
        "channel": 9
      },
      {
        "type": "note_off",
        "note": 36,
        "time": 24308,
        "channel": 9
      },
      {
        "type": "note_on",
        "note": 36,
        "velocity": 60,
        "time": 24343,
        "channel": 9
      },
      {
        "type": "note_off",
        "note": 51,
        "time": 24356,
        "channel": 9
      },
      {
        "type": "note_on",
        "note": 44,
        "velocity": 75,
        "time": 24445,
        "channel": 9
      },
      {
        "type": "note_off",
        "note": 36,
        "time": 24455,
        "channel": 9
      },
      {
        "type": "note_on",
        "note": 51,
        "velocity": 73,
        "time": 24462,
        "channel": 9
      },
      {
        "type": "note_on",
        "note": 40,
        "velocity": 96,
        "time": 24463,
        "channel": 9
      },
      {
        "type": "note_off",
        "note": 44,
        "time": 24557,
        "channel": 9
      },
      {
        "type": "note_off",
        "note": 51,
        "time": 24573,
        "channel": 9
      },
      {
        "type": "note_off",
        "note": 40,
        "time": 24575,
        "channel": 9
      },
      {
        "type": "note_on",
        "note": 51,
        "velocity": 40,
        "time": 24709,
        "channel": 9
      },
      {
        "type": "note_on",
        "note": 38,
        "velocity": 33,
        "time": 24797,
        "channel": 9
      },
      {
        "type": "note_off",
        "note": 51,
        "time": 24820,
        "channel": 9
      },
      {
        "type": "note_on",
        "note": 38,
        "velocity": 32,
        "time": 24845,
        "channel": 9
      },
      {
        "type": "note_off",
        "note": 38,
        "time": 24845,
        "channel": 9
      },
      {
        "type": "note_on",
        "note": 38,
        "velocity": 32,
        "time": 24876,
        "channel": 9
      },
      {
        "type": "note_off",
        "note": 38,
        "time": 24876,
        "channel": 9
      },
      {
        "type": "note_on",
        "note": 38,
        "velocity": 28,
        "time": 24902,
        "channel": 9
      },
      {
        "type": "note_off",
        "note": 38,
        "time": 24902,
        "channel": 9
      },
      {
        "type": "note_off",
        "note": 38,
        "time": 24909,
        "channel": 9
      },
      {
        "type": "note_on",
        "note": 44,
        "velocity": 82,
        "time": 24921,
        "channel": 9
      },
      {
        "type": "note_on",
        "note": 51,
        "velocity": 54,
        "time": 24951,
        "channel": 9
      },
      {
        "type": "note_on",
        "note": 36,
        "velocity": 61,
        "time": 24952,
        "channel": 9
      },
      {
        "type": "note_off",
        "note": 44,
        "time": 25032,
        "channel": 9
      },
      {
        "type": "note_off",
        "note": 36,
        "time": 25062,
        "channel": 9
      },
      {
        "type": "note_off",
        "note": 51,
        "time": 25062,
        "channel": 9
      },
      {
        "type": "note_on",
        "note": 51,
        "velocity": 48,
        "time": 25185,
        "channel": 9
      },
      {
        "type": "note_on",
        "note": 36,
        "velocity": 61,
        "time": 25190,
        "channel": 9
      },
      {
        "type": "note_off",
        "note": 51,
        "time": 25296,
        "channel": 9
      },
      {
        "type": "note_off",
        "note": 36,
        "time": 25301,
        "channel": 9
      },
      {
        "type": "note_on",
        "note": 44,
        "velocity": 82,
        "time": 25392,
        "channel": 9
      },
      {
        "type": "note_on",
        "note": 40,
        "velocity": 102,
        "time": 25433,
        "channel": 9
      },
      {
        "type": "note_on",
        "note": 51,
        "velocity": 71,
        "time": 25437,
        "channel": 9
      },
      {
        "type": "note_off",
        "note": 44,
        "time": 25504,
        "channel": 9
      },
      {
        "type": "note_off",
        "note": 40,
        "time": 25544,
        "channel": 9
      },
      {
        "type": "note_off",
        "note": 51,
        "time": 25549,
        "channel": 9
      },
      {
        "type": "note_on",
        "note": 44,
        "velocity": 62,
        "time": 25614,
        "channel": 9
      },
      {
        "type": "note_on",
        "note": 51,
        "velocity": 42,
        "time": 25685,
        "channel": 9
      },
      {
        "type": "note_off",
        "note": 44,
        "time": 25725,
        "channel": 9
      },
      {
        "type": "note_on",
        "note": 38,
        "velocity": 83,
        "time": 25770,
        "channel": 9
      },
      {
        "type": "note_off",
        "note": 51,
        "time": 25796,
        "channel": 9
      },
      {
        "type": "note_on",
        "note": 44,
        "velocity": 80,
        "time": 25869,
        "channel": 9
      },
      {
        "type": "note_off",
        "note": 38,
        "time": 25881,
        "channel": 9
      },
      {
        "type": "note_on",
        "note": 51,
        "velocity": 64,
        "time": 25914,
        "channel": 9
      },
      {
        "type": "note_off",
        "note": 44,
        "time": 25980,
        "channel": 9
      },
      {
        "type": "note_on",
        "note": 38,
        "velocity": 31,
        "time": 26012,
        "channel": 9
      },
      {
        "type": "note_off",
        "note": 51,
        "time": 26026,
        "channel": 9
      },
      {
        "type": "note_on",
        "note": 44,
        "velocity": 42,
        "time": 26094,
        "channel": 9
      },
      {
        "type": "note_off",
        "note": 38,
        "time": 26124,
        "channel": 9
      },
      {
        "type": "note_on",
        "note": 36,
        "velocity": 46,
        "time": 26126,
        "channel": 9
      },
      {
        "type": "note_on",
        "note": 51,
        "velocity": 44,
        "time": 26152,
        "channel": 9
      },
      {
        "type": "note_off",
        "note": 44,
        "time": 26207,
        "channel": 9
      },
      {
        "type": "note_off",
        "note": 36,
        "time": 26238,
        "channel": 9
      },
      {
        "type": "note_off",
        "note": 51,
        "time": 26263,
        "channel": 9
      },
      {
        "type": "note_on",
        "note": 36,
        "velocity": 53,
        "time": 26270,
        "channel": 9
      },
      {
        "type": "note_on",
        "note": 44,
        "velocity": 85,
        "time": 26363,
        "channel": 9
      },
      {
        "type": "note_on",
        "note": 51,
        "velocity": 65,
        "time": 26379,
        "channel": 9
      },
      {
        "type": "note_off",
        "note": 36,
        "time": 26381,
        "channel": 9
      },
      {
        "type": "note_on",
        "note": 38,
        "velocity": 114,
        "time": 26382,
        "channel": 9
      },
      {
        "type": "note_off",
        "note": 44,
        "time": 26475,
        "channel": 9
      },
      {
        "type": "note_off",
        "note": 51,
        "time": 26491,
        "channel": 9
      },
      {
        "type": "note_off",
        "note": 38,
        "time": 26494,
        "channel": 9
      },
      {
        "type": "note_on",
        "note": 44,
        "velocity": 42,
        "time": 26586,
        "channel": 9
      },
      {
        "type": "note_on",
        "note": 51,
        "velocity": 45,
        "time": 26633,
        "channel": 9
      },
      {
        "type": "note_off",
        "note": 44,
        "time": 26698,
        "channel": 9
      },
      {
        "type": "note_on",
        "note": 38,
        "velocity": 40,
        "time": 26733,
        "channel": 9
      },
      {
        "type": "note_off",
        "note": 51,
        "time": 26744,
        "channel": 9
      },
      {
        "type": "note_on",
        "note": 38,
        "velocity": 41,
        "time": 26778,
        "channel": 9
      },
      {
        "type": "note_off",
        "note": 38,
        "time": 26778,
        "channel": 9
      },
      {
        "type": "note_on",
        "note": 38,
        "velocity": 34,
        "time": 26805,
        "channel": 9
      },
      {
        "type": "note_off",
        "note": 38,
        "time": 26805,
        "channel": 9
      },
      {
        "type": "note_on",
        "note": 38,
        "velocity": 31,
        "time": 26824,
        "channel": 9
      },
      {
        "type": "note_off",
        "note": 38,
        "time": 26824,
        "channel": 9
      },
      {
        "type": "note_on",
        "note": 44,
        "velocity": 70,
        "time": 26841,
        "channel": 9
      },
      {
        "type": "note_off",
        "note": 38,
        "time": 26845,
        "channel": 9
      },
      {
        "type": "note_on",
        "note": 36,
        "velocity": 62,
        "time": 26862,
        "channel": 9
      },
      {
        "type": "note_on",
        "note": 51,
        "velocity": 55,
        "time": 26866,
        "channel": 9
      },
      {
        "type": "note_off",
        "note": 44,
        "time": 26953,
        "channel": 9
      },
      {
        "type": "note_off",
        "note": 36,
        "time": 26973,
        "channel": 9
      },
      {
        "type": "note_off",
        "note": 51,
        "time": 26977,
        "channel": 9
      },
      {
        "type": "note_on",
        "note": 36,
        "velocity": 61,
        "time": 27107,
        "channel": 9
      },
      {
        "type": "note_on",
        "note": 51,
        "velocity": 49,
        "time": 27111,
        "channel": 9
      },
      {
        "type": "note_off",
        "note": 36,
        "time": 27219,
        "channel": 9
      },
      {
        "type": "note_off",
        "note": 51,
        "time": 27222,
        "channel": 9
      },
      {
        "type": "note_on",
        "note": 44,
        "velocity": 85,
        "time": 27330,
        "channel": 9
      },
      {
        "type": "note_on",
        "note": 38,
        "velocity": 111,
        "time": 27352,
        "channel": 9
      },
      {
        "type": "note_on",
        "note": 51,
        "velocity": 66,
        "time": 27356,
        "channel": 9
      },
      {
        "type": "note_off",
        "note": 44,
        "time": 27442,
        "channel": 9
      },
      {
        "type": "note_off",
        "note": 38,
        "time": 27464,
        "channel": 9
      },
      {
        "type": "note_off",
        "note": 51,
        "time": 27468,
        "channel": 9
      },
      {
        "type": "note_on",
        "note": 44,
        "velocity": 17,
        "time": 27550,
        "channel": 9
      },
      {
        "type": "note_on",
        "note": 51,
        "velocity": 42,
        "time": 27610,
        "channel": 9
      },
      {
        "type": "note_off",
        "note": 44,
        "time": 27662,
        "channel": 9
      },
      {
        "type": "note_on",
        "note": 38,
        "velocity": 117,
        "time": 27720,
        "channel": 9
      },
      {
        "type": "note_off",
        "note": 51,
        "time": 27721,
        "channel": 9
      },
      {
        "type": "note_on",
        "note": 44,
        "velocity": 82,
        "time": 27810,
        "channel": 9
      },
      {
        "type": "note_off",
        "note": 38,
        "time": 27831,
        "channel": 9
      },
      {
        "type": "note_on",
        "note": 51,
        "velocity": 49,
        "time": 27856,
        "channel": 9
      },
      {
        "type": "note_off",
        "note": 44,
        "time": 27922,
        "channel": 9
      },
      {
        "type": "note_on",
        "note": 38,
        "velocity": 42,
        "time": 27962,
        "channel": 9
      },
      {
        "type": "note_off",
        "note": 51,
        "time": 27968,
        "channel": 9
      },
      {
        "type": "note_on",
        "note": 44,
        "velocity": 42,
        "time": 28034,
        "channel": 9
      },
      {
        "type": "note_off",
        "note": 38,
        "time": 28074,
        "channel": 9
      },
      {
        "type": "note_on",
        "note": 36,
        "velocity": 76,
        "time": 28081,
        "channel": 9
      },
      {
        "type": "note_on",
        "note": 51,
        "velocity": 56,
        "time": 28082,
        "channel": 9
      },
      {
        "type": "note_off",
        "note": 44,
        "time": 28147,
        "channel": 9
      },
      {
        "type": "note_off",
        "note": 36,
        "time": 28193,
        "channel": 9
      },
      {
        "type": "note_off",
        "note": 51,
        "time": 28193,
        "channel": 9
      },
      {
        "type": "note_on",
        "note": 44,
        "velocity": 80,
        "time": 28295,
        "channel": 9
      },
      {
        "type": "note_on",
        "note": 51,
        "velocity": 46,
        "time": 28320,
        "channel": 9
      },
      {
        "type": "note_off",
        "note": 44,
        "time": 28407,
        "channel": 9
      },
      {
        "type": "note_off",
        "note": 51,
        "time": 28431,
        "channel": 9
      },
      {
        "type": "note_on",
        "note": 44,
        "velocity": 30,
        "time": 28524,
        "channel": 9
      },
      {
        "type": "note_on",
        "note": 51,
        "velocity": 83,
        "time": 28553,
        "channel": 9
      },
      {
        "type": "note_on",
        "note": 38,
        "velocity": 114,
        "time": 28556,
        "channel": 9
      },
      {
        "type": "note_off",
        "note": 44,
        "time": 28637,
        "channel": 9
      },
      {
        "type": "note_off",
        "note": 51,
        "time": 28664,
        "channel": 9
      },
      {
        "type": "note_off",
        "note": 38,
        "time": 28668,
        "channel": 9
      },
      {
        "type": "note_on",
        "note": 44,
        "velocity": 80,
        "time": 28777,
        "channel": 9
      },
      {
        "type": "note_on",
        "note": 51,
        "velocity": 46,
        "time": 28813,
        "channel": 9
      },
      {
        "type": "note_on",
        "note": 38,
        "velocity": 32,
        "time": 28882,
        "channel": 9
      },
      {
        "type": "note_off",
        "note": 44,
        "time": 28888,
        "channel": 9
      },
      {
        "type": "note_off",
        "note": 51,
        "time": 28925,
        "channel": 9
      },
      {
        "type": "note_off",
        "note": 38,
        "time": 28993,
        "channel": 9
      },
      {
        "type": "note_on",
        "note": 44,
        "velocity": 52,
        "time": 28998,
        "channel": 9
      },
      {
        "type": "note_on",
        "note": 36,
        "velocity": 49,
        "time": 29025,
        "channel": 9
      },
      {
        "type": "note_on",
        "note": 51,
        "velocity": 51,
        "time": 29029,
        "channel": 9
      },
      {
        "type": "note_off",
        "note": 44,
        "time": 29109,
        "channel": 9
      },
      {
        "type": "note_off",
        "note": 36,
        "time": 29137,
        "channel": 9
      },
      {
        "type": "note_off",
        "note": 51,
        "time": 29140,
        "channel": 9
      },
      {
        "type": "note_on",
        "note": 36,
        "velocity": 54,
        "time": 29143,
        "channel": 9
      },
      {
        "type": "note_on",
        "note": 51,
        "velocity": 45,
        "time": 29152,
        "channel": 9
      },
      {
        "type": "note_off",
        "note": 36,
        "time": 29254,
        "channel": 9
      },
      {
        "type": "note_on",
        "note": 44,
        "velocity": 85,
        "time": 29260,
        "channel": 9
      },
      {
        "type": "note_off",
        "note": 51,
        "time": 29264,
        "channel": 9
      },
      {
        "type": "note_on",
        "note": 38,
        "velocity": 104,
        "time": 29270,
        "channel": 9
      },
      {
        "type": "note_on",
        "note": 51,
        "velocity": 59,
        "time": 29281,
        "channel": 9
      },
      {
        "type": "note_off",
        "note": 44,
        "time": 29372,
        "channel": 9
      },
      {
        "type": "note_off",
        "note": 38,
        "time": 29382,
        "channel": 9
      },
      {
        "type": "note_off",
        "note": 51,
        "time": 29393,
        "channel": 9
      },
      {
        "type": "note_on",
        "note": 44,
        "velocity": 40,
        "time": 29479,
        "channel": 9
      },
      {
        "type": "note_on",
        "note": 51,
        "velocity": 46,
        "time": 29512,
        "channel": 9
      },
      {
        "type": "note_off",
        "note": 44,
        "time": 29590,
        "channel": 9
      },
      {
        "type": "note_off",
        "note": 51,
        "time": 29623,
        "channel": 9
      },
      {
        "type": "note_on",
        "note": 38,
        "velocity": 80,
        "time": 29626,
        "channel": 9
      },
      {
        "type": "note_on",
        "note": 44,
        "velocity": 77,
        "time": 29725,
        "channel": 9
      },
      {
        "type": "note_off",
        "note": 38,
        "time": 29737,
        "channel": 9
      },
      {
        "type": "note_on",
        "note": 53,
        "velocity": 30,
        "time": 29748,
        "channel": 9
      },
      {
        "type": "note_off",
        "note": 44,
        "time": 29837,
        "channel": 9
      },
      {
        "type": "note_on",
        "note": 38,
        "velocity": 37,
        "time": 29856,
        "channel": 9
      },
      {
        "type": "note_off",
        "note": 53,
        "time": 29859,
        "channel": 9
      },
      {
        "type": "note_on",
        "note": 44,
        "velocity": 22,
        "time": 29936,
        "channel": 9
      },
      {
        "type": "note_on",
        "note": 52,
        "velocity": 84,
        "time": 29967,
        "channel": 9
      },
      {
        "type": "note_off",
        "note": 38,
        "time": 29967,
        "channel": 9
      },
      {
        "type": "note_on",
        "note": 36,
        "velocity": 127,
        "time": 29978,
        "channel": 9
      },
      {
        "type": "note_off",
        "note": 44,
        "time": 30047,
        "channel": 9
      },
      {
        "type": "note_off",
        "note": 52,
        "time": 30080,
        "channel": 9
      },
      {
        "type": "note_off",
        "note": 36,
        "time": 30090,
        "channel": 9
      },
      {
        "type": "note_on",
        "note": 44,
        "velocity": 77,
        "time": 30190,
        "channel": 9
      },
      {
        "type": "note_on",
        "note": 51,
        "velocity": 33,
        "time": 30231,
        "channel": 9
      },
      {
        "type": "note_off",
        "note": 44,
        "time": 30303,
        "channel": 9
      },
      {
        "type": "note_off",
        "note": 51,
        "time": 30342,
        "channel": 9
      },
      {
        "type": "note_on",
        "note": 38,
        "velocity": 116,
        "time": 30448,
        "channel": 9
      },
      {
        "type": "note_on",
        "note": 51,
        "velocity": 74,
        "time": 30452,
        "channel": 9
      },
      {
        "type": "note_off",
        "note": 38,
        "time": 30559,
        "channel": 9
      },
      {
        "type": "note_off",
        "note": 51,
        "time": 30563,
        "channel": 9
      },
      {
        "type": "note_on",
        "note": 44,
        "velocity": 25,
        "time": 30658,
        "channel": 9
      },
      {
        "type": "note_off",
        "note": 44,
        "time": 30771,
        "channel": 9
      }
    ]
  },
  {
    "file": "data\\groove\\drummer1\\eval_session\\2_funk-groove2_105_beat_4-4.mid",
    "num_events": 649,
    "duration": 30535,
    "events": [
      {
        "type": "set_tempo",
        "tempo": 571429,
        "time": 0
      },
      {
        "type": "note_on",
        "note": 36,
        "velocity": 89,
        "time": 20,
        "channel": 9
      },
      {
        "type": "note_on",
        "note": 22,
        "velocity": 63,
        "time": 30,
        "channel": 9
      },
      {
        "type": "note_off",
        "note": 36,
        "time": 105,
        "channel": 9
      },
      {
        "type": "note_off",
        "note": 22,
        "time": 115,
        "channel": 9
      },
      {
        "type": "note_on",
        "note": 42,
        "velocity": 79,
        "time": 261,
        "channel": 9
      },
      {
        "type": "note_off",
        "note": 42,
        "time": 346,
        "channel": 9
      },
      {
        "type": "note_on",
        "note": 36,
        "velocity": 58,
        "time": 403,
        "channel": 9
      },
      {
        "type": "note_off",
        "note": 36,
        "time": 488,
        "channel": 9
      },
      {
        "type": "note_on",
        "note": 22,
        "velocity": 101,
        "time": 500,
        "channel": 9
      },
      {
        "type": "note_on",
        "note": 40,
        "velocity": 119,
        "time": 502,
        "channel": 9
      },
      {
        "type": "note_off",
        "note": 22,
        "time": 585,
        "channel": 9
      },
      {
        "type": "note_off",
        "note": 40,
        "time": 587,
        "channel": 9
      },
      {
        "type": "note_on",
        "note": 42,
        "velocity": 83,
        "time": 729,
        "channel": 9
      },
      {
        "type": "note_off",
        "note": 42,
        "time": 814,
        "channel": 9
      },
      {
        "type": "note_on",
        "note": 36,
        "velocity": 59,
        "time": 851,
        "channel": 9
      },
      {
        "type": "note_off",
        "note": 36,
        "time": 936,
        "channel": 9
      },
      {
        "type": "note_on",
        "note": 42,
        "velocity": 53,
        "time": 965,
        "channel": 9
      },
      {
        "type": "note_off",
        "note": 42,
        "time": 1049,
        "channel": 9
      },
      {
        "type": "note_on",
        "note": 36,
        "velocity": 44,
        "time": 1096,
        "channel": 9
      },
      {
        "type": "note_on",
        "note": 36,
        "velocity": 53,
        "time": 1171,
        "channel": 9
      },
      {
        "type": "note_off",
        "note": 36,
        "time": 1171,
        "channel": 9
      },
      {
        "type": "note_off",
        "note": 36,
        "time": 1181,
        "channel": 9
      },
      {
        "type": "note_on",
        "note": 26,
        "velocity": 78,
        "time": 1189,
        "channel": 9
      },
      {
        "type": "note_off",
        "note": 26,
        "time": 1274,
        "channel": 9
      },
      {
        "type": "note_on",
        "note": 44,
        "velocity": 60,
        "time": 1415,
        "channel": 9
      },
      {
        "type": "note_on",
        "note": 40,
        "velocity": 117,
        "time": 1431,
        "channel": 9
      },
      {
        "type": "note_on",
        "note": 22,
        "velocity": 78,
        "time": 1441,
        "channel": 9
      },
      {
        "type": "note_on",
        "note": 38,
        "velocity": 31,
        "time": 1496,
        "channel": 9
      },
      {
        "type": "note_off",
        "note": 44,
        "time": 1499,
        "channel": 9
      },
      {
        "type": "note_off",
        "note": 40,
        "time": 1516,
        "channel": 9
      },
      {
        "type": "note_off",
        "note": 22,
        "time": 1525,
        "channel": 9
      },
      {
        "type": "note_off",
        "note": 38,
        "time": 1581,
        "channel": 9
      },
      {
        "type": "note_on",
        "note": 38,
        "velocity": 5,
        "time": 1659,
        "channel": 9
      },
      {
        "type": "note_on",
        "note": 22,
        "velocity": 77,
        "time": 1685,
        "channel": 9
      },
      {
        "type": "note_off",
        "note": 38,
        "time": 1744,
        "channel": 9
      },
      {
        "type": "note_off",
        "note": 22,
        "time": 1770,
        "channel": 9
      },
      {
        "type": "note_on",
        "note": 38,
        "velocity": 31,
        "time": 1833,
        "channel": 9
      },
      {
        "type": "note_on",
        "note": 38,
        "velocity": 32,
        "time": 1867,
        "channel": 9
      },
      {
        "type": "note_off",
        "note": 38,
        "time": 1867,
        "channel": 9
      },
      {
        "type": "note_on",
        "note": 38,
        "velocity": 26,
        "time": 1892,
        "channel": 9
      },
      {
        "type": "note_off",
        "note": 38,
        "time": 1892,
        "channel": 9
      },
      {
        "type": "note_off",
        "note": 38,
        "time": 1918,
        "channel": 9
      },
      {
        "type": "note_on",
        "note": 36,
        "velocity": 78,
        "time": 1926,
        "channel": 9
      },
      {
        "type": "note_on",
        "note": 42,
        "velocity": 52,
        "time": 1933,
        "channel": 9
      },
      {
        "type": "note_off",
        "note": 36,
        "time": 2011,
        "channel": 9
      },
      {
        "type": "note_off",
        "note": 42,
        "time": 2018,
        "channel": 9
      },
      {
        "type": "note_on",
        "note": 38,
        "velocity": 24,
        "time": 2047,
        "channel": 9
      },
      {
        "type": "note_off",
        "note": 38,
        "time": 2132,
        "channel": 9
      },
      {
        "type": "note_on",
        "note": 42,
        "velocity": 67,
        "time": 2161,
        "channel": 9
      },
      {
        "type": "note_off",
        "note": 42,
        "time": 2247,
        "channel": 9
      },
      {
        "type": "note_on",
        "note": 36,
        "velocity": 64,
        "time": 2300,
        "channel": 9
      },
      {
        "type": "note_off",
        "note": 36,
        "time": 2384,
        "channel": 9
      },
      {
        "type": "note_on",
        "note": 40,
        "velocity": 127,
        "time": 2391,
        "channel": 9
      },
      {
        "type": "note_on",
        "note": 22,
        "velocity": 71,
        "time": 2401,
        "channel": 9
      },
      {
        "type": "note_off",
        "note": 40,
        "time": 2475,
        "channel": 9
      },
      {
        "type": "note_off",
        "note": 22,
        "time": 2486,
        "channel": 9
      },
      {
        "type": "note_on",
        "note": 22,
        "velocity": 70,
        "time": 2632,
        "channel": 9
      },
      {
        "type": "note_off",
        "note": 22,
        "time": 2717,
        "channel": 9
      },
      {
        "type": "note_on",
        "note": 36,
        "velocity": 62,
        "time": 2760,
        "channel": 9
      },
      {
        "type": "note_on",
        "note": 38,
        "velocity": 5,
        "time": 2792,
        "channel": 9
      },
      {
        "type": "note_off",
        "note": 36,
        "time": 2845,
        "channel": 9
      },
      {
        "type": "note_off",
        "note": 38,
        "time": 2877,
        "channel": 9
      },
      {
        "type": "note_on",
        "note": 42,
        "velocity": 22,
        "time": 2881,
        "channel": 9
      },
      {
        "type": "note_off",
        "note": 42,
        "time": 2966,
        "channel": 9
      },
      {
        "type": "note_on",
        "note": 36,
        "velocity": 43,
        "time": 3005,
        "channel": 9
      },
      {
        "type": "note_on",
        "note": 36,
        "velocity": 54,
        "time": 3079,
        "channel": 9
      },
      {
        "type": "note_off",
        "note": 36,
        "time": 3079,
        "channel": 9
      },
      {
        "type": "note_off",
        "note": 36,
        "time": 3089,
        "channel": 9
      },
      {
        "type": "note_on",
        "note": 26,
        "velocity": 65,
        "time": 3090,
        "channel": 9
      },
      {
        "type": "note_off",
        "note": 26,
        "time": 3175,
        "channel": 9
      },
      {
        "type": "note_on",
        "note": 44,
        "velocity": 60,
        "time": 3308,
        "channel": 9
      },
      {
        "type": "note_on",
        "note": 40,
        "velocity": 127,
        "time": 3335,
        "channel": 9
      },
      {
        "type": "note_on",
        "note": 42,
        "velocity": 73,
        "time": 3346,
        "channel": 9
      },
      {
        "type": "note_off",
        "note": 44,
        "time": 3392,
        "channel": 9
      },
      {
        "type": "note_on",
        "note": 38,
        "velocity": 33,
        "time": 3407,
        "channel": 9
      },
      {
        "type": "note_off",
        "note": 40,
        "time": 3420,
        "channel": 9
      },
      {
        "type": "note_off",
        "note": 42,
        "time": 3431,
        "channel": 9
      },
      {
        "type": "note_off",
        "note": 38,
        "time": 3492,
        "channel": 9
      },
      {
        "type": "note_on",
        "note": 22,
        "velocity": 73,
        "time": 3588,
        "channel": 9
      },
      {
        "type": "note_off",
        "note": 22,
        "time": 3673,
        "channel": 9
      },
      {
        "type": "note_on",
        "note": 38,
        "velocity": 32,
        "time": 3726,
        "channel": 9
      },
      {
        "type": "note_on",
        "note": 38,
        "velocity": 34,
        "time": 3770,
        "channel": 9
      },
      {
        "type": "note_off",
        "note": 38,
        "time": 3770,
        "channel": 9
      },
      {
        "type": "note_on",
        "note": 38,
        "velocity": 28,
        "time": 3794,
        "channel": 9
      },
      {
        "type": "note_off",
        "note": 38,
        "time": 3794,
        "channel": 9
      },
      {
        "type": "note_off",
        "note": 38,
        "time": 3811,
        "channel": 9
      },
      {
        "type": "note_on",
        "note": 38,
        "velocity": 27,
        "time": 3813,
        "channel": 9
      },
      {
        "type": "note_on",
        "note": 36,
        "velocity": 62,
        "time": 3829,
        "channel": 9
      },
      {
        "type": "note_on",
        "note": 42,
        "velocity": 36,
        "time": 3836,
        "channel": 9
      },
      {
        "type": "note_off",
        "note": 38,
        "time": 3855,
        "channel": 9
      },
      {
        "type": "note_off",
        "note": 36,
        "time": 3913,
        "channel": 9
      },
      {
        "type": "note_off",
        "note": 42,
        "time": 3921,
        "channel": 9
      },
      {
        "type": "note_on",
        "note": 38,
        "velocity": 23,
        "time": 3982,
        "channel": 9
      },
      {
        "type": "note_off",
        "note": 38,
        "time": 4066,
        "channel": 9
      },
      {
        "type": "note_on",
        "note": 42,
        "velocity": 63,
        "time": 4070,
        "channel": 9
      },
      {
        "type": "note_off",
        "note": 42,
        "time": 4155,
        "channel": 9
      },
      {
        "type": "note_on",
        "note": 36,
        "velocity": 56,
        "time": 4204,
        "channel": 9
      },
      {
        "type": "note_off",
        "note": 36,
        "time": 4289,
        "channel": 9
      },
      {
        "type": "note_on",
        "note": 40,
        "velocity": 114,
        "time": 4307,
        "channel": 9
      },
      {
        "type": "note_on",
        "note": 22,
        "velocity": 76,
        "time": 4312,
        "channel": 9
      },
      {
        "type": "note_on",
        "note": 38,
        "velocity": 24,
        "time": 4373,
        "channel": 9
      },
      {
        "type": "note_off",
        "note": 40,
        "time": 4392,
        "channel": 9
      },
      {
        "type": "note_off",
        "note": 22,
        "time": 4397,
        "channel": 9
      },
      {
        "type": "note_on",
        "note": 38,
        "velocity": 8,
        "time": 4423,
        "channel": 9
      },
      {
        "type": "note_off",
        "note": 38,
        "time": 4423,
        "channel": 9
      },
      {
        "type": "note_off",
        "note": 38,
        "time": 4458,
        "channel": 9
      },
      {
        "type": "note_on",
        "note": 22,
        "velocity": 58,
        "time": 4552,
        "channel": 9
      },
      {
        "type": "note_off",
        "note": 22,
        "time": 4637,
        "channel": 9
      },
      {
        "type": "note_on",
        "note": 36,
        "velocity": 60,
        "time": 4689,
        "channel": 9
      },
      {
        "type": "note_off",
        "note": 36,
        "time": 4774,
        "channel": 9
      },
      {
        "type": "note_on",
        "note": 42,
        "velocity": 45,
        "time": 4781,
        "channel": 9
      },
      {
        "type": "note_off",
        "note": 42,
        "time": 4867,
        "channel": 9
      },
      {
        "type": "note_on",
        "note": 36,
        "velocity": 43,
        "time": 4941,
        "channel": 9
      },
      {
        "type": "note_on",
        "note": 36,
        "velocity": 51,
        "time": 5013,
        "channel": 9
      },
      {
        "type": "note_off",
        "note": 36,
        "time": 5013,
        "channel": 9
      },
      {
        "type": "note_on",
        "note": 26,
        "velocity": 85,
        "time": 5020,
        "channel": 9
      },
      {
        "type": "note_off",
        "note": 36,
        "time": 5026,
        "channel": 9
      },
      {
        "type": "note_off",
        "note": 26,
        "time": 5105,
        "channel": 9
      },
      {
        "type": "note_on",
        "note": 44,
        "velocity": 52,
        "time": 5236,
        "channel": 9
      },
      {
        "type": "note_on",
        "note": 40,
        "velocity": 114,
        "time": 5264,
        "channel": 9
      },
      {
        "type": "note_on",
        "note": 42,
        "velocity": 74,
        "time": 5272,
        "channel": 9
      },
      {
        "type": "note_off",
        "note": 44,
        "time": 5321,
        "channel": 9
      },
      {
        "type": "note_off",
        "note": 40,
        "time": 5349,
        "channel": 9
      },
      {
        "type": "note_off",
        "note": 42,
        "time": 5357,
        "channel": 9
      },
      {
        "type": "note_on",
        "note": 22,
        "velocity": 89,
        "time": 5507,
        "channel": 9
      },
      {
        "type": "note_off",
        "note": 22,
        "time": 5592,
        "channel": 9
      },
      {
        "type": "note_on",
        "note": 38,
        "velocity": 31,
        "time": 5638,
        "channel": 9
      },
      {
        "type": "note_on",
        "note": 38,
        "velocity": 35,
        "time": 5673,
        "channel": 9
      },
      {
        "type": "note_off",
        "note": 38,
        "time": 5673,
        "channel": 9
      },
      {
        "type": "note_on",
        "note": 38,
        "velocity": 34,
        "time": 5695,
        "channel": 9
      },
      {
        "type": "note_off",
        "note": 38,
        "time": 5695,
        "channel": 9
      },
      {
        "type": "note_off",
        "note": 38,
        "time": 5723,
        "channel": 9
      },
      {
        "type": "note_on",
        "note": 36,
        "velocity": 60,
        "time": 5726,
        "channel": 9
      },
      {
        "type": "note_on",
        "note": 42,
        "velocity": 43,
        "time": 5750,
        "channel": 9
      },
      {
        "type": "note_off",
        "note": 36,
        "time": 5811,
        "channel": 9
      },
      {
        "type": "note_off",
        "note": 42,
        "time": 5834,
        "channel": 9
      },
      {
        "type": "note_on",
        "note": 38,
        "velocity": 29,
        "time": 5892,
        "channel": 9
      },
      {
        "type": "note_off",
        "note": 38,
        "time": 5977,
        "channel": 9
      },
      {
        "type": "note_on",
        "note": 22,
        "velocity": 86,
        "time": 5986,
        "channel": 9
      },
      {
        "type": "note_off",
        "note": 22,
        "time": 6071,
        "channel": 9
      },
      {
        "type": "note_on",
        "note": 36,
        "velocity": 62,
        "time": 6130,
        "channel": 9
      },
      {
        "type": "note_off",
        "note": 36,
        "time": 6214,
        "channel": 9
      },
      {
        "type": "note_on",
        "note": 22,
        "velocity": 88,
        "time": 6232,
        "channel": 9
      },
      {
        "type": "note_on",
        "note": 40,
        "velocity": 127,
        "time": 6232,
        "channel": 9
      },
      {
        "type": "note_off",
        "note": 22,
        "time": 6316,
        "channel": 9
      },
      {
        "type": "note_off",
        "note": 40,
        "time": 6316,
        "channel": 9
      },
      {
        "type": "note_on",
        "note": 38,
        "velocity": 7,
        "time": 6373,
        "channel": 9
      },
      {
        "type": "note_off",
        "note": 38,
        "time": 6458,
        "channel": 9
      },
      {
        "type": "note_on",
        "note": 22,
        "velocity": 76,
        "time": 6470,
        "channel": 9
      },
      {
        "type": "note_off",
        "note": 22,
        "time": 6556,
        "channel": 9
      },
      {
        "type": "note_on",
        "note": 36,
        "velocity": 55,
        "time": 6608,
        "channel": 9
      },
      {
        "type": "note_off",
        "note": 36,
        "time": 6693,
        "channel": 9
      },
      {
        "type": "note_on",
        "note": 42,
        "velocity": 51,
        "time": 6710,
        "channel": 9
      },
      {
        "type": "note_off",
        "note": 42,
        "time": 6794,
        "channel": 9
      },
      {
        "type": "note_on",
        "note": 36,
        "velocity": 43,
        "time": 6864,
        "channel": 9
      },
      {
        "type": "note_on",
        "note": 36,
        "velocity": 51,
        "time": 6937,
        "channel": 9
      },
      {
        "type": "note_off",
        "note": 36,
        "time": 6937,
        "channel": 9
      },
      {
        "type": "note_on",
        "note": 26,
        "velocity": 59,
        "time": 6939,
        "channel": 9
      },
      {
        "type": "note_off",
        "note": 36,
        "time": 6949,
        "channel": 9
      },
      {
        "type": "note_off",
        "note": 26,
        "time": 7024,
        "channel": 9
      },
      {
        "type": "note_on",
        "note": 44,
        "velocity": 52,
        "time": 7170,
        "channel": 9
      },
      {
        "type": "note_on",
        "note": 40,
        "velocity": 127,
        "time": 7197,
        "channel": 9
      },
      {
        "type": "note_on",
        "note": 22,
        "velocity": 97,
        "time": 7203,
        "channel": 9
      },
      {
        "type": "note_off",
        "note": 44,
        "time": 7256,
        "channel": 9
      },
      {
        "type": "note_on",
        "note": 38,
        "velocity": 33,
        "time": 7263,
        "channel": 9
      },
      {
        "type": "note_off",
        "note": 40,
        "time": 7282,
        "channel": 9
      },
      {
        "type": "note_off",
        "note": 22,
        "time": 7288,
        "channel": 9
      },
      {
        "type": "note_on",
        "note": 38,
        "velocity": 8,
        "time": 7342,
        "channel": 9
      },
      {
        "type": "note_off",
        "note": 38,
        "time": 7342,
        "channel": 9
      },
      {
        "type": "note_off",
        "note": 38,
        "time": 7348,
        "channel": 9
      },
      {
        "type": "note_on",
        "note": 22,
        "velocity": 79,
        "time": 7439,
        "channel": 9
      },
      {
        "type": "note_off",
        "note": 22,
        "time": 7524,
        "channel": 9
      },
      {
        "type": "note_on",
        "note": 38,
        "velocity": 24,
        "time": 7556,
        "channel": 9
      },
      {
        "type": "note_on",
        "note": 38,
        "velocity": 25,
        "time": 7587,
        "channel": 9
      },
      {
        "type": "note_off",
        "note": 38,
        "time": 7587,
        "channel": 9
      },
      {
        "type": "note_on",
        "note": 38,
        "velocity": 19,
        "time": 7610,
        "channel": 9
      },
      {
        "type": "note_off",
        "note": 38,
        "time": 7610,
        "channel": 9
      },
      {
        "type": "note_off",
        "note": 38,
        "time": 7641,
        "channel": 9
      },
      {
        "type": "note_on",
        "note": 36,
        "velocity": 103,
        "time": 7672,
        "channel": 9
      },
      {
        "type": "note_on",
        "note": 42,
        "velocity": 51,
        "time": 7678,
        "channel": 9
      },
      {
        "type": "note_off",
        "note": 36,
        "time": 7757,
        "channel": 9
      },
      {
        "type": "note_off",
        "note": 42,
        "time": 7764,
        "channel": 9
      },
      {
        "type": "note_on",
        "note": 38,
        "velocity": 36,
        "time": 7805,
        "channel": 9
      },
      {
        "type": "note_off",
        "note": 38,
        "time": 7890,
        "channel": 9
      },
      {
        "type": "note_on",
        "note": 22,
        "velocity": 68,
        "time": 7915,
        "channel": 9
      },
      {
        "type": "note_off",
        "note": 22,
        "time": 8000,
        "channel": 9
      },
      {
        "type": "note_on",
        "note": 36,
        "velocity": 103,
        "time": 8062,
        "channel": 9
      },
      {
        "type": "note_off",
        "note": 36,
        "time": 8146,
        "channel": 9
      },
      {
        "type": "note_on",
        "note": 22,
        "velocity": 78,
        "time": 8154,
        "channel": 9
      },
      {
        "type": "note_on",
        "note": 40,
        "velocity": 127,
        "time": 8156,
        "channel": 9
      },
      {
        "type": "note_on",
        "note": 38,
        "velocity": 29,
        "time": 8227,
        "channel": 9
      },
      {
        "type": "note_off",
        "note": 22,
        "time": 8239,
        "channel": 9
      },
      {
        "type": "note_off",
        "note": 40,
        "time": 8241,
        "channel": 9
      },
      {
        "type": "note_off",
        "note": 38,
        "time": 8311,
        "channel": 9
      },
      {
        "type": "note_on",
        "note": 22,
        "velocity": 70,
        "time": 8395,
        "channel": 9
      },
      {
        "type": "note_off",
        "note": 22,
        "time": 8479,
        "channel": 9
      },
      {
        "type": "note_on",
        "note": 36,
        "velocity": 65,
        "time": 8525,
        "channel": 9
      },
      {
        "type": "note_off",
        "note": 36,
        "time": 8610,
        "channel": 9
      },
      {
        "type": "note_on",
        "note": 42,
        "velocity": 34,
        "time": 8627,
        "channel": 9
      },
      {
        "type": "note_off",
        "note": 42,
        "time": 8712,
        "channel": 9
      },
      {
        "type": "note_on",
        "note": 36,
        "velocity": 56,
        "time": 8789,
        "channel": 9
      },
      {
        "type": "note_on",
        "note": 36,
        "velocity": 52,
        "time": 8855,
        "channel": 9
      },
      {
        "type": "note_off",
        "note": 36,
        "time": 8855,
        "channel": 9
      },
      {
        "type": "note_on",
        "note": 26,
        "velocity": 99,
        "time": 8864,
        "channel": 9
      },
      {
        "type": "note_off",
        "note": 36,
        "time": 8873,
        "channel": 9
      },
      {
        "type": "note_off",
        "note": 26,
        "time": 8949,
        "channel": 9
      },
      {
        "type": "note_on",
        "note": 44,
        "velocity": 55,
        "time": 9103,
        "channel": 9
      },
      {
        "type": "note_on",
        "note": 40,
        "velocity": 127,
        "time": 9117,
        "channel": 9
      },
      {
        "type": "note_on",
        "note": 22,
        "velocity": 75,
        "time": 9124,
        "channel": 9
      },
      {
        "type": "note_off",
        "note": 44,
        "time": 9187,
        "channel": 9
      },
      {
        "type": "note_off",
        "note": 40,
        "time": 9201,
        "channel": 9
      },
      {
        "type": "note_off",
        "note": 22,
        "time": 9209,
        "channel": 9
      },
      {
        "type": "note_on",
        "note": 42,
        "velocity": 78,
        "time": 9358,
        "channel": 9
      },
      {
        "type": "note_off",
        "note": 42,
        "time": 9443,
        "channel": 9
      },
      {
        "type": "note_on",
        "note": 36,
        "velocity": 45,
        "time": 9513,
        "channel": 9
      },
      {
        "type": "note_on",
        "note": 42,
        "velocity": 74,
        "time": 9592,
        "channel": 9
      },
      {
        "type": "note_off",
        "note": 36,
        "time": 9597,
        "channel": 9
      },
      {
        "type": "note_on",
        "note": 36,
        "velocity": 65,
        "time": 9609,
        "channel": 9
      },
      {
        "type": "note_off",
        "note": 42,
        "time": 9677,
        "channel": 9
      },
      {
        "type": "note_off",
        "note": 36,
        "time": 9693,
        "channel": 9
      },
      {
        "type": "note_on",
        "note": 38,
        "velocity": 29,
        "time": 9732,
        "channel": 9
      },
      {
        "type": "note_off",
        "note": 38,
        "time": 9817,
        "channel": 9
      },
      {
        "type": "note_on",
        "note": 42,
        "velocity": 87,
        "time": 9829,
        "channel": 9
      },
      {
        "type": "note_off",
        "note": 42,
        "time": 9914,
        "channel": 9
      },
      {
        "type": "note_on",
        "note": 36,
        "velocity": 73,
        "time": 9974,
        "channel": 9
      },
      {
        "type": "note_off",
        "note": 36,
        "time": 10059,
        "channel": 9
      },
      {
        "type": "note_on",
        "note": 40,
        "velocity": 120,
        "time": 10073,
        "channel": 9
      },
      {
        "type": "note_on",
        "note": 42,
        "velocity": 88,
        "time": 10079,
        "channel": 9
      },
      {
        "type": "note_off",
        "note": 40,
        "time": 10158,
        "channel": 9
      },
      {
        "type": "note_off",
        "note": 42,
        "time": 10164,
        "channel": 9
      },
      {
        "type": "note_on",
        "note": 42,
        "velocity": 66,
        "time": 10312,
        "channel": 9
      },
      {
        "type": "note_off",
        "note": 42,
        "time": 10397,
        "channel": 9
      },
      {
        "type": "note_on",
        "note": 36,
        "velocity": 58,
        "time": 10438,
        "channel": 9
      },
      {
        "type": "note_off",
        "note": 36,
        "time": 10522,
        "channel": 9
      },
      {
        "type": "note_on",
        "note": 42,
        "velocity": 64,
        "time": 10555,
        "channel": 9
      },
      {
        "type": "note_off",
        "note": 42,
        "time": 10641,
        "channel": 9
      },
      {
        "type": "note_on",
        "note": 36,
        "velocity": 49,
        "time": 10691,
        "channel": 9
      },
      {
        "type": "note_on",
        "note": 38,
        "velocity": 7,
        "time": 10761,
        "channel": 9
      },
      {
        "type": "note_on",
        "note": 36,
        "velocity": 60,
        "time": 10765,
        "channel": 9
      },
      {
        "type": "note_off",
        "note": 36,
        "time": 10765,
        "channel": 9
      },
      {
        "type": "note_off",
        "note": 36,
        "time": 10776,
        "channel": 9
      },
      {
        "type": "note_on",
        "note": 26,
        "velocity": 74,
        "time": 10782,
        "channel": 9
      },
      {
        "type": "note_off",
        "note": 38,
        "time": 10846,
        "channel": 9
      },
      {
        "type": "note_off",
        "note": 26,
        "time": 10867,
        "channel": 9
      },
      {
        "type": "note_on",
        "note": 44,
        "velocity": 50,
        "time": 11001,
        "channel": 9
      },
      {
        "type": "note_on",
        "note": 40,
        "velocity": 127,
        "time": 11025,
        "channel": 9
      },
      {
        "type": "note_on",
        "note": 22,
        "velocity": 84,
        "time": 11034,
        "channel": 9
      },
      {
        "type": "note_off",
        "note": 44,
        "time": 11087,
        "channel": 9
      },
      {
        "type": "note_off",
        "note": 40,
        "time": 11109,
        "channel": 9
      },
      {
        "type": "note_off",
        "note": 22,
        "time": 11119,
        "channel": 9
      },
      {
        "type": "note_on",
        "note": 22,
        "velocity": 86,
        "time": 11277,
        "channel": 9
      },
      {
        "type": "note_off",
        "note": 22,
        "time": 11362,
        "channel": 9
      },
      {
        "type": "note_on",
        "note": 38,
        "velocity": 25,
        "time": 11392,
        "channel": 9
      },
      {
        "type": "note_on",
        "note": 38,
        "velocity": 21,
        "time": 11424,
        "channel": 9
      },
      {
        "type": "note_off",
        "note": 38,
        "time": 11424,
        "channel": 9
      },
      {
        "type": "note_on",
        "note": 38,
        "velocity": 23,
        "time": 11441,
        "channel": 9
      },
      {
        "type": "note_off",
        "note": 38,
        "time": 11441,
        "channel": 9
      },
      {
        "type": "note_off",
        "note": 38,
        "time": 11476,
        "channel": 9
      },
      {
        "type": "note_on",
        "note": 36,
        "velocity": 107,
        "time": 11499,
        "channel": 9
      },
      {
        "type": "note_on",
        "note": 42,
        "velocity": 55,
        "time": 11520,
        "channel": 9
      },
      {
        "type": "note_off",
        "note": 36,
        "time": 11584,
        "channel": 9
      },
      {
        "type": "note_off",
        "note": 42,
        "time": 11605,
        "channel": 9
      },
      {
        "type": "note_on",
        "note": 38,
        "velocity": 34,
        "time": 11655,
        "channel": 9
      },
      {
        "type": "note_off",
        "note": 38,
        "time": 11740,
        "channel": 9
      },
      {
        "type": "note_on",
        "note": 42,
        "velocity": 78,
        "time": 11759,
        "channel": 9
      },
      {
        "type": "note_off",
        "note": 42,
        "time": 11844,
        "channel": 9
      },
      {
        "type": "note_on",
        "note": 36,
        "velocity": 105,
        "time": 11903,
        "channel": 9
      },
      {
        "type": "note_off",
        "note": 36,
        "time": 11987,
        "channel": 9
      },
      {
        "type": "note_on",
        "note": 42,
        "velocity": 78,
        "time": 11992,
        "channel": 9
      },
      {
        "type": "note_on",
        "note": 40,
        "velocity": 127,
        "time": 11995,
        "channel": 9
      },
      {
        "type": "note_off",
        "note": 42,
        "time": 12077,
        "channel": 9
      },
      {
        "type": "note_off",
        "note": 40,
        "time": 12080,
        "channel": 9
      },
      {
        "type": "note_on",
        "note": 22,
        "velocity": 80,
        "time": 12230,
        "channel": 9
      },
      {
        "type": "note_off",
        "note": 22,
        "time": 12315,
        "channel": 9
      },
      {
        "type": "note_on",
        "note": 36,
        "velocity": 69,
        "time": 12363,
        "channel": 9
      },
      {
        "type": "note_off",
        "note": 36,
        "time": 12447,
        "channel": 9
      },
      {
        "type": "note_on",
        "note": 42,
        "velocity": 48,
        "time": 12461,
        "channel": 9
      },
      {
        "type": "note_off",
        "note": 42,
        "time": 12547,
        "channel": 9
      },
      {
        "type": "note_on",
        "note": 36,
        "velocity": 50,
        "time": 12601,
        "channel": 9
      },
      {
        "type": "note_off",
        "note": 36,
        "time": 12686,
        "channel": 9
      },
      {
        "type": "note_on",
        "note": 36,
        "velocity": 60,
        "time": 12691,
        "channel": 9
      },
      {
        "type": "note_on",
        "note": 26,
        "velocity": 88,
        "time": 12707,
        "channel": 9
      },
      {
        "type": "note_off",
        "note": 36,
        "time": 12775,
        "channel": 9
      },
      {
        "type": "note_off",
        "note": 26,
        "time": 12792,
        "channel": 9
      },
      {
        "type": "note_on",
        "note": 44,
        "velocity": 55,
        "time": 12909,
        "channel": 9
      },
      {
        "type": "note_on",
        "note": 40,
        "velocity": 127,
        "time": 12948,
        "channel": 9
      },
      {
        "type": "note_on",
        "note": 22,
        "velocity": 83,
        "time": 12954,
        "channel": 9
      },
      {
        "type": "note_off",
        "note": 44,
        "time": 12993,
        "channel": 9
      },
      {
        "type": "note_off",
        "note": 40,
        "time": 13033,
        "channel": 9
      },
      {
        "type": "note_off",
        "note": 22,
        "time": 13039,
        "channel": 9
      },
      {
        "type": "note_on",
        "note": 22,
        "velocity": 87,
        "time": 13198,
        "channel": 9
      },
      {
        "type": "note_off",
        "note": 22,
        "time": 13283,
        "channel": 9
      },
      {
        "type": "note_on",
        "note": 38,
        "velocity": 26,
        "time": 13318,
        "channel": 9
      },
      {
        "type": "note_on",
        "note": 38,
        "velocity": 25,
        "time": 13352,
        "channel": 9
      },
      {
        "type": "note_off",
        "note": 38,
        "time": 13352,
        "channel": 9
      },
      {
        "type": "note_on",
        "note": 38,
        "velocity": 22,
        "time": 13396,
        "channel": 9
      },
      {
        "type": "note_off",
        "note": 38,
        "time": 13396,
        "channel": 9
      },
      {
        "type": "note_off",
        "note": 38,
        "time": 13403,
        "channel": 9
      },
      {
        "type": "note_on",
        "note": 36,
        "velocity": 95,
        "time": 13425,
        "channel": 9
      },
      {
        "type": "note_on",
        "note": 42,
        "velocity": 51,
        "time": 13446,
        "channel": 9
      },
      {
        "type": "note_off",
        "note": 36,
        "time": 13510,
        "channel": 9
      },
      {
        "type": "note_off",
        "note": 42,
        "time": 13531,
        "channel": 9
      },
      {
        "type": "note_on",
        "note": 40,
        "velocity": 92,
        "time": 13574,
        "channel": 9
      },
      {
        "type": "note_off",
        "note": 40,
        "time": 13659,
        "channel": 9
      },
      {
        "type": "note_on",
        "note": 42,
        "velocity": 68,
        "time": 13685,
        "channel": 9
      },
      {
        "type": "note_off",
        "note": 42,
        "time": 13771,
        "channel": 9
      },
      {
        "type": "note_on",
        "note": 36,
        "velocity": 67,
        "time": 13817,
        "channel": 9
      },
      {
        "type": "note_off",
        "note": 36,
        "time": 13902,
        "channel": 9
      },
      {
        "type": "note_on",
        "note": 40,
        "velocity": 112,
        "time": 13922,
        "channel": 9
      },
      {
        "type": "note_on",
        "note": 22,
        "velocity": 88,
        "time": 13931,
        "channel": 9
      },
      {
        "type": "note_off",
        "note": 40,
        "time": 14007,
        "channel": 9
      },
      {
        "type": "note_off",
        "note": 22,
        "time": 14016,
        "channel": 9
      },
      {
        "type": "note_on",
        "note": 22,
        "velocity": 81,
        "time": 14176,
        "channel": 9
      },
      {
        "type": "note_off",
        "note": 22,
        "time": 14261,
        "channel": 9
      },
      {
        "type": "note_on",
        "note": 36,
        "velocity": 79,
        "time": 14304,
        "channel": 9
      },
      {
        "type": "note_on",
        "note": 38,
        "velocity": 12,
        "time": 14319,
        "channel": 9
      },
      {
        "type": "note_off",
        "note": 36,
        "time": 14389,
        "channel": 9
      },
      {
        "type": "note_off",
        "note": 38,
        "time": 14404,
        "channel": 9
      },
      {
        "type": "note_on",
        "note": 22,
        "velocity": 66,
        "time": 14424,
        "channel": 9
      },
      {
        "type": "note_off",
        "note": 22,
        "time": 14509,
        "channel": 9
      },
      {
        "type": "note_on",
        "note": 37,
        "velocity": 77,
        "time": 14557,
        "channel": 9
      },
      {
        "type": "note_on",
        "note": 37,
        "velocity": 32,
        "time": 14598,
        "channel": 9
      },
      {
        "type": "note_off",
        "note": 37,
        "time": 14598,
        "channel": 9
      },
      {
        "type": "note_on",
        "note": 44,
        "velocity": 42,
        "time": 14638,
        "channel": 9
      },
      {
        "type": "note_off",
        "note": 37,
        "time": 14642,
        "channel": 9
      },
      {
        "type": "note_on",
        "note": 38,
        "velocity": 122,
        "time": 14658,
        "channel": 9
      },
      {
        "type": "note_off",
        "note": 44,
        "time": 14722,
        "channel": 9
      },
      {
        "type": "note_off",
        "note": 38,
        "time": 14742,
        "channel": 9
      },
      {
        "type": "note_on",
        "note": 38,
        "velocity": 126,
        "time": 14891,
        "channel": 9
      },
      {
        "type": "note_off",
        "note": 38,
        "time": 14975,
        "channel": 9
      },
      {
        "type": "note_on",
        "note": 38,
        "velocity": 109,
        "time": 15034,
        "channel": 9
      },
      {
        "type": "note_off",
        "note": 38,
        "time": 15119,
        "channel": 9
      },
      {
        "type": "note_on",
        "note": 38,
        "velocity": 111,
        "time": 15141,
        "channel": 9
      },
      {
        "type": "note_off",
        "note": 38,
        "time": 15226,
        "channel": 9
      },
      {
        "type": "note_on",
        "note": 38,
        "velocity": 35,
        "time": 15259,
        "channel": 9
      },
      {
        "type": "note_on",
        "note": 38,
        "velocity": 31,
        "time": 15299,
        "channel": 9
      },
      {
        "type": "note_off",
        "note": 38,
        "time": 15299,
        "channel": 9
      },
      {
        "type": "note_on",
        "note": 38,
        "velocity": 30,
        "time": 15323,
        "channel": 9
      },
      {
        "type": "note_off",
        "note": 38,
        "time": 15323,
        "channel": 9
      },
      {
        "type": "note_off",
        "note": 38,
        "time": 15343,
        "channel": 9
      },
      {
        "type": "note_on",
        "note": 38,
        "velocity": 24,
        "time": 15346,
        "channel": 9
      },
      {
        "type": "note_on",
        "note": 36,
        "velocity": 127,
        "time": 15375,
        "channel": 9
      },
      {
        "type": "note_on",
        "note": 52,
        "velocity": 90,
        "time": 15380,
        "channel": 9
      },
      {
        "type": "note_off",
        "note": 38,
        "time": 15384,
        "channel": 9
      },
      {
        "type": "note_off",
        "note": 36,
        "time": 15459,
        "channel": 9
      },
      {
        "type": "note_off",
        "note": 52,
        "time": 15465,
        "channel": 9
      },
      {
        "type": "note_on",
        "note": 38,
        "velocity": 23,
        "time": 15501,
        "channel": 9
      },
      {
        "type": "note_on",
        "note": 38,
        "velocity": 13,
        "time": 15545,
        "channel": 9
      },
      {
        "type": "note_off",
        "note": 38,
        "time": 15545,
        "channel": 9
      },
      {
        "type": "note_off",
        "note": 38,
        "time": 15586,
        "channel": 9
      },
      {
        "type": "note_on",
        "note": 22,
        "velocity": 71,
        "time": 15600,
        "channel": 9
      },
      {
        "type": "note_off",
        "note": 22,
        "time": 15686,
        "channel": 9
      },
      {
        "type": "note_on",
        "note": 36,
        "velocity": 59,
        "time": 15749,
        "channel": 9
      },
      {
        "type": "note_off",
        "note": 36,
        "time": 15834,
        "channel": 9
      },
      {
        "type": "note_on",
        "note": 42,
        "velocity": 63,
        "time": 15835,
        "channel": 9
      },
      {
        "type": "note_on",
        "note": 40,
        "velocity": 101,
        "time": 15840,
        "channel": 9
      },
      {
        "type": "note_off",
        "note": 42,
        "time": 15920,
        "channel": 9
      },
      {
        "type": "note_off",
        "note": 40,
        "time": 15924,
        "channel": 9
      },
      {
        "type": "note_on",
        "note": 42,
        "velocity": 77,
        "time": 16078,
        "channel": 9
      },
      {
        "type": "note_off",
        "note": 42,
        "time": 16163,
        "channel": 9
      },
      {
        "type": "note_on",
        "note": 38,
        "velocity": 19,
        "time": 16200,
        "channel": 9
      },
      {
        "type": "note_on",
        "note": 36,
        "velocity": 69,
        "time": 16204,
        "channel": 9
      },
      {
        "type": "note_off",
        "note": 38,
        "time": 16285,
        "channel": 9
      },
      {
        "type": "note_off",
        "note": 36,
        "time": 16289,
        "channel": 9
      },
      {
        "type": "note_on",
        "note": 42,
        "velocity": 53,
        "time": 16310,
        "channel": 9
      },
      {
        "type": "note_off",
        "note": 42,
        "time": 16395,
        "channel": 9
      },
      {
        "type": "note_on",
        "note": 36,
        "velocity": 46,
        "time": 16432,
        "channel": 9
      },
      {
        "type": "note_off",
        "note": 36,
        "time": 16516,
        "channel": 9
      },
      {
        "type": "note_on",
        "note": 36,
        "velocity": 61,
        "time": 16525,
        "channel": 9
      },
      {
        "type": "note_on",
        "note": 26,
        "velocity": 92,
        "time": 16531,
        "channel": 9
      },
      {
        "type": "note_off",
        "note": 36,
        "time": 16610,
        "channel": 9
      },
      {
        "type": "note_off",
        "note": 26,
        "time": 16616,
        "channel": 9
      },
      {
        "type": "note_on",
        "note": 44,
        "velocity": 62,
        "time": 16745,
        "channel": 9
      },
      {
        "type": "note_on",
        "note": 40,
        "velocity": 108,
        "time": 16778,
        "channel": 9
      },
      {
        "type": "note_on",
        "note": 22,
        "velocity": 68,
        "time": 16786,
        "channel": 9
      },
      {
        "type": "note_off",
        "note": 44,
        "time": 16830,
        "channel": 9
      },
      {
        "type": "note_off",
        "note": 40,
        "time": 16863,
        "channel": 9
      },
      {
        "type": "note_off",
        "note": 22,
        "time": 16872,
        "channel": 9
      },
      {
        "type": "note_on",
        "note": 22,
        "velocity": 84,
        "time": 17028,
        "channel": 9
      },
      {
        "type": "note_off",
        "note": 22,
        "time": 17113,
        "channel": 9
      },
      {
        "type": "note_on",
        "note": 38,
        "velocity": 33,
        "time": 17141,
        "channel": 9
      },
      {
        "type": "note_on",
        "note": 38,
        "velocity": 33,
        "time": 17207,
        "channel": 9
      },
      {
        "type": "note_off",
        "note": 38,
        "time": 17207,
        "channel": 9
      },
      {
        "type": "note_off",
        "note": 38,
        "time": 17226,
        "channel": 9
      },
      {
        "type": "note_on",
        "note": 36,
        "velocity": 77,
        "time": 17248,
        "channel": 9
      },
      {
        "type": "note_on",
        "note": 42,
        "velocity": 48,
        "time": 17262,
        "channel": 9
      },
      {
        "type": "note_off",
        "note": 36,
        "time": 17333,
        "channel": 9
      },
      {
        "type": "note_off",
        "note": 42,
        "time": 17347,
        "channel": 9
      },
      {
        "type": "note_on",
        "note": 22,
        "velocity": 103,
        "time": 17494,
        "channel": 9
      },
      {
        "type": "note_off",
        "note": 22,
        "time": 17580,
        "channel": 9
      },
      {
        "type": "note_on",
        "note": 36,
        "velocity": 70,
        "time": 17649,
        "channel": 9
      },
      {
        "type": "note_off",
        "note": 36,
        "time": 17734,
        "channel": 9
      },
      {
        "type": "note_on",
        "note": 40,
        "velocity": 127,
        "time": 17744,
        "channel": 9
      },
      {
        "type": "note_on",
        "note": 22,
        "velocity": 86,
        "time": 17752,
        "channel": 9
      },
      {
        "type": "note_off",
        "note": 40,
        "time": 17829,
        "channel": 9
      },
      {
        "type": "note_off",
        "note": 22,
        "time": 17837,
        "channel": 9
      },
      {
        "type": "note_on",
        "note": 22,
        "velocity": 67,
        "time": 17998,
        "channel": 9
      },
      {
        "type": "note_off",
        "note": 22,
        "time": 18084,
        "channel": 9
      },
      {
        "type": "note_on",
        "note": 36,
        "velocity": 66,
        "time": 18125,
        "channel": 9
      },
      {
        "type": "note_off",
        "note": 36,
        "time": 18210,
        "channel": 9
      },
      {
        "type": "note_on",
        "note": 42,
        "velocity": 60,
        "time": 18240,
        "channel": 9
      },
      {
        "type": "note_off",
        "note": 42,
        "time": 18326,
        "channel": 9
      },
      {
        "type": "note_on",
        "note": 36,
        "velocity": 47,
        "time": 18379,
        "channel": 9
      },
      {
        "type": "note_on",
        "note": 36,
        "velocity": 57,
        "time": 18460,
        "channel": 9
      },
      {
        "type": "note_off",
        "note": 36,
        "time": 18460,
        "channel": 9
      },
      {
        "type": "note_off",
        "note": 36,
        "time": 18464,
        "channel": 9
      },
      {
        "type": "note_on",
        "note": 26,
        "velocity": 79,
        "time": 18469,
        "channel": 9
      },
      {
        "type": "note_off",
        "note": 26,
        "time": 18553,
        "channel": 9
      },
      {
        "type": "note_on",
        "note": 44,
        "velocity": 62,
        "time": 18692,
        "channel": 9
      },
      {
        "type": "note_on",
        "note": 40,
        "velocity": 127,
        "time": 18719,
        "channel": 9
      },
      {
        "type": "note_on",
        "note": 22,
        "velocity": 89,
        "time": 18727,
        "channel": 9
      },
      {
        "type": "note_off",
        "note": 44,
        "time": 18777,
        "channel": 9
      },
      {
        "type": "note_off",
        "note": 40,
        "time": 18804,
        "channel": 9
      },
      {
        "type": "note_off",
        "note": 22,
        "time": 18812,
        "channel": 9
      },
      {
        "type": "note_on",
        "note": 22,
        "velocity": 75,
        "time": 18965,
        "channel": 9
      },
      {
        "type": "note_off",
        "note": 22,
        "time": 19050,
        "channel": 9
      },
      {
        "type": "note_on",
        "note": 36,
        "velocity": 27,
        "time": 19083,
        "channel": 9
      },
      {
        "type": "note_off",
        "note": 36,
        "time": 19168,
        "channel": 9
      },
      {
        "type": "note_on",
        "note": 36,
        "velocity": 50,
        "time": 19171,
        "channel": 9
      },
      {
        "type": "note_on",
        "note": 22,
        "velocity": 91,
        "time": 19195,
        "channel": 9
      },
      {
        "type": "note_off",
        "note": 36,
        "time": 19256,
        "channel": 9
      },
      {
        "type": "note_off",
        "note": 22,
        "time": 19280,
        "channel": 9
      },
      {
        "type": "note_on",
        "note": 38,
        "velocity": 38,
        "time": 19337,
        "channel": 9
      },
      {
        "type": "note_off",
        "note": 38,
        "time": 19421,
        "channel": 9
      },
      {
        "type": "note_on",
        "note": 22,
        "velocity": 97,
        "time": 19448,
        "channel": 9
      },
      {
        "type": "note_off",
        "note": 22,
        "time": 19533,
        "channel": 9
      },
      {
        "type": "note_on",
        "note": 36,
        "velocity": 108,
        "time": 19570,
        "channel": 9
      },
      {
        "type": "note_off",
        "note": 36,
        "time": 19656,
        "channel": 9
      },
      {
        "type": "note_on",
        "note": 40,
        "velocity": 103,
        "time": 19677,
        "channel": 9
      },
      {
        "type": "note_on",
        "note": 22,
        "velocity": 98,
        "time": 19686,
        "channel": 9
      },
      {
        "type": "note_off",
        "note": 40,
        "time": 19761,
        "channel": 9
      },
      {
        "type": "note_off",
        "note": 22,
        "time": 19771,
        "channel": 9
      },
      {
        "type": "note_on",
        "note": 22,
        "velocity": 81,
        "time": 19920,
        "channel": 9
      },
      {
        "type": "note_off",
        "note": 22,
        "time": 20006,
        "channel": 9
      },
      {
        "type": "note_on",
        "note": 36,
        "velocity": 59,
        "time": 20042,
        "channel": 9
      },
      {
        "type": "note_off",
        "note": 36,
        "time": 20128,
        "channel": 9
      },
      {
        "type": "note_on",
        "note": 42,
        "velocity": 55,
        "time": 20165,
        "channel": 9
      },
      {
        "type": "note_off",
        "note": 42,
        "time": 20250,
        "channel": 9
      },
      {
        "type": "note_on",
        "note": 36,
        "velocity": 47,
        "time": 20293,
        "channel": 9
      },
      {
        "type": "note_off",
        "note": 36,
        "time": 20378,
        "channel": 9
      },
      {
        "type": "note_on",
        "note": 26,
        "velocity": 105,
        "time": 20397,
        "channel": 9
      },
      {
        "type": "note_on",
        "note": 36,
        "velocity": 107,
        "time": 20403,
        "channel": 9
      },
      {
        "type": "note_off",
        "note": 26,
        "time": 20482,
        "channel": 9
      },
      {
        "type": "note_off",
        "note": 36,
        "time": 20487,
        "channel": 9
      },
      {
        "type": "note_on",
        "note": 44,
        "velocity": 52,
        "time": 20611,
        "channel": 9
      },
      {
        "type": "note_on",
        "note": 40,
        "velocity": 127,
        "time": 20646,
        "channel": 9
      },
      {
        "type": "note_on",
        "note": 22,
        "velocity": 98,
        "time": 20658,
        "channel": 9
      },
      {
        "type": "note_on",
        "note": 38,
        "velocity": 101,
        "time": 20666,
        "channel": 9
      },
      {
        "type": "note_off",
        "note": 44,
        "time": 20695,
        "channel": 9
      },
      {
        "type": "note_off",
        "note": 40,
        "time": 20731,
        "channel": 9
      },
      {
        "type": "note_off",
        "note": 22,
        "time": 20743,
        "channel": 9
      },
      {
        "type": "note_off",
        "note": 38,
        "time": 20751,
        "channel": 9
      },
      {
        "type": "note_on",
        "note": 22,
        "velocity": 87,
        "time": 20886,
        "channel": 9
      },
      {
        "type": "note_off",
        "note": 22,
        "time": 20972,
        "channel": 9
      },
      {
        "type": "note_on",
        "note": 38,
        "velocity": 16,
        "time": 21028,
        "channel": 9
      },
      {
        "type": "note_on",
        "note": 38,
        "velocity": 11,
        "time": 21073,
        "channel": 9
      },
      {
        "type": "note_off",
        "note": 38,
        "time": 21073,
        "channel": 9
      },
      {
        "type": "note_off",
        "note": 38,
        "time": 21113,
        "channel": 9
      },
      {
        "type": "note_on",
        "note": 36,
        "velocity": 80,
        "time": 21115,
        "channel": 9
      },
      {
        "type": "note_on",
        "note": 42,
        "velocity": 52,
        "time": 21128,
        "channel": 9
      },
      {
        "type": "note_off",
        "note": 36,
        "time": 21199,
        "channel": 9
      },
      {
        "type": "note_off",
        "note": 42,
        "time": 21213,
        "channel": 9
      },
      {
        "type": "note_on",
        "note": 37,
        "velocity": 89,
        "time": 21268,
        "channel": 9
      },
      {
        "type": "note_off",
        "note": 37,
        "time": 21352,
        "channel": 9
      },
      {
        "type": "note_on",
        "note": 42,
        "velocity": 63,
        "time": 21369,
        "channel": 9
      },
      {
        "type": "note_off",
        "note": 42,
        "time": 21454,
        "channel": 9
      },
      {
        "type": "note_on",
        "note": 36,
        "velocity": 64,
        "time": 21519,
        "channel": 9
      },
      {
        "type": "note_off",
        "note": 36,
        "time": 21604,
        "channel": 9
      },
      {
        "type": "note_on",
        "note": 40,
        "velocity": 101,
        "time": 21609,
        "channel": 9
      },
      {
        "type": "note_on",
        "note": 42,
        "velocity": 77,
        "time": 21617,
        "channel": 9
      },
      {
        "type": "note_off",
        "note": 40,
        "time": 21694,
        "channel": 9
      },
      {
        "type": "note_off",
        "note": 42,
        "time": 21703,
        "channel": 9
      },
      {
        "type": "note_on",
        "note": 38,
        "velocity": 26,
        "time": 21763,
        "channel": 9
      },
      {
        "type": "note_on",
        "note": 22,
        "velocity": 86,
        "time": 21841,
        "channel": 9
      },
      {
        "type": "note_off",
        "note": 38,
        "time": 21848,
        "channel": 9
      },
      {
        "type": "note_off",
        "note": 22,
        "time": 21926,
        "channel": 9
      },
      {
        "type": "note_on",
        "note": 36,
        "velocity": 64,
        "time": 21977,
        "channel": 9
      },
      {
        "type": "note_off",
        "note": 36,
        "time": 22061,
        "channel": 9
      },
      {
        "type": "note_on",
        "note": 42,
        "velocity": 51,
        "time": 22086,
        "channel": 9
      },
      {
        "type": "note_off",
        "note": 42,
        "time": 22171,
        "channel": 9
      },
      {
        "type": "note_on",
        "note": 36,
        "velocity": 49,
        "time": 22215,
        "channel": 9
      },
      {
        "type": "note_off",
        "note": 36,
        "time": 22300,
        "channel": 9
      },
      {
        "type": "note_on",
        "note": 26,
        "velocity": 108,
        "time": 22308,
        "channel": 9
      },
      {
        "type": "note_on",
        "note": 36,
        "velocity": 66,
        "time": 22310,
        "channel": 9
      },
      {
        "type": "note_off",
        "note": 26,
        "time": 22392,
        "channel": 9
      },
      {
        "type": "note_off",
        "note": 36,
        "time": 22394,
        "channel": 9
      },
      {
        "type": "note_on",
        "note": 44,
        "velocity": 57,
        "time": 22523,
        "channel": 9
      },
      {
        "type": "note_on",
        "note": 40,
        "velocity": 127,
        "time": 22555,
        "channel": 9
      },
      {
        "type": "note_on",
        "note": 22,
        "velocity": 68,
        "time": 22562,
        "channel": 9
      },
      {
        "type": "note_off",
        "note": 44,
        "time": 22608,
        "channel": 9
      },
      {
        "type": "note_off",
        "note": 40,
        "time": 22640,
        "channel": 9
      },
      {
        "type": "note_off",
        "note": 22,
        "time": 22647,
        "channel": 9
      },
      {
        "type": "note_on",
        "note": 38,
        "velocity": 6,
        "time": 22696,
        "channel": 9
      },
      {
        "type": "note_on",
        "note": 38,
        "velocity": 5,
        "time": 22728,
        "channel": 9
      },
      {
        "type": "note_off",
        "note": 38,
        "time": 22728,
        "channel": 9
      },
      {
        "type": "note_off",
        "note": 38,
        "time": 22781,
        "channel": 9
      },
      {
        "type": "note_on",
        "note": 22,
        "velocity": 75,
        "time": 22800,
        "channel": 9
      },
      {
        "type": "note_off",
        "note": 22,
        "time": 22885,
        "channel": 9
      },
      {
        "type": "note_on",
        "note": 38,
        "velocity": 37,
        "time": 22922,
        "channel": 9
      },
      {
        "type": "note_on",
        "note": 38,
        "velocity": 41,
        "time": 22980,
        "channel": 9
      },
      {
        "type": "note_off",
        "note": 38,
        "time": 22980,
        "channel": 9
      },
      {
        "type": "note_off",
        "note": 38,
        "time": 23006,
        "channel": 9
      },
      {
        "type": "note_on",
        "note": 38,
        "velocity": 28,
        "time": 23012,
        "channel": 9
      },
      {
        "type": "note_on",
        "note": 36,
        "velocity": 120,
        "time": 23034,
        "channel": 9
      },
      {
        "type": "note_on",
        "note": 42,
        "velocity": 55,
        "time": 23049,
        "channel": 9
      },
      {
        "type": "note_off",
        "note": 38,
        "time": 23065,
        "channel": 9
      },
      {
        "type": "note_off",
        "note": 36,
        "time": 23118,
        "channel": 9
      },
      {
        "type": "note_off",
        "note": 42,
        "time": 23134,
        "channel": 9
      },
      {
        "type": "note_on",
        "note": 38,
        "velocity": 32,
        "time": 23165,
        "channel": 9
      },
      {
        "type": "note_off",
        "note": 38,
        "time": 23250,
        "channel": 9
      },
      {
        "type": "note_on",
        "note": 22,
        "velocity": 87,
        "time": 23275,
        "channel": 9
      },
      {
        "type": "note_off",
        "note": 22,
        "time": 23361,
        "channel": 9
      },
      {
        "type": "note_on",
        "note": 36,
        "velocity": 66,
        "time": 23404,
        "channel": 9
      },
      {
        "type": "note_off",
        "note": 36,
        "time": 23489,
        "channel": 9
      },
      {
        "type": "note_on",
        "note": 42,
        "velocity": 78,
        "time": 23507,
        "channel": 9
      },
      {
        "type": "note_on",
        "note": 40,
        "velocity": 102,
        "time": 23510,
        "channel": 9
      },
      {
        "type": "note_off",
        "note": 42,
        "time": 23593,
        "channel": 9
      },
      {
        "type": "note_off",
        "note": 40,
        "time": 23595,
        "channel": 9
      },
      {
        "type": "note_on",
        "note": 42,
        "velocity": 81,
        "time": 23743,
        "channel": 9
      },
      {
        "type": "note_off",
        "note": 42,
        "time": 23828,
        "channel": 9
      },
      {
        "type": "note_on",
        "note": 36,
        "velocity": 62,
        "time": 23866,
        "channel": 9
      },
      {
        "type": "note_off",
        "note": 36,
        "time": 23951,
        "channel": 9
      },
      {
        "type": "note_on",
        "note": 42,
        "velocity": 63,
        "time": 23982,
        "channel": 9
      },
      {
        "type": "note_off",
        "note": 42,
        "time": 24067,
        "channel": 9
      },
      {
        "type": "note_on",
        "note": 36,
        "velocity": 43,
        "time": 24115,
        "channel": 9
      },
      {
        "type": "note_on",
        "note": 36,
        "velocity": 60,
        "time": 24200,
        "channel": 9
      },
      {
        "type": "note_off",
        "note": 36,
        "time": 24200,
        "channel": 9
      },
      {
        "type": "note_off",
        "note": 36,
        "time": 24200,
        "channel": 9
      },
      {
        "type": "note_on",
        "note": 26,
        "velocity": 112,
        "time": 24205,
        "channel": 9
      },
      {
        "type": "note_off",
        "note": 26,
        "time": 24290,
        "channel": 9
      },
      {
        "type": "note_on",
        "note": 44,
        "velocity": 52,
        "time": 24428,
        "channel": 9
      },
      {
        "type": "note_on",
        "note": 38,
        "velocity": 127,
        "time": 24459,
        "channel": 9
      },
      {
        "type": "note_on",
        "note": 42,
        "velocity": 75,
        "time": 24462,
        "channel": 9
      },
      {
        "type": "note_off",
        "note": 44,
        "time": 24513,
        "channel": 9
      },
      {
        "type": "note_off",
        "note": 38,
        "time": 24543,
        "channel": 9
      },
      {
        "type": "note_off",
        "note": 42,
        "time": 24548,
        "channel": 9
      },
      {
        "type": "note_on",
        "note": 22,
        "velocity": 83,
        "time": 24714,
        "channel": 9
      },
      {
        "type": "note_off",
        "note": 22,
        "time": 24799,
        "channel": 9
      },
      {
        "type": "note_on",
        "note": 38,
        "velocity": 28,
        "time": 24849,
        "channel": 9
      },
      {
        "type": "note_on",
        "note": 36,
        "velocity": 67,
        "time": 24932,
        "channel": 9
      },
      {
        "type": "note_off",
        "note": 38,
        "time": 24934,
        "channel": 9
      },
      {
        "type": "note_on",
        "note": 42,
        "velocity": 53,
        "time": 24950,
        "channel": 9
      },
      {
        "type": "note_off",
        "note": 36,
        "time": 25017,
        "channel": 9
      },
      {
        "type": "note_off",
        "note": 42,
        "time": 25035,
        "channel": 9
      },
      {
        "type": "note_on",
        "note": 38,
        "velocity": 23,
        "time": 25058,
        "channel": 9
      },
      {
        "type": "note_off",
        "note": 38,
        "time": 25143,
        "channel": 9
      },
      {
        "type": "note_on",
        "note": 42,
        "velocity": 77,
        "time": 25170,
        "channel": 9
      },
      {
        "type": "note_off",
        "note": 42,
        "time": 25255,
        "channel": 9
      },
      {
        "type": "note_on",
        "note": 36,
        "velocity": 65,
        "time": 25323,
        "channel": 9
      },
      {
        "type": "note_on",
        "note": 40,
        "velocity": 127,
        "time": 25401,
        "channel": 9
      },
      {
        "type": "note_off",
        "note": 36,
        "time": 25407,
        "channel": 9
      },
      {
        "type": "note_on",
        "note": 22,
        "velocity": 76,
        "time": 25412,
        "channel": 9
      },
      {
        "type": "note_off",
        "note": 40,
        "time": 25486,
        "channel": 9
      },
      {
        "type": "note_off",
        "note": 22,
        "time": 25497,
        "channel": 9
      },
      {
        "type": "note_on",
        "note": 22,
        "velocity": 76,
        "time": 25651,
        "channel": 9
      },
      {
        "type": "note_off",
        "note": 22,
        "time": 25736,
        "channel": 9
      },
      {
        "type": "note_on",
        "note": 36,
        "velocity": 62,
        "time": 25762,
        "channel": 9
      },
      {
        "type": "note_off",
        "note": 36,
        "time": 25847,
        "channel": 9
      },
      {
        "type": "note_on",
        "note": 42,
        "velocity": 52,
        "time": 25897,
        "channel": 9
      },
      {
        "type": "note_off",
        "note": 42,
        "time": 25982,
        "channel": 9
      },
      {
        "type": "note_on",
        "note": 36,
        "velocity": 42,
        "time": 26027,
        "channel": 9
      },
      {
        "type": "note_off",
        "note": 36,
        "time": 26112,
        "channel": 9
      },
      {
        "type": "note_on",
        "note": 26,
        "velocity": 107,
        "time": 26119,
        "channel": 9
      },
      {
        "type": "note_on",
        "note": 36,
        "velocity": 69,
        "time": 26127,
        "channel": 9
      },
      {
        "type": "note_off",
        "note": 26,
        "time": 26204,
        "channel": 9
      },
      {
        "type": "note_off",
        "note": 36,
        "time": 26212,
        "channel": 9
      },
      {
        "type": "note_on",
        "note": 44,
        "velocity": 45,
        "time": 26341,
        "channel": 9
      },
      {
        "type": "note_on",
        "note": 40,
        "velocity": 127,
        "time": 26374,
        "channel": 9
      },
      {
        "type": "note_on",
        "note": 22,
        "velocity": 102,
        "time": 26389,
        "channel": 9
      },
      {
        "type": "note_off",
        "note": 44,
        "time": 26426,
        "channel": 9
      },
      {
        "type": "note_off",
        "note": 40,
        "time": 26459,
        "channel": 9
      },
      {
        "type": "note_off",
        "note": 22,
        "time": 26474,
        "channel": 9
      },
      {
        "type": "note_on",
        "note": 22,
        "velocity": 73,
        "time": 26623,
        "channel": 9
      },
      {
        "type": "note_off",
        "note": 22,
        "time": 26708,
        "channel": 9
      },
      {
        "type": "note_on",
        "note": 36,
        "velocity": 44,
        "time": 26743,
        "channel": 9
      },
      {
        "type": "note_off",
        "note": 36,
        "time": 26827,
        "channel": 9
      },
      {
        "type": "note_on",
        "note": 36,
        "velocity": 61,
        "time": 26855,
        "channel": 9
      },
      {
        "type": "note_on",
        "note": 42,
        "velocity": 59,
        "time": 26866,
        "channel": 9
      },
      {
        "type": "note_off",
        "note": 36,
        "time": 26939,
        "channel": 9
      },
      {
        "type": "note_off",
        "note": 42,
        "time": 26951,
        "channel": 9
      },
      {
        "type": "note_on",
        "note": 38,
        "velocity": 37,
        "time": 27001,
        "channel": 9
      },
      {
        "type": "note_off",
        "note": 38,
        "time": 27086,
        "channel": 9
      },
      {
        "type": "note_on",
        "note": 22,
        "velocity": 83,
        "time": 27105,
        "channel": 9
      },
      {
        "type": "note_off",
        "note": 22,
        "time": 27190,
        "channel": 9
      },
      {
        "type": "note_on",
        "note": 36,
        "velocity": 62,
        "time": 27254,
        "channel": 9
      },
      {
        "type": "note_off",
        "note": 36,
        "time": 27338,
        "channel": 9
      },
      {
        "type": "note_on",
        "note": 40,
        "velocity": 121,
        "time": 27340,
        "channel": 9
      },
      {
        "type": "note_on",
        "note": 22,
        "velocity": 91,
        "time": 27352,
        "channel": 9
      },
      {
        "type": "note_off",
        "note": 40,
        "time": 27425,
        "channel": 9
      },
      {
        "type": "note_off",
        "note": 22,
        "time": 27436,
        "channel": 9
      },
      {
        "type": "note_on",
        "note": 22,
        "velocity": 105,
        "time": 27591,
        "channel": 9
      },
      {
        "type": "note_off",
        "note": 22,
        "time": 27676,
        "channel": 9
      },
      {
        "type": "note_on",
        "note": 36,
        "velocity": 63,
        "time": 27722,
        "channel": 9
      },
      {
        "type": "note_off",
        "note": 36,
        "time": 27807,
        "channel": 9
      },
      {
        "type": "note_on",
        "note": 42,
        "velocity": 62,
        "time": 27843,
        "channel": 9
      },
      {
        "type": "note_off",
        "note": 42,
        "time": 27929,
        "channel": 9
      },
      {
        "type": "note_on",
        "note": 36,
        "velocity": 46,
        "time": 27989,
        "channel": 9
      },
      {
        "type": "note_on",
        "note": 26,
        "velocity": 107,
        "time": 28069,
        "channel": 9
      },
      {
        "type": "note_off",
        "note": 36,
        "time": 28074,
        "channel": 9
      },
      {
        "type": "note_on",
        "note": 36,
        "velocity": 58,
        "time": 28076,
        "channel": 9
      },
      {
        "type": "note_off",
        "note": 26,
        "time": 28154,
        "channel": 9
      },
      {
        "type": "note_off",
        "note": 36,
        "time": 28160,
        "channel": 9
      },
      {
        "type": "note_on",
        "note": 44,
        "velocity": 45,
        "time": 28288,
        "channel": 9
      },
      {
        "type": "note_on",
        "note": 40,
        "velocity": 127,
        "time": 28322,
        "channel": 9
      },
      {
        "type": "note_on",
        "note": 22,
        "velocity": 89,
        "time": 28331,
        "channel": 9
      },
      {
        "type": "note_off",
        "note": 44,
        "time": 28373,
        "channel": 9
      },
      {
        "type": "note_off",
        "note": 40,
        "time": 28407,
        "channel": 9
      },
      {
        "type": "note_off",
        "note": 22,
        "time": 28416,
        "channel": 9
      },
      {
        "type": "note_on",
        "note": 22,
        "velocity": 78,
        "time": 28565,
        "channel": 9
      },
      {
        "type": "note_off",
        "note": 22,
        "time": 28650,
        "channel": 9
      },
      {
        "type": "note_on",
        "note": 38,
        "velocity": 25,
        "time": 28692,
        "channel": 9
      },
      {
        "type": "note_on",
        "note": 38,
        "velocity": 15,
        "time": 28740,
        "channel": 9
      },
      {
        "type": "note_off",
        "note": 38,
        "time": 28740,
        "channel": 9
      },
      {
        "type": "note_on",
        "note": 38,
        "velocity": 18,
        "time": 28768,
        "channel": 9
      },
      {
        "type": "note_off",
        "note": 38,
        "time": 28768,
        "channel": 9
      },
      {
        "type": "note_off",
        "note": 38,
        "time": 28776,
        "channel": 9
      },
      {
        "type": "note_on",
        "note": 36,
        "velocity": 103,
        "time": 28802,
        "channel": 9
      },
      {
        "type": "note_on",
        "note": 42,
        "velocity": 52,
        "time": 28818,
        "channel": 9
      },
      {
        "type": "note_off",
        "note": 36,
        "time": 28887,
        "channel": 9
      },
      {
        "type": "note_off",
        "note": 42,
        "time": 28903,
        "channel": 9
      },
      {
        "type": "note_on",
        "note": 38,
        "velocity": 30,
        "time": 28954,
        "channel": 9
      },
      {
        "type": "note_off",
        "note": 38,
        "time": 29039,
        "channel": 9
      },
      {
        "type": "note_on",
        "note": 42,
        "velocity": 64,
        "time": 29048,
        "channel": 9
      },
      {
        "type": "note_off",
        "note": 42,
        "time": 29133,
        "channel": 9
      },
      {
        "type": "note_on",
        "note": 36,
        "velocity": 73,
        "time": 29176,
        "channel": 9
      },
      {
        "type": "note_off",
        "note": 36,
        "time": 29261,
        "channel": 9
      },
      {
        "type": "note_on",
        "note": 40,
        "velocity": 101,
        "time": 29279,
        "channel": 9
      },
      {
        "type": "note_on",
        "note": 42,
        "velocity": 74,
        "time": 29283,
        "channel": 9
      },
      {
        "type": "note_off",
        "note": 40,
        "time": 29364,
        "channel": 9
      },
      {
        "type": "note_off",
        "note": 42,
        "time": 29368,
        "channel": 9
      },
      {
        "type": "note_on",
        "note": 42,
        "velocity": 74,
        "time": 29514,
        "channel": 9
      },
      {
        "type": "note_off",
        "note": 42,
        "time": 29599,
        "channel": 9
      },
      {
        "type": "note_on",
        "note": 36,
        "velocity": 58,
        "time": 29627,
        "channel": 9
      },
      {
        "type": "note_off",
        "note": 36,
        "time": 29712,
        "channel": 9
      },
      {
        "type": "note_on",
        "note": 42,
        "velocity": 57,
        "time": 29741,
        "channel": 9
      },
      {
        "type": "note_off",
        "note": 42,
        "time": 29826,
        "channel": 9
      },
      {
        "type": "note_on",
        "note": 36,
        "velocity": 30,
        "time": 29890,
        "channel": 9
      },
      {
        "type": "note_on",
        "note": 36,
        "velocity": 57,
        "time": 29963,
        "channel": 9
      },
      {
        "type": "note_off",
        "note": 36,
        "time": 29963,
        "channel": 9
      },
      {
        "type": "note_off",
        "note": 36,
        "time": 29974,
        "channel": 9
      },
      {
        "type": "note_on",
        "note": 26,
        "velocity": 84,
        "time": 29981,
        "channel": 9
      },
      {
        "type": "note_off",
        "note": 26,
        "time": 30066,
        "channel": 9
      },
      {
        "type": "note_on",
        "note": 44,
        "velocity": 70,
        "time": 30204,
        "channel": 9
      },
      {
        "type": "note_on",
        "note": 40,
        "velocity": 127,
        "time": 30225,
        "channel": 9
      },
      {
        "type": "note_off",
        "note": 44,
        "time": 30289,
        "channel": 9
      },
      {
        "type": "note_off",
        "note": 40,
        "time": 30310,
        "channel": 9
      },
      {
        "type": "note_on",
        "note": 36,
        "velocity": 59,
        "time": 30450,
        "channel": 9
      },
      {
        "type": "note_off",
        "note": 36,
        "time": 30535,
        "channel": 9
      }
    ]
  },
  {
    "file": "data\\groove\\drummer1\\eval_session\\3_soul-groove3_86_beat_4-4.mid",
    "num_events": 915,
    "duration": 30765,
    "events": [
      {
        "type": "set_tempo",
        "tempo": 697674,
        "time": 0
      },
      {
        "type": "note_on",
        "note": 42,
        "velocity": 32,
        "time": 0,
        "channel": 9
      },
      {
        "type": "note_on",
        "note": 36,
        "velocity": 60,
        "time": 0,
        "channel": 9
      },
      {
        "type": "note_on",
        "note": 38,
        "velocity": 15,
        "time": 1,
        "channel": 9
      },
      {
        "type": "note_off",
        "note": 38,
        "time": 11,
        "channel": 9
      },
      {
        "type": "note_off",
        "note": 42,
        "time": 68,
        "channel": 9
      },
      {
        "type": "note_off",
        "note": 36,
        "time": 70,
        "channel": 9
      },
      {
        "type": "note_on",
        "note": 42,
        "velocity": 18,
        "time": 120,
        "channel": 9
      },
      {
        "type": "note_off",
        "note": 42,
        "time": 190,
        "channel": 9
      },
      {
        "type": "note_on",
        "note": 22,
        "velocity": 60,
        "time": 243,
        "channel": 9
      },
      {
        "type": "note_off",
        "note": 22,
        "time": 312,
        "channel": 9
      },
      {
        "type": "note_on",
        "note": 42,
        "velocity": 24,
        "time": 363,
        "channel": 9
      },
      {
        "type": "note_on",
        "note": 36,
        "velocity": 52,
        "time": 364,
        "channel": 9
      },
      {
        "type": "note_off",
        "note": 36,
        "time": 433,
        "channel": 9
      },
      {
        "type": "note_off",
        "note": 42,
        "time": 433,
        "channel": 9
      },
      {
        "type": "note_on",
        "note": 40,
        "velocity": 102,
        "time": 489,
        "channel": 9
      },
      {
        "type": "note_on",
        "note": 42,
        "velocity": 46,
        "time": 489,
        "channel": 9
      },
      {
        "type": "note_off",
        "note": 40,
        "time": 559,
        "channel": 9
      },
      {
        "type": "note_off",
        "note": 42,
        "time": 559,
        "channel": 9
      },
      {
        "type": "note_on",
        "note": 42,
        "velocity": 28,
        "time": 598,
        "channel": 9
      },
      {
        "type": "note_off",
        "note": 42,
        "time": 667,
        "channel": 9
      },
      {
        "type": "note_on",
        "note": 22,
        "velocity": 53,
        "time": 709,
        "channel": 9
      },
      {
        "type": "note_off",
        "note": 22,
        "time": 779,
        "channel": 9
      },
      {
        "type": "note_on",
        "note": 42,
        "velocity": 27,
        "time": 830,
        "channel": 9
      },
      {
        "type": "note_on",
        "note": 38,
        "velocity": 31,
        "time": 831,
        "channel": 9
      },
      {
        "type": "note_off",
        "note": 38,
        "time": 899,
        "channel": 9
      },
      {
        "type": "note_off",
        "note": 42,
        "time": 899,
        "channel": 9
      },
      {
        "type": "note_on",
        "note": 42,
        "velocity": 40,
        "time": 943,
        "channel": 9
      },
      {
        "type": "note_off",
        "note": 42,
        "time": 1013,
        "channel": 9
      },
      {
        "type": "note_on",
        "note": 38,
        "velocity": 17,
        "time": 1049,
        "channel": 9
      },
      {
        "type": "note_on",
        "note": 42,
        "velocity": 40,
        "time": 1058,
        "channel": 9
      },
      {
        "type": "note_on",
        "note": 36,
        "velocity": 45,
        "time": 1086,
        "channel": 9
      },
      {
        "type": "note_on",
        "note": 38,
        "velocity": 13,
        "time": 1088,
        "channel": 9
      },
      {
        "type": "note_off",
        "note": 38,
        "time": 1088,
        "channel": 9
      },
      {
        "type": "note_off",
        "note": 38,
        "time": 1119,
        "channel": 9
      },
      {
        "type": "note_off",
        "note": 42,
        "time": 1128,
        "channel": 9
      },
      {
        "type": "note_off",
        "note": 36,
        "time": 1155,
        "channel": 9
      },
      {
        "type": "note_on",
        "note": 42,
        "velocity": 28,
        "time": 1184,
        "channel": 9
      },
      {
        "type": "note_on",
        "note": 36,
        "velocity": 60,
        "time": 1198,
        "channel": 9
      },
      {
        "type": "note_off",
        "note": 42,
        "time": 1254,
        "channel": 9
      },
      {
        "type": "note_off",
        "note": 36,
        "time": 1267,
        "channel": 9
      },
      {
        "type": "note_on",
        "note": 42,
        "velocity": 36,
        "time": 1297,
        "channel": 9
      },
      {
        "type": "note_off",
        "note": 42,
        "time": 1367,
        "channel": 9
      },
      {
        "type": "note_on",
        "note": 42,
        "velocity": 63,
        "time": 1423,
        "channel": 9
      },
      {
        "type": "note_on",
        "note": 40,
        "velocity": 91,
        "time": 1425,
        "channel": 9
      },
      {
        "type": "note_off",
        "note": 42,
        "time": 1492,
        "channel": 9
      },
      {
        "type": "note_off",
        "note": 40,
        "time": 1495,
        "channel": 9
      },
      {
        "type": "note_on",
        "note": 42,
        "velocity": 39,
        "time": 1553,
        "channel": 9
      },
      {
        "type": "note_on",
        "note": 36,
        "velocity": 56,
        "time": 1557,
        "channel": 9
      },
      {
        "type": "note_on",
        "note": 38,
        "velocity": 5,
        "time": 1613,
        "channel": 9
      },
      {
        "type": "note_off",
        "note": 42,
        "time": 1622,
        "channel": 9
      },
      {
        "type": "note_off",
        "note": 36,
        "time": 1626,
        "channel": 9
      },
      {
        "type": "note_on",
        "note": 42,
        "velocity": 49,
        "time": 1667,
        "channel": 9
      },
      {
        "type": "note_off",
        "note": 38,
        "time": 1682,
        "channel": 9
      },
      {
        "type": "note_off",
        "note": 42,
        "time": 1737,
        "channel": 9
      },
      {
        "type": "note_on",
        "note": 42,
        "velocity": 38,
        "time": 1786,
        "channel": 9
      },
      {
        "type": "note_on",
        "note": 38,
        "velocity": 38,
        "time": 1795,
        "channel": 9
      },
      {
        "type": "note_off",
        "note": 42,
        "time": 1856,
        "channel": 9
      },
      {
        "type": "note_off",
        "note": 38,
        "time": 1864,
        "channel": 9
      },
      {
        "type": "note_on",
        "note": 36,
        "velocity": 49,
        "time": 1904,
        "channel": 9
      },
      {
        "type": "note_on",
        "note": 42,
        "velocity": 38,
        "time": 1906,
        "channel": 9
      },
      {
        "type": "note_off",
        "note": 36,
        "time": 1974,
        "channel": 9
      },
      {
        "type": "note_off",
        "note": 42,
        "time": 1976,
        "channel": 9
      },
      {
        "type": "note_on",
        "note": 42,
        "velocity": 38,
        "time": 2025,
        "channel": 9
      },
      {
        "type": "note_on",
        "note": 38,
        "velocity": 26,
        "time": 2032,
        "channel": 9
      },
      {
        "type": "note_off",
        "note": 42,
        "time": 2094,
        "channel": 9
      },
      {
        "type": "note_off",
        "note": 38,
        "time": 2101,
        "channel": 9
      },
      {
        "type": "note_on",
        "note": 38,
        "velocity": 30,
        "time": 2145,
        "channel": 9
      },
      {
        "type": "note_on",
        "note": 42,
        "velocity": 54,
        "time": 2145,
        "channel": 9
      },
      {
        "type": "note_off",
        "note": 38,
        "time": 2214,
        "channel": 9
      },
      {
        "type": "note_off",
        "note": 42,
        "time": 2214,
        "channel": 9
      },
      {
        "type": "note_on",
        "note": 42,
        "velocity": 37,
        "time": 2262,
        "channel": 9
      },
      {
        "type": "note_on",
        "note": 36,
        "velocity": 57,
        "time": 2268,
        "channel": 9
      },
      {
        "type": "note_off",
        "note": 42,
        "time": 2331,
        "channel": 9
      },
      {
        "type": "note_off",
        "note": 36,
        "time": 2337,
        "channel": 9
      },
      {
        "type": "note_on",
        "note": 37,
        "velocity": 89,
        "time": 2381,
        "channel": 9
      },
      {
        "type": "note_on",
        "note": 42,
        "velocity": 50,
        "time": 2383,
        "channel": 9
      },
      {
        "type": "note_off",
        "note": 37,
        "time": 2450,
        "channel": 9
      },
      {
        "type": "note_off",
        "note": 42,
        "time": 2453,
        "channel": 9
      },
      {
        "type": "note_on",
        "note": 42,
        "velocity": 39,
        "time": 2508,
        "channel": 9
      },
      {
        "type": "note_off",
        "note": 42,
        "time": 2578,
        "channel": 9
      },
      {
        "type": "note_on",
        "note": 22,
        "velocity": 53,
        "time": 2623,
        "channel": 9
      },
      {
        "type": "note_off",
        "note": 22,
        "time": 2693,
        "channel": 9
      },
      {
        "type": "note_on",
        "note": 42,
        "velocity": 53,
        "time": 2744,
        "channel": 9
      },
      {
        "type": "note_on",
        "note": 38,
        "velocity": 23,
        "time": 2756,
        "channel": 9
      },
      {
        "type": "note_off",
        "note": 42,
        "time": 2813,
        "channel": 9
      },
      {
        "type": "note_off",
        "note": 38,
        "time": 2826,
        "channel": 9
      },
      {
        "type": "note_on",
        "note": 42,
        "velocity": 40,
        "time": 2858,
        "channel": 9
      },
      {
        "type": "note_off",
        "note": 42,
        "time": 2928,
        "channel": 9
      },
      {
        "type": "note_on",
        "note": 38,
        "velocity": 27,
        "time": 2968,
        "channel": 9
      },
      {
        "type": "note_on",
        "note": 42,
        "velocity": 49,
        "time": 2969,
        "channel": 9
      },
      {
        "type": "note_on",
        "note": 36,
        "velocity": 44,
        "time": 2971,
        "channel": 9
      },
      {
        "type": "note_off",
        "note": 38,
        "time": 3038,
        "channel": 9
      },
      {
        "type": "note_off",
        "note": 42,
        "time": 3039,
        "channel": 9
      },
      {
        "type": "note_off",
        "note": 36,
        "time": 3040,
        "channel": 9
      },
      {
        "type": "note_on",
        "note": 42,
        "velocity": 39,
        "time": 3084,
        "channel": 9
      },
      {
        "type": "note_on",
        "note": 36,
        "velocity": 59,
        "time": 3098,
        "channel": 9
      },
      {
        "type": "note_off",
        "note": 42,
        "time": 3154,
        "channel": 9
      },
      {
        "type": "note_off",
        "note": 36,
        "time": 3167,
        "channel": 9
      },
      {
        "type": "note_on",
        "note": 42,
        "velocity": 46,
        "time": 3199,
        "channel": 9
      },
      {
        "type": "note_off",
        "note": 42,
        "time": 3269,
        "channel": 9
      },
      {
        "type": "note_on",
        "note": 42,
        "velocity": 57,
        "time": 3329,
        "channel": 9
      },
      {
        "type": "note_on",
        "note": 40,
        "velocity": 93,
        "time": 3332,
        "channel": 9
      },
      {
        "type": "note_off",
        "note": 42,
        "time": 3398,
        "channel": 9
      },
      {
        "type": "note_off",
        "note": 40,
        "time": 3402,
        "channel": 9
      },
      {
        "type": "note_on",
        "note": 36,
        "velocity": 59,
        "time": 3461,
        "channel": 9
      },
      {
        "type": "note_on",
        "note": 42,
        "velocity": 35,
        "time": 3462,
        "channel": 9
      },
      {
        "type": "note_off",
        "note": 36,
        "time": 3530,
        "channel": 9
      },
      {
        "type": "note_off",
        "note": 42,
        "time": 3532,
        "channel": 9
      },
      {
        "type": "note_on",
        "note": 42,
        "velocity": 46,
        "time": 3572,
        "channel": 9
      },
      {
        "type": "note_off",
        "note": 42,
        "time": 3642,
        "channel": 9
      },
      {
        "type": "note_on",
        "note": 38,
        "velocity": 43,
        "time": 3685,
        "channel": 9
      },
      {
        "type": "note_on",
        "note": 42,
        "velocity": 39,
        "time": 3696,
        "channel": 9
      },
      {
        "type": "note_off",
        "note": 38,
        "time": 3755,
        "channel": 9
      },
      {
        "type": "note_off",
        "note": 42,
        "time": 3766,
        "channel": 9
      },
      {
        "type": "note_on",
        "note": 36,
        "velocity": 56,
        "time": 3796,
        "channel": 9
      },
      {
        "type": "note_on",
        "note": 42,
        "velocity": 38,
        "time": 3811,
        "channel": 9
      },
      {
        "type": "note_off",
        "note": 36,
        "time": 3866,
        "channel": 9
      },
      {
        "type": "note_off",
        "note": 42,
        "time": 3880,
        "channel": 9
      },
      {
        "type": "note_on",
        "note": 42,
        "velocity": 39,
        "time": 3925,
        "channel": 9
      },
      {
        "type": "note_on",
        "note": 38,
        "velocity": 15,
        "time": 3933,
        "channel": 9
      },
      {
        "type": "note_off",
        "note": 42,
        "time": 3995,
        "channel": 9
      },
      {
        "type": "note_off",
        "note": 38,
        "time": 4002,
        "channel": 9
      },
      {
        "type": "note_on",
        "note": 38,
        "velocity": 39,
        "time": 4044,
        "channel": 9
      },
      {
        "type": "note_on",
        "note": 42,
        "velocity": 41,
        "time": 4053,
        "channel": 9
      },
      {
        "type": "note_off",
        "note": 38,
        "time": 4113,
        "channel": 9
      },
      {
        "type": "note_off",
        "note": 42,
        "time": 4123,
        "channel": 9
      },
      {
        "type": "note_on",
        "note": 36,
        "velocity": 58,
        "time": 4170,
        "channel": 9
      },
      {
        "type": "note_on",
        "note": 42,
        "velocity": 37,
        "time": 4170,
        "channel": 9
      },
      {
        "type": "note_off",
        "note": 36,
        "time": 4240,
        "channel": 9
      },
      {
        "type": "note_off",
        "note": 42,
        "time": 4240,
        "channel": 9
      },
      {
        "type": "note_on",
        "note": 40,
        "velocity": 116,
        "time": 4291,
        "channel": 9
      },
      {
        "type": "note_on",
        "note": 42,
        "velocity": 31,
        "time": 4304,
        "channel": 9
      },
      {
        "type": "note_off",
        "note": 40,
        "time": 4360,
        "channel": 9
      },
      {
        "type": "note_off",
        "note": 42,
        "time": 4374,
        "channel": 9
      },
      {
        "type": "note_on",
        "note": 42,
        "velocity": 20,
        "time": 4431,
        "channel": 9
      },
      {
        "type": "note_off",
        "note": 42,
        "time": 4501,
        "channel": 9
      },
      {
        "type": "note_on",
        "note": 42,
        "velocity": 38,
        "time": 4541,
        "channel": 9
      },
      {
        "type": "note_off",
        "note": 42,
        "time": 4611,
        "channel": 9
      },
      {
        "type": "note_on",
        "note": 38,
        "velocity": 31,
        "time": 4656,
        "channel": 9
      },
      {
        "type": "note_on",
        "note": 42,
        "velocity": 34,
        "time": 4660,
        "channel": 9
      },
      {
        "type": "note_off",
        "note": 38,
        "time": 4726,
        "channel": 9
      },
      {
        "type": "note_off",
        "note": 42,
        "time": 4729,
        "channel": 9
      },
      {
        "type": "note_on",
        "note": 42,
        "velocity": 24,
        "time": 4778,
        "channel": 9
      },
      {
        "type": "note_off",
        "note": 42,
        "time": 4848,
        "channel": 9
      },
      {
        "type": "note_on",
        "note": 36,
        "velocity": 47,
        "time": 4893,
        "channel": 9
      },
      {
        "type": "note_on",
        "note": 42,
        "velocity": 34,
        "time": 4893,
        "channel": 9
      },
      {
        "type": "note_on",
        "note": 38,
        "velocity": 31,
        "time": 4909,
        "channel": 9
      },
      {
        "type": "note_off",
        "note": 36,
        "time": 4963,
        "channel": 9
      },
      {
        "type": "note_off",
        "note": 42,
        "time": 4963,
        "channel": 9
      },
      {
        "type": "note_off",
        "note": 38,
        "time": 4978,
        "channel": 9
      },
      {
        "type": "note_on",
        "note": 42,
        "velocity": 36,
        "time": 5014,
        "channel": 9
      },
      {
        "type": "note_on",
        "note": 36,
        "velocity": 56,
        "time": 5034,
        "channel": 9
      },
      {
        "type": "note_off",
        "note": 42,
        "time": 5084,
        "channel": 9
      },
      {
        "type": "note_off",
        "note": 36,
        "time": 5104,
        "channel": 9
      },
      {
        "type": "note_on",
        "note": 42,
        "velocity": 36,
        "time": 5137,
        "channel": 9
      },
      {
        "type": "note_off",
        "note": 42,
        "time": 5206,
        "channel": 9
      },
      {
        "type": "note_on",
        "note": 37,
        "velocity": 88,
        "time": 5260,
        "channel": 9
      },
      {
        "type": "note_on",
        "note": 42,
        "velocity": 43,
        "time": 5262,
        "channel": 9
      },
      {
        "type": "note_off",
        "note": 37,
        "time": 5329,
        "channel": 9
      },
      {
        "type": "note_off",
        "note": 42,
        "time": 5332,
        "channel": 9
      },
      {
        "type": "note_on",
        "note": 42,
        "velocity": 23,
        "time": 5387,
        "channel": 9
      },
      {
        "type": "note_on",
        "note": 36,
        "velocity": 58,
        "time": 5388,
        "channel": 9
      },
      {
        "type": "note_off",
        "note": 42,
        "time": 5456,
        "channel": 9
      },
      {
        "type": "note_off",
        "note": 36,
        "time": 5457,
        "channel": 9
      },
      {
        "type": "note_on",
        "note": 42,
        "velocity": 34,
        "time": 5497,
        "channel": 9
      },
      {
        "type": "note_off",
        "note": 42,
        "time": 5567,
        "channel": 9
      },
      {
        "type": "note_on",
        "note": 42,
        "velocity": 37,
        "time": 5617,
        "channel": 9
      },
      {
        "type": "note_on",
        "note": 38,
        "velocity": 34,
        "time": 5628,
        "channel": 9
      },
      {
        "type": "note_off",
        "note": 42,
        "time": 5686,
        "channel": 9
      },
      {
        "type": "note_off",
        "note": 38,
        "time": 5697,
        "channel": 9
      },
      {
        "type": "note_on",
        "note": 36,
        "velocity": 55,
        "time": 5733,
        "channel": 9
      },
      {
        "type": "note_on",
        "note": 42,
        "velocity": 32,
        "time": 5741,
        "channel": 9
      },
      {
        "type": "note_off",
        "note": 36,
        "time": 5802,
        "channel": 9
      },
      {
        "type": "note_off",
        "note": 42,
        "time": 5811,
        "channel": 9
      },
      {
        "type": "note_on",
        "note": 42,
        "velocity": 34,
        "time": 5859,
        "channel": 9
      },
      {
        "type": "note_on",
        "note": 38,
        "velocity": 25,
        "time": 5867,
        "channel": 9
      },
      {
        "type": "note_off",
        "note": 42,
        "time": 5929,
        "channel": 9
      },
      {
        "type": "note_off",
        "note": 38,
        "time": 5937,
        "channel": 9
      },
      {
        "type": "note_on",
        "note": 38,
        "velocity": 25,
        "time": 5977,
        "channel": 9
      },
      {
        "type": "note_on",
        "note": 42,
        "velocity": 34,
        "time": 5980,
        "channel": 9
      },
      {
        "type": "note_off",
        "note": 38,
        "time": 6046,
        "channel": 9
      },
      {
        "type": "note_off",
        "note": 42,
        "time": 6049,
        "channel": 9
      },
      {
        "type": "note_on",
        "note": 36,
        "velocity": 57,
        "time": 6096,
        "channel": 9
      },
      {
        "type": "note_on",
        "note": 42,
        "velocity": 30,
        "time": 6097,
        "channel": 9
      },
      {
        "type": "note_off",
        "note": 36,
        "time": 6165,
        "channel": 9
      },
      {
        "type": "note_off",
        "note": 42,
        "time": 6167,
        "channel": 9
      },
      {
        "type": "note_on",
        "note": 40,
        "velocity": 98,
        "time": 6218,
        "channel": 9
      },
      {
        "type": "note_on",
        "note": 42,
        "velocity": 38,
        "time": 6224,
        "channel": 9
      },
      {
        "type": "note_off",
        "note": 40,
        "time": 6287,
        "channel": 9
      },
      {
        "type": "note_off",
        "note": 42,
        "time": 6294,
        "channel": 9
      },
      {
        "type": "note_on",
        "note": 42,
        "velocity": 28,
        "time": 6342,
        "channel": 9
      },
      {
        "type": "note_off",
        "note": 42,
        "time": 6412,
        "channel": 9
      },
      {
        "type": "note_on",
        "note": 38,
        "velocity": 5,
        "time": 6443,
        "channel": 9
      },
      {
        "type": "note_on",
        "note": 42,
        "velocity": 37,
        "time": 6461,
        "channel": 9
      },
      {
        "type": "note_off",
        "note": 38,
        "time": 6512,
        "channel": 9
      },
      {
        "type": "note_off",
        "note": 42,
        "time": 6531,
        "channel": 9
      },
      {
        "type": "note_on",
        "note": 38,
        "velocity": 32,
        "time": 6589,
        "channel": 9
      },
      {
        "type": "note_on",
        "note": 42,
        "velocity": 34,
        "time": 6589,
        "channel": 9
      },
      {
        "type": "note_off",
        "note": 38,
        "time": 6659,
        "channel": 9
      },
      {
        "type": "note_off",
        "note": 42,
        "time": 6659,
        "channel": 9
      },
      {
        "type": "note_on",
        "note": 42,
        "velocity": 26,
        "time": 6704,
        "channel": 9
      },
      {
        "type": "note_off",
        "note": 42,
        "time": 6773,
        "channel": 9
      },
      {
        "type": "note_on",
        "note": 36,
        "velocity": 25,
        "time": 6804,
        "channel": 9
      },
      {
        "type": "note_on",
        "note": 42,
        "velocity": 36,
        "time": 6817,
        "channel": 9
      },
      {
        "type": "note_on",
        "note": 38,
        "velocity": 36,
        "time": 6825,
        "channel": 9
      },
      {
        "type": "note_off",
        "note": 36,
        "time": 6873,
        "channel": 9
      },
      {
        "type": "note_off",
        "note": 42,
        "time": 6887,
        "channel": 9
      },
      {
        "type": "note_off",
        "note": 38,
        "time": 6895,
        "channel": 9
      },
      {
        "type": "note_on",
        "note": 36,
        "velocity": 57,
        "time": 6936,
        "channel": 9
      },
      {
        "type": "note_on",
        "note": 42,
        "velocity": 25,
        "time": 6946,
        "channel": 9
      },
      {
        "type": "note_off",
        "note": 36,
        "time": 7005,
        "channel": 9
      },
      {
        "type": "note_off",
        "note": 42,
        "time": 7016,
        "channel": 9
      },
      {
        "type": "note_on",
        "note": 42,
        "velocity": 35,
        "time": 7057,
        "channel": 9
      },
      {
        "type": "note_off",
        "note": 42,
        "time": 7126,
        "channel": 9
      },
      {
        "type": "note_on",
        "note": 40,
        "velocity": 109,
        "time": 7178,
        "channel": 9
      },
      {
        "type": "note_on",
        "note": 42,
        "velocity": 37,
        "time": 7189,
        "channel": 9
      },
      {
        "type": "note_off",
        "note": 40,
        "time": 7248,
        "channel": 9
      },
      {
        "type": "note_off",
        "note": 42,
        "time": 7259,
        "channel": 9
      },
      {
        "type": "note_on",
        "note": 42,
        "velocity": 21,
        "time": 7308,
        "channel": 9
      },
      {
        "type": "note_on",
        "note": 36,
        "velocity": 60,
        "time": 7315,
        "channel": 9
      },
      {
        "type": "note_off",
        "note": 42,
        "time": 7378,
        "channel": 9
      },
      {
        "type": "note_off",
        "note": 36,
        "time": 7384,
        "channel": 9
      },
      {
        "type": "note_on",
        "note": 38,
        "velocity": 5,
        "time": 7412,
        "channel": 9
      },
      {
        "type": "note_on",
        "note": 42,
        "velocity": 36,
        "time": 7427,
        "channel": 9
      },
      {
        "type": "note_off",
        "note": 38,
        "time": 7482,
        "channel": 9
      },
      {
        "type": "note_off",
        "note": 42,
        "time": 7496,
        "channel": 9
      },
      {
        "type": "note_on",
        "note": 42,
        "velocity": 35,
        "time": 7547,
        "channel": 9
      },
      {
        "type": "note_on",
        "note": 38,
        "velocity": 8,
        "time": 7568,
        "channel": 9
      },
      {
        "type": "note_off",
        "note": 42,
        "time": 7616,
        "channel": 9
      },
      {
        "type": "note_off",
        "note": 38,
        "time": 7637,
        "channel": 9
      },
      {
        "type": "note_on",
        "note": 36,
        "velocity": 53,
        "time": 7661,
        "channel": 9
      },
      {
        "type": "note_on",
        "note": 42,
        "velocity": 27,
        "time": 7667,
        "channel": 9
      },
      {
        "type": "note_off",
        "note": 36,
        "time": 7730,
        "channel": 9
      },
      {
        "type": "note_off",
        "note": 42,
        "time": 7737,
        "channel": 9
      },
      {
        "type": "note_on",
        "note": 42,
        "velocity": 34,
        "time": 7786,
        "channel": 9
      },
      {
        "type": "note_on",
        "note": 38,
        "velocity": 19,
        "time": 7798,
        "channel": 9
      },
      {
        "type": "note_off",
        "note": 42,
        "time": 7856,
        "channel": 9
      },
      {
        "type": "note_off",
        "note": 38,
        "time": 7867,
        "channel": 9
      },
      {
        "type": "note_on",
        "note": 42,
        "velocity": 38,
        "time": 7907,
        "channel": 9
      },
      {
        "type": "note_on",
        "note": 38,
        "velocity": 30,
        "time": 7918,
        "channel": 9
      },
      {
        "type": "note_off",
        "note": 42,
        "time": 7976,
        "channel": 9
      },
      {
        "type": "note_off",
        "note": 38,
        "time": 7987,
        "channel": 9
      },
      {
        "type": "note_on",
        "note": 42,
        "velocity": 26,
        "time": 8029,
        "channel": 9
      },
      {
        "type": "note_on",
        "note": 36,
        "velocity": 57,
        "time": 8043,
        "channel": 9
      },
      {
        "type": "note_off",
        "note": 42,
        "time": 8099,
        "channel": 9
      },
      {
        "type": "note_off",
        "note": 36,
        "time": 8112,
        "channel": 9
      },
      {
        "type": "note_on",
        "note": 40,
        "velocity": 101,
        "time": 8158,
        "channel": 9
      },
      {
        "type": "note_on",
        "note": 42,
        "velocity": 33,
        "time": 8163,
        "channel": 9
      },
      {
        "type": "note_off",
        "note": 40,
        "time": 8228,
        "channel": 9
      },
      {
        "type": "note_off",
        "note": 42,
        "time": 8233,
        "channel": 9
      },
      {
        "type": "note_on",
        "note": 42,
        "velocity": 31,
        "time": 8282,
        "channel": 9
      },
      {
        "type": "note_off",
        "note": 42,
        "time": 8351,
        "channel": 9
      },
      {
        "type": "note_on",
        "note": 38,
        "velocity": 7,
        "time": 8381,
        "channel": 9
      },
      {
        "type": "note_on",
        "note": 42,
        "velocity": 40,
        "time": 8396,
        "channel": 9
      },
      {
        "type": "note_off",
        "note": 38,
        "time": 8450,
        "channel": 9
      },
      {
        "type": "note_off",
        "note": 42,
        "time": 8465,
        "channel": 9
      },
      {
        "type": "note_on",
        "note": 42,
        "velocity": 40,
        "time": 8520,
        "channel": 9
      },
      {
        "type": "note_on",
        "note": 38,
        "velocity": 33,
        "time": 8522,
        "channel": 9
      },
      {
        "type": "note_off",
        "note": 42,
        "time": 8590,
        "channel": 9
      },
      {
        "type": "note_off",
        "note": 38,
        "time": 8591,
        "channel": 9
      },
      {
        "type": "note_on",
        "note": 42,
        "velocity": 31,
        "time": 8636,
        "channel": 9
      },
      {
        "type": "note_off",
        "note": 42,
        "time": 8706,
        "channel": 9
      },
      {
        "type": "note_on",
        "note": 42,
        "velocity": 33,
        "time": 8751,
        "channel": 9
      },
      {
        "type": "note_on",
        "note": 38,
        "velocity": 28,
        "time": 8752,
        "channel": 9
      },
      {
        "type": "note_on",
        "note": 36,
        "velocity": 45,
        "time": 8761,
        "channel": 9
      },
      {
        "type": "note_off",
        "note": 38,
        "time": 8820,
        "channel": 9
      },
      {
        "type": "note_off",
        "note": 42,
        "time": 8820,
        "channel": 9
      },
      {
        "type": "note_off",
        "note": 36,
        "time": 8831,
        "channel": 9
      },
      {
        "type": "note_on",
        "note": 42,
        "velocity": 27,
        "time": 8871,
        "channel": 9
      },
      {
        "type": "note_on",
        "note": 36,
        "velocity": 57,
        "time": 8889,
        "channel": 9
      },
      {
        "type": "note_off",
        "note": 42,
        "time": 8941,
        "channel": 9
      },
      {
        "type": "note_off",
        "note": 36,
        "time": 8959,
        "channel": 9
      },
      {
        "type": "note_on",
        "note": 42,
        "velocity": 32,
        "time": 8995,
        "channel": 9
      },
      {
        "type": "note_off",
        "note": 42,
        "time": 9065,
        "channel": 9
      },
      {
        "type": "note_on",
        "note": 40,
        "velocity": 110,
        "time": 9099,
        "channel": 9
      },
      {
        "type": "note_on",
        "note": 42,
        "velocity": 45,
        "time": 9110,
        "channel": 9
      },
      {
        "type": "note_off",
        "note": 40,
        "time": 9168,
        "channel": 9
      },
      {
        "type": "note_off",
        "note": 42,
        "time": 9180,
        "channel": 9
      },
      {
        "type": "note_on",
        "note": 42,
        "velocity": 31,
        "time": 9231,
        "channel": 9
      },
      {
        "type": "note_on",
        "note": 36,
        "velocity": 59,
        "time": 9239,
        "channel": 9
      },
      {
        "type": "note_off",
        "note": 42,
        "time": 9301,
        "channel": 9
      },
      {
        "type": "note_off",
        "note": 36,
        "time": 9308,
        "channel": 9
      },
      {
        "type": "note_on",
        "note": 42,
        "velocity": 41,
        "time": 9355,
        "channel": 9
      },
      {
        "type": "note_off",
        "note": 42,
        "time": 9425,
        "channel": 9
      },
      {
        "type": "note_on",
        "note": 38,
        "velocity": 29,
        "time": 9467,
        "channel": 9
      },
      {
        "type": "note_on",
        "note": 42,
        "velocity": 29,
        "time": 9476,
        "channel": 9
      },
      {
        "type": "note_off",
        "note": 38,
        "time": 9537,
        "channel": 9
      },
      {
        "type": "note_off",
        "note": 42,
        "time": 9546,
        "channel": 9
      },
      {
        "type": "note_on",
        "note": 36,
        "velocity": 57,
        "time": 9585,
        "channel": 9
      },
      {
        "type": "note_on",
        "note": 42,
        "velocity": 29,
        "time": 9590,
        "channel": 9
      },
      {
        "type": "note_off",
        "note": 36,
        "time": 9655,
        "channel": 9
      },
      {
        "type": "note_off",
        "note": 42,
        "time": 9660,
        "channel": 9
      },
      {
        "type": "note_on",
        "note": 42,
        "velocity": 29,
        "time": 9719,
        "channel": 9
      },
      {
        "type": "note_on",
        "note": 38,
        "velocity": 25,
        "time": 9729,
        "channel": 9
      },
      {
        "type": "note_off",
        "note": 42,
        "time": 9788,
        "channel": 9
      },
      {
        "type": "note_off",
        "note": 38,
        "time": 9799,
        "channel": 9
      },
      {
        "type": "note_on",
        "note": 42,
        "velocity": 33,
        "time": 9838,
        "channel": 9
      },
      {
        "type": "note_on",
        "note": 38,
        "velocity": 25,
        "time": 9848,
        "channel": 9
      },
      {
        "type": "note_off",
        "note": 42,
        "time": 9908,
        "channel": 9
      },
      {
        "type": "note_off",
        "note": 38,
        "time": 9918,
        "channel": 9
      },
      {
        "type": "note_on",
        "note": 42,
        "velocity": 27,
        "time": 9952,
        "channel": 9
      },
      {
        "type": "note_on",
        "note": 36,
        "velocity": 55,
        "time": 9953,
        "channel": 9
      },
      {
        "type": "note_off",
        "note": 42,
        "time": 10021,
        "channel": 9
      },
      {
        "type": "note_off",
        "note": 36,
        "time": 10023,
        "channel": 9
      },
      {
        "type": "note_on",
        "note": 37,
        "velocity": 89,
        "time": 10078,
        "channel": 9
      },
      {
        "type": "note_on",
        "note": 42,
        "velocity": 40,
        "time": 10086,
        "channel": 9
      },
      {
        "type": "note_on",
        "note": 38,
        "velocity": 24,
        "time": 10136,
        "channel": 9
      },
      {
        "type": "note_off",
        "note": 37,
        "time": 10147,
        "channel": 9
      },
      {
        "type": "note_off",
        "note": 42,
        "time": 10156,
        "channel": 9
      },
      {
        "type": "note_on",
        "note": 42,
        "velocity": 25,
        "time": 10206,
        "channel": 9
      },
      {
        "type": "note_off",
        "note": 38,
        "time": 10206,
        "channel": 9
      },
      {
        "type": "note_off",
        "note": 42,
        "time": 10276,
        "channel": 9
      },
      {
        "type": "note_on",
        "note": 38,
        "velocity": 5,
        "time": 10314,
        "channel": 9
      },
      {
        "type": "note_on",
        "note": 42,
        "velocity": 18,
        "time": 10324,
        "channel": 9
      },
      {
        "type": "note_off",
        "note": 38,
        "time": 10384,
        "channel": 9
      },
      {
        "type": "note_off",
        "note": 42,
        "time": 10393,
        "channel": 9
      },
      {
        "type": "note_on",
        "note": 38,
        "velocity": 26,
        "time": 10437,
        "channel": 9
      },
      {
        "type": "note_on",
        "note": 42,
        "velocity": 43,
        "time": 10438,
        "channel": 9
      },
      {
        "type": "note_off",
        "note": 38,
        "time": 10507,
        "channel": 9
      },
      {
        "type": "note_off",
        "note": 42,
        "time": 10508,
        "channel": 9
      },
      {
        "type": "note_on",
        "note": 42,
        "velocity": 32,
        "time": 10559,
        "channel": 9
      },
      {
        "type": "note_off",
        "note": 42,
        "time": 10628,
        "channel": 9
      },
      {
        "type": "note_on",
        "note": 38,
        "velocity": 18,
        "time": 10674,
        "channel": 9
      },
      {
        "type": "note_on",
        "note": 42,
        "velocity": 31,
        "time": 10674,
        "channel": 9
      },
      {
        "type": "note_on",
        "note": 36,
        "velocity": 39,
        "time": 10694,
        "channel": 9
      },
      {
        "type": "note_off",
        "note": 38,
        "time": 10743,
        "channel": 9
      },
      {
        "type": "note_off",
        "note": 42,
        "time": 10743,
        "channel": 9
      },
      {
        "type": "note_off",
        "note": 36,
        "time": 10763,
        "channel": 9
      },
      {
        "type": "note_on",
        "note": 42,
        "velocity": 29,
        "time": 10792,
        "channel": 9
      },
      {
        "type": "note_on",
        "note": 36,
        "velocity": 57,
        "time": 10815,
        "channel": 9
      },
      {
        "type": "note_off",
        "note": 42,
        "time": 10862,
        "channel": 9
      },
      {
        "type": "note_off",
        "note": 36,
        "time": 10885,
        "channel": 9
      },
      {
        "type": "note_on",
        "note": 42,
        "velocity": 36,
        "time": 10912,
        "channel": 9
      },
      {
        "type": "note_off",
        "note": 42,
        "time": 10982,
        "channel": 9
      },
      {
        "type": "note_on",
        "note": 37,
        "velocity": 87,
        "time": 11032,
        "channel": 9
      },
      {
        "type": "note_on",
        "note": 42,
        "velocity": 43,
        "time": 11038,
        "channel": 9
      },
      {
        "type": "note_off",
        "note": 37,
        "time": 11101,
        "channel": 9
      },
      {
        "type": "note_off",
        "note": 42,
        "time": 11108,
        "channel": 9
      },
      {
        "type": "note_on",
        "note": 42,
        "velocity": 34,
        "time": 11157,
        "channel": 9
      },
      {
        "type": "note_on",
        "note": 36,
        "velocity": 62,
        "time": 11159,
        "channel": 9
      },
      {
        "type": "note_off",
        "note": 42,
        "time": 11226,
        "channel": 9
      },
      {
        "type": "note_off",
        "note": 36,
        "time": 11228,
        "channel": 9
      },
      {
        "type": "note_on",
        "note": 42,
        "velocity": 38,
        "time": 11273,
        "channel": 9
      },
      {
        "type": "note_off",
        "note": 42,
        "time": 11343,
        "channel": 9
      },
      {
        "type": "note_on",
        "note": 42,
        "velocity": 35,
        "time": 11388,
        "channel": 9
      },
      {
        "type": "note_on",
        "note": 38,
        "velocity": 35,
        "time": 11390,
        "channel": 9
      },
      {
        "type": "note_off",
        "note": 42,
        "time": 11458,
        "channel": 9
      },
      {
        "type": "note_off",
        "note": 38,
        "time": 11459,
        "channel": 9
      },
      {
        "type": "note_on",
        "note": 36,
        "velocity": 58,
        "time": 11500,
        "channel": 9
      },
      {
        "type": "note_on",
        "note": 42,
        "velocity": 29,
        "time": 11508,
        "channel": 9
      },
      {
        "type": "note_off",
        "note": 36,
        "time": 11569,
        "channel": 9
      },
      {
        "type": "note_off",
        "note": 42,
        "time": 11578,
        "channel": 9
      },
      {
        "type": "note_on",
        "note": 42,
        "velocity": 35,
        "time": 11632,
        "channel": 9
      },
      {
        "type": "note_on",
        "note": 38,
        "velocity": 24,
        "time": 11637,
        "channel": 9
      },
      {
        "type": "note_off",
        "note": 42,
        "time": 11702,
        "channel": 9
      },
      {
        "type": "note_off",
        "note": 38,
        "time": 11706,
        "channel": 9
      },
      {
        "type": "note_on",
        "note": 38,
        "velocity": 27,
        "time": 11747,
        "channel": 9
      },
      {
        "type": "note_on",
        "note": 42,
        "velocity": 48,
        "time": 11752,
        "channel": 9
      },
      {
        "type": "note_off",
        "note": 38,
        "time": 11817,
        "channel": 9
      },
      {
        "type": "note_off",
        "note": 42,
        "time": 11822,
        "channel": 9
      },
      {
        "type": "note_on",
        "note": 36,
        "velocity": 55,
        "time": 11855,
        "channel": 9
      },
      {
        "type": "note_on",
        "note": 42,
        "velocity": 33,
        "time": 11868,
        "channel": 9
      },
      {
        "type": "note_off",
        "note": 36,
        "time": 11925,
        "channel": 9
      },
      {
        "type": "note_off",
        "note": 42,
        "time": 11938,
        "channel": 9
      },
      {
        "type": "note_on",
        "note": 38,
        "velocity": 90,
        "time": 11987,
        "channel": 9
      },
      {
        "type": "note_on",
        "note": 42,
        "velocity": 43,
        "time": 11994,
        "channel": 9
      },
      {
        "type": "note_off",
        "note": 38,
        "time": 12057,
        "channel": 9
      },
      {
        "type": "note_off",
        "note": 42,
        "time": 12064,
        "channel": 9
      },
      {
        "type": "note_on",
        "note": 42,
        "velocity": 34,
        "time": 12108,
        "channel": 9
      },
      {
        "type": "note_off",
        "note": 42,
        "time": 12178,
        "channel": 9
      },
      {
        "type": "note_on",
        "note": 42,
        "velocity": 41,
        "time": 12224,
        "channel": 9
      },
      {
        "type": "note_off",
        "note": 42,
        "time": 12294,
        "channel": 9
      },
      {
        "type": "note_on",
        "note": 38,
        "velocity": 28,
        "time": 12347,
        "channel": 9
      },
      {
        "type": "note_on",
        "note": 42,
        "velocity": 46,
        "time": 12351,
        "channel": 9
      },
      {
        "type": "note_off",
        "note": 38,
        "time": 12416,
        "channel": 9
      },
      {
        "type": "note_off",
        "note": 42,
        "time": 12421,
        "channel": 9
      },
      {
        "type": "note_on",
        "note": 42,
        "velocity": 34,
        "time": 12467,
        "channel": 9
      },
      {
        "type": "note_off",
        "note": 42,
        "time": 12537,
        "channel": 9
      },
      {
        "type": "note_on",
        "note": 36,
        "velocity": 43,
        "time": 12583,
        "channel": 9
      },
      {
        "type": "note_on",
        "note": 42,
        "velocity": 29,
        "time": 12587,
        "channel": 9
      },
      {
        "type": "note_on",
        "note": 38,
        "velocity": 32,
        "time": 12590,
        "channel": 9
      },
      {
        "type": "note_off",
        "note": 36,
        "time": 12652,
        "channel": 9
      },
      {
        "type": "note_off",
        "note": 42,
        "time": 12656,
        "channel": 9
      },
      {
        "type": "note_off",
        "note": 38,
        "time": 12659,
        "channel": 9
      },
      {
        "type": "note_on",
        "note": 36,
        "velocity": 59,
        "time": 12707,
        "channel": 9
      },
      {
        "type": "note_on",
        "note": 42,
        "velocity": 35,
        "time": 12708,
        "channel": 9
      },
      {
        "type": "note_off",
        "note": 36,
        "time": 12776,
        "channel": 9
      },
      {
        "type": "note_off",
        "note": 42,
        "time": 12778,
        "channel": 9
      },
      {
        "type": "note_on",
        "note": 42,
        "velocity": 28,
        "time": 12829,
        "channel": 9
      },
      {
        "type": "note_off",
        "note": 42,
        "time": 12899,
        "channel": 9
      },
      {
        "type": "note_on",
        "note": 40,
        "velocity": 92,
        "time": 12945,
        "channel": 9
      },
      {
        "type": "note_on",
        "note": 42,
        "velocity": 52,
        "time": 12949,
        "channel": 9
      },
      {
        "type": "note_off",
        "note": 40,
        "time": 13015,
        "channel": 9
      },
      {
        "type": "note_off",
        "note": 42,
        "time": 13018,
        "channel": 9
      },
      {
        "type": "note_on",
        "note": 36,
        "velocity": 57,
        "time": 13070,
        "channel": 9
      },
      {
        "type": "note_on",
        "note": 42,
        "velocity": 35,
        "time": 13072,
        "channel": 9
      },
      {
        "type": "note_off",
        "note": 36,
        "time": 13139,
        "channel": 9
      },
      {
        "type": "note_off",
        "note": 42,
        "time": 13142,
        "channel": 9
      },
      {
        "type": "note_on",
        "note": 38,
        "velocity": 5,
        "time": 13170,
        "channel": 9
      },
      {
        "type": "note_on",
        "note": 42,
        "velocity": 37,
        "time": 13189,
        "channel": 9
      },
      {
        "type": "note_off",
        "note": 38,
        "time": 13239,
        "channel": 9
      },
      {
        "type": "note_off",
        "note": 42,
        "time": 13259,
        "channel": 9
      },
      {
        "type": "note_on",
        "note": 38,
        "velocity": 37,
        "time": 13299,
        "channel": 9
      },
      {
        "type": "note_on",
        "note": 42,
        "velocity": 41,
        "time": 13305,
        "channel": 9
      },
      {
        "type": "note_off",
        "note": 38,
        "time": 13368,
        "channel": 9
      },
      {
        "type": "note_off",
        "note": 42,
        "time": 13375,
        "channel": 9
      },
      {
        "type": "note_on",
        "note": 36,
        "velocity": 55,
        "time": 13403,
        "channel": 9
      },
      {
        "type": "note_on",
        "note": 42,
        "velocity": 31,
        "time": 13425,
        "channel": 9
      },
      {
        "type": "note_off",
        "note": 36,
        "time": 13472,
        "channel": 9
      },
      {
        "type": "note_off",
        "note": 42,
        "time": 13494,
        "channel": 9
      },
      {
        "type": "note_on",
        "note": 42,
        "velocity": 38,
        "time": 13541,
        "channel": 9
      },
      {
        "type": "note_on",
        "note": 38,
        "velocity": 27,
        "time": 13551,
        "channel": 9
      },
      {
        "type": "note_off",
        "note": 42,
        "time": 13611,
        "channel": 9
      },
      {
        "type": "note_off",
        "note": 38,
        "time": 13620,
        "channel": 9
      },
      {
        "type": "note_on",
        "note": 38,
        "velocity": 34,
        "time": 13659,
        "channel": 9
      },
      {
        "type": "note_on",
        "note": 42,
        "velocity": 40,
        "time": 13659,
        "channel": 9
      },
      {
        "type": "note_off",
        "note": 38,
        "time": 13727,
        "channel": 9
      },
      {
        "type": "note_off",
        "note": 42,
        "time": 13727,
        "channel": 9
      },
      {
        "type": "note_on",
        "note": 36,
        "velocity": 55,
        "time": 13784,
        "channel": 9
      },
      {
        "type": "note_on",
        "note": 42,
        "velocity": 15,
        "time": 13787,
        "channel": 9
      },
      {
        "type": "note_off",
        "note": 36,
        "time": 13853,
        "channel": 9
      },
      {
        "type": "note_off",
        "note": 42,
        "time": 13857,
        "channel": 9
      },
      {
        "type": "note_on",
        "note": 40,
        "velocity": 94,
        "time": 13902,
        "channel": 9
      },
      {
        "type": "note_on",
        "note": 42,
        "velocity": 41,
        "time": 13911,
        "channel": 9
      },
      {
        "type": "note_off",
        "note": 40,
        "time": 13971,
        "channel": 9
      },
      {
        "type": "note_off",
        "note": 42,
        "time": 13981,
        "channel": 9
      },
      {
        "type": "note_on",
        "note": 42,
        "velocity": 32,
        "time": 14022,
        "channel": 9
      },
      {
        "type": "note_off",
        "note": 42,
        "time": 14091,
        "channel": 9
      },
      {
        "type": "note_on",
        "note": 42,
        "velocity": 46,
        "time": 14137,
        "channel": 9
      },
      {
        "type": "note_off",
        "note": 42,
        "time": 14206,
        "channel": 9
      },
      {
        "type": "note_on",
        "note": 42,
        "velocity": 46,
        "time": 14264,
        "channel": 9
      },
      {
        "type": "note_on",
        "note": 38,
        "velocity": 23,
        "time": 14269,
        "channel": 9
      },
      {
        "type": "note_off",
        "note": 42,
        "time": 14334,
        "channel": 9
      },
      {
        "type": "note_off",
        "note": 38,
        "time": 14338,
        "channel": 9
      },
      {
        "type": "note_on",
        "note": 42,
        "velocity": 27,
        "time": 14385,
        "channel": 9
      },
      {
        "type": "note_off",
        "note": 42,
        "time": 14454,
        "channel": 9
      },
      {
        "type": "note_on",
        "note": 36,
        "velocity": 46,
        "time": 14491,
        "channel": 9
      },
      {
        "type": "note_on",
        "note": 38,
        "velocity": 34,
        "time": 14499,
        "channel": 9
      },
      {
        "type": "note_on",
        "note": 42,
        "velocity": 37,
        "time": 14506,
        "channel": 9
      },
      {
        "type": "note_off",
        "note": 36,
        "time": 14561,
        "channel": 9
      },
      {
        "type": "note_off",
        "note": 38,
        "time": 14568,
        "channel": 9
      },
      {
        "type": "note_off",
        "note": 42,
        "time": 14576,
        "channel": 9
      },
      {
        "type": "note_on",
        "note": 36,
        "velocity": 57,
        "time": 14610,
        "channel": 9
      },
      {
        "type": "note_on",
        "note": 42,
        "velocity": 39,
        "time": 14620,
        "channel": 9
      },
      {
        "type": "note_off",
        "note": 36,
        "time": 14679,
        "channel": 9
      },
      {
        "type": "note_off",
        "note": 42,
        "time": 14689,
        "channel": 9
      },
      {
        "type": "note_on",
        "note": 42,
        "velocity": 33,
        "time": 14737,
        "channel": 9
      },
      {
        "type": "note_off",
        "note": 42,
        "time": 14807,
        "channel": 9
      },
      {
        "type": "note_on",
        "note": 37,
        "velocity": 84,
        "time": 14842,
        "channel": 9
      },
      {
        "type": "note_on",
        "note": 42,
        "velocity": 40,
        "time": 14847,
        "channel": 9
      },
      {
        "type": "note_off",
        "note": 37,
        "time": 14911,
        "channel": 9
      },
      {
        "type": "note_off",
        "note": 42,
        "time": 14917,
        "channel": 9
      },
      {
        "type": "note_on",
        "note": 36,
        "velocity": 59,
        "time": 14967,
        "channel": 9
      },
      {
        "type": "note_on",
        "note": 42,
        "velocity": 28,
        "time": 14973,
        "channel": 9
      },
      {
        "type": "note_off",
        "note": 36,
        "time": 15036,
        "channel": 9
      },
      {
        "type": "note_off",
        "note": 42,
        "time": 15044,
        "channel": 9
      },
      {
        "type": "note_on",
        "note": 42,
        "velocity": 44,
        "time": 15091,
        "channel": 9
      },
      {
        "type": "note_off",
        "note": 42,
        "time": 15161,
        "channel": 9
      },
      {
        "type": "note_on",
        "note": 38,
        "velocity": 35,
        "time": 15192,
        "channel": 9
      },
      {
        "type": "note_on",
        "note": 42,
        "velocity": 37,
        "time": 15217,
        "channel": 9
      },
      {
        "type": "note_off",
        "note": 38,
        "time": 15262,
        "channel": 9
      },
      {
        "type": "note_off",
        "note": 42,
        "time": 15286,
        "channel": 9
      },
      {
        "type": "note_on",
        "note": 38,
        "velocity": 30,
        "time": 15339,
        "channel": 9
      },
      {
        "type": "note_on",
        "note": 42,
        "velocity": 34,
        "time": 15339,
        "channel": 9
      },
      {
        "type": "note_on",
        "note": 36,
        "velocity": 57,
        "time": 15348,
        "channel": 9
      },
      {
        "type": "note_off",
        "note": 38,
        "time": 15408,
        "channel": 9
      },
      {
        "type": "note_off",
        "note": 42,
        "time": 15408,
        "channel": 9
      },
      {
        "type": "note_off",
        "note": 36,
        "time": 15417,
        "channel": 9
      },
      {
        "type": "note_on",
        "note": 42,
        "velocity": 35,
        "time": 15458,
        "channel": 9
      },
      {
        "type": "note_on",
        "note": 38,
        "velocity": 15,
        "time": 15479,
        "channel": 9
      },
      {
        "type": "note_off",
        "note": 42,
        "time": 15528,
        "channel": 9
      },
      {
        "type": "note_off",
        "note": 38,
        "time": 15548,
        "channel": 9
      },
      {
        "type": "note_on",
        "note": 38,
        "velocity": 36,
        "time": 15568,
        "channel": 9
      },
      {
        "type": "note_on",
        "note": 42,
        "velocity": 43,
        "time": 15573,
        "channel": 9
      },
      {
        "type": "note_off",
        "note": 38,
        "time": 15637,
        "channel": 9
      },
      {
        "type": "note_off",
        "note": 42,
        "time": 15643,
        "channel": 9
      },
      {
        "type": "note_on",
        "note": 42,
        "velocity": 30,
        "time": 15694,
        "channel": 9
      },
      {
        "type": "note_on",
        "note": 36,
        "velocity": 59,
        "time": 15700,
        "channel": 9
      },
      {
        "type": "note_off",
        "note": 42,
        "time": 15763,
        "channel": 9
      },
      {
        "type": "note_off",
        "note": 36,
        "time": 15769,
        "channel": 9
      },
      {
        "type": "note_on",
        "note": 40,
        "velocity": 93,
        "time": 15824,
        "channel": 9
      },
      {
        "type": "note_on",
        "note": 42,
        "velocity": 47,
        "time": 15827,
        "channel": 9
      },
      {
        "type": "note_off",
        "note": 40,
        "time": 15893,
        "channel": 9
      },
      {
        "type": "note_off",
        "note": 42,
        "time": 15897,
        "channel": 9
      },
      {
        "type": "note_on",
        "note": 38,
        "velocity": 5,
        "time": 15917,
        "channel": 9
      },
      {
        "type": "note_on",
        "note": 42,
        "velocity": 29,
        "time": 15945,
        "channel": 9
      },
      {
        "type": "note_off",
        "note": 38,
        "time": 15986,
        "channel": 9
      },
      {
        "type": "note_off",
        "note": 42,
        "time": 16014,
        "channel": 9
      },
      {
        "type": "note_on",
        "note": 42,
        "velocity": 34,
        "time": 16062,
        "channel": 9
      },
      {
        "type": "note_off",
        "note": 42,
        "time": 16131,
        "channel": 9
      },
      {
        "type": "note_on",
        "note": 42,
        "velocity": 46,
        "time": 16186,
        "channel": 9
      },
      {
        "type": "note_on",
        "note": 38,
        "velocity": 27,
        "time": 16188,
        "channel": 9
      },
      {
        "type": "note_off",
        "note": 42,
        "time": 16256,
        "channel": 9
      },
      {
        "type": "note_off",
        "note": 38,
        "time": 16258,
        "channel": 9
      },
      {
        "type": "note_on",
        "note": 42,
        "velocity": 36,
        "time": 16303,
        "channel": 9
      },
      {
        "type": "note_off",
        "note": 42,
        "time": 16373,
        "channel": 9
      },
      {
        "type": "note_on",
        "note": 38,
        "velocity": 11,
        "time": 16378,
        "channel": 9
      },
      {
        "type": "note_on",
        "note": 42,
        "velocity": 42,
        "time": 16412,
        "channel": 9
      },
      {
        "type": "note_on",
        "note": 36,
        "velocity": 42,
        "time": 16419,
        "channel": 9
      },
      {
        "type": "note_off",
        "note": 38,
        "time": 16448,
        "channel": 9
      },
      {
        "type": "note_off",
        "note": 42,
        "time": 16481,
        "channel": 9
      },
      {
        "type": "note_off",
        "note": 36,
        "time": 16488,
        "channel": 9
      },
      {
        "type": "note_on",
        "note": 42,
        "velocity": 36,
        "time": 16537,
        "channel": 9
      },
      {
        "type": "note_on",
        "note": 36,
        "velocity": 53,
        "time": 16552,
        "channel": 9
      },
      {
        "type": "note_off",
        "note": 42,
        "time": 16607,
        "channel": 9
      },
      {
        "type": "note_off",
        "note": 36,
        "time": 16621,
        "channel": 9
      },
      {
        "type": "note_on",
        "note": 42,
        "velocity": 36,
        "time": 16651,
        "channel": 9
      },
      {
        "type": "note_off",
        "note": 42,
        "time": 16720,
        "channel": 9
      },
      {
        "type": "note_on",
        "note": 42,
        "velocity": 52,
        "time": 16773,
        "channel": 9
      },
      {
        "type": "note_on",
        "note": 37,
        "velocity": 90,
        "time": 16776,
        "channel": 9
      },
      {
        "type": "note_off",
        "note": 42,
        "time": 16843,
        "channel": 9
      },
      {
        "type": "note_off",
        "note": 37,
        "time": 16845,
        "channel": 9
      },
      {
        "type": "note_on",
        "note": 36,
        "velocity": 59,
        "time": 16893,
        "channel": 9
      },
      {
        "type": "note_on",
        "note": 42,
        "velocity": 31,
        "time": 16903,
        "channel": 9
      },
      {
        "type": "note_off",
        "note": 36,
        "time": 16963,
        "channel": 9
      },
      {
        "type": "note_off",
        "note": 42,
        "time": 16973,
        "channel": 9
      },
      {
        "type": "note_on",
        "note": 42,
        "velocity": 41,
        "time": 17020,
        "channel": 9
      },
      {
        "type": "note_off",
        "note": 42,
        "time": 17090,
        "channel": 9
      },
      {
        "type": "note_on",
        "note": 42,
        "velocity": 40,
        "time": 17143,
        "channel": 9
      },
      {
        "type": "note_on",
        "note": 38,
        "velocity": 29,
        "time": 17146,
        "channel": 9
      },
      {
        "type": "note_off",
        "note": 42,
        "time": 17213,
        "channel": 9
      },
      {
        "type": "note_off",
        "note": 38,
        "time": 17216,
        "channel": 9
      },
      {
        "type": "note_on",
        "note": 36,
        "velocity": 50,
        "time": 17248,
        "channel": 9
      },
      {
        "type": "note_on",
        "note": 42,
        "velocity": 40,
        "time": 17266,
        "channel": 9
      },
      {
        "type": "note_off",
        "note": 36,
        "time": 17317,
        "channel": 9
      },
      {
        "type": "note_off",
        "note": 42,
        "time": 17335,
        "channel": 9
      },
      {
        "type": "note_on",
        "note": 42,
        "velocity": 39,
        "time": 17382,
        "channel": 9
      },
      {
        "type": "note_on",
        "note": 38,
        "velocity": 12,
        "time": 17400,
        "channel": 9
      },
      {
        "type": "note_off",
        "note": 42,
        "time": 17452,
        "channel": 9
      },
      {
        "type": "note_off",
        "note": 38,
        "time": 17469,
        "channel": 9
      },
      {
        "type": "note_on",
        "note": 38,
        "velocity": 23,
        "time": 17498,
        "channel": 9
      },
      {
        "type": "note_on",
        "note": 42,
        "velocity": 34,
        "time": 17498,
        "channel": 9
      },
      {
        "type": "note_off",
        "note": 42,
        "time": 17568,
        "channel": 9
      },
      {
        "type": "note_off",
        "note": 38,
        "time": 17569,
        "channel": 9
      },
      {
        "type": "note_on",
        "note": 36,
        "velocity": 55,
        "time": 17621,
        "channel": 9
      },
      {
        "type": "note_on",
        "note": 42,
        "velocity": 38,
        "time": 17621,
        "channel": 9
      },
      {
        "type": "note_off",
        "note": 36,
        "time": 17690,
        "channel": 9
      },
      {
        "type": "note_off",
        "note": 42,
        "time": 17690,
        "channel": 9
      },
      {
        "type": "note_on",
        "note": 40,
        "velocity": 98,
        "time": 17746,
        "channel": 9
      },
      {
        "type": "note_on",
        "note": 42,
        "velocity": 49,
        "time": 17749,
        "channel": 9
      },
      {
        "type": "note_off",
        "note": 40,
        "time": 17816,
        "channel": 9
      },
      {
        "type": "note_off",
        "note": 42,
        "time": 17818,
        "channel": 9
      },
      {
        "type": "note_on",
        "note": 42,
        "velocity": 35,
        "time": 17867,
        "channel": 9
      },
      {
        "type": "note_off",
        "note": 42,
        "time": 17937,
        "channel": 9
      },
      {
        "type": "note_on",
        "note": 42,
        "velocity": 36,
        "time": 17981,
        "channel": 9
      },
      {
        "type": "note_off",
        "note": 42,
        "time": 18051,
        "channel": 9
      },
      {
        "type": "note_on",
        "note": 42,
        "velocity": 46,
        "time": 18106,
        "channel": 9
      },
      {
        "type": "note_on",
        "note": 38,
        "velocity": 32,
        "time": 18114,
        "channel": 9
      },
      {
        "type": "note_off",
        "note": 42,
        "time": 18175,
        "channel": 9
      },
      {
        "type": "note_off",
        "note": 38,
        "time": 18183,
        "channel": 9
      },
      {
        "type": "note_on",
        "note": 42,
        "velocity": 35,
        "time": 18224,
        "channel": 9
      },
      {
        "type": "note_off",
        "note": 42,
        "time": 18294,
        "channel": 9
      },
      {
        "type": "note_on",
        "note": 36,
        "velocity": 40,
        "time": 18328,
        "channel": 9
      },
      {
        "type": "note_on",
        "note": 42,
        "velocity": 31,
        "time": 18340,
        "channel": 9
      },
      {
        "type": "note_on",
        "note": 38,
        "velocity": 30,
        "time": 18341,
        "channel": 9
      },
      {
        "type": "note_off",
        "note": 36,
        "time": 18398,
        "channel": 9
      },
      {
        "type": "note_off",
        "note": 38,
        "time": 18409,
        "channel": 9
      },
      {
        "type": "note_off",
        "note": 42,
        "time": 18409,
        "channel": 9
      },
      {
        "type": "note_on",
        "note": 36,
        "velocity": 55,
        "time": 18456,
        "channel": 9
      },
      {
        "type": "note_on",
        "note": 42,
        "velocity": 40,
        "time": 18460,
        "channel": 9
      },
      {
        "type": "note_off",
        "note": 36,
        "time": 18526,
        "channel": 9
      },
      {
        "type": "note_off",
        "note": 42,
        "time": 18530,
        "channel": 9
      },
      {
        "type": "note_on",
        "note": 42,
        "velocity": 41,
        "time": 18578,
        "channel": 9
      },
      {
        "type": "note_off",
        "note": 42,
        "time": 18647,
        "channel": 9
      },
      {
        "type": "note_on",
        "note": 40,
        "velocity": 96,
        "time": 18705,
        "channel": 9
      },
      {
        "type": "note_on",
        "note": 42,
        "velocity": 46,
        "time": 18705,
        "channel": 9
      },
      {
        "type": "note_off",
        "note": 40,
        "time": 18775,
        "channel": 9
      },
      {
        "type": "note_off",
        "note": 42,
        "time": 18775,
        "channel": 9
      },
      {
        "type": "note_on",
        "note": 36,
        "velocity": 59,
        "time": 18829,
        "channel": 9
      },
      {
        "type": "note_on",
        "note": 42,
        "velocity": 29,
        "time": 18831,
        "channel": 9
      },
      {
        "type": "note_off",
        "note": 36,
        "time": 18898,
        "channel": 9
      },
      {
        "type": "note_off",
        "note": 42,
        "time": 18901,
        "channel": 9
      },
      {
        "type": "note_on",
        "note": 42,
        "velocity": 36,
        "time": 18948,
        "channel": 9
      },
      {
        "type": "note_off",
        "note": 42,
        "time": 19017,
        "channel": 9
      },
      {
        "type": "note_on",
        "note": 38,
        "velocity": 38,
        "time": 19067,
        "channel": 9
      },
      {
        "type": "note_on",
        "note": 42,
        "velocity": 43,
        "time": 19067,
        "channel": 9
      },
      {
        "type": "note_off",
        "note": 38,
        "time": 19137,
        "channel": 9
      },
      {
        "type": "note_off",
        "note": 42,
        "time": 19137,
        "channel": 9
      },
      {
        "type": "note_on",
        "note": 36,
        "velocity": 58,
        "time": 19178,
        "channel": 9
      },
      {
        "type": "note_on",
        "note": 42,
        "velocity": 35,
        "time": 19189,
        "channel": 9
      },
      {
        "type": "note_off",
        "note": 36,
        "time": 19247,
        "channel": 9
      },
      {
        "type": "note_off",
        "note": 42,
        "time": 19259,
        "channel": 9
      },
      {
        "type": "note_on",
        "note": 38,
        "velocity": 27,
        "time": 19314,
        "channel": 9
      },
      {
        "type": "note_on",
        "note": 42,
        "velocity": 30,
        "time": 19314,
        "channel": 9
      },
      {
        "type": "note_off",
        "note": 38,
        "time": 19383,
        "channel": 9
      },
      {
        "type": "note_off",
        "note": 42,
        "time": 19383,
        "channel": 9
      },
      {
        "type": "note_on",
        "note": 38,
        "velocity": 28,
        "time": 19421,
        "channel": 9
      },
      {
        "type": "note_on",
        "note": 42,
        "velocity": 38,
        "time": 19436,
        "channel": 9
      },
      {
        "type": "note_off",
        "note": 38,
        "time": 19491,
        "channel": 9
      },
      {
        "type": "note_off",
        "note": 42,
        "time": 19506,
        "channel": 9
      },
      {
        "type": "note_on",
        "note": 36,
        "velocity": 57,
        "time": 19547,
        "channel": 9
      },
      {
        "type": "note_on",
        "note": 42,
        "velocity": 29,
        "time": 19556,
        "channel": 9
      },
      {
        "type": "note_off",
        "note": 36,
        "time": 19616,
        "channel": 9
      },
      {
        "type": "note_off",
        "note": 42,
        "time": 19626,
        "channel": 9
      },
      {
        "type": "note_on",
        "note": 38,
        "velocity": 120,
        "time": 19666,
        "channel": 9
      },
      {
        "type": "note_on",
        "note": 42,
        "velocity": 50,
        "time": 19675,
        "channel": 9
      },
      {
        "type": "note_off",
        "note": 38,
        "time": 19735,
        "channel": 9
      },
      {
        "type": "note_off",
        "note": 42,
        "time": 19745,
        "channel": 9
      },
      {
        "type": "note_on",
        "note": 42,
        "velocity": 30,
        "time": 19802,
        "channel": 9
      },
      {
        "type": "note_off",
        "note": 42,
        "time": 19871,
        "channel": 9
      },
      {
        "type": "note_on",
        "note": 42,
        "velocity": 35,
        "time": 19918,
        "channel": 9
      },
      {
        "type": "note_off",
        "note": 42,
        "time": 19987,
        "channel": 9
      },
      {
        "type": "note_on",
        "note": 38,
        "velocity": 27,
        "time": 20048,
        "channel": 9
      },
      {
        "type": "note_on",
        "note": 42,
        "velocity": 41,
        "time": 20049,
        "channel": 9
      },
      {
        "type": "note_off",
        "note": 38,
        "time": 20117,
        "channel": 9
      },
      {
        "type": "note_off",
        "note": 42,
        "time": 20119,
        "channel": 9
      },
      {
        "type": "note_on",
        "note": 42,
        "velocity": 37,
        "time": 20162,
        "channel": 9
      },
      {
        "type": "note_off",
        "note": 42,
        "time": 20232,
        "channel": 9
      },
      {
        "type": "note_on",
        "note": 36,
        "velocity": 45,
        "time": 20271,
        "channel": 9
      },
      {
        "type": "note_on",
        "note": 42,
        "velocity": 41,
        "time": 20275,
        "channel": 9
      },
      {
        "type": "note_on",
        "note": 38,
        "velocity": 37,
        "time": 20277,
        "channel": 9
      },
      {
        "type": "note_off",
        "note": 36,
        "time": 20340,
        "channel": 9
      },
      {
        "type": "note_off",
        "note": 42,
        "time": 20345,
        "channel": 9
      },
      {
        "type": "note_off",
        "note": 38,
        "time": 20347,
        "channel": 9
      },
      {
        "type": "note_on",
        "note": 42,
        "velocity": 30,
        "time": 20396,
        "channel": 9
      },
      {
        "type": "note_on",
        "note": 36,
        "velocity": 57,
        "time": 20405,
        "channel": 9
      },
      {
        "type": "note_off",
        "note": 42,
        "time": 20466,
        "channel": 9
      },
      {
        "type": "note_off",
        "note": 36,
        "time": 20475,
        "channel": 9
      },
      {
        "type": "note_on",
        "note": 42,
        "velocity": 12,
        "time": 20529,
        "channel": 9
      },
      {
        "type": "note_off",
        "note": 42,
        "time": 20598,
        "channel": 9
      },
      {
        "type": "note_on",
        "note": 38,
        "velocity": 121,
        "time": 20626,
        "channel": 9
      },
      {
        "type": "note_on",
        "note": 42,
        "velocity": 56,
        "time": 20652,
        "channel": 9
      },
      {
        "type": "note_off",
        "note": 38,
        "time": 20696,
        "channel": 9
      },
      {
        "type": "note_off",
        "note": 42,
        "time": 20722,
        "channel": 9
      },
      {
        "type": "note_on",
        "note": 42,
        "velocity": 45,
        "time": 20759,
        "channel": 9
      },
      {
        "type": "note_on",
        "note": 36,
        "velocity": 57,
        "time": 20773,
        "channel": 9
      },
      {
        "type": "note_off",
        "note": 42,
        "time": 20829,
        "channel": 9
      },
      {
        "type": "note_off",
        "note": 36,
        "time": 20842,
        "channel": 9
      },
      {
        "type": "note_on",
        "note": 42,
        "velocity": 41,
        "time": 20872,
        "channel": 9
      },
      {
        "type": "note_off",
        "note": 42,
        "time": 20942,
        "channel": 9
      },
      {
        "type": "note_on",
        "note": 38,
        "velocity": 30,
        "time": 20988,
        "channel": 9
      },
      {
        "type": "note_on",
        "note": 42,
        "velocity": 45,
        "time": 20991,
        "channel": 9
      },
      {
        "type": "note_off",
        "note": 38,
        "time": 21057,
        "channel": 9
      },
      {
        "type": "note_off",
        "note": 42,
        "time": 21061,
        "channel": 9
      },
      {
        "type": "note_on",
        "note": 36,
        "velocity": 47,
        "time": 21109,
        "channel": 9
      },
      {
        "type": "note_on",
        "note": 42,
        "velocity": 38,
        "time": 21114,
        "channel": 9
      },
      {
        "type": "note_off",
        "note": 36,
        "time": 21178,
        "channel": 9
      },
      {
        "type": "note_off",
        "note": 42,
        "time": 21183,
        "channel": 9
      },
      {
        "type": "note_on",
        "note": 38,
        "velocity": 31,
        "time": 21229,
        "channel": 9
      },
      {
        "type": "note_on",
        "note": 42,
        "velocity": 38,
        "time": 21232,
        "channel": 9
      },
      {
        "type": "note_off",
        "note": 38,
        "time": 21299,
        "channel": 9
      },
      {
        "type": "note_off",
        "note": 42,
        "time": 21302,
        "channel": 9
      },
      {
        "type": "note_on",
        "note": 38,
        "velocity": 24,
        "time": 21343,
        "channel": 9
      },
      {
        "type": "note_on",
        "note": 42,
        "velocity": 38,
        "time": 21349,
        "channel": 9
      },
      {
        "type": "note_off",
        "note": 38,
        "time": 21412,
        "channel": 9
      },
      {
        "type": "note_off",
        "note": 42,
        "time": 21419,
        "channel": 9
      },
      {
        "type": "note_on",
        "note": 42,
        "velocity": 33,
        "time": 21464,
        "channel": 9
      },
      {
        "type": "note_on",
        "note": 36,
        "velocity": 49,
        "time": 21466,
        "channel": 9
      },
      {
        "type": "note_off",
        "note": 42,
        "time": 21533,
        "channel": 9
      },
      {
        "type": "note_off",
        "note": 36,
        "time": 21535,
        "channel": 9
      },
      {
        "type": "note_on",
        "note": 42,
        "velocity": 45,
        "time": 21587,
        "channel": 9
      },
      {
        "type": "note_on",
        "note": 40,
        "velocity": 107,
        "time": 21595,
        "channel": 9
      },
      {
        "type": "note_off",
        "note": 42,
        "time": 21657,
        "channel": 9
      },
      {
        "type": "note_off",
        "note": 40,
        "time": 21664,
        "channel": 9
      },
      {
        "type": "note_on",
        "note": 42,
        "velocity": 38,
        "time": 21703,
        "channel": 9
      },
      {
        "type": "note_off",
        "note": 42,
        "time": 21773,
        "channel": 9
      },
      {
        "type": "note_on",
        "note": 42,
        "velocity": 44,
        "time": 21827,
        "channel": 9
      },
      {
        "type": "note_off",
        "note": 42,
        "time": 21897,
        "channel": 9
      },
      {
        "type": "note_on",
        "note": 42,
        "velocity": 50,
        "time": 21952,
        "channel": 9
      },
      {
        "type": "note_on",
        "note": 38,
        "velocity": 41,
        "time": 21958,
        "channel": 9
      },
      {
        "type": "note_off",
        "note": 42,
        "time": 22022,
        "channel": 9
      },
      {
        "type": "note_off",
        "note": 38,
        "time": 22027,
        "channel": 9
      },
      {
        "type": "note_on",
        "note": 42,
        "velocity": 39,
        "time": 22063,
        "channel": 9
      },
      {
        "type": "note_off",
        "note": 42,
        "time": 22133,
        "channel": 9
      },
      {
        "type": "note_on",
        "note": 38,
        "velocity": 27,
        "time": 22166,
        "channel": 9
      },
      {
        "type": "note_on",
        "note": 42,
        "velocity": 43,
        "time": 22180,
        "channel": 9
      },
      {
        "type": "note_off",
        "note": 38,
        "time": 22235,
        "channel": 9
      },
      {
        "type": "note_off",
        "note": 42,
        "time": 22250,
        "channel": 9
      },
      {
        "type": "note_on",
        "note": 36,
        "velocity": 57,
        "time": 22289,
        "channel": 9
      },
      {
        "type": "note_on",
        "note": 26,
        "velocity": 68,
        "time": 22297,
        "channel": 9
      },
      {
        "type": "note_off",
        "note": 36,
        "time": 22359,
        "channel": 9
      },
      {
        "type": "note_off",
        "note": 26,
        "time": 22366,
        "channel": 9
      },
      {
        "type": "note_on",
        "note": 44,
        "velocity": 50,
        "time": 22518,
        "channel": 9
      },
      {
        "type": "note_on",
        "note": 37,
        "velocity": 90,
        "time": 22542,
        "channel": 9
      },
      {
        "type": "note_off",
        "note": 44,
        "time": 22587,
        "channel": 9
      },
      {
        "type": "note_off",
        "note": 37,
        "time": 22611,
        "channel": 9
      },
      {
        "type": "note_on",
        "note": 36,
        "velocity": 57,
        "time": 22674,
        "channel": 9
      },
      {
        "type": "note_on",
        "note": 42,
        "velocity": 30,
        "time": 22693,
        "channel": 9
      },
      {
        "type": "note_off",
        "note": 36,
        "time": 22744,
        "channel": 9
      },
      {
        "type": "note_off",
        "note": 42,
        "time": 22764,
        "channel": 9
      },
      {
        "type": "note_on",
        "note": 42,
        "velocity": 43,
        "time": 22797,
        "channel": 9
      },
      {
        "type": "note_off",
        "note": 42,
        "time": 22867,
        "channel": 9
      },
      {
        "type": "note_on",
        "note": 38,
        "velocity": 43,
        "time": 22913,
        "channel": 9
      },
      {
        "type": "note_on",
        "note": 42,
        "velocity": 43,
        "time": 22918,
        "channel": 9
      },
      {
        "type": "note_off",
        "note": 38,
        "time": 22983,
        "channel": 9
      },
      {
        "type": "note_off",
        "note": 42,
        "time": 22988,
        "channel": 9
      },
      {
        "type": "note_on",
        "note": 36,
        "velocity": 59,
        "time": 23033,
        "channel": 9
      },
      {
        "type": "note_on",
        "note": 38,
        "velocity": 13,
        "time": 23034,
        "channel": 9
      },
      {
        "type": "note_on",
        "note": 42,
        "velocity": 24,
        "time": 23043,
        "channel": 9
      },
      {
        "type": "note_off",
        "note": 38,
        "time": 23043,
        "channel": 9
      },
      {
        "type": "note_on",
        "note": 38,
        "velocity": 9,
        "time": 23055,
        "channel": 9
      },
      {
        "type": "note_off",
        "note": 38,
        "time": 23067,
        "channel": 9
      },
      {
        "type": "note_off",
        "note": 36,
        "time": 23103,
        "channel": 9
      },
      {
        "type": "note_off",
        "note": 42,
        "time": 23113,
        "channel": 9
      },
      {
        "type": "note_on",
        "note": 42,
        "velocity": 31,
        "time": 23149,
        "channel": 9
      },
      {
        "type": "note_off",
        "note": 42,
        "time": 23218,
        "channel": 9
      },
      {
        "type": "note_on",
        "note": 38,
        "velocity": 13,
        "time": 23249,
        "channel": 9
      },
      {
        "type": "note_on",
        "note": 22,
        "velocity": 66,
        "time": 23268,
        "channel": 9
      },
      {
        "type": "note_off",
        "note": 38,
        "time": 23318,
        "channel": 9
      },
      {
        "type": "note_off",
        "note": 22,
        "time": 23337,
        "channel": 9
      },
      {
        "type": "note_on",
        "note": 42,
        "velocity": 31,
        "time": 23387,
        "channel": 9
      },
      {
        "type": "note_on",
        "note": 36,
        "velocity": 52,
        "time": 23392,
        "channel": 9
      },
      {
        "type": "note_off",
        "note": 42,
        "time": 23457,
        "channel": 9
      },
      {
        "type": "note_off",
        "note": 36,
        "time": 23462,
        "channel": 9
      },
      {
        "type": "note_on",
        "note": 40,
        "velocity": 104,
        "time": 23498,
        "channel": 9
      },
      {
        "type": "note_on",
        "note": 42,
        "velocity": 49,
        "time": 23504,
        "channel": 9
      },
      {
        "type": "note_off",
        "note": 40,
        "time": 23567,
        "channel": 9
      },
      {
        "type": "note_off",
        "note": 42,
        "time": 23574,
        "channel": 9
      },
      {
        "type": "note_on",
        "note": 42,
        "velocity": 43,
        "time": 23735,
        "channel": 9
      },
      {
        "type": "note_off",
        "note": 42,
        "time": 23805,
        "channel": 9
      },
      {
        "type": "note_on",
        "note": 42,
        "velocity": 27,
        "time": 23854,
        "channel": 9
      },
      {
        "type": "note_on",
        "note": 38,
        "velocity": 30,
        "time": 23859,
        "channel": 9
      },
      {
        "type": "note_off",
        "note": 42,
        "time": 23924,
        "channel": 9
      },
      {
        "type": "note_off",
        "note": 38,
        "time": 23929,
        "channel": 9
      },
      {
        "type": "note_on",
        "note": 42,
        "velocity": 54,
        "time": 23969,
        "channel": 9
      },
      {
        "type": "note_off",
        "note": 42,
        "time": 24039,
        "channel": 9
      },
      {
        "type": "note_on",
        "note": 38,
        "velocity": 26,
        "time": 24085,
        "channel": 9
      },
      {
        "type": "note_on",
        "note": 42,
        "velocity": 18,
        "time": 24097,
        "channel": 9
      },
      {
        "type": "note_on",
        "note": 36,
        "velocity": 44,
        "time": 24106,
        "channel": 9
      },
      {
        "type": "note_off",
        "note": 38,
        "time": 24154,
        "channel": 9
      },
      {
        "type": "note_off",
        "note": 42,
        "time": 24167,
        "channel": 9
      },
      {
        "type": "note_off",
        "note": 36,
        "time": 24175,
        "channel": 9
      },
      {
        "type": "note_on",
        "note": 36,
        "velocity": 57,
        "time": 24211,
        "channel": 9
      },
      {
        "type": "note_on",
        "note": 42,
        "velocity": 24,
        "time": 24217,
        "channel": 9
      },
      {
        "type": "note_off",
        "note": 36,
        "time": 24281,
        "channel": 9
      },
      {
        "type": "note_off",
        "note": 42,
        "time": 24287,
        "channel": 9
      },
      {
        "type": "note_on",
        "note": 42,
        "velocity": 22,
        "time": 24339,
        "channel": 9
      },
      {
        "type": "note_off",
        "note": 42,
        "time": 24408,
        "channel": 9
      },
      {
        "type": "note_on",
        "note": 38,
        "velocity": 85,
        "time": 24457,
        "channel": 9
      },
      {
        "type": "note_on",
        "note": 42,
        "velocity": 40,
        "time": 24458,
        "channel": 9
      },
      {
        "type": "note_off",
        "note": 38,
        "time": 24526,
        "channel": 9
      },
      {
        "type": "note_off",
        "note": 42,
        "time": 24527,
        "channel": 9
      },
      {
        "type": "note_on",
        "note": 36,
        "velocity": 60,
        "time": 24582,
        "channel": 9
      },
      {
        "type": "note_on",
        "note": 42,
        "velocity": 27,
        "time": 24585,
        "channel": 9
      },
      {
        "type": "note_off",
        "note": 36,
        "time": 24651,
        "channel": 9
      },
      {
        "type": "note_off",
        "note": 42,
        "time": 24655,
        "channel": 9
      },
      {
        "type": "note_on",
        "note": 42,
        "velocity": 45,
        "time": 24706,
        "channel": 9
      },
      {
        "type": "note_off",
        "note": 42,
        "time": 24776,
        "channel": 9
      },
      {
        "type": "note_on",
        "note": 38,
        "velocity": 23,
        "time": 24822,
        "channel": 9
      },
      {
        "type": "note_on",
        "note": 42,
        "velocity": 27,
        "time": 24826,
        "channel": 9
      },
      {
        "type": "note_off",
        "note": 38,
        "time": 24891,
        "channel": 9
      },
      {
        "type": "note_off",
        "note": 42,
        "time": 24895,
        "channel": 9
      },
      {
        "type": "note_on",
        "note": 36,
        "velocity": 57,
        "time": 24934,
        "channel": 9
      },
      {
        "type": "note_on",
        "note": 42,
        "velocity": 12,
        "time": 24949,
        "channel": 9
      },
      {
        "type": "note_off",
        "note": 36,
        "time": 25003,
        "channel": 9
      },
      {
        "type": "note_off",
        "note": 42,
        "time": 25019,
        "channel": 9
      },
      {
        "type": "note_on",
        "note": 38,
        "velocity": 25,
        "time": 25071,
        "channel": 9
      },
      {
        "type": "note_on",
        "note": 42,
        "velocity": 35,
        "time": 25072,
        "channel": 9
      },
      {
        "type": "note_off",
        "note": 38,
        "time": 25140,
        "channel": 9
      },
      {
        "type": "note_off",
        "note": 42,
        "time": 25142,
        "channel": 9
      },
      {
        "type": "note_on",
        "note": 38,
        "velocity": 29,
        "time": 25183,
        "channel": 9
      },
      {
        "type": "note_on",
        "note": 42,
        "velocity": 36,
        "time": 25189,
        "channel": 9
      },
      {
        "type": "note_off",
        "note": 38,
        "time": 25252,
        "channel": 9
      },
      {
        "type": "note_off",
        "note": 42,
        "time": 25259,
        "channel": 9
      },
      {
        "type": "note_on",
        "note": 42,
        "velocity": 28,
        "time": 25303,
        "channel": 9
      },
      {
        "type": "note_on",
        "note": 36,
        "velocity": 59,
        "time": 25314,
        "channel": 9
      },
      {
        "type": "note_off",
        "note": 42,
        "time": 25372,
        "channel": 9
      },
      {
        "type": "note_off",
        "note": 36,
        "time": 25384,
        "channel": 9
      },
      {
        "type": "note_on",
        "note": 40,
        "velocity": 96,
        "time": 25413,
        "channel": 9
      },
      {
        "type": "note_on",
        "note": 42,
        "velocity": 43,
        "time": 25425,
        "channel": 9
      },
      {
        "type": "note_off",
        "note": 40,
        "time": 25482,
        "channel": 9
      },
      {
        "type": "note_off",
        "note": 42,
        "time": 25495,
        "channel": 9
      },
      {
        "type": "note_on",
        "note": 42,
        "velocity": 18,
        "time": 25544,
        "channel": 9
      },
      {
        "type": "note_off",
        "note": 42,
        "time": 25614,
        "channel": 9
      },
      {
        "type": "note_on",
        "note": 42,
        "velocity": 48,
        "time": 25659,
        "channel": 9
      },
      {
        "type": "note_off",
        "note": 42,
        "time": 25729,
        "channel": 9
      },
      {
        "type": "note_on",
        "note": 42,
        "velocity": 34,
        "time": 25789,
        "channel": 9
      },
      {
        "type": "note_on",
        "note": 38,
        "velocity": 23,
        "time": 25795,
        "channel": 9
      },
      {
        "type": "note_off",
        "note": 42,
        "time": 25859,
        "channel": 9
      },
      {
        "type": "note_off",
        "note": 38,
        "time": 25865,
        "channel": 9
      },
      {
        "type": "note_on",
        "note": 42,
        "velocity": 21,
        "time": 25913,
        "channel": 9
      },
      {
        "type": "note_off",
        "note": 42,
        "time": 25982,
        "channel": 9
      },
      {
        "type": "note_on",
        "note": 38,
        "velocity": 26,
        "time": 26019,
        "channel": 9
      },
      {
        "type": "note_on",
        "note": 36,
        "velocity": 48,
        "time": 26029,
        "channel": 9
      },
      {
        "type": "note_on",
        "note": 42,
        "velocity": 30,
        "time": 26033,
        "channel": 9
      },
      {
        "type": "note_off",
        "note": 38,
        "time": 26088,
        "channel": 9
      },
      {
        "type": "note_off",
        "note": 36,
        "time": 26098,
        "channel": 9
      },
      {
        "type": "note_off",
        "note": 42,
        "time": 26103,
        "channel": 9
      },
      {
        "type": "note_on",
        "note": 36,
        "velocity": 58,
        "time": 26138,
        "channel": 9
      },
      {
        "type": "note_on",
        "note": 42,
        "velocity": 38,
        "time": 26154,
        "channel": 9
      },
      {
        "type": "note_off",
        "note": 36,
        "time": 26208,
        "channel": 9
      },
      {
        "type": "note_off",
        "note": 42,
        "time": 26224,
        "channel": 9
      },
      {
        "type": "note_on",
        "note": 42,
        "velocity": 33,
        "time": 26264,
        "channel": 9
      },
      {
        "type": "note_off",
        "note": 42,
        "time": 26333,
        "channel": 9
      },
      {
        "type": "note_on",
        "note": 40,
        "velocity": 102,
        "time": 26380,
        "channel": 9
      },
      {
        "type": "note_on",
        "note": 42,
        "velocity": 38,
        "time": 26383,
        "channel": 9
      },
      {
        "type": "note_on",
        "note": 38,
        "velocity": 26,
        "time": 26436,
        "channel": 9
      },
      {
        "type": "note_off",
        "note": 40,
        "time": 26449,
        "channel": 9
      },
      {
        "type": "note_off",
        "note": 42,
        "time": 26453,
        "channel": 9
      },
      {
        "type": "note_off",
        "note": 38,
        "time": 26505,
        "channel": 9
      },
      {
        "type": "note_on",
        "note": 42,
        "velocity": 17,
        "time": 26509,
        "channel": 9
      },
      {
        "type": "note_on",
        "note": 36,
        "velocity": 75,
        "time": 26522,
        "channel": 9
      },
      {
        "type": "note_off",
        "note": 42,
        "time": 26578,
        "channel": 9
      },
      {
        "type": "note_off",
        "note": 36,
        "time": 26591,
        "channel": 9
      },
      {
        "type": "note_on",
        "note": 42,
        "velocity": 36,
        "time": 26631,
        "channel": 9
      },
      {
        "type": "note_off",
        "note": 42,
        "time": 26700,
        "channel": 9
      },
      {
        "type": "note_on",
        "note": 42,
        "velocity": 36,
        "time": 26755,
        "channel": 9
      },
      {
        "type": "note_on",
        "note": 38,
        "velocity": 34,
        "time": 26757,
        "channel": 9
      },
      {
        "type": "note_off",
        "note": 42,
        "time": 26825,
        "channel": 9
      },
      {
        "type": "note_off",
        "note": 38,
        "time": 26827,
        "channel": 9
      },
      {
        "type": "note_on",
        "note": 36,
        "velocity": 58,
        "time": 26866,
        "channel": 9
      },
      {
        "type": "note_on",
        "note": 42,
        "velocity": 30,
        "time": 26878,
        "channel": 9
      },
      {
        "type": "note_off",
        "note": 36,
        "time": 26936,
        "channel": 9
      },
      {
        "type": "note_off",
        "note": 42,
        "time": 26948,
        "channel": 9
      },
      {
        "type": "note_on",
        "note": 38,
        "velocity": 34,
        "time": 26996,
        "channel": 9
      },
      {
        "type": "note_on",
        "note": 42,
        "velocity": 35,
        "time": 27002,
        "channel": 9
      },
      {
        "type": "note_off",
        "note": 38,
        "time": 27065,
        "channel": 9
      },
      {
        "type": "note_off",
        "note": 42,
        "time": 27072,
        "channel": 9
      },
      {
        "type": "note_on",
        "note": 42,
        "velocity": 32,
        "time": 27119,
        "channel": 9
      },
      {
        "type": "note_on",
        "note": 38,
        "velocity": 24,
        "time": 27122,
        "channel": 9
      },
      {
        "type": "note_off",
        "note": 42,
        "time": 27189,
        "channel": 9
      },
      {
        "type": "note_off",
        "note": 38,
        "time": 27191,
        "channel": 9
      },
      {
        "type": "note_on",
        "note": 36,
        "velocity": 60,
        "time": 27236,
        "channel": 9
      },
      {
        "type": "note_on",
        "note": 42,
        "velocity": 17,
        "time": 27237,
        "channel": 9
      },
      {
        "type": "note_off",
        "note": 36,
        "time": 27306,
        "channel": 9
      },
      {
        "type": "note_off",
        "note": 42,
        "time": 27307,
        "channel": 9
      },
      {
        "type": "note_on",
        "note": 37,
        "velocity": 83,
        "time": 27347,
        "channel": 9
      },
      {
        "type": "note_on",
        "note": 42,
        "velocity": 48,
        "time": 27360,
        "channel": 9
      },
      {
        "type": "note_off",
        "note": 37,
        "time": 27417,
        "channel": 9
      },
      {
        "type": "note_off",
        "note": 42,
        "time": 27430,
        "channel": 9
      },
      {
        "type": "note_on",
        "note": 42,
        "velocity": 18,
        "time": 27476,
        "channel": 9
      },
      {
        "type": "note_off",
        "note": 42,
        "time": 27546,
        "channel": 9
      },
      {
        "type": "note_on",
        "note": 42,
        "velocity": 51,
        "time": 27585,
        "channel": 9
      },
      {
        "type": "note_off",
        "note": 42,
        "time": 27655,
        "channel": 9
      },
      {
        "type": "note_on",
        "note": 38,
        "velocity": 33,
        "time": 27712,
        "channel": 9
      },
      {
        "type": "note_on",
        "note": 42,
        "velocity": 40,
        "time": 27717,
        "channel": 9
      },
      {
        "type": "note_off",
        "note": 38,
        "time": 27782,
        "channel": 9
      },
      {
        "type": "note_off",
        "note": 42,
        "time": 27786,
        "channel": 9
      },
      {
        "type": "note_on",
        "note": 42,
        "velocity": 33,
        "time": 27825,
        "channel": 9
      },
      {
        "type": "note_off",
        "note": 42,
        "time": 27894,
        "channel": 9
      },
      {
        "type": "note_on",
        "note": 38,
        "velocity": 23,
        "time": 27938,
        "channel": 9
      },
      {
        "type": "note_on",
        "note": 42,
        "velocity": 35,
        "time": 27939,
        "channel": 9
      },
      {
        "type": "note_on",
        "note": 36,
        "velocity": 40,
        "time": 27949,
        "channel": 9
      },
      {
        "type": "note_off",
        "note": 38,
        "time": 28007,
        "channel": 9
      },
      {
        "type": "note_off",
        "note": 42,
        "time": 28009,
        "channel": 9
      },
      {
        "type": "note_off",
        "note": 36,
        "time": 28018,
        "channel": 9
      },
      {
        "type": "note_on",
        "note": 42,
        "velocity": 36,
        "time": 28056,
        "channel": 9
      },
      {
        "type": "note_on",
        "note": 36,
        "velocity": 60,
        "time": 28064,
        "channel": 9
      },
      {
        "type": "note_off",
        "note": 42,
        "time": 28126,
        "channel": 9
      },
      {
        "type": "note_off",
        "note": 36,
        "time": 28133,
        "channel": 9
      },
      {
        "type": "note_on",
        "note": 42,
        "velocity": 22,
        "time": 28177,
        "channel": 9
      },
      {
        "type": "note_off",
        "note": 42,
        "time": 28247,
        "channel": 9
      },
      {
        "type": "note_on",
        "note": 38,
        "velocity": 79,
        "time": 28300,
        "channel": 9
      },
      {
        "type": "note_on",
        "note": 42,
        "velocity": 36,
        "time": 28301,
        "channel": 9
      },
      {
        "type": "note_off",
        "note": 38,
        "time": 28369,
        "channel": 9
      },
      {
        "type": "note_off",
        "note": 42,
        "time": 28371,
        "channel": 9
      },
      {
        "type": "note_on",
        "note": 42,
        "velocity": 28,
        "time": 28427,
        "channel": 9
      },
      {
        "type": "note_on",
        "note": 36,
        "velocity": 69,
        "time": 28437,
        "channel": 9
      },
      {
        "type": "note_off",
        "note": 42,
        "time": 28496,
        "channel": 9
      },
      {
        "type": "note_off",
        "note": 36,
        "time": 28507,
        "channel": 9
      },
      {
        "type": "note_on",
        "note": 42,
        "velocity": 27,
        "time": 28550,
        "channel": 9
      },
      {
        "type": "note_off",
        "note": 42,
        "time": 28620,
        "channel": 9
      },
      {
        "type": "note_on",
        "note": 42,
        "velocity": 27,
        "time": 28666,
        "channel": 9
      },
      {
        "type": "note_on",
        "note": 38,
        "velocity": 26,
        "time": 28684,
        "channel": 9
      },
      {
        "type": "note_off",
        "note": 42,
        "time": 28736,
        "channel": 9
      },
      {
        "type": "note_off",
        "note": 38,
        "time": 28753,
        "channel": 9
      },
      {
        "type": "note_on",
        "note": 36,
        "velocity": 58,
        "time": 28784,
        "channel": 9
      },
      {
        "type": "note_on",
        "note": 42,
        "velocity": 16,
        "time": 28795,
        "channel": 9
      },
      {
        "type": "note_off",
        "note": 36,
        "time": 28853,
        "channel": 9
      },
      {
        "type": "note_off",
        "note": 42,
        "time": 28865,
        "channel": 9
      },
      {
        "type": "note_on",
        "note": 38,
        "velocity": 30,
        "time": 28923,
        "channel": 9
      },
      {
        "type": "note_on",
        "note": 42,
        "velocity": 17,
        "time": 28923,
        "channel": 9
      },
      {
        "type": "note_off",
        "note": 38,
        "time": 28993,
        "channel": 9
      },
      {
        "type": "note_off",
        "note": 42,
        "time": 28993,
        "channel": 9
      },
      {
        "type": "note_on",
        "note": 38,
        "velocity": 24,
        "time": 29039,
        "channel": 9
      },
      {
        "type": "note_on",
        "note": 42,
        "velocity": 36,
        "time": 29040,
        "channel": 9
      },
      {
        "type": "note_off",
        "note": 38,
        "time": 29108,
        "channel": 9
      },
      {
        "type": "note_off",
        "note": 42,
        "time": 29109,
        "channel": 9
      },
      {
        "type": "note_on",
        "note": 36,
        "velocity": 58,
        "time": 29158,
        "channel": 9
      },
      {
        "type": "note_on",
        "note": 42,
        "velocity": 17,
        "time": 29161,
        "channel": 9
      },
      {
        "type": "note_off",
        "note": 36,
        "time": 29228,
        "channel": 9
      },
      {
        "type": "note_off",
        "note": 42,
        "time": 29231,
        "channel": 9
      },
      {
        "type": "note_on",
        "note": 40,
        "velocity": 104,
        "time": 29267,
        "channel": 9
      },
      {
        "type": "note_on",
        "note": 42,
        "velocity": 43,
        "time": 29282,
        "channel": 9
      },
      {
        "type": "note_off",
        "note": 40,
        "time": 29337,
        "channel": 9
      },
      {
        "type": "note_off",
        "note": 42,
        "time": 29352,
        "channel": 9
      },
      {
        "type": "note_on",
        "note": 42,
        "velocity": 42,
        "time": 29515,
        "channel": 9
      },
      {
        "type": "note_off",
        "note": 42,
        "time": 29585,
        "channel": 9
      },
      {
        "type": "note_on",
        "note": 38,
        "velocity": 23,
        "time": 29628,
        "channel": 9
      },
      {
        "type": "note_on",
        "note": 42,
        "velocity": 32,
        "time": 29640,
        "channel": 9
      },
      {
        "type": "note_off",
        "note": 38,
        "time": 29698,
        "channel": 9
      },
      {
        "type": "note_off",
        "note": 42,
        "time": 29709,
        "channel": 9
      },
      {
        "type": "note_on",
        "note": 42,
        "velocity": 31,
        "time": 29753,
        "channel": 9
      },
      {
        "type": "note_off",
        "note": 42,
        "time": 29823,
        "channel": 9
      },
      {
        "type": "note_on",
        "note": 36,
        "velocity": 45,
        "time": 29863,
        "channel": 9
      },
      {
        "type": "note_on",
        "note": 38,
        "velocity": 27,
        "time": 29870,
        "channel": 9
      },
      {
        "type": "note_on",
        "note": 42,
        "velocity": 28,
        "time": 29870,
        "channel": 9
      },
      {
        "type": "note_off",
        "note": 36,
        "time": 29933,
        "channel": 9
      },
      {
        "type": "note_off",
        "note": 38,
        "time": 29940,
        "channel": 9
      },
      {
        "type": "note_off",
        "note": 42,
        "time": 29940,
        "channel": 9
      },
      {
        "type": "note_on",
        "note": 36,
        "velocity": 68,
        "time": 29979,
        "channel": 9
      },
      {
        "type": "note_on",
        "note": 46,
        "velocity": 52,
        "time": 29992,
        "channel": 9
      },
      {
        "type": "note_off",
        "note": 36,
        "time": 30049,
        "channel": 9
      },
      {
        "type": "note_off",
        "note": 46,
        "time": 30061,
        "channel": 9
      },
      {
        "type": "note_on",
        "note": 46,
        "velocity": 28,
        "time": 30126,
        "channel": 9
      },
      {
        "type": "note_on",
        "note": 44,
        "velocity": 52,
        "time": 30194,
        "channel": 9
      },
      {
        "type": "note_off",
        "note": 46,
        "time": 30196,
        "channel": 9
      },
      {
        "type": "note_on",
        "note": 40,
        "velocity": 92,
        "time": 30216,
        "channel": 9
      },
      {
        "type": "note_on",
        "note": 42,
        "velocity": 43,
        "time": 30232,
        "channel": 9
      },
      {
        "type": "note_off",
        "note": 44,
        "time": 30264,
        "channel": 9
      },
      {
        "type": "note_off",
        "note": 40,
        "time": 30286,
        "channel": 9
      },
      {
        "type": "note_off",
        "note": 42,
        "time": 30301,
        "channel": 9
      },
      {
        "type": "note_on",
        "note": 36,
        "velocity": 56,
        "time": 30350,
        "channel": 9
      },
      {
        "type": "note_on",
        "note": 42,
        "velocity": 28,
        "time": 30350,
        "channel": 9
      },
      {
        "type": "note_off",
        "note": 36,
        "time": 30419,
        "channel": 9
      },
      {
        "type": "note_off",
        "note": 42,
        "time": 30419,
        "channel": 9
      },
      {
        "type": "note_on",
        "note": 42,
        "velocity": 31,
        "time": 30473,
        "channel": 9
      },
      {
        "type": "note_off",
        "note": 42,
        "time": 30543,
        "channel": 9
      },
      {
        "type": "note_on",
        "note": 38,
        "velocity": 24,
        "time": 30585,
        "channel": 9
      },
      {
        "type": "note_on",
        "note": 42,
        "velocity": 24,
        "time": 30588,
        "channel": 9
      },
      {
        "type": "note_off",
        "note": 38,
        "time": 30655,
        "channel": 9
      },
      {
        "type": "note_off",
        "note": 42,
        "time": 30658,
        "channel": 9
      },
      {
        "type": "note_on",
        "note": 36,
        "velocity": 56,
        "time": 30696,
        "channel": 9
      },
      {
        "type": "note_off",
        "note": 36,
        "time": 30765,
        "channel": 9
      }
    ]
  },
  {
    "file": "data\\groove\\drummer1\\eval_session\\4_soul-groove4_80_beat_4-4.mid",
    "num_events": 447,
    "duration": 30712,
    "events": [
      {
        "type": "set_tempo",
        "tempo": 750000,
        "time": 0
      },
      {
        "type": "note_on",
        "note": 36,
        "velocity": 73,
        "time": 0,
        "channel": 9
      },
      {
        "type": "note_on",
        "note": 42,
        "velocity": 74,
        "time": 0,
        "channel": 9
      },
      {
        "type": "note_off",
        "note": 36,
        "time": 61,
        "channel": 9
      },
      {
        "type": "note_off",
        "note": 42,
        "time": 65,
        "channel": 9
      },
      {
        "type": "note_on",
        "note": 22,
        "velocity": 67,
        "time": 235,
        "channel": 9
      },
      {
        "type": "note_off",
        "note": 22,
        "time": 299,
        "channel": 9
      },
      {
        "type": "note_on",
        "note": 40,
        "velocity": 92,
        "time": 479,
        "channel": 9
      },
      {
        "type": "note_on",
        "note": 22,
        "velocity": 81,
        "time": 481,
        "channel": 9
      },
      {
        "type": "note_off",
        "note": 40,
        "time": 543,
        "channel": 9
      },
      {
        "type": "note_off",
        "note": 22,
        "time": 545,
        "channel": 9
      },
      {
        "type": "note_on",
        "note": 42,
        "velocity": 76,
        "time": 727,
        "channel": 9
      },
      {
        "type": "note_off",
        "note": 42,
        "time": 792,
        "channel": 9
      },
      {
        "type": "note_on",
        "note": 42,
        "velocity": 71,
        "time": 851,
        "channel": 9
      },
      {
        "type": "note_off",
        "note": 42,
        "time": 916,
        "channel": 9
      },
      {
        "type": "note_on",
        "note": 36,
        "velocity": 77,
        "time": 953,
        "channel": 9
      },
      {
        "type": "note_off",
        "note": 36,
        "time": 1017,
        "channel": 9
      },
      {
        "type": "note_on",
        "note": 42,
        "velocity": 72,
        "time": 1084,
        "channel": 9
      },
      {
        "type": "note_off",
        "note": 42,
        "time": 1150,
        "channel": 9
      },
      {
        "type": "note_on",
        "note": 22,
        "velocity": 76,
        "time": 1198,
        "channel": 9
      },
      {
        "type": "note_off",
        "note": 22,
        "time": 1263,
        "channel": 9
      },
      {
        "type": "note_on",
        "note": 22,
        "velocity": 74,
        "time": 1413,
        "channel": 9
      },
      {
        "type": "note_on",
        "note": 38,
        "velocity": 112,
        "time": 1418,
        "channel": 9
      },
      {
        "type": "note_off",
        "note": 22,
        "time": 1478,
        "channel": 9
      },
      {
        "type": "note_off",
        "note": 38,
        "time": 1482,
        "channel": 9
      },
      {
        "type": "note_on",
        "note": 42,
        "velocity": 88,
        "time": 1665,
        "channel": 9
      },
      {
        "type": "note_off",
        "note": 42,
        "time": 1730,
        "channel": 9
      },
      {
        "type": "note_on",
        "note": 42,
        "velocity": 58,
        "time": 1798,
        "channel": 9
      },
      {
        "type": "note_off",
        "note": 42,
        "time": 1862,
        "channel": 9
      },
      {
        "type": "note_on",
        "note": 36,
        "velocity": 95,
        "time": 1905,
        "channel": 9
      },
      {
        "type": "note_on",
        "note": 22,
        "velocity": 73,
        "time": 1912,
        "channel": 9
      },
      {
        "type": "note_off",
        "note": 36,
        "time": 1969,
        "channel": 9
      },
      {
        "type": "note_off",
        "note": 22,
        "time": 1977,
        "channel": 9
      },
      {
        "type": "note_on",
        "note": 22,
        "velocity": 99,
        "time": 2160,
        "channel": 9
      },
      {
        "type": "note_off",
        "note": 22,
        "time": 2225,
        "channel": 9
      },
      {
        "type": "note_on",
        "note": 40,
        "velocity": 97,
        "time": 2408,
        "channel": 9
      },
      {
        "type": "note_on",
        "note": 42,
        "velocity": 79,
        "time": 2409,
        "channel": 9
      },
      {
        "type": "note_off",
        "note": 40,
        "time": 2472,
        "channel": 9
      },
      {
        "type": "note_off",
        "note": 42,
        "time": 2474,
        "channel": 9
      },
      {
        "type": "note_on",
        "note": 42,
        "velocity": 73,
        "time": 2647,
        "channel": 9
      },
      {
        "type": "note_off",
        "note": 42,
        "time": 2712,
        "channel": 9
      },
      {
        "type": "note_on",
        "note": 42,
        "velocity": 78,
        "time": 2765,
        "channel": 9
      },
      {
        "type": "note_off",
        "note": 42,
        "time": 2829,
        "channel": 9
      },
      {
        "type": "note_on",
        "note": 36,
        "velocity": 76,
        "time": 2885,
        "channel": 9
      },
      {
        "type": "note_off",
        "note": 36,
        "time": 2950,
        "channel": 9
      },
      {
        "type": "note_on",
        "note": 42,
        "velocity": 70,
        "time": 3000,
        "channel": 9
      },
      {
        "type": "note_off",
        "note": 42,
        "time": 3065,
        "channel": 9
      },
      {
        "type": "note_on",
        "note": 22,
        "velocity": 74,
        "time": 3115,
        "channel": 9
      },
      {
        "type": "note_off",
        "note": 22,
        "time": 3180,
        "channel": 9
      },
      {
        "type": "note_on",
        "note": 42,
        "velocity": 67,
        "time": 3347,
        "channel": 9
      },
      {
        "type": "note_on",
        "note": 40,
        "velocity": 93,
        "time": 3350,
        "channel": 9
      },
      {
        "type": "note_off",
        "note": 42,
        "time": 3411,
        "channel": 9
      },
      {
        "type": "note_off",
        "note": 40,
        "time": 3414,
        "channel": 9
      },
      {
        "type": "note_on",
        "note": 26,
        "velocity": 113,
        "time": 3592,
        "channel": 9
      },
      {
        "type": "note_off",
        "note": 26,
        "time": 3657,
        "channel": 9
      },
      {
        "type": "note_on",
        "note": 44,
        "velocity": 57,
        "time": 3822,
        "channel": 9
      },
      {
        "type": "note_on",
        "note": 36,
        "velocity": 93,
        "time": 3833,
        "channel": 9
      },
      {
        "type": "note_on",
        "note": 42,
        "velocity": 33,
        "time": 3837,
        "channel": 9
      },
      {
        "type": "note_off",
        "note": 44,
        "time": 3886,
        "channel": 9
      },
      {
        "type": "note_off",
        "note": 36,
        "time": 3898,
        "channel": 9
      },
      {
        "type": "note_off",
        "note": 42,
        "time": 3901,
        "channel": 9
      },
      {
        "type": "note_on",
        "note": 42,
        "velocity": 86,
        "time": 4086,
        "channel": 9
      },
      {
        "type": "note_off",
        "note": 42,
        "time": 4150,
        "channel": 9
      },
      {
        "type": "note_on",
        "note": 38,
        "velocity": 121,
        "time": 4321,
        "channel": 9
      },
      {
        "type": "note_on",
        "note": 42,
        "velocity": 72,
        "time": 4323,
        "channel": 9
      },
      {
        "type": "note_off",
        "note": 38,
        "time": 4385,
        "channel": 9
      },
      {
        "type": "note_off",
        "note": 42,
        "time": 4388,
        "channel": 9
      },
      {
        "type": "note_on",
        "note": 42,
        "velocity": 65,
        "time": 4571,
        "channel": 9
      },
      {
        "type": "note_off",
        "note": 42,
        "time": 4636,
        "channel": 9
      },
      {
        "type": "note_on",
        "note": 42,
        "velocity": 64,
        "time": 4694,
        "channel": 9
      },
      {
        "type": "note_off",
        "note": 42,
        "time": 4759,
        "channel": 9
      },
      {
        "type": "note_on",
        "note": 36,
        "velocity": 63,
        "time": 4800,
        "channel": 9
      },
      {
        "type": "note_off",
        "note": 36,
        "time": 4865,
        "channel": 9
      },
      {
        "type": "note_on",
        "note": 42,
        "velocity": 65,
        "time": 4926,
        "channel": 9
      },
      {
        "type": "note_off",
        "note": 42,
        "time": 4991,
        "channel": 9
      },
      {
        "type": "note_on",
        "note": 42,
        "velocity": 55,
        "time": 5041,
        "channel": 9
      },
      {
        "type": "note_off",
        "note": 42,
        "time": 5106,
        "channel": 9
      },
      {
        "type": "note_on",
        "note": 40,
        "velocity": 111,
        "time": 5274,
        "channel": 9
      },
      {
        "type": "note_on",
        "note": 42,
        "velocity": 77,
        "time": 5274,
        "channel": 9
      },
      {
        "type": "note_off",
        "note": 40,
        "time": 5339,
        "channel": 9
      },
      {
        "type": "note_off",
        "note": 42,
        "time": 5339,
        "channel": 9
      },
      {
        "type": "note_on",
        "note": 42,
        "velocity": 76,
        "time": 5516,
        "channel": 9
      },
      {
        "type": "note_off",
        "note": 42,
        "time": 5581,
        "channel": 9
      },
      {
        "type": "note_on",
        "note": 42,
        "velocity": 38,
        "time": 5641,
        "channel": 9
      },
      {
        "type": "note_off",
        "note": 42,
        "time": 5706,
        "channel": 9
      },
      {
        "type": "note_on",
        "note": 36,
        "velocity": 96,
        "time": 5752,
        "channel": 9
      },
      {
        "type": "note_on",
        "note": 22,
        "velocity": 53,
        "time": 5756,
        "channel": 9
      },
      {
        "type": "note_off",
        "note": 36,
        "time": 5816,
        "channel": 9
      },
      {
        "type": "note_off",
        "note": 22,
        "time": 5821,
        "channel": 9
      },
      {
        "type": "note_on",
        "note": 22,
        "velocity": 93,
        "time": 6000,
        "channel": 9
      },
      {
        "type": "note_off",
        "note": 22,
        "time": 6065,
        "channel": 9
      },
      {
        "type": "note_on",
        "note": 40,
        "velocity": 108,
        "time": 6247,
        "channel": 9
      },
      {
        "type": "note_on",
        "note": 22,
        "velocity": 99,
        "time": 6248,
        "channel": 9
      },
      {
        "type": "note_off",
        "note": 40,
        "time": 6311,
        "channel": 9
      },
      {
        "type": "note_off",
        "note": 22,
        "time": 6313,
        "channel": 9
      },
      {
        "type": "note_on",
        "note": 42,
        "velocity": 74,
        "time": 6491,
        "channel": 9
      },
      {
        "type": "note_off",
        "note": 42,
        "time": 6556,
        "channel": 9
      },
      {
        "type": "note_on",
        "note": 22,
        "velocity": 87,
        "time": 6611,
        "channel": 9
      },
      {
        "type": "note_off",
        "note": 22,
        "time": 6676,
        "channel": 9
      },
      {
        "type": "note_on",
        "note": 36,
        "velocity": 99,
        "time": 6727,
        "channel": 9
      },
      {
        "type": "note_off",
        "note": 36,
        "time": 6791,
        "channel": 9
      },
      {
        "type": "note_on",
        "note": 42,
        "velocity": 60,
        "time": 6843,
        "channel": 9
      },
      {
        "type": "note_off",
        "note": 42,
        "time": 6908,
        "channel": 9
      },
      {
        "type": "note_on",
        "note": 22,
        "velocity": 90,
        "time": 6963,
        "channel": 9
      },
      {
        "type": "note_off",
        "note": 22,
        "time": 7028,
        "channel": 9
      },
      {
        "type": "note_on",
        "note": 40,
        "velocity": 114,
        "time": 7195,
        "channel": 9
      },
      {
        "type": "note_on",
        "note": 42,
        "velocity": 80,
        "time": 7195,
        "channel": 9
      },
      {
        "type": "note_off",
        "note": 40,
        "time": 7259,
        "channel": 9
      },
      {
        "type": "note_off",
        "note": 42,
        "time": 7261,
        "channel": 9
      },
      {
        "type": "note_on",
        "note": 26,
        "velocity": 119,
        "time": 7441,
        "channel": 9
      },
      {
        "type": "note_off",
        "note": 26,
        "time": 7505,
        "channel": 9
      },
      {
        "type": "note_on",
        "note": 44,
        "velocity": 52,
        "time": 7677,
        "channel": 9
      },
      {
        "type": "note_on",
        "note": 36,
        "velocity": 118,
        "time": 7692,
        "channel": 9
      },
      {
        "type": "note_on",
        "note": 22,
        "velocity": 40,
        "time": 7710,
        "channel": 9
      },
      {
        "type": "note_off",
        "note": 44,
        "time": 7742,
        "channel": 9
      },
      {
        "type": "note_off",
        "note": 36,
        "time": 7757,
        "channel": 9
      },
      {
        "type": "note_off",
        "note": 22,
        "time": 7775,
        "channel": 9
      },
      {
        "type": "note_on",
        "note": 42,
        "velocity": 76,
        "time": 7935,
        "channel": 9
      },
      {
        "type": "note_off",
        "note": 42,
        "time": 8000,
        "channel": 9
      },
      {
        "type": "note_on",
        "note": 38,
        "velocity": 127,
        "time": 8165,
        "channel": 9
      },
      {
        "type": "note_on",
        "note": 22,
        "velocity": 102,
        "time": 8170,
        "channel": 9
      },
      {
        "type": "note_off",
        "note": 38,
        "time": 8230,
        "channel": 9
      },
      {
        "type": "note_off",
        "note": 22,
        "time": 8234,
        "channel": 9
      },
      {
        "type": "note_on",
        "note": 42,
        "velocity": 64,
        "time": 8398,
        "channel": 9
      },
      {
        "type": "note_off",
        "note": 42,
        "time": 8463,
        "channel": 9
      },
      {
        "type": "note_on",
        "note": 22,
        "velocity": 73,
        "time": 8512,
        "channel": 9
      },
      {
        "type": "note_off",
        "note": 22,
        "time": 8577,
        "channel": 9
      },
      {
        "type": "note_on",
        "note": 36,
        "velocity": 60,
        "time": 8634,
        "channel": 9
      },
      {
        "type": "note_off",
        "note": 36,
        "time": 8699,
        "channel": 9
      },
      {
        "type": "note_on",
        "note": 42,
        "velocity": 61,
        "time": 8751,
        "channel": 9
      },
      {
        "type": "note_off",
        "note": 42,
        "time": 8816,
        "channel": 9
      },
      {
        "type": "note_on",
        "note": 22,
        "velocity": 78,
        "time": 8869,
        "channel": 9
      },
      {
        "type": "note_off",
        "note": 22,
        "time": 8934,
        "channel": 9
      },
      {
        "type": "note_on",
        "note": 38,
        "velocity": 127,
        "time": 9110,
        "channel": 9
      },
      {
        "type": "note_on",
        "note": 22,
        "velocity": 111,
        "time": 9115,
        "channel": 9
      },
      {
        "type": "note_off",
        "note": 38,
        "time": 9175,
        "channel": 9
      },
      {
        "type": "note_off",
        "note": 22,
        "time": 9180,
        "channel": 9
      },
      {
        "type": "note_on",
        "note": 42,
        "velocity": 90,
        "time": 9349,
        "channel": 9
      },
      {
        "type": "note_off",
        "note": 42,
        "time": 9414,
        "channel": 9
      },
      {
        "type": "note_on",
        "note": 42,
        "velocity": 54,
        "time": 9473,
        "channel": 9
      },
      {
        "type": "note_off",
        "note": 42,
        "time": 9537,
        "channel": 9
      },
      {
        "type": "note_on",
        "note": 22,
        "velocity": 67,
        "time": 9588,
        "channel": 9
      },
      {
        "type": "note_on",
        "note": 36,
        "velocity": 84,
        "time": 9594,
        "channel": 9
      },
      {
        "type": "note_off",
        "note": 22,
        "time": 9653,
        "channel": 9
      },
      {
        "type": "note_off",
        "note": 36,
        "time": 9658,
        "channel": 9
      },
      {
        "type": "note_on",
        "note": 42,
        "velocity": 70,
        "time": 9845,
        "channel": 9
      },
      {
        "type": "note_off",
        "note": 42,
        "time": 9910,
        "channel": 9
      },
      {
        "type": "note_on",
        "note": 38,
        "velocity": 127,
        "time": 10081,
        "channel": 9
      },
      {
        "type": "note_on",
        "note": 22,
        "velocity": 99,
        "time": 10087,
        "channel": 9
      },
      {
        "type": "note_off",
        "note": 38,
        "time": 10146,
        "channel": 9
      },
      {
        "type": "note_off",
        "note": 22,
        "time": 10152,
        "channel": 9
      },
      {
        "type": "note_on",
        "note": 42,
        "velocity": 67,
        "time": 10314,
        "channel": 9
      },
      {
        "type": "note_off",
        "note": 42,
        "time": 10379,
        "channel": 9
      },
      {
        "type": "note_on",
        "note": 22,
        "velocity": 85,
        "time": 10434,
        "channel": 9
      },
      {
        "type": "note_off",
        "note": 22,
        "time": 10498,
        "channel": 9
      },
      {
        "type": "note_on",
        "note": 36,
        "velocity": 59,
        "time": 10558,
        "channel": 9
      },
      {
        "type": "note_off",
        "note": 36,
        "time": 10623,
        "channel": 9
      },
      {
        "type": "note_on",
        "note": 42,
        "velocity": 55,
        "time": 10667,
        "channel": 9
      },
      {
        "type": "note_off",
        "note": 42,
        "time": 10732,
        "channel": 9
      },
      {
        "type": "note_on",
        "note": 22,
        "velocity": 74,
        "time": 10787,
        "channel": 9
      },
      {
        "type": "note_off",
        "note": 22,
        "time": 10852,
        "channel": 9
      },
      {
        "type": "note_on",
        "note": 40,
        "velocity": 111,
        "time": 11015,
        "channel": 9
      },
      {
        "type": "note_on",
        "note": 42,
        "velocity": 80,
        "time": 11021,
        "channel": 9
      },
      {
        "type": "note_off",
        "note": 40,
        "time": 11080,
        "channel": 9
      },
      {
        "type": "note_off",
        "note": 42,
        "time": 11086,
        "channel": 9
      },
      {
        "type": "note_on",
        "note": 26,
        "velocity": 113,
        "time": 11261,
        "channel": 9
      },
      {
        "type": "note_off",
        "note": 26,
        "time": 11325,
        "channel": 9
      },
      {
        "type": "note_on",
        "note": 44,
        "velocity": 47,
        "time": 11495,
        "channel": 9
      },
      {
        "type": "note_on",
        "note": 36,
        "velocity": 117,
        "time": 11506,
        "channel": 9
      },
      {
        "type": "note_on",
        "note": 42,
        "velocity": 50,
        "time": 11513,
        "channel": 9
      },
      {
        "type": "note_off",
        "note": 44,
        "time": 11560,
        "channel": 9
      },
      {
        "type": "note_off",
        "note": 36,
        "time": 11570,
        "channel": 9
      },
      {
        "type": "note_off",
        "note": 42,
        "time": 11578,
        "channel": 9
      },
      {
        "type": "note_on",
        "note": 42,
        "velocity": 77,
        "time": 11758,
        "channel": 9
      },
      {
        "type": "note_off",
        "note": 42,
        "time": 11823,
        "channel": 9
      },
      {
        "type": "note_on",
        "note": 38,
        "velocity": 127,
        "time": 11998,
        "channel": 9
      },
      {
        "type": "note_on",
        "note": 22,
        "velocity": 87,
        "time": 12005,
        "channel": 9
      },
      {
        "type": "note_off",
        "note": 38,
        "time": 12063,
        "channel": 9
      },
      {
        "type": "note_off",
        "note": 22,
        "time": 12070,
        "channel": 9
      },
      {
        "type": "note_on",
        "note": 42,
        "velocity": 51,
        "time": 12253,
        "channel": 9
      },
      {
        "type": "note_off",
        "note": 42,
        "time": 12318,
        "channel": 9
      },
      {
        "type": "note_on",
        "note": 22,
        "velocity": 80,
        "time": 12366,
        "channel": 9
      },
      {
        "type": "note_off",
        "note": 22,
        "time": 12431,
        "channel": 9
      },
      {
        "type": "note_on",
        "note": 36,
        "velocity": 67,
        "time": 12475,
        "channel": 9
      },
      {
        "type": "note_off",
        "note": 36,
        "time": 12539,
        "channel": 9
      },
      {
        "type": "note_on",
        "note": 42,
        "velocity": 43,
        "time": 12597,
        "channel": 9
      },
      {
        "type": "note_off",
        "note": 42,
        "time": 12662,
        "channel": 9
      },
      {
        "type": "note_on",
        "note": 22,
        "velocity": 106,
        "time": 12715,
        "channel": 9
      },
      {
        "type": "note_off",
        "note": 22,
        "time": 12779,
        "channel": 9
      },
      {
        "type": "note_on",
        "note": 40,
        "velocity": 105,
        "time": 12955,
        "channel": 9
      },
      {
        "type": "note_on",
        "note": 22,
        "velocity": 82,
        "time": 12961,
        "channel": 9
      },
      {
        "type": "note_off",
        "note": 40,
        "time": 13019,
        "channel": 9
      },
      {
        "type": "note_off",
        "note": 22,
        "time": 13026,
        "channel": 9
      },
      {
        "type": "note_on",
        "note": 42,
        "velocity": 64,
        "time": 13202,
        "channel": 9
      },
      {
        "type": "note_off",
        "note": 42,
        "time": 13267,
        "channel": 9
      },
      {
        "type": "note_on",
        "note": 42,
        "velocity": 64,
        "time": 13323,
        "channel": 9
      },
      {
        "type": "note_off",
        "note": 42,
        "time": 13388,
        "channel": 9
      },
      {
        "type": "note_on",
        "note": 36,
        "velocity": 81,
        "time": 13431,
        "channel": 9
      },
      {
        "type": "note_on",
        "note": 22,
        "velocity": 79,
        "time": 13434,
        "channel": 9
      },
      {
        "type": "note_off",
        "note": 36,
        "time": 13496,
        "channel": 9
      },
      {
        "type": "note_off",
        "note": 22,
        "time": 13499,
        "channel": 9
      },
      {
        "type": "note_on",
        "note": 22,
        "velocity": 92,
        "time": 13687,
        "channel": 9
      },
      {
        "type": "note_off",
        "note": 22,
        "time": 13752,
        "channel": 9
      },
      {
        "type": "note_on",
        "note": 40,
        "velocity": 101,
        "time": 13921,
        "channel": 9
      },
      {
        "type": "note_on",
        "note": 22,
        "velocity": 93,
        "time": 13927,
        "channel": 9
      },
      {
        "type": "note_off",
        "note": 40,
        "time": 13986,
        "channel": 9
      },
      {
        "type": "note_off",
        "note": 22,
        "time": 13992,
        "channel": 9
      },
      {
        "type": "note_on",
        "note": 42,
        "velocity": 46,
        "time": 14157,
        "channel": 9
      },
      {
        "type": "note_off",
        "note": 42,
        "time": 14222,
        "channel": 9
      },
      {
        "type": "note_on",
        "note": 22,
        "velocity": 97,
        "time": 14281,
        "channel": 9
      },
      {
        "type": "note_off",
        "note": 22,
        "time": 14346,
        "channel": 9
      },
      {
        "type": "note_on",
        "note": 36,
        "velocity": 60,
        "time": 14399,
        "channel": 9
      },
      {
        "type": "note_off",
        "note": 36,
        "time": 14463,
        "channel": 9
      },
      {
        "type": "note_on",
        "note": 42,
        "velocity": 11,
        "time": 14524,
        "channel": 9
      },
      {
        "type": "note_off",
        "note": 42,
        "time": 14589,
        "channel": 9
      },
      {
        "type": "note_on",
        "note": 22,
        "velocity": 92,
        "time": 14635,
        "channel": 9
      },
      {
        "type": "note_off",
        "note": 22,
        "time": 14699,
        "channel": 9
      },
      {
        "type": "note_on",
        "note": 40,
        "velocity": 122,
        "time": 14867,
        "channel": 9
      },
      {
        "type": "note_on",
        "note": 42,
        "velocity": 77,
        "time": 14867,
        "channel": 9
      },
      {
        "type": "note_off",
        "note": 40,
        "time": 14932,
        "channel": 9
      },
      {
        "type": "note_off",
        "note": 42,
        "time": 14932,
        "channel": 9
      },
      {
        "type": "note_on",
        "note": 26,
        "velocity": 104,
        "time": 15109,
        "channel": 9
      },
      {
        "type": "note_off",
        "note": 26,
        "time": 15174,
        "channel": 9
      },
      {
        "type": "note_on",
        "note": 44,
        "velocity": 50,
        "time": 15345,
        "channel": 9
      },
      {
        "type": "note_on",
        "note": 36,
        "velocity": 127,
        "time": 15353,
        "channel": 9
      },
      {
        "type": "note_on",
        "note": 22,
        "velocity": 44,
        "time": 15365,
        "channel": 9
      },
      {
        "type": "note_off",
        "note": 44,
        "time": 15410,
        "channel": 9
      },
      {
        "type": "note_off",
        "note": 36,
        "time": 15418,
        "channel": 9
      },
      {
        "type": "note_off",
        "note": 22,
        "time": 15430,
        "channel": 9
      },
      {
        "type": "note_on",
        "note": 22,
        "velocity": 97,
        "time": 15604,
        "channel": 9
      },
      {
        "type": "note_off",
        "note": 22,
        "time": 15670,
        "channel": 9
      },
      {
        "type": "note_on",
        "note": 38,
        "velocity": 127,
        "time": 15839,
        "channel": 9
      },
      {
        "type": "note_on",
        "note": 22,
        "velocity": 110,
        "time": 15850,
        "channel": 9
      },
      {
        "type": "note_off",
        "note": 38,
        "time": 15903,
        "channel": 9
      },
      {
        "type": "note_off",
        "note": 22,
        "time": 15914,
        "channel": 9
      },
      {
        "type": "note_on",
        "note": 42,
        "velocity": 48,
        "time": 16086,
        "channel": 9
      },
      {
        "type": "note_off",
        "note": 42,
        "time": 16151,
        "channel": 9
      },
      {
        "type": "note_on",
        "note": 22,
        "velocity": 111,
        "time": 16202,
        "channel": 9
      },
      {
        "type": "note_off",
        "note": 22,
        "time": 16266,
        "channel": 9
      },
      {
        "type": "note_on",
        "note": 36,
        "velocity": 70,
        "time": 16313,
        "channel": 9
      },
      {
        "type": "note_off",
        "note": 36,
        "time": 16378,
        "channel": 9
      },
      {
        "type": "note_on",
        "note": 42,
        "velocity": 37,
        "time": 16420,
        "channel": 9
      },
      {
        "type": "note_off",
        "note": 42,
        "time": 16485,
        "channel": 9
      },
      {
        "type": "note_on",
        "note": 22,
        "velocity": 103,
        "time": 16544,
        "channel": 9
      },
      {
        "type": "note_off",
        "note": 22,
        "time": 16609,
        "channel": 9
      },
      {
        "type": "note_on",
        "note": 40,
        "velocity": 111,
        "time": 16778,
        "channel": 9
      },
      {
        "type": "note_on",
        "note": 22,
        "velocity": 61,
        "time": 16783,
        "channel": 9
      },
      {
        "type": "note_off",
        "note": 40,
        "time": 16842,
        "channel": 9
      },
      {
        "type": "note_off",
        "note": 22,
        "time": 16848,
        "channel": 9
      },
      {
        "type": "note_on",
        "note": 42,
        "velocity": 48,
        "time": 17029,
        "channel": 9
      },
      {
        "type": "note_off",
        "note": 42,
        "time": 17094,
        "channel": 9
      },
      {
        "type": "note_on",
        "note": 42,
        "velocity": 37,
        "time": 17148,
        "channel": 9
      },
      {
        "type": "note_off",
        "note": 42,
        "time": 17213,
        "channel": 9
      },
      {
        "type": "note_on",
        "note": 22,
        "velocity": 76,
        "time": 17258,
        "channel": 9
      },
      {
        "type": "note_on",
        "note": 36,
        "velocity": 83,
        "time": 17261,
        "channel": 9
      },
      {
        "type": "note_off",
        "note": 22,
        "time": 17323,
        "channel": 9
      },
      {
        "type": "note_off",
        "note": 36,
        "time": 17325,
        "channel": 9
      },
      {
        "type": "note_on",
        "note": 22,
        "velocity": 88,
        "time": 17509,
        "channel": 9
      },
      {
        "type": "note_off",
        "note": 22,
        "time": 17574,
        "channel": 9
      },
      {
        "type": "note_on",
        "note": 40,
        "velocity": 106,
        "time": 17753,
        "channel": 9
      },
      {
        "type": "note_on",
        "note": 22,
        "velocity": 72,
        "time": 17756,
        "channel": 9
      },
      {
        "type": "note_off",
        "note": 40,
        "time": 17817,
        "channel": 9
      },
      {
        "type": "note_off",
        "note": 22,
        "time": 17821,
        "channel": 9
      },
      {
        "type": "note_on",
        "note": 42,
        "velocity": 22,
        "time": 18007,
        "channel": 9
      },
      {
        "type": "note_off",
        "note": 42,
        "time": 18072,
        "channel": 9
      },
      {
        "type": "note_on",
        "note": 22,
        "velocity": 94,
        "time": 18122,
        "channel": 9
      },
      {
        "type": "note_off",
        "note": 22,
        "time": 18187,
        "channel": 9
      },
      {
        "type": "note_on",
        "note": 36,
        "velocity": 64,
        "time": 18231,
        "channel": 9
      },
      {
        "type": "note_off",
        "note": 36,
        "time": 18296,
        "channel": 9
      },
      {
        "type": "note_on",
        "note": 42,
        "velocity": 21,
        "time": 18368,
        "channel": 9
      },
      {
        "type": "note_off",
        "note": 42,
        "time": 18433,
        "channel": 9
      },
      {
        "type": "note_on",
        "note": 22,
        "velocity": 108,
        "time": 18477,
        "channel": 9
      },
      {
        "type": "note_off",
        "note": 22,
        "time": 18542,
        "channel": 9
      },
      {
        "type": "note_on",
        "note": 22,
        "velocity": 82,
        "time": 18715,
        "channel": 9
      },
      {
        "type": "note_on",
        "note": 40,
        "velocity": 98,
        "time": 18715,
        "channel": 9
      },
      {
        "type": "note_off",
        "note": 22,
        "time": 18780,
        "channel": 9
      },
      {
        "type": "note_off",
        "note": 40,
        "time": 18780,
        "channel": 9
      },
      {
        "type": "note_on",
        "note": 26,
        "velocity": 109,
        "time": 18957,
        "channel": 9
      },
      {
        "type": "note_off",
        "note": 26,
        "time": 19021,
        "channel": 9
      },
      {
        "type": "note_on",
        "note": 44,
        "velocity": 52,
        "time": 19181,
        "channel": 9
      },
      {
        "type": "note_on",
        "note": 36,
        "velocity": 97,
        "time": 19192,
        "channel": 9
      },
      {
        "type": "note_on",
        "note": 22,
        "velocity": 34,
        "time": 19208,
        "channel": 9
      },
      {
        "type": "note_off",
        "note": 44,
        "time": 19246,
        "channel": 9
      },
      {
        "type": "note_off",
        "note": 36,
        "time": 19257,
        "channel": 9
      },
      {
        "type": "note_off",
        "note": 22,
        "time": 19273,
        "channel": 9
      },
      {
        "type": "note_on",
        "note": 22,
        "velocity": 73,
        "time": 19437,
        "channel": 9
      },
      {
        "type": "note_off",
        "note": 22,
        "time": 19501,
        "channel": 9
      },
      {
        "type": "note_on",
        "note": 40,
        "velocity": 108,
        "time": 19679,
        "channel": 9
      },
      {
        "type": "note_on",
        "note": 22,
        "velocity": 88,
        "time": 19682,
        "channel": 9
      },
      {
        "type": "note_off",
        "note": 40,
        "time": 19744,
        "channel": 9
      },
      {
        "type": "note_off",
        "note": 22,
        "time": 19746,
        "channel": 9
      },
      {
        "type": "note_on",
        "note": 42,
        "velocity": 42,
        "time": 19927,
        "channel": 9
      },
      {
        "type": "note_off",
        "note": 42,
        "time": 19992,
        "channel": 9
      },
      {
        "type": "note_on",
        "note": 22,
        "velocity": 90,
        "time": 20037,
        "channel": 9
      },
      {
        "type": "note_off",
        "note": 22,
        "time": 20102,
        "channel": 9
      },
      {
        "type": "note_on",
        "note": 36,
        "velocity": 61,
        "time": 20150,
        "channel": 9
      },
      {
        "type": "note_off",
        "note": 36,
        "time": 20215,
        "channel": 9
      },
      {
        "type": "note_on",
        "note": 42,
        "velocity": 40,
        "time": 20285,
        "channel": 9
      },
      {
        "type": "note_off",
        "note": 42,
        "time": 20350,
        "channel": 9
      },
      {
        "type": "note_on",
        "note": 22,
        "velocity": 94,
        "time": 20393,
        "channel": 9
      },
      {
        "type": "note_off",
        "note": 22,
        "time": 20458,
        "channel": 9
      },
      {
        "type": "note_on",
        "note": 40,
        "velocity": 103,
        "time": 20637,
        "channel": 9
      },
      {
        "type": "note_on",
        "note": 22,
        "velocity": 89,
        "time": 20642,
        "channel": 9
      },
      {
        "type": "note_off",
        "note": 40,
        "time": 20701,
        "channel": 9
      },
      {
        "type": "note_off",
        "note": 22,
        "time": 20707,
        "channel": 9
      },
      {
        "type": "note_on",
        "note": 42,
        "velocity": 61,
        "time": 20877,
        "channel": 9
      },
      {
        "type": "note_off",
        "note": 42,
        "time": 20942,
        "channel": 9
      },
      {
        "type": "note_on",
        "note": 42,
        "velocity": 48,
        "time": 21005,
        "channel": 9
      },
      {
        "type": "note_off",
        "note": 42,
        "time": 21069,
        "channel": 9
      },
      {
        "type": "note_on",
        "note": 36,
        "velocity": 110,
        "time": 21107,
        "channel": 9
      },
      {
        "type": "note_on",
        "note": 22,
        "velocity": 71,
        "time": 21111,
        "channel": 9
      },
      {
        "type": "note_off",
        "note": 36,
        "time": 21171,
        "channel": 9
      },
      {
        "type": "note_off",
        "note": 22,
        "time": 21175,
        "channel": 9
      },
      {
        "type": "note_on",
        "note": 22,
        "velocity": 76,
        "time": 21361,
        "channel": 9
      },
      {
        "type": "note_off",
        "note": 22,
        "time": 21426,
        "channel": 9
      },
      {
        "type": "note_on",
        "note": 40,
        "velocity": 113,
        "time": 21603,
        "channel": 9
      },
      {
        "type": "note_on",
        "note": 22,
        "velocity": 70,
        "time": 21606,
        "channel": 9
      },
      {
        "type": "note_off",
        "note": 40,
        "time": 21667,
        "channel": 9
      },
      {
        "type": "note_off",
        "note": 22,
        "time": 21670,
        "channel": 9
      },
      {
        "type": "note_on",
        "note": 42,
        "velocity": 45,
        "time": 21841,
        "channel": 9
      },
      {
        "type": "note_off",
        "note": 42,
        "time": 21906,
        "channel": 9
      },
      {
        "type": "note_on",
        "note": 22,
        "velocity": 96,
        "time": 21961,
        "channel": 9
      },
      {
        "type": "note_off",
        "note": 22,
        "time": 22026,
        "channel": 9
      },
      {
        "type": "note_on",
        "note": 36,
        "velocity": 67,
        "time": 22075,
        "channel": 9
      },
      {
        "type": "note_off",
        "note": 36,
        "time": 22140,
        "channel": 9
      },
      {
        "type": "note_on",
        "note": 42,
        "velocity": 51,
        "time": 22201,
        "channel": 9
      },
      {
        "type": "note_off",
        "note": 42,
        "time": 22265,
        "channel": 9
      },
      {
        "type": "note_on",
        "note": 22,
        "velocity": 70,
        "time": 22310,
        "channel": 9
      },
      {
        "type": "note_off",
        "note": 22,
        "time": 22374,
        "channel": 9
      },
      {
        "type": "note_on",
        "note": 40,
        "velocity": 108,
        "time": 22545,
        "channel": 9
      },
      {
        "type": "note_on",
        "note": 22,
        "velocity": 67,
        "time": 22549,
        "channel": 9
      },
      {
        "type": "note_off",
        "note": 40,
        "time": 22609,
        "channel": 9
      },
      {
        "type": "note_off",
        "note": 22,
        "time": 22614,
        "channel": 9
      },
      {
        "type": "note_on",
        "note": 26,
        "velocity": 114,
        "time": 22777,
        "channel": 9
      },
      {
        "type": "note_off",
        "note": 26,
        "time": 22842,
        "channel": 9
      },
      {
        "type": "note_on",
        "note": 44,
        "velocity": 32,
        "time": 23021,
        "channel": 9
      },
      {
        "type": "note_on",
        "note": 36,
        "velocity": 89,
        "time": 23041,
        "channel": 9
      },
      {
        "type": "note_on",
        "note": 42,
        "velocity": 47,
        "time": 23050,
        "channel": 9
      },
      {
        "type": "note_off",
        "note": 44,
        "time": 23086,
        "channel": 9
      },
      {
        "type": "note_off",
        "note": 36,
        "time": 23106,
        "channel": 9
      },
      {
        "type": "note_off",
        "note": 42,
        "time": 23116,
        "channel": 9
      },
      {
        "type": "note_on",
        "note": 42,
        "velocity": 57,
        "time": 23285,
        "channel": 9
      },
      {
        "type": "note_off",
        "note": 42,
        "time": 23350,
        "channel": 9
      },
      {
        "type": "note_on",
        "note": 38,
        "velocity": 103,
        "time": 23522,
        "channel": 9
      },
      {
        "type": "note_on",
        "note": 22,
        "velocity": 80,
        "time": 23525,
        "channel": 9
      },
      {
        "type": "note_off",
        "note": 38,
        "time": 23586,
        "channel": 9
      },
      {
        "type": "note_off",
        "note": 22,
        "time": 23590,
        "channel": 9
      },
      {
        "type": "note_on",
        "note": 42,
        "velocity": 65,
        "time": 23765,
        "channel": 9
      },
      {
        "type": "note_off",
        "note": 42,
        "time": 23829,
        "channel": 9
      },
      {
        "type": "note_on",
        "note": 42,
        "velocity": 58,
        "time": 23881,
        "channel": 9
      },
      {
        "type": "note_off",
        "note": 42,
        "time": 23946,
        "channel": 9
      },
      {
        "type": "note_on",
        "note": 36,
        "velocity": 65,
        "time": 23998,
        "channel": 9
      },
      {
        "type": "note_off",
        "note": 36,
        "time": 24062,
        "channel": 9
      },
      {
        "type": "note_on",
        "note": 42,
        "velocity": 70,
        "time": 24117,
        "channel": 9
      },
      {
        "type": "note_off",
        "note": 42,
        "time": 24182,
        "channel": 9
      },
      {
        "type": "note_on",
        "note": 22,
        "velocity": 92,
        "time": 24231,
        "channel": 9
      },
      {
        "type": "note_off",
        "note": 22,
        "time": 24296,
        "channel": 9
      },
      {
        "type": "note_on",
        "note": 38,
        "velocity": 103,
        "time": 24473,
        "channel": 9
      },
      {
        "type": "note_on",
        "note": 42,
        "velocity": 83,
        "time": 24474,
        "channel": 9
      },
      {
        "type": "note_off",
        "note": 38,
        "time": 24538,
        "channel": 9
      },
      {
        "type": "note_off",
        "note": 42,
        "time": 24539,
        "channel": 9
      },
      {
        "type": "note_on",
        "note": 42,
        "velocity": 86,
        "time": 24714,
        "channel": 9
      },
      {
        "type": "note_off",
        "note": 42,
        "time": 24779,
        "channel": 9
      },
      {
        "type": "note_on",
        "note": 42,
        "velocity": 59,
        "time": 24847,
        "channel": 9
      },
      {
        "type": "note_off",
        "note": 42,
        "time": 24911,
        "channel": 9
      },
      {
        "type": "note_on",
        "note": 36,
        "velocity": 78,
        "time": 24956,
        "channel": 9
      },
      {
        "type": "note_on",
        "note": 22,
        "velocity": 61,
        "time": 24959,
        "channel": 9
      },
      {
        "type": "note_off",
        "note": 36,
        "time": 25020,
        "channel": 9
      },
      {
        "type": "note_off",
        "note": 22,
        "time": 25024,
        "channel": 9
      },
      {
        "type": "note_on",
        "note": 22,
        "velocity": 91,
        "time": 25197,
        "channel": 9
      },
      {
        "type": "note_off",
        "note": 22,
        "time": 25262,
        "channel": 9
      },
      {
        "type": "note_on",
        "note": 22,
        "velocity": 74,
        "time": 25439,
        "channel": 9
      },
      {
        "type": "note_on",
        "note": 38,
        "velocity": 112,
        "time": 25439,
        "channel": 9
      },
      {
        "type": "note_off",
        "note": 22,
        "time": 25504,
        "channel": 9
      },
      {
        "type": "note_off",
        "note": 38,
        "time": 25504,
        "channel": 9
      },
      {
        "type": "note_on",
        "note": 42,
        "velocity": 60,
        "time": 25689,
        "channel": 9
      },
      {
        "type": "note_off",
        "note": 42,
        "time": 25754,
        "channel": 9
      },
      {
        "type": "note_on",
        "note": 22,
        "velocity": 69,
        "time": 25807,
        "channel": 9
      },
      {
        "type": "note_off",
        "note": 22,
        "time": 25871,
        "channel": 9
      },
      {
        "type": "note_on",
        "note": 36,
        "velocity": 63,
        "time": 25913,
        "channel": 9
      },
      {
        "type": "note_off",
        "note": 36,
        "time": 25978,
        "channel": 9
      },
      {
        "type": "note_on",
        "note": 42,
        "velocity": 53,
        "time": 26048,
        "channel": 9
      },
      {
        "type": "note_off",
        "note": 42,
        "time": 26113,
        "channel": 9
      },
      {
        "type": "note_on",
        "note": 22,
        "velocity": 84,
        "time": 26150,
        "channel": 9
      },
      {
        "type": "note_off",
        "note": 22,
        "time": 26214,
        "channel": 9
      },
      {
        "type": "note_on",
        "note": 38,
        "velocity": 127,
        "time": 26388,
        "channel": 9
      },
      {
        "type": "note_on",
        "note": 42,
        "velocity": 66,
        "time": 26390,
        "channel": 9
      },
      {
        "type": "note_off",
        "note": 38,
        "time": 26453,
        "channel": 9
      },
      {
        "type": "note_off",
        "note": 42,
        "time": 26455,
        "channel": 9
      },
      {
        "type": "note_on",
        "note": 26,
        "velocity": 103,
        "time": 26641,
        "channel": 9
      },
      {
        "type": "note_off",
        "note": 26,
        "time": 26706,
        "channel": 9
      },
      {
        "type": "note_on",
        "note": 44,
        "velocity": 42,
        "time": 26872,
        "channel": 9
      },
      {
        "type": "note_on",
        "note": 36,
        "velocity": 83,
        "time": 26890,
        "channel": 9
      },
      {
        "type": "note_on",
        "note": 42,
        "velocity": 43,
        "time": 26897,
        "channel": 9
      },
      {
        "type": "note_off",
        "note": 44,
        "time": 26937,
        "channel": 9
      },
      {
        "type": "note_off",
        "note": 36,
        "time": 26954,
        "channel": 9
      },
      {
        "type": "note_off",
        "note": 42,
        "time": 26962,
        "channel": 9
      },
      {
        "type": "note_on",
        "note": 42,
        "velocity": 62,
        "time": 27127,
        "channel": 9
      },
      {
        "type": "note_off",
        "note": 42,
        "time": 27192,
        "channel": 9
      },
      {
        "type": "note_on",
        "note": 38,
        "velocity": 127,
        "time": 27357,
        "channel": 9
      },
      {
        "type": "note_on",
        "note": 42,
        "velocity": 82,
        "time": 27359,
        "channel": 9
      },
      {
        "type": "note_off",
        "note": 38,
        "time": 27422,
        "channel": 9
      },
      {
        "type": "note_off",
        "note": 42,
        "time": 27424,
        "channel": 9
      },
      {
        "type": "note_on",
        "note": 42,
        "velocity": 61,
        "time": 27600,
        "channel": 9
      },
      {
        "type": "note_off",
        "note": 42,
        "time": 27665,
        "channel": 9
      },
      {
        "type": "note_on",
        "note": 22,
        "velocity": 71,
        "time": 27721,
        "channel": 9
      },
      {
        "type": "note_off",
        "note": 22,
        "time": 27786,
        "channel": 9
      },
      {
        "type": "note_on",
        "note": 36,
        "velocity": 67,
        "time": 27835,
        "channel": 9
      },
      {
        "type": "note_off",
        "note": 36,
        "time": 27900,
        "channel": 9
      },
      {
        "type": "note_on",
        "note": 42,
        "velocity": 41,
        "time": 27957,
        "channel": 9
      },
      {
        "type": "note_off",
        "note": 42,
        "time": 28021,
        "channel": 9
      },
      {
        "type": "note_on",
        "note": 22,
        "velocity": 79,
        "time": 28070,
        "channel": 9
      },
      {
        "type": "note_off",
        "note": 22,
        "time": 28135,
        "channel": 9
      },
      {
        "type": "note_on",
        "note": 40,
        "velocity": 100,
        "time": 28306,
        "channel": 9
      },
      {
        "type": "note_on",
        "note": 22,
        "velocity": 85,
        "time": 28308,
        "channel": 9
      },
      {
        "type": "note_off",
        "note": 40,
        "time": 28371,
        "channel": 9
      },
      {
        "type": "note_off",
        "note": 22,
        "time": 28373,
        "channel": 9
      },
      {
        "type": "note_on",
        "note": 42,
        "velocity": 66,
        "time": 28546,
        "channel": 9
      },
      {
        "type": "note_off",
        "note": 42,
        "time": 28611,
        "channel": 9
      },
      {
        "type": "note_on",
        "note": 42,
        "velocity": 43,
        "time": 28683,
        "channel": 9
      },
      {
        "type": "note_off",
        "note": 42,
        "time": 28748,
        "channel": 9
      },
      {
        "type": "note_on",
        "note": 22,
        "velocity": 79,
        "time": 28777,
        "channel": 9
      },
      {
        "type": "note_on",
        "note": 36,
        "velocity": 72,
        "time": 28777,
        "channel": 9
      },
      {
        "type": "note_off",
        "note": 22,
        "time": 28842,
        "channel": 9
      },
      {
        "type": "note_off",
        "note": 36,
        "time": 28842,
        "channel": 9
      },
      {
        "type": "note_on",
        "note": 22,
        "velocity": 86,
        "time": 29034,
        "channel": 9
      },
      {
        "type": "note_off",
        "note": 22,
        "time": 29098,
        "channel": 9
      },
      {
        "type": "note_on",
        "note": 40,
        "velocity": 109,
        "time": 29272,
        "channel": 9
      },
      {
        "type": "note_on",
        "note": 42,
        "velocity": 77,
        "time": 29274,
        "channel": 9
      },
      {
        "type": "note_off",
        "note": 40,
        "time": 29336,
        "channel": 9
      },
      {
        "type": "note_off",
        "note": 42,
        "time": 29339,
        "channel": 9
      },
      {
        "type": "note_on",
        "note": 42,
        "velocity": 54,
        "time": 29526,
        "channel": 9
      },
      {
        "type": "note_off",
        "note": 42,
        "time": 29590,
        "channel": 9
      },
      {
        "type": "note_on",
        "note": 22,
        "velocity": 91,
        "time": 29637,
        "channel": 9
      },
      {
        "type": "note_off",
        "note": 22,
        "time": 29702,
        "channel": 9
      },
      {
        "type": "note_on",
        "note": 36,
        "velocity": 67,
        "time": 29746,
        "channel": 9
      },
      {
        "type": "note_off",
        "note": 36,
        "time": 29811,
        "channel": 9
      },
      {
        "type": "note_on",
        "note": 42,
        "velocity": 46,
        "time": 29878,
        "channel": 9
      },
      {
        "type": "note_off",
        "note": 42,
        "time": 29943,
        "channel": 9
      },
      {
        "type": "note_on",
        "note": 22,
        "velocity": 86,
        "time": 29985,
        "channel": 9
      },
      {
        "type": "note_off",
        "note": 22,
        "time": 30050,
        "channel": 9
      },
      {
        "type": "note_on",
        "note": 42,
        "velocity": 58,
        "time": 30227,
        "channel": 9
      },
      {
        "type": "note_on",
        "note": 40,
        "velocity": 101,
        "time": 30229,
        "channel": 9
      },
      {
        "type": "note_off",
        "note": 42,
        "time": 30292,
        "channel": 9
      },
      {
        "type": "note_off",
        "note": 40,
        "time": 30293,
        "channel": 9
      },
      {
        "type": "note_on",
        "note": 26,
        "velocity": 96,
        "time": 30470,
        "channel": 9
      },
      {
        "type": "note_off",
        "note": 26,
        "time": 30534,
        "channel": 9
      }
    ]
  },
  {
    "file": "data\\groove\\drummer1\\eval_session\\5_funk-groove5_84_beat_4-4.mid",
    "num_events": 737,
    "duration": 30702,
    "events": [
      {
        "type": "set_tempo",
        "tempo": 714286,
        "time": 0
      },
      {
        "type": "note_on",
        "note": 26,
        "velocity": 61,
        "time": 0,
        "channel": 9
      },
      {
        "type": "note_on",
        "note": 38,
        "velocity": 79,
        "time": 0,
        "channel": 9
      },
      {
        "type": "note_off",
        "note": 26,
        "time": 64,
        "channel": 9
      },
      {
        "type": "note_off",
        "note": 38,
        "time": 65,
        "channel": 9
      },
      {
        "type": "note_on",
        "note": 26,
        "velocity": 71,
        "time": 381,
        "channel": 9
      },
      {
        "type": "note_on",
        "note": 38,
        "velocity": 76,
        "time": 382,
        "channel": 9
      },
      {
        "type": "note_off",
        "note": 26,
        "time": 449,
        "channel": 9
      },
      {
        "type": "note_off",
        "note": 38,
        "time": 449,
        "channel": 9
      },
      {
        "type": "note_on",
        "note": 38,
        "velocity": 81,
        "time": 726,
        "channel": 9
      },
      {
        "type": "note_on",
        "note": 26,
        "velocity": 68,
        "time": 730,
        "channel": 9
      },
      {
        "type": "note_off",
        "note": 38,
        "time": 794,
        "channel": 9
      },
      {
        "type": "note_off",
        "note": 26,
        "time": 798,
        "channel": 9
      },
      {
        "type": "note_on",
        "note": 44,
        "velocity": 27,
        "time": 962,
        "channel": 9
      },
      {
        "type": "note_off",
        "note": 44,
        "time": 1029,
        "channel": 9
      },
      {
        "type": "note_on",
        "note": 38,
        "velocity": 78,
        "time": 1099,
        "channel": 9
      },
      {
        "type": "note_off",
        "note": 38,
        "time": 1167,
        "channel": 9
      },
      {
        "type": "note_on",
        "note": 38,
        "velocity": 76,
        "time": 1212,
        "channel": 9
      },
      {
        "type": "note_off",
        "note": 38,
        "time": 1280,
        "channel": 9
      },
      {
        "type": "note_on",
        "note": 38,
        "velocity": 75,
        "time": 1442,
        "channel": 9
      },
      {
        "type": "note_off",
        "note": 38,
        "time": 1510,
        "channel": 9
      },
      {
        "type": "note_on",
        "note": 38,
        "velocity": 62,
        "time": 1563,
        "channel": 9
      },
      {
        "type": "note_off",
        "note": 38,
        "time": 1631,
        "channel": 9
      },
      {
        "type": "note_on",
        "note": 38,
        "velocity": 62,
        "time": 1686,
        "channel": 9
      },
      {
        "type": "note_off",
        "note": 38,
        "time": 1753,
        "channel": 9
      },
      {
        "type": "note_on",
        "note": 38,
        "velocity": 59,
        "time": 1800,
        "channel": 9
      },
      {
        "type": "note_off",
        "note": 38,
        "time": 1867,
        "channel": 9
      },
      {
        "type": "note_on",
        "note": 36,
        "velocity": 44,
        "time": 1914,
        "channel": 9
      },
      {
        "type": "note_on",
        "note": 42,
        "velocity": 53,
        "time": 1918,
        "channel": 9
      },
      {
        "type": "note_off",
        "note": 36,
        "time": 1982,
        "channel": 9
      },
      {
        "type": "note_off",
        "note": 42,
        "time": 1986,
        "channel": 9
      },
      {
        "type": "note_on",
        "note": 36,
        "velocity": 48,
        "time": 2035,
        "channel": 9
      },
      {
        "type": "note_on",
        "note": 42,
        "velocity": 31,
        "time": 2049,
        "channel": 9
      },
      {
        "type": "note_off",
        "note": 36,
        "time": 2103,
        "channel": 9
      },
      {
        "type": "note_off",
        "note": 42,
        "time": 2117,
        "channel": 9
      },
      {
        "type": "note_on",
        "note": 42,
        "velocity": 43,
        "time": 2165,
        "channel": 9
      },
      {
        "type": "note_off",
        "note": 42,
        "time": 2233,
        "channel": 9
      },
      {
        "type": "note_on",
        "note": 42,
        "velocity": 40,
        "time": 2266,
        "channel": 9
      },
      {
        "type": "note_on",
        "note": 36,
        "velocity": 46,
        "time": 2277,
        "channel": 9
      },
      {
        "type": "note_off",
        "note": 42,
        "time": 2334,
        "channel": 9
      },
      {
        "type": "note_off",
        "note": 36,
        "time": 2345,
        "channel": 9
      },
      {
        "type": "note_on",
        "note": 42,
        "velocity": 48,
        "time": 2399,
        "channel": 9
      },
      {
        "type": "note_on",
        "note": 37,
        "velocity": 82,
        "time": 2407,
        "channel": 9
      },
      {
        "type": "note_off",
        "note": 42,
        "time": 2468,
        "channel": 9
      },
      {
        "type": "note_off",
        "note": 37,
        "time": 2474,
        "channel": 9
      },
      {
        "type": "note_on",
        "note": 42,
        "velocity": 34,
        "time": 2512,
        "channel": 9
      },
      {
        "type": "note_off",
        "note": 42,
        "time": 2580,
        "channel": 9
      },
      {
        "type": "note_on",
        "note": 22,
        "velocity": 51,
        "time": 2628,
        "channel": 9
      },
      {
        "type": "note_off",
        "note": 22,
        "time": 2696,
        "channel": 9
      },
      {
        "type": "note_on",
        "note": 38,
        "velocity": 39,
        "time": 2737,
        "channel": 9
      },
      {
        "type": "note_on",
        "note": 42,
        "velocity": 40,
        "time": 2744,
        "channel": 9
      },
      {
        "type": "note_off",
        "note": 38,
        "time": 2805,
        "channel": 9
      },
      {
        "type": "note_off",
        "note": 42,
        "time": 2812,
        "channel": 9
      },
      {
        "type": "note_on",
        "note": 42,
        "velocity": 39,
        "time": 2863,
        "channel": 9
      },
      {
        "type": "note_off",
        "note": 42,
        "time": 2930,
        "channel": 9
      },
      {
        "type": "note_on",
        "note": 38,
        "velocity": 29,
        "time": 2955,
        "channel": 9
      },
      {
        "type": "note_on",
        "note": 42,
        "velocity": 33,
        "time": 2982,
        "channel": 9
      },
      {
        "type": "note_off",
        "note": 38,
        "time": 3023,
        "channel": 9
      },
      {
        "type": "note_off",
        "note": 42,
        "time": 3050,
        "channel": 9
      },
      {
        "type": "note_on",
        "note": 36,
        "velocity": 54,
        "time": 3083,
        "channel": 9
      },
      {
        "type": "note_on",
        "note": 42,
        "velocity": 48,
        "time": 3097,
        "channel": 9
      },
      {
        "type": "note_off",
        "note": 36,
        "time": 3150,
        "channel": 9
      },
      {
        "type": "note_off",
        "note": 42,
        "time": 3166,
        "channel": 9
      },
      {
        "type": "note_on",
        "note": 42,
        "velocity": 11,
        "time": 3216,
        "channel": 9
      },
      {
        "type": "note_off",
        "note": 42,
        "time": 3285,
        "channel": 9
      },
      {
        "type": "note_on",
        "note": 38,
        "velocity": 81,
        "time": 3334,
        "channel": 9
      },
      {
        "type": "note_on",
        "note": 42,
        "velocity": 51,
        "time": 3337,
        "channel": 9
      },
      {
        "type": "note_off",
        "note": 38,
        "time": 3402,
        "channel": 9
      },
      {
        "type": "note_off",
        "note": 42,
        "time": 3405,
        "channel": 9
      },
      {
        "type": "note_on",
        "note": 36,
        "velocity": 58,
        "time": 3454,
        "channel": 9
      },
      {
        "type": "note_on",
        "note": 42,
        "velocity": 24,
        "time": 3457,
        "channel": 9
      },
      {
        "type": "note_off",
        "note": 36,
        "time": 3521,
        "channel": 9
      },
      {
        "type": "note_off",
        "note": 42,
        "time": 3525,
        "channel": 9
      },
      {
        "type": "note_on",
        "note": 42,
        "velocity": 43,
        "time": 3580,
        "channel": 9
      },
      {
        "type": "note_off",
        "note": 42,
        "time": 3648,
        "channel": 9
      },
      {
        "type": "note_on",
        "note": 42,
        "velocity": 34,
        "time": 3692,
        "channel": 9
      },
      {
        "type": "note_on",
        "note": 38,
        "velocity": 19,
        "time": 3695,
        "channel": 9
      },
      {
        "type": "note_on",
        "note": 38,
        "velocity": 21,
        "time": 3717,
        "channel": 9
      },
      {
        "type": "note_off",
        "note": 38,
        "time": 3717,
        "channel": 9
      },
      {
        "type": "note_on",
        "note": 38,
        "velocity": 24,
        "time": 3732,
        "channel": 9
      },
      {
        "type": "note_off",
        "note": 38,
        "time": 3732,
        "channel": 9
      },
      {
        "type": "note_off",
        "note": 42,
        "time": 3760,
        "channel": 9
      },
      {
        "type": "note_off",
        "note": 38,
        "time": 3762,
        "channel": 9
      },
      {
        "type": "note_on",
        "note": 38,
        "velocity": 10,
        "time": 3788,
        "channel": 9
      },
      {
        "type": "note_off",
        "note": 38,
        "time": 3800,
        "channel": 9
      },
      {
        "type": "note_on",
        "note": 36,
        "velocity": 44,
        "time": 3806,
        "channel": 9
      },
      {
        "type": "note_on",
        "note": 42,
        "velocity": 35,
        "time": 3817,
        "channel": 9
      },
      {
        "type": "note_off",
        "note": 36,
        "time": 3873,
        "channel": 9
      },
      {
        "type": "note_off",
        "note": 42,
        "time": 3885,
        "channel": 9
      },
      {
        "type": "note_on",
        "note": 42,
        "velocity": 25,
        "time": 3929,
        "channel": 9
      },
      {
        "type": "note_on",
        "note": 36,
        "velocity": 55,
        "time": 3941,
        "channel": 9
      },
      {
        "type": "note_off",
        "note": 42,
        "time": 3997,
        "channel": 9
      },
      {
        "type": "note_off",
        "note": 36,
        "time": 4009,
        "channel": 9
      },
      {
        "type": "note_on",
        "note": 42,
        "velocity": 50,
        "time": 4057,
        "channel": 9
      },
      {
        "type": "note_off",
        "note": 42,
        "time": 4125,
        "channel": 9
      },
      {
        "type": "note_on",
        "note": 36,
        "velocity": 53,
        "time": 4160,
        "channel": 9
      },
      {
        "type": "note_on",
        "note": 42,
        "velocity": 27,
        "time": 4176,
        "channel": 9
      },
      {
        "type": "note_off",
        "note": 36,
        "time": 4228,
        "channel": 9
      },
      {
        "type": "note_off",
        "note": 42,
        "time": 4244,
        "channel": 9
      },
      {
        "type": "note_on",
        "note": 37,
        "velocity": 80,
        "time": 4283,
        "channel": 9
      },
      {
        "type": "note_on",
        "note": 42,
        "velocity": 38,
        "time": 4298,
        "channel": 9
      },
      {
        "type": "note_off",
        "note": 37,
        "time": 4351,
        "channel": 9
      },
      {
        "type": "note_off",
        "note": 42,
        "time": 4366,
        "channel": 9
      },
      {
        "type": "note_on",
        "note": 42,
        "velocity": 28,
        "time": 4411,
        "channel": 9
      },
      {
        "type": "note_off",
        "note": 42,
        "time": 4479,
        "channel": 9
      },
      {
        "type": "note_on",
        "note": 42,
        "velocity": 46,
        "time": 4536,
        "channel": 9
      },
      {
        "type": "note_off",
        "note": 42,
        "time": 4605,
        "channel": 9
      },
      {
        "type": "note_on",
        "note": 38,
        "velocity": 39,
        "time": 4659,
        "channel": 9
      },
      {
        "type": "note_on",
        "note": 42,
        "velocity": 52,
        "time": 4659,
        "channel": 9
      },
      {
        "type": "note_off",
        "note": 38,
        "time": 4727,
        "channel": 9
      },
      {
        "type": "note_off",
        "note": 42,
        "time": 4727,
        "channel": 9
      },
      {
        "type": "note_on",
        "note": 42,
        "velocity": 39,
        "time": 4781,
        "channel": 9
      },
      {
        "type": "note_off",
        "note": 42,
        "time": 4849,
        "channel": 9
      },
      {
        "type": "note_on",
        "note": 38,
        "velocity": 35,
        "time": 4895,
        "channel": 9
      },
      {
        "type": "note_on",
        "note": 42,
        "velocity": 33,
        "time": 4897,
        "channel": 9
      },
      {
        "type": "note_off",
        "note": 38,
        "time": 4963,
        "channel": 9
      },
      {
        "type": "note_off",
        "note": 42,
        "time": 4965,
        "channel": 9
      },
      {
        "type": "note_on",
        "note": 36,
        "velocity": 49,
        "time": 5001,
        "channel": 9
      },
      {
        "type": "note_on",
        "note": 42,
        "velocity": 26,
        "time": 5010,
        "channel": 9
      },
      {
        "type": "note_off",
        "note": 36,
        "time": 5069,
        "channel": 9
      },
      {
        "type": "note_off",
        "note": 42,
        "time": 5078,
        "channel": 9
      },
      {
        "type": "note_on",
        "note": 42,
        "velocity": 28,
        "time": 5135,
        "channel": 9
      },
      {
        "type": "note_off",
        "note": 42,
        "time": 5202,
        "channel": 9
      },
      {
        "type": "note_on",
        "note": 42,
        "velocity": 52,
        "time": 5255,
        "channel": 9
      },
      {
        "type": "note_on",
        "note": 37,
        "velocity": 62,
        "time": 5256,
        "channel": 9
      },
      {
        "type": "note_off",
        "note": 42,
        "time": 5323,
        "channel": 9
      },
      {
        "type": "note_off",
        "note": 37,
        "time": 5324,
        "channel": 9
      },
      {
        "type": "note_on",
        "note": 36,
        "velocity": 55,
        "time": 5375,
        "channel": 9
      },
      {
        "type": "note_on",
        "note": 42,
        "velocity": 35,
        "time": 5378,
        "channel": 9
      },
      {
        "type": "note_off",
        "note": 36,
        "time": 5443,
        "channel": 9
      },
      {
        "type": "note_off",
        "note": 42,
        "time": 5446,
        "channel": 9
      },
      {
        "type": "note_on",
        "note": 42,
        "velocity": 52,
        "time": 5494,
        "channel": 9
      },
      {
        "type": "note_off",
        "note": 42,
        "time": 5562,
        "channel": 9
      },
      {
        "type": "note_on",
        "note": 38,
        "velocity": 30,
        "time": 5608,
        "channel": 9
      },
      {
        "type": "note_on",
        "note": 42,
        "velocity": 36,
        "time": 5614,
        "channel": 9
      },
      {
        "type": "note_off",
        "note": 38,
        "time": 5676,
        "channel": 9
      },
      {
        "type": "note_off",
        "note": 42,
        "time": 5682,
        "channel": 9
      },
      {
        "type": "note_on",
        "note": 42,
        "velocity": 38,
        "time": 5732,
        "channel": 9
      },
      {
        "type": "note_on",
        "note": 36,
        "velocity": 40,
        "time": 5737,
        "channel": 9
      },
      {
        "type": "note_off",
        "note": 42,
        "time": 5800,
        "channel": 9
      },
      {
        "type": "note_off",
        "note": 36,
        "time": 5805,
        "channel": 9
      },
      {
        "type": "note_on",
        "note": 42,
        "velocity": 33,
        "time": 5851,
        "channel": 9
      },
      {
        "type": "note_on",
        "note": 36,
        "velocity": 57,
        "time": 5870,
        "channel": 9
      },
      {
        "type": "note_off",
        "note": 42,
        "time": 5919,
        "channel": 9
      },
      {
        "type": "note_off",
        "note": 36,
        "time": 5938,
        "channel": 9
      },
      {
        "type": "note_on",
        "note": 42,
        "velocity": 52,
        "time": 5975,
        "channel": 9
      },
      {
        "type": "note_off",
        "note": 42,
        "time": 6043,
        "channel": 9
      },
      {
        "type": "note_on",
        "note": 42,
        "velocity": 36,
        "time": 6092,
        "channel": 9
      },
      {
        "type": "note_on",
        "note": 36,
        "velocity": 55,
        "time": 6101,
        "channel": 9
      },
      {
        "type": "note_off",
        "note": 42,
        "time": 6160,
        "channel": 9
      },
      {
        "type": "note_off",
        "note": 36,
        "time": 6169,
        "channel": 9
      },
      {
        "type": "note_on",
        "note": 38,
        "velocity": 57,
        "time": 6217,
        "channel": 9
      },
      {
        "type": "note_on",
        "note": 42,
        "velocity": 60,
        "time": 6223,
        "channel": 9
      },
      {
        "type": "note_off",
        "note": 38,
        "time": 6284,
        "channel": 9
      },
      {
        "type": "note_off",
        "note": 42,
        "time": 6290,
        "channel": 9
      },
      {
        "type": "note_on",
        "note": 42,
        "velocity": 33,
        "time": 6340,
        "channel": 9
      },
      {
        "type": "note_off",
        "note": 42,
        "time": 6409,
        "channel": 9
      },
      {
        "type": "note_on",
        "note": 42,
        "velocity": 67,
        "time": 6455,
        "channel": 9
      },
      {
        "type": "note_off",
        "note": 42,
        "time": 6523,
        "channel": 9
      },
      {
        "type": "note_on",
        "note": 38,
        "velocity": 28,
        "time": 6572,
        "channel": 9
      },
      {
        "type": "note_on",
        "note": 42,
        "velocity": 31,
        "time": 6579,
        "channel": 9
      },
      {
        "type": "note_off",
        "note": 38,
        "time": 6640,
        "channel": 9
      },
      {
        "type": "note_off",
        "note": 42,
        "time": 6647,
        "channel": 9
      },
      {
        "type": "note_on",
        "note": 42,
        "velocity": 59,
        "time": 6690,
        "channel": 9
      },
      {
        "type": "note_off",
        "note": 42,
        "time": 6758,
        "channel": 9
      },
      {
        "type": "note_on",
        "note": 38,
        "velocity": 17,
        "time": 6809,
        "channel": 9
      },
      {
        "type": "note_on",
        "note": 42,
        "velocity": 37,
        "time": 6812,
        "channel": 9
      },
      {
        "type": "note_off",
        "note": 38,
        "time": 6877,
        "channel": 9
      },
      {
        "type": "note_off",
        "note": 42,
        "time": 6880,
        "channel": 9
      },
      {
        "type": "note_on",
        "note": 36,
        "velocity": 49,
        "time": 6925,
        "channel": 9
      },
      {
        "type": "note_on",
        "note": 42,
        "velocity": 46,
        "time": 6929,
        "channel": 9
      },
      {
        "type": "note_off",
        "note": 36,
        "time": 6993,
        "channel": 9
      },
      {
        "type": "note_off",
        "note": 42,
        "time": 6997,
        "channel": 9
      },
      {
        "type": "note_on",
        "note": 42,
        "velocity": 27,
        "time": 7047,
        "channel": 9
      },
      {
        "type": "note_off",
        "note": 42,
        "time": 7114,
        "channel": 9
      },
      {
        "type": "note_on",
        "note": 42,
        "velocity": 61,
        "time": 7167,
        "channel": 9
      },
      {
        "type": "note_on",
        "note": 37,
        "velocity": 56,
        "time": 7170,
        "channel": 9
      },
      {
        "type": "note_off",
        "note": 42,
        "time": 7235,
        "channel": 9
      },
      {
        "type": "note_off",
        "note": 37,
        "time": 7238,
        "channel": 9
      },
      {
        "type": "note_on",
        "note": 42,
        "velocity": 39,
        "time": 7290,
        "channel": 9
      },
      {
        "type": "note_on",
        "note": 36,
        "velocity": 60,
        "time": 7303,
        "channel": 9
      },
      {
        "type": "note_off",
        "note": 42,
        "time": 7358,
        "channel": 9
      },
      {
        "type": "note_off",
        "note": 36,
        "time": 7370,
        "channel": 9
      },
      {
        "type": "note_on",
        "note": 42,
        "velocity": 49,
        "time": 7410,
        "channel": 9
      },
      {
        "type": "note_off",
        "note": 42,
        "time": 7479,
        "channel": 9
      },
      {
        "type": "note_on",
        "note": 42,
        "velocity": 30,
        "time": 7532,
        "channel": 9
      },
      {
        "type": "note_on",
        "note": 36,
        "velocity": 50,
        "time": 7552,
        "channel": 9
      },
      {
        "type": "note_off",
        "note": 42,
        "time": 7600,
        "channel": 9
      },
      {
        "type": "note_off",
        "note": 36,
        "time": 7620,
        "channel": 9
      },
      {
        "type": "note_on",
        "note": 26,
        "velocity": 66,
        "time": 7667,
        "channel": 9
      },
      {
        "type": "note_on",
        "note": 37,
        "velocity": 74,
        "time": 7667,
        "channel": 9
      },
      {
        "type": "note_off",
        "note": 26,
        "time": 7735,
        "channel": 9
      },
      {
        "type": "note_off",
        "note": 37,
        "time": 7735,
        "channel": 9
      },
      {
        "type": "note_on",
        "note": 26,
        "velocity": 57,
        "time": 8031,
        "channel": 9
      },
      {
        "type": "note_on",
        "note": 37,
        "velocity": 70,
        "time": 8033,
        "channel": 9
      },
      {
        "type": "note_off",
        "note": 26,
        "time": 8099,
        "channel": 9
      },
      {
        "type": "note_off",
        "note": 37,
        "time": 8101,
        "channel": 9
      },
      {
        "type": "note_on",
        "note": 37,
        "velocity": 66,
        "time": 8389,
        "channel": 9
      },
      {
        "type": "note_on",
        "note": 26,
        "velocity": 65,
        "time": 8392,
        "channel": 9
      },
      {
        "type": "note_off",
        "note": 37,
        "time": 8456,
        "channel": 9
      },
      {
        "type": "note_off",
        "note": 26,
        "time": 8460,
        "channel": 9
      },
      {
        "type": "note_on",
        "note": 44,
        "velocity": 40,
        "time": 8646,
        "channel": 9
      },
      {
        "type": "note_off",
        "note": 44,
        "time": 8714,
        "channel": 9
      },
      {
        "type": "note_on",
        "note": 38,
        "velocity": 77,
        "time": 8758,
        "channel": 9
      },
      {
        "type": "note_off",
        "note": 38,
        "time": 8826,
        "channel": 9
      },
      {
        "type": "note_on",
        "note": 38,
        "velocity": 73,
        "time": 8880,
        "channel": 9
      },
      {
        "type": "note_off",
        "note": 38,
        "time": 8948,
        "channel": 9
      },
      {
        "type": "note_on",
        "note": 38,
        "velocity": 72,
        "time": 9120,
        "channel": 9
      },
      {
        "type": "note_off",
        "note": 38,
        "time": 9188,
        "channel": 9
      },
      {
        "type": "note_on",
        "note": 38,
        "velocity": 70,
        "time": 9240,
        "channel": 9
      },
      {
        "type": "note_off",
        "note": 38,
        "time": 9308,
        "channel": 9
      },
      {
        "type": "note_on",
        "note": 38,
        "velocity": 71,
        "time": 9363,
        "channel": 9
      },
      {
        "type": "note_off",
        "note": 38,
        "time": 9431,
        "channel": 9
      },
      {
        "type": "note_on",
        "note": 38,
        "velocity": 68,
        "time": 9480,
        "channel": 9
      },
      {
        "type": "note_off",
        "note": 38,
        "time": 9548,
        "channel": 9
      },
      {
        "type": "note_on",
        "note": 42,
        "velocity": 80,
        "time": 9597,
        "channel": 9
      },
      {
        "type": "note_on",
        "note": 36,
        "velocity": 58,
        "time": 9599,
        "channel": 9
      },
      {
        "type": "note_off",
        "note": 42,
        "time": 9665,
        "channel": 9
      },
      {
        "type": "note_off",
        "note": 36,
        "time": 9667,
        "channel": 9
      },
      {
        "type": "note_on",
        "note": 42,
        "velocity": 47,
        "time": 9725,
        "channel": 9
      },
      {
        "type": "note_off",
        "note": 42,
        "time": 9794,
        "channel": 9
      },
      {
        "type": "note_on",
        "note": 42,
        "velocity": 95,
        "time": 9841,
        "channel": 9
      },
      {
        "type": "note_off",
        "note": 42,
        "time": 9909,
        "channel": 9
      },
      {
        "type": "note_on",
        "note": 36,
        "velocity": 55,
        "time": 9941,
        "channel": 9
      },
      {
        "type": "note_on",
        "note": 42,
        "velocity": 31,
        "time": 9963,
        "channel": 9
      },
      {
        "type": "note_off",
        "note": 36,
        "time": 10009,
        "channel": 9
      },
      {
        "type": "note_off",
        "note": 42,
        "time": 10031,
        "channel": 9
      },
      {
        "type": "note_on",
        "note": 37,
        "velocity": 90,
        "time": 10081,
        "channel": 9
      },
      {
        "type": "note_on",
        "note": 42,
        "velocity": 43,
        "time": 10084,
        "channel": 9
      },
      {
        "type": "note_off",
        "note": 37,
        "time": 10148,
        "channel": 9
      },
      {
        "type": "note_off",
        "note": 42,
        "time": 10152,
        "channel": 9
      },
      {
        "type": "note_on",
        "note": 42,
        "velocity": 39,
        "time": 10183,
        "channel": 9
      },
      {
        "type": "note_off",
        "note": 42,
        "time": 10251,
        "channel": 9
      },
      {
        "type": "note_on",
        "note": 42,
        "velocity": 67,
        "time": 10307,
        "channel": 9
      },
      {
        "type": "note_off",
        "note": 42,
        "time": 10376,
        "channel": 9
      },
      {
        "type": "note_on",
        "note": 42,
        "velocity": 28,
        "time": 10438,
        "channel": 9
      },
      {
        "type": "note_on",
        "note": 38,
        "velocity": 33,
        "time": 10440,
        "channel": 9
      },
      {
        "type": "note_off",
        "note": 42,
        "time": 10506,
        "channel": 9
      },
      {
        "type": "note_off",
        "note": 38,
        "time": 10509,
        "channel": 9
      },
      {
        "type": "note_on",
        "note": 42,
        "velocity": 81,
        "time": 10551,
        "channel": 9
      },
      {
        "type": "note_off",
        "note": 42,
        "time": 10619,
        "channel": 9
      },
      {
        "type": "note_on",
        "note": 42,
        "velocity": 32,
        "time": 10678,
        "channel": 9
      },
      {
        "type": "note_on",
        "note": 38,
        "velocity": 24,
        "time": 10685,
        "channel": 9
      },
      {
        "type": "note_off",
        "note": 42,
        "time": 10746,
        "channel": 9
      },
      {
        "type": "note_off",
        "note": 38,
        "time": 10752,
        "channel": 9
      },
      {
        "type": "note_on",
        "note": 36,
        "velocity": 56,
        "time": 10769,
        "channel": 9
      },
      {
        "type": "note_on",
        "note": 42,
        "velocity": 42,
        "time": 10799,
        "channel": 9
      },
      {
        "type": "note_off",
        "note": 36,
        "time": 10837,
        "channel": 9
      },
      {
        "type": "note_off",
        "note": 42,
        "time": 10867,
        "channel": 9
      },
      {
        "type": "note_on",
        "note": 42,
        "velocity": 38,
        "time": 10905,
        "channel": 9
      },
      {
        "type": "note_off",
        "note": 42,
        "time": 10973,
        "channel": 9
      },
      {
        "type": "note_on",
        "note": 38,
        "velocity": 82,
        "time": 11026,
        "channel": 9
      },
      {
        "type": "note_on",
        "note": 42,
        "velocity": 66,
        "time": 11030,
        "channel": 9
      },
      {
        "type": "note_off",
        "note": 38,
        "time": 11095,
        "channel": 9
      },
      {
        "type": "note_off",
        "note": 42,
        "time": 11098,
        "channel": 9
      },
      {
        "type": "note_on",
        "note": 36,
        "velocity": 60,
        "time": 11151,
        "channel": 9
      },
      {
        "type": "note_on",
        "note": 42,
        "velocity": 36,
        "time": 11154,
        "channel": 9
      },
      {
        "type": "note_off",
        "note": 36,
        "time": 11220,
        "channel": 9
      },
      {
        "type": "note_off",
        "note": 42,
        "time": 11222,
        "channel": 9
      },
      {
        "type": "note_on",
        "note": 42,
        "velocity": 58,
        "time": 11268,
        "channel": 9
      },
      {
        "type": "note_off",
        "note": 42,
        "time": 11336,
        "channel": 9
      },
      {
        "type": "note_on",
        "note": 42,
        "velocity": 46,
        "time": 11382,
        "channel": 9
      },
      {
        "type": "note_on",
        "note": 38,
        "velocity": 30,
        "time": 11393,
        "channel": 9
      },
      {
        "type": "note_on",
        "note": 38,
        "velocity": 27,
        "time": 11415,
        "channel": 9
      },
      {
        "type": "note_off",
        "note": 38,
        "time": 11415,
        "channel": 9
      },
      {
        "type": "note_on",
        "note": 38,
        "velocity": 23,
        "time": 11433,
        "channel": 9
      },
      {
        "type": "note_off",
        "note": 38,
        "time": 11433,
        "channel": 9
      },
      {
        "type": "note_off",
        "note": 42,
        "time": 11450,
        "channel": 9
      },
      {
        "type": "note_off",
        "note": 38,
        "time": 11461,
        "channel": 9
      },
      {
        "type": "note_on",
        "note": 38,
        "velocity": 14,
        "time": 11468,
        "channel": 9
      },
      {
        "type": "note_off",
        "note": 38,
        "time": 11484,
        "channel": 9
      },
      {
        "type": "note_on",
        "note": 36,
        "velocity": 51,
        "time": 11497,
        "channel": 9
      },
      {
        "type": "note_on",
        "note": 42,
        "velocity": 41,
        "time": 11504,
        "channel": 9
      },
      {
        "type": "note_off",
        "note": 36,
        "time": 11565,
        "channel": 9
      },
      {
        "type": "note_off",
        "note": 42,
        "time": 11572,
        "channel": 9
      },
      {
        "type": "note_on",
        "note": 42,
        "velocity": 45,
        "time": 11615,
        "channel": 9
      },
      {
        "type": "note_on",
        "note": 36,
        "velocity": 53,
        "time": 11629,
        "channel": 9
      },
      {
        "type": "note_off",
        "note": 42,
        "time": 11683,
        "channel": 9
      },
      {
        "type": "note_off",
        "note": 36,
        "time": 11697,
        "channel": 9
      },
      {
        "type": "note_on",
        "note": 42,
        "velocity": 62,
        "time": 11734,
        "channel": 9
      },
      {
        "type": "note_off",
        "note": 42,
        "time": 11802,
        "channel": 9
      },
      {
        "type": "note_on",
        "note": 36,
        "velocity": 50,
        "time": 11839,
        "channel": 9
      },
      {
        "type": "note_on",
        "note": 42,
        "velocity": 43,
        "time": 11850,
        "channel": 9
      },
      {
        "type": "note_off",
        "note": 36,
        "time": 11907,
        "channel": 9
      },
      {
        "type": "note_off",
        "note": 42,
        "time": 11918,
        "channel": 9
      },
      {
        "type": "note_on",
        "note": 38,
        "velocity": 80,
        "time": 11983,
        "channel": 9
      },
      {
        "type": "note_on",
        "note": 42,
        "velocity": 44,
        "time": 11996,
        "channel": 9
      },
      {
        "type": "note_off",
        "note": 38,
        "time": 12051,
        "channel": 9
      },
      {
        "type": "note_off",
        "note": 42,
        "time": 12064,
        "channel": 9
      },
      {
        "type": "note_on",
        "note": 42,
        "velocity": 41,
        "time": 12100,
        "channel": 9
      },
      {
        "type": "note_off",
        "note": 42,
        "time": 12168,
        "channel": 9
      },
      {
        "type": "note_on",
        "note": 42,
        "velocity": 93,
        "time": 12218,
        "channel": 9
      },
      {
        "type": "note_off",
        "note": 42,
        "time": 12286,
        "channel": 9
      },
      {
        "type": "note_on",
        "note": 38,
        "velocity": 41,
        "time": 12332,
        "channel": 9
      },
      {
        "type": "note_on",
        "note": 42,
        "velocity": 45,
        "time": 12344,
        "channel": 9
      },
      {
        "type": "note_off",
        "note": 38,
        "time": 12400,
        "channel": 9
      },
      {
        "type": "note_off",
        "note": 42,
        "time": 12412,
        "channel": 9
      },
      {
        "type": "note_on",
        "note": 42,
        "velocity": 43,
        "time": 12455,
        "channel": 9
      },
      {
        "type": "note_off",
        "note": 42,
        "time": 12524,
        "channel": 9
      },
      {
        "type": "note_on",
        "note": 42,
        "velocity": 45,
        "time": 12569,
        "channel": 9
      },
      {
        "type": "note_on",
        "note": 38,
        "velocity": 29,
        "time": 12574,
        "channel": 9
      },
      {
        "type": "note_off",
        "note": 42,
        "time": 12637,
        "channel": 9
      },
      {
        "type": "note_off",
        "note": 38,
        "time": 12641,
        "channel": 9
      },
      {
        "type": "note_on",
        "note": 36,
        "velocity": 60,
        "time": 12683,
        "channel": 9
      },
      {
        "type": "note_on",
        "note": 42,
        "velocity": 54,
        "time": 12691,
        "channel": 9
      },
      {
        "type": "note_off",
        "note": 36,
        "time": 12750,
        "channel": 9
      },
      {
        "type": "note_off",
        "note": 42,
        "time": 12759,
        "channel": 9
      },
      {
        "type": "note_on",
        "note": 42,
        "velocity": 44,
        "time": 12806,
        "channel": 9
      },
      {
        "type": "note_off",
        "note": 42,
        "time": 12874,
        "channel": 9
      },
      {
        "type": "note_on",
        "note": 38,
        "velocity": 76,
        "time": 12932,
        "channel": 9
      },
      {
        "type": "note_on",
        "note": 42,
        "velocity": 57,
        "time": 12934,
        "channel": 9
      },
      {
        "type": "note_off",
        "note": 38,
        "time": 13000,
        "channel": 9
      },
      {
        "type": "note_off",
        "note": 42,
        "time": 13002,
        "channel": 9
      },
      {
        "type": "note_on",
        "note": 36,
        "velocity": 59,
        "time": 13056,
        "channel": 9
      },
      {
        "type": "note_on",
        "note": 42,
        "velocity": 43,
        "time": 13061,
        "channel": 9
      },
      {
        "type": "note_off",
        "note": 36,
        "time": 13124,
        "channel": 9
      },
      {
        "type": "note_off",
        "note": 42,
        "time": 13129,
        "channel": 9
      },
      {
        "type": "note_on",
        "note": 42,
        "velocity": 67,
        "time": 13172,
        "channel": 9
      },
      {
        "type": "note_off",
        "note": 42,
        "time": 13240,
        "channel": 9
      },
      {
        "type": "note_on",
        "note": 38,
        "velocity": 26,
        "time": 13288,
        "channel": 9
      },
      {
        "type": "note_on",
        "note": 42,
        "velocity": 55,
        "time": 13299,
        "channel": 9
      },
      {
        "type": "note_on",
        "note": 38,
        "velocity": 20,
        "time": 13319,
        "channel": 9
      },
      {
        "type": "note_off",
        "note": 38,
        "time": 13319,
        "channel": 9
      },
      {
        "type": "note_on",
        "note": 38,
        "velocity": 25,
        "time": 13335,
        "channel": 9
      },
      {
        "type": "note_off",
        "note": 38,
        "time": 13335,
        "channel": 9
      },
      {
        "type": "note_off",
        "note": 38,
        "time": 13356,
        "channel": 9
      },
      {
        "type": "note_off",
        "note": 42,
        "time": 13367,
        "channel": 9
      },
      {
        "type": "note_on",
        "note": 36,
        "velocity": 44,
        "time": 13401,
        "channel": 9
      },
      {
        "type": "note_on",
        "note": 42,
        "velocity": 56,
        "time": 13412,
        "channel": 9
      },
      {
        "type": "note_off",
        "note": 36,
        "time": 13469,
        "channel": 9
      },
      {
        "type": "note_off",
        "note": 42,
        "time": 13479,
        "channel": 9
      },
      {
        "type": "note_on",
        "note": 42,
        "velocity": 57,
        "time": 13531,
        "channel": 9
      },
      {
        "type": "note_on",
        "note": 36,
        "velocity": 59,
        "time": 13537,
        "channel": 9
      },
      {
        "type": "note_off",
        "note": 42,
        "time": 13599,
        "channel": 9
      },
      {
        "type": "note_off",
        "note": 36,
        "time": 13605,
        "channel": 9
      },
      {
        "type": "note_on",
        "note": 42,
        "velocity": 55,
        "time": 13645,
        "channel": 9
      },
      {
        "type": "note_off",
        "note": 42,
        "time": 13713,
        "channel": 9
      },
      {
        "type": "note_on",
        "note": 36,
        "velocity": 56,
        "time": 13766,
        "channel": 9
      },
      {
        "type": "note_on",
        "note": 42,
        "velocity": 45,
        "time": 13770,
        "channel": 9
      },
      {
        "type": "note_off",
        "note": 36,
        "time": 13834,
        "channel": 9
      },
      {
        "type": "note_off",
        "note": 42,
        "time": 13838,
        "channel": 9
      },
      {
        "type": "note_on",
        "note": 38,
        "velocity": 73,
        "time": 13894,
        "channel": 9
      },
      {
        "type": "note_on",
        "note": 42,
        "velocity": 73,
        "time": 13902,
        "channel": 9
      },
      {
        "type": "note_off",
        "note": 38,
        "time": 13962,
        "channel": 9
      },
      {
        "type": "note_off",
        "note": 42,
        "time": 13970,
        "channel": 9
      },
      {
        "type": "note_on",
        "note": 42,
        "velocity": 45,
        "time": 14027,
        "channel": 9
      },
      {
        "type": "note_off",
        "note": 42,
        "time": 14096,
        "channel": 9
      },
      {
        "type": "note_on",
        "note": 42,
        "velocity": 60,
        "time": 14144,
        "channel": 9
      },
      {
        "type": "note_off",
        "note": 42,
        "time": 14212,
        "channel": 9
      },
      {
        "type": "note_on",
        "note": 38,
        "velocity": 31,
        "time": 14264,
        "channel": 9
      },
      {
        "type": "note_on",
        "note": 42,
        "velocity": 41,
        "time": 14266,
        "channel": 9
      },
      {
        "type": "note_off",
        "note": 38,
        "time": 14332,
        "channel": 9
      },
      {
        "type": "note_off",
        "note": 42,
        "time": 14334,
        "channel": 9
      },
      {
        "type": "note_on",
        "note": 42,
        "velocity": 79,
        "time": 14381,
        "channel": 9
      },
      {
        "type": "note_off",
        "note": 42,
        "time": 14449,
        "channel": 9
      },
      {
        "type": "note_on",
        "note": 42,
        "velocity": 34,
        "time": 14493,
        "channel": 9
      },
      {
        "type": "note_on",
        "note": 38,
        "velocity": 21,
        "time": 14505,
        "channel": 9
      },
      {
        "type": "note_off",
        "note": 42,
        "time": 14561,
        "channel": 9
      },
      {
        "type": "note_off",
        "note": 38,
        "time": 14573,
        "channel": 9
      },
      {
        "type": "note_on",
        "note": 26,
        "velocity": 66,
        "time": 14613,
        "channel": 9
      },
      {
        "type": "note_on",
        "note": 36,
        "velocity": 59,
        "time": 14619,
        "channel": 9
      },
      {
        "type": "note_off",
        "note": 26,
        "time": 14681,
        "channel": 9
      },
      {
        "type": "note_off",
        "note": 36,
        "time": 14687,
        "channel": 9
      },
      {
        "type": "note_on",
        "note": 44,
        "velocity": 40,
        "time": 14845,
        "channel": 9
      },
      {
        "type": "note_on",
        "note": 40,
        "velocity": 99,
        "time": 14863,
        "channel": 9
      },
      {
        "type": "note_on",
        "note": 42,
        "velocity": 47,
        "time": 14868,
        "channel": 9
      },
      {
        "type": "note_off",
        "note": 44,
        "time": 14913,
        "channel": 9
      },
      {
        "type": "note_off",
        "note": 40,
        "time": 14931,
        "channel": 9
      },
      {
        "type": "note_off",
        "note": 42,
        "time": 14936,
        "channel": 9
      },
      {
        "type": "note_on",
        "note": 36,
        "velocity": 59,
        "time": 14986,
        "channel": 9
      },
      {
        "type": "note_on",
        "note": 42,
        "velocity": 31,
        "time": 14986,
        "channel": 9
      },
      {
        "type": "note_off",
        "note": 36,
        "time": 15054,
        "channel": 9
      },
      {
        "type": "note_off",
        "note": 42,
        "time": 15054,
        "channel": 9
      },
      {
        "type": "note_on",
        "note": 22,
        "velocity": 50,
        "time": 15104,
        "channel": 9
      },
      {
        "type": "note_off",
        "note": 22,
        "time": 15173,
        "channel": 9
      },
      {
        "type": "note_on",
        "note": 38,
        "velocity": 16,
        "time": 15228,
        "channel": 9
      },
      {
        "type": "note_off",
        "note": 38,
        "time": 15296,
        "channel": 9
      },
      {
        "type": "note_on",
        "note": 36,
        "velocity": 58,
        "time": 15336,
        "channel": 9
      },
      {
        "type": "note_on",
        "note": 22,
        "velocity": 63,
        "time": 15343,
        "channel": 9
      },
      {
        "type": "note_off",
        "note": 36,
        "time": 15404,
        "channel": 9
      },
      {
        "type": "note_off",
        "note": 22,
        "time": 15411,
        "channel": 9
      },
      {
        "type": "note_on",
        "note": 38,
        "velocity": 24,
        "time": 15459,
        "channel": 9
      },
      {
        "type": "note_off",
        "note": 38,
        "time": 15527,
        "channel": 9
      },
      {
        "type": "note_on",
        "note": 38,
        "velocity": 8,
        "time": 15591,
        "channel": 9
      },
      {
        "type": "note_off",
        "note": 38,
        "time": 15659,
        "channel": 9
      },
      {
        "type": "note_on",
        "note": 36,
        "velocity": 60,
        "time": 15691,
        "channel": 9
      },
      {
        "type": "note_on",
        "note": 22,
        "velocity": 61,
        "time": 15694,
        "channel": 9
      },
      {
        "type": "note_off",
        "note": 36,
        "time": 15758,
        "channel": 9
      },
      {
        "type": "note_off",
        "note": 22,
        "time": 15762,
        "channel": 9
      },
      {
        "type": "note_on",
        "note": 38,
        "velocity": 5,
        "time": 15945,
        "channel": 9
      },
      {
        "type": "note_off",
        "note": 38,
        "time": 16013,
        "channel": 9
      },
      {
        "type": "note_on",
        "note": 36,
        "velocity": 69,
        "time": 16060,
        "channel": 9
      },
      {
        "type": "note_on",
        "note": 22,
        "velocity": 58,
        "time": 16064,
        "channel": 9
      },
      {
        "type": "note_off",
        "note": 36,
        "time": 16128,
        "channel": 9
      },
      {
        "type": "note_off",
        "note": 22,
        "time": 16132,
        "channel": 9
      },
      {
        "type": "note_on",
        "note": 44,
        "velocity": 47,
        "time": 16304,
        "channel": 9
      },
      {
        "type": "note_off",
        "note": 44,
        "time": 16372,
        "channel": 9
      },
      {
        "type": "note_on",
        "note": 38,
        "velocity": 60,
        "time": 16420,
        "channel": 9
      },
      {
        "type": "note_off",
        "note": 38,
        "time": 16488,
        "channel": 9
      },
      {
        "type": "note_on",
        "note": 38,
        "velocity": 58,
        "time": 16550,
        "channel": 9
      },
      {
        "type": "note_off",
        "note": 38,
        "time": 16618,
        "channel": 9
      },
      {
        "type": "note_on",
        "note": 38,
        "velocity": 70,
        "time": 16807,
        "channel": 9
      },
      {
        "type": "note_off",
        "note": 38,
        "time": 16875,
        "channel": 9
      },
      {
        "type": "note_on",
        "note": 38,
        "velocity": 62,
        "time": 16925,
        "channel": 9
      },
      {
        "type": "note_off",
        "note": 38,
        "time": 16993,
        "channel": 9
      },
      {
        "type": "note_on",
        "note": 38,
        "velocity": 60,
        "time": 17046,
        "channel": 9
      },
      {
        "type": "note_off",
        "note": 38,
        "time": 17114,
        "channel": 9
      },
      {
        "type": "note_on",
        "note": 38,
        "velocity": 59,
        "time": 17166,
        "channel": 9
      },
      {
        "type": "note_off",
        "note": 38,
        "time": 17234,
        "channel": 9
      },
      {
        "type": "note_on",
        "note": 36,
        "velocity": 54,
        "time": 17278,
        "channel": 9
      },
      {
        "type": "note_on",
        "note": 42,
        "velocity": 55,
        "time": 17284,
        "channel": 9
      },
      {
        "type": "note_off",
        "note": 36,
        "time": 17345,
        "channel": 9
      },
      {
        "type": "note_off",
        "note": 42,
        "time": 17353,
        "channel": 9
      },
      {
        "type": "note_on",
        "note": 42,
        "velocity": 62,
        "time": 17398,
        "channel": 9
      },
      {
        "type": "note_off",
        "note": 42,
        "time": 17466,
        "channel": 9
      },
      {
        "type": "note_on",
        "note": 42,
        "velocity": 67,
        "time": 17524,
        "channel": 9
      },
      {
        "type": "note_off",
        "note": 42,
        "time": 17592,
        "channel": 9
      },
      {
        "type": "note_on",
        "note": 36,
        "velocity": 57,
        "time": 17632,
        "channel": 9
      },
      {
        "type": "note_off",
        "note": 36,
        "time": 17700,
        "channel": 9
      },
      {
        "type": "note_on",
        "note": 38,
        "velocity": 83,
        "time": 17763,
        "channel": 9
      },
      {
        "type": "note_on",
        "note": 42,
        "velocity": 64,
        "time": 17771,
        "channel": 9
      },
      {
        "type": "note_off",
        "note": 38,
        "time": 17831,
        "channel": 9
      },
      {
        "type": "note_off",
        "note": 42,
        "time": 17839,
        "channel": 9
      },
      {
        "type": "note_on",
        "note": 42,
        "velocity": 29,
        "time": 17875,
        "channel": 9
      },
      {
        "type": "note_off",
        "note": 42,
        "time": 17943,
        "channel": 9
      },
      {
        "type": "note_on",
        "note": 42,
        "velocity": 75,
        "time": 17996,
        "channel": 9
      },
      {
        "type": "note_off",
        "note": 42,
        "time": 18064,
        "channel": 9
      },
      {
        "type": "note_on",
        "note": 42,
        "velocity": 28,
        "time": 18114,
        "channel": 9
      },
      {
        "type": "note_on",
        "note": 38,
        "velocity": 21,
        "time": 18121,
        "channel": 9
      },
      {
        "type": "note_off",
        "note": 42,
        "time": 18182,
        "channel": 9
      },
      {
        "type": "note_off",
        "note": 38,
        "time": 18189,
        "channel": 9
      },
      {
        "type": "note_on",
        "note": 42,
        "velocity": 52,
        "time": 18233,
        "channel": 9
      },
      {
        "type": "note_off",
        "note": 42,
        "time": 18300,
        "channel": 9
      },
      {
        "type": "note_on",
        "note": 42,
        "velocity": 37,
        "time": 18342,
        "channel": 9
      },
      {
        "type": "note_on",
        "note": 38,
        "velocity": 29,
        "time": 18346,
        "channel": 9
      },
      {
        "type": "note_off",
        "note": 42,
        "time": 18410,
        "channel": 9
      },
      {
        "type": "note_off",
        "note": 38,
        "time": 18414,
        "channel": 9
      },
      {
        "type": "note_on",
        "note": 36,
        "velocity": 60,
        "time": 18448,
        "channel": 9
      },
      {
        "type": "note_on",
        "note": 42,
        "velocity": 26,
        "time": 18475,
        "channel": 9
      },
      {
        "type": "note_off",
        "note": 36,
        "time": 18515,
        "channel": 9
      },
      {
        "type": "note_off",
        "note": 42,
        "time": 18544,
        "channel": 9
      },
      {
        "type": "note_on",
        "note": 42,
        "velocity": 31,
        "time": 18585,
        "channel": 9
      },
      {
        "type": "note_off",
        "note": 42,
        "time": 18654,
        "channel": 9
      },
      {
        "type": "note_on",
        "note": 42,
        "velocity": 52,
        "time": 18708,
        "channel": 9
      },
      {
        "type": "note_on",
        "note": 38,
        "velocity": 84,
        "time": 18717,
        "channel": 9
      },
      {
        "type": "note_off",
        "note": 42,
        "time": 18776,
        "channel": 9
      },
      {
        "type": "note_off",
        "note": 38,
        "time": 18785,
        "channel": 9
      },
      {
        "type": "note_on",
        "note": 42,
        "velocity": 31,
        "time": 18830,
        "channel": 9
      },
      {
        "type": "note_on",
        "note": 36,
        "velocity": 56,
        "time": 18833,
        "channel": 9
      },
      {
        "type": "note_off",
        "note": 42,
        "time": 18898,
        "channel": 9
      },
      {
        "type": "note_off",
        "note": 36,
        "time": 18900,
        "channel": 9
      },
      {
        "type": "note_on",
        "note": 42,
        "velocity": 62,
        "time": 18948,
        "channel": 9
      },
      {
        "type": "note_off",
        "note": 42,
        "time": 19016,
        "channel": 9
      },
      {
        "type": "note_on",
        "note": 38,
        "velocity": 27,
        "time": 19070,
        "channel": 9
      },
      {
        "type": "note_on",
        "note": 42,
        "velocity": 47,
        "time": 19070,
        "channel": 9
      },
      {
        "type": "note_on",
        "note": 38,
        "velocity": 26,
        "time": 19093,
        "channel": 9
      },
      {
        "type": "note_off",
        "note": 38,
        "time": 19093,
        "channel": 9
      },
      {
        "type": "note_off",
        "note": 38,
        "time": 19137,
        "channel": 9
      },
      {
        "type": "note_off",
        "note": 42,
        "time": 19137,
        "channel": 9
      },
      {
        "type": "note_on",
        "note": 36,
        "velocity": 55,
        "time": 19174,
        "channel": 9
      },
      {
        "type": "note_on",
        "note": 42,
        "velocity": 47,
        "time": 19187,
        "channel": 9
      },
      {
        "type": "note_off",
        "note": 36,
        "time": 19242,
        "channel": 9
      },
      {
        "type": "note_off",
        "note": 42,
        "time": 19255,
        "channel": 9
      },
      {
        "type": "note_on",
        "note": 42,
        "velocity": 43,
        "time": 19296,
        "channel": 9
      },
      {
        "type": "note_on",
        "note": 36,
        "velocity": 56,
        "time": 19323,
        "channel": 9
      },
      {
        "type": "note_off",
        "note": 42,
        "time": 19363,
        "channel": 9
      },
      {
        "type": "note_off",
        "note": 36,
        "time": 19391,
        "channel": 9
      },
      {
        "type": "note_on",
        "note": 42,
        "velocity": 48,
        "time": 19414,
        "channel": 9
      },
      {
        "type": "note_off",
        "note": 42,
        "time": 19482,
        "channel": 9
      },
      {
        "type": "note_on",
        "note": 36,
        "velocity": 45,
        "time": 19526,
        "channel": 9
      },
      {
        "type": "note_on",
        "note": 42,
        "velocity": 49,
        "time": 19538,
        "channel": 9
      },
      {
        "type": "note_off",
        "note": 36,
        "time": 19594,
        "channel": 9
      },
      {
        "type": "note_off",
        "note": 42,
        "time": 19606,
        "channel": 9
      },
      {
        "type": "note_on",
        "note": 42,
        "velocity": 63,
        "time": 19657,
        "channel": 9
      },
      {
        "type": "note_on",
        "note": 38,
        "velocity": 73,
        "time": 19662,
        "channel": 9
      },
      {
        "type": "note_off",
        "note": 42,
        "time": 19725,
        "channel": 9
      },
      {
        "type": "note_off",
        "note": 38,
        "time": 19730,
        "channel": 9
      },
      {
        "type": "note_on",
        "note": 42,
        "velocity": 39,
        "time": 19779,
        "channel": 9
      },
      {
        "type": "note_off",
        "note": 42,
        "time": 19847,
        "channel": 9
      },
      {
        "type": "note_on",
        "note": 42,
        "velocity": 57,
        "time": 19890,
        "channel": 9
      },
      {
        "type": "note_off",
        "note": 42,
        "time": 19958,
        "channel": 9
      },
      {
        "type": "note_on",
        "note": 38,
        "velocity": 33,
        "time": 20012,
        "channel": 9
      },
      {
        "type": "note_on",
        "note": 42,
        "velocity": 60,
        "time": 20016,
        "channel": 9
      },
      {
        "type": "note_off",
        "note": 38,
        "time": 20079,
        "channel": 9
      },
      {
        "type": "note_off",
        "note": 42,
        "time": 20084,
        "channel": 9
      },
      {
        "type": "note_on",
        "note": 42,
        "velocity": 45,
        "time": 20136,
        "channel": 9
      },
      {
        "type": "note_off",
        "note": 42,
        "time": 20204,
        "channel": 9
      },
      {
        "type": "note_on",
        "note": 38,
        "velocity": 21,
        "time": 20236,
        "channel": 9
      },
      {
        "type": "note_on",
        "note": 42,
        "velocity": 53,
        "time": 20252,
        "channel": 9
      },
      {
        "type": "note_off",
        "note": 38,
        "time": 20304,
        "channel": 9
      },
      {
        "type": "note_off",
        "note": 42,
        "time": 20320,
        "channel": 9
      },
      {
        "type": "note_on",
        "note": 36,
        "velocity": 57,
        "time": 20340,
        "channel": 9
      },
      {
        "type": "note_on",
        "note": 46,
        "velocity": 48,
        "time": 20366,
        "channel": 9
      },
      {
        "type": "note_off",
        "note": 36,
        "time": 20408,
        "channel": 9
      },
      {
        "type": "note_off",
        "note": 46,
        "time": 20434,
        "channel": 9
      },
      {
        "type": "note_on",
        "note": 46,
        "velocity": 40,
        "time": 20470,
        "channel": 9
      },
      {
        "type": "note_off",
        "note": 46,
        "time": 20538,
        "channel": 9
      },
      {
        "type": "note_on",
        "note": 44,
        "velocity": 50,
        "time": 20574,
        "channel": 9
      },
      {
        "type": "note_on",
        "note": 37,
        "velocity": 73,
        "time": 20606,
        "channel": 9
      },
      {
        "type": "note_on",
        "note": 42,
        "velocity": 38,
        "time": 20617,
        "channel": 9
      },
      {
        "type": "note_off",
        "note": 44,
        "time": 20642,
        "channel": 9
      },
      {
        "type": "note_off",
        "note": 37,
        "time": 20674,
        "channel": 9
      },
      {
        "type": "note_off",
        "note": 42,
        "time": 20685,
        "channel": 9
      },
      {
        "type": "note_on",
        "note": 36,
        "velocity": 59,
        "time": 20733,
        "channel": 9
      },
      {
        "type": "note_on",
        "note": 42,
        "velocity": 27,
        "time": 20740,
        "channel": 9
      },
      {
        "type": "note_off",
        "note": 36,
        "time": 20801,
        "channel": 9
      },
      {
        "type": "note_off",
        "note": 42,
        "time": 20809,
        "channel": 9
      },
      {
        "type": "note_on",
        "note": 42,
        "velocity": 49,
        "time": 20856,
        "channel": 9
      },
      {
        "type": "note_off",
        "note": 42,
        "time": 20924,
        "channel": 9
      },
      {
        "type": "note_on",
        "note": 38,
        "velocity": 29,
        "time": 20969,
        "channel": 9
      },
      {
        "type": "note_on",
        "note": 42,
        "velocity": 51,
        "time": 20969,
        "channel": 9
      },
      {
        "type": "note_off",
        "note": 38,
        "time": 21037,
        "channel": 9
      },
      {
        "type": "note_off",
        "note": 42,
        "time": 21037,
        "channel": 9
      },
      {
        "type": "note_on",
        "note": 36,
        "velocity": 50,
        "time": 21079,
        "channel": 9
      },
      {
        "type": "note_on",
        "note": 42,
        "velocity": 44,
        "time": 21086,
        "channel": 9
      },
      {
        "type": "note_off",
        "note": 36,
        "time": 21147,
        "channel": 9
      },
      {
        "type": "note_off",
        "note": 42,
        "time": 21154,
        "channel": 9
      },
      {
        "type": "note_on",
        "note": 36,
        "velocity": 55,
        "time": 21198,
        "channel": 9
      },
      {
        "type": "note_on",
        "note": 42,
        "velocity": 38,
        "time": 21200,
        "channel": 9
      },
      {
        "type": "note_off",
        "note": 36,
        "time": 21266,
        "channel": 9
      },
      {
        "type": "note_off",
        "note": 42,
        "time": 21268,
        "channel": 9
      },
      {
        "type": "note_on",
        "note": 42,
        "velocity": 62,
        "time": 21318,
        "channel": 9
      },
      {
        "type": "note_off",
        "note": 42,
        "time": 21386,
        "channel": 9
      },
      {
        "type": "note_on",
        "note": 42,
        "velocity": 44,
        "time": 21439,
        "channel": 9
      },
      {
        "type": "note_on",
        "note": 36,
        "velocity": 60,
        "time": 21448,
        "channel": 9
      },
      {
        "type": "note_off",
        "note": 42,
        "time": 21507,
        "channel": 9
      },
      {
        "type": "note_off",
        "note": 36,
        "time": 21515,
        "channel": 9
      },
      {
        "type": "note_on",
        "note": 42,
        "velocity": 49,
        "time": 21573,
        "channel": 9
      },
      {
        "type": "note_on",
        "note": 38,
        "velocity": 59,
        "time": 21579,
        "channel": 9
      },
      {
        "type": "note_off",
        "note": 42,
        "time": 21641,
        "channel": 9
      },
      {
        "type": "note_off",
        "note": 38,
        "time": 21647,
        "channel": 9
      },
      {
        "type": "note_on",
        "note": 42,
        "velocity": 41,
        "time": 21687,
        "channel": 9
      },
      {
        "type": "note_off",
        "note": 42,
        "time": 21756,
        "channel": 9
      },
      {
        "type": "note_on",
        "note": 42,
        "velocity": 62,
        "time": 21805,
        "channel": 9
      },
      {
        "type": "note_off",
        "note": 42,
        "time": 21873,
        "channel": 9
      },
      {
        "type": "note_on",
        "note": 38,
        "velocity": 37,
        "time": 21920,
        "channel": 9
      },
      {
        "type": "note_on",
        "note": 42,
        "velocity": 53,
        "time": 21927,
        "channel": 9
      },
      {
        "type": "note_off",
        "note": 38,
        "time": 21988,
        "channel": 9
      },
      {
        "type": "note_off",
        "note": 42,
        "time": 21995,
        "channel": 9
      },
      {
        "type": "note_on",
        "note": 22,
        "velocity": 53,
        "time": 22048,
        "channel": 9
      },
      {
        "type": "note_off",
        "note": 22,
        "time": 22117,
        "channel": 9
      },
      {
        "type": "note_on",
        "note": 38,
        "velocity": 20,
        "time": 22169,
        "channel": 9
      },
      {
        "type": "note_on",
        "note": 42,
        "velocity": 40,
        "time": 22173,
        "channel": 9
      },
      {
        "type": "note_off",
        "note": 38,
        "time": 22237,
        "channel": 9
      },
      {
        "type": "note_off",
        "note": 42,
        "time": 22241,
        "channel": 9
      },
      {
        "type": "note_on",
        "note": 36,
        "velocity": 55,
        "time": 22270,
        "channel": 9
      },
      {
        "type": "note_on",
        "note": 42,
        "velocity": 43,
        "time": 22290,
        "channel": 9
      },
      {
        "type": "note_off",
        "note": 36,
        "time": 22338,
        "channel": 9
      },
      {
        "type": "note_off",
        "note": 42,
        "time": 22359,
        "channel": 9
      },
      {
        "type": "note_on",
        "note": 42,
        "velocity": 27,
        "time": 22412,
        "channel": 9
      },
      {
        "type": "note_off",
        "note": 42,
        "time": 22481,
        "channel": 9
      },
      {
        "type": "note_on",
        "note": 38,
        "velocity": 56,
        "time": 22531,
        "channel": 9
      },
      {
        "type": "note_on",
        "note": 42,
        "velocity": 53,
        "time": 22531,
        "channel": 9
      },
      {
        "type": "note_off",
        "note": 38,
        "time": 22599,
        "channel": 9
      },
      {
        "type": "note_off",
        "note": 42,
        "time": 22599,
        "channel": 9
      },
      {
        "type": "note_on",
        "note": 36,
        "velocity": 57,
        "time": 22650,
        "channel": 9
      },
      {
        "type": "note_on",
        "note": 42,
        "velocity": 36,
        "time": 22660,
        "channel": 9
      },
      {
        "type": "note_off",
        "note": 36,
        "time": 22717,
        "channel": 9
      },
      {
        "type": "note_off",
        "note": 42,
        "time": 22727,
        "channel": 9
      },
      {
        "type": "note_on",
        "note": 42,
        "velocity": 56,
        "time": 22769,
        "channel": 9
      },
      {
        "type": "note_off",
        "note": 42,
        "time": 22838,
        "channel": 9
      },
      {
        "type": "note_on",
        "note": 42,
        "velocity": 14,
        "time": 22893,
        "channel": 9
      },
      {
        "type": "note_off",
        "note": 42,
        "time": 22961,
        "channel": 9
      },
      {
        "type": "note_on",
        "note": 37,
        "velocity": 71,
        "time": 23015,
        "channel": 9
      },
      {
        "type": "note_on",
        "note": 26,
        "velocity": 62,
        "time": 23021,
        "channel": 9
      },
      {
        "type": "note_off",
        "note": 37,
        "time": 23083,
        "channel": 9
      },
      {
        "type": "note_off",
        "note": 26,
        "time": 23090,
        "channel": 9
      },
      {
        "type": "note_on",
        "note": 38,
        "velocity": 61,
        "time": 23390,
        "channel": 9
      },
      {
        "type": "note_on",
        "note": 42,
        "velocity": 92,
        "time": 23390,
        "channel": 9
      },
      {
        "type": "note_off",
        "note": 38,
        "time": 23459,
        "channel": 9
      },
      {
        "type": "note_off",
        "note": 42,
        "time": 23459,
        "channel": 9
      },
      {
        "type": "note_on",
        "note": 22,
        "velocity": 64,
        "time": 23723,
        "channel": 9
      },
      {
        "type": "note_on",
        "note": 38,
        "velocity": 70,
        "time": 23726,
        "channel": 9
      },
      {
        "type": "note_off",
        "note": 22,
        "time": 23791,
        "channel": 9
      },
      {
        "type": "note_off",
        "note": 38,
        "time": 23794,
        "channel": 9
      },
      {
        "type": "note_on",
        "note": 44,
        "velocity": 45,
        "time": 23989,
        "channel": 9
      },
      {
        "type": "note_off",
        "note": 44,
        "time": 24057,
        "channel": 9
      },
      {
        "type": "note_on",
        "note": 38,
        "velocity": 64,
        "time": 24094,
        "channel": 9
      },
      {
        "type": "note_off",
        "note": 38,
        "time": 24161,
        "channel": 9
      },
      {
        "type": "note_on",
        "note": 38,
        "velocity": 77,
        "time": 24225,
        "channel": 9
      },
      {
        "type": "note_off",
        "note": 38,
        "time": 24292,
        "channel": 9
      },
      {
        "type": "note_on",
        "note": 38,
        "velocity": 68,
        "time": 24474,
        "channel": 9
      },
      {
        "type": "note_off",
        "note": 38,
        "time": 24542,
        "channel": 9
      },
      {
        "type": "note_on",
        "note": 38,
        "velocity": 65,
        "time": 24590,
        "channel": 9
      },
      {
        "type": "note_off",
        "note": 38,
        "time": 24658,
        "channel": 9
      },
      {
        "type": "note_on",
        "note": 38,
        "velocity": 59,
        "time": 24716,
        "channel": 9
      },
      {
        "type": "note_off",
        "note": 38,
        "time": 24784,
        "channel": 9
      },
      {
        "type": "note_on",
        "note": 38,
        "velocity": 63,
        "time": 24834,
        "channel": 9
      },
      {
        "type": "note_off",
        "note": 38,
        "time": 24902,
        "channel": 9
      },
      {
        "type": "note_on",
        "note": 36,
        "velocity": 58,
        "time": 24953,
        "channel": 9
      },
      {
        "type": "note_on",
        "note": 42,
        "velocity": 68,
        "time": 24956,
        "channel": 9
      },
      {
        "type": "note_off",
        "note": 36,
        "time": 25021,
        "channel": 9
      },
      {
        "type": "note_off",
        "note": 42,
        "time": 25024,
        "channel": 9
      },
      {
        "type": "note_on",
        "note": 42,
        "velocity": 40,
        "time": 25083,
        "channel": 9
      },
      {
        "type": "note_off",
        "note": 42,
        "time": 25151,
        "channel": 9
      },
      {
        "type": "note_on",
        "note": 42,
        "velocity": 120,
        "time": 25194,
        "channel": 9
      },
      {
        "type": "note_off",
        "note": 42,
        "time": 25262,
        "channel": 9
      },
      {
        "type": "note_on",
        "note": 36,
        "velocity": 54,
        "time": 25295,
        "channel": 9
      },
      {
        "type": "note_on",
        "note": 42,
        "velocity": 31,
        "time": 25330,
        "channel": 9
      },
      {
        "type": "note_off",
        "note": 36,
        "time": 25363,
        "channel": 9
      },
      {
        "type": "note_off",
        "note": 42,
        "time": 25398,
        "channel": 9
      },
      {
        "type": "note_on",
        "note": 42,
        "velocity": 80,
        "time": 25434,
        "channel": 9
      },
      {
        "type": "note_on",
        "note": 38,
        "velocity": 71,
        "time": 25439,
        "channel": 9
      },
      {
        "type": "note_off",
        "note": 42,
        "time": 25503,
        "channel": 9
      },
      {
        "type": "note_off",
        "note": 38,
        "time": 25506,
        "channel": 9
      },
      {
        "type": "note_on",
        "note": 42,
        "velocity": 34,
        "time": 25554,
        "channel": 9
      },
      {
        "type": "note_off",
        "note": 42,
        "time": 25622,
        "channel": 9
      },
      {
        "type": "note_on",
        "note": 42,
        "velocity": 58,
        "time": 25668,
        "channel": 9
      },
      {
        "type": "note_off",
        "note": 42,
        "time": 25737,
        "channel": 9
      },
      {
        "type": "note_on",
        "note": 38,
        "velocity": 44,
        "time": 25792,
        "channel": 9
      },
      {
        "type": "note_on",
        "note": 42,
        "velocity": 78,
        "time": 25796,
        "channel": 9
      },
      {
        "type": "note_off",
        "note": 38,
        "time": 25860,
        "channel": 9
      },
      {
        "type": "note_off",
        "note": 42,
        "time": 25864,
        "channel": 9
      },
      {
        "type": "note_on",
        "note": 42,
        "velocity": 52,
        "time": 25903,
        "channel": 9
      },
      {
        "type": "note_off",
        "note": 42,
        "time": 25971,
        "channel": 9
      },
      {
        "type": "note_on",
        "note": 42,
        "velocity": 61,
        "time": 26019,
        "channel": 9
      },
      {
        "type": "note_on",
        "note": 38,
        "velocity": 19,
        "time": 26020,
        "channel": 9
      },
      {
        "type": "note_off",
        "note": 42,
        "time": 26087,
        "channel": 9
      },
      {
        "type": "note_off",
        "note": 38,
        "time": 26088,
        "channel": 9
      },
      {
        "type": "note_on",
        "note": 42,
        "velocity": 60,
        "time": 26135,
        "channel": 9
      },
      {
        "type": "note_on",
        "note": 36,
        "velocity": 60,
        "time": 26138,
        "channel": 9
      },
      {
        "type": "note_off",
        "note": 42,
        "time": 26203,
        "channel": 9
      },
      {
        "type": "note_off",
        "note": 36,
        "time": 26206,
        "channel": 9
      },
      {
        "type": "note_on",
        "note": 46,
        "velocity": 34,
        "time": 26252,
        "channel": 9
      },
      {
        "type": "note_off",
        "note": 46,
        "time": 26319,
        "channel": 9
      },
      {
        "type": "note_on",
        "note": 38,
        "velocity": 59,
        "time": 26375,
        "channel": 9
      },
      {
        "type": "note_on",
        "note": 42,
        "velocity": 70,
        "time": 26377,
        "channel": 9
      },
      {
        "type": "note_off",
        "note": 38,
        "time": 26442,
        "channel": 9
      },
      {
        "type": "note_off",
        "note": 42,
        "time": 26446,
        "channel": 9
      },
      {
        "type": "note_on",
        "note": 36,
        "velocity": 60,
        "time": 26492,
        "channel": 9
      },
      {
        "type": "note_on",
        "note": 42,
        "velocity": 36,
        "time": 26501,
        "channel": 9
      },
      {
        "type": "note_off",
        "note": 36,
        "time": 26560,
        "channel": 9
      },
      {
        "type": "note_off",
        "note": 42,
        "time": 26569,
        "channel": 9
      },
      {
        "type": "note_on",
        "note": 42,
        "velocity": 73,
        "time": 26617,
        "channel": 9
      },
      {
        "type": "note_off",
        "note": 42,
        "time": 26685,
        "channel": 9
      },
      {
        "type": "note_on",
        "note": 38,
        "velocity": 42,
        "time": 26732,
        "channel": 9
      },
      {
        "type": "note_on",
        "note": 42,
        "velocity": 55,
        "time": 26738,
        "channel": 9
      },
      {
        "type": "note_off",
        "note": 38,
        "time": 26800,
        "channel": 9
      },
      {
        "type": "note_off",
        "note": 42,
        "time": 26806,
        "channel": 9
      },
      {
        "type": "note_on",
        "note": 36,
        "velocity": 56,
        "time": 26854,
        "channel": 9
      },
      {
        "type": "note_on",
        "note": 42,
        "velocity": 54,
        "time": 26858,
        "channel": 9
      },
      {
        "type": "note_off",
        "note": 36,
        "time": 26922,
        "channel": 9
      },
      {
        "type": "note_off",
        "note": 42,
        "time": 26926,
        "channel": 9
      },
      {
        "type": "note_on",
        "note": 42,
        "velocity": 47,
        "time": 26969,
        "channel": 9
      },
      {
        "type": "note_off",
        "note": 42,
        "time": 27038,
        "channel": 9
      },
      {
        "type": "note_on",
        "note": 42,
        "velocity": 101,
        "time": 27088,
        "channel": 9
      },
      {
        "type": "note_off",
        "note": 42,
        "time": 27156,
        "channel": 9
      },
      {
        "type": "note_on",
        "note": 36,
        "velocity": 55,
        "time": 27212,
        "channel": 9
      },
      {
        "type": "note_off",
        "note": 36,
        "time": 27279,
        "channel": 9
      },
      {
        "type": "note_on",
        "note": 42,
        "velocity": 56,
        "time": 27342,
        "channel": 9
      },
      {
        "type": "note_on",
        "note": 38,
        "velocity": 72,
        "time": 27347,
        "channel": 9
      },
      {
        "type": "note_off",
        "note": 42,
        "time": 27410,
        "channel": 9
      },
      {
        "type": "note_off",
        "note": 38,
        "time": 27415,
        "channel": 9
      },
      {
        "type": "note_on",
        "note": 42,
        "velocity": 51,
        "time": 27455,
        "channel": 9
      },
      {
        "type": "note_off",
        "note": 42,
        "time": 27523,
        "channel": 9
      },
      {
        "type": "note_on",
        "note": 42,
        "velocity": 70,
        "time": 27572,
        "channel": 9
      },
      {
        "type": "note_off",
        "note": 42,
        "time": 27640,
        "channel": 9
      },
      {
        "type": "note_on",
        "note": 38,
        "velocity": 35,
        "time": 27685,
        "channel": 9
      },
      {
        "type": "note_on",
        "note": 42,
        "velocity": 55,
        "time": 27702,
        "channel": 9
      },
      {
        "type": "note_off",
        "note": 38,
        "time": 27753,
        "channel": 9
      },
      {
        "type": "note_off",
        "note": 42,
        "time": 27770,
        "channel": 9
      },
      {
        "type": "note_on",
        "note": 42,
        "velocity": 67,
        "time": 27808,
        "channel": 9
      },
      {
        "type": "note_off",
        "note": 42,
        "time": 27876,
        "channel": 9
      },
      {
        "type": "note_on",
        "note": 38,
        "velocity": 35,
        "time": 27914,
        "channel": 9
      },
      {
        "type": "note_on",
        "note": 42,
        "velocity": 68,
        "time": 27932,
        "channel": 9
      },
      {
        "type": "note_off",
        "note": 38,
        "time": 27982,
        "channel": 9
      },
      {
        "type": "note_off",
        "note": 42,
        "time": 27999,
        "channel": 9
      },
      {
        "type": "note_on",
        "note": 36,
        "velocity": 58,
        "time": 28024,
        "channel": 9
      },
      {
        "type": "note_on",
        "note": 46,
        "velocity": 71,
        "time": 28041,
        "channel": 9
      },
      {
        "type": "note_off",
        "note": 36,
        "time": 28091,
        "channel": 9
      },
      {
        "type": "note_off",
        "note": 46,
        "time": 28109,
        "channel": 9
      },
      {
        "type": "note_on",
        "note": 46,
        "velocity": 31,
        "time": 28187,
        "channel": 9
      },
      {
        "type": "note_off",
        "note": 46,
        "time": 28255,
        "channel": 9
      },
      {
        "type": "note_on",
        "note": 44,
        "velocity": 37,
        "time": 28267,
        "channel": 9
      },
      {
        "type": "note_on",
        "note": 38,
        "velocity": 71,
        "time": 28299,
        "channel": 9
      },
      {
        "type": "note_on",
        "note": 42,
        "velocity": 67,
        "time": 28299,
        "channel": 9
      },
      {
        "type": "note_off",
        "note": 44,
        "time": 28336,
        "channel": 9
      },
      {
        "type": "note_off",
        "note": 38,
        "time": 28367,
        "channel": 9
      },
      {
        "type": "note_off",
        "note": 42,
        "time": 28367,
        "channel": 9
      },
      {
        "type": "note_on",
        "note": 36,
        "velocity": 58,
        "time": 28419,
        "channel": 9
      },
      {
        "type": "note_on",
        "note": 42,
        "velocity": 34,
        "time": 28419,
        "channel": 9
      },
      {
        "type": "note_off",
        "note": 36,
        "time": 28487,
        "channel": 9
      },
      {
        "type": "note_off",
        "note": 42,
        "time": 28487,
        "channel": 9
      },
      {
        "type": "note_on",
        "note": 42,
        "velocity": 59,
        "time": 28534,
        "channel": 9
      },
      {
        "type": "note_off",
        "note": 42,
        "time": 28602,
        "channel": 9
      },
      {
        "type": "note_on",
        "note": 38,
        "velocity": 23,
        "time": 28644,
        "channel": 9
      },
      {
        "type": "note_on",
        "note": 42,
        "velocity": 62,
        "time": 28656,
        "channel": 9
      },
      {
        "type": "note_off",
        "note": 38,
        "time": 28712,
        "channel": 9
      },
      {
        "type": "note_off",
        "note": 42,
        "time": 28724,
        "channel": 9
      },
      {
        "type": "note_on",
        "note": 36,
        "velocity": 57,
        "time": 28775,
        "channel": 9
      },
      {
        "type": "note_on",
        "note": 42,
        "velocity": 52,
        "time": 28775,
        "channel": 9
      },
      {
        "type": "note_off",
        "note": 36,
        "time": 28843,
        "channel": 9
      },
      {
        "type": "note_off",
        "note": 42,
        "time": 28843,
        "channel": 9
      },
      {
        "type": "note_on",
        "note": 42,
        "velocity": 54,
        "time": 28885,
        "channel": 9
      },
      {
        "type": "note_off",
        "note": 42,
        "time": 28953,
        "channel": 9
      },
      {
        "type": "note_on",
        "note": 42,
        "velocity": 70,
        "time": 29006,
        "channel": 9
      },
      {
        "type": "note_off",
        "note": 42,
        "time": 29074,
        "channel": 9
      },
      {
        "type": "note_on",
        "note": 42,
        "velocity": 26,
        "time": 29134,
        "channel": 9
      },
      {
        "type": "note_on",
        "note": 36,
        "velocity": 60,
        "time": 29140,
        "channel": 9
      },
      {
        "type": "note_off",
        "note": 42,
        "time": 29202,
        "channel": 9
      },
      {
        "type": "note_off",
        "note": 36,
        "time": 29207,
        "channel": 9
      },
      {
        "type": "note_on",
        "note": 37,
        "velocity": 72,
        "time": 29262,
        "channel": 9
      },
      {
        "type": "note_on",
        "note": 42,
        "velocity": 65,
        "time": 29262,
        "channel": 9
      },
      {
        "type": "note_off",
        "note": 37,
        "time": 29330,
        "channel": 9
      },
      {
        "type": "note_off",
        "note": 42,
        "time": 29330,
        "channel": 9
      },
      {
        "type": "note_on",
        "note": 42,
        "velocity": 50,
        "time": 29369,
        "channel": 9
      },
      {
        "type": "note_off",
        "note": 42,
        "time": 29437,
        "channel": 9
      },
      {
        "type": "note_on",
        "note": 42,
        "velocity": 73,
        "time": 29493,
        "channel": 9
      },
      {
        "type": "note_off",
        "note": 42,
        "time": 29561,
        "channel": 9
      },
      {
        "type": "note_on",
        "note": 42,
        "velocity": 56,
        "time": 29619,
        "channel": 9
      },
      {
        "type": "note_on",
        "note": 38,
        "velocity": 30,
        "time": 29625,
        "channel": 9
      },
      {
        "type": "note_off",
        "note": 42,
        "time": 29687,
        "channel": 9
      },
      {
        "type": "note_off",
        "note": 38,
        "time": 29693,
        "channel": 9
      },
      {
        "type": "note_on",
        "note": 42,
        "velocity": 67,
        "time": 29729,
        "channel": 9
      },
      {
        "type": "note_off",
        "note": 42,
        "time": 29797,
        "channel": 9
      },
      {
        "type": "note_on",
        "note": 42,
        "velocity": 53,
        "time": 29846,
        "channel": 9
      },
      {
        "type": "note_off",
        "note": 42,
        "time": 29914,
        "channel": 9
      },
      {
        "type": "note_on",
        "note": 36,
        "velocity": 60,
        "time": 29965,
        "channel": 9
      },
      {
        "type": "note_on",
        "note": 42,
        "velocity": 50,
        "time": 29968,
        "channel": 9
      },
      {
        "type": "note_off",
        "note": 36,
        "time": 30033,
        "channel": 9
      },
      {
        "type": "note_off",
        "note": 42,
        "time": 30037,
        "channel": 9
      },
      {
        "type": "note_on",
        "note": 42,
        "velocity": 44,
        "time": 30092,
        "channel": 9
      },
      {
        "type": "note_off",
        "note": 42,
        "time": 30160,
        "channel": 9
      },
      {
        "type": "note_on",
        "note": 42,
        "velocity": 65,
        "time": 30210,
        "channel": 9
      },
      {
        "type": "note_on",
        "note": 38,
        "velocity": 59,
        "time": 30215,
        "channel": 9
      },
      {
        "type": "note_off",
        "note": 42,
        "time": 30278,
        "channel": 9
      },
      {
        "type": "note_off",
        "note": 38,
        "time": 30283,
        "channel": 9
      },
      {
        "type": "note_on",
        "note": 36,
        "velocity": 58,
        "time": 30331,
        "channel": 9
      },
      {
        "type": "note_on",
        "note": 42,
        "velocity": 33,
        "time": 30339,
        "channel": 9
      },
      {
        "type": "note_off",
        "note": 36,
        "time": 30398,
        "channel": 9
      },
      {
        "type": "note_off",
        "note": 42,
        "time": 30408,
        "channel": 9
      },
      {
        "type": "note_on",
        "note": 42,
        "velocity": 60,
        "time": 30461,
        "channel": 9
      },
      {
        "type": "note_off",
        "note": 42,
        "time": 30529,
        "channel": 9
      },
      {
        "type": "note_on",
        "note": 38,
        "velocity": 28,
        "time": 30574,
        "channel": 9
      },
      {
        "type": "note_on",
        "note": 38,
        "velocity": 28,
        "time": 30614,
        "channel": 9
      },
      {
        "type": "note_off",
        "note": 38,
        "time": 30614,
        "channel": 9
      },
      {
        "type": "note_off",
        "note": 38,
        "time": 30642,
        "channel": 9
      }
    ]
  },
  {
    "file": "data\\groove\\drummer1\\eval_session\\6_hiphop-groove6_87_beat_4-4.mid",
    "num_events": 729,
    "duration": 30707,
    "events": [
      {
        "type": "set_tempo",
        "tempo": 689655,
        "time": 0
      },
      {
        "type": "note_on",
        "note": 36,
        "velocity": 127,
        "time": 0,
        "channel": 9
      },
      {
        "type": "note_on",
        "note": 42,
        "velocity": 58,
        "time": 9,
        "channel": 9
      },
      {
        "type": "note_off",
        "note": 36,
        "time": 68,
        "channel": 9
      },
      {
        "type": "note_off",
        "note": 42,
        "time": 80,
        "channel": 9
      },
      {
        "type": "note_on",
        "note": 42,
        "velocity": 17,
        "time": 115,
        "channel": 9
      },
      {
        "type": "note_off",
        "note": 42,
        "time": 185,
        "channel": 9
      },
      {
        "type": "note_on",
        "note": 22,
        "velocity": 75,
        "time": 239,
        "channel": 9
      },
      {
        "type": "note_off",
        "note": 22,
        "time": 309,
        "channel": 9
      },
      {
        "type": "note_on",
        "note": 42,
        "velocity": 16,
        "time": 351,
        "channel": 9
      },
      {
        "type": "note_on",
        "note": 36,
        "velocity": 58,
        "time": 360,
        "channel": 9
      },
      {
        "type": "note_off",
        "note": 42,
        "time": 422,
        "channel": 9
      },
      {
        "type": "note_off",
        "note": 36,
        "time": 430,
        "channel": 9
      },
      {
        "type": "note_on",
        "note": 22,
        "velocity": 60,
        "time": 482,
        "channel": 9
      },
      {
        "type": "note_on",
        "note": 40,
        "velocity": 107,
        "time": 482,
        "channel": 9
      },
      {
        "type": "note_off",
        "note": 22,
        "time": 553,
        "channel": 9
      },
      {
        "type": "note_off",
        "note": 40,
        "time": 553,
        "channel": 9
      },
      {
        "type": "note_on",
        "note": 42,
        "velocity": 21,
        "time": 600,
        "channel": 9
      },
      {
        "type": "note_off",
        "note": 42,
        "time": 671,
        "channel": 9
      },
      {
        "type": "note_on",
        "note": 22,
        "velocity": 84,
        "time": 729,
        "channel": 9
      },
      {
        "type": "note_off",
        "note": 22,
        "time": 799,
        "channel": 9
      },
      {
        "type": "note_on",
        "note": 36,
        "velocity": 53,
        "time": 838,
        "channel": 9
      },
      {
        "type": "note_on",
        "note": 42,
        "velocity": 33,
        "time": 847,
        "channel": 9
      },
      {
        "type": "note_off",
        "note": 36,
        "time": 908,
        "channel": 9
      },
      {
        "type": "note_off",
        "note": 42,
        "time": 918,
        "channel": 9
      },
      {
        "type": "note_on",
        "note": 22,
        "velocity": 79,
        "time": 972,
        "channel": 9
      },
      {
        "type": "note_off",
        "note": 22,
        "time": 1042,
        "channel": 9
      },
      {
        "type": "note_on",
        "note": 36,
        "velocity": 48,
        "time": 1067,
        "channel": 9
      },
      {
        "type": "note_on",
        "note": 42,
        "velocity": 33,
        "time": 1087,
        "channel": 9
      },
      {
        "type": "note_off",
        "note": 36,
        "time": 1137,
        "channel": 9
      },
      {
        "type": "note_off",
        "note": 42,
        "time": 1157,
        "channel": 9
      },
      {
        "type": "note_on",
        "note": 36,
        "velocity": 81,
        "time": 1195,
        "channel": 9
      },
      {
        "type": "note_on",
        "note": 22,
        "velocity": 69,
        "time": 1214,
        "channel": 9
      },
      {
        "type": "note_off",
        "note": 36,
        "time": 1266,
        "channel": 9
      },
      {
        "type": "note_off",
        "note": 22,
        "time": 1284,
        "channel": 9
      },
      {
        "type": "note_on",
        "note": 42,
        "velocity": 24,
        "time": 1326,
        "channel": 9
      },
      {
        "type": "note_off",
        "note": 42,
        "time": 1396,
        "channel": 9
      },
      {
        "type": "note_on",
        "note": 22,
        "velocity": 72,
        "time": 1452,
        "channel": 9
      },
      {
        "type": "note_on",
        "note": 40,
        "velocity": 100,
        "time": 1452,
        "channel": 9
      },
      {
        "type": "note_off",
        "note": 22,
        "time": 1522,
        "channel": 9
      },
      {
        "type": "note_off",
        "note": 40,
        "time": 1522,
        "channel": 9
      },
      {
        "type": "note_on",
        "note": 42,
        "velocity": 30,
        "time": 1570,
        "channel": 9
      },
      {
        "type": "note_on",
        "note": 36,
        "velocity": 76,
        "time": 1573,
        "channel": 9
      },
      {
        "type": "note_off",
        "note": 42,
        "time": 1640,
        "channel": 9
      },
      {
        "type": "note_off",
        "note": 36,
        "time": 1643,
        "channel": 9
      },
      {
        "type": "note_on",
        "note": 22,
        "velocity": 56,
        "time": 1692,
        "channel": 9
      },
      {
        "type": "note_off",
        "note": 22,
        "time": 1762,
        "channel": 9
      },
      {
        "type": "note_on",
        "note": 36,
        "velocity": 36,
        "time": 1794,
        "channel": 9
      },
      {
        "type": "note_on",
        "note": 42,
        "velocity": 34,
        "time": 1801,
        "channel": 9
      },
      {
        "type": "note_off",
        "note": 36,
        "time": 1864,
        "channel": 9
      },
      {
        "type": "note_off",
        "note": 42,
        "time": 1872,
        "channel": 9
      },
      {
        "type": "note_on",
        "note": 22,
        "velocity": 67,
        "time": 1924,
        "channel": 9
      },
      {
        "type": "note_on",
        "note": 36,
        "velocity": 93,
        "time": 1924,
        "channel": 9
      },
      {
        "type": "note_off",
        "note": 22,
        "time": 1994,
        "channel": 9
      },
      {
        "type": "note_off",
        "note": 36,
        "time": 1994,
        "channel": 9
      },
      {
        "type": "note_on",
        "note": 22,
        "velocity": 38,
        "time": 2030,
        "channel": 9
      },
      {
        "type": "note_off",
        "note": 22,
        "time": 2101,
        "channel": 9
      },
      {
        "type": "note_on",
        "note": 22,
        "velocity": 86,
        "time": 2162,
        "channel": 9
      },
      {
        "type": "note_off",
        "note": 22,
        "time": 2232,
        "channel": 9
      },
      {
        "type": "note_on",
        "note": 42,
        "velocity": 21,
        "time": 2284,
        "channel": 9
      },
      {
        "type": "note_on",
        "note": 36,
        "velocity": 57,
        "time": 2292,
        "channel": 9
      },
      {
        "type": "note_off",
        "note": 42,
        "time": 2355,
        "channel": 9
      },
      {
        "type": "note_off",
        "note": 36,
        "time": 2362,
        "channel": 9
      },
      {
        "type": "note_on",
        "note": 22,
        "velocity": 76,
        "time": 2410,
        "channel": 9
      },
      {
        "type": "note_on",
        "note": 40,
        "velocity": 95,
        "time": 2416,
        "channel": 9
      },
      {
        "type": "note_off",
        "note": 22,
        "time": 2480,
        "channel": 9
      },
      {
        "type": "note_off",
        "note": 40,
        "time": 2486,
        "channel": 9
      },
      {
        "type": "note_on",
        "note": 38,
        "velocity": 8,
        "time": 2509,
        "channel": 9
      },
      {
        "type": "note_on",
        "note": 42,
        "velocity": 28,
        "time": 2523,
        "channel": 9
      },
      {
        "type": "note_off",
        "note": 38,
        "time": 2579,
        "channel": 9
      },
      {
        "type": "note_off",
        "note": 42,
        "time": 2593,
        "channel": 9
      },
      {
        "type": "note_on",
        "note": 42,
        "velocity": 62,
        "time": 2642,
        "channel": 9
      },
      {
        "type": "note_off",
        "note": 42,
        "time": 2712,
        "channel": 9
      },
      {
        "type": "note_on",
        "note": 36,
        "velocity": 55,
        "time": 2766,
        "channel": 9
      },
      {
        "type": "note_on",
        "note": 42,
        "velocity": 36,
        "time": 2766,
        "channel": 9
      },
      {
        "type": "note_off",
        "note": 36,
        "time": 2836,
        "channel": 9
      },
      {
        "type": "note_off",
        "note": 42,
        "time": 2836,
        "channel": 9
      },
      {
        "type": "note_on",
        "note": 22,
        "velocity": 63,
        "time": 2880,
        "channel": 9
      },
      {
        "type": "note_off",
        "note": 22,
        "time": 2950,
        "channel": 9
      },
      {
        "type": "note_on",
        "note": 36,
        "velocity": 45,
        "time": 2992,
        "channel": 9
      },
      {
        "type": "note_on",
        "note": 42,
        "velocity": 37,
        "time": 2995,
        "channel": 9
      },
      {
        "type": "note_off",
        "note": 36,
        "time": 3062,
        "channel": 9
      },
      {
        "type": "note_off",
        "note": 42,
        "time": 3065,
        "channel": 9
      },
      {
        "type": "note_on",
        "note": 22,
        "velocity": 75,
        "time": 3110,
        "channel": 9
      },
      {
        "type": "note_on",
        "note": 36,
        "velocity": 55,
        "time": 3117,
        "channel": 9
      },
      {
        "type": "note_off",
        "note": 22,
        "time": 3181,
        "channel": 9
      },
      {
        "type": "note_off",
        "note": 36,
        "time": 3187,
        "channel": 9
      },
      {
        "type": "note_on",
        "note": 36,
        "velocity": 107,
        "time": 3352,
        "channel": 9
      },
      {
        "type": "note_off",
        "note": 36,
        "time": 3422,
        "channel": 9
      },
      {
        "type": "note_on",
        "note": 36,
        "velocity": 77,
        "time": 3585,
        "channel": 9
      },
      {
        "type": "note_off",
        "note": 36,
        "time": 3655,
        "channel": 9
      },
      {
        "type": "note_on",
        "note": 36,
        "velocity": 114,
        "time": 3824,
        "channel": 9
      },
      {
        "type": "note_off",
        "note": 36,
        "time": 3894,
        "channel": 9
      },
      {
        "type": "note_on",
        "note": 40,
        "velocity": 124,
        "time": 4317,
        "channel": 9
      },
      {
        "type": "note_on",
        "note": 22,
        "velocity": 127,
        "time": 4322,
        "channel": 9
      },
      {
        "type": "note_off",
        "note": 40,
        "time": 4387,
        "channel": 9
      },
      {
        "type": "note_off",
        "note": 22,
        "time": 4393,
        "channel": 9
      },
      {
        "type": "note_on",
        "note": 42,
        "velocity": 33,
        "time": 4447,
        "channel": 9
      },
      {
        "type": "note_off",
        "note": 42,
        "time": 4518,
        "channel": 9
      },
      {
        "type": "note_on",
        "note": 42,
        "velocity": 48,
        "time": 4564,
        "channel": 9
      },
      {
        "type": "note_off",
        "note": 42,
        "time": 4634,
        "channel": 9
      },
      {
        "type": "note_on",
        "note": 36,
        "velocity": 58,
        "time": 4671,
        "channel": 9
      },
      {
        "type": "note_on",
        "note": 42,
        "velocity": 39,
        "time": 4682,
        "channel": 9
      },
      {
        "type": "note_off",
        "note": 36,
        "time": 4741,
        "channel": 9
      },
      {
        "type": "note_off",
        "note": 42,
        "time": 4752,
        "channel": 9
      },
      {
        "type": "note_on",
        "note": 22,
        "velocity": 90,
        "time": 4800,
        "channel": 9
      },
      {
        "type": "note_off",
        "note": 22,
        "time": 4871,
        "channel": 9
      },
      {
        "type": "note_on",
        "note": 42,
        "velocity": 38,
        "time": 4909,
        "channel": 9
      },
      {
        "type": "note_on",
        "note": 36,
        "velocity": 48,
        "time": 4923,
        "channel": 9
      },
      {
        "type": "note_off",
        "note": 42,
        "time": 4979,
        "channel": 9
      },
      {
        "type": "note_off",
        "note": 36,
        "time": 4993,
        "channel": 9
      },
      {
        "type": "note_on",
        "note": 22,
        "velocity": 74,
        "time": 5031,
        "channel": 9
      },
      {
        "type": "note_on",
        "note": 36,
        "velocity": 54,
        "time": 5047,
        "channel": 9
      },
      {
        "type": "note_off",
        "note": 22,
        "time": 5102,
        "channel": 9
      },
      {
        "type": "note_off",
        "note": 36,
        "time": 5117,
        "channel": 9
      },
      {
        "type": "note_on",
        "note": 42,
        "velocity": 34,
        "time": 5143,
        "channel": 9
      },
      {
        "type": "note_off",
        "note": 42,
        "time": 5214,
        "channel": 9
      },
      {
        "type": "note_on",
        "note": 22,
        "velocity": 85,
        "time": 5282,
        "channel": 9
      },
      {
        "type": "note_on",
        "note": 40,
        "velocity": 95,
        "time": 5287,
        "channel": 9
      },
      {
        "type": "note_off",
        "note": 22,
        "time": 5352,
        "channel": 9
      },
      {
        "type": "note_off",
        "note": 40,
        "time": 5357,
        "channel": 9
      },
      {
        "type": "note_on",
        "note": 42,
        "velocity": 36,
        "time": 5407,
        "channel": 9
      },
      {
        "type": "note_off",
        "note": 42,
        "time": 5478,
        "channel": 9
      },
      {
        "type": "note_on",
        "note": 22,
        "velocity": 70,
        "time": 5527,
        "channel": 9
      },
      {
        "type": "note_off",
        "note": 22,
        "time": 5597,
        "channel": 9
      },
      {
        "type": "note_on",
        "note": 36,
        "velocity": 44,
        "time": 5634,
        "channel": 9
      },
      {
        "type": "note_on",
        "note": 42,
        "velocity": 40,
        "time": 5640,
        "channel": 9
      },
      {
        "type": "note_off",
        "note": 36,
        "time": 5705,
        "channel": 9
      },
      {
        "type": "note_off",
        "note": 42,
        "time": 5711,
        "channel": 9
      },
      {
        "type": "note_on",
        "note": 36,
        "velocity": 56,
        "time": 5763,
        "channel": 9
      },
      {
        "type": "note_on",
        "note": 22,
        "velocity": 75,
        "time": 5770,
        "channel": 9
      },
      {
        "type": "note_off",
        "note": 36,
        "time": 5833,
        "channel": 9
      },
      {
        "type": "note_off",
        "note": 22,
        "time": 5841,
        "channel": 9
      },
      {
        "type": "note_on",
        "note": 42,
        "velocity": 43,
        "time": 5883,
        "channel": 9
      },
      {
        "type": "note_off",
        "note": 42,
        "time": 5953,
        "channel": 9
      },
      {
        "type": "note_on",
        "note": 22,
        "velocity": 78,
        "time": 6002,
        "channel": 9
      },
      {
        "type": "note_off",
        "note": 22,
        "time": 6073,
        "channel": 9
      },
      {
        "type": "note_on",
        "note": 36,
        "velocity": 57,
        "time": 6117,
        "channel": 9
      },
      {
        "type": "note_on",
        "note": 42,
        "velocity": 28,
        "time": 6117,
        "channel": 9
      },
      {
        "type": "note_off",
        "note": 36,
        "time": 6188,
        "channel": 9
      },
      {
        "type": "note_off",
        "note": 42,
        "time": 6188,
        "channel": 9
      },
      {
        "type": "note_on",
        "note": 40,
        "velocity": 118,
        "time": 6239,
        "channel": 9
      },
      {
        "type": "note_on",
        "note": 22,
        "velocity": 73,
        "time": 6241,
        "channel": 9
      },
      {
        "type": "note_off",
        "note": 40,
        "time": 6310,
        "channel": 9
      },
      {
        "type": "note_off",
        "note": 22,
        "time": 6312,
        "channel": 9
      },
      {
        "type": "note_on",
        "note": 42,
        "velocity": 36,
        "time": 6353,
        "channel": 9
      },
      {
        "type": "note_off",
        "note": 42,
        "time": 6423,
        "channel": 9
      },
      {
        "type": "note_on",
        "note": 22,
        "velocity": 91,
        "time": 6470,
        "channel": 9
      },
      {
        "type": "note_off",
        "note": 22,
        "time": 6540,
        "channel": 9
      },
      {
        "type": "note_on",
        "note": 42,
        "velocity": 27,
        "time": 6590,
        "channel": 9
      },
      {
        "type": "note_on",
        "note": 36,
        "velocity": 57,
        "time": 6605,
        "channel": 9
      },
      {
        "type": "note_off",
        "note": 42,
        "time": 6661,
        "channel": 9
      },
      {
        "type": "note_off",
        "note": 36,
        "time": 6675,
        "channel": 9
      },
      {
        "type": "note_on",
        "note": 22,
        "velocity": 82,
        "time": 6715,
        "channel": 9
      },
      {
        "type": "note_off",
        "note": 22,
        "time": 6785,
        "channel": 9
      },
      {
        "type": "note_on",
        "note": 36,
        "velocity": 44,
        "time": 6829,
        "channel": 9
      },
      {
        "type": "note_on",
        "note": 42,
        "velocity": 22,
        "time": 6842,
        "channel": 9
      },
      {
        "type": "note_off",
        "note": 36,
        "time": 6900,
        "channel": 9
      },
      {
        "type": "note_off",
        "note": 42,
        "time": 6913,
        "channel": 9
      },
      {
        "type": "note_on",
        "note": 36,
        "velocity": 57,
        "time": 6954,
        "channel": 9
      },
      {
        "type": "note_on",
        "note": 22,
        "velocity": 76,
        "time": 6961,
        "channel": 9
      },
      {
        "type": "note_off",
        "note": 36,
        "time": 7025,
        "channel": 9
      },
      {
        "type": "note_off",
        "note": 22,
        "time": 7031,
        "channel": 9
      },
      {
        "type": "note_on",
        "note": 38,
        "velocity": 7,
        "time": 7045,
        "channel": 9
      },
      {
        "type": "note_on",
        "note": 42,
        "velocity": 21,
        "time": 7075,
        "channel": 9
      },
      {
        "type": "note_off",
        "note": 38,
        "time": 7115,
        "channel": 9
      },
      {
        "type": "note_off",
        "note": 42,
        "time": 7145,
        "channel": 9
      },
      {
        "type": "note_on",
        "note": 40,
        "velocity": 120,
        "time": 7194,
        "channel": 9
      },
      {
        "type": "note_on",
        "note": 22,
        "velocity": 65,
        "time": 7199,
        "channel": 9
      },
      {
        "type": "note_off",
        "note": 40,
        "time": 7265,
        "channel": 9
      },
      {
        "type": "note_off",
        "note": 22,
        "time": 7270,
        "channel": 9
      },
      {
        "type": "note_on",
        "note": 36,
        "velocity": 95,
        "time": 7317,
        "channel": 9
      },
      {
        "type": "note_on",
        "note": 26,
        "velocity": 74,
        "time": 7322,
        "channel": 9
      },
      {
        "type": "note_off",
        "note": 36,
        "time": 7387,
        "channel": 9
      },
      {
        "type": "note_off",
        "note": 26,
        "time": 7392,
        "channel": 9
      },
      {
        "type": "note_on",
        "note": 44,
        "velocity": 62,
        "time": 7432,
        "channel": 9
      },
      {
        "type": "note_on",
        "note": 42,
        "velocity": 47,
        "time": 7447,
        "channel": 9
      },
      {
        "type": "note_off",
        "note": 44,
        "time": 7502,
        "channel": 9
      },
      {
        "type": "note_off",
        "note": 42,
        "time": 7518,
        "channel": 9
      },
      {
        "type": "note_on",
        "note": 36,
        "velocity": 48,
        "time": 7537,
        "channel": 9
      },
      {
        "type": "note_on",
        "note": 42,
        "velocity": 9,
        "time": 7561,
        "channel": 9
      },
      {
        "type": "note_off",
        "note": 36,
        "time": 7607,
        "channel": 9
      },
      {
        "type": "note_off",
        "note": 42,
        "time": 7632,
        "channel": 9
      },
      {
        "type": "note_on",
        "note": 22,
        "velocity": 70,
        "time": 7671,
        "channel": 9
      },
      {
        "type": "note_on",
        "note": 36,
        "velocity": 107,
        "time": 7675,
        "channel": 9
      },
      {
        "type": "note_off",
        "note": 22,
        "time": 7742,
        "channel": 9
      },
      {
        "type": "note_off",
        "note": 36,
        "time": 7744,
        "channel": 9
      },
      {
        "type": "note_on",
        "note": 42,
        "velocity": 26,
        "time": 7787,
        "channel": 9
      },
      {
        "type": "note_off",
        "note": 42,
        "time": 7857,
        "channel": 9
      },
      {
        "type": "note_on",
        "note": 22,
        "velocity": 96,
        "time": 7907,
        "channel": 9
      },
      {
        "type": "note_off",
        "note": 22,
        "time": 7978,
        "channel": 9
      },
      {
        "type": "note_on",
        "note": 42,
        "velocity": 25,
        "time": 8030,
        "channel": 9
      },
      {
        "type": "note_on",
        "note": 36,
        "velocity": 54,
        "time": 8039,
        "channel": 9
      },
      {
        "type": "note_off",
        "note": 42,
        "time": 8100,
        "channel": 9
      },
      {
        "type": "note_off",
        "note": 36,
        "time": 8109,
        "channel": 9
      },
      {
        "type": "note_on",
        "note": 22,
        "velocity": 86,
        "time": 8156,
        "channel": 9
      },
      {
        "type": "note_on",
        "note": 40,
        "velocity": 115,
        "time": 8157,
        "channel": 9
      },
      {
        "type": "note_off",
        "note": 22,
        "time": 8226,
        "channel": 9
      },
      {
        "type": "note_off",
        "note": 40,
        "time": 8227,
        "channel": 9
      },
      {
        "type": "note_on",
        "note": 42,
        "velocity": 28,
        "time": 8281,
        "channel": 9
      },
      {
        "type": "note_off",
        "note": 42,
        "time": 8351,
        "channel": 9
      },
      {
        "type": "note_on",
        "note": 22,
        "velocity": 99,
        "time": 8394,
        "channel": 9
      },
      {
        "type": "note_off",
        "note": 22,
        "time": 8464,
        "channel": 9
      },
      {
        "type": "note_on",
        "note": 36,
        "velocity": 56,
        "time": 8504,
        "channel": 9
      },
      {
        "type": "note_on",
        "note": 42,
        "velocity": 24,
        "time": 8515,
        "channel": 9
      },
      {
        "type": "note_off",
        "note": 36,
        "time": 8574,
        "channel": 9
      },
      {
        "type": "note_off",
        "note": 42,
        "time": 8585,
        "channel": 9
      },
      {
        "type": "note_on",
        "note": 22,
        "velocity": 94,
        "time": 8642,
        "channel": 9
      },
      {
        "type": "note_off",
        "note": 22,
        "time": 8713,
        "channel": 9
      },
      {
        "type": "note_on",
        "note": 36,
        "velocity": 39,
        "time": 8754,
        "channel": 9
      },
      {
        "type": "note_on",
        "note": 42,
        "velocity": 36,
        "time": 8767,
        "channel": 9
      },
      {
        "type": "note_off",
        "note": 36,
        "time": 8825,
        "channel": 9
      },
      {
        "type": "note_off",
        "note": 42,
        "time": 8837,
        "channel": 9
      },
      {
        "type": "note_on",
        "note": 22,
        "velocity": 86,
        "time": 8891,
        "channel": 9
      },
      {
        "type": "note_on",
        "note": 36,
        "velocity": 58,
        "time": 8891,
        "channel": 9
      },
      {
        "type": "note_off",
        "note": 22,
        "time": 8962,
        "channel": 9
      },
      {
        "type": "note_off",
        "note": 36,
        "time": 8962,
        "channel": 9
      },
      {
        "type": "note_on",
        "note": 42,
        "velocity": 34,
        "time": 9008,
        "channel": 9
      },
      {
        "type": "note_off",
        "note": 42,
        "time": 9079,
        "channel": 9
      },
      {
        "type": "note_on",
        "note": 22,
        "velocity": 84,
        "time": 9126,
        "channel": 9
      },
      {
        "type": "note_on",
        "note": 40,
        "velocity": 112,
        "time": 9126,
        "channel": 9
      },
      {
        "type": "note_off",
        "note": 22,
        "time": 9197,
        "channel": 9
      },
      {
        "type": "note_off",
        "note": 40,
        "time": 9197,
        "channel": 9
      },
      {
        "type": "note_on",
        "note": 36,
        "velocity": 65,
        "time": 9244,
        "channel": 9
      },
      {
        "type": "note_on",
        "note": 42,
        "velocity": 45,
        "time": 9253,
        "channel": 9
      },
      {
        "type": "note_off",
        "note": 36,
        "time": 9315,
        "channel": 9
      },
      {
        "type": "note_off",
        "note": 42,
        "time": 9324,
        "channel": 9
      },
      {
        "type": "note_on",
        "note": 22,
        "velocity": 66,
        "time": 9370,
        "channel": 9
      },
      {
        "type": "note_off",
        "note": 22,
        "time": 9441,
        "channel": 9
      },
      {
        "type": "note_on",
        "note": 36,
        "velocity": 48,
        "time": 9480,
        "channel": 9
      },
      {
        "type": "note_on",
        "note": 42,
        "velocity": 25,
        "time": 9484,
        "channel": 9
      },
      {
        "type": "note_off",
        "note": 36,
        "time": 9550,
        "channel": 9
      },
      {
        "type": "note_off",
        "note": 42,
        "time": 9555,
        "channel": 9
      },
      {
        "type": "note_on",
        "note": 36,
        "velocity": 73,
        "time": 9600,
        "channel": 9
      },
      {
        "type": "note_on",
        "note": 22,
        "velocity": 84,
        "time": 9610,
        "channel": 9
      },
      {
        "type": "note_off",
        "note": 36,
        "time": 9670,
        "channel": 9
      },
      {
        "type": "note_off",
        "note": 22,
        "time": 9681,
        "channel": 9
      },
      {
        "type": "note_on",
        "note": 42,
        "velocity": 39,
        "time": 9719,
        "channel": 9
      },
      {
        "type": "note_off",
        "note": 42,
        "time": 9789,
        "channel": 9
      },
      {
        "type": "note_on",
        "note": 22,
        "velocity": 85,
        "time": 9843,
        "channel": 9
      },
      {
        "type": "note_off",
        "note": 22,
        "time": 9914,
        "channel": 9
      },
      {
        "type": "note_on",
        "note": 36,
        "velocity": 57,
        "time": 9945,
        "channel": 9
      },
      {
        "type": "note_on",
        "note": 42,
        "velocity": 43,
        "time": 9964,
        "channel": 9
      },
      {
        "type": "note_off",
        "note": 36,
        "time": 10015,
        "channel": 9
      },
      {
        "type": "note_off",
        "note": 42,
        "time": 10035,
        "channel": 9
      },
      {
        "type": "note_on",
        "note": 22,
        "velocity": 83,
        "time": 10081,
        "channel": 9
      },
      {
        "type": "note_on",
        "note": 40,
        "velocity": 109,
        "time": 10082,
        "channel": 9
      },
      {
        "type": "note_off",
        "note": 22,
        "time": 10151,
        "channel": 9
      },
      {
        "type": "note_off",
        "note": 40,
        "time": 10153,
        "channel": 9
      },
      {
        "type": "note_on",
        "note": 42,
        "velocity": 38,
        "time": 10195,
        "channel": 9
      },
      {
        "type": "note_off",
        "note": 42,
        "time": 10266,
        "channel": 9
      },
      {
        "type": "note_on",
        "note": 22,
        "velocity": 80,
        "time": 10322,
        "channel": 9
      },
      {
        "type": "note_off",
        "note": 22,
        "time": 10393,
        "channel": 9
      },
      {
        "type": "note_on",
        "note": 36,
        "velocity": 59,
        "time": 10432,
        "channel": 9
      },
      {
        "type": "note_on",
        "note": 42,
        "velocity": 45,
        "time": 10440,
        "channel": 9
      },
      {
        "type": "note_off",
        "note": 36,
        "time": 10502,
        "channel": 9
      },
      {
        "type": "note_off",
        "note": 42,
        "time": 10511,
        "channel": 9
      },
      {
        "type": "note_on",
        "note": 22,
        "velocity": 82,
        "time": 10561,
        "channel": 9
      },
      {
        "type": "note_off",
        "note": 22,
        "time": 10632,
        "channel": 9
      },
      {
        "type": "note_on",
        "note": 36,
        "velocity": 41,
        "time": 10654,
        "channel": 9
      },
      {
        "type": "note_on",
        "note": 42,
        "velocity": 38,
        "time": 10675,
        "channel": 9
      },
      {
        "type": "note_off",
        "note": 36,
        "time": 10724,
        "channel": 9
      },
      {
        "type": "note_off",
        "note": 42,
        "time": 10746,
        "channel": 9
      },
      {
        "type": "note_on",
        "note": 36,
        "velocity": 55,
        "time": 10778,
        "channel": 9
      },
      {
        "type": "note_on",
        "note": 22,
        "velocity": 91,
        "time": 10794,
        "channel": 9
      },
      {
        "type": "note_off",
        "note": 36,
        "time": 10849,
        "channel": 9
      },
      {
        "type": "note_off",
        "note": 22,
        "time": 10865,
        "channel": 9
      },
      {
        "type": "note_on",
        "note": 26,
        "velocity": 57,
        "time": 11034,
        "channel": 9
      },
      {
        "type": "note_on",
        "note": 36,
        "velocity": 127,
        "time": 11042,
        "channel": 9
      },
      {
        "type": "note_off",
        "note": 26,
        "time": 11104,
        "channel": 9
      },
      {
        "type": "note_off",
        "note": 36,
        "time": 11112,
        "channel": 9
      },
      {
        "type": "note_on",
        "note": 36,
        "velocity": 52,
        "time": 11265,
        "channel": 9
      },
      {
        "type": "note_off",
        "note": 36,
        "time": 11335,
        "channel": 9
      },
      {
        "type": "note_on",
        "note": 36,
        "velocity": 116,
        "time": 11525,
        "channel": 9
      },
      {
        "type": "note_off",
        "note": 36,
        "time": 11595,
        "channel": 9
      },
      {
        "type": "note_on",
        "note": 44,
        "velocity": 22,
        "time": 11738,
        "channel": 9
      },
      {
        "type": "note_off",
        "note": 44,
        "time": 11808,
        "channel": 9
      },
      {
        "type": "note_on",
        "note": 40,
        "velocity": 127,
        "time": 11983,
        "channel": 9
      },
      {
        "type": "note_on",
        "note": 22,
        "velocity": 127,
        "time": 11989,
        "channel": 9
      },
      {
        "type": "note_off",
        "note": 40,
        "time": 12053,
        "channel": 9
      },
      {
        "type": "note_off",
        "note": 22,
        "time": 12059,
        "channel": 9
      },
      {
        "type": "note_on",
        "note": 42,
        "velocity": 37,
        "time": 12108,
        "channel": 9
      },
      {
        "type": "note_off",
        "note": 42,
        "time": 12179,
        "channel": 9
      },
      {
        "type": "note_on",
        "note": 22,
        "velocity": 39,
        "time": 12223,
        "channel": 9
      },
      {
        "type": "note_off",
        "note": 22,
        "time": 12293,
        "channel": 9
      },
      {
        "type": "note_on",
        "note": 42,
        "velocity": 22,
        "time": 12333,
        "channel": 9
      },
      {
        "type": "note_on",
        "note": 36,
        "velocity": 57,
        "time": 12350,
        "channel": 9
      },
      {
        "type": "note_off",
        "note": 42,
        "time": 12403,
        "channel": 9
      },
      {
        "type": "note_off",
        "note": 36,
        "time": 12420,
        "channel": 9
      },
      {
        "type": "note_on",
        "note": 22,
        "velocity": 86,
        "time": 12458,
        "channel": 9
      },
      {
        "type": "note_off",
        "note": 22,
        "time": 12529,
        "channel": 9
      },
      {
        "type": "note_on",
        "note": 36,
        "velocity": 49,
        "time": 12582,
        "channel": 9
      },
      {
        "type": "note_on",
        "note": 42,
        "velocity": 12,
        "time": 12585,
        "channel": 9
      },
      {
        "type": "note_off",
        "note": 36,
        "time": 12653,
        "channel": 9
      },
      {
        "type": "note_off",
        "note": 42,
        "time": 12655,
        "channel": 9
      },
      {
        "type": "note_on",
        "note": 22,
        "velocity": 64,
        "time": 12709,
        "channel": 9
      },
      {
        "type": "note_on",
        "note": 36,
        "velocity": 55,
        "time": 12714,
        "channel": 9
      },
      {
        "type": "note_off",
        "note": 22,
        "time": 12779,
        "channel": 9
      },
      {
        "type": "note_off",
        "note": 36,
        "time": 12783,
        "channel": 9
      },
      {
        "type": "note_on",
        "note": 38,
        "velocity": 5,
        "time": 12816,
        "channel": 9
      },
      {
        "type": "note_on",
        "note": 22,
        "velocity": 30,
        "time": 12822,
        "channel": 9
      },
      {
        "type": "note_off",
        "note": 38,
        "time": 12886,
        "channel": 9
      },
      {
        "type": "note_off",
        "note": 22,
        "time": 12893,
        "channel": 9
      },
      {
        "type": "note_on",
        "note": 40,
        "velocity": 106,
        "time": 12947,
        "channel": 9
      },
      {
        "type": "note_on",
        "note": 22,
        "velocity": 68,
        "time": 12949,
        "channel": 9
      },
      {
        "type": "note_off",
        "note": 40,
        "time": 13017,
        "channel": 9
      },
      {
        "type": "note_off",
        "note": 22,
        "time": 13020,
        "channel": 9
      },
      {
        "type": "note_on",
        "note": 36,
        "velocity": 58,
        "time": 13065,
        "channel": 9
      },
      {
        "type": "note_on",
        "note": 42,
        "velocity": 25,
        "time": 13073,
        "channel": 9
      },
      {
        "type": "note_off",
        "note": 36,
        "time": 13136,
        "channel": 9
      },
      {
        "type": "note_off",
        "note": 42,
        "time": 13143,
        "channel": 9
      },
      {
        "type": "note_on",
        "note": 22,
        "velocity": 90,
        "time": 13197,
        "channel": 9
      },
      {
        "type": "note_off",
        "note": 22,
        "time": 13268,
        "channel": 9
      },
      {
        "type": "note_on",
        "note": 22,
        "velocity": 17,
        "time": 13315,
        "channel": 9
      },
      {
        "type": "note_on",
        "note": 36,
        "velocity": 41,
        "time": 13315,
        "channel": 9
      },
      {
        "type": "note_off",
        "note": 22,
        "time": 13385,
        "channel": 9
      },
      {
        "type": "note_off",
        "note": 36,
        "time": 13385,
        "channel": 9
      },
      {
        "type": "note_on",
        "note": 36,
        "velocity": 55,
        "time": 13438,
        "channel": 9
      },
      {
        "type": "note_on",
        "note": 42,
        "velocity": 84,
        "time": 13440,
        "channel": 9
      },
      {
        "type": "note_off",
        "note": 36,
        "time": 13508,
        "channel": 9
      },
      {
        "type": "note_off",
        "note": 42,
        "time": 13511,
        "channel": 9
      },
      {
        "type": "note_on",
        "note": 42,
        "velocity": 31,
        "time": 13552,
        "channel": 9
      },
      {
        "type": "note_off",
        "note": 42,
        "time": 13623,
        "channel": 9
      },
      {
        "type": "note_on",
        "note": 22,
        "velocity": 118,
        "time": 13674,
        "channel": 9
      },
      {
        "type": "note_off",
        "note": 22,
        "time": 13744,
        "channel": 9
      },
      {
        "type": "note_on",
        "note": 42,
        "velocity": 15,
        "time": 13792,
        "channel": 9
      },
      {
        "type": "note_on",
        "note": 36,
        "velocity": 52,
        "time": 13796,
        "channel": 9
      },
      {
        "type": "note_off",
        "note": 42,
        "time": 13863,
        "channel": 9
      },
      {
        "type": "note_off",
        "note": 36,
        "time": 13866,
        "channel": 9
      },
      {
        "type": "note_on",
        "note": 40,
        "velocity": 111,
        "time": 13910,
        "channel": 9
      },
      {
        "type": "note_on",
        "note": 22,
        "velocity": 68,
        "time": 13915,
        "channel": 9
      },
      {
        "type": "note_off",
        "note": 40,
        "time": 13981,
        "channel": 9
      },
      {
        "type": "note_off",
        "note": 22,
        "time": 13985,
        "channel": 9
      },
      {
        "type": "note_on",
        "note": 42,
        "velocity": 27,
        "time": 14036,
        "channel": 9
      },
      {
        "type": "note_off",
        "note": 42,
        "time": 14107,
        "channel": 9
      },
      {
        "type": "note_on",
        "note": 22,
        "velocity": 83,
        "time": 14161,
        "channel": 9
      },
      {
        "type": "note_off",
        "note": 22,
        "time": 14231,
        "channel": 9
      },
      {
        "type": "note_on",
        "note": 36,
        "velocity": 57,
        "time": 14274,
        "channel": 9
      },
      {
        "type": "note_on",
        "note": 42,
        "velocity": 43,
        "time": 14287,
        "channel": 9
      },
      {
        "type": "note_off",
        "note": 36,
        "time": 14344,
        "channel": 9
      },
      {
        "type": "note_off",
        "note": 42,
        "time": 14358,
        "channel": 9
      },
      {
        "type": "note_on",
        "note": 22,
        "velocity": 66,
        "time": 14409,
        "channel": 9
      },
      {
        "type": "note_off",
        "note": 22,
        "time": 14480,
        "channel": 9
      },
      {
        "type": "note_on",
        "note": 36,
        "velocity": 44,
        "time": 14507,
        "channel": 9
      },
      {
        "type": "note_on",
        "note": 42,
        "velocity": 36,
        "time": 14527,
        "channel": 9
      },
      {
        "type": "note_off",
        "note": 36,
        "time": 14577,
        "channel": 9
      },
      {
        "type": "note_off",
        "note": 42,
        "time": 14598,
        "channel": 9
      },
      {
        "type": "note_on",
        "note": 22,
        "velocity": 87,
        "time": 14637,
        "channel": 9
      },
      {
        "type": "note_on",
        "note": 36,
        "velocity": 55,
        "time": 14646,
        "channel": 9
      },
      {
        "type": "note_off",
        "note": 22,
        "time": 14708,
        "channel": 9
      },
      {
        "type": "note_off",
        "note": 36,
        "time": 14716,
        "channel": 9
      },
      {
        "type": "note_on",
        "note": 42,
        "velocity": 35,
        "time": 14756,
        "channel": 9
      },
      {
        "type": "note_off",
        "note": 42,
        "time": 14827,
        "channel": 9
      },
      {
        "type": "note_on",
        "note": 40,
        "velocity": 98,
        "time": 14876,
        "channel": 9
      },
      {
        "type": "note_on",
        "note": 42,
        "velocity": 52,
        "time": 14878,
        "channel": 9
      },
      {
        "type": "note_off",
        "note": 40,
        "time": 14947,
        "channel": 9
      },
      {
        "type": "note_off",
        "note": 42,
        "time": 14949,
        "channel": 9
      },
      {
        "type": "note_on",
        "note": 36,
        "velocity": 73,
        "time": 14991,
        "channel": 9
      },
      {
        "type": "note_on",
        "note": 26,
        "velocity": 66,
        "time": 14997,
        "channel": 9
      },
      {
        "type": "note_off",
        "note": 36,
        "time": 15061,
        "channel": 9
      },
      {
        "type": "note_off",
        "note": 26,
        "time": 15068,
        "channel": 9
      },
      {
        "type": "note_on",
        "note": 44,
        "velocity": 62,
        "time": 15107,
        "channel": 9
      },
      {
        "type": "note_on",
        "note": 42,
        "velocity": 40,
        "time": 15123,
        "channel": 9
      },
      {
        "type": "note_off",
        "note": 44,
        "time": 15177,
        "channel": 9
      },
      {
        "type": "note_off",
        "note": 42,
        "time": 15193,
        "channel": 9
      },
      {
        "type": "note_on",
        "note": 36,
        "velocity": 47,
        "time": 15222,
        "channel": 9
      },
      {
        "type": "note_on",
        "note": 42,
        "velocity": 6,
        "time": 15233,
        "channel": 9
      },
      {
        "type": "note_off",
        "note": 36,
        "time": 15293,
        "channel": 9
      },
      {
        "type": "note_off",
        "note": 42,
        "time": 15304,
        "channel": 9
      },
      {
        "type": "note_on",
        "note": 22,
        "velocity": 70,
        "time": 15355,
        "channel": 9
      },
      {
        "type": "note_on",
        "note": 36,
        "velocity": 86,
        "time": 15357,
        "channel": 9
      },
      {
        "type": "note_off",
        "note": 22,
        "time": 15425,
        "channel": 9
      },
      {
        "type": "note_off",
        "note": 36,
        "time": 15427,
        "channel": 9
      },
      {
        "type": "note_on",
        "note": 22,
        "velocity": 20,
        "time": 15469,
        "channel": 9
      },
      {
        "type": "note_off",
        "note": 22,
        "time": 15539,
        "channel": 9
      },
      {
        "type": "note_on",
        "note": 22,
        "velocity": 77,
        "time": 15594,
        "channel": 9
      },
      {
        "type": "note_off",
        "note": 22,
        "time": 15665,
        "channel": 9
      },
      {
        "type": "note_on",
        "note": 42,
        "velocity": 30,
        "time": 15715,
        "channel": 9
      },
      {
        "type": "note_on",
        "note": 36,
        "velocity": 53,
        "time": 15720,
        "channel": 9
      },
      {
        "type": "note_off",
        "note": 42,
        "time": 15785,
        "channel": 9
      },
      {
        "type": "note_off",
        "note": 36,
        "time": 15790,
        "channel": 9
      },
      {
        "type": "note_on",
        "note": 38,
        "velocity": 127,
        "time": 15841,
        "channel": 9
      },
      {
        "type": "note_on",
        "note": 22,
        "velocity": 88,
        "time": 15846,
        "channel": 9
      },
      {
        "type": "note_off",
        "note": 38,
        "time": 15911,
        "channel": 9
      },
      {
        "type": "note_off",
        "note": 22,
        "time": 15916,
        "channel": 9
      },
      {
        "type": "note_on",
        "note": 42,
        "velocity": 42,
        "time": 15966,
        "channel": 9
      },
      {
        "type": "note_off",
        "note": 42,
        "time": 16037,
        "channel": 9
      },
      {
        "type": "note_on",
        "note": 22,
        "velocity": 91,
        "time": 16096,
        "channel": 9
      },
      {
        "type": "note_off",
        "note": 22,
        "time": 16167,
        "channel": 9
      },
      {
        "type": "note_on",
        "note": 36,
        "velocity": 56,
        "time": 16213,
        "channel": 9
      },
      {
        "type": "note_on",
        "note": 42,
        "velocity": 33,
        "time": 16223,
        "channel": 9
      },
      {
        "type": "note_off",
        "note": 36,
        "time": 16283,
        "channel": 9
      },
      {
        "type": "note_off",
        "note": 42,
        "time": 16293,
        "channel": 9
      },
      {
        "type": "note_on",
        "note": 22,
        "velocity": 83,
        "time": 16339,
        "channel": 9
      },
      {
        "type": "note_off",
        "note": 22,
        "time": 16410,
        "channel": 9
      },
      {
        "type": "note_on",
        "note": 36,
        "velocity": 34,
        "time": 16441,
        "channel": 9
      },
      {
        "type": "note_on",
        "note": 42,
        "velocity": 24,
        "time": 16450,
        "channel": 9
      },
      {
        "type": "note_off",
        "note": 36,
        "time": 16511,
        "channel": 9
      },
      {
        "type": "note_off",
        "note": 42,
        "time": 16520,
        "channel": 9
      },
      {
        "type": "note_on",
        "note": 36,
        "velocity": 64,
        "time": 16561,
        "channel": 9
      },
      {
        "type": "note_on",
        "note": 22,
        "velocity": 84,
        "time": 16571,
        "channel": 9
      },
      {
        "type": "note_off",
        "note": 36,
        "time": 16631,
        "channel": 9
      },
      {
        "type": "note_off",
        "note": 22,
        "time": 16641,
        "channel": 9
      },
      {
        "type": "note_on",
        "note": 42,
        "velocity": 41,
        "time": 16683,
        "channel": 9
      },
      {
        "type": "note_off",
        "note": 42,
        "time": 16754,
        "channel": 9
      },
      {
        "type": "note_on",
        "note": 38,
        "velocity": 127,
        "time": 16799,
        "channel": 9
      },
      {
        "type": "note_on",
        "note": 22,
        "velocity": 85,
        "time": 16807,
        "channel": 9
      },
      {
        "type": "note_off",
        "note": 38,
        "time": 16869,
        "channel": 9
      },
      {
        "type": "note_off",
        "note": 22,
        "time": 16878,
        "channel": 9
      },
      {
        "type": "note_on",
        "note": 36,
        "velocity": 88,
        "time": 16925,
        "channel": 9
      },
      {
        "type": "note_on",
        "note": 42,
        "velocity": 40,
        "time": 16926,
        "channel": 9
      },
      {
        "type": "note_off",
        "note": 36,
        "time": 16996,
        "channel": 9
      },
      {
        "type": "note_off",
        "note": 42,
        "time": 16997,
        "channel": 9
      },
      {
        "type": "note_on",
        "note": 22,
        "velocity": 66,
        "time": 17048,
        "channel": 9
      },
      {
        "type": "note_off",
        "note": 22,
        "time": 17118,
        "channel": 9
      },
      {
        "type": "note_on",
        "note": 36,
        "velocity": 47,
        "time": 17155,
        "channel": 9
      },
      {
        "type": "note_on",
        "note": 42,
        "velocity": 25,
        "time": 17158,
        "channel": 9
      },
      {
        "type": "note_off",
        "note": 36,
        "time": 17225,
        "channel": 9
      },
      {
        "type": "note_off",
        "note": 42,
        "time": 17228,
        "channel": 9
      },
      {
        "type": "note_on",
        "note": 22,
        "velocity": 82,
        "time": 17281,
        "channel": 9
      },
      {
        "type": "note_on",
        "note": 36,
        "velocity": 74,
        "time": 17281,
        "channel": 9
      },
      {
        "type": "note_off",
        "note": 22,
        "time": 17351,
        "channel": 9
      },
      {
        "type": "note_off",
        "note": 36,
        "time": 17351,
        "channel": 9
      },
      {
        "type": "note_on",
        "note": 42,
        "velocity": 25,
        "time": 17390,
        "channel": 9
      },
      {
        "type": "note_off",
        "note": 42,
        "time": 17461,
        "channel": 9
      },
      {
        "type": "note_on",
        "note": 22,
        "velocity": 98,
        "time": 17519,
        "channel": 9
      },
      {
        "type": "note_off",
        "note": 22,
        "time": 17589,
        "channel": 9
      },
      {
        "type": "note_on",
        "note": 36,
        "velocity": 55,
        "time": 17631,
        "channel": 9
      },
      {
        "type": "note_on",
        "note": 42,
        "velocity": 32,
        "time": 17640,
        "channel": 9
      },
      {
        "type": "note_off",
        "note": 36,
        "time": 17701,
        "channel": 9
      },
      {
        "type": "note_off",
        "note": 42,
        "time": 17711,
        "channel": 9
      },
      {
        "type": "note_on",
        "note": 22,
        "velocity": 63,
        "time": 17758,
        "channel": 9
      },
      {
        "type": "note_on",
        "note": 38,
        "velocity": 125,
        "time": 17758,
        "channel": 9
      },
      {
        "type": "note_off",
        "note": 22,
        "time": 17828,
        "channel": 9
      },
      {
        "type": "note_off",
        "note": 38,
        "time": 17828,
        "channel": 9
      },
      {
        "type": "note_on",
        "note": 42,
        "velocity": 49,
        "time": 17871,
        "channel": 9
      },
      {
        "type": "note_off",
        "note": 42,
        "time": 17942,
        "channel": 9
      },
      {
        "type": "note_on",
        "note": 22,
        "velocity": 92,
        "time": 17995,
        "channel": 9
      },
      {
        "type": "note_off",
        "note": 22,
        "time": 18066,
        "channel": 9
      },
      {
        "type": "note_on",
        "note": 36,
        "velocity": 57,
        "time": 18117,
        "channel": 9
      },
      {
        "type": "note_on",
        "note": 42,
        "velocity": 31,
        "time": 18119,
        "channel": 9
      },
      {
        "type": "note_off",
        "note": 36,
        "time": 18187,
        "channel": 9
      },
      {
        "type": "note_off",
        "note": 42,
        "time": 18189,
        "channel": 9
      },
      {
        "type": "note_on",
        "note": 22,
        "velocity": 87,
        "time": 18233,
        "channel": 9
      },
      {
        "type": "note_off",
        "note": 22,
        "time": 18303,
        "channel": 9
      },
      {
        "type": "note_on",
        "note": 36,
        "velocity": 38,
        "time": 18334,
        "channel": 9
      },
      {
        "type": "note_on",
        "note": 42,
        "velocity": 31,
        "time": 18353,
        "channel": 9
      },
      {
        "type": "note_off",
        "note": 36,
        "time": 18404,
        "channel": 9
      },
      {
        "type": "note_off",
        "note": 42,
        "time": 18424,
        "channel": 9
      },
      {
        "type": "note_on",
        "note": 36,
        "velocity": 57,
        "time": 18467,
        "channel": 9
      },
      {
        "type": "note_on",
        "note": 22,
        "velocity": 73,
        "time": 18473,
        "channel": 9
      },
      {
        "type": "note_on",
        "note": 38,
        "velocity": 8,
        "time": 18523,
        "channel": 9
      },
      {
        "type": "note_off",
        "note": 36,
        "time": 18538,
        "channel": 9
      },
      {
        "type": "note_off",
        "note": 22,
        "time": 18544,
        "channel": 9
      },
      {
        "type": "note_on",
        "note": 42,
        "velocity": 29,
        "time": 18581,
        "channel": 9
      },
      {
        "type": "note_off",
        "note": 38,
        "time": 18593,
        "channel": 9
      },
      {
        "type": "note_off",
        "note": 42,
        "time": 18651,
        "channel": 9
      },
      {
        "type": "note_on",
        "note": 36,
        "velocity": 104,
        "time": 18707,
        "channel": 9
      },
      {
        "type": "note_on",
        "note": 40,
        "velocity": 115,
        "time": 18708,
        "channel": 9
      },
      {
        "type": "note_on",
        "note": 22,
        "velocity": 84,
        "time": 18718,
        "channel": 9
      },
      {
        "type": "note_off",
        "note": 36,
        "time": 18777,
        "channel": 9
      },
      {
        "type": "note_off",
        "note": 40,
        "time": 18777,
        "channel": 9
      },
      {
        "type": "note_off",
        "note": 22,
        "time": 18789,
        "channel": 9
      },
      {
        "type": "note_on",
        "note": 36,
        "velocity": 55,
        "time": 18937,
        "channel": 9
      },
      {
        "type": "note_off",
        "note": 36,
        "time": 19007,
        "channel": 9
      },
      {
        "type": "note_on",
        "note": 36,
        "velocity": 98,
        "time": 19184,
        "channel": 9
      },
      {
        "type": "note_off",
        "note": 36,
        "time": 19254,
        "channel": 9
      },
      {
        "type": "note_on",
        "note": 40,
        "velocity": 126,
        "time": 19669,
        "channel": 9
      },
      {
        "type": "note_on",
        "note": 22,
        "velocity": 118,
        "time": 19675,
        "channel": 9
      },
      {
        "type": "note_off",
        "note": 40,
        "time": 19739,
        "channel": 9
      },
      {
        "type": "note_off",
        "note": 22,
        "time": 19745,
        "channel": 9
      },
      {
        "type": "note_on",
        "note": 42,
        "velocity": 58,
        "time": 19790,
        "channel": 9
      },
      {
        "type": "note_off",
        "note": 42,
        "time": 19860,
        "channel": 9
      },
      {
        "type": "note_on",
        "note": 22,
        "velocity": 67,
        "time": 19914,
        "channel": 9
      },
      {
        "type": "note_off",
        "note": 22,
        "time": 19984,
        "channel": 9
      },
      {
        "type": "note_on",
        "note": 42,
        "velocity": 34,
        "time": 20033,
        "channel": 9
      },
      {
        "type": "note_on",
        "note": 36,
        "velocity": 57,
        "time": 20036,
        "channel": 9
      },
      {
        "type": "note_off",
        "note": 42,
        "time": 20104,
        "channel": 9
      },
      {
        "type": "note_off",
        "note": 36,
        "time": 20107,
        "channel": 9
      },
      {
        "type": "note_on",
        "note": 22,
        "velocity": 73,
        "time": 20155,
        "channel": 9
      },
      {
        "type": "note_off",
        "note": 22,
        "time": 20226,
        "channel": 9
      },
      {
        "type": "note_on",
        "note": 36,
        "velocity": 45,
        "time": 20262,
        "channel": 9
      },
      {
        "type": "note_on",
        "note": 42,
        "velocity": 22,
        "time": 20265,
        "channel": 9
      },
      {
        "type": "note_off",
        "note": 36,
        "time": 20332,
        "channel": 9
      },
      {
        "type": "note_off",
        "note": 42,
        "time": 20336,
        "channel": 9
      },
      {
        "type": "note_on",
        "note": 36,
        "velocity": 57,
        "time": 20380,
        "channel": 9
      },
      {
        "type": "note_on",
        "note": 22,
        "velocity": 72,
        "time": 20386,
        "channel": 9
      },
      {
        "type": "note_off",
        "note": 36,
        "time": 20451,
        "channel": 9
      },
      {
        "type": "note_off",
        "note": 22,
        "time": 20457,
        "channel": 9
      },
      {
        "type": "note_on",
        "note": 42,
        "velocity": 36,
        "time": 20502,
        "channel": 9
      },
      {
        "type": "note_off",
        "note": 42,
        "time": 20572,
        "channel": 9
      },
      {
        "type": "note_on",
        "note": 40,
        "velocity": 116,
        "time": 20621,
        "channel": 9
      },
      {
        "type": "note_on",
        "note": 22,
        "velocity": 84,
        "time": 20624,
        "channel": 9
      },
      {
        "type": "note_off",
        "note": 40,
        "time": 20691,
        "channel": 9
      },
      {
        "type": "note_off",
        "note": 22,
        "time": 20695,
        "channel": 9
      },
      {
        "type": "note_on",
        "note": 42,
        "velocity": 40,
        "time": 20743,
        "channel": 9
      },
      {
        "type": "note_on",
        "note": 36,
        "velocity": 65,
        "time": 20757,
        "channel": 9
      },
      {
        "type": "note_off",
        "note": 42,
        "time": 20814,
        "channel": 9
      },
      {
        "type": "note_off",
        "note": 36,
        "time": 20827,
        "channel": 9
      },
      {
        "type": "note_on",
        "note": 22,
        "velocity": 84,
        "time": 20862,
        "channel": 9
      },
      {
        "type": "note_off",
        "note": 22,
        "time": 20933,
        "channel": 9
      },
      {
        "type": "note_on",
        "note": 42,
        "velocity": 28,
        "time": 20980,
        "channel": 9
      },
      {
        "type": "note_on",
        "note": 36,
        "velocity": 48,
        "time": 20999,
        "channel": 9
      },
      {
        "type": "note_off",
        "note": 42,
        "time": 21050,
        "channel": 9
      },
      {
        "type": "note_off",
        "note": 36,
        "time": 21069,
        "channel": 9
      },
      {
        "type": "note_on",
        "note": 22,
        "velocity": 91,
        "time": 21109,
        "channel": 9
      },
      {
        "type": "note_on",
        "note": 36,
        "velocity": 73,
        "time": 21120,
        "channel": 9
      },
      {
        "type": "note_off",
        "note": 22,
        "time": 21179,
        "channel": 9
      },
      {
        "type": "note_off",
        "note": 36,
        "time": 21190,
        "channel": 9
      },
      {
        "type": "note_on",
        "note": 42,
        "velocity": 36,
        "time": 21229,
        "channel": 9
      },
      {
        "type": "note_off",
        "note": 42,
        "time": 21300,
        "channel": 9
      },
      {
        "type": "note_on",
        "note": 22,
        "velocity": 91,
        "time": 21353,
        "channel": 9
      },
      {
        "type": "note_off",
        "note": 22,
        "time": 21424,
        "channel": 9
      },
      {
        "type": "note_on",
        "note": 42,
        "velocity": 15,
        "time": 21466,
        "channel": 9
      },
      {
        "type": "note_on",
        "note": 36,
        "velocity": 57,
        "time": 21478,
        "channel": 9
      },
      {
        "type": "note_off",
        "note": 42,
        "time": 21537,
        "channel": 9
      },
      {
        "type": "note_off",
        "note": 36,
        "time": 21549,
        "channel": 9
      },
      {
        "type": "note_on",
        "note": 22,
        "velocity": 70,
        "time": 21593,
        "channel": 9
      },
      {
        "type": "note_on",
        "note": 37,
        "velocity": 87,
        "time": 21595,
        "channel": 9
      },
      {
        "type": "note_off",
        "note": 22,
        "time": 21664,
        "channel": 9
      },
      {
        "type": "note_off",
        "note": 37,
        "time": 21665,
        "channel": 9
      },
      {
        "type": "note_on",
        "note": 42,
        "velocity": 28,
        "time": 21715,
        "channel": 9
      },
      {
        "type": "note_off",
        "note": 42,
        "time": 21785,
        "channel": 9
      },
      {
        "type": "note_on",
        "note": 22,
        "velocity": 72,
        "time": 21835,
        "channel": 9
      },
      {
        "type": "note_off",
        "note": 22,
        "time": 21906,
        "channel": 9
      },
      {
        "type": "note_on",
        "note": 36,
        "velocity": 58,
        "time": 21954,
        "channel": 9
      },
      {
        "type": "note_on",
        "note": 42,
        "velocity": 45,
        "time": 21956,
        "channel": 9
      },
      {
        "type": "note_off",
        "note": 36,
        "time": 22023,
        "channel": 9
      },
      {
        "type": "note_off",
        "note": 42,
        "time": 22026,
        "channel": 9
      },
      {
        "type": "note_on",
        "note": 22,
        "velocity": 84,
        "time": 22075,
        "channel": 9
      },
      {
        "type": "note_off",
        "note": 22,
        "time": 22145,
        "channel": 9
      },
      {
        "type": "note_on",
        "note": 36,
        "velocity": 40,
        "time": 22161,
        "channel": 9
      },
      {
        "type": "note_on",
        "note": 42,
        "velocity": 20,
        "time": 22193,
        "channel": 9
      },
      {
        "type": "note_off",
        "note": 36,
        "time": 22232,
        "channel": 9
      },
      {
        "type": "note_off",
        "note": 42,
        "time": 22264,
        "channel": 9
      },
      {
        "type": "note_on",
        "note": 22,
        "velocity": 81,
        "time": 22303,
        "channel": 9
      },
      {
        "type": "note_on",
        "note": 36,
        "velocity": 57,
        "time": 22306,
        "channel": 9
      },
      {
        "type": "note_off",
        "note": 22,
        "time": 22374,
        "channel": 9
      },
      {
        "type": "note_off",
        "note": 36,
        "time": 22376,
        "channel": 9
      },
      {
        "type": "note_on",
        "note": 42,
        "velocity": 50,
        "time": 22419,
        "channel": 9
      },
      {
        "type": "note_off",
        "note": 42,
        "time": 22490,
        "channel": 9
      },
      {
        "type": "note_on",
        "note": 40,
        "velocity": 109,
        "time": 22546,
        "channel": 9
      },
      {
        "type": "note_on",
        "note": 42,
        "velocity": 40,
        "time": 22549,
        "channel": 9
      },
      {
        "type": "note_off",
        "note": 40,
        "time": 22616,
        "channel": 9
      },
      {
        "type": "note_off",
        "note": 42,
        "time": 22619,
        "channel": 9
      },
      {
        "type": "note_on",
        "note": 36,
        "velocity": 55,
        "time": 22668,
        "channel": 9
      },
      {
        "type": "note_on",
        "note": 26,
        "velocity": 64,
        "time": 22670,
        "channel": 9
      },
      {
        "type": "note_off",
        "note": 36,
        "time": 22738,
        "channel": 9
      },
      {
        "type": "note_off",
        "note": 26,
        "time": 22740,
        "channel": 9
      },
      {
        "type": "note_on",
        "note": 44,
        "velocity": 55,
        "time": 22769,
        "channel": 9
      },
      {
        "type": "note_on",
        "note": 42,
        "velocity": 37,
        "time": 22785,
        "channel": 9
      },
      {
        "type": "note_off",
        "note": 44,
        "time": 22839,
        "channel": 9
      },
      {
        "type": "note_off",
        "note": 42,
        "time": 22855,
        "channel": 9
      },
      {
        "type": "note_on",
        "note": 36,
        "velocity": 46,
        "time": 22892,
        "channel": 9
      },
      {
        "type": "note_on",
        "note": 42,
        "velocity": 66,
        "time": 22902,
        "channel": 9
      },
      {
        "type": "note_off",
        "note": 36,
        "time": 22962,
        "channel": 9
      },
      {
        "type": "note_off",
        "note": 42,
        "time": 22972,
        "channel": 9
      },
      {
        "type": "note_on",
        "note": 36,
        "velocity": 99,
        "time": 23024,
        "channel": 9
      },
      {
        "type": "note_on",
        "note": 22,
        "velocity": 63,
        "time": 23034,
        "channel": 9
      },
      {
        "type": "note_off",
        "note": 36,
        "time": 23095,
        "channel": 9
      },
      {
        "type": "note_off",
        "note": 22,
        "time": 23104,
        "channel": 9
      },
      {
        "type": "note_on",
        "note": 42,
        "velocity": 25,
        "time": 23144,
        "channel": 9
      },
      {
        "type": "note_off",
        "note": 42,
        "time": 23214,
        "channel": 9
      },
      {
        "type": "note_on",
        "note": 22,
        "velocity": 94,
        "time": 23269,
        "channel": 9
      },
      {
        "type": "note_off",
        "note": 22,
        "time": 23340,
        "channel": 9
      },
      {
        "type": "note_on",
        "note": 36,
        "velocity": 55,
        "time": 23383,
        "channel": 9
      },
      {
        "type": "note_on",
        "note": 42,
        "velocity": 32,
        "time": 23383,
        "channel": 9
      },
      {
        "type": "note_off",
        "note": 36,
        "time": 23453,
        "channel": 9
      },
      {
        "type": "note_off",
        "note": 42,
        "time": 23453,
        "channel": 9
      },
      {
        "type": "note_on",
        "note": 22,
        "velocity": 83,
        "time": 23520,
        "channel": 9
      },
      {
        "type": "note_on",
        "note": 40,
        "velocity": 101,
        "time": 23525,
        "channel": 9
      },
      {
        "type": "note_off",
        "note": 22,
        "time": 23590,
        "channel": 9
      },
      {
        "type": "note_off",
        "note": 40,
        "time": 23596,
        "channel": 9
      },
      {
        "type": "note_on",
        "note": 42,
        "velocity": 30,
        "time": 23640,
        "channel": 9
      },
      {
        "type": "note_off",
        "note": 42,
        "time": 23711,
        "channel": 9
      },
      {
        "type": "note_on",
        "note": 22,
        "velocity": 86,
        "time": 23766,
        "channel": 9
      },
      {
        "type": "note_off",
        "note": 22,
        "time": 23837,
        "channel": 9
      },
      {
        "type": "note_on",
        "note": 36,
        "velocity": 55,
        "time": 23886,
        "channel": 9
      },
      {
        "type": "note_on",
        "note": 42,
        "velocity": 34,
        "time": 23889,
        "channel": 9
      },
      {
        "type": "note_off",
        "note": 36,
        "time": 23957,
        "channel": 9
      },
      {
        "type": "note_off",
        "note": 42,
        "time": 23960,
        "channel": 9
      },
      {
        "type": "note_on",
        "note": 22,
        "velocity": 78,
        "time": 24006,
        "channel": 9
      },
      {
        "type": "note_off",
        "note": 22,
        "time": 24076,
        "channel": 9
      },
      {
        "type": "note_on",
        "note": 42,
        "velocity": 36,
        "time": 24124,
        "channel": 9
      },
      {
        "type": "note_on",
        "note": 36,
        "velocity": 53,
        "time": 24131,
        "channel": 9
      },
      {
        "type": "note_off",
        "note": 42,
        "time": 24194,
        "channel": 9
      },
      {
        "type": "note_off",
        "note": 36,
        "time": 24201,
        "channel": 9
      },
      {
        "type": "note_on",
        "note": 22,
        "velocity": 60,
        "time": 24244,
        "channel": 9
      },
      {
        "type": "note_on",
        "note": 36,
        "velocity": 56,
        "time": 24249,
        "channel": 9
      },
      {
        "type": "note_off",
        "note": 22,
        "time": 24314,
        "channel": 9
      },
      {
        "type": "note_off",
        "note": 36,
        "time": 24320,
        "channel": 9
      },
      {
        "type": "note_on",
        "note": 42,
        "velocity": 33,
        "time": 24358,
        "channel": 9
      },
      {
        "type": "note_off",
        "note": 42,
        "time": 24428,
        "channel": 9
      },
      {
        "type": "note_on",
        "note": 40,
        "velocity": 95,
        "time": 24462,
        "channel": 9
      },
      {
        "type": "note_on",
        "note": 22,
        "velocity": 77,
        "time": 24476,
        "channel": 9
      },
      {
        "type": "note_off",
        "note": 40,
        "time": 24532,
        "channel": 9
      },
      {
        "type": "note_off",
        "note": 22,
        "time": 24546,
        "channel": 9
      },
      {
        "type": "note_on",
        "note": 36,
        "velocity": 67,
        "time": 24594,
        "channel": 9
      },
      {
        "type": "note_on",
        "note": 42,
        "velocity": 32,
        "time": 24600,
        "channel": 9
      },
      {
        "type": "note_off",
        "note": 36,
        "time": 24664,
        "channel": 9
      },
      {
        "type": "note_off",
        "note": 42,
        "time": 24671,
        "channel": 9
      },
      {
        "type": "note_on",
        "note": 22,
        "velocity": 75,
        "time": 24721,
        "channel": 9
      },
      {
        "type": "note_off",
        "note": 22,
        "time": 24791,
        "channel": 9
      },
      {
        "type": "note_on",
        "note": 36,
        "velocity": 51,
        "time": 24816,
        "channel": 9
      },
      {
        "type": "note_on",
        "note": 42,
        "velocity": 35,
        "time": 24838,
        "channel": 9
      },
      {
        "type": "note_off",
        "note": 36,
        "time": 24886,
        "channel": 9
      },
      {
        "type": "note_off",
        "note": 42,
        "time": 24909,
        "channel": 9
      },
      {
        "type": "note_on",
        "note": 36,
        "velocity": 104,
        "time": 24940,
        "channel": 9
      },
      {
        "type": "note_on",
        "note": 22,
        "velocity": 88,
        "time": 24955,
        "channel": 9
      },
      {
        "type": "note_off",
        "note": 36,
        "time": 25010,
        "channel": 9
      },
      {
        "type": "note_off",
        "note": 22,
        "time": 25025,
        "channel": 9
      },
      {
        "type": "note_on",
        "note": 22,
        "velocity": 49,
        "time": 25068,
        "channel": 9
      },
      {
        "type": "note_off",
        "note": 22,
        "time": 25138,
        "channel": 9
      },
      {
        "type": "note_on",
        "note": 22,
        "velocity": 68,
        "time": 25191,
        "channel": 9
      },
      {
        "type": "note_off",
        "note": 22,
        "time": 25261,
        "channel": 9
      },
      {
        "type": "note_on",
        "note": 36,
        "velocity": 70,
        "time": 25304,
        "channel": 9
      },
      {
        "type": "note_on",
        "note": 42,
        "velocity": 36,
        "time": 25304,
        "channel": 9
      },
      {
        "type": "note_off",
        "note": 36,
        "time": 25375,
        "channel": 9
      },
      {
        "type": "note_off",
        "note": 42,
        "time": 25375,
        "channel": 9
      },
      {
        "type": "note_on",
        "note": 22,
        "velocity": 83,
        "time": 25436,
        "channel": 9
      },
      {
        "type": "note_on",
        "note": 40,
        "velocity": 108,
        "time": 25439,
        "channel": 9
      },
      {
        "type": "note_off",
        "note": 22,
        "time": 25507,
        "channel": 9
      },
      {
        "type": "note_off",
        "note": 40,
        "time": 25509,
        "channel": 9
      },
      {
        "type": "note_on",
        "note": 42,
        "velocity": 27,
        "time": 25551,
        "channel": 9
      },
      {
        "type": "note_off",
        "note": 42,
        "time": 25621,
        "channel": 9
      },
      {
        "type": "note_on",
        "note": 22,
        "velocity": 88,
        "time": 25681,
        "channel": 9
      },
      {
        "type": "note_off",
        "note": 22,
        "time": 25751,
        "channel": 9
      },
      {
        "type": "note_on",
        "note": 36,
        "velocity": 61,
        "time": 25799,
        "channel": 9
      },
      {
        "type": "note_on",
        "note": 42,
        "velocity": 43,
        "time": 25801,
        "channel": 9
      },
      {
        "type": "note_off",
        "note": 36,
        "time": 25869,
        "channel": 9
      },
      {
        "type": "note_off",
        "note": 42,
        "time": 25872,
        "channel": 9
      },
      {
        "type": "note_on",
        "note": 22,
        "velocity": 84,
        "time": 25921,
        "channel": 9
      },
      {
        "type": "note_off",
        "note": 22,
        "time": 25991,
        "channel": 9
      },
      {
        "type": "note_on",
        "note": 36,
        "velocity": 43,
        "time": 26020,
        "channel": 9
      },
      {
        "type": "note_on",
        "note": 42,
        "velocity": 26,
        "time": 26042,
        "channel": 9
      },
      {
        "type": "note_off",
        "note": 36,
        "time": 26090,
        "channel": 9
      },
      {
        "type": "note_off",
        "note": 42,
        "time": 26112,
        "channel": 9
      },
      {
        "type": "note_on",
        "note": 22,
        "velocity": 70,
        "time": 26152,
        "channel": 9
      },
      {
        "type": "note_on",
        "note": 36,
        "velocity": 96,
        "time": 26160,
        "channel": 9
      },
      {
        "type": "note_off",
        "note": 22,
        "time": 26222,
        "channel": 9
      },
      {
        "type": "note_off",
        "note": 36,
        "time": 26231,
        "channel": 9
      },
      {
        "type": "note_on",
        "note": 36,
        "velocity": 83,
        "time": 26390,
        "channel": 9
      },
      {
        "type": "note_off",
        "note": 36,
        "time": 26460,
        "channel": 9
      },
      {
        "type": "note_on",
        "note": 36,
        "velocity": 69,
        "time": 26633,
        "channel": 9
      },
      {
        "type": "note_off",
        "note": 36,
        "time": 26703,
        "channel": 9
      },
      {
        "type": "note_on",
        "note": 36,
        "velocity": 116,
        "time": 26871,
        "channel": 9
      },
      {
        "type": "note_off",
        "note": 36,
        "time": 26941,
        "channel": 9
      },
      {
        "type": "note_on",
        "note": 40,
        "velocity": 120,
        "time": 27357,
        "channel": 9
      },
      {
        "type": "note_on",
        "note": 22,
        "velocity": 110,
        "time": 27365,
        "channel": 9
      },
      {
        "type": "note_off",
        "note": 40,
        "time": 27427,
        "channel": 9
      },
      {
        "type": "note_off",
        "note": 22,
        "time": 27436,
        "channel": 9
      },
      {
        "type": "note_on",
        "note": 42,
        "velocity": 38,
        "time": 27485,
        "channel": 9
      },
      {
        "type": "note_off",
        "note": 42,
        "time": 27556,
        "channel": 9
      },
      {
        "type": "note_on",
        "note": 22,
        "velocity": 61,
        "time": 27605,
        "channel": 9
      },
      {
        "type": "note_off",
        "note": 22,
        "time": 27676,
        "channel": 9
      },
      {
        "type": "note_on",
        "note": 42,
        "velocity": 12,
        "time": 27722,
        "channel": 9
      },
      {
        "type": "note_on",
        "note": 36,
        "velocity": 58,
        "time": 27726,
        "channel": 9
      },
      {
        "type": "note_off",
        "note": 42,
        "time": 27793,
        "channel": 9
      },
      {
        "type": "note_off",
        "note": 36,
        "time": 27797,
        "channel": 9
      },
      {
        "type": "note_on",
        "note": 22,
        "velocity": 85,
        "time": 27848,
        "channel": 9
      },
      {
        "type": "note_off",
        "note": 22,
        "time": 27919,
        "channel": 9
      },
      {
        "type": "note_on",
        "note": 36,
        "velocity": 46,
        "time": 27951,
        "channel": 9
      },
      {
        "type": "note_on",
        "note": 42,
        "velocity": 25,
        "time": 27970,
        "channel": 9
      },
      {
        "type": "note_off",
        "note": 36,
        "time": 28022,
        "channel": 9
      },
      {
        "type": "note_off",
        "note": 42,
        "time": 28041,
        "channel": 9
      },
      {
        "type": "note_on",
        "note": 36,
        "velocity": 62,
        "time": 28077,
        "channel": 9
      },
      {
        "type": "note_on",
        "note": 22,
        "velocity": 76,
        "time": 28090,
        "channel": 9
      },
      {
        "type": "note_off",
        "note": 36,
        "time": 28148,
        "channel": 9
      },
      {
        "type": "note_off",
        "note": 22,
        "time": 28160,
        "channel": 9
      },
      {
        "type": "note_on",
        "note": 42,
        "velocity": 31,
        "time": 28200,
        "channel": 9
      },
      {
        "type": "note_off",
        "note": 42,
        "time": 28271,
        "channel": 9
      },
      {
        "type": "note_on",
        "note": 40,
        "velocity": 101,
        "time": 28325,
        "channel": 9
      },
      {
        "type": "note_on",
        "note": 22,
        "velocity": 72,
        "time": 28332,
        "channel": 9
      },
      {
        "type": "note_off",
        "note": 40,
        "time": 28395,
        "channel": 9
      },
      {
        "type": "note_off",
        "note": 22,
        "time": 28402,
        "channel": 9
      },
      {
        "type": "note_on",
        "note": 36,
        "velocity": 58,
        "time": 28446,
        "channel": 9
      },
      {
        "type": "note_on",
        "note": 42,
        "velocity": 36,
        "time": 28451,
        "channel": 9
      },
      {
        "type": "note_off",
        "note": 36,
        "time": 28516,
        "channel": 9
      },
      {
        "type": "note_off",
        "note": 42,
        "time": 28522,
        "channel": 9
      },
      {
        "type": "note_on",
        "note": 22,
        "velocity": 77,
        "time": 28572,
        "channel": 9
      },
      {
        "type": "note_off",
        "note": 22,
        "time": 28643,
        "channel": 9
      },
      {
        "type": "note_on",
        "note": 36,
        "velocity": 41,
        "time": 28668,
        "channel": 9
      },
      {
        "type": "note_on",
        "note": 42,
        "velocity": 38,
        "time": 28690,
        "channel": 9
      },
      {
        "type": "note_off",
        "note": 36,
        "time": 28738,
        "channel": 9
      },
      {
        "type": "note_off",
        "note": 42,
        "time": 28761,
        "channel": 9
      },
      {
        "type": "note_on",
        "note": 36,
        "velocity": 55,
        "time": 28794,
        "channel": 9
      },
      {
        "type": "note_on",
        "note": 22,
        "velocity": 74,
        "time": 28812,
        "channel": 9
      },
      {
        "type": "note_off",
        "note": 36,
        "time": 28864,
        "channel": 9
      },
      {
        "type": "note_off",
        "note": 22,
        "time": 28882,
        "channel": 9
      },
      {
        "type": "note_on",
        "note": 42,
        "velocity": 35,
        "time": 28924,
        "channel": 9
      },
      {
        "type": "note_off",
        "note": 42,
        "time": 28994,
        "channel": 9
      },
      {
        "type": "note_on",
        "note": 22,
        "velocity": 69,
        "time": 29046,
        "channel": 9
      },
      {
        "type": "note_off",
        "note": 22,
        "time": 29117,
        "channel": 9
      },
      {
        "type": "note_on",
        "note": 42,
        "velocity": 27,
        "time": 29163,
        "channel": 9
      },
      {
        "type": "note_off",
        "note": 42,
        "time": 29234,
        "channel": 9
      },
      {
        "type": "note_on",
        "note": 40,
        "velocity": 99,
        "time": 29280,
        "channel": 9
      },
      {
        "type": "note_on",
        "note": 22,
        "velocity": 82,
        "time": 29286,
        "channel": 9
      },
      {
        "type": "note_off",
        "note": 40,
        "time": 29350,
        "channel": 9
      },
      {
        "type": "note_off",
        "note": 22,
        "time": 29357,
        "channel": 9
      },
      {
        "type": "note_on",
        "note": 42,
        "velocity": 36,
        "time": 29399,
        "channel": 9
      },
      {
        "type": "note_off",
        "note": 42,
        "time": 29470,
        "channel": 9
      },
      {
        "type": "note_on",
        "note": 22,
        "velocity": 63,
        "time": 29522,
        "channel": 9
      },
      {
        "type": "note_off",
        "note": 22,
        "time": 29592,
        "channel": 9
      },
      {
        "type": "note_on",
        "note": 36,
        "velocity": 57,
        "time": 29636,
        "channel": 9
      },
      {
        "type": "note_on",
        "note": 42,
        "velocity": 31,
        "time": 29645,
        "channel": 9
      },
      {
        "type": "note_off",
        "note": 36,
        "time": 29707,
        "channel": 9
      },
      {
        "type": "note_off",
        "note": 42,
        "time": 29716,
        "channel": 9
      },
      {
        "type": "note_on",
        "note": 22,
        "velocity": 82,
        "time": 29762,
        "channel": 9
      },
      {
        "type": "note_off",
        "note": 22,
        "time": 29833,
        "channel": 9
      },
      {
        "type": "note_on",
        "note": 36,
        "velocity": 45,
        "time": 29866,
        "channel": 9
      },
      {
        "type": "note_on",
        "note": 42,
        "velocity": 27,
        "time": 29885,
        "channel": 9
      },
      {
        "type": "note_off",
        "note": 36,
        "time": 29936,
        "channel": 9
      },
      {
        "type": "note_off",
        "note": 42,
        "time": 29955,
        "channel": 9
      },
      {
        "type": "note_on",
        "note": 36,
        "velocity": 57,
        "time": 29997,
        "channel": 9
      },
      {
        "type": "note_on",
        "note": 22,
        "velocity": 74,
        "time": 29998,
        "channel": 9
      },
      {
        "type": "note_off",
        "note": 36,
        "time": 30067,
        "channel": 9
      },
      {
        "type": "note_off",
        "note": 22,
        "time": 30069,
        "channel": 9
      },
      {
        "type": "note_on",
        "note": 42,
        "velocity": 22,
        "time": 30109,
        "channel": 9
      },
      {
        "type": "note_off",
        "note": 42,
        "time": 30180,
        "channel": 9
      },
      {
        "type": "note_on",
        "note": 40,
        "velocity": 105,
        "time": 30224,
        "channel": 9
      },
      {
        "type": "note_on",
        "note": 22,
        "velocity": 71,
        "time": 30232,
        "channel": 9
      },
      {
        "type": "note_off",
        "note": 40,
        "time": 30294,
        "channel": 9
      },
      {
        "type": "note_off",
        "note": 22,
        "time": 30303,
        "channel": 9
      },
      {
        "type": "note_on",
        "note": 42,
        "velocity": 20,
        "time": 30348,
        "channel": 9
      },
      {
        "type": "note_off",
        "note": 42,
        "time": 30418,
        "channel": 9
      },
      {
        "type": "note_on",
        "note": 36,
        "velocity": 104,
        "time": 30464,
        "channel": 9
      },
      {
        "type": "note_on",
        "note": 26,
        "velocity": 66,
        "time": 30474,
        "channel": 9
      },
      {
        "type": "note_off",
        "note": 36,
        "time": 30534,
        "channel": 9
      },
      {
        "type": "note_off",
        "note": 26,
        "time": 30544,
        "channel": 9
      }
    ]
  },
  {
    "file": "data\\groove\\drummer1\\eval_session\\7_pop-groove7_138_beat_4-4.mid",
    "num_events": 421,
    "duration": 30588,
    "events": [
      {
        "type": "set_tempo",
        "tempo": 434783,
        "time": 0
      },
      {
        "type": "note_on",
        "note": 42,
        "velocity": 87,
        "time": 0,
        "channel": 9
      },
      {
        "type": "note_off",
        "note": 42,
        "time": 95,
        "channel": 9
      },
      {
        "type": "note_on",
        "note": 42,
        "velocity": 52,
        "time": 225,
        "channel": 9
      },
      {
        "type": "note_off",
        "note": 42,
        "time": 337,
        "channel": 9
      },
      {
        "type": "note_on",
        "note": 38,
        "velocity": 125,
        "time": 446,
        "channel": 9
      },
      {
        "type": "note_on",
        "note": 42,
        "velocity": 106,
        "time": 467,
        "channel": 9
      },
      {
        "type": "note_off",
        "note": 38,
        "time": 556,
        "channel": 9
      },
      {
        "type": "note_off",
        "note": 42,
        "time": 578,
        "channel": 9
      },
      {
        "type": "note_on",
        "note": 42,
        "velocity": 57,
        "time": 699,
        "channel": 9
      },
      {
        "type": "note_off",
        "note": 42,
        "time": 811,
        "channel": 9
      },
      {
        "type": "note_on",
        "note": 36,
        "velocity": 71,
        "time": 932,
        "channel": 9
      },
      {
        "type": "note_on",
        "note": 42,
        "velocity": 62,
        "time": 953,
        "channel": 9
      },
      {
        "type": "note_off",
        "note": 36,
        "time": 1043,
        "channel": 9
      },
      {
        "type": "note_off",
        "note": 42,
        "time": 1064,
        "channel": 9
      },
      {
        "type": "note_on",
        "note": 42,
        "velocity": 48,
        "time": 1190,
        "channel": 9
      },
      {
        "type": "note_off",
        "note": 42,
        "time": 1301,
        "channel": 9
      },
      {
        "type": "note_on",
        "note": 36,
        "velocity": 69,
        "time": 1404,
        "channel": 9
      },
      {
        "type": "note_on",
        "note": 37,
        "velocity": 89,
        "time": 1413,
        "channel": 9
      },
      {
        "type": "note_on",
        "note": 42,
        "velocity": 55,
        "time": 1425,
        "channel": 9
      },
      {
        "type": "note_off",
        "note": 36,
        "time": 1516,
        "channel": 9
      },
      {
        "type": "note_off",
        "note": 37,
        "time": 1524,
        "channel": 9
      },
      {
        "type": "note_off",
        "note": 42,
        "time": 1536,
        "channel": 9
      },
      {
        "type": "note_on",
        "note": 42,
        "velocity": 49,
        "time": 1650,
        "channel": 9
      },
      {
        "type": "note_off",
        "note": 42,
        "time": 1762,
        "channel": 9
      },
      {
        "type": "note_on",
        "note": 36,
        "velocity": 86,
        "time": 1870,
        "channel": 9
      },
      {
        "type": "note_on",
        "note": 42,
        "velocity": 74,
        "time": 1888,
        "channel": 9
      },
      {
        "type": "note_off",
        "note": 36,
        "time": 1982,
        "channel": 9
      },
      {
        "type": "note_off",
        "note": 42,
        "time": 1999,
        "channel": 9
      },
      {
        "type": "note_on",
        "note": 42,
        "velocity": 51,
        "time": 2119,
        "channel": 9
      },
      {
        "type": "note_off",
        "note": 42,
        "time": 2231,
        "channel": 9
      },
      {
        "type": "note_on",
        "note": 38,
        "velocity": 121,
        "time": 2359,
        "channel": 9
      },
      {
        "type": "note_on",
        "note": 42,
        "velocity": 92,
        "time": 2367,
        "channel": 9
      },
      {
        "type": "note_off",
        "note": 38,
        "time": 2471,
        "channel": 9
      },
      {
        "type": "note_off",
        "note": 42,
        "time": 2478,
        "channel": 9
      },
      {
        "type": "note_on",
        "note": 42,
        "velocity": 52,
        "time": 2596,
        "channel": 9
      },
      {
        "type": "note_off",
        "note": 42,
        "time": 2708,
        "channel": 9
      },
      {
        "type": "note_on",
        "note": 42,
        "velocity": 99,
        "time": 2834,
        "channel": 9
      },
      {
        "type": "note_off",
        "note": 42,
        "time": 2945,
        "channel": 9
      },
      {
        "type": "note_on",
        "note": 36,
        "velocity": 57,
        "time": 3042,
        "channel": 9
      },
      {
        "type": "note_on",
        "note": 42,
        "velocity": 54,
        "time": 3065,
        "channel": 9
      },
      {
        "type": "note_off",
        "note": 36,
        "time": 3153,
        "channel": 9
      },
      {
        "type": "note_off",
        "note": 42,
        "time": 3177,
        "channel": 9
      },
      {
        "type": "note_on",
        "note": 36,
        "velocity": 75,
        "time": 3316,
        "channel": 9
      },
      {
        "type": "note_on",
        "note": 40,
        "velocity": 101,
        "time": 3327,
        "channel": 9
      },
      {
        "type": "note_on",
        "note": 42,
        "velocity": 33,
        "time": 3338,
        "channel": 9
      },
      {
        "type": "note_off",
        "note": 36,
        "time": 3427,
        "channel": 9
      },
      {
        "type": "note_off",
        "note": 40,
        "time": 3439,
        "channel": 9
      },
      {
        "type": "note_off",
        "note": 42,
        "time": 3450,
        "channel": 9
      },
      {
        "type": "note_on",
        "note": 42,
        "velocity": 52,
        "time": 3550,
        "channel": 9
      },
      {
        "type": "note_off",
        "note": 42,
        "time": 3662,
        "channel": 9
      },
      {
        "type": "note_on",
        "note": 42,
        "velocity": 55,
        "time": 3809,
        "channel": 9
      },
      {
        "type": "note_on",
        "note": 36,
        "velocity": 63,
        "time": 3811,
        "channel": 9
      },
      {
        "type": "note_off",
        "note": 42,
        "time": 3920,
        "channel": 9
      },
      {
        "type": "note_off",
        "note": 36,
        "time": 3922,
        "channel": 9
      },
      {
        "type": "note_on",
        "note": 42,
        "velocity": 55,
        "time": 4050,
        "channel": 9
      },
      {
        "type": "note_off",
        "note": 42,
        "time": 4162,
        "channel": 9
      },
      {
        "type": "note_on",
        "note": 40,
        "velocity": 97,
        "time": 4285,
        "channel": 9
      },
      {
        "type": "note_on",
        "note": 42,
        "velocity": 96,
        "time": 4292,
        "channel": 9
      },
      {
        "type": "note_off",
        "note": 40,
        "time": 4396,
        "channel": 9
      },
      {
        "type": "note_off",
        "note": 42,
        "time": 4403,
        "channel": 9
      },
      {
        "type": "note_on",
        "note": 42,
        "velocity": 58,
        "time": 4526,
        "channel": 9
      },
      {
        "type": "note_off",
        "note": 42,
        "time": 4638,
        "channel": 9
      },
      {
        "type": "note_on",
        "note": 36,
        "velocity": 58,
        "time": 4747,
        "channel": 9
      },
      {
        "type": "note_on",
        "note": 42,
        "velocity": 90,
        "time": 4775,
        "channel": 9
      },
      {
        "type": "note_off",
        "note": 36,
        "time": 4859,
        "channel": 9
      },
      {
        "type": "note_off",
        "note": 42,
        "time": 4886,
        "channel": 9
      },
      {
        "type": "note_on",
        "note": 42,
        "velocity": 50,
        "time": 5015,
        "channel": 9
      },
      {
        "type": "note_off",
        "note": 42,
        "time": 5126,
        "channel": 9
      },
      {
        "type": "note_on",
        "note": 36,
        "velocity": 57,
        "time": 5197,
        "channel": 9
      },
      {
        "type": "note_on",
        "note": 40,
        "velocity": 96,
        "time": 5234,
        "channel": 9
      },
      {
        "type": "note_on",
        "note": 42,
        "velocity": 93,
        "time": 5248,
        "channel": 9
      },
      {
        "type": "note_off",
        "note": 36,
        "time": 5308,
        "channel": 9
      },
      {
        "type": "note_off",
        "note": 40,
        "time": 5345,
        "channel": 9
      },
      {
        "type": "note_off",
        "note": 42,
        "time": 5360,
        "channel": 9
      },
      {
        "type": "note_on",
        "note": 42,
        "velocity": 57,
        "time": 5481,
        "channel": 9
      },
      {
        "type": "note_off",
        "note": 42,
        "time": 5593,
        "channel": 9
      },
      {
        "type": "note_on",
        "note": 36,
        "velocity": 61,
        "time": 5697,
        "channel": 9
      },
      {
        "type": "note_on",
        "note": 42,
        "velocity": 102,
        "time": 5722,
        "channel": 9
      },
      {
        "type": "note_off",
        "note": 36,
        "time": 5808,
        "channel": 9
      },
      {
        "type": "note_off",
        "note": 42,
        "time": 5833,
        "channel": 9
      },
      {
        "type": "note_on",
        "note": 42,
        "velocity": 50,
        "time": 5970,
        "channel": 9
      },
      {
        "type": "note_off",
        "note": 42,
        "time": 6082,
        "channel": 9
      },
      {
        "type": "note_on",
        "note": 40,
        "velocity": 109,
        "time": 6206,
        "channel": 9
      },
      {
        "type": "note_on",
        "note": 42,
        "velocity": 111,
        "time": 6216,
        "channel": 9
      },
      {
        "type": "note_off",
        "note": 40,
        "time": 6317,
        "channel": 9
      },
      {
        "type": "note_off",
        "note": 42,
        "time": 6328,
        "channel": 9
      },
      {
        "type": "note_on",
        "note": 42,
        "velocity": 46,
        "time": 6448,
        "channel": 9
      },
      {
        "type": "note_off",
        "note": 42,
        "time": 6561,
        "channel": 9
      },
      {
        "type": "note_on",
        "note": 42,
        "velocity": 100,
        "time": 6678,
        "channel": 9
      },
      {
        "type": "note_off",
        "note": 42,
        "time": 6789,
        "channel": 9
      },
      {
        "type": "note_on",
        "note": 36,
        "velocity": 56,
        "time": 6906,
        "channel": 9
      },
      {
        "type": "note_on",
        "note": 42,
        "velocity": 47,
        "time": 6938,
        "channel": 9
      },
      {
        "type": "note_off",
        "note": 36,
        "time": 7017,
        "channel": 9
      },
      {
        "type": "note_off",
        "note": 42,
        "time": 7049,
        "channel": 9
      },
      {
        "type": "note_on",
        "note": 38,
        "velocity": 117,
        "time": 7170,
        "channel": 9
      },
      {
        "type": "note_on",
        "note": 36,
        "velocity": 75,
        "time": 7174,
        "channel": 9
      },
      {
        "type": "note_on",
        "note": 42,
        "velocity": 71,
        "time": 7184,
        "channel": 9
      },
      {
        "type": "note_off",
        "note": 38,
        "time": 7282,
        "channel": 9
      },
      {
        "type": "note_off",
        "note": 36,
        "time": 7285,
        "channel": 9
      },
      {
        "type": "note_off",
        "note": 42,
        "time": 7295,
        "channel": 9
      },
      {
        "type": "note_on",
        "note": 42,
        "velocity": 47,
        "time": 7408,
        "channel": 9
      },
      {
        "type": "note_off",
        "note": 42,
        "time": 7519,
        "channel": 9
      },
      {
        "type": "note_on",
        "note": 42,
        "velocity": 92,
        "time": 7657,
        "channel": 9
      },
      {
        "type": "note_on",
        "note": 36,
        "velocity": 110,
        "time": 7666,
        "channel": 9
      },
      {
        "type": "note_off",
        "note": 42,
        "time": 7769,
        "channel": 9
      },
      {
        "type": "note_off",
        "note": 36,
        "time": 7777,
        "channel": 9
      },
      {
        "type": "note_on",
        "note": 42,
        "velocity": 42,
        "time": 7887,
        "channel": 9
      },
      {
        "type": "note_off",
        "note": 42,
        "time": 7998,
        "channel": 9
      },
      {
        "type": "note_on",
        "note": 40,
        "velocity": 110,
        "time": 8147,
        "channel": 9
      },
      {
        "type": "note_on",
        "note": 42,
        "velocity": 97,
        "time": 8147,
        "channel": 9
      },
      {
        "type": "note_off",
        "note": 40,
        "time": 8258,
        "channel": 9
      },
      {
        "type": "note_off",
        "note": 42,
        "time": 8258,
        "channel": 9
      },
      {
        "type": "note_on",
        "note": 42,
        "velocity": 38,
        "time": 8397,
        "channel": 9
      },
      {
        "type": "note_off",
        "note": 42,
        "time": 8508,
        "channel": 9
      },
      {
        "type": "note_on",
        "note": 36,
        "velocity": 62,
        "time": 8639,
        "channel": 9
      },
      {
        "type": "note_on",
        "note": 42,
        "velocity": 93,
        "time": 8643,
        "channel": 9
      },
      {
        "type": "note_off",
        "note": 36,
        "time": 8750,
        "channel": 9
      },
      {
        "type": "note_off",
        "note": 42,
        "time": 8754,
        "channel": 9
      },
      {
        "type": "note_on",
        "note": 42,
        "velocity": 48,
        "time": 8892,
        "channel": 9
      },
      {
        "type": "note_off",
        "note": 42,
        "time": 9003,
        "channel": 9
      },
      {
        "type": "note_on",
        "note": 36,
        "velocity": 61,
        "time": 9118,
        "channel": 9
      },
      {
        "type": "note_on",
        "note": 38,
        "velocity": 117,
        "time": 9123,
        "channel": 9
      },
      {
        "type": "note_on",
        "note": 42,
        "velocity": 96,
        "time": 9129,
        "channel": 9
      },
      {
        "type": "note_off",
        "note": 36,
        "time": 9229,
        "channel": 9
      },
      {
        "type": "note_off",
        "note": 38,
        "time": 9235,
        "channel": 9
      },
      {
        "type": "note_off",
        "note": 42,
        "time": 9240,
        "channel": 9
      },
      {
        "type": "note_on",
        "note": 42,
        "velocity": 48,
        "time": 9358,
        "channel": 9
      },
      {
        "type": "note_off",
        "note": 42,
        "time": 9470,
        "channel": 9
      },
      {
        "type": "note_on",
        "note": 36,
        "velocity": 61,
        "time": 9592,
        "channel": 9
      },
      {
        "type": "note_on",
        "note": 42,
        "velocity": 98,
        "time": 9600,
        "channel": 9
      },
      {
        "type": "note_off",
        "note": 36,
        "time": 9703,
        "channel": 9
      },
      {
        "type": "note_off",
        "note": 42,
        "time": 9712,
        "channel": 9
      },
      {
        "type": "note_on",
        "note": 42,
        "velocity": 47,
        "time": 9838,
        "channel": 9
      },
      {
        "type": "note_off",
        "note": 42,
        "time": 9950,
        "channel": 9
      },
      {
        "type": "note_on",
        "note": 38,
        "velocity": 121,
        "time": 10060,
        "channel": 9
      },
      {
        "type": "note_on",
        "note": 42,
        "velocity": 90,
        "time": 10072,
        "channel": 9
      },
      {
        "type": "note_off",
        "note": 38,
        "time": 10171,
        "channel": 9
      },
      {
        "type": "note_off",
        "note": 42,
        "time": 10183,
        "channel": 9
      },
      {
        "type": "note_on",
        "note": 42,
        "velocity": 47,
        "time": 10305,
        "channel": 9
      },
      {
        "type": "note_off",
        "note": 42,
        "time": 10416,
        "channel": 9
      },
      {
        "type": "note_on",
        "note": 42,
        "velocity": 107,
        "time": 10544,
        "channel": 9
      },
      {
        "type": "note_off",
        "note": 42,
        "time": 10656,
        "channel": 9
      },
      {
        "type": "note_on",
        "note": 36,
        "velocity": 57,
        "time": 10770,
        "channel": 9
      },
      {
        "type": "note_on",
        "note": 42,
        "velocity": 53,
        "time": 10777,
        "channel": 9
      },
      {
        "type": "note_off",
        "note": 36,
        "time": 10882,
        "channel": 9
      },
      {
        "type": "note_off",
        "note": 42,
        "time": 10888,
        "channel": 9
      },
      {
        "type": "note_on",
        "note": 36,
        "velocity": 62,
        "time": 11009,
        "channel": 9
      },
      {
        "type": "note_on",
        "note": 42,
        "velocity": 95,
        "time": 11020,
        "channel": 9
      },
      {
        "type": "note_on",
        "note": 38,
        "velocity": 103,
        "time": 11021,
        "channel": 9
      },
      {
        "type": "note_off",
        "note": 36,
        "time": 11120,
        "channel": 9
      },
      {
        "type": "note_off",
        "note": 38,
        "time": 11131,
        "channel": 9
      },
      {
        "type": "note_off",
        "note": 42,
        "time": 11131,
        "channel": 9
      },
      {
        "type": "note_on",
        "note": 42,
        "velocity": 50,
        "time": 11258,
        "channel": 9
      },
      {
        "type": "note_off",
        "note": 42,
        "time": 11370,
        "channel": 9
      },
      {
        "type": "note_on",
        "note": 36,
        "velocity": 58,
        "time": 11510,
        "channel": 9
      },
      {
        "type": "note_on",
        "note": 42,
        "velocity": 94,
        "time": 11513,
        "channel": 9
      },
      {
        "type": "note_off",
        "note": 36,
        "time": 11621,
        "channel": 9
      },
      {
        "type": "note_off",
        "note": 42,
        "time": 11624,
        "channel": 9
      },
      {
        "type": "note_on",
        "note": 42,
        "velocity": 50,
        "time": 11750,
        "channel": 9
      },
      {
        "type": "note_off",
        "note": 42,
        "time": 11862,
        "channel": 9
      },
      {
        "type": "note_on",
        "note": 40,
        "velocity": 104,
        "time": 11984,
        "channel": 9
      },
      {
        "type": "note_on",
        "note": 42,
        "velocity": 124,
        "time": 11993,
        "channel": 9
      },
      {
        "type": "note_off",
        "note": 40,
        "time": 12095,
        "channel": 9
      },
      {
        "type": "note_off",
        "note": 42,
        "time": 12104,
        "channel": 9
      },
      {
        "type": "note_on",
        "note": 42,
        "velocity": 43,
        "time": 12230,
        "channel": 9
      },
      {
        "type": "note_off",
        "note": 42,
        "time": 12343,
        "channel": 9
      },
      {
        "type": "note_on",
        "note": 36,
        "velocity": 58,
        "time": 12470,
        "channel": 9
      },
      {
        "type": "note_on",
        "note": 42,
        "velocity": 78,
        "time": 12478,
        "channel": 9
      },
      {
        "type": "note_off",
        "note": 36,
        "time": 12581,
        "channel": 9
      },
      {
        "type": "note_off",
        "note": 42,
        "time": 12590,
        "channel": 9
      },
      {
        "type": "note_on",
        "note": 42,
        "velocity": 47,
        "time": 12709,
        "channel": 9
      },
      {
        "type": "note_off",
        "note": 42,
        "time": 12821,
        "channel": 9
      },
      {
        "type": "note_on",
        "note": 36,
        "velocity": 65,
        "time": 12933,
        "channel": 9
      },
      {
        "type": "note_on",
        "note": 40,
        "velocity": 101,
        "time": 12939,
        "channel": 9
      },
      {
        "type": "note_on",
        "note": 42,
        "velocity": 84,
        "time": 12944,
        "channel": 9
      },
      {
        "type": "note_off",
        "note": 36,
        "time": 13043,
        "channel": 9
      },
      {
        "type": "note_off",
        "note": 40,
        "time": 13050,
        "channel": 9
      },
      {
        "type": "note_off",
        "note": 42,
        "time": 13054,
        "channel": 9
      },
      {
        "type": "note_on",
        "note": 42,
        "velocity": 43,
        "time": 13175,
        "channel": 9
      },
      {
        "type": "note_off",
        "note": 42,
        "time": 13287,
        "channel": 9
      },
      {
        "type": "note_on",
        "note": 36,
        "velocity": 69,
        "time": 13389,
        "channel": 9
      },
      {
        "type": "note_on",
        "note": 42,
        "velocity": 99,
        "time": 13409,
        "channel": 9
      },
      {
        "type": "note_off",
        "note": 36,
        "time": 13501,
        "channel": 9
      },
      {
        "type": "note_off",
        "note": 42,
        "time": 13520,
        "channel": 9
      },
      {
        "type": "note_on",
        "note": 42,
        "velocity": 39,
        "time": 13659,
        "channel": 9
      },
      {
        "type": "note_off",
        "note": 42,
        "time": 13771,
        "channel": 9
      },
      {
        "type": "note_on",
        "note": 38,
        "velocity": 119,
        "time": 13871,
        "channel": 9
      },
      {
        "type": "note_on",
        "note": 42,
        "velocity": 127,
        "time": 13889,
        "channel": 9
      },
      {
        "type": "note_off",
        "note": 38,
        "time": 13982,
        "channel": 9
      },
      {
        "type": "note_off",
        "note": 42,
        "time": 14000,
        "channel": 9
      },
      {
        "type": "note_on",
        "note": 42,
        "velocity": 44,
        "time": 14123,
        "channel": 9
      },
      {
        "type": "note_off",
        "note": 42,
        "time": 14236,
        "channel": 9
      },
      {
        "type": "note_on",
        "note": 42,
        "velocity": 80,
        "time": 14366,
        "channel": 9
      },
      {
        "type": "note_off",
        "note": 42,
        "time": 14477,
        "channel": 9
      },
      {
        "type": "note_on",
        "note": 36,
        "velocity": 55,
        "time": 14584,
        "channel": 9
      },
      {
        "type": "note_on",
        "note": 42,
        "velocity": 51,
        "time": 14598,
        "channel": 9
      },
      {
        "type": "note_off",
        "note": 36,
        "time": 14695,
        "channel": 9
      },
      {
        "type": "note_off",
        "note": 42,
        "time": 14710,
        "channel": 9
      },
      {
        "type": "note_on",
        "note": 36,
        "velocity": 57,
        "time": 14834,
        "channel": 9
      },
      {
        "type": "note_on",
        "note": 40,
        "velocity": 100,
        "time": 14838,
        "channel": 9
      },
      {
        "type": "note_on",
        "note": 42,
        "velocity": 79,
        "time": 14844,
        "channel": 9
      },
      {
        "type": "note_off",
        "note": 36,
        "time": 14946,
        "channel": 9
      },
      {
        "type": "note_off",
        "note": 40,
        "time": 14949,
        "channel": 9
      },
      {
        "type": "note_off",
        "note": 42,
        "time": 14956,
        "channel": 9
      },
      {
        "type": "note_on",
        "note": 42,
        "velocity": 46,
        "time": 15086,
        "channel": 9
      },
      {
        "type": "note_off",
        "note": 42,
        "time": 15199,
        "channel": 9
      },
      {
        "type": "note_on",
        "note": 36,
        "velocity": 84,
        "time": 15322,
        "channel": 9
      },
      {
        "type": "note_on",
        "note": 42,
        "velocity": 109,
        "time": 15329,
        "channel": 9
      },
      {
        "type": "note_off",
        "note": 36,
        "time": 15434,
        "channel": 9
      },
      {
        "type": "note_off",
        "note": 42,
        "time": 15440,
        "channel": 9
      },
      {
        "type": "note_on",
        "note": 38,
        "velocity": 10,
        "time": 15551,
        "channel": 9
      },
      {
        "type": "note_on",
        "note": 42,
        "velocity": 50,
        "time": 15561,
        "channel": 9
      },
      {
        "type": "note_off",
        "note": 38,
        "time": 15662,
        "channel": 9
      },
      {
        "type": "note_off",
        "note": 42,
        "time": 15673,
        "channel": 9
      },
      {
        "type": "note_on",
        "note": 42,
        "velocity": 89,
        "time": 15808,
        "channel": 9
      },
      {
        "type": "note_on",
        "note": 40,
        "velocity": 105,
        "time": 15815,
        "channel": 9
      },
      {
        "type": "note_off",
        "note": 42,
        "time": 15919,
        "channel": 9
      },
      {
        "type": "note_off",
        "note": 40,
        "time": 15926,
        "channel": 9
      },
      {
        "type": "note_on",
        "note": 42,
        "velocity": 44,
        "time": 16035,
        "channel": 9
      },
      {
        "type": "note_off",
        "note": 42,
        "time": 16147,
        "channel": 9
      },
      {
        "type": "note_on",
        "note": 42,
        "velocity": 72,
        "time": 16273,
        "channel": 9
      },
      {
        "type": "note_on",
        "note": 36,
        "velocity": 56,
        "time": 16283,
        "channel": 9
      },
      {
        "type": "note_off",
        "note": 42,
        "time": 16384,
        "channel": 9
      },
      {
        "type": "note_off",
        "note": 36,
        "time": 16394,
        "channel": 9
      },
      {
        "type": "note_on",
        "note": 42,
        "velocity": 45,
        "time": 16510,
        "channel": 9
      },
      {
        "type": "note_off",
        "note": 42,
        "time": 16622,
        "channel": 9
      },
      {
        "type": "note_on",
        "note": 36,
        "velocity": 62,
        "time": 16755,
        "channel": 9
      },
      {
        "type": "note_on",
        "note": 40,
        "velocity": 104,
        "time": 16756,
        "channel": 9
      },
      {
        "type": "note_on",
        "note": 42,
        "velocity": 69,
        "time": 16763,
        "channel": 9
      },
      {
        "type": "note_off",
        "note": 36,
        "time": 16866,
        "channel": 9
      },
      {
        "type": "note_off",
        "note": 40,
        "time": 16866,
        "channel": 9
      },
      {
        "type": "note_off",
        "note": 42,
        "time": 16874,
        "channel": 9
      },
      {
        "type": "note_on",
        "note": 42,
        "velocity": 54,
        "time": 16991,
        "channel": 9
      },
      {
        "type": "note_off",
        "note": 42,
        "time": 17103,
        "channel": 9
      },
      {
        "type": "note_on",
        "note": 36,
        "velocity": 60,
        "time": 17239,
        "channel": 9
      },
      {
        "type": "note_on",
        "note": 42,
        "velocity": 80,
        "time": 17247,
        "channel": 9
      },
      {
        "type": "note_off",
        "note": 36,
        "time": 17350,
        "channel": 9
      },
      {
        "type": "note_off",
        "note": 42,
        "time": 17358,
        "channel": 9
      },
      {
        "type": "note_on",
        "note": 42,
        "velocity": 45,
        "time": 17474,
        "channel": 9
      },
      {
        "type": "note_off",
        "note": 42,
        "time": 17585,
        "channel": 9
      },
      {
        "type": "note_on",
        "note": 40,
        "velocity": 97,
        "time": 17701,
        "channel": 9
      },
      {
        "type": "note_on",
        "note": 42,
        "velocity": 82,
        "time": 17710,
        "channel": 9
      },
      {
        "type": "note_off",
        "note": 40,
        "time": 17813,
        "channel": 9
      },
      {
        "type": "note_off",
        "note": 42,
        "time": 17822,
        "channel": 9
      },
      {
        "type": "note_on",
        "note": 38,
        "velocity": 8,
        "time": 17851,
        "channel": 9
      },
      {
        "type": "note_on",
        "note": 42,
        "velocity": 45,
        "time": 17940,
        "channel": 9
      },
      {
        "type": "note_off",
        "note": 38,
        "time": 17962,
        "channel": 9
      },
      {
        "type": "note_off",
        "note": 42,
        "time": 18052,
        "channel": 9
      },
      {
        "type": "note_on",
        "note": 42,
        "velocity": 81,
        "time": 18183,
        "channel": 9
      },
      {
        "type": "note_off",
        "note": 42,
        "time": 18294,
        "channel": 9
      },
      {
        "type": "note_on",
        "note": 42,
        "velocity": 41,
        "time": 18413,
        "channel": 9
      },
      {
        "type": "note_on",
        "note": 36,
        "velocity": 55,
        "time": 18423,
        "channel": 9
      },
      {
        "type": "note_off",
        "note": 42,
        "time": 18525,
        "channel": 9
      },
      {
        "type": "note_off",
        "note": 36,
        "time": 18534,
        "channel": 9
      },
      {
        "type": "note_on",
        "note": 37,
        "velocity": 77,
        "time": 18663,
        "channel": 9
      },
      {
        "type": "note_on",
        "note": 36,
        "velocity": 77,
        "time": 18667,
        "channel": 9
      },
      {
        "type": "note_on",
        "note": 42,
        "velocity": 67,
        "time": 18672,
        "channel": 9
      },
      {
        "type": "note_off",
        "note": 37,
        "time": 18774,
        "channel": 9
      },
      {
        "type": "note_off",
        "note": 36,
        "time": 18779,
        "channel": 9
      },
      {
        "type": "note_off",
        "note": 42,
        "time": 18783,
        "channel": 9
      },
      {
        "type": "note_on",
        "note": 42,
        "velocity": 45,
        "time": 18892,
        "channel": 9
      },
      {
        "type": "note_off",
        "note": 42,
        "time": 19004,
        "channel": 9
      },
      {
        "type": "note_on",
        "note": 42,
        "velocity": 80,
        "time": 19140,
        "channel": 9
      },
      {
        "type": "note_on",
        "note": 36,
        "velocity": 104,
        "time": 19147,
        "channel": 9
      },
      {
        "type": "note_off",
        "note": 42,
        "time": 19251,
        "channel": 9
      },
      {
        "type": "note_off",
        "note": 36,
        "time": 19259,
        "channel": 9
      },
      {
        "type": "note_on",
        "note": 42,
        "velocity": 42,
        "time": 19374,
        "channel": 9
      },
      {
        "type": "note_off",
        "note": 42,
        "time": 19485,
        "channel": 9
      },
      {
        "type": "note_on",
        "note": 42,
        "velocity": 85,
        "time": 19633,
        "channel": 9
      },
      {
        "type": "note_on",
        "note": 37,
        "velocity": 89,
        "time": 19636,
        "channel": 9
      },
      {
        "type": "note_off",
        "note": 42,
        "time": 19745,
        "channel": 9
      },
      {
        "type": "note_off",
        "note": 37,
        "time": 19748,
        "channel": 9
      },
      {
        "type": "note_on",
        "note": 42,
        "velocity": 31,
        "time": 19879,
        "channel": 9
      },
      {
        "type": "note_off",
        "note": 42,
        "time": 19991,
        "channel": 9
      },
      {
        "type": "note_on",
        "note": 36,
        "velocity": 57,
        "time": 20115,
        "channel": 9
      },
      {
        "type": "note_on",
        "note": 42,
        "velocity": 75,
        "time": 20117,
        "channel": 9
      },
      {
        "type": "note_off",
        "note": 36,
        "time": 20226,
        "channel": 9
      },
      {
        "type": "note_off",
        "note": 42,
        "time": 20228,
        "channel": 9
      },
      {
        "type": "note_on",
        "note": 42,
        "velocity": 38,
        "time": 20343,
        "channel": 9
      },
      {
        "type": "note_off",
        "note": 42,
        "time": 20455,
        "channel": 9
      },
      {
        "type": "note_on",
        "note": 36,
        "velocity": 106,
        "time": 20574,
        "channel": 9
      },
      {
        "type": "note_on",
        "note": 38,
        "velocity": 88,
        "time": 20583,
        "channel": 9
      },
      {
        "type": "note_on",
        "note": 42,
        "velocity": 74,
        "time": 20594,
        "channel": 9
      },
      {
        "type": "note_off",
        "note": 36,
        "time": 20685,
        "channel": 9
      },
      {
        "type": "note_off",
        "note": 38,
        "time": 20694,
        "channel": 9
      },
      {
        "type": "note_off",
        "note": 42,
        "time": 20705,
        "channel": 9
      },
      {
        "type": "note_on",
        "note": 42,
        "velocity": 43,
        "time": 20828,
        "channel": 9
      },
      {
        "type": "note_off",
        "note": 42,
        "time": 20939,
        "channel": 9
      },
      {
        "type": "note_on",
        "note": 36,
        "velocity": 83,
        "time": 21072,
        "channel": 9
      },
      {
        "type": "note_on",
        "note": 42,
        "velocity": 73,
        "time": 21072,
        "channel": 9
      },
      {
        "type": "note_off",
        "note": 36,
        "time": 21183,
        "channel": 9
      },
      {
        "type": "note_off",
        "note": 42,
        "time": 21183,
        "channel": 9
      },
      {
        "type": "note_on",
        "note": 42,
        "velocity": 40,
        "time": 21316,
        "channel": 9
      },
      {
        "type": "note_off",
        "note": 42,
        "time": 21428,
        "channel": 9
      },
      {
        "type": "note_on",
        "note": 40,
        "velocity": 97,
        "time": 21560,
        "channel": 9
      },
      {
        "type": "note_on",
        "note": 42,
        "velocity": 59,
        "time": 21574,
        "channel": 9
      },
      {
        "type": "note_off",
        "note": 40,
        "time": 21671,
        "channel": 9
      },
      {
        "type": "note_off",
        "note": 42,
        "time": 21686,
        "channel": 9
      },
      {
        "type": "note_on",
        "note": 42,
        "velocity": 37,
        "time": 21803,
        "channel": 9
      },
      {
        "type": "note_off",
        "note": 42,
        "time": 21914,
        "channel": 9
      },
      {
        "type": "note_on",
        "note": 42,
        "velocity": 83,
        "time": 22036,
        "channel": 9
      },
      {
        "type": "note_off",
        "note": 42,
        "time": 22147,
        "channel": 9
      },
      {
        "type": "note_on",
        "note": 36,
        "velocity": 56,
        "time": 22258,
        "channel": 9
      },
      {
        "type": "note_on",
        "note": 42,
        "velocity": 40,
        "time": 22281,
        "channel": 9
      },
      {
        "type": "note_off",
        "note": 36,
        "time": 22369,
        "channel": 9
      },
      {
        "type": "note_off",
        "note": 42,
        "time": 22392,
        "channel": 9
      },
      {
        "type": "note_on",
        "note": 36,
        "velocity": 86,
        "time": 22507,
        "channel": 9
      },
      {
        "type": "note_on",
        "note": 40,
        "velocity": 100,
        "time": 22518,
        "channel": 9
      },
      {
        "type": "note_on",
        "note": 42,
        "velocity": 88,
        "time": 22523,
        "channel": 9
      },
      {
        "type": "note_off",
        "note": 36,
        "time": 22618,
        "channel": 9
      },
      {
        "type": "note_off",
        "note": 40,
        "time": 22630,
        "channel": 9
      },
      {
        "type": "note_off",
        "note": 42,
        "time": 22635,
        "channel": 9
      },
      {
        "type": "note_on",
        "note": 42,
        "velocity": 45,
        "time": 22759,
        "channel": 9
      },
      {
        "type": "note_off",
        "note": 42,
        "time": 22871,
        "channel": 9
      },
      {
        "type": "note_on",
        "note": 42,
        "velocity": 70,
        "time": 23015,
        "channel": 9
      },
      {
        "type": "note_on",
        "note": 36,
        "velocity": 86,
        "time": 23022,
        "channel": 9
      },
      {
        "type": "note_off",
        "note": 42,
        "time": 23126,
        "channel": 9
      },
      {
        "type": "note_off",
        "note": 36,
        "time": 23134,
        "channel": 9
      },
      {
        "type": "note_on",
        "note": 42,
        "velocity": 48,
        "time": 23249,
        "channel": 9
      },
      {
        "type": "note_off",
        "note": 42,
        "time": 23362,
        "channel": 9
      },
      {
        "type": "note_on",
        "note": 40,
        "velocity": 93,
        "time": 23485,
        "channel": 9
      },
      {
        "type": "note_on",
        "note": 42,
        "velocity": 124,
        "time": 23496,
        "channel": 9
      },
      {
        "type": "note_on",
        "note": 38,
        "velocity": 21,
        "time": 23578,
        "channel": 9
      },
      {
        "type": "note_off",
        "note": 40,
        "time": 23597,
        "channel": 9
      },
      {
        "type": "note_off",
        "note": 42,
        "time": 23608,
        "channel": 9
      },
      {
        "type": "note_off",
        "note": 38,
        "time": 23689,
        "channel": 9
      },
      {
        "type": "note_on",
        "note": 42,
        "velocity": 43,
        "time": 23741,
        "channel": 9
      },
      {
        "type": "note_off",
        "note": 42,
        "time": 23853,
        "channel": 9
      },
      {
        "type": "note_on",
        "note": 36,
        "velocity": 57,
        "time": 23974,
        "channel": 9
      },
      {
        "type": "note_on",
        "note": 42,
        "velocity": 88,
        "time": 23978,
        "channel": 9
      },
      {
        "type": "note_off",
        "note": 36,
        "time": 24084,
        "channel": 9
      },
      {
        "type": "note_off",
        "note": 42,
        "time": 24090,
        "channel": 9
      },
      {
        "type": "note_on",
        "note": 42,
        "velocity": 45,
        "time": 24207,
        "channel": 9
      },
      {
        "type": "note_off",
        "note": 42,
        "time": 24319,
        "channel": 9
      },
      {
        "type": "note_on",
        "note": 36,
        "velocity": 59,
        "time": 24449,
        "channel": 9
      },
      {
        "type": "note_on",
        "note": 37,
        "velocity": 79,
        "time": 24457,
        "channel": 9
      },
      {
        "type": "note_on",
        "note": 42,
        "velocity": 73,
        "time": 24470,
        "channel": 9
      },
      {
        "type": "note_off",
        "note": 36,
        "time": 24560,
        "channel": 9
      },
      {
        "type": "note_off",
        "note": 37,
        "time": 24568,
        "channel": 9
      },
      {
        "type": "note_off",
        "note": 42,
        "time": 24581,
        "channel": 9
      },
      {
        "type": "note_on",
        "note": 42,
        "velocity": 76,
        "time": 24706,
        "channel": 9
      },
      {
        "type": "note_off",
        "note": 42,
        "time": 24819,
        "channel": 9
      },
      {
        "type": "note_on",
        "note": 36,
        "velocity": 69,
        "time": 24937,
        "channel": 9
      },
      {
        "type": "note_on",
        "note": 42,
        "velocity": 67,
        "time": 24944,
        "channel": 9
      },
      {
        "type": "note_off",
        "note": 36,
        "time": 25048,
        "channel": 9
      },
      {
        "type": "note_off",
        "note": 42,
        "time": 25055,
        "channel": 9
      },
      {
        "type": "note_on",
        "note": 42,
        "velocity": 51,
        "time": 25181,
        "channel": 9
      },
      {
        "type": "note_off",
        "note": 42,
        "time": 25292,
        "channel": 9
      },
      {
        "type": "note_on",
        "note": 40,
        "velocity": 100,
        "time": 25414,
        "channel": 9
      },
      {
        "type": "note_on",
        "note": 42,
        "velocity": 77,
        "time": 25422,
        "channel": 9
      },
      {
        "type": "note_off",
        "note": 40,
        "time": 25525,
        "channel": 9
      },
      {
        "type": "note_off",
        "note": 42,
        "time": 25533,
        "channel": 9
      },
      {
        "type": "note_on",
        "note": 42,
        "velocity": 52,
        "time": 25656,
        "channel": 9
      },
      {
        "type": "note_off",
        "note": 42,
        "time": 25768,
        "channel": 9
      },
      {
        "type": "note_on",
        "note": 42,
        "velocity": 72,
        "time": 25885,
        "channel": 9
      },
      {
        "type": "note_off",
        "note": 42,
        "time": 25996,
        "channel": 9
      },
      {
        "type": "note_on",
        "note": 36,
        "velocity": 53,
        "time": 26129,
        "channel": 9
      },
      {
        "type": "note_on",
        "note": 42,
        "velocity": 59,
        "time": 26130,
        "channel": 9
      },
      {
        "type": "note_off",
        "note": 36,
        "time": 26241,
        "channel": 9
      },
      {
        "type": "note_off",
        "note": 42,
        "time": 26241,
        "channel": 9
      },
      {
        "type": "note_on",
        "note": 36,
        "velocity": 72,
        "time": 26375,
        "channel": 9
      },
      {
        "type": "note_on",
        "note": 37,
        "velocity": 87,
        "time": 26386,
        "channel": 9
      },
      {
        "type": "note_on",
        "note": 42,
        "velocity": 70,
        "time": 26396,
        "channel": 9
      },
      {
        "type": "note_off",
        "note": 36,
        "time": 26486,
        "channel": 9
      },
      {
        "type": "note_off",
        "note": 37,
        "time": 26497,
        "channel": 9
      },
      {
        "type": "note_off",
        "note": 42,
        "time": 26508,
        "channel": 9
      },
      {
        "type": "note_on",
        "note": 42,
        "velocity": 57,
        "time": 26648,
        "channel": 9
      },
      {
        "type": "note_off",
        "note": 42,
        "time": 26759,
        "channel": 9
      },
      {
        "type": "note_on",
        "note": 36,
        "velocity": 71,
        "time": 26853,
        "channel": 9
      },
      {
        "type": "note_on",
        "note": 42,
        "velocity": 69,
        "time": 26877,
        "channel": 9
      },
      {
        "type": "note_off",
        "note": 36,
        "time": 26965,
        "channel": 9
      },
      {
        "type": "note_off",
        "note": 42,
        "time": 26989,
        "channel": 9
      },
      {
        "type": "note_on",
        "note": 42,
        "velocity": 67,
        "time": 27112,
        "channel": 9
      },
      {
        "type": "note_off",
        "note": 42,
        "time": 27223,
        "channel": 9
      },
      {
        "type": "note_on",
        "note": 37,
        "velocity": 85,
        "time": 27347,
        "channel": 9
      },
      {
        "type": "note_on",
        "note": 42,
        "velocity": 85,
        "time": 27354,
        "channel": 9
      },
      {
        "type": "note_off",
        "note": 37,
        "time": 27458,
        "channel": 9
      },
      {
        "type": "note_off",
        "note": 42,
        "time": 27465,
        "channel": 9
      },
      {
        "type": "note_on",
        "note": 42,
        "velocity": 59,
        "time": 27603,
        "channel": 9
      },
      {
        "type": "note_off",
        "note": 42,
        "time": 27714,
        "channel": 9
      },
      {
        "type": "note_on",
        "note": 36,
        "velocity": 57,
        "time": 27823,
        "channel": 9
      },
      {
        "type": "note_on",
        "note": 42,
        "velocity": 66,
        "time": 27848,
        "channel": 9
      },
      {
        "type": "note_off",
        "note": 36,
        "time": 27935,
        "channel": 9
      },
      {
        "type": "note_off",
        "note": 42,
        "time": 27960,
        "channel": 9
      },
      {
        "type": "note_on",
        "note": 42,
        "velocity": 58,
        "time": 28070,
        "channel": 9
      },
      {
        "type": "note_off",
        "note": 42,
        "time": 28181,
        "channel": 9
      },
      {
        "type": "note_on",
        "note": 40,
        "velocity": 92,
        "time": 28310,
        "channel": 9
      },
      {
        "type": "note_on",
        "note": 36,
        "velocity": 56,
        "time": 28311,
        "channel": 9
      },
      {
        "type": "note_on",
        "note": 42,
        "velocity": 64,
        "time": 28321,
        "channel": 9
      },
      {
        "type": "note_off",
        "note": 36,
        "time": 28421,
        "channel": 9
      },
      {
        "type": "note_off",
        "note": 40,
        "time": 28421,
        "channel": 9
      },
      {
        "type": "note_off",
        "note": 42,
        "time": 28432,
        "channel": 9
      },
      {
        "type": "note_on",
        "note": 42,
        "velocity": 59,
        "time": 28555,
        "channel": 9
      },
      {
        "type": "note_off",
        "note": 42,
        "time": 28667,
        "channel": 9
      },
      {
        "type": "note_on",
        "note": 36,
        "velocity": 113,
        "time": 28797,
        "channel": 9
      },
      {
        "type": "note_on",
        "note": 42,
        "velocity": 64,
        "time": 28809,
        "channel": 9
      },
      {
        "type": "note_off",
        "note": 36,
        "time": 28908,
        "channel": 9
      },
      {
        "type": "note_off",
        "note": 42,
        "time": 28921,
        "channel": 9
      },
      {
        "type": "note_on",
        "note": 42,
        "velocity": 50,
        "time": 29031,
        "channel": 9
      },
      {
        "type": "note_off",
        "note": 42,
        "time": 29143,
        "channel": 9
      },
      {
        "type": "note_on",
        "note": 40,
        "velocity": 96,
        "time": 29254,
        "channel": 9
      },
      {
        "type": "note_on",
        "note": 42,
        "velocity": 88,
        "time": 29273,
        "channel": 9
      },
      {
        "type": "note_off",
        "note": 40,
        "time": 29365,
        "channel": 9
      },
      {
        "type": "note_off",
        "note": 42,
        "time": 29385,
        "channel": 9
      },
      {
        "type": "note_on",
        "note": 42,
        "velocity": 42,
        "time": 29512,
        "channel": 9
      },
      {
        "type": "note_off",
        "note": 42,
        "time": 29623,
        "channel": 9
      },
      {
        "type": "note_on",
        "note": 42,
        "velocity": 92,
        "time": 29739,
        "channel": 9
      },
      {
        "type": "note_off",
        "note": 42,
        "time": 29851,
        "channel": 9
      },
      {
        "type": "note_on",
        "note": 36,
        "velocity": 58,
        "time": 29966,
        "channel": 9
      },
      {
        "type": "note_on",
        "note": 42,
        "velocity": 47,
        "time": 29974,
        "channel": 9
      },
      {
        "type": "note_off",
        "note": 36,
        "time": 30077,
        "channel": 9
      },
      {
        "type": "note_off",
        "note": 42,
        "time": 30086,
        "channel": 9
      },
      {
        "type": "note_on",
        "note": 40,
        "velocity": 94,
        "time": 30211,
        "channel": 9
      },
      {
        "type": "note_on",
        "note": 36,
        "velocity": 60,
        "time": 30219,
        "channel": 9
      },
      {
        "type": "note_on",
        "note": 42,
        "velocity": 47,
        "time": 30231,
        "channel": 9
      },
      {
        "type": "note_off",
        "note": 40,
        "time": 30322,
        "channel": 9
      },
      {
        "type": "note_off",
        "note": 36,
        "time": 30331,
        "channel": 9
      },
      {
        "type": "note_off",
        "note": 42,
        "time": 30343,
        "channel": 9
      },
      {
        "type": "note_on",
        "note": 42,
        "velocity": 46,
        "time": 30476,
        "channel": 9
      },
      {
        "type": "note_off",
        "note": 42,
        "time": 30588,
        "channel": 9
      }
    ]
  },
  {
    "file": "data\\groove\\drummer1\\eval_session\\8_rock-groove8_65_beat_4-4.mid",
    "num_events": 453,
    "duration": 30715,
    "events": [
      {
        "type": "set_tempo",
        "tempo": 923077,
        "time": 0
      },
      {
        "type": "note_on",
        "note": 44,
        "velocity": 30,
        "time": 0,
        "channel": 9
      },
      {
        "type": "note_on",
        "note": 36,
        "velocity": 116,
        "time": 0,
        "channel": 9
      },
      {
        "type": "note_on",
        "note": 22,
        "velocity": 102,
        "time": 0,
        "channel": 9
      },
      {
        "type": "note_off",
        "note": 44,
        "time": 41,
        "channel": 9
      },
      {
        "type": "note_off",
        "note": 36,
        "time": 42,
        "channel": 9
      },
      {
        "type": "note_off",
        "note": 22,
        "time": 45,
        "channel": 9
      },
      {
        "type": "note_on",
        "note": 22,
        "velocity": 79,
        "time": 243,
        "channel": 9
      },
      {
        "type": "note_off",
        "note": 22,
        "time": 296,
        "channel": 9
      },
      {
        "type": "note_on",
        "note": 40,
        "velocity": 118,
        "time": 480,
        "channel": 9
      },
      {
        "type": "note_on",
        "note": 22,
        "velocity": 95,
        "time": 483,
        "channel": 9
      },
      {
        "type": "note_off",
        "note": 40,
        "time": 532,
        "channel": 9
      },
      {
        "type": "note_off",
        "note": 22,
        "time": 536,
        "channel": 9
      },
      {
        "type": "note_on",
        "note": 22,
        "velocity": 84,
        "time": 717,
        "channel": 9
      },
      {
        "type": "note_off",
        "note": 22,
        "time": 770,
        "channel": 9
      },
      {
        "type": "note_on",
        "note": 36,
        "velocity": 56,
        "time": 826,
        "channel": 9
      },
      {
        "type": "note_off",
        "note": 36,
        "time": 879,
        "channel": 9
      },
      {
        "type": "note_on",
        "note": 36,
        "velocity": 97,
        "time": 948,
        "channel": 9
      },
      {
        "type": "note_on",
        "note": 22,
        "velocity": 76,
        "time": 954,
        "channel": 9
      },
      {
        "type": "note_off",
        "note": 36,
        "time": 1001,
        "channel": 9
      },
      {
        "type": "note_off",
        "note": 22,
        "time": 1007,
        "channel": 9
      },
      {
        "type": "note_on",
        "note": 22,
        "velocity": 111,
        "time": 1189,
        "channel": 9
      },
      {
        "type": "note_off",
        "note": 22,
        "time": 1242,
        "channel": 9
      },
      {
        "type": "note_on",
        "note": 40,
        "velocity": 127,
        "time": 1436,
        "channel": 9
      },
      {
        "type": "note_on",
        "note": 22,
        "velocity": 101,
        "time": 1439,
        "channel": 9
      },
      {
        "type": "note_off",
        "note": 40,
        "time": 1488,
        "channel": 9
      },
      {
        "type": "note_off",
        "note": 22,
        "time": 1492,
        "channel": 9
      },
      {
        "type": "note_on",
        "note": 22,
        "velocity": 108,
        "time": 1681,
        "channel": 9
      },
      {
        "type": "note_off",
        "note": 22,
        "time": 1734,
        "channel": 9
      },
      {
        "type": "note_on",
        "note": 36,
        "velocity": 92,
        "time": 1914,
        "channel": 9
      },
      {
        "type": "note_on",
        "note": 42,
        "velocity": 81,
        "time": 1926,
        "channel": 9
      },
      {
        "type": "note_off",
        "note": 36,
        "time": 1967,
        "channel": 9
      },
      {
        "type": "note_off",
        "note": 42,
        "time": 1978,
        "channel": 9
      },
      {
        "type": "note_on",
        "note": 22,
        "velocity": 114,
        "time": 2162,
        "channel": 9
      },
      {
        "type": "note_off",
        "note": 22,
        "time": 2215,
        "channel": 9
      },
      {
        "type": "note_on",
        "note": 40,
        "velocity": 127,
        "time": 2399,
        "channel": 9
      },
      {
        "type": "note_on",
        "note": 22,
        "velocity": 89,
        "time": 2401,
        "channel": 9
      },
      {
        "type": "note_off",
        "note": 40,
        "time": 2451,
        "channel": 9
      },
      {
        "type": "note_off",
        "note": 22,
        "time": 2454,
        "channel": 9
      },
      {
        "type": "note_on",
        "note": 22,
        "velocity": 94,
        "time": 2637,
        "channel": 9
      },
      {
        "type": "note_off",
        "note": 22,
        "time": 2690,
        "channel": 9
      },
      {
        "type": "note_on",
        "note": 36,
        "velocity": 51,
        "time": 2756,
        "channel": 9
      },
      {
        "type": "note_off",
        "note": 36,
        "time": 2808,
        "channel": 9
      },
      {
        "type": "note_on",
        "note": 36,
        "velocity": 92,
        "time": 2866,
        "channel": 9
      },
      {
        "type": "note_on",
        "note": 22,
        "velocity": 92,
        "time": 2873,
        "channel": 9
      },
      {
        "type": "note_off",
        "note": 36,
        "time": 2918,
        "channel": 9
      },
      {
        "type": "note_off",
        "note": 22,
        "time": 2925,
        "channel": 9
      },
      {
        "type": "note_on",
        "note": 22,
        "velocity": 101,
        "time": 3096,
        "channel": 9
      },
      {
        "type": "note_off",
        "note": 22,
        "time": 3149,
        "channel": 9
      },
      {
        "type": "note_on",
        "note": 38,
        "velocity": 127,
        "time": 3220,
        "channel": 9
      },
      {
        "type": "note_off",
        "note": 38,
        "time": 3273,
        "channel": 9
      },
      {
        "type": "note_on",
        "note": 40,
        "velocity": 122,
        "time": 3339,
        "channel": 9
      },
      {
        "type": "note_off",
        "note": 40,
        "time": 3391,
        "channel": 9
      },
      {
        "type": "note_on",
        "note": 36,
        "velocity": 117,
        "time": 3464,
        "channel": 9
      },
      {
        "type": "note_on",
        "note": 26,
        "velocity": 81,
        "time": 3468,
        "channel": 9
      },
      {
        "type": "note_off",
        "note": 36,
        "time": 3516,
        "channel": 9
      },
      {
        "type": "note_off",
        "note": 26,
        "time": 3520,
        "channel": 9
      },
      {
        "type": "note_on",
        "note": 44,
        "velocity": 47,
        "time": 3817,
        "channel": 9
      },
      {
        "type": "note_on",
        "note": 36,
        "velocity": 113,
        "time": 3823,
        "channel": 9
      },
      {
        "type": "note_on",
        "note": 42,
        "velocity": 77,
        "time": 3826,
        "channel": 9
      },
      {
        "type": "note_off",
        "note": 44,
        "time": 3870,
        "channel": 9
      },
      {
        "type": "note_off",
        "note": 36,
        "time": 3876,
        "channel": 9
      },
      {
        "type": "note_off",
        "note": 42,
        "time": 3878,
        "channel": 9
      },
      {
        "type": "note_on",
        "note": 22,
        "velocity": 127,
        "time": 4074,
        "channel": 9
      },
      {
        "type": "note_off",
        "note": 22,
        "time": 4127,
        "channel": 9
      },
      {
        "type": "note_on",
        "note": 40,
        "velocity": 127,
        "time": 4314,
        "channel": 9
      },
      {
        "type": "note_on",
        "note": 42,
        "velocity": 105,
        "time": 4317,
        "channel": 9
      },
      {
        "type": "note_off",
        "note": 40,
        "time": 4367,
        "channel": 9
      },
      {
        "type": "note_off",
        "note": 42,
        "time": 4370,
        "channel": 9
      },
      {
        "type": "note_on",
        "note": 22,
        "velocity": 127,
        "time": 4567,
        "channel": 9
      },
      {
        "type": "note_off",
        "note": 22,
        "time": 4620,
        "channel": 9
      },
      {
        "type": "note_on",
        "note": 36,
        "velocity": 49,
        "time": 4667,
        "channel": 9
      },
      {
        "type": "note_off",
        "note": 36,
        "time": 4720,
        "channel": 9
      },
      {
        "type": "note_on",
        "note": 36,
        "velocity": 74,
        "time": 4788,
        "channel": 9
      },
      {
        "type": "note_on",
        "note": 22,
        "velocity": 127,
        "time": 4803,
        "channel": 9
      },
      {
        "type": "note_off",
        "note": 36,
        "time": 4840,
        "channel": 9
      },
      {
        "type": "note_off",
        "note": 22,
        "time": 4855,
        "channel": 9
      },
      {
        "type": "note_on",
        "note": 22,
        "velocity": 127,
        "time": 5038,
        "channel": 9
      },
      {
        "type": "note_off",
        "note": 22,
        "time": 5090,
        "channel": 9
      },
      {
        "type": "note_on",
        "note": 40,
        "velocity": 127,
        "time": 5270,
        "channel": 9
      },
      {
        "type": "note_on",
        "note": 22,
        "velocity": 98,
        "time": 5273,
        "channel": 9
      },
      {
        "type": "note_off",
        "note": 40,
        "time": 5322,
        "channel": 9
      },
      {
        "type": "note_off",
        "note": 22,
        "time": 5325,
        "channel": 9
      },
      {
        "type": "note_on",
        "note": 22,
        "velocity": 127,
        "time": 5515,
        "channel": 9
      },
      {
        "type": "note_off",
        "note": 22,
        "time": 5568,
        "channel": 9
      },
      {
        "type": "note_on",
        "note": 36,
        "velocity": 85,
        "time": 5752,
        "channel": 9
      },
      {
        "type": "note_on",
        "note": 42,
        "velocity": 109,
        "time": 5754,
        "channel": 9
      },
      {
        "type": "note_off",
        "note": 36,
        "time": 5804,
        "channel": 9
      },
      {
        "type": "note_off",
        "note": 42,
        "time": 5807,
        "channel": 9
      },
      {
        "type": "note_on",
        "note": 42,
        "velocity": 114,
        "time": 5991,
        "channel": 9
      },
      {
        "type": "note_off",
        "note": 42,
        "time": 6044,
        "channel": 9
      },
      {
        "type": "note_on",
        "note": 38,
        "velocity": 127,
        "time": 6226,
        "channel": 9
      },
      {
        "type": "note_on",
        "note": 22,
        "velocity": 104,
        "time": 6229,
        "channel": 9
      },
      {
        "type": "note_off",
        "note": 38,
        "time": 6278,
        "channel": 9
      },
      {
        "type": "note_off",
        "note": 22,
        "time": 6281,
        "channel": 9
      },
      {
        "type": "note_on",
        "note": 22,
        "velocity": 80,
        "time": 6462,
        "channel": 9
      },
      {
        "type": "note_off",
        "note": 22,
        "time": 6514,
        "channel": 9
      },
      {
        "type": "note_on",
        "note": 36,
        "velocity": 43,
        "time": 6568,
        "channel": 9
      },
      {
        "type": "note_off",
        "note": 36,
        "time": 6621,
        "channel": 9
      },
      {
        "type": "note_on",
        "note": 36,
        "velocity": 98,
        "time": 6686,
        "channel": 9
      },
      {
        "type": "note_on",
        "note": 22,
        "velocity": 73,
        "time": 6700,
        "channel": 9
      },
      {
        "type": "note_off",
        "note": 36,
        "time": 6738,
        "channel": 9
      },
      {
        "type": "note_off",
        "note": 22,
        "time": 6752,
        "channel": 9
      },
      {
        "type": "note_on",
        "note": 22,
        "velocity": 127,
        "time": 6935,
        "channel": 9
      },
      {
        "type": "note_off",
        "note": 22,
        "time": 6988,
        "channel": 9
      },
      {
        "type": "note_on",
        "note": 40,
        "velocity": 118,
        "time": 7053,
        "channel": 9
      },
      {
        "type": "note_off",
        "note": 40,
        "time": 7105,
        "channel": 9
      },
      {
        "type": "note_on",
        "note": 38,
        "velocity": 124,
        "time": 7173,
        "channel": 9
      },
      {
        "type": "note_off",
        "note": 38,
        "time": 7225,
        "channel": 9
      },
      {
        "type": "note_on",
        "note": 36,
        "velocity": 88,
        "time": 7296,
        "channel": 9
      },
      {
        "type": "note_on",
        "note": 26,
        "velocity": 100,
        "time": 7300,
        "channel": 9
      },
      {
        "type": "note_off",
        "note": 36,
        "time": 7348,
        "channel": 9
      },
      {
        "type": "note_off",
        "note": 26,
        "time": 7353,
        "channel": 9
      },
      {
        "type": "note_on",
        "note": 36,
        "velocity": 58,
        "time": 7638,
        "channel": 9
      },
      {
        "type": "note_on",
        "note": 44,
        "velocity": 37,
        "time": 7645,
        "channel": 9
      },
      {
        "type": "note_on",
        "note": 46,
        "velocity": 127,
        "time": 7646,
        "channel": 9
      },
      {
        "type": "note_off",
        "note": 36,
        "time": 7690,
        "channel": 9
      },
      {
        "type": "note_off",
        "note": 44,
        "time": 7697,
        "channel": 9
      },
      {
        "type": "note_off",
        "note": 46,
        "time": 7699,
        "channel": 9
      },
      {
        "type": "note_on",
        "note": 42,
        "velocity": 106,
        "time": 7897,
        "channel": 9
      },
      {
        "type": "note_off",
        "note": 42,
        "time": 7950,
        "channel": 9
      },
      {
        "type": "note_on",
        "note": 38,
        "velocity": 127,
        "time": 8159,
        "channel": 9
      },
      {
        "type": "note_on",
        "note": 42,
        "velocity": 108,
        "time": 8159,
        "channel": 9
      },
      {
        "type": "note_off",
        "note": 38,
        "time": 8212,
        "channel": 9
      },
      {
        "type": "note_off",
        "note": 42,
        "time": 8212,
        "channel": 9
      },
      {
        "type": "note_on",
        "note": 42,
        "velocity": 90,
        "time": 8403,
        "channel": 9
      },
      {
        "type": "note_off",
        "note": 42,
        "time": 8455,
        "channel": 9
      },
      {
        "type": "note_on",
        "note": 36,
        "velocity": 48,
        "time": 8510,
        "channel": 9
      },
      {
        "type": "note_off",
        "note": 36,
        "time": 8562,
        "channel": 9
      },
      {
        "type": "note_on",
        "note": 36,
        "velocity": 92,
        "time": 8631,
        "channel": 9
      },
      {
        "type": "note_on",
        "note": 42,
        "velocity": 97,
        "time": 8645,
        "channel": 9
      },
      {
        "type": "note_off",
        "note": 36,
        "time": 8684,
        "channel": 9
      },
      {
        "type": "note_off",
        "note": 42,
        "time": 8697,
        "channel": 9
      },
      {
        "type": "note_on",
        "note": 42,
        "velocity": 108,
        "time": 8878,
        "channel": 9
      },
      {
        "type": "note_off",
        "note": 42,
        "time": 8931,
        "channel": 9
      },
      {
        "type": "note_on",
        "note": 40,
        "velocity": 118,
        "time": 9125,
        "channel": 9
      },
      {
        "type": "note_on",
        "note": 42,
        "velocity": 84,
        "time": 9129,
        "channel": 9
      },
      {
        "type": "note_off",
        "note": 40,
        "time": 9178,
        "channel": 9
      },
      {
        "type": "note_off",
        "note": 42,
        "time": 9182,
        "channel": 9
      },
      {
        "type": "note_on",
        "note": 22,
        "velocity": 109,
        "time": 9368,
        "channel": 9
      },
      {
        "type": "note_off",
        "note": 22,
        "time": 9421,
        "channel": 9
      },
      {
        "type": "note_on",
        "note": 36,
        "velocity": 96,
        "time": 9608,
        "channel": 9
      },
      {
        "type": "note_on",
        "note": 42,
        "velocity": 94,
        "time": 9614,
        "channel": 9
      },
      {
        "type": "note_off",
        "note": 36,
        "time": 9660,
        "channel": 9
      },
      {
        "type": "note_off",
        "note": 42,
        "time": 9667,
        "channel": 9
      },
      {
        "type": "note_on",
        "note": 42,
        "velocity": 104,
        "time": 9839,
        "channel": 9
      },
      {
        "type": "note_off",
        "note": 42,
        "time": 9891,
        "channel": 9
      },
      {
        "type": "note_on",
        "note": 40,
        "velocity": 127,
        "time": 10074,
        "channel": 9
      },
      {
        "type": "note_on",
        "note": 22,
        "velocity": 84,
        "time": 10075,
        "channel": 9
      },
      {
        "type": "note_off",
        "note": 40,
        "time": 10127,
        "channel": 9
      },
      {
        "type": "note_off",
        "note": 22,
        "time": 10128,
        "channel": 9
      },
      {
        "type": "note_on",
        "note": 42,
        "velocity": 112,
        "time": 10322,
        "channel": 9
      },
      {
        "type": "note_off",
        "note": 42,
        "time": 10375,
        "channel": 9
      },
      {
        "type": "note_on",
        "note": 36,
        "velocity": 55,
        "time": 10440,
        "channel": 9
      },
      {
        "type": "note_off",
        "note": 36,
        "time": 10492,
        "channel": 9
      },
      {
        "type": "note_on",
        "note": 36,
        "velocity": 55,
        "time": 10544,
        "channel": 9
      },
      {
        "type": "note_on",
        "note": 22,
        "velocity": 85,
        "time": 10553,
        "channel": 9
      },
      {
        "type": "note_off",
        "note": 36,
        "time": 10596,
        "channel": 9
      },
      {
        "type": "note_off",
        "note": 22,
        "time": 10606,
        "channel": 9
      },
      {
        "type": "note_on",
        "note": 22,
        "velocity": 73,
        "time": 10790,
        "channel": 9
      },
      {
        "type": "note_off",
        "note": 22,
        "time": 10843,
        "channel": 9
      },
      {
        "type": "note_on",
        "note": 38,
        "velocity": 112,
        "time": 10917,
        "channel": 9
      },
      {
        "type": "note_off",
        "note": 38,
        "time": 10969,
        "channel": 9
      },
      {
        "type": "note_on",
        "note": 38,
        "velocity": 127,
        "time": 11039,
        "channel": 9
      },
      {
        "type": "note_off",
        "note": 38,
        "time": 11092,
        "channel": 9
      },
      {
        "type": "note_on",
        "note": 36,
        "velocity": 95,
        "time": 11158,
        "channel": 9
      },
      {
        "type": "note_on",
        "note": 26,
        "velocity": 74,
        "time": 11164,
        "channel": 9
      },
      {
        "type": "note_off",
        "note": 36,
        "time": 11210,
        "channel": 9
      },
      {
        "type": "note_off",
        "note": 26,
        "time": 11216,
        "channel": 9
      },
      {
        "type": "note_on",
        "note": 44,
        "velocity": 40,
        "time": 11510,
        "channel": 9
      },
      {
        "type": "note_on",
        "note": 36,
        "velocity": 105,
        "time": 11513,
        "channel": 9
      },
      {
        "type": "note_on",
        "note": 42,
        "velocity": 84,
        "time": 11516,
        "channel": 9
      },
      {
        "type": "note_off",
        "note": 44,
        "time": 11562,
        "channel": 9
      },
      {
        "type": "note_off",
        "note": 36,
        "time": 11566,
        "channel": 9
      },
      {
        "type": "note_off",
        "note": 42,
        "time": 11569,
        "channel": 9
      },
      {
        "type": "note_on",
        "note": 42,
        "velocity": 83,
        "time": 11758,
        "channel": 9
      },
      {
        "type": "note_off",
        "note": 42,
        "time": 11811,
        "channel": 9
      },
      {
        "type": "note_on",
        "note": 40,
        "velocity": 127,
        "time": 12011,
        "channel": 9
      },
      {
        "type": "note_on",
        "note": 22,
        "velocity": 88,
        "time": 12014,
        "channel": 9
      },
      {
        "type": "note_off",
        "note": 40,
        "time": 12064,
        "channel": 9
      },
      {
        "type": "note_off",
        "note": 22,
        "time": 12067,
        "channel": 9
      },
      {
        "type": "note_on",
        "note": 22,
        "velocity": 124,
        "time": 12242,
        "channel": 9
      },
      {
        "type": "note_off",
        "note": 22,
        "time": 12294,
        "channel": 9
      },
      {
        "type": "note_on",
        "note": 36,
        "velocity": 49,
        "time": 12367,
        "channel": 9
      },
      {
        "type": "note_off",
        "note": 36,
        "time": 12419,
        "channel": 9
      },
      {
        "type": "note_on",
        "note": 36,
        "velocity": 87,
        "time": 12475,
        "channel": 9
      },
      {
        "type": "note_on",
        "note": 42,
        "velocity": 50,
        "time": 12481,
        "channel": 9
      },
      {
        "type": "note_off",
        "note": 36,
        "time": 12527,
        "channel": 9
      },
      {
        "type": "note_off",
        "note": 42,
        "time": 12534,
        "channel": 9
      },
      {
        "type": "note_on",
        "note": 42,
        "velocity": 85,
        "time": 12713,
        "channel": 9
      },
      {
        "type": "note_off",
        "note": 42,
        "time": 12766,
        "channel": 9
      },
      {
        "type": "note_on",
        "note": 40,
        "velocity": 127,
        "time": 12953,
        "channel": 9
      },
      {
        "type": "note_on",
        "note": 42,
        "velocity": 67,
        "time": 12961,
        "channel": 9
      },
      {
        "type": "note_off",
        "note": 40,
        "time": 13006,
        "channel": 9
      },
      {
        "type": "note_off",
        "note": 42,
        "time": 13014,
        "channel": 9
      },
      {
        "type": "note_on",
        "note": 22,
        "velocity": 109,
        "time": 13208,
        "channel": 9
      },
      {
        "type": "note_off",
        "note": 22,
        "time": 13261,
        "channel": 9
      },
      {
        "type": "note_on",
        "note": 36,
        "velocity": 108,
        "time": 13445,
        "channel": 9
      },
      {
        "type": "note_on",
        "note": 42,
        "velocity": 74,
        "time": 13448,
        "channel": 9
      },
      {
        "type": "note_off",
        "note": 36,
        "time": 13497,
        "channel": 9
      },
      {
        "type": "note_off",
        "note": 42,
        "time": 13501,
        "channel": 9
      },
      {
        "type": "note_on",
        "note": 22,
        "velocity": 90,
        "time": 13681,
        "channel": 9
      },
      {
        "type": "note_off",
        "note": 22,
        "time": 13734,
        "channel": 9
      },
      {
        "type": "note_on",
        "note": 40,
        "velocity": 127,
        "time": 13916,
        "channel": 9
      },
      {
        "type": "note_on",
        "note": 22,
        "velocity": 82,
        "time": 13920,
        "channel": 9
      },
      {
        "type": "note_off",
        "note": 40,
        "time": 13969,
        "channel": 9
      },
      {
        "type": "note_off",
        "note": 22,
        "time": 13972,
        "channel": 9
      },
      {
        "type": "note_on",
        "note": 22,
        "velocity": 102,
        "time": 14152,
        "channel": 9
      },
      {
        "type": "note_off",
        "note": 22,
        "time": 14205,
        "channel": 9
      },
      {
        "type": "note_on",
        "note": 36,
        "velocity": 56,
        "time": 14275,
        "channel": 9
      },
      {
        "type": "note_off",
        "note": 36,
        "time": 14328,
        "channel": 9
      },
      {
        "type": "note_on",
        "note": 22,
        "velocity": 98,
        "time": 14392,
        "channel": 9
      },
      {
        "type": "note_on",
        "note": 36,
        "velocity": 67,
        "time": 14392,
        "channel": 9
      },
      {
        "type": "note_off",
        "note": 22,
        "time": 14444,
        "channel": 9
      },
      {
        "type": "note_off",
        "note": 36,
        "time": 14444,
        "channel": 9
      },
      {
        "type": "note_on",
        "note": 22,
        "velocity": 65,
        "time": 14631,
        "channel": 9
      },
      {
        "type": "note_off",
        "note": 22,
        "time": 14683,
        "channel": 9
      },
      {
        "type": "note_on",
        "note": 38,
        "velocity": 108,
        "time": 14758,
        "channel": 9
      },
      {
        "type": "note_off",
        "note": 38,
        "time": 14810,
        "channel": 9
      },
      {
        "type": "note_on",
        "note": 40,
        "velocity": 121,
        "time": 14873,
        "channel": 9
      },
      {
        "type": "note_off",
        "note": 40,
        "time": 14926,
        "channel": 9
      },
      {
        "type": "note_on",
        "note": 26,
        "velocity": 96,
        "time": 15001,
        "channel": 9
      },
      {
        "type": "note_on",
        "note": 36,
        "velocity": 119,
        "time": 15003,
        "channel": 9
      },
      {
        "type": "note_off",
        "note": 26,
        "time": 15054,
        "channel": 9
      },
      {
        "type": "note_off",
        "note": 36,
        "time": 15056,
        "channel": 9
      },
      {
        "type": "note_on",
        "note": 44,
        "velocity": 32,
        "time": 15343,
        "channel": 9
      },
      {
        "type": "note_on",
        "note": 36,
        "velocity": 127,
        "time": 15347,
        "channel": 9
      },
      {
        "type": "note_on",
        "note": 42,
        "velocity": 103,
        "time": 15351,
        "channel": 9
      },
      {
        "type": "note_off",
        "note": 44,
        "time": 15396,
        "channel": 9
      },
      {
        "type": "note_off",
        "note": 36,
        "time": 15400,
        "channel": 9
      },
      {
        "type": "note_off",
        "note": 42,
        "time": 15403,
        "channel": 9
      },
      {
        "type": "note_on",
        "note": 22,
        "velocity": 106,
        "time": 15599,
        "channel": 9
      },
      {
        "type": "note_off",
        "note": 22,
        "time": 15652,
        "channel": 9
      },
      {
        "type": "note_on",
        "note": 40,
        "velocity": 127,
        "time": 15842,
        "channel": 9
      },
      {
        "type": "note_on",
        "note": 22,
        "velocity": 80,
        "time": 15844,
        "channel": 9
      },
      {
        "type": "note_off",
        "note": 40,
        "time": 15895,
        "channel": 9
      },
      {
        "type": "note_off",
        "note": 22,
        "time": 15896,
        "channel": 9
      },
      {
        "type": "note_on",
        "note": 22,
        "velocity": 104,
        "time": 16084,
        "channel": 9
      },
      {
        "type": "note_off",
        "note": 22,
        "time": 16136,
        "channel": 9
      },
      {
        "type": "note_on",
        "note": 36,
        "velocity": 46,
        "time": 16197,
        "channel": 9
      },
      {
        "type": "note_off",
        "note": 36,
        "time": 16250,
        "channel": 9
      },
      {
        "type": "note_on",
        "note": 36,
        "velocity": 79,
        "time": 16308,
        "channel": 9
      },
      {
        "type": "note_on",
        "note": 42,
        "velocity": 74,
        "time": 16327,
        "channel": 9
      },
      {
        "type": "note_off",
        "note": 36,
        "time": 16360,
        "channel": 9
      },
      {
        "type": "note_off",
        "note": 42,
        "time": 16380,
        "channel": 9
      },
      {
        "type": "note_on",
        "note": 42,
        "velocity": 80,
        "time": 16555,
        "channel": 9
      },
      {
        "type": "note_off",
        "note": 42,
        "time": 16607,
        "channel": 9
      },
      {
        "type": "note_on",
        "note": 40,
        "velocity": 127,
        "time": 16791,
        "channel": 9
      },
      {
        "type": "note_on",
        "note": 22,
        "velocity": 91,
        "time": 16793,
        "channel": 9
      },
      {
        "type": "note_off",
        "note": 40,
        "time": 16843,
        "channel": 9
      },
      {
        "type": "note_off",
        "note": 22,
        "time": 16845,
        "channel": 9
      },
      {
        "type": "note_on",
        "note": 42,
        "velocity": 96,
        "time": 17031,
        "channel": 9
      },
      {
        "type": "note_off",
        "note": 42,
        "time": 17084,
        "channel": 9
      },
      {
        "type": "note_on",
        "note": 36,
        "velocity": 68,
        "time": 17269,
        "channel": 9
      },
      {
        "type": "note_on",
        "note": 22,
        "velocity": 101,
        "time": 17272,
        "channel": 9
      },
      {
        "type": "note_off",
        "note": 36,
        "time": 17322,
        "channel": 9
      },
      {
        "type": "note_off",
        "note": 22,
        "time": 17325,
        "channel": 9
      },
      {
        "type": "note_on",
        "note": 42,
        "velocity": 89,
        "time": 17509,
        "channel": 9
      },
      {
        "type": "note_off",
        "note": 42,
        "time": 17562,
        "channel": 9
      },
      {
        "type": "note_on",
        "note": 40,
        "velocity": 127,
        "time": 17754,
        "channel": 9
      },
      {
        "type": "note_on",
        "note": 22,
        "velocity": 76,
        "time": 17759,
        "channel": 9
      },
      {
        "type": "note_off",
        "note": 40,
        "time": 17806,
        "channel": 9
      },
      {
        "type": "note_off",
        "note": 22,
        "time": 17812,
        "channel": 9
      },
      {
        "type": "note_on",
        "note": 22,
        "velocity": 87,
        "time": 17999,
        "channel": 9
      },
      {
        "type": "note_off",
        "note": 22,
        "time": 18052,
        "channel": 9
      },
      {
        "type": "note_on",
        "note": 36,
        "velocity": 51,
        "time": 18118,
        "channel": 9
      },
      {
        "type": "note_off",
        "note": 36,
        "time": 18170,
        "channel": 9
      },
      {
        "type": "note_on",
        "note": 36,
        "velocity": 61,
        "time": 18234,
        "channel": 9
      },
      {
        "type": "note_on",
        "note": 22,
        "velocity": 83,
        "time": 18243,
        "channel": 9
      },
      {
        "type": "note_off",
        "note": 36,
        "time": 18286,
        "channel": 9
      },
      {
        "type": "note_off",
        "note": 22,
        "time": 18296,
        "channel": 9
      },
      {
        "type": "note_on",
        "note": 22,
        "velocity": 98,
        "time": 18477,
        "channel": 9
      },
      {
        "type": "note_off",
        "note": 22,
        "time": 18529,
        "channel": 9
      },
      {
        "type": "note_on",
        "note": 38,
        "velocity": 100,
        "time": 18610,
        "channel": 9
      },
      {
        "type": "note_off",
        "note": 38,
        "time": 18662,
        "channel": 9
      },
      {
        "type": "note_on",
        "note": 40,
        "velocity": 127,
        "time": 18728,
        "channel": 9
      },
      {
        "type": "note_off",
        "note": 40,
        "time": 18781,
        "channel": 9
      },
      {
        "type": "note_on",
        "note": 36,
        "velocity": 95,
        "time": 18849,
        "channel": 9
      },
      {
        "type": "note_on",
        "note": 26,
        "velocity": 79,
        "time": 18852,
        "channel": 9
      },
      {
        "type": "note_off",
        "note": 36,
        "time": 18902,
        "channel": 9
      },
      {
        "type": "note_off",
        "note": 26,
        "time": 18905,
        "channel": 9
      },
      {
        "type": "note_on",
        "note": 44,
        "velocity": 35,
        "time": 19179,
        "channel": 9
      },
      {
        "type": "note_on",
        "note": 36,
        "velocity": 120,
        "time": 19187,
        "channel": 9
      },
      {
        "type": "note_on",
        "note": 42,
        "velocity": 69,
        "time": 19195,
        "channel": 9
      },
      {
        "type": "note_off",
        "note": 44,
        "time": 19232,
        "channel": 9
      },
      {
        "type": "note_off",
        "note": 36,
        "time": 19239,
        "channel": 9
      },
      {
        "type": "note_off",
        "note": 42,
        "time": 19247,
        "channel": 9
      },
      {
        "type": "note_on",
        "note": 22,
        "velocity": 105,
        "time": 19436,
        "channel": 9
      },
      {
        "type": "note_off",
        "note": 22,
        "time": 19489,
        "channel": 9
      },
      {
        "type": "note_on",
        "note": 40,
        "velocity": 127,
        "time": 19686,
        "channel": 9
      },
      {
        "type": "note_on",
        "note": 22,
        "velocity": 90,
        "time": 19688,
        "channel": 9
      },
      {
        "type": "note_off",
        "note": 40,
        "time": 19739,
        "channel": 9
      },
      {
        "type": "note_off",
        "note": 22,
        "time": 19741,
        "channel": 9
      },
      {
        "type": "note_on",
        "note": 22,
        "velocity": 88,
        "time": 19924,
        "channel": 9
      },
      {
        "type": "note_off",
        "note": 22,
        "time": 19976,
        "channel": 9
      },
      {
        "type": "note_on",
        "note": 36,
        "velocity": 46,
        "time": 20034,
        "channel": 9
      },
      {
        "type": "note_off",
        "note": 36,
        "time": 20086,
        "channel": 9
      },
      {
        "type": "note_on",
        "note": 36,
        "velocity": 69,
        "time": 20150,
        "channel": 9
      },
      {
        "type": "note_on",
        "note": 22,
        "velocity": 86,
        "time": 20160,
        "channel": 9
      },
      {
        "type": "note_off",
        "note": 36,
        "time": 20203,
        "channel": 9
      },
      {
        "type": "note_off",
        "note": 22,
        "time": 20213,
        "channel": 9
      },
      {
        "type": "note_on",
        "note": 22,
        "velocity": 89,
        "time": 20390,
        "channel": 9
      },
      {
        "type": "note_off",
        "note": 22,
        "time": 20443,
        "channel": 9
      },
      {
        "type": "note_on",
        "note": 40,
        "velocity": 127,
        "time": 20636,
        "channel": 9
      },
      {
        "type": "note_on",
        "note": 22,
        "velocity": 85,
        "time": 20639,
        "channel": 9
      },
      {
        "type": "note_off",
        "note": 40,
        "time": 20689,
        "channel": 9
      },
      {
        "type": "note_off",
        "note": 22,
        "time": 20691,
        "channel": 9
      },
      {
        "type": "note_on",
        "note": 22,
        "velocity": 99,
        "time": 20882,
        "channel": 9
      },
      {
        "type": "note_off",
        "note": 22,
        "time": 20935,
        "channel": 9
      },
      {
        "type": "note_on",
        "note": 36,
        "velocity": 85,
        "time": 21113,
        "channel": 9
      },
      {
        "type": "note_on",
        "note": 22,
        "velocity": 87,
        "time": 21120,
        "channel": 9
      },
      {
        "type": "note_off",
        "note": 36,
        "time": 21166,
        "channel": 9
      },
      {
        "type": "note_off",
        "note": 22,
        "time": 21173,
        "channel": 9
      },
      {
        "type": "note_on",
        "note": 22,
        "velocity": 88,
        "time": 21363,
        "channel": 9
      },
      {
        "type": "note_off",
        "note": 22,
        "time": 21416,
        "channel": 9
      },
      {
        "type": "note_on",
        "note": 40,
        "velocity": 127,
        "time": 21605,
        "channel": 9
      },
      {
        "type": "note_on",
        "note": 22,
        "velocity": 89,
        "time": 21610,
        "channel": 9
      },
      {
        "type": "note_off",
        "note": 40,
        "time": 21658,
        "channel": 9
      },
      {
        "type": "note_off",
        "note": 22,
        "time": 21662,
        "channel": 9
      },
      {
        "type": "note_on",
        "note": 22,
        "velocity": 82,
        "time": 21833,
        "channel": 9
      },
      {
        "type": "note_off",
        "note": 22,
        "time": 21886,
        "channel": 9
      },
      {
        "type": "note_on",
        "note": 36,
        "velocity": 46,
        "time": 21959,
        "channel": 9
      },
      {
        "type": "note_off",
        "note": 36,
        "time": 22012,
        "channel": 9
      },
      {
        "type": "note_on",
        "note": 36,
        "velocity": 69,
        "time": 22073,
        "channel": 9
      },
      {
        "type": "note_on",
        "note": 22,
        "velocity": 93,
        "time": 22075,
        "channel": 9
      },
      {
        "type": "note_off",
        "note": 36,
        "time": 22126,
        "channel": 9
      },
      {
        "type": "note_off",
        "note": 22,
        "time": 22128,
        "channel": 9
      },
      {
        "type": "note_on",
        "note": 22,
        "velocity": 93,
        "time": 22315,
        "channel": 9
      },
      {
        "type": "note_off",
        "note": 22,
        "time": 22367,
        "channel": 9
      },
      {
        "type": "note_on",
        "note": 38,
        "velocity": 103,
        "time": 22440,
        "channel": 9
      },
      {
        "type": "note_off",
        "note": 38,
        "time": 22492,
        "channel": 9
      },
      {
        "type": "note_on",
        "note": 40,
        "velocity": 127,
        "time": 22562,
        "channel": 9
      },
      {
        "type": "note_off",
        "note": 40,
        "time": 22615,
        "channel": 9
      },
      {
        "type": "note_on",
        "note": 36,
        "velocity": 89,
        "time": 22682,
        "channel": 9
      },
      {
        "type": "note_on",
        "note": 26,
        "velocity": 68,
        "time": 22684,
        "channel": 9
      },
      {
        "type": "note_off",
        "note": 36,
        "time": 22734,
        "channel": 9
      },
      {
        "type": "note_off",
        "note": 26,
        "time": 22737,
        "channel": 9
      },
      {
        "type": "note_on",
        "note": 44,
        "velocity": 40,
        "time": 23014,
        "channel": 9
      },
      {
        "type": "note_on",
        "note": 36,
        "velocity": 81,
        "time": 23023,
        "channel": 9
      },
      {
        "type": "note_on",
        "note": 42,
        "velocity": 90,
        "time": 23030,
        "channel": 9
      },
      {
        "type": "note_off",
        "note": 44,
        "time": 23067,
        "channel": 9
      },
      {
        "type": "note_off",
        "note": 36,
        "time": 23076,
        "channel": 9
      },
      {
        "type": "note_off",
        "note": 42,
        "time": 23082,
        "channel": 9
      },
      {
        "type": "note_on",
        "note": 22,
        "velocity": 100,
        "time": 23264,
        "channel": 9
      },
      {
        "type": "note_off",
        "note": 22,
        "time": 23317,
        "channel": 9
      },
      {
        "type": "note_on",
        "note": 22,
        "velocity": 83,
        "time": 23515,
        "channel": 9
      },
      {
        "type": "note_on",
        "note": 40,
        "velocity": 127,
        "time": 23518,
        "channel": 9
      },
      {
        "type": "note_off",
        "note": 22,
        "time": 23568,
        "channel": 9
      },
      {
        "type": "note_off",
        "note": 40,
        "time": 23571,
        "channel": 9
      },
      {
        "type": "note_on",
        "note": 22,
        "velocity": 78,
        "time": 23751,
        "channel": 9
      },
      {
        "type": "note_off",
        "note": 22,
        "time": 23804,
        "channel": 9
      },
      {
        "type": "note_on",
        "note": 36,
        "velocity": 45,
        "time": 23869,
        "channel": 9
      },
      {
        "type": "note_off",
        "note": 36,
        "time": 23922,
        "channel": 9
      },
      {
        "type": "note_on",
        "note": 36,
        "velocity": 58,
        "time": 23986,
        "channel": 9
      },
      {
        "type": "note_on",
        "note": 22,
        "velocity": 80,
        "time": 23991,
        "channel": 9
      },
      {
        "type": "note_off",
        "note": 36,
        "time": 24038,
        "channel": 9
      },
      {
        "type": "note_off",
        "note": 22,
        "time": 24044,
        "channel": 9
      },
      {
        "type": "note_on",
        "note": 22,
        "velocity": 112,
        "time": 24237,
        "channel": 9
      },
      {
        "type": "note_off",
        "note": 22,
        "time": 24290,
        "channel": 9
      },
      {
        "type": "note_on",
        "note": 40,
        "velocity": 127,
        "time": 24482,
        "channel": 9
      },
      {
        "type": "note_on",
        "note": 22,
        "velocity": 85,
        "time": 24483,
        "channel": 9
      },
      {
        "type": "note_off",
        "note": 40,
        "time": 24534,
        "channel": 9
      },
      {
        "type": "note_off",
        "note": 22,
        "time": 24536,
        "channel": 9
      },
      {
        "type": "note_on",
        "note": 42,
        "velocity": 98,
        "time": 24729,
        "channel": 9
      },
      {
        "type": "note_off",
        "note": 42,
        "time": 24782,
        "channel": 9
      },
      {
        "type": "note_on",
        "note": 36,
        "velocity": 71,
        "time": 24964,
        "channel": 9
      },
      {
        "type": "note_on",
        "note": 22,
        "velocity": 93,
        "time": 24979,
        "channel": 9
      },
      {
        "type": "note_off",
        "note": 36,
        "time": 25017,
        "channel": 9
      },
      {
        "type": "note_off",
        "note": 22,
        "time": 25032,
        "channel": 9
      },
      {
        "type": "note_on",
        "note": 42,
        "velocity": 107,
        "time": 25211,
        "channel": 9
      },
      {
        "type": "note_off",
        "note": 42,
        "time": 25264,
        "channel": 9
      },
      {
        "type": "note_on",
        "note": 40,
        "velocity": 127,
        "time": 25443,
        "channel": 9
      },
      {
        "type": "note_on",
        "note": 22,
        "velocity": 86,
        "time": 25445,
        "channel": 9
      },
      {
        "type": "note_off",
        "note": 40,
        "time": 25496,
        "channel": 9
      },
      {
        "type": "note_off",
        "note": 22,
        "time": 25498,
        "channel": 9
      },
      {
        "type": "note_on",
        "note": 22,
        "velocity": 99,
        "time": 25679,
        "channel": 9
      },
      {
        "type": "note_off",
        "note": 22,
        "time": 25732,
        "channel": 9
      },
      {
        "type": "note_on",
        "note": 36,
        "velocity": 47,
        "time": 25790,
        "channel": 9
      },
      {
        "type": "note_off",
        "note": 36,
        "time": 25842,
        "channel": 9
      },
      {
        "type": "note_on",
        "note": 22,
        "velocity": 80,
        "time": 25918,
        "channel": 9
      },
      {
        "type": "note_on",
        "note": 36,
        "velocity": 84,
        "time": 25918,
        "channel": 9
      },
      {
        "type": "note_off",
        "note": 22,
        "time": 25971,
        "channel": 9
      },
      {
        "type": "note_off",
        "note": 36,
        "time": 25971,
        "channel": 9
      },
      {
        "type": "note_on",
        "note": 22,
        "velocity": 89,
        "time": 26159,
        "channel": 9
      },
      {
        "type": "note_off",
        "note": 22,
        "time": 26212,
        "channel": 9
      },
      {
        "type": "note_on",
        "note": 38,
        "velocity": 115,
        "time": 26278,
        "channel": 9
      },
      {
        "type": "note_off",
        "note": 38,
        "time": 26331,
        "channel": 9
      },
      {
        "type": "note_on",
        "note": 40,
        "velocity": 127,
        "time": 26396,
        "channel": 9
      },
      {
        "type": "note_off",
        "note": 40,
        "time": 26449,
        "channel": 9
      },
      {
        "type": "note_on",
        "note": 36,
        "velocity": 101,
        "time": 26515,
        "channel": 9
      },
      {
        "type": "note_on",
        "note": 37,
        "velocity": 14,
        "time": 26521,
        "channel": 9
      },
      {
        "type": "note_on",
        "note": 26,
        "velocity": 80,
        "time": 26522,
        "channel": 9
      },
      {
        "type": "note_off",
        "note": 36,
        "time": 26567,
        "channel": 9
      },
      {
        "type": "note_off",
        "note": 26,
        "time": 26574,
        "channel": 9
      },
      {
        "type": "note_off",
        "note": 37,
        "time": 26574,
        "channel": 9
      },
      {
        "type": "note_on",
        "note": 44,
        "velocity": 30,
        "time": 26862,
        "channel": 9
      },
      {
        "type": "note_on",
        "note": 36,
        "velocity": 100,
        "time": 26865,
        "channel": 9
      },
      {
        "type": "note_on",
        "note": 42,
        "velocity": 94,
        "time": 26869,
        "channel": 9
      },
      {
        "type": "note_off",
        "note": 44,
        "time": 26915,
        "channel": 9
      },
      {
        "type": "note_off",
        "note": 36,
        "time": 26917,
        "channel": 9
      },
      {
        "type": "note_off",
        "note": 42,
        "time": 26921,
        "channel": 9
      },
      {
        "type": "note_on",
        "note": 42,
        "velocity": 98,
        "time": 27124,
        "channel": 9
      },
      {
        "type": "note_off",
        "note": 42,
        "time": 27177,
        "channel": 9
      },
      {
        "type": "note_on",
        "note": 40,
        "velocity": 114,
        "time": 27372,
        "channel": 9
      },
      {
        "type": "note_on",
        "note": 42,
        "velocity": 88,
        "time": 27375,
        "channel": 9
      },
      {
        "type": "note_on",
        "note": 38,
        "velocity": 20,
        "time": 27416,
        "channel": 9
      },
      {
        "type": "note_off",
        "note": 40,
        "time": 27424,
        "channel": 9
      },
      {
        "type": "note_off",
        "note": 42,
        "time": 27428,
        "channel": 9
      },
      {
        "type": "note_off",
        "note": 38,
        "time": 27468,
        "channel": 9
      },
      {
        "type": "note_on",
        "note": 22,
        "velocity": 103,
        "time": 27602,
        "channel": 9
      },
      {
        "type": "note_off",
        "note": 22,
        "time": 27655,
        "channel": 9
      },
      {
        "type": "note_on",
        "note": 36,
        "velocity": 44,
        "time": 27728,
        "channel": 9
      },
      {
        "type": "note_off",
        "note": 36,
        "time": 27780,
        "channel": 9
      },
      {
        "type": "note_on",
        "note": 36,
        "velocity": 68,
        "time": 27841,
        "channel": 9
      },
      {
        "type": "note_on",
        "note": 42,
        "velocity": 84,
        "time": 27843,
        "channel": 9
      },
      {
        "type": "note_off",
        "note": 36,
        "time": 27893,
        "channel": 9
      },
      {
        "type": "note_off",
        "note": 42,
        "time": 27895,
        "channel": 9
      },
      {
        "type": "note_on",
        "note": 22,
        "velocity": 99,
        "time": 28071,
        "channel": 9
      },
      {
        "type": "note_off",
        "note": 22,
        "time": 28124,
        "channel": 9
      },
      {
        "type": "note_on",
        "note": 40,
        "velocity": 127,
        "time": 28319,
        "channel": 9
      },
      {
        "type": "note_on",
        "note": 22,
        "velocity": 86,
        "time": 28322,
        "channel": 9
      },
      {
        "type": "note_off",
        "note": 40,
        "time": 28371,
        "channel": 9
      },
      {
        "type": "note_off",
        "note": 22,
        "time": 28375,
        "channel": 9
      },
      {
        "type": "note_on",
        "note": 22,
        "velocity": 79,
        "time": 28564,
        "channel": 9
      },
      {
        "type": "note_off",
        "note": 22,
        "time": 28617,
        "channel": 9
      },
      {
        "type": "note_on",
        "note": 36,
        "velocity": 88,
        "time": 28786,
        "channel": 9
      },
      {
        "type": "note_on",
        "note": 22,
        "velocity": 103,
        "time": 28794,
        "channel": 9
      },
      {
        "type": "note_off",
        "note": 36,
        "time": 28838,
        "channel": 9
      },
      {
        "type": "note_off",
        "note": 22,
        "time": 28846,
        "channel": 9
      },
      {
        "type": "note_on",
        "note": 22,
        "velocity": 93,
        "time": 29036,
        "channel": 9
      },
      {
        "type": "note_off",
        "note": 22,
        "time": 29088,
        "channel": 9
      },
      {
        "type": "note_on",
        "note": 40,
        "velocity": 127,
        "time": 29281,
        "channel": 9
      },
      {
        "type": "note_on",
        "note": 22,
        "velocity": 85,
        "time": 29287,
        "channel": 9
      },
      {
        "type": "note_off",
        "note": 40,
        "time": 29333,
        "channel": 9
      },
      {
        "type": "note_off",
        "note": 22,
        "time": 29340,
        "channel": 9
      },
      {
        "type": "note_on",
        "note": 22,
        "velocity": 106,
        "time": 29509,
        "channel": 9
      },
      {
        "type": "note_off",
        "note": 22,
        "time": 29562,
        "channel": 9
      },
      {
        "type": "note_on",
        "note": 36,
        "velocity": 49,
        "time": 29639,
        "channel": 9
      },
      {
        "type": "note_off",
        "note": 36,
        "time": 29691,
        "channel": 9
      },
      {
        "type": "note_on",
        "note": 22,
        "velocity": 89,
        "time": 29757,
        "channel": 9
      },
      {
        "type": "note_on",
        "note": 36,
        "velocity": 88,
        "time": 29757,
        "channel": 9
      },
      {
        "type": "note_off",
        "note": 22,
        "time": 29809,
        "channel": 9
      },
      {
        "type": "note_off",
        "note": 36,
        "time": 29809,
        "channel": 9
      },
      {
        "type": "note_on",
        "note": 22,
        "velocity": 82,
        "time": 29994,
        "channel": 9
      },
      {
        "type": "note_off",
        "note": 22,
        "time": 30047,
        "channel": 9
      },
      {
        "type": "note_on",
        "note": 38,
        "velocity": 110,
        "time": 30120,
        "channel": 9
      },
      {
        "type": "note_off",
        "note": 38,
        "time": 30172,
        "channel": 9
      },
      {
        "type": "note_on",
        "note": 40,
        "velocity": 127,
        "time": 30239,
        "channel": 9
      },
      {
        "type": "note_off",
        "note": 40,
        "time": 30292,
        "channel": 9
      },
      {
        "type": "note_on",
        "note": 36,
        "velocity": 127,
        "time": 30368,
        "channel": 9
      },
      {
        "type": "note_on",
        "note": 26,
        "velocity": 98,
        "time": 30370,
        "channel": 9
      },
      {
        "type": "note_off",
        "note": 36,
        "time": 30420,
        "channel": 9
      },
      {
        "type": "note_off",
        "note": 26,
        "time": 30423,
        "channel": 9
      }
    ]
  },
  {
    "file": "data\\groove\\drummer1\\eval_session\\9_soul-groove9_105_beat_4-4.mid",
    "num_events": 415,
    "duration": 30694,
    "events": [
      {
        "type": "set_tempo",
        "tempo": 571429,
        "time": 0
      },
      {
        "type": "note_on",
        "note": 44,
        "velocity": 55,
        "time": 4,
        "channel": 9
      },
      {
        "type": "note_on",
        "note": 36,
        "velocity": 58,
        "time": 5,
        "channel": 9
      },
      {
        "type": "note_off",
        "note": 36,
        "time": 89,
        "channel": 9
      },
      {
        "type": "note_off",
        "note": 44,
        "time": 89,
        "channel": 9
      },
      {
        "type": "note_on",
        "note": 44,
        "velocity": 67,
        "time": 247,
        "channel": 9
      },
      {
        "type": "note_off",
        "note": 44,
        "time": 332,
        "channel": 9
      },
      {
        "type": "note_on",
        "note": 40,
        "velocity": 125,
        "time": 479,
        "channel": 9
      },
      {
        "type": "note_on",
        "note": 44,
        "velocity": 80,
        "time": 480,
        "channel": 9
      },
      {
        "type": "note_off",
        "note": 40,
        "time": 563,
        "channel": 9
      },
      {
        "type": "note_off",
        "note": 44,
        "time": 563,
        "channel": 9
      },
      {
        "type": "note_on",
        "note": 44,
        "velocity": 70,
        "time": 723,
        "channel": 9
      },
      {
        "type": "note_off",
        "note": 44,
        "time": 808,
        "channel": 9
      },
      {
        "type": "note_on",
        "note": 44,
        "velocity": 72,
        "time": 956,
        "channel": 9
      },
      {
        "type": "note_off",
        "note": 44,
        "time": 1040,
        "channel": 9
      },
      {
        "type": "note_on",
        "note": 36,
        "velocity": 57,
        "time": 1107,
        "channel": 9
      },
      {
        "type": "note_on",
        "note": 44,
        "velocity": 82,
        "time": 1181,
        "channel": 9
      },
      {
        "type": "note_off",
        "note": 36,
        "time": 1192,
        "channel": 9
      },
      {
        "type": "note_off",
        "note": 44,
        "time": 1266,
        "channel": 9
      },
      {
        "type": "note_on",
        "note": 44,
        "velocity": 80,
        "time": 1429,
        "channel": 9
      },
      {
        "type": "note_on",
        "note": 38,
        "velocity": 121,
        "time": 1440,
        "channel": 9
      },
      {
        "type": "note_off",
        "note": 44,
        "time": 1514,
        "channel": 9
      },
      {
        "type": "note_off",
        "note": 38,
        "time": 1524,
        "channel": 9
      },
      {
        "type": "note_on",
        "note": 44,
        "velocity": 75,
        "time": 1681,
        "channel": 9
      },
      {
        "type": "note_off",
        "note": 44,
        "time": 1765,
        "channel": 9
      },
      {
        "type": "note_on",
        "note": 36,
        "velocity": 56,
        "time": 1929,
        "channel": 9
      },
      {
        "type": "note_on",
        "note": 44,
        "velocity": 77,
        "time": 1931,
        "channel": 9
      },
      {
        "type": "note_off",
        "note": 36,
        "time": 2013,
        "channel": 9
      },
      {
        "type": "note_off",
        "note": 44,
        "time": 2016,
        "channel": 9
      },
      {
        "type": "note_on",
        "note": 44,
        "velocity": 82,
        "time": 2169,
        "channel": 9
      },
      {
        "type": "note_off",
        "note": 44,
        "time": 2253,
        "channel": 9
      },
      {
        "type": "note_on",
        "note": 44,
        "velocity": 72,
        "time": 2392,
        "channel": 9
      },
      {
        "type": "note_on",
        "note": 40,
        "velocity": 127,
        "time": 2411,
        "channel": 9
      },
      {
        "type": "note_off",
        "note": 44,
        "time": 2477,
        "channel": 9
      },
      {
        "type": "note_off",
        "note": 40,
        "time": 2496,
        "channel": 9
      },
      {
        "type": "note_on",
        "note": 44,
        "velocity": 67,
        "time": 2633,
        "channel": 9
      },
      {
        "type": "note_off",
        "note": 44,
        "time": 2718,
        "channel": 9
      },
      {
        "type": "note_on",
        "note": 44,
        "velocity": 75,
        "time": 2876,
        "channel": 9
      },
      {
        "type": "note_off",
        "note": 44,
        "time": 2960,
        "channel": 9
      },
      {
        "type": "note_on",
        "note": 36,
        "velocity": 45,
        "time": 3029,
        "channel": 9
      },
      {
        "type": "note_on",
        "note": 44,
        "velocity": 80,
        "time": 3099,
        "channel": 9
      },
      {
        "type": "note_on",
        "note": 36,
        "velocity": 40,
        "time": 3106,
        "channel": 9
      },
      {
        "type": "note_off",
        "note": 36,
        "time": 3106,
        "channel": 9
      },
      {
        "type": "note_off",
        "note": 36,
        "time": 3114,
        "channel": 9
      },
      {
        "type": "note_off",
        "note": 44,
        "time": 3184,
        "channel": 9
      },
      {
        "type": "note_on",
        "note": 44,
        "velocity": 82,
        "time": 3349,
        "channel": 9
      },
      {
        "type": "note_on",
        "note": 40,
        "velocity": 115,
        "time": 3365,
        "channel": 9
      },
      {
        "type": "note_off",
        "note": 44,
        "time": 3434,
        "channel": 9
      },
      {
        "type": "note_off",
        "note": 40,
        "time": 3450,
        "channel": 9
      },
      {
        "type": "note_on",
        "note": 44,
        "velocity": 62,
        "time": 3592,
        "channel": 9
      },
      {
        "type": "note_off",
        "note": 44,
        "time": 3676,
        "channel": 9
      },
      {
        "type": "note_on",
        "note": 44,
        "velocity": 80,
        "time": 3834,
        "channel": 9
      },
      {
        "type": "note_on",
        "note": 36,
        "velocity": 58,
        "time": 3848,
        "channel": 9
      },
      {
        "type": "note_off",
        "note": 44,
        "time": 3918,
        "channel": 9
      },
      {
        "type": "note_off",
        "note": 36,
        "time": 3933,
        "channel": 9
      },
      {
        "type": "note_on",
        "note": 44,
        "velocity": 77,
        "time": 4074,
        "channel": 9
      },
      {
        "type": "note_off",
        "note": 44,
        "time": 4159,
        "channel": 9
      },
      {
        "type": "note_on",
        "note": 44,
        "velocity": 75,
        "time": 4319,
        "channel": 9
      },
      {
        "type": "note_on",
        "note": 40,
        "velocity": 118,
        "time": 4329,
        "channel": 9
      },
      {
        "type": "note_off",
        "note": 44,
        "time": 4404,
        "channel": 9
      },
      {
        "type": "note_off",
        "note": 40,
        "time": 4414,
        "channel": 9
      },
      {
        "type": "note_on",
        "note": 44,
        "velocity": 65,
        "time": 4556,
        "channel": 9
      },
      {
        "type": "note_off",
        "note": 44,
        "time": 4640,
        "channel": 9
      },
      {
        "type": "note_on",
        "note": 44,
        "velocity": 52,
        "time": 4790,
        "channel": 9
      },
      {
        "type": "note_off",
        "note": 44,
        "time": 4874,
        "channel": 9
      },
      {
        "type": "note_on",
        "note": 36,
        "velocity": 45,
        "time": 4925,
        "channel": 9
      },
      {
        "type": "note_off",
        "note": 36,
        "time": 5009,
        "channel": 9
      },
      {
        "type": "note_on",
        "note": 36,
        "velocity": 56,
        "time": 5027,
        "channel": 9
      },
      {
        "type": "note_on",
        "note": 44,
        "velocity": 65,
        "time": 5033,
        "channel": 9
      },
      {
        "type": "note_off",
        "note": 36,
        "time": 5112,
        "channel": 9
      },
      {
        "type": "note_off",
        "note": 44,
        "time": 5118,
        "channel": 9
      },
      {
        "type": "note_on",
        "note": 44,
        "velocity": 77,
        "time": 5274,
        "channel": 9
      },
      {
        "type": "note_on",
        "note": 40,
        "velocity": 127,
        "time": 5282,
        "channel": 9
      },
      {
        "type": "note_off",
        "note": 44,
        "time": 5359,
        "channel": 9
      },
      {
        "type": "note_off",
        "note": 40,
        "time": 5366,
        "channel": 9
      },
      {
        "type": "note_on",
        "note": 44,
        "velocity": 65,
        "time": 5518,
        "channel": 9
      },
      {
        "type": "note_off",
        "note": 44,
        "time": 5603,
        "channel": 9
      },
      {
        "type": "note_on",
        "note": 44,
        "velocity": 80,
        "time": 5780,
        "channel": 9
      },
      {
        "type": "note_on",
        "note": 36,
        "velocity": 59,
        "time": 5782,
        "channel": 9
      },
      {
        "type": "note_off",
        "note": 44,
        "time": 5865,
        "channel": 9
      },
      {
        "type": "note_off",
        "note": 36,
        "time": 5867,
        "channel": 9
      },
      {
        "type": "note_on",
        "note": 44,
        "velocity": 80,
        "time": 6026,
        "channel": 9
      },
      {
        "type": "note_off",
        "note": 44,
        "time": 6111,
        "channel": 9
      },
      {
        "type": "note_on",
        "note": 40,
        "velocity": 127,
        "time": 6266,
        "channel": 9
      },
      {
        "type": "note_on",
        "note": 44,
        "velocity": 72,
        "time": 6268,
        "channel": 9
      },
      {
        "type": "note_off",
        "note": 40,
        "time": 6351,
        "channel": 9
      },
      {
        "type": "note_off",
        "note": 44,
        "time": 6353,
        "channel": 9
      },
      {
        "type": "note_on",
        "note": 44,
        "velocity": 77,
        "time": 6506,
        "channel": 9
      },
      {
        "type": "note_off",
        "note": 44,
        "time": 6590,
        "channel": 9
      },
      {
        "type": "note_on",
        "note": 44,
        "velocity": 70,
        "time": 6733,
        "channel": 9
      },
      {
        "type": "note_off",
        "note": 44,
        "time": 6817,
        "channel": 9
      },
      {
        "type": "note_on",
        "note": 36,
        "velocity": 35,
        "time": 6883,
        "channel": 9
      },
      {
        "type": "note_off",
        "note": 36,
        "time": 6968,
        "channel": 9
      },
      {
        "type": "note_on",
        "note": 36,
        "velocity": 51,
        "time": 6978,
        "channel": 9
      },
      {
        "type": "note_on",
        "note": 44,
        "velocity": 80,
        "time": 6980,
        "channel": 9
      },
      {
        "type": "note_off",
        "note": 36,
        "time": 7063,
        "channel": 9
      },
      {
        "type": "note_off",
        "note": 44,
        "time": 7065,
        "channel": 9
      },
      {
        "type": "note_on",
        "note": 40,
        "velocity": 127,
        "time": 7216,
        "channel": 9
      },
      {
        "type": "note_on",
        "note": 44,
        "velocity": 80,
        "time": 7223,
        "channel": 9
      },
      {
        "type": "note_off",
        "note": 40,
        "time": 7300,
        "channel": 9
      },
      {
        "type": "note_off",
        "note": 44,
        "time": 7308,
        "channel": 9
      },
      {
        "type": "note_on",
        "note": 44,
        "velocity": 70,
        "time": 7447,
        "channel": 9
      },
      {
        "type": "note_off",
        "note": 44,
        "time": 7532,
        "channel": 9
      },
      {
        "type": "note_on",
        "note": 44,
        "velocity": 77,
        "time": 7694,
        "channel": 9
      },
      {
        "type": "note_on",
        "note": 36,
        "velocity": 57,
        "time": 7698,
        "channel": 9
      },
      {
        "type": "note_off",
        "note": 44,
        "time": 7779,
        "channel": 9
      },
      {
        "type": "note_off",
        "note": 36,
        "time": 7782,
        "channel": 9
      },
      {
        "type": "note_on",
        "note": 44,
        "velocity": 67,
        "time": 7927,
        "channel": 9
      },
      {
        "type": "note_off",
        "note": 44,
        "time": 8012,
        "channel": 9
      },
      {
        "type": "note_on",
        "note": 44,
        "velocity": 65,
        "time": 8153,
        "channel": 9
      },
      {
        "type": "note_on",
        "note": 40,
        "velocity": 127,
        "time": 8168,
        "channel": 9
      },
      {
        "type": "note_off",
        "note": 44,
        "time": 8239,
        "channel": 9
      },
      {
        "type": "note_off",
        "note": 40,
        "time": 8253,
        "channel": 9
      },
      {
        "type": "note_on",
        "note": 44,
        "velocity": 55,
        "time": 8394,
        "channel": 9
      },
      {
        "type": "note_off",
        "note": 44,
        "time": 8479,
        "channel": 9
      },
      {
        "type": "note_on",
        "note": 44,
        "velocity": 70,
        "time": 8637,
        "channel": 9
      },
      {
        "type": "note_off",
        "note": 44,
        "time": 8722,
        "channel": 9
      },
      {
        "type": "note_on",
        "note": 36,
        "velocity": 46,
        "time": 8760,
        "channel": 9
      },
      {
        "type": "note_off",
        "note": 36,
        "time": 8845,
        "channel": 9
      },
      {
        "type": "note_on",
        "note": 36,
        "velocity": 57,
        "time": 8875,
        "channel": 9
      },
      {
        "type": "note_on",
        "note": 44,
        "velocity": 80,
        "time": 8875,
        "channel": 9
      },
      {
        "type": "note_off",
        "note": 36,
        "time": 8960,
        "channel": 9
      },
      {
        "type": "note_off",
        "note": 44,
        "time": 8960,
        "channel": 9
      },
      {
        "type": "note_on",
        "note": 40,
        "velocity": 119,
        "time": 9110,
        "channel": 9
      },
      {
        "type": "note_on",
        "note": 44,
        "velocity": 77,
        "time": 9117,
        "channel": 9
      },
      {
        "type": "note_off",
        "note": 40,
        "time": 9194,
        "channel": 9
      },
      {
        "type": "note_off",
        "note": 44,
        "time": 9201,
        "channel": 9
      },
      {
        "type": "note_on",
        "note": 44,
        "velocity": 62,
        "time": 9356,
        "channel": 9
      },
      {
        "type": "note_off",
        "note": 44,
        "time": 9441,
        "channel": 9
      },
      {
        "type": "note_on",
        "note": 44,
        "velocity": 70,
        "time": 9595,
        "channel": 9
      },
      {
        "type": "note_on",
        "note": 36,
        "velocity": 57,
        "time": 9600,
        "channel": 9
      },
      {
        "type": "note_off",
        "note": 44,
        "time": 9680,
        "channel": 9
      },
      {
        "type": "note_off",
        "note": 36,
        "time": 9684,
        "channel": 9
      },
      {
        "type": "note_on",
        "note": 44,
        "velocity": 72,
        "time": 9838,
        "channel": 9
      },
      {
        "type": "note_off",
        "note": 44,
        "time": 9923,
        "channel": 9
      },
      {
        "type": "note_on",
        "note": 44,
        "velocity": 55,
        "time": 10071,
        "channel": 9
      },
      {
        "type": "note_on",
        "note": 40,
        "velocity": 127,
        "time": 10094,
        "channel": 9
      },
      {
        "type": "note_off",
        "note": 44,
        "time": 10156,
        "channel": 9
      },
      {
        "type": "note_off",
        "note": 40,
        "time": 10179,
        "channel": 9
      },
      {
        "type": "note_on",
        "note": 44,
        "velocity": 57,
        "time": 10314,
        "channel": 9
      },
      {
        "type": "note_off",
        "note": 44,
        "time": 10398,
        "channel": 9
      },
      {
        "type": "note_on",
        "note": 44,
        "velocity": 52,
        "time": 10553,
        "channel": 9
      },
      {
        "type": "note_off",
        "note": 44,
        "time": 10638,
        "channel": 9
      },
      {
        "type": "note_on",
        "note": 36,
        "velocity": 29,
        "time": 10706,
        "channel": 9
      },
      {
        "type": "note_off",
        "note": 36,
        "time": 10790,
        "channel": 9
      },
      {
        "type": "note_on",
        "note": 36,
        "velocity": 56,
        "time": 10801,
        "channel": 9
      },
      {
        "type": "note_on",
        "note": 44,
        "velocity": 70,
        "time": 10805,
        "channel": 9
      },
      {
        "type": "note_off",
        "note": 36,
        "time": 10886,
        "channel": 9
      },
      {
        "type": "note_off",
        "note": 44,
        "time": 10889,
        "channel": 9
      },
      {
        "type": "note_on",
        "note": 40,
        "velocity": 127,
        "time": 11031,
        "channel": 9
      },
      {
        "type": "note_on",
        "note": 44,
        "velocity": 75,
        "time": 11041,
        "channel": 9
      },
      {
        "type": "note_off",
        "note": 40,
        "time": 11115,
        "channel": 9
      },
      {
        "type": "note_off",
        "note": 44,
        "time": 11126,
        "channel": 9
      },
      {
        "type": "note_on",
        "note": 44,
        "velocity": 52,
        "time": 11281,
        "channel": 9
      },
      {
        "type": "note_off",
        "note": 44,
        "time": 11366,
        "channel": 9
      },
      {
        "type": "note_on",
        "note": 44,
        "velocity": 70,
        "time": 11525,
        "channel": 9
      },
      {
        "type": "note_on",
        "note": 36,
        "velocity": 56,
        "time": 11535,
        "channel": 9
      },
      {
        "type": "note_off",
        "note": 44,
        "time": 11609,
        "channel": 9
      },
      {
        "type": "note_off",
        "note": 36,
        "time": 11619,
        "channel": 9
      },
      {
        "type": "note_on",
        "note": 44,
        "velocity": 62,
        "time": 11759,
        "channel": 9
      },
      {
        "type": "note_off",
        "note": 44,
        "time": 11845,
        "channel": 9
      },
      {
        "type": "note_on",
        "note": 44,
        "velocity": 60,
        "time": 12000,
        "channel": 9
      },
      {
        "type": "note_on",
        "note": 40,
        "velocity": 127,
        "time": 12016,
        "channel": 9
      },
      {
        "type": "note_off",
        "note": 44,
        "time": 12084,
        "channel": 9
      },
      {
        "type": "note_off",
        "note": 40,
        "time": 12100,
        "channel": 9
      },
      {
        "type": "note_on",
        "note": 44,
        "velocity": 57,
        "time": 12230,
        "channel": 9
      },
      {
        "type": "note_off",
        "note": 44,
        "time": 12315,
        "channel": 9
      },
      {
        "type": "note_on",
        "note": 44,
        "velocity": 67,
        "time": 12469,
        "channel": 9
      },
      {
        "type": "note_off",
        "note": 44,
        "time": 12554,
        "channel": 9
      },
      {
        "type": "note_on",
        "note": 36,
        "velocity": 41,
        "time": 12623,
        "channel": 9
      },
      {
        "type": "note_on",
        "note": 44,
        "velocity": 75,
        "time": 12703,
        "channel": 9
      },
      {
        "type": "note_off",
        "note": 36,
        "time": 12707,
        "channel": 9
      },
      {
        "type": "note_on",
        "note": 36,
        "velocity": 50,
        "time": 12718,
        "channel": 9
      },
      {
        "type": "note_off",
        "note": 44,
        "time": 12788,
        "channel": 9
      },
      {
        "type": "note_off",
        "note": 36,
        "time": 12803,
        "channel": 9
      },
      {
        "type": "note_on",
        "note": 44,
        "velocity": 72,
        "time": 12949,
        "channel": 9
      },
      {
        "type": "note_on",
        "note": 40,
        "velocity": 127,
        "time": 12957,
        "channel": 9
      },
      {
        "type": "note_off",
        "note": 44,
        "time": 13034,
        "channel": 9
      },
      {
        "type": "note_off",
        "note": 40,
        "time": 13041,
        "channel": 9
      },
      {
        "type": "note_on",
        "note": 44,
        "velocity": 72,
        "time": 13192,
        "channel": 9
      },
      {
        "type": "note_off",
        "note": 44,
        "time": 13277,
        "channel": 9
      },
      {
        "type": "note_on",
        "note": 44,
        "velocity": 70,
        "time": 13434,
        "channel": 9
      },
      {
        "type": "note_on",
        "note": 36,
        "velocity": 57,
        "time": 13450,
        "channel": 9
      },
      {
        "type": "note_off",
        "note": 44,
        "time": 13519,
        "channel": 9
      },
      {
        "type": "note_off",
        "note": 36,
        "time": 13535,
        "channel": 9
      },
      {
        "type": "note_on",
        "note": 44,
        "velocity": 80,
        "time": 13684,
        "channel": 9
      },
      {
        "type": "note_off",
        "note": 44,
        "time": 13769,
        "channel": 9
      },
      {
        "type": "note_on",
        "note": 44,
        "velocity": 72,
        "time": 13916,
        "channel": 9
      },
      {
        "type": "note_on",
        "note": 40,
        "velocity": 127,
        "time": 13945,
        "channel": 9
      },
      {
        "type": "note_off",
        "note": 44,
        "time": 14001,
        "channel": 9
      },
      {
        "type": "note_off",
        "note": 40,
        "time": 14029,
        "channel": 9
      },
      {
        "type": "note_on",
        "note": 44,
        "velocity": 45,
        "time": 14145,
        "channel": 9
      },
      {
        "type": "note_off",
        "note": 44,
        "time": 14230,
        "channel": 9
      },
      {
        "type": "note_on",
        "note": 44,
        "velocity": 82,
        "time": 14399,
        "channel": 9
      },
      {
        "type": "note_off",
        "note": 44,
        "time": 14483,
        "channel": 9
      },
      {
        "type": "note_on",
        "note": 36,
        "velocity": 47,
        "time": 14559,
        "channel": 9
      },
      {
        "type": "note_on",
        "note": 44,
        "velocity": 65,
        "time": 14627,
        "channel": 9
      },
      {
        "type": "note_on",
        "note": 36,
        "velocity": 46,
        "time": 14630,
        "channel": 9
      },
      {
        "type": "note_off",
        "note": 36,
        "time": 14630,
        "channel": 9
      },
      {
        "type": "note_off",
        "note": 36,
        "time": 14644,
        "channel": 9
      },
      {
        "type": "note_off",
        "note": 44,
        "time": 14711,
        "channel": 9
      },
      {
        "type": "note_on",
        "note": 44,
        "velocity": 82,
        "time": 14878,
        "channel": 9
      },
      {
        "type": "note_on",
        "note": 40,
        "velocity": 126,
        "time": 14888,
        "channel": 9
      },
      {
        "type": "note_off",
        "note": 44,
        "time": 14963,
        "channel": 9
      },
      {
        "type": "note_off",
        "note": 40,
        "time": 14973,
        "channel": 9
      },
      {
        "type": "note_on",
        "note": 44,
        "velocity": 87,
        "time": 15116,
        "channel": 9
      },
      {
        "type": "note_off",
        "note": 44,
        "time": 15200,
        "channel": 9
      },
      {
        "type": "note_on",
        "note": 36,
        "velocity": 63,
        "time": 15363,
        "channel": 9
      },
      {
        "type": "note_on",
        "note": 44,
        "velocity": 65,
        "time": 15363,
        "channel": 9
      },
      {
        "type": "note_off",
        "note": 36,
        "time": 15447,
        "channel": 9
      },
      {
        "type": "note_off",
        "note": 44,
        "time": 15447,
        "channel": 9
      },
      {
        "type": "note_on",
        "note": 44,
        "velocity": 75,
        "time": 15610,
        "channel": 9
      },
      {
        "type": "note_off",
        "note": 44,
        "time": 15695,
        "channel": 9
      },
      {
        "type": "note_on",
        "note": 44,
        "velocity": 55,
        "time": 15842,
        "channel": 9
      },
      {
        "type": "note_on",
        "note": 40,
        "velocity": 118,
        "time": 15855,
        "channel": 9
      },
      {
        "type": "note_off",
        "note": 44,
        "time": 15926,
        "channel": 9
      },
      {
        "type": "note_off",
        "note": 40,
        "time": 15939,
        "channel": 9
      },
      {
        "type": "note_on",
        "note": 44,
        "velocity": 72,
        "time": 16101,
        "channel": 9
      },
      {
        "type": "note_off",
        "note": 44,
        "time": 16186,
        "channel": 9
      },
      {
        "type": "note_on",
        "note": 44,
        "velocity": 72,
        "time": 16325,
        "channel": 9
      },
      {
        "type": "note_off",
        "note": 44,
        "time": 16410,
        "channel": 9
      },
      {
        "type": "note_on",
        "note": 36,
        "velocity": 50,
        "time": 16497,
        "channel": 9
      },
      {
        "type": "note_on",
        "note": 44,
        "velocity": 72,
        "time": 16567,
        "channel": 9
      },
      {
        "type": "note_on",
        "note": 36,
        "velocity": 43,
        "time": 16572,
        "channel": 9
      },
      {
        "type": "note_off",
        "note": 36,
        "time": 16572,
        "channel": 9
      },
      {
        "type": "note_off",
        "note": 36,
        "time": 16581,
        "channel": 9
      },
      {
        "type": "note_off",
        "note": 44,
        "time": 16652,
        "channel": 9
      },
      {
        "type": "note_on",
        "note": 44,
        "velocity": 82,
        "time": 16812,
        "channel": 9
      },
      {
        "type": "note_on",
        "note": 40,
        "velocity": 116,
        "time": 16824,
        "channel": 9
      },
      {
        "type": "note_off",
        "note": 44,
        "time": 16896,
        "channel": 9
      },
      {
        "type": "note_off",
        "note": 40,
        "time": 16909,
        "channel": 9
      },
      {
        "type": "note_on",
        "note": 44,
        "velocity": 80,
        "time": 17054,
        "channel": 9
      },
      {
        "type": "note_off",
        "note": 44,
        "time": 17139,
        "channel": 9
      },
      {
        "type": "note_on",
        "note": 36,
        "velocity": 72,
        "time": 17288,
        "channel": 9
      },
      {
        "type": "note_on",
        "note": 44,
        "velocity": 62,
        "time": 17292,
        "channel": 9
      },
      {
        "type": "note_off",
        "note": 36,
        "time": 17373,
        "channel": 9
      },
      {
        "type": "note_off",
        "note": 44,
        "time": 17377,
        "channel": 9
      },
      {
        "type": "note_on",
        "note": 44,
        "velocity": 82,
        "time": 17534,
        "channel": 9
      },
      {
        "type": "note_off",
        "note": 44,
        "time": 17619,
        "channel": 9
      },
      {
        "type": "note_on",
        "note": 44,
        "velocity": 67,
        "time": 17767,
        "channel": 9
      },
      {
        "type": "note_on",
        "note": 40,
        "velocity": 111,
        "time": 17777,
        "channel": 9
      },
      {
        "type": "note_off",
        "note": 44,
        "time": 17851,
        "channel": 9
      },
      {
        "type": "note_off",
        "note": 40,
        "time": 17861,
        "channel": 9
      },
      {
        "type": "note_on",
        "note": 44,
        "velocity": 72,
        "time": 18017,
        "channel": 9
      },
      {
        "type": "note_off",
        "note": 44,
        "time": 18102,
        "channel": 9
      },
      {
        "type": "note_on",
        "note": 44,
        "velocity": 75,
        "time": 18257,
        "channel": 9
      },
      {
        "type": "note_off",
        "note": 44,
        "time": 18341,
        "channel": 9
      },
      {
        "type": "note_on",
        "note": 36,
        "velocity": 49,
        "time": 18389,
        "channel": 9
      },
      {
        "type": "note_off",
        "note": 36,
        "time": 18474,
        "channel": 9
      },
      {
        "type": "note_on",
        "note": 36,
        "velocity": 55,
        "time": 18485,
        "channel": 9
      },
      {
        "type": "note_on",
        "note": 44,
        "velocity": 75,
        "time": 18512,
        "channel": 9
      },
      {
        "type": "note_off",
        "note": 36,
        "time": 18569,
        "channel": 9
      },
      {
        "type": "note_off",
        "note": 44,
        "time": 18596,
        "channel": 9
      },
      {
        "type": "note_on",
        "note": 40,
        "velocity": 102,
        "time": 18708,
        "channel": 9
      },
      {
        "type": "note_on",
        "note": 44,
        "velocity": 65,
        "time": 18739,
        "channel": 9
      },
      {
        "type": "note_off",
        "note": 40,
        "time": 18793,
        "channel": 9
      },
      {
        "type": "note_off",
        "note": 44,
        "time": 18823,
        "channel": 9
      },
      {
        "type": "note_on",
        "note": 44,
        "velocity": 72,
        "time": 18968,
        "channel": 9
      },
      {
        "type": "note_off",
        "note": 44,
        "time": 19052,
        "channel": 9
      },
      {
        "type": "note_on",
        "note": 44,
        "velocity": 75,
        "time": 19196,
        "channel": 9
      },
      {
        "type": "note_on",
        "note": 36,
        "velocity": 62,
        "time": 19200,
        "channel": 9
      },
      {
        "type": "note_off",
        "note": 44,
        "time": 19280,
        "channel": 9
      },
      {
        "type": "note_off",
        "note": 36,
        "time": 19284,
        "channel": 9
      },
      {
        "type": "note_on",
        "note": 44,
        "velocity": 60,
        "time": 19424,
        "channel": 9
      },
      {
        "type": "note_off",
        "note": 44,
        "time": 19509,
        "channel": 9
      },
      {
        "type": "note_on",
        "note": 44,
        "velocity": 75,
        "time": 19680,
        "channel": 9
      },
      {
        "type": "note_on",
        "note": 40,
        "velocity": 127,
        "time": 19688,
        "channel": 9
      },
      {
        "type": "note_off",
        "note": 44,
        "time": 19765,
        "channel": 9
      },
      {
        "type": "note_off",
        "note": 40,
        "time": 19772,
        "channel": 9
      },
      {
        "type": "note_on",
        "note": 44,
        "velocity": 65,
        "time": 19914,
        "channel": 9
      },
      {
        "type": "note_off",
        "note": 44,
        "time": 19998,
        "channel": 9
      },
      {
        "type": "note_on",
        "note": 44,
        "velocity": 75,
        "time": 20163,
        "channel": 9
      },
      {
        "type": "note_off",
        "note": 44,
        "time": 20248,
        "channel": 9
      },
      {
        "type": "note_on",
        "note": 36,
        "velocity": 47,
        "time": 20300,
        "channel": 9
      },
      {
        "type": "note_on",
        "note": 44,
        "velocity": 67,
        "time": 20384,
        "channel": 9
      },
      {
        "type": "note_off",
        "note": 36,
        "time": 20384,
        "channel": 9
      },
      {
        "type": "note_on",
        "note": 36,
        "velocity": 48,
        "time": 20400,
        "channel": 9
      },
      {
        "type": "note_off",
        "note": 44,
        "time": 20469,
        "channel": 9
      },
      {
        "type": "note_off",
        "note": 36,
        "time": 20485,
        "channel": 9
      },
      {
        "type": "note_on",
        "note": 44,
        "velocity": 77,
        "time": 20630,
        "channel": 9
      },
      {
        "type": "note_on",
        "note": 40,
        "velocity": 125,
        "time": 20632,
        "channel": 9
      },
      {
        "type": "note_off",
        "note": 44,
        "time": 20715,
        "channel": 9
      },
      {
        "type": "note_off",
        "note": 40,
        "time": 20717,
        "channel": 9
      },
      {
        "type": "note_on",
        "note": 44,
        "velocity": 55,
        "time": 20859,
        "channel": 9
      },
      {
        "type": "note_off",
        "note": 44,
        "time": 20944,
        "channel": 9
      },
      {
        "type": "note_on",
        "note": 44,
        "velocity": 70,
        "time": 21105,
        "channel": 9
      },
      {
        "type": "note_on",
        "note": 36,
        "velocity": 57,
        "time": 21123,
        "channel": 9
      },
      {
        "type": "note_off",
        "note": 44,
        "time": 21190,
        "channel": 9
      },
      {
        "type": "note_off",
        "note": 36,
        "time": 21208,
        "channel": 9
      },
      {
        "type": "note_on",
        "note": 44,
        "velocity": 72,
        "time": 21341,
        "channel": 9
      },
      {
        "type": "note_off",
        "note": 44,
        "time": 21426,
        "channel": 9
      },
      {
        "type": "note_on",
        "note": 44,
        "velocity": 65,
        "time": 21594,
        "channel": 9
      },
      {
        "type": "note_on",
        "note": 40,
        "velocity": 119,
        "time": 21611,
        "channel": 9
      },
      {
        "type": "note_off",
        "note": 44,
        "time": 21679,
        "channel": 9
      },
      {
        "type": "note_off",
        "note": 40,
        "time": 21695,
        "channel": 9
      },
      {
        "type": "note_on",
        "note": 44,
        "velocity": 57,
        "time": 21830,
        "channel": 9
      },
      {
        "type": "note_off",
        "note": 44,
        "time": 21915,
        "channel": 9
      },
      {
        "type": "note_on",
        "note": 44,
        "velocity": 75,
        "time": 22086,
        "channel": 9
      },
      {
        "type": "note_off",
        "note": 44,
        "time": 22171,
        "channel": 9
      },
      {
        "type": "note_on",
        "note": 36,
        "velocity": 48,
        "time": 22214,
        "channel": 9
      },
      {
        "type": "note_off",
        "note": 36,
        "time": 22299,
        "channel": 9
      },
      {
        "type": "note_on",
        "note": 36,
        "velocity": 41,
        "time": 22316,
        "channel": 9
      },
      {
        "type": "note_on",
        "note": 44,
        "velocity": 77,
        "time": 22336,
        "channel": 9
      },
      {
        "type": "note_off",
        "note": 36,
        "time": 22401,
        "channel": 9
      },
      {
        "type": "note_off",
        "note": 44,
        "time": 22421,
        "channel": 9
      },
      {
        "type": "note_on",
        "note": 40,
        "velocity": 117,
        "time": 22569,
        "channel": 9
      },
      {
        "type": "note_on",
        "note": 44,
        "velocity": 72,
        "time": 22573,
        "channel": 9
      },
      {
        "type": "note_off",
        "note": 40,
        "time": 22654,
        "channel": 9
      },
      {
        "type": "note_off",
        "note": 44,
        "time": 22658,
        "channel": 9
      },
      {
        "type": "note_on",
        "note": 44,
        "velocity": 65,
        "time": 22816,
        "channel": 9
      },
      {
        "type": "note_off",
        "note": 44,
        "time": 22900,
        "channel": 9
      },
      {
        "type": "note_on",
        "note": 44,
        "velocity": 52,
        "time": 23043,
        "channel": 9
      },
      {
        "type": "note_on",
        "note": 36,
        "velocity": 57,
        "time": 23055,
        "channel": 9
      },
      {
        "type": "note_off",
        "note": 44,
        "time": 23127,
        "channel": 9
      },
      {
        "type": "note_off",
        "note": 36,
        "time": 23139,
        "channel": 9
      },
      {
        "type": "note_on",
        "note": 44,
        "velocity": 60,
        "time": 23278,
        "channel": 9
      },
      {
        "type": "note_off",
        "note": 44,
        "time": 23363,
        "channel": 9
      },
      {
        "type": "note_on",
        "note": 44,
        "velocity": 72,
        "time": 23525,
        "channel": 9
      },
      {
        "type": "note_on",
        "note": 40,
        "velocity": 125,
        "time": 23531,
        "channel": 9
      },
      {
        "type": "note_off",
        "note": 44,
        "time": 23610,
        "channel": 9
      },
      {
        "type": "note_off",
        "note": 40,
        "time": 23615,
        "channel": 9
      },
      {
        "type": "note_on",
        "note": 44,
        "velocity": 47,
        "time": 23754,
        "channel": 9
      },
      {
        "type": "note_off",
        "note": 44,
        "time": 23839,
        "channel": 9
      },
      {
        "type": "note_on",
        "note": 44,
        "velocity": 75,
        "time": 24013,
        "channel": 9
      },
      {
        "type": "note_off",
        "note": 44,
        "time": 24098,
        "channel": 9
      },
      {
        "type": "note_on",
        "note": 36,
        "velocity": 45,
        "time": 24139,
        "channel": 9
      },
      {
        "type": "note_off",
        "note": 36,
        "time": 24223,
        "channel": 9
      },
      {
        "type": "note_on",
        "note": 36,
        "velocity": 54,
        "time": 24247,
        "channel": 9
      },
      {
        "type": "note_on",
        "note": 44,
        "velocity": 75,
        "time": 24248,
        "channel": 9
      },
      {
        "type": "note_off",
        "note": 36,
        "time": 24332,
        "channel": 9
      },
      {
        "type": "note_off",
        "note": 44,
        "time": 24332,
        "channel": 9
      },
      {
        "type": "note_on",
        "note": 40,
        "velocity": 127,
        "time": 24474,
        "channel": 9
      },
      {
        "type": "note_on",
        "note": 44,
        "velocity": 75,
        "time": 24478,
        "channel": 9
      },
      {
        "type": "note_off",
        "note": 40,
        "time": 24559,
        "channel": 9
      },
      {
        "type": "note_off",
        "note": 44,
        "time": 24563,
        "channel": 9
      },
      {
        "type": "note_on",
        "note": 44,
        "velocity": 67,
        "time": 24714,
        "channel": 9
      },
      {
        "type": "note_off",
        "note": 44,
        "time": 24799,
        "channel": 9
      },
      {
        "type": "note_on",
        "note": 44,
        "velocity": 75,
        "time": 24959,
        "channel": 9
      },
      {
        "type": "note_on",
        "note": 36,
        "velocity": 57,
        "time": 24968,
        "channel": 9
      },
      {
        "type": "note_off",
        "note": 44,
        "time": 25044,
        "channel": 9
      },
      {
        "type": "note_off",
        "note": 36,
        "time": 25053,
        "channel": 9
      },
      {
        "type": "note_on",
        "note": 44,
        "velocity": 50,
        "time": 25175,
        "channel": 9
      },
      {
        "type": "note_off",
        "note": 44,
        "time": 25259,
        "channel": 9
      },
      {
        "type": "note_on",
        "note": 44,
        "velocity": 67,
        "time": 25441,
        "channel": 9
      },
      {
        "type": "note_on",
        "note": 40,
        "velocity": 106,
        "time": 25455,
        "channel": 9
      },
      {
        "type": "note_off",
        "note": 44,
        "time": 25526,
        "channel": 9
      },
      {
        "type": "note_off",
        "note": 40,
        "time": 25540,
        "channel": 9
      },
      {
        "type": "note_on",
        "note": 44,
        "velocity": 72,
        "time": 25686,
        "channel": 9
      },
      {
        "type": "note_off",
        "note": 44,
        "time": 25771,
        "channel": 9
      },
      {
        "type": "note_on",
        "note": 44,
        "velocity": 70,
        "time": 25927,
        "channel": 9
      },
      {
        "type": "note_off",
        "note": 44,
        "time": 26012,
        "channel": 9
      },
      {
        "type": "note_on",
        "note": 36,
        "velocity": 36,
        "time": 26079,
        "channel": 9
      },
      {
        "type": "note_off",
        "note": 36,
        "time": 26163,
        "channel": 9
      },
      {
        "type": "note_on",
        "note": 44,
        "velocity": 67,
        "time": 26172,
        "channel": 9
      },
      {
        "type": "note_on",
        "note": 36,
        "velocity": 55,
        "time": 26181,
        "channel": 9
      },
      {
        "type": "note_off",
        "note": 44,
        "time": 26257,
        "channel": 9
      },
      {
        "type": "note_off",
        "note": 36,
        "time": 26266,
        "channel": 9
      },
      {
        "type": "note_on",
        "note": 40,
        "velocity": 125,
        "time": 26410,
        "channel": 9
      },
      {
        "type": "note_on",
        "note": 44,
        "velocity": 70,
        "time": 26411,
        "channel": 9
      },
      {
        "type": "note_off",
        "note": 40,
        "time": 26495,
        "channel": 9
      },
      {
        "type": "note_off",
        "note": 44,
        "time": 26495,
        "channel": 9
      },
      {
        "type": "note_on",
        "note": 44,
        "velocity": 67,
        "time": 26645,
        "channel": 9
      },
      {
        "type": "note_off",
        "note": 44,
        "time": 26729,
        "channel": 9
      },
      {
        "type": "note_on",
        "note": 44,
        "velocity": 75,
        "time": 26878,
        "channel": 9
      },
      {
        "type": "note_on",
        "note": 36,
        "velocity": 56,
        "time": 26896,
        "channel": 9
      },
      {
        "type": "note_off",
        "note": 44,
        "time": 26964,
        "channel": 9
      },
      {
        "type": "note_off",
        "note": 36,
        "time": 26981,
        "channel": 9
      },
      {
        "type": "note_on",
        "note": 44,
        "velocity": 85,
        "time": 27114,
        "channel": 9
      },
      {
        "type": "note_off",
        "note": 44,
        "time": 27198,
        "channel": 9
      },
      {
        "type": "note_on",
        "note": 44,
        "velocity": 70,
        "time": 27357,
        "channel": 9
      },
      {
        "type": "note_on",
        "note": 40,
        "velocity": 127,
        "time": 27370,
        "channel": 9
      },
      {
        "type": "note_off",
        "note": 44,
        "time": 27441,
        "channel": 9
      },
      {
        "type": "note_off",
        "note": 40,
        "time": 27454,
        "channel": 9
      },
      {
        "type": "note_on",
        "note": 44,
        "velocity": 67,
        "time": 27587,
        "channel": 9
      },
      {
        "type": "note_off",
        "note": 44,
        "time": 27672,
        "channel": 9
      },
      {
        "type": "note_on",
        "note": 44,
        "velocity": 75,
        "time": 27833,
        "channel": 9
      },
      {
        "type": "note_off",
        "note": 44,
        "time": 27918,
        "channel": 9
      },
      {
        "type": "note_on",
        "note": 36,
        "velocity": 46,
        "time": 27983,
        "channel": 9
      },
      {
        "type": "note_on",
        "note": 44,
        "velocity": 75,
        "time": 28063,
        "channel": 9
      },
      {
        "type": "note_off",
        "note": 36,
        "time": 28067,
        "channel": 9
      },
      {
        "type": "note_on",
        "note": 36,
        "velocity": 41,
        "time": 28071,
        "channel": 9
      },
      {
        "type": "note_off",
        "note": 44,
        "time": 28147,
        "channel": 9
      },
      {
        "type": "note_off",
        "note": 36,
        "time": 28155,
        "channel": 9
      },
      {
        "type": "note_on",
        "note": 44,
        "velocity": 82,
        "time": 28307,
        "channel": 9
      },
      {
        "type": "note_on",
        "note": 40,
        "velocity": 122,
        "time": 28321,
        "channel": 9
      },
      {
        "type": "note_off",
        "note": 44,
        "time": 28392,
        "channel": 9
      },
      {
        "type": "note_off",
        "note": 40,
        "time": 28406,
        "channel": 9
      },
      {
        "type": "note_on",
        "note": 44,
        "velocity": 62,
        "time": 28532,
        "channel": 9
      },
      {
        "type": "note_off",
        "note": 44,
        "time": 28617,
        "channel": 9
      },
      {
        "type": "note_on",
        "note": 44,
        "velocity": 70,
        "time": 28777,
        "channel": 9
      },
      {
        "type": "note_on",
        "note": 36,
        "velocity": 56,
        "time": 28781,
        "channel": 9
      },
      {
        "type": "note_off",
        "note": 44,
        "time": 28862,
        "channel": 9
      },
      {
        "type": "note_off",
        "note": 36,
        "time": 28866,
        "channel": 9
      },
      {
        "type": "note_on",
        "note": 44,
        "velocity": 75,
        "time": 29013,
        "channel": 9
      },
      {
        "type": "note_off",
        "note": 44,
        "time": 29097,
        "channel": 9
      },
      {
        "type": "note_on",
        "note": 44,
        "velocity": 67,
        "time": 29256,
        "channel": 9
      },
      {
        "type": "note_on",
        "note": 40,
        "velocity": 127,
        "time": 29275,
        "channel": 9
      },
      {
        "type": "note_off",
        "note": 44,
        "time": 29341,
        "channel": 9
      },
      {
        "type": "note_off",
        "note": 40,
        "time": 29360,
        "channel": 9
      },
      {
        "type": "note_on",
        "note": 44,
        "velocity": 72,
        "time": 29515,
        "channel": 9
      },
      {
        "type": "note_off",
        "note": 44,
        "time": 29600,
        "channel": 9
      },
      {
        "type": "note_on",
        "note": 44,
        "velocity": 67,
        "time": 29747,
        "channel": 9
      },
      {
        "type": "note_off",
        "note": 44,
        "time": 29831,
        "channel": 9
      },
      {
        "type": "note_on",
        "note": 36,
        "velocity": 38,
        "time": 29857,
        "channel": 9
      },
      {
        "type": "note_off",
        "note": 36,
        "time": 29942,
        "channel": 9
      },
      {
        "type": "note_on",
        "note": 44,
        "velocity": 67,
        "time": 29979,
        "channel": 9
      },
      {
        "type": "note_on",
        "note": 36,
        "velocity": 62,
        "time": 29988,
        "channel": 9
      },
      {
        "type": "note_off",
        "note": 44,
        "time": 30063,
        "channel": 9
      },
      {
        "type": "note_off",
        "note": 36,
        "time": 30073,
        "channel": 9
      },
      {
        "type": "note_on",
        "note": 44,
        "velocity": 72,
        "time": 30217,
        "channel": 9
      },
      {
        "type": "note_on",
        "note": 40,
        "velocity": 126,
        "time": 30221,
        "channel": 9
      },
      {
        "type": "note_off",
        "note": 44,
        "time": 30302,
        "channel": 9
      },
      {
        "type": "note_off",
        "note": 40,
        "time": 30305,
        "channel": 9
      },
      {
        "type": "note_on",
        "note": 44,
        "velocity": 57,
        "time": 30454,
        "channel": 9
      },
      {
        "type": "note_off",
        "note": 44,
        "time": 30539,
        "channel": 9
      }
    ]
  },
  {
    "file": "data\\groove\\drummer1\\session1\\100_neworleans-secondline_94_beat_4-4.mid",
    "num_events": 2795,
    "duration": 101795,
    "events": [
      {
        "type": "set_tempo",
        "tempo": 638298,
        "time": 0
      },
      {
        "type": "note_on",
        "note": 38,
        "velocity": 92,
        "time": 843,
        "channel": 9
      },
      {
        "type": "note_off",
        "note": 38,
        "time": 918,
        "channel": 9
      },
      {
        "type": "note_on",
        "note": 44,
        "velocity": 67,
        "time": 932,
        "channel": 9
      },
      {
        "type": "note_off",
        "note": 44,
        "time": 1008,
        "channel": 9
      },
      {
        "type": "note_on",
        "note": 38,
        "velocity": 35,
        "time": 1066,
        "channel": 9
      },
      {
        "type": "note_off",
        "note": 38,
        "time": 1142,
        "channel": 9
      },
      {
        "type": "note_on",
        "note": 44,
        "velocity": 17,
        "time": 1152,
        "channel": 9
      },
      {
        "type": "note_on",
        "note": 38,
        "velocity": 45,
        "time": 1171,
        "channel": 9
      },
      {
        "type": "note_off",
        "note": 44,
        "time": 1227,
        "channel": 9
      },
      {
        "type": "note_off",
        "note": 38,
        "time": 1248,
        "channel": 9
      },
      {
        "type": "note_on",
        "note": 36,
        "velocity": 41,
        "time": 1300,
        "channel": 9
      },
      {
        "type": "note_off",
        "note": 36,
        "time": 1376,
        "channel": 9
      },
      {
        "type": "note_on",
        "note": 43,
        "velocity": 127,
        "time": 1422,
        "channel": 9
      },
      {
        "type": "note_off",
        "note": 43,
        "time": 1497,
        "channel": 9
      },
      {
        "type": "note_on",
        "note": 38,
        "velocity": 29,
        "time": 1603,
        "channel": 9
      },
      {
        "type": "note_on",
        "note": 44,
        "velocity": 80,
        "time": 1634,
        "channel": 9
      },
      {
        "type": "note_off",
        "note": 38,
        "time": 1637,
        "channel": 9
      },
      {
        "type": "note_on",
        "note": 38,
        "velocity": 26,
        "time": 1637,
        "channel": 9
      },
      {
        "type": "note_off",
        "note": 38,
        "time": 1665,
        "channel": 9
      },
      {
        "type": "note_on",
        "note": 38,
        "velocity": 20,
        "time": 1665,
        "channel": 9
      },
      {
        "type": "note_off",
        "note": 38,
        "time": 1679,
        "channel": 9
      },
      {
        "type": "note_on",
        "note": 38,
        "velocity": 26,
        "time": 1710,
        "channel": 9
      },
      {
        "type": "note_off",
        "note": 44,
        "time": 1710,
        "channel": 9
      },
      {
        "type": "note_off",
        "note": 38,
        "time": 1713,
        "channel": 9
      },
      {
        "type": "note_on",
        "note": 38,
        "velocity": 25,
        "time": 1755,
        "channel": 9
      },
      {
        "type": "note_off",
        "note": 38,
        "time": 1786,
        "channel": 9
      },
      {
        "type": "note_on",
        "note": 38,
        "velocity": 34,
        "time": 1806,
        "channel": 9
      },
      {
        "type": "note_off",
        "note": 38,
        "time": 1831,
        "channel": 9
      },
      {
        "type": "note_on",
        "note": 36,
        "velocity": 56,
        "time": 1889,
        "channel": 9
      },
      {
        "type": "note_off",
        "note": 36,
        "time": 1964,
        "channel": 9
      },
      {
        "type": "note_on",
        "note": 38,
        "velocity": 27,
        "time": 2018,
        "channel": 9
      },
      {
        "type": "note_off",
        "note": 38,
        "time": 2094,
        "channel": 9
      },
      {
        "type": "note_on",
        "note": 44,
        "velocity": 85,
        "time": 2117,
        "channel": 9
      },
      {
        "type": "note_on",
        "note": 38,
        "velocity": 61,
        "time": 2133,
        "channel": 9
      },
      {
        "type": "note_off",
        "note": 44,
        "time": 2193,
        "channel": 9
      },
      {
        "type": "note_off",
        "note": 38,
        "time": 2209,
        "channel": 9
      },
      {
        "type": "note_on",
        "note": 38,
        "velocity": 19,
        "time": 2265,
        "channel": 9
      },
      {
        "type": "note_on",
        "note": 36,
        "velocity": 46,
        "time": 2268,
        "channel": 9
      },
      {
        "type": "note_off",
        "note": 38,
        "time": 2340,
        "channel": 9
      },
      {
        "type": "note_off",
        "note": 36,
        "time": 2343,
        "channel": 9
      },
      {
        "type": "note_on",
        "note": 38,
        "velocity": 18,
        "time": 2366,
        "channel": 9
      },
      {
        "type": "note_off",
        "note": 38,
        "time": 2442,
        "channel": 9
      },
      {
        "type": "note_on",
        "note": 38,
        "velocity": 88,
        "time": 2499,
        "channel": 9
      },
      {
        "type": "note_off",
        "note": 38,
        "time": 2575,
        "channel": 9
      },
      {
        "type": "note_on",
        "note": 38,
        "velocity": 16,
        "time": 2613,
        "channel": 9
      },
      {
        "type": "note_on",
        "note": 36,
        "velocity": 34,
        "time": 2614,
        "channel": 9
      },
      {
        "type": "note_on",
        "note": 44,
        "velocity": 77,
        "time": 2622,
        "channel": 9
      },
      {
        "type": "note_off",
        "note": 38,
        "time": 2688,
        "channel": 9
      },
      {
        "type": "note_off",
        "note": 36,
        "time": 2690,
        "channel": 9
      },
      {
        "type": "note_off",
        "note": 44,
        "time": 2698,
        "channel": 9
      },
      {
        "type": "note_on",
        "note": 38,
        "velocity": 17,
        "time": 2746,
        "channel": 9
      },
      {
        "type": "note_off",
        "note": 38,
        "time": 2822,
        "channel": 9
      },
      {
        "type": "note_on",
        "note": 38,
        "velocity": 83,
        "time": 2849,
        "channel": 9
      },
      {
        "type": "note_off",
        "note": 38,
        "time": 2925,
        "channel": 9
      },
      {
        "type": "note_on",
        "note": 36,
        "velocity": 41,
        "time": 2988,
        "channel": 9
      },
      {
        "type": "note_on",
        "note": 38,
        "velocity": 35,
        "time": 2991,
        "channel": 9
      },
      {
        "type": "note_off",
        "note": 36,
        "time": 3064,
        "channel": 9
      },
      {
        "type": "note_off",
        "note": 38,
        "time": 3068,
        "channel": 9
      },
      {
        "type": "note_on",
        "note": 44,
        "velocity": 97,
        "time": 3100,
        "channel": 9
      },
      {
        "type": "note_on",
        "note": 38,
        "velocity": 28,
        "time": 3105,
        "channel": 9
      },
      {
        "type": "note_off",
        "note": 44,
        "time": 3176,
        "channel": 9
      },
      {
        "type": "note_off",
        "note": 38,
        "time": 3181,
        "channel": 9
      },
      {
        "type": "note_on",
        "note": 38,
        "velocity": 80,
        "time": 3236,
        "channel": 9
      },
      {
        "type": "note_off",
        "note": 38,
        "time": 3311,
        "channel": 9
      },
      {
        "type": "note_on",
        "note": 36,
        "velocity": 35,
        "time": 3324,
        "channel": 9
      },
      {
        "type": "note_on",
        "note": 38,
        "velocity": 25,
        "time": 3338,
        "channel": 9
      },
      {
        "type": "note_off",
        "note": 36,
        "time": 3399,
        "channel": 9
      },
      {
        "type": "note_off",
        "note": 38,
        "time": 3414,
        "channel": 9
      },
      {
        "type": "note_on",
        "note": 38,
        "velocity": 23,
        "time": 3469,
        "channel": 9
      },
      {
        "type": "note_off",
        "note": 38,
        "time": 3500,
        "channel": 9
      },
      {
        "type": "note_on",
        "note": 38,
        "velocity": 18,
        "time": 3500,
        "channel": 9
      },
      {
        "type": "note_off",
        "note": 38,
        "time": 3530,
        "channel": 9
      },
      {
        "type": "note_on",
        "note": 38,
        "velocity": 23,
        "time": 3530,
        "channel": 9
      },
      {
        "type": "note_off",
        "note": 38,
        "time": 3544,
        "channel": 9
      },
      {
        "type": "note_on",
        "note": 38,
        "velocity": 39,
        "time": 3573,
        "channel": 9
      },
      {
        "type": "note_off",
        "note": 38,
        "time": 3577,
        "channel": 9
      },
      {
        "type": "note_on",
        "note": 36,
        "velocity": 46,
        "time": 3578,
        "channel": 9
      },
      {
        "type": "note_on",
        "note": 44,
        "velocity": 32,
        "time": 3581,
        "channel": 9
      },
      {
        "type": "note_on",
        "note": 38,
        "velocity": 49,
        "time": 3594,
        "channel": 9
      },
      {
        "type": "note_off",
        "note": 38,
        "time": 3607,
        "channel": 9
      },
      {
        "type": "note_on",
        "note": 38,
        "velocity": 46,
        "time": 3609,
        "channel": 9
      },
      {
        "type": "note_off",
        "note": 38,
        "time": 3622,
        "channel": 9
      },
      {
        "type": "note_on",
        "note": 38,
        "velocity": 40,
        "time": 3622,
        "channel": 9
      },
      {
        "type": "note_off",
        "note": 38,
        "time": 3650,
        "channel": 9
      },
      {
        "type": "note_off",
        "note": 36,
        "time": 3654,
        "channel": 9
      },
      {
        "type": "note_off",
        "note": 44,
        "time": 3657,
        "channel": 9
      },
      {
        "type": "note_on",
        "note": 38,
        "velocity": 27,
        "time": 3683,
        "channel": 9
      },
      {
        "type": "note_off",
        "note": 38,
        "time": 3685,
        "channel": 9
      },
      {
        "type": "note_on",
        "note": 38,
        "velocity": 27,
        "time": 3720,
        "channel": 9
      },
      {
        "type": "note_off",
        "note": 38,
        "time": 3740,
        "channel": 9
      },
      {
        "type": "note_on",
        "note": 38,
        "velocity": 21,
        "time": 3740,
        "channel": 9
      },
      {
        "type": "note_off",
        "note": 38,
        "time": 3759,
        "channel": 9
      },
      {
        "type": "note_on",
        "note": 36,
        "velocity": 48,
        "time": 3808,
        "channel": 9
      },
      {
        "type": "note_on",
        "note": 38,
        "velocity": 45,
        "time": 3822,
        "channel": 9
      },
      {
        "type": "note_off",
        "note": 36,
        "time": 3884,
        "channel": 9
      },
      {
        "type": "note_off",
        "note": 38,
        "time": 3898,
        "channel": 9
      },
      {
        "type": "note_on",
        "note": 38,
        "velocity": 24,
        "time": 3959,
        "channel": 9
      },
      {
        "type": "note_off",
        "note": 38,
        "time": 4035,
        "channel": 9
      },
      {
        "type": "note_on",
        "note": 44,
        "velocity": 92,
        "time": 4051,
        "channel": 9
      },
      {
        "type": "note_on",
        "note": 38,
        "velocity": 63,
        "time": 4077,
        "channel": 9
      },
      {
        "type": "note_off",
        "note": 44,
        "time": 4127,
        "channel": 9
      },
      {
        "type": "note_off",
        "note": 38,
        "time": 4153,
        "channel": 9
      },
      {
        "type": "note_on",
        "note": 38,
        "velocity": 21,
        "time": 4207,
        "channel": 9
      },
      {
        "type": "note_on",
        "note": 36,
        "velocity": 41,
        "time": 4209,
        "channel": 9
      },
      {
        "type": "note_off",
        "note": 38,
        "time": 4283,
        "channel": 9
      },
      {
        "type": "note_off",
        "note": 36,
        "time": 4285,
        "channel": 9
      },
      {
        "type": "note_on",
        "note": 38,
        "velocity": 26,
        "time": 4318,
        "channel": 9
      },
      {
        "type": "note_off",
        "note": 38,
        "time": 4394,
        "channel": 9
      },
      {
        "type": "note_on",
        "note": 38,
        "velocity": 71,
        "time": 4433,
        "channel": 9
      },
      {
        "type": "note_off",
        "note": 38,
        "time": 4509,
        "channel": 9
      },
      {
        "type": "note_on",
        "note": 44,
        "velocity": 95,
        "time": 4544,
        "channel": 9
      },
      {
        "type": "note_on",
        "note": 36,
        "velocity": 36,
        "time": 4546,
        "channel": 9
      },
      {
        "type": "note_on",
        "note": 38,
        "velocity": 24,
        "time": 4546,
        "channel": 9
      },
      {
        "type": "note_off",
        "note": 44,
        "time": 4620,
        "channel": 9
      },
      {
        "type": "note_off",
        "note": 36,
        "time": 4621,
        "channel": 9
      },
      {
        "type": "note_off",
        "note": 38,
        "time": 4621,
        "channel": 9
      },
      {
        "type": "note_on",
        "note": 38,
        "velocity": 17,
        "time": 4684,
        "channel": 9
      },
      {
        "type": "note_off",
        "note": 38,
        "time": 4759,
        "channel": 9
      },
      {
        "type": "note_on",
        "note": 38,
        "velocity": 72,
        "time": 4777,
        "channel": 9
      },
      {
        "type": "note_off",
        "note": 38,
        "time": 4853,
        "channel": 9
      },
      {
        "type": "note_on",
        "note": 36,
        "velocity": 34,
        "time": 4903,
        "channel": 9
      },
      {
        "type": "note_on",
        "note": 38,
        "velocity": 34,
        "time": 4905,
        "channel": 9
      },
      {
        "type": "note_off",
        "note": 36,
        "time": 4979,
        "channel": 9
      },
      {
        "type": "note_off",
        "note": 38,
        "time": 4981,
        "channel": 9
      },
      {
        "type": "note_on",
        "note": 44,
        "velocity": 92,
        "time": 5024,
        "channel": 9
      },
      {
        "type": "note_on",
        "note": 38,
        "velocity": 26,
        "time": 5030,
        "channel": 9
      },
      {
        "type": "note_off",
        "note": 44,
        "time": 5100,
        "channel": 9
      },
      {
        "type": "note_off",
        "note": 38,
        "time": 5105,
        "channel": 9
      },
      {
        "type": "note_on",
        "note": 38,
        "velocity": 80,
        "time": 5160,
        "channel": 9
      },
      {
        "type": "note_off",
        "note": 38,
        "time": 5235,
        "channel": 9
      },
      {
        "type": "note_on",
        "note": 36,
        "velocity": 27,
        "time": 5237,
        "channel": 9
      },
      {
        "type": "note_on",
        "note": 38,
        "velocity": 28,
        "time": 5265,
        "channel": 9
      },
      {
        "type": "note_off",
        "note": 36,
        "time": 5313,
        "channel": 9
      },
      {
        "type": "note_off",
        "note": 38,
        "time": 5341,
        "channel": 9
      },
      {
        "type": "note_on",
        "note": 38,
        "velocity": 30,
        "time": 5421,
        "channel": 9
      },
      {
        "type": "note_on",
        "note": 36,
        "velocity": 40,
        "time": 5442,
        "channel": 9
      },
      {
        "type": "note_off",
        "note": 38,
        "time": 5448,
        "channel": 9
      },
      {
        "type": "note_on",
        "note": 38,
        "velocity": 28,
        "time": 5448,
        "channel": 9
      },
      {
        "type": "note_off",
        "note": 38,
        "time": 5465,
        "channel": 9
      },
      {
        "type": "note_on",
        "note": 38,
        "velocity": 26,
        "time": 5465,
        "channel": 9
      },
      {
        "type": "note_off",
        "note": 38,
        "time": 5497,
        "channel": 9
      },
      {
        "type": "note_on",
        "note": 44,
        "velocity": 92,
        "time": 5499,
        "channel": 9
      },
      {
        "type": "note_on",
        "note": 38,
        "velocity": 93,
        "time": 5507,
        "channel": 9
      },
      {
        "type": "note_off",
        "note": 36,
        "time": 5517,
        "channel": 9
      },
      {
        "type": "note_off",
        "note": 38,
        "time": 5524,
        "channel": 9
      },
      {
        "type": "note_off",
        "note": 44,
        "time": 5575,
        "channel": 9
      },
      {
        "type": "note_on",
        "note": 38,
        "velocity": 27,
        "time": 5632,
        "channel": 9
      },
      {
        "type": "note_off",
        "note": 38,
        "time": 5709,
        "channel": 9
      },
      {
        "type": "note_on",
        "note": 36,
        "velocity": 47,
        "time": 5744,
        "channel": 9
      },
      {
        "type": "note_on",
        "note": 38,
        "velocity": 61,
        "time": 5750,
        "channel": 9
      },
      {
        "type": "note_off",
        "note": 36,
        "time": 5820,
        "channel": 9
      },
      {
        "type": "note_off",
        "note": 38,
        "time": 5826,
        "channel": 9
      },
      {
        "type": "note_on",
        "note": 38,
        "velocity": 23,
        "time": 5881,
        "channel": 9
      },
      {
        "type": "note_off",
        "note": 38,
        "time": 5957,
        "channel": 9
      },
      {
        "type": "note_on",
        "note": 44,
        "velocity": 80,
        "time": 5982,
        "channel": 9
      },
      {
        "type": "note_on",
        "note": 38,
        "velocity": 100,
        "time": 5993,
        "channel": 9
      },
      {
        "type": "note_off",
        "note": 44,
        "time": 6058,
        "channel": 9
      },
      {
        "type": "note_off",
        "note": 38,
        "time": 6069,
        "channel": 9
      },
      {
        "type": "note_on",
        "note": 36,
        "velocity": 34,
        "time": 6122,
        "channel": 9
      },
      {
        "type": "note_on",
        "note": 38,
        "velocity": 25,
        "time": 6131,
        "channel": 9
      },
      {
        "type": "note_off",
        "note": 36,
        "time": 6198,
        "channel": 9
      },
      {
        "type": "note_off",
        "note": 38,
        "time": 6207,
        "channel": 9
      },
      {
        "type": "note_on",
        "note": 38,
        "velocity": 90,
        "time": 6237,
        "channel": 9
      },
      {
        "type": "note_off",
        "note": 38,
        "time": 6313,
        "channel": 9
      },
      {
        "type": "note_on",
        "note": 38,
        "velocity": 54,
        "time": 6373,
        "channel": 9
      },
      {
        "type": "note_off",
        "note": 38,
        "time": 6448,
        "channel": 9
      },
      {
        "type": "note_on",
        "note": 36,
        "velocity": 40,
        "time": 6459,
        "channel": 9
      },
      {
        "type": "note_on",
        "note": 44,
        "velocity": 87,
        "time": 6461,
        "channel": 9
      },
      {
        "type": "note_on",
        "note": 38,
        "velocity": 37,
        "time": 6481,
        "channel": 9
      },
      {
        "type": "note_off",
        "note": 36,
        "time": 6535,
        "channel": 9
      },
      {
        "type": "note_off",
        "note": 44,
        "time": 6536,
        "channel": 9
      },
      {
        "type": "note_off",
        "note": 38,
        "time": 6557,
        "channel": 9
      },
      {
        "type": "note_on",
        "note": 38,
        "velocity": 48,
        "time": 6606,
        "channel": 9
      },
      {
        "type": "note_off",
        "note": 38,
        "time": 6682,
        "channel": 9
      },
      {
        "type": "note_on",
        "note": 38,
        "velocity": 103,
        "time": 6704,
        "channel": 9
      },
      {
        "type": "note_off",
        "note": 38,
        "time": 6780,
        "channel": 9
      },
      {
        "type": "note_on",
        "note": 38,
        "velocity": 37,
        "time": 6847,
        "channel": 9
      },
      {
        "type": "note_on",
        "note": 36,
        "velocity": 42,
        "time": 6848,
        "channel": 9
      },
      {
        "type": "note_off",
        "note": 36,
        "time": 6924,
        "channel": 9
      },
      {
        "type": "note_off",
        "note": 38,
        "time": 6924,
        "channel": 9
      },
      {
        "type": "note_on",
        "note": 44,
        "velocity": 97,
        "time": 6945,
        "channel": 9
      },
      {
        "type": "note_on",
        "note": 38,
        "velocity": 32,
        "time": 6952,
        "channel": 9
      },
      {
        "type": "note_off",
        "note": 38,
        "time": 7020,
        "channel": 9
      },
      {
        "type": "note_on",
        "note": 38,
        "velocity": 34,
        "time": 7020,
        "channel": 9
      },
      {
        "type": "note_off",
        "note": 44,
        "time": 7020,
        "channel": 9
      },
      {
        "type": "note_off",
        "note": 38,
        "time": 7028,
        "channel": 9
      },
      {
        "type": "note_on",
        "note": 38,
        "velocity": 69,
        "time": 7081,
        "channel": 9
      },
      {
        "type": "note_off",
        "note": 38,
        "time": 7097,
        "channel": 9
      },
      {
        "type": "note_on",
        "note": 36,
        "velocity": 43,
        "time": 7187,
        "channel": 9
      },
      {
        "type": "note_on",
        "note": 38,
        "velocity": 38,
        "time": 7192,
        "channel": 9
      },
      {
        "type": "note_off",
        "note": 36,
        "time": 7263,
        "channel": 9
      },
      {
        "type": "note_off",
        "note": 38,
        "time": 7267,
        "channel": 9
      },
      {
        "type": "note_on",
        "note": 38,
        "velocity": 32,
        "time": 7317,
        "channel": 9
      },
      {
        "type": "note_off",
        "note": 38,
        "time": 7393,
        "channel": 9
      },
      {
        "type": "note_on",
        "note": 38,
        "velocity": 106,
        "time": 7421,
        "channel": 9
      },
      {
        "type": "note_on",
        "note": 44,
        "velocity": 102,
        "time": 7431,
        "channel": 9
      },
      {
        "type": "note_off",
        "note": 38,
        "time": 7497,
        "channel": 9
      },
      {
        "type": "note_off",
        "note": 44,
        "time": 7508,
        "channel": 9
      },
      {
        "type": "note_on",
        "note": 38,
        "velocity": 35,
        "time": 7561,
        "channel": 9
      },
      {
        "type": "note_off",
        "note": 38,
        "time": 7637,
        "channel": 9
      },
      {
        "type": "note_on",
        "note": 36,
        "velocity": 37,
        "time": 7657,
        "channel": 9
      },
      {
        "type": "note_on",
        "note": 38,
        "velocity": 28,
        "time": 7664,
        "channel": 9
      },
      {
        "type": "note_off",
        "note": 36,
        "time": 7734,
        "channel": 9
      },
      {
        "type": "note_off",
        "note": 38,
        "time": 7740,
        "channel": 9
      },
      {
        "type": "note_on",
        "note": 38,
        "velocity": 15,
        "time": 7797,
        "channel": 9
      },
      {
        "type": "note_off",
        "note": 38,
        "time": 7874,
        "channel": 9
      },
      {
        "type": "note_on",
        "note": 38,
        "velocity": 80,
        "time": 7896,
        "channel": 9
      },
      {
        "type": "note_on",
        "note": 44,
        "velocity": 92,
        "time": 7907,
        "channel": 9
      },
      {
        "type": "note_off",
        "note": 38,
        "time": 7971,
        "channel": 9
      },
      {
        "type": "note_off",
        "note": 44,
        "time": 7983,
        "channel": 9
      },
      {
        "type": "note_on",
        "note": 38,
        "velocity": 36,
        "time": 8033,
        "channel": 9
      },
      {
        "type": "note_on",
        "note": 36,
        "velocity": 43,
        "time": 8050,
        "channel": 9
      },
      {
        "type": "note_off",
        "note": 38,
        "time": 8109,
        "channel": 9
      },
      {
        "type": "note_off",
        "note": 36,
        "time": 8125,
        "channel": 9
      },
      {
        "type": "note_on",
        "note": 38,
        "velocity": 23,
        "time": 8143,
        "channel": 9
      },
      {
        "type": "note_off",
        "note": 38,
        "time": 8217,
        "channel": 9
      },
      {
        "type": "note_on",
        "note": 38,
        "velocity": 23,
        "time": 8217,
        "channel": 9
      },
      {
        "type": "note_off",
        "note": 38,
        "time": 8219,
        "channel": 9
      },
      {
        "type": "note_on",
        "note": 38,
        "velocity": 91,
        "time": 8283,
        "channel": 9
      },
      {
        "type": "note_off",
        "note": 38,
        "time": 8293,
        "channel": 9
      },
      {
        "type": "note_on",
        "note": 38,
        "velocity": 35,
        "time": 8373,
        "channel": 9
      },
      {
        "type": "note_on",
        "note": 36,
        "velocity": 37,
        "time": 8379,
        "channel": 9
      },
      {
        "type": "note_on",
        "note": 44,
        "velocity": 85,
        "time": 8382,
        "channel": 9
      },
      {
        "type": "note_off",
        "note": 38,
        "time": 8449,
        "channel": 9
      },
      {
        "type": "note_off",
        "note": 36,
        "time": 8456,
        "channel": 9
      },
      {
        "type": "note_off",
        "note": 44,
        "time": 8458,
        "channel": 9
      },
      {
        "type": "note_on",
        "note": 38,
        "velocity": 20,
        "time": 8515,
        "channel": 9
      },
      {
        "type": "note_off",
        "note": 38,
        "time": 8591,
        "channel": 9
      },
      {
        "type": "note_on",
        "note": 38,
        "velocity": 88,
        "time": 8601,
        "channel": 9
      },
      {
        "type": "note_off",
        "note": 38,
        "time": 8677,
        "channel": 9
      },
      {
        "type": "note_on",
        "note": 36,
        "velocity": 45,
        "time": 8734,
        "channel": 9
      },
      {
        "type": "note_on",
        "note": 38,
        "velocity": 28,
        "time": 8750,
        "channel": 9
      },
      {
        "type": "note_off",
        "note": 36,
        "time": 8810,
        "channel": 9
      },
      {
        "type": "note_off",
        "note": 38,
        "time": 8826,
        "channel": 9
      },
      {
        "type": "note_on",
        "note": 44,
        "velocity": 77,
        "time": 8848,
        "channel": 9
      },
      {
        "type": "note_on",
        "note": 38,
        "velocity": 28,
        "time": 8852,
        "channel": 9
      },
      {
        "type": "note_off",
        "note": 44,
        "time": 8924,
        "channel": 9
      },
      {
        "type": "note_off",
        "note": 38,
        "time": 8928,
        "channel": 9
      },
      {
        "type": "note_on",
        "note": 38,
        "velocity": 90,
        "time": 8977,
        "channel": 9
      },
      {
        "type": "note_off",
        "note": 38,
        "time": 9053,
        "channel": 9
      },
      {
        "type": "note_on",
        "note": 36,
        "velocity": 42,
        "time": 9088,
        "channel": 9
      },
      {
        "type": "note_on",
        "note": 38,
        "velocity": 36,
        "time": 9090,
        "channel": 9
      },
      {
        "type": "note_off",
        "note": 36,
        "time": 9164,
        "channel": 9
      },
      {
        "type": "note_off",
        "note": 38,
        "time": 9166,
        "channel": 9
      },
      {
        "type": "note_on",
        "note": 38,
        "velocity": 30,
        "time": 9217,
        "channel": 9
      },
      {
        "type": "note_off",
        "note": 38,
        "time": 9293,
        "channel": 9
      },
      {
        "type": "note_on",
        "note": 44,
        "velocity": 92,
        "time": 9314,
        "channel": 9
      },
      {
        "type": "note_on",
        "note": 43,
        "velocity": 127,
        "time": 9326,
        "channel": 9
      },
      {
        "type": "note_off",
        "note": 44,
        "time": 9390,
        "channel": 9
      },
      {
        "type": "note_off",
        "note": 43,
        "time": 9402,
        "channel": 9
      },
      {
        "type": "note_on",
        "note": 38,
        "velocity": 28,
        "time": 9463,
        "channel": 9
      },
      {
        "type": "note_off",
        "note": 38,
        "time": 9538,
        "channel": 9
      },
      {
        "type": "note_on",
        "note": 36,
        "velocity": 52,
        "time": 9553,
        "channel": 9
      },
      {
        "type": "note_on",
        "note": 38,
        "velocity": 36,
        "time": 9572,
        "channel": 9
      },
      {
        "type": "note_off",
        "note": 36,
        "time": 9629,
        "channel": 9
      },
      {
        "type": "note_off",
        "note": 38,
        "time": 9648,
        "channel": 9
      },
      {
        "type": "note_on",
        "note": 38,
        "velocity": 31,
        "time": 9710,
        "channel": 9
      },
      {
        "type": "note_off",
        "note": 38,
        "time": 9786,
        "channel": 9
      },
      {
        "type": "note_on",
        "note": 44,
        "velocity": 90,
        "time": 9790,
        "channel": 9
      },
      {
        "type": "note_on",
        "note": 38,
        "velocity": 82,
        "time": 9812,
        "channel": 9
      },
      {
        "type": "note_off",
        "note": 44,
        "time": 9866,
        "channel": 9
      },
      {
        "type": "note_off",
        "note": 38,
        "time": 9887,
        "channel": 9
      },
      {
        "type": "note_on",
        "note": 38,
        "velocity": 26,
        "time": 9939,
        "channel": 9
      },
      {
        "type": "note_on",
        "note": 36,
        "velocity": 40,
        "time": 9952,
        "channel": 9
      },
      {
        "type": "note_off",
        "note": 38,
        "time": 10014,
        "channel": 9
      },
      {
        "type": "note_off",
        "note": 36,
        "time": 10029,
        "channel": 9
      },
      {
        "type": "note_on",
        "note": 38,
        "velocity": 29,
        "time": 10042,
        "channel": 9
      },
      {
        "type": "note_off",
        "note": 38,
        "time": 10117,
        "channel": 9
      },
      {
        "type": "note_on",
        "note": 38,
        "velocity": 102,
        "time": 10174,
        "channel": 9
      },
      {
        "type": "note_off",
        "note": 38,
        "time": 10250,
        "channel": 9
      },
      {
        "type": "note_on",
        "note": 36,
        "velocity": 40,
        "time": 10287,
        "channel": 9
      },
      {
        "type": "note_on",
        "note": 38,
        "velocity": 32,
        "time": 10287,
        "channel": 9
      },
      {
        "type": "note_on",
        "note": 44,
        "velocity": 82,
        "time": 10293,
        "channel": 9
      },
      {
        "type": "note_off",
        "note": 36,
        "time": 10363,
        "channel": 9
      },
      {
        "type": "note_off",
        "note": 38,
        "time": 10363,
        "channel": 9
      },
      {
        "type": "note_off",
        "note": 44,
        "time": 10369,
        "channel": 9
      },
      {
        "type": "note_on",
        "note": 38,
        "velocity": 17,
        "time": 10431,
        "channel": 9
      },
      {
        "type": "note_off",
        "note": 38,
        "time": 10507,
        "channel": 9
      },
      {
        "type": "note_on",
        "note": 38,
        "velocity": 81,
        "time": 10529,
        "channel": 9
      },
      {
        "type": "note_off",
        "note": 38,
        "time": 10605,
        "channel": 9
      },
      {
        "type": "note_on",
        "note": 36,
        "velocity": 38,
        "time": 10672,
        "channel": 9
      },
      {
        "type": "note_on",
        "note": 38,
        "velocity": 33,
        "time": 10685,
        "channel": 9
      },
      {
        "type": "note_off",
        "note": 36,
        "time": 10748,
        "channel": 9
      },
      {
        "type": "note_off",
        "note": 38,
        "time": 10760,
        "channel": 9
      },
      {
        "type": "note_on",
        "note": 44,
        "velocity": 90,
        "time": 10785,
        "channel": 9
      },
      {
        "type": "note_on",
        "note": 38,
        "velocity": 17,
        "time": 10786,
        "channel": 9
      },
      {
        "type": "note_off",
        "note": 44,
        "time": 10860,
        "channel": 9
      },
      {
        "type": "note_off",
        "note": 38,
        "time": 10862,
        "channel": 9
      },
      {
        "type": "note_on",
        "note": 38,
        "velocity": 99,
        "time": 10923,
        "channel": 9
      },
      {
        "type": "note_off",
        "note": 38,
        "time": 10999,
        "channel": 9
      },
      {
        "type": "note_on",
        "note": 36,
        "velocity": 40,
        "time": 11013,
        "channel": 9
      },
      {
        "type": "note_on",
        "note": 38,
        "velocity": 30,
        "time": 11026,
        "channel": 9
      },
      {
        "type": "note_off",
        "note": 36,
        "time": 11089,
        "channel": 9
      },
      {
        "type": "note_off",
        "note": 38,
        "time": 11102,
        "channel": 9
      },
      {
        "type": "note_on",
        "note": 38,
        "velocity": 38,
        "time": 11146,
        "channel": 9
      },
      {
        "type": "note_off",
        "note": 38,
        "time": 11222,
        "channel": 9
      },
      {
        "type": "note_on",
        "note": 38,
        "velocity": 75,
        "time": 11269,
        "channel": 9
      },
      {
        "type": "note_on",
        "note": 36,
        "velocity": 33,
        "time": 11289,
        "channel": 9
      },
      {
        "type": "note_on",
        "note": 44,
        "velocity": 95,
        "time": 11290,
        "channel": 9
      },
      {
        "type": "note_off",
        "note": 38,
        "time": 11345,
        "channel": 9
      },
      {
        "type": "note_off",
        "note": 36,
        "time": 11365,
        "channel": 9
      },
      {
        "type": "note_off",
        "note": 44,
        "time": 11365,
        "channel": 9
      },
      {
        "type": "note_on",
        "note": 38,
        "velocity": 82,
        "time": 11409,
        "channel": 9
      },
      {
        "type": "note_off",
        "note": 38,
        "time": 11485,
        "channel": 9
      },
      {
        "type": "note_on",
        "note": 36,
        "velocity": 53,
        "time": 11518,
        "channel": 9
      },
      {
        "type": "note_on",
        "note": 38,
        "velocity": 33,
        "time": 11533,
        "channel": 9
      },
      {
        "type": "note_off",
        "note": 36,
        "time": 11594,
        "channel": 9
      },
      {
        "type": "note_off",
        "note": 38,
        "time": 11609,
        "channel": 9
      },
      {
        "type": "note_on",
        "note": 38,
        "velocity": 33,
        "time": 11658,
        "channel": 9
      },
      {
        "type": "note_off",
        "note": 38,
        "time": 11734,
        "channel": 9
      },
      {
        "type": "note_on",
        "note": 38,
        "velocity": 97,
        "time": 11759,
        "channel": 9
      },
      {
        "type": "note_on",
        "note": 44,
        "velocity": 95,
        "time": 11763,
        "channel": 9
      },
      {
        "type": "note_off",
        "note": 38,
        "time": 11835,
        "channel": 9
      },
      {
        "type": "note_off",
        "note": 44,
        "time": 11839,
        "channel": 9
      },
      {
        "type": "note_on",
        "note": 38,
        "velocity": 24,
        "time": 11889,
        "channel": 9
      },
      {
        "type": "note_on",
        "note": 36,
        "velocity": 48,
        "time": 11895,
        "channel": 9
      },
      {
        "type": "note_off",
        "note": 38,
        "time": 11964,
        "channel": 9
      },
      {
        "type": "note_off",
        "note": 36,
        "time": 11971,
        "channel": 9
      },
      {
        "type": "note_on",
        "note": 38,
        "velocity": 37,
        "time": 12013,
        "channel": 9
      },
      {
        "type": "note_off",
        "note": 38,
        "time": 12089,
        "channel": 9
      },
      {
        "type": "note_on",
        "note": 38,
        "velocity": 73,
        "time": 12129,
        "channel": 9
      },
      {
        "type": "note_off",
        "note": 38,
        "time": 12204,
        "channel": 9
      },
      {
        "type": "note_on",
        "note": 36,
        "velocity": 47,
        "time": 12226,
        "channel": 9
      },
      {
        "type": "note_on",
        "note": 44,
        "velocity": 90,
        "time": 12226,
        "channel": 9
      },
      {
        "type": "note_on",
        "note": 38,
        "velocity": 31,
        "time": 12235,
        "channel": 9
      },
      {
        "type": "note_off",
        "note": 36,
        "time": 12302,
        "channel": 9
      },
      {
        "type": "note_off",
        "note": 44,
        "time": 12302,
        "channel": 9
      },
      {
        "type": "note_off",
        "note": 38,
        "time": 12312,
        "channel": 9
      },
      {
        "type": "note_on",
        "note": 38,
        "velocity": 35,
        "time": 12356,
        "channel": 9
      },
      {
        "type": "note_off",
        "note": 38,
        "time": 12431,
        "channel": 9
      },
      {
        "type": "note_on",
        "note": 38,
        "velocity": 89,
        "time": 12469,
        "channel": 9
      },
      {
        "type": "note_off",
        "note": 38,
        "time": 12545,
        "channel": 9
      },
      {
        "type": "note_on",
        "note": 38,
        "velocity": 28,
        "time": 12603,
        "channel": 9
      },
      {
        "type": "note_on",
        "note": 36,
        "velocity": 41,
        "time": 12618,
        "channel": 9
      },
      {
        "type": "note_off",
        "note": 38,
        "time": 12679,
        "channel": 9
      },
      {
        "type": "note_off",
        "note": 36,
        "time": 12694,
        "channel": 9
      },
      {
        "type": "note_on",
        "note": 44,
        "velocity": 100,
        "time": 12694,
        "channel": 9
      },
      {
        "type": "note_on",
        "note": 38,
        "velocity": 26,
        "time": 12719,
        "channel": 9
      },
      {
        "type": "note_off",
        "note": 44,
        "time": 12770,
        "channel": 9
      },
      {
        "type": "note_off",
        "note": 38,
        "time": 12795,
        "channel": 9
      },
      {
        "type": "note_on",
        "note": 38,
        "velocity": 81,
        "time": 12844,
        "channel": 9
      },
      {
        "type": "note_off",
        "note": 38,
        "time": 12919,
        "channel": 9
      },
      {
        "type": "note_on",
        "note": 36,
        "velocity": 37,
        "time": 12936,
        "channel": 9
      },
      {
        "type": "note_on",
        "note": 38,
        "velocity": 34,
        "time": 12952,
        "channel": 9
      },
      {
        "type": "note_off",
        "note": 36,
        "time": 13012,
        "channel": 9
      },
      {
        "type": "note_off",
        "note": 38,
        "time": 13028,
        "channel": 9
      },
      {
        "type": "note_on",
        "note": 38,
        "velocity": 36,
        "time": 13075,
        "channel": 9
      },
      {
        "type": "note_on",
        "note": 36,
        "velocity": 38,
        "time": 13110,
        "channel": 9
      },
      {
        "type": "note_off",
        "note": 38,
        "time": 13112,
        "channel": 9
      },
      {
        "type": "note_on",
        "note": 38,
        "velocity": 36,
        "time": 13112,
        "channel": 9
      },
      {
        "type": "note_off",
        "note": 38,
        "time": 13129,
        "channel": 9
      },
      {
        "type": "note_on",
        "note": 38,
        "velocity": 33,
        "time": 13129,
        "channel": 9
      },
      {
        "type": "note_off",
        "note": 38,
        "time": 13142,
        "channel": 9
      },
      {
        "type": "note_on",
        "note": 38,
        "velocity": 31,
        "time": 13142,
        "channel": 9
      },
      {
        "type": "note_off",
        "note": 38,
        "time": 13150,
        "channel": 9
      },
      {
        "type": "note_on",
        "note": 38,
        "velocity": 26,
        "time": 13165,
        "channel": 9
      },
      {
        "type": "note_off",
        "note": 38,
        "time": 13181,
        "channel": 9
      },
      {
        "type": "note_on",
        "note": 38,
        "velocity": 84,
        "time": 13181,
        "channel": 9
      },
      {
        "type": "note_on",
        "note": 44,
        "velocity": 100,
        "time": 13185,
        "channel": 9
      },
      {
        "type": "note_off",
        "note": 36,
        "time": 13186,
        "channel": 9
      },
      {
        "type": "note_off",
        "note": 38,
        "time": 13189,
        "channel": 9
      },
      {
        "type": "note_off",
        "note": 44,
        "time": 13261,
        "channel": 9
      },
      {
        "type": "note_on",
        "note": 38,
        "velocity": 35,
        "time": 13323,
        "channel": 9
      },
      {
        "type": "note_off",
        "note": 38,
        "time": 13353,
        "channel": 9
      },
      {
        "type": "note_on",
        "note": 38,
        "velocity": 36,
        "time": 13353,
        "channel": 9
      },
      {
        "type": "note_off",
        "note": 38,
        "time": 13374,
        "channel": 9
      },
      {
        "type": "note_on",
        "note": 38,
        "velocity": 31,
        "time": 13374,
        "channel": 9
      },
      {
        "type": "note_off",
        "note": 38,
        "time": 13398,
        "channel": 9
      },
      {
        "type": "note_on",
        "note": 36,
        "velocity": 49,
        "time": 13416,
        "channel": 9
      },
      {
        "type": "note_on",
        "note": 38,
        "velocity": 92,
        "time": 13426,
        "channel": 9
      },
      {
        "type": "note_off",
        "note": 38,
        "time": 13429,
        "channel": 9
      },
      {
        "type": "note_off",
        "note": 36,
        "time": 13492,
        "channel": 9
      },
      {
        "type": "note_on",
        "note": 38,
        "velocity": 14,
        "time": 13573,
        "channel": 9
      },
      {
        "type": "note_off",
        "note": 38,
        "time": 13650,
        "channel": 9
      },
      {
        "type": "note_on",
        "note": 38,
        "velocity": 96,
        "time": 13657,
        "channel": 9
      },
      {
        "type": "note_on",
        "note": 44,
        "velocity": 92,
        "time": 13657,
        "channel": 9
      },
      {
        "type": "note_off",
        "note": 38,
        "time": 13733,
        "channel": 9
      },
      {
        "type": "note_off",
        "note": 44,
        "time": 13733,
        "channel": 9
      },
      {
        "type": "note_on",
        "note": 36,
        "velocity": 44,
        "time": 13788,
        "channel": 9
      },
      {
        "type": "note_on",
        "note": 38,
        "velocity": 33,
        "time": 13788,
        "channel": 9
      },
      {
        "type": "note_off",
        "note": 36,
        "time": 13864,
        "channel": 9
      },
      {
        "type": "note_off",
        "note": 38,
        "time": 13864,
        "channel": 9
      },
      {
        "type": "note_on",
        "note": 38,
        "velocity": 55,
        "time": 13907,
        "channel": 9
      },
      {
        "type": "note_off",
        "note": 38,
        "time": 13983,
        "channel": 9
      },
      {
        "type": "note_on",
        "note": 38,
        "velocity": 71,
        "time": 14040,
        "channel": 9
      },
      {
        "type": "note_off",
        "note": 38,
        "time": 14117,
        "channel": 9
      },
      {
        "type": "note_on",
        "note": 44,
        "velocity": 95,
        "time": 14140,
        "channel": 9
      },
      {
        "type": "note_on",
        "note": 36,
        "velocity": 37,
        "time": 14146,
        "channel": 9
      },
      {
        "type": "note_on",
        "note": 38,
        "velocity": 68,
        "time": 14153,
        "channel": 9
      },
      {
        "type": "note_off",
        "note": 44,
        "time": 14217,
        "channel": 9
      },
      {
        "type": "note_off",
        "note": 36,
        "time": 14222,
        "channel": 9
      },
      {
        "type": "note_off",
        "note": 38,
        "time": 14229,
        "channel": 9
      },
      {
        "type": "note_on",
        "note": 38,
        "velocity": 87,
        "time": 14278,
        "channel": 9
      },
      {
        "type": "note_off",
        "note": 38,
        "time": 14353,
        "channel": 9
      },
      {
        "type": "note_on",
        "note": 36,
        "velocity": 41,
        "time": 14380,
        "channel": 9
      },
      {
        "type": "note_on",
        "note": 38,
        "velocity": 52,
        "time": 14393,
        "channel": 9
      },
      {
        "type": "note_off",
        "note": 36,
        "time": 14456,
        "channel": 9
      },
      {
        "type": "note_off",
        "note": 38,
        "time": 14469,
        "channel": 9
      },
      {
        "type": "note_on",
        "note": 38,
        "velocity": 33,
        "time": 14515,
        "channel": 9
      },
      {
        "type": "note_off",
        "note": 38,
        "time": 14591,
        "channel": 9
      },
      {
        "type": "note_on",
        "note": 38,
        "velocity": 79,
        "time": 14624,
        "channel": 9
      },
      {
        "type": "note_on",
        "note": 44,
        "velocity": 87,
        "time": 14624,
        "channel": 9
      },
      {
        "type": "note_off",
        "note": 38,
        "time": 14700,
        "channel": 9
      },
      {
        "type": "note_off",
        "note": 44,
        "time": 14700,
        "channel": 9
      },
      {
        "type": "note_on",
        "note": 36,
        "velocity": 47,
        "time": 14758,
        "channel": 9
      },
      {
        "type": "note_on",
        "note": 38,
        "velocity": 40,
        "time": 14758,
        "channel": 9
      },
      {
        "type": "note_off",
        "note": 36,
        "time": 14834,
        "channel": 9
      },
      {
        "type": "note_off",
        "note": 38,
        "time": 14834,
        "channel": 9
      },
      {
        "type": "note_on",
        "note": 38,
        "velocity": 33,
        "time": 14865,
        "channel": 9
      },
      {
        "type": "note_off",
        "note": 38,
        "time": 14941,
        "channel": 9
      },
      {
        "type": "note_on",
        "note": 38,
        "velocity": 91,
        "time": 14988,
        "channel": 9
      },
      {
        "type": "note_off",
        "note": 38,
        "time": 15064,
        "channel": 9
      },
      {
        "type": "note_on",
        "note": 44,
        "velocity": 87,
        "time": 15088,
        "channel": 9
      },
      {
        "type": "note_on",
        "note": 36,
        "velocity": 41,
        "time": 15090,
        "channel": 9
      },
      {
        "type": "note_on",
        "note": 38,
        "velocity": 35,
        "time": 15108,
        "channel": 9
      },
      {
        "type": "note_off",
        "note": 44,
        "time": 15163,
        "channel": 9
      },
      {
        "type": "note_off",
        "note": 36,
        "time": 15166,
        "channel": 9
      },
      {
        "type": "note_off",
        "note": 38,
        "time": 15184,
        "channel": 9
      },
      {
        "type": "note_on",
        "note": 38,
        "velocity": 38,
        "time": 15212,
        "channel": 9
      },
      {
        "type": "note_off",
        "note": 38,
        "time": 15268,
        "channel": 9
      },
      {
        "type": "note_on",
        "note": 38,
        "velocity": 40,
        "time": 15268,
        "channel": 9
      },
      {
        "type": "note_off",
        "note": 38,
        "time": 15288,
        "channel": 9
      },
      {
        "type": "note_on",
        "note": 38,
        "velocity": 23,
        "time": 15302,
        "channel": 9
      },
      {
        "type": "note_on",
        "note": 36,
        "velocity": 41,
        "time": 15334,
        "channel": 9
      },
      {
        "type": "note_off",
        "note": 38,
        "time": 15335,
        "channel": 9
      },
      {
        "type": "note_on",
        "note": 38,
        "velocity": 73,
        "time": 15335,
        "channel": 9
      },
      {
        "type": "note_off",
        "note": 38,
        "time": 15344,
        "channel": 9
      },
      {
        "type": "note_off",
        "note": 36,
        "time": 15410,
        "channel": 9
      },
      {
        "type": "note_on",
        "note": 38,
        "velocity": 35,
        "time": 15448,
        "channel": 9
      },
      {
        "type": "note_off",
        "note": 38,
        "time": 15524,
        "channel": 9
      },
      {
        "type": "note_on",
        "note": 44,
        "velocity": 85,
        "time": 15567,
        "channel": 9
      },
      {
        "type": "note_on",
        "note": 38,
        "velocity": 83,
        "time": 15571,
        "channel": 9
      },
      {
        "type": "note_off",
        "note": 44,
        "time": 15642,
        "channel": 9
      },
      {
        "type": "note_off",
        "note": 38,
        "time": 15647,
        "channel": 9
      },
      {
        "type": "note_on",
        "note": 36,
        "velocity": 43,
        "time": 15701,
        "channel": 9
      },
      {
        "type": "note_on",
        "note": 38,
        "velocity": 38,
        "time": 15701,
        "channel": 9
      },
      {
        "type": "note_off",
        "note": 36,
        "time": 15777,
        "channel": 9
      },
      {
        "type": "note_off",
        "note": 38,
        "time": 15777,
        "channel": 9
      },
      {
        "type": "note_on",
        "note": 38,
        "velocity": 32,
        "time": 15813,
        "channel": 9
      },
      {
        "type": "note_off",
        "note": 38,
        "time": 15889,
        "channel": 9
      },
      {
        "type": "note_on",
        "note": 38,
        "velocity": 99,
        "time": 15934,
        "channel": 9
      },
      {
        "type": "note_off",
        "note": 38,
        "time": 16009,
        "channel": 9
      },
      {
        "type": "note_on",
        "note": 36,
        "velocity": 39,
        "time": 16023,
        "channel": 9
      },
      {
        "type": "note_on",
        "note": 44,
        "velocity": 87,
        "time": 16029,
        "channel": 9
      },
      {
        "type": "note_on",
        "note": 38,
        "velocity": 38,
        "time": 16047,
        "channel": 9
      },
      {
        "type": "note_off",
        "note": 36,
        "time": 16099,
        "channel": 9
      },
      {
        "type": "note_off",
        "note": 44,
        "time": 16105,
        "channel": 9
      },
      {
        "type": "note_off",
        "note": 38,
        "time": 16124,
        "channel": 9
      },
      {
        "type": "note_on",
        "note": 38,
        "velocity": 40,
        "time": 16157,
        "channel": 9
      },
      {
        "type": "note_off",
        "note": 38,
        "time": 16233,
        "channel": 9
      },
      {
        "type": "note_on",
        "note": 36,
        "velocity": 44,
        "time": 16276,
        "channel": 9
      },
      {
        "type": "note_on",
        "note": 38,
        "velocity": 41,
        "time": 16276,
        "channel": 9
      },
      {
        "type": "note_off",
        "note": 36,
        "time": 16351,
        "channel": 9
      },
      {
        "type": "note_off",
        "note": 38,
        "time": 16351,
        "channel": 9
      },
      {
        "type": "note_on",
        "note": 38,
        "velocity": 39,
        "time": 16409,
        "channel": 9
      },
      {
        "type": "note_off",
        "note": 38,
        "time": 16485,
        "channel": 9
      },
      {
        "type": "note_on",
        "note": 44,
        "velocity": 87,
        "time": 16491,
        "channel": 9
      },
      {
        "type": "note_on",
        "note": 38,
        "velocity": 85,
        "time": 16511,
        "channel": 9
      },
      {
        "type": "note_off",
        "note": 44,
        "time": 16567,
        "channel": 9
      },
      {
        "type": "note_off",
        "note": 38,
        "time": 16587,
        "channel": 9
      },
      {
        "type": "note_on",
        "note": 36,
        "velocity": 43,
        "time": 16629,
        "channel": 9
      },
      {
        "type": "note_on",
        "note": 43,
        "velocity": 79,
        "time": 16657,
        "channel": 9
      },
      {
        "type": "note_off",
        "note": 36,
        "time": 16705,
        "channel": 9
      },
      {
        "type": "note_off",
        "note": 43,
        "time": 16733,
        "channel": 9
      },
      {
        "type": "note_on",
        "note": 43,
        "velocity": 71,
        "time": 16759,
        "channel": 9
      },
      {
        "type": "note_off",
        "note": 43,
        "time": 16835,
        "channel": 9
      },
      {
        "type": "note_on",
        "note": 38,
        "velocity": 32,
        "time": 16883,
        "channel": 9
      },
      {
        "type": "note_off",
        "note": 38,
        "time": 16958,
        "channel": 9
      },
      {
        "type": "note_on",
        "note": 43,
        "velocity": 100,
        "time": 16980,
        "channel": 9
      },
      {
        "type": "note_on",
        "note": 36,
        "velocity": 50,
        "time": 16985,
        "channel": 9
      },
      {
        "type": "note_on",
        "note": 44,
        "velocity": 100,
        "time": 16992,
        "channel": 9
      },
      {
        "type": "note_off",
        "note": 43,
        "time": 17056,
        "channel": 9
      },
      {
        "type": "note_off",
        "note": 36,
        "time": 17061,
        "channel": 9
      },
      {
        "type": "note_off",
        "note": 44,
        "time": 17068,
        "channel": 9
      },
      {
        "type": "note_on",
        "note": 38,
        "velocity": 40,
        "time": 17116,
        "channel": 9
      },
      {
        "type": "note_off",
        "note": 38,
        "time": 17172,
        "channel": 9
      },
      {
        "type": "note_on",
        "note": 38,
        "velocity": 37,
        "time": 17172,
        "channel": 9
      },
      {
        "type": "note_off",
        "note": 38,
        "time": 17192,
        "channel": 9
      },
      {
        "type": "note_on",
        "note": 38,
        "velocity": 27,
        "time": 17199,
        "channel": 9
      },
      {
        "type": "note_on",
        "note": 59,
        "velocity": 111,
        "time": 17234,
        "channel": 9
      },
      {
        "type": "note_on",
        "note": 36,
        "velocity": 60,
        "time": 17238,
        "channel": 9
      },
      {
        "type": "note_off",
        "note": 38,
        "time": 17248,
        "channel": 9
      },
      {
        "type": "note_off",
        "note": 59,
        "time": 17310,
        "channel": 9
      },
      {
        "type": "note_off",
        "note": 36,
        "time": 17313,
        "channel": 9
      },
      {
        "type": "note_on",
        "note": 44,
        "velocity": 87,
        "time": 17479,
        "channel": 9
      },
      {
        "type": "note_on",
        "note": 38,
        "velocity": 51,
        "time": 17505,
        "channel": 9
      },
      {
        "type": "note_off",
        "note": 44,
        "time": 17555,
        "channel": 9
      },
      {
        "type": "note_off",
        "note": 38,
        "time": 17581,
        "channel": 9
      },
      {
        "type": "note_on",
        "note": 36,
        "velocity": 46,
        "time": 17627,
        "channel": 9
      },
      {
        "type": "note_on",
        "note": 38,
        "velocity": 25,
        "time": 17627,
        "channel": 9
      },
      {
        "type": "note_off",
        "note": 36,
        "time": 17703,
        "channel": 9
      },
      {
        "type": "note_off",
        "note": 38,
        "time": 17703,
        "channel": 9
      },
      {
        "type": "note_on",
        "note": 38,
        "velocity": 37,
        "time": 17733,
        "channel": 9
      },
      {
        "type": "note_off",
        "note": 38,
        "time": 17809,
        "channel": 9
      },
      {
        "type": "note_on",
        "note": 38,
        "velocity": 100,
        "time": 17879,
        "channel": 9
      },
      {
        "type": "note_off",
        "note": 38,
        "time": 17955,
        "channel": 9
      },
      {
        "type": "note_on",
        "note": 36,
        "velocity": 43,
        "time": 17981,
        "channel": 9
      },
      {
        "type": "note_on",
        "note": 38,
        "velocity": 34,
        "time": 17994,
        "channel": 9
      },
      {
        "type": "note_on",
        "note": 44,
        "velocity": 100,
        "time": 17995,
        "channel": 9
      },
      {
        "type": "note_off",
        "note": 36,
        "time": 18057,
        "channel": 9
      },
      {
        "type": "note_off",
        "note": 38,
        "time": 18070,
        "channel": 9
      },
      {
        "type": "note_off",
        "note": 44,
        "time": 18070,
        "channel": 9
      },
      {
        "type": "note_on",
        "note": 38,
        "velocity": 21,
        "time": 18118,
        "channel": 9
      },
      {
        "type": "note_off",
        "note": 38,
        "time": 18194,
        "channel": 9
      },
      {
        "type": "note_on",
        "note": 38,
        "velocity": 66,
        "time": 18225,
        "channel": 9
      },
      {
        "type": "note_off",
        "note": 38,
        "time": 18301,
        "channel": 9
      },
      {
        "type": "note_on",
        "note": 38,
        "velocity": 34,
        "time": 18374,
        "channel": 9
      },
      {
        "type": "note_on",
        "note": 36,
        "velocity": 54,
        "time": 18377,
        "channel": 9
      },
      {
        "type": "note_off",
        "note": 38,
        "time": 18449,
        "channel": 9
      },
      {
        "type": "note_off",
        "note": 36,
        "time": 18452,
        "channel": 9
      },
      {
        "type": "note_on",
        "note": 38,
        "velocity": 35,
        "time": 18487,
        "channel": 9
      },
      {
        "type": "note_on",
        "note": 44,
        "velocity": 90,
        "time": 18490,
        "channel": 9
      },
      {
        "type": "note_off",
        "note": 38,
        "time": 18562,
        "channel": 9
      },
      {
        "type": "note_off",
        "note": 44,
        "time": 18566,
        "channel": 9
      },
      {
        "type": "note_on",
        "note": 38,
        "velocity": 79,
        "time": 18611,
        "channel": 9
      },
      {
        "type": "note_off",
        "note": 38,
        "time": 18686,
        "channel": 9
      },
      {
        "type": "note_on",
        "note": 36,
        "velocity": 45,
        "time": 18722,
        "channel": 9
      },
      {
        "type": "note_on",
        "note": 38,
        "velocity": 36,
        "time": 18726,
        "channel": 9
      },
      {
        "type": "note_off",
        "note": 36,
        "time": 18798,
        "channel": 9
      },
      {
        "type": "note_off",
        "note": 38,
        "time": 18802,
        "channel": 9
      },
      {
        "type": "note_on",
        "note": 38,
        "velocity": 37,
        "time": 18844,
        "channel": 9
      },
      {
        "type": "note_off",
        "note": 38,
        "time": 18885,
        "channel": 9
      },
      {
        "type": "note_on",
        "note": 38,
        "velocity": 30,
        "time": 18885,
        "channel": 9
      },
      {
        "type": "note_off",
        "note": 38,
        "time": 18908,
        "channel": 9
      },
      {
        "type": "note_on",
        "note": 38,
        "velocity": 21,
        "time": 18908,
        "channel": 9
      },
      {
        "type": "note_off",
        "note": 38,
        "time": 18920,
        "channel": 9
      },
      {
        "type": "note_on",
        "note": 38,
        "velocity": 24,
        "time": 18936,
        "channel": 9
      },
      {
        "type": "note_on",
        "note": 44,
        "velocity": 87,
        "time": 18957,
        "channel": 9
      },
      {
        "type": "note_off",
        "note": 38,
        "time": 18962,
        "channel": 9
      },
      {
        "type": "note_on",
        "note": 36,
        "velocity": 48,
        "time": 18963,
        "channel": 9
      },
      {
        "type": "note_on",
        "note": 37,
        "velocity": 86,
        "time": 18964,
        "channel": 9
      },
      {
        "type": "note_off",
        "note": 44,
        "time": 19033,
        "channel": 9
      },
      {
        "type": "note_off",
        "note": 36,
        "time": 19039,
        "channel": 9
      },
      {
        "type": "note_off",
        "note": 37,
        "time": 19041,
        "channel": 9
      },
      {
        "type": "note_on",
        "note": 38,
        "velocity": 36,
        "time": 19109,
        "channel": 9
      },
      {
        "type": "note_off",
        "note": 38,
        "time": 19185,
        "channel": 9
      },
      {
        "type": "note_on",
        "note": 36,
        "velocity": 52,
        "time": 19200,
        "channel": 9
      },
      {
        "type": "note_on",
        "note": 38,
        "velocity": 43,
        "time": 19206,
        "channel": 9
      },
      {
        "type": "note_off",
        "note": 36,
        "time": 19276,
        "channel": 9
      },
      {
        "type": "note_off",
        "note": 38,
        "time": 19282,
        "channel": 9
      },
      {
        "type": "note_on",
        "note": 38,
        "velocity": 22,
        "time": 19334,
        "channel": 9
      },
      {
        "type": "note_off",
        "note": 38,
        "time": 19410,
        "channel": 9
      },
      {
        "type": "note_on",
        "note": 44,
        "velocity": 90,
        "time": 19432,
        "channel": 9
      },
      {
        "type": "note_on",
        "note": 38,
        "velocity": 67,
        "time": 19441,
        "channel": 9
      },
      {
        "type": "note_off",
        "note": 44,
        "time": 19508,
        "channel": 9
      },
      {
        "type": "note_off",
        "note": 38,
        "time": 19517,
        "channel": 9
      },
      {
        "type": "note_on",
        "note": 36,
        "velocity": 49,
        "time": 19574,
        "channel": 9
      },
      {
        "type": "note_on",
        "note": 38,
        "velocity": 28,
        "time": 19595,
        "channel": 9
      },
      {
        "type": "note_off",
        "note": 36,
        "time": 19650,
        "channel": 9
      },
      {
        "type": "note_off",
        "note": 38,
        "time": 19671,
        "channel": 9
      },
      {
        "type": "note_on",
        "note": 38,
        "velocity": 33,
        "time": 19695,
        "channel": 9
      },
      {
        "type": "note_off",
        "note": 38,
        "time": 19771,
        "channel": 9
      },
      {
        "type": "note_on",
        "note": 38,
        "velocity": 94,
        "time": 19823,
        "channel": 9
      },
      {
        "type": "note_off",
        "note": 38,
        "time": 19899,
        "channel": 9
      },
      {
        "type": "note_on",
        "note": 36,
        "velocity": 45,
        "time": 19918,
        "channel": 9
      },
      {
        "type": "note_on",
        "note": 44,
        "velocity": 85,
        "time": 19925,
        "channel": 9
      },
      {
        "type": "note_on",
        "note": 38,
        "velocity": 29,
        "time": 19940,
        "channel": 9
      },
      {
        "type": "note_off",
        "note": 36,
        "time": 19994,
        "channel": 9
      },
      {
        "type": "note_off",
        "note": 44,
        "time": 20001,
        "channel": 9
      },
      {
        "type": "note_off",
        "note": 38,
        "time": 20015,
        "channel": 9
      },
      {
        "type": "note_on",
        "note": 38,
        "velocity": 33,
        "time": 20054,
        "channel": 9
      },
      {
        "type": "note_off",
        "note": 38,
        "time": 20130,
        "channel": 9
      },
      {
        "type": "note_on",
        "note": 40,
        "velocity": 98,
        "time": 20154,
        "channel": 9
      },
      {
        "type": "note_off",
        "note": 40,
        "time": 20229,
        "channel": 9
      },
      {
        "type": "note_on",
        "note": 36,
        "velocity": 51,
        "time": 20281,
        "channel": 9
      },
      {
        "type": "note_on",
        "note": 38,
        "velocity": 36,
        "time": 20289,
        "channel": 9
      },
      {
        "type": "note_off",
        "note": 36,
        "time": 20357,
        "channel": 9
      },
      {
        "type": "note_off",
        "note": 38,
        "time": 20366,
        "channel": 9
      },
      {
        "type": "note_on",
        "note": 38,
        "velocity": 29,
        "time": 20403,
        "channel": 9
      },
      {
        "type": "note_on",
        "note": 44,
        "velocity": 102,
        "time": 20403,
        "channel": 9
      },
      {
        "type": "note_off",
        "note": 38,
        "time": 20479,
        "channel": 9
      },
      {
        "type": "note_off",
        "note": 44,
        "time": 20479,
        "channel": 9
      },
      {
        "type": "note_on",
        "note": 38,
        "velocity": 104,
        "time": 20525,
        "channel": 9
      },
      {
        "type": "note_off",
        "note": 38,
        "time": 20601,
        "channel": 9
      },
      {
        "type": "note_on",
        "note": 36,
        "velocity": 49,
        "time": 20646,
        "channel": 9
      },
      {
        "type": "note_on",
        "note": 38,
        "velocity": 19,
        "time": 20646,
        "channel": 9
      },
      {
        "type": "note_off",
        "note": 36,
        "time": 20721,
        "channel": 9
      },
      {
        "type": "note_off",
        "note": 38,
        "time": 20721,
        "channel": 9
      },
      {
        "type": "note_on",
        "note": 38,
        "velocity": 37,
        "time": 20763,
        "channel": 9
      },
      {
        "type": "note_off",
        "note": 38,
        "time": 20808,
        "channel": 9
      },
      {
        "type": "note_on",
        "note": 38,
        "velocity": 39,
        "time": 20808,
        "channel": 9
      },
      {
        "type": "note_off",
        "note": 38,
        "time": 20833,
        "channel": 9
      },
      {
        "type": "note_on",
        "note": 38,
        "velocity": 34,
        "time": 20833,
        "channel": 9
      },
      {
        "type": "note_off",
        "note": 38,
        "time": 20839,
        "channel": 9
      },
      {
        "type": "note_on",
        "note": 44,
        "velocity": 97,
        "time": 20872,
        "channel": 9
      },
      {
        "type": "note_on",
        "note": 40,
        "velocity": 117,
        "time": 20876,
        "channel": 9
      },
      {
        "type": "note_off",
        "note": 44,
        "time": 20948,
        "channel": 9
      },
      {
        "type": "note_off",
        "note": 40,
        "time": 20951,
        "channel": 9
      },
      {
        "type": "note_on",
        "note": 38,
        "velocity": 37,
        "time": 21015,
        "channel": 9
      },
      {
        "type": "note_off",
        "note": 38,
        "time": 21091,
        "channel": 9
      },
      {
        "type": "note_on",
        "note": 36,
        "velocity": 48,
        "time": 21113,
        "channel": 9
      },
      {
        "type": "note_on",
        "note": 38,
        "velocity": 20,
        "time": 21118,
        "channel": 9
      },
      {
        "type": "note_off",
        "note": 36,
        "time": 21188,
        "channel": 9
      },
      {
        "type": "note_off",
        "note": 38,
        "time": 21194,
        "channel": 9
      },
      {
        "type": "note_on",
        "note": 38,
        "velocity": 25,
        "time": 21250,
        "channel": 9
      },
      {
        "type": "note_off",
        "note": 38,
        "time": 21326,
        "channel": 9
      },
      {
        "type": "note_on",
        "note": 44,
        "velocity": 97,
        "time": 21341,
        "channel": 9
      },
      {
        "type": "note_on",
        "note": 38,
        "velocity": 90,
        "time": 21352,
        "channel": 9
      },
      {
        "type": "note_off",
        "note": 44,
        "time": 21417,
        "channel": 9
      },
      {
        "type": "note_off",
        "note": 38,
        "time": 21428,
        "channel": 9
      },
      {
        "type": "note_on",
        "note": 36,
        "velocity": 42,
        "time": 21499,
        "channel": 9
      },
      {
        "type": "note_on",
        "note": 38,
        "velocity": 36,
        "time": 21501,
        "channel": 9
      },
      {
        "type": "note_off",
        "note": 36,
        "time": 21575,
        "channel": 9
      },
      {
        "type": "note_off",
        "note": 38,
        "time": 21577,
        "channel": 9
      },
      {
        "type": "note_on",
        "note": 38,
        "velocity": 37,
        "time": 21599,
        "channel": 9
      },
      {
        "type": "note_off",
        "note": 38,
        "time": 21675,
        "channel": 9
      },
      {
        "type": "note_on",
        "note": 38,
        "velocity": 85,
        "time": 21723,
        "channel": 9
      },
      {
        "type": "note_off",
        "note": 38,
        "time": 21798,
        "channel": 9
      },
      {
        "type": "note_on",
        "note": 44,
        "velocity": 87,
        "time": 21805,
        "channel": 9
      },
      {
        "type": "note_on",
        "note": 36,
        "velocity": 39,
        "time": 21815,
        "channel": 9
      },
      {
        "type": "note_on",
        "note": 38,
        "velocity": 28,
        "time": 21833,
        "channel": 9
      },
      {
        "type": "note_off",
        "note": 44,
        "time": 21881,
        "channel": 9
      },
      {
        "type": "note_off",
        "note": 36,
        "time": 21891,
        "channel": 9
      },
      {
        "type": "note_off",
        "note": 38,
        "time": 21909,
        "channel": 9
      },
      {
        "type": "note_on",
        "note": 38,
        "velocity": 31,
        "time": 21963,
        "channel": 9
      },
      {
        "type": "note_off",
        "note": 38,
        "time": 22039,
        "channel": 9
      },
      {
        "type": "note_on",
        "note": 38,
        "velocity": 92,
        "time": 22057,
        "channel": 9
      },
      {
        "type": "note_off",
        "note": 38,
        "time": 22133,
        "channel": 9
      },
      {
        "type": "note_on",
        "note": 36,
        "velocity": 45,
        "time": 22194,
        "channel": 9
      },
      {
        "type": "note_on",
        "note": 38,
        "velocity": 32,
        "time": 22199,
        "channel": 9
      },
      {
        "type": "note_off",
        "note": 36,
        "time": 22270,
        "channel": 9
      },
      {
        "type": "note_off",
        "note": 38,
        "time": 22275,
        "channel": 9
      },
      {
        "type": "note_on",
        "note": 38,
        "velocity": 29,
        "time": 22304,
        "channel": 9
      },
      {
        "type": "note_on",
        "note": 44,
        "velocity": 97,
        "time": 22305,
        "channel": 9
      },
      {
        "type": "note_off",
        "note": 38,
        "time": 22380,
        "channel": 9
      },
      {
        "type": "note_off",
        "note": 44,
        "time": 22380,
        "channel": 9
      },
      {
        "type": "note_on",
        "note": 38,
        "velocity": 80,
        "time": 22434,
        "channel": 9
      },
      {
        "type": "note_off",
        "note": 38,
        "time": 22509,
        "channel": 9
      },
      {
        "type": "note_on",
        "note": 36,
        "velocity": 37,
        "time": 22528,
        "channel": 9
      },
      {
        "type": "note_on",
        "note": 38,
        "velocity": 32,
        "time": 22549,
        "channel": 9
      },
      {
        "type": "note_off",
        "note": 36,
        "time": 22604,
        "channel": 9
      },
      {
        "type": "note_off",
        "note": 38,
        "time": 22625,
        "channel": 9
      },
      {
        "type": "note_on",
        "note": 38,
        "velocity": 29,
        "time": 22671,
        "channel": 9
      },
      {
        "type": "note_off",
        "note": 38,
        "time": 22709,
        "channel": 9
      },
      {
        "type": "note_on",
        "note": 38,
        "velocity": 28,
        "time": 22709,
        "channel": 9
      },
      {
        "type": "note_off",
        "note": 38,
        "time": 22728,
        "channel": 9
      },
      {
        "type": "note_on",
        "note": 38,
        "velocity": 22,
        "time": 22728,
        "channel": 9
      },
      {
        "type": "note_off",
        "note": 38,
        "time": 22747,
        "channel": 9
      },
      {
        "type": "note_on",
        "note": 44,
        "velocity": 102,
        "time": 22782,
        "channel": 9
      },
      {
        "type": "note_on",
        "note": 38,
        "velocity": 79,
        "time": 22784,
        "channel": 9
      },
      {
        "type": "note_off",
        "note": 38,
        "time": 22785,
        "channel": 9
      },
      {
        "type": "note_off",
        "note": 44,
        "time": 22858,
        "channel": 9
      },
      {
        "type": "note_on",
        "note": 37,
        "velocity": 80,
        "time": 22900,
        "channel": 9
      },
      {
        "type": "note_off",
        "note": 37,
        "time": 22976,
        "channel": 9
      },
      {
        "type": "note_on",
        "note": 36,
        "velocity": 45,
        "time": 23002,
        "channel": 9
      },
      {
        "type": "note_on",
        "note": 38,
        "velocity": 31,
        "time": 23009,
        "channel": 9
      },
      {
        "type": "note_off",
        "note": 36,
        "time": 23077,
        "channel": 9
      },
      {
        "type": "note_off",
        "note": 38,
        "time": 23086,
        "channel": 9
      },
      {
        "type": "note_on",
        "note": 38,
        "velocity": 81,
        "time": 23133,
        "channel": 9
      },
      {
        "type": "note_off",
        "note": 38,
        "time": 23209,
        "channel": 9
      },
      {
        "type": "note_on",
        "note": 37,
        "velocity": 80,
        "time": 23244,
        "channel": 9
      },
      {
        "type": "note_on",
        "note": 44,
        "velocity": 92,
        "time": 23248,
        "channel": 9
      },
      {
        "type": "note_off",
        "note": 37,
        "time": 23319,
        "channel": 9
      },
      {
        "type": "note_off",
        "note": 44,
        "time": 23324,
        "channel": 9
      },
      {
        "type": "note_on",
        "note": 38,
        "velocity": 30,
        "time": 23382,
        "channel": 9
      },
      {
        "type": "note_on",
        "note": 36,
        "velocity": 47,
        "time": 23400,
        "channel": 9
      },
      {
        "type": "note_off",
        "note": 38,
        "time": 23458,
        "channel": 9
      },
      {
        "type": "note_off",
        "note": 36,
        "time": 23476,
        "channel": 9
      },
      {
        "type": "note_on",
        "note": 37,
        "velocity": 86,
        "time": 23484,
        "channel": 9
      },
      {
        "type": "note_off",
        "note": 37,
        "time": 23560,
        "channel": 9
      },
      {
        "type": "note_on",
        "note": 38,
        "velocity": 21,
        "time": 23611,
        "channel": 9
      },
      {
        "type": "note_on",
        "note": 36,
        "velocity": 36,
        "time": 23616,
        "channel": 9
      },
      {
        "type": "note_off",
        "note": 38,
        "time": 23686,
        "channel": 9
      },
      {
        "type": "note_off",
        "note": 36,
        "time": 23692,
        "channel": 9
      },
      {
        "type": "note_on",
        "note": 44,
        "velocity": 97,
        "time": 23710,
        "channel": 9
      },
      {
        "type": "note_on",
        "note": 37,
        "velocity": 90,
        "time": 23717,
        "channel": 9
      },
      {
        "type": "note_off",
        "note": 44,
        "time": 23786,
        "channel": 9
      },
      {
        "type": "note_off",
        "note": 37,
        "time": 23792,
        "channel": 9
      },
      {
        "type": "note_on",
        "note": 38,
        "velocity": 24,
        "time": 23857,
        "channel": 9
      },
      {
        "type": "note_on",
        "note": 36,
        "velocity": 40,
        "time": 23867,
        "channel": 9
      },
      {
        "type": "note_off",
        "note": 38,
        "time": 23934,
        "channel": 9
      },
      {
        "type": "note_off",
        "note": 36,
        "time": 23943,
        "channel": 9
      },
      {
        "type": "note_on",
        "note": 38,
        "velocity": 7,
        "time": 23948,
        "channel": 9
      },
      {
        "type": "note_on",
        "note": 48,
        "velocity": 91,
        "time": 23972,
        "channel": 9
      },
      {
        "type": "note_off",
        "note": 38,
        "time": 24023,
        "channel": 9
      },
      {
        "type": "note_off",
        "note": 48,
        "time": 24048,
        "channel": 9
      },
      {
        "type": "note_on",
        "note": 48,
        "velocity": 75,
        "time": 24099,
        "channel": 9
      },
      {
        "type": "note_off",
        "note": 48,
        "time": 24174,
        "channel": 9
      },
      {
        "type": "note_on",
        "note": 44,
        "velocity": 95,
        "time": 24192,
        "channel": 9
      },
      {
        "type": "note_on",
        "note": 48,
        "velocity": 87,
        "time": 24207,
        "channel": 9
      },
      {
        "type": "note_off",
        "note": 44,
        "time": 24268,
        "channel": 9
      },
      {
        "type": "note_off",
        "note": 48,
        "time": 24283,
        "channel": 9
      },
      {
        "type": "note_on",
        "note": 36,
        "velocity": 36,
        "time": 24343,
        "channel": 9
      },
      {
        "type": "note_off",
        "note": 36,
        "time": 24420,
        "channel": 9
      },
      {
        "type": "note_on",
        "note": 43,
        "velocity": 127,
        "time": 24451,
        "channel": 9
      },
      {
        "type": "note_off",
        "note": 43,
        "time": 24526,
        "channel": 9
      },
      {
        "type": "note_on",
        "note": 36,
        "velocity": 36,
        "time": 24578,
        "channel": 9
      },
      {
        "type": "note_off",
        "note": 36,
        "time": 24654,
        "channel": 9
      },
      {
        "type": "note_on",
        "note": 44,
        "velocity": 92,
        "time": 24680,
        "channel": 9
      },
      {
        "type": "note_on",
        "note": 38,
        "velocity": 36,
        "time": 24716,
        "channel": 9
      },
      {
        "type": "note_off",
        "note": 44,
        "time": 24756,
        "channel": 9
      },
      {
        "type": "note_off",
        "note": 38,
        "time": 24768,
        "channel": 9
      },
      {
        "type": "note_on",
        "note": 38,
        "velocity": 40,
        "time": 24768,
        "channel": 9
      },
      {
        "type": "note_off",
        "note": 38,
        "time": 24792,
        "channel": 9
      },
      {
        "type": "note_on",
        "note": 38,
        "velocity": 70,
        "time": 24822,
        "channel": 9
      },
      {
        "type": "note_off",
        "note": 38,
        "time": 24844,
        "channel": 9
      },
      {
        "type": "note_on",
        "note": 36,
        "velocity": 59,
        "time": 24918,
        "channel": 9
      },
      {
        "type": "note_on",
        "note": 55,
        "velocity": 108,
        "time": 24919,
        "channel": 9
      },
      {
        "type": "note_off",
        "note": 36,
        "time": 24994,
        "channel": 9
      },
      {
        "type": "note_off",
        "note": 55,
        "time": 24994,
        "channel": 9
      },
      {
        "type": "note_on",
        "note": 38,
        "velocity": 31,
        "time": 25074,
        "channel": 9
      },
      {
        "type": "note_off",
        "note": 38,
        "time": 25150,
        "channel": 9
      },
      {
        "type": "note_on",
        "note": 44,
        "velocity": 97,
        "time": 25180,
        "channel": 9
      },
      {
        "type": "note_on",
        "note": 38,
        "velocity": 38,
        "time": 25189,
        "channel": 9
      },
      {
        "type": "note_off",
        "note": 44,
        "time": 25256,
        "channel": 9
      },
      {
        "type": "note_off",
        "note": 38,
        "time": 25265,
        "channel": 9
      },
      {
        "type": "note_on",
        "note": 36,
        "velocity": 57,
        "time": 25319,
        "channel": 9
      },
      {
        "type": "note_on",
        "note": 38,
        "velocity": 41,
        "time": 25340,
        "channel": 9
      },
      {
        "type": "note_off",
        "note": 36,
        "time": 25395,
        "channel": 9
      },
      {
        "type": "note_off",
        "note": 38,
        "time": 25416,
        "channel": 9
      },
      {
        "type": "note_on",
        "note": 38,
        "velocity": 93,
        "time": 25558,
        "channel": 9
      },
      {
        "type": "note_off",
        "note": 38,
        "time": 25634,
        "channel": 9
      },
      {
        "type": "note_on",
        "note": 44,
        "velocity": 92,
        "time": 25661,
        "channel": 9
      },
      {
        "type": "note_on",
        "note": 36,
        "velocity": 55,
        "time": 25662,
        "channel": 9
      },
      {
        "type": "note_on",
        "note": 38,
        "velocity": 43,
        "time": 25671,
        "channel": 9
      },
      {
        "type": "note_off",
        "note": 36,
        "time": 25737,
        "channel": 9
      },
      {
        "type": "note_off",
        "note": 44,
        "time": 25737,
        "channel": 9
      },
      {
        "type": "note_off",
        "note": 38,
        "time": 25747,
        "channel": 9
      },
      {
        "type": "note_on",
        "note": 38,
        "velocity": 35,
        "time": 25787,
        "channel": 9
      },
      {
        "type": "note_off",
        "note": 38,
        "time": 25863,
        "channel": 9
      },
      {
        "type": "note_on",
        "note": 40,
        "velocity": 118,
        "time": 25905,
        "channel": 9
      },
      {
        "type": "note_off",
        "note": 40,
        "time": 25981,
        "channel": 9
      },
      {
        "type": "note_on",
        "note": 36,
        "velocity": 47,
        "time": 26043,
        "channel": 9
      },
      {
        "type": "note_on",
        "note": 38,
        "velocity": 21,
        "time": 26045,
        "channel": 9
      },
      {
        "type": "note_off",
        "note": 36,
        "time": 26119,
        "channel": 9
      },
      {
        "type": "note_off",
        "note": 38,
        "time": 26120,
        "channel": 9
      },
      {
        "type": "note_on",
        "note": 44,
        "velocity": 92,
        "time": 26150,
        "channel": 9
      },
      {
        "type": "note_on",
        "note": 38,
        "velocity": 34,
        "time": 26153,
        "channel": 9
      },
      {
        "type": "note_off",
        "note": 44,
        "time": 26226,
        "channel": 9
      },
      {
        "type": "note_off",
        "note": 38,
        "time": 26230,
        "channel": 9
      },
      {
        "type": "note_on",
        "note": 38,
        "velocity": 80,
        "time": 26276,
        "channel": 9
      },
      {
        "type": "note_off",
        "note": 38,
        "time": 26352,
        "channel": 9
      },
      {
        "type": "note_on",
        "note": 36,
        "velocity": 38,
        "time": 26380,
        "channel": 9
      },
      {
        "type": "note_on",
        "note": 38,
        "velocity": 45,
        "time": 26387,
        "channel": 9
      },
      {
        "type": "note_off",
        "note": 36,
        "time": 26456,
        "channel": 9
      },
      {
        "type": "note_off",
        "note": 38,
        "time": 26463,
        "channel": 9
      },
      {
        "type": "note_on",
        "note": 36,
        "velocity": 40,
        "time": 26524,
        "channel": 9
      },
      {
        "type": "note_on",
        "note": 38,
        "velocity": 6,
        "time": 26550,
        "channel": 9
      },
      {
        "type": "note_off",
        "note": 36,
        "time": 26600,
        "channel": 9
      },
      {
        "type": "note_off",
        "note": 38,
        "time": 26626,
        "channel": 9
      },
      {
        "type": "note_on",
        "note": 43,
        "velocity": 127,
        "time": 26633,
        "channel": 9
      },
      {
        "type": "note_on",
        "note": 44,
        "velocity": 100,
        "time": 26636,
        "channel": 9
      },
      {
        "type": "note_off",
        "note": 43,
        "time": 26709,
        "channel": 9
      },
      {
        "type": "note_off",
        "note": 44,
        "time": 26712,
        "channel": 9
      },
      {
        "type": "note_on",
        "note": 38,
        "velocity": 36,
        "time": 26766,
        "channel": 9
      },
      {
        "type": "note_off",
        "note": 38,
        "time": 26842,
        "channel": 9
      },
      {
        "type": "note_on",
        "note": 38,
        "velocity": 36,
        "time": 26865,
        "channel": 9
      },
      {
        "type": "note_on",
        "note": 36,
        "velocity": 44,
        "time": 26866,
        "channel": 9
      },
      {
        "type": "note_off",
        "note": 38,
        "time": 26940,
        "channel": 9
      },
      {
        "type": "note_off",
        "note": 36,
        "time": 26942,
        "channel": 9
      },
      {
        "type": "note_on",
        "note": 38,
        "velocity": 29,
        "time": 27007,
        "channel": 9
      },
      {
        "type": "note_off",
        "note": 38,
        "time": 27083,
        "channel": 9
      },
      {
        "type": "note_on",
        "note": 44,
        "velocity": 92,
        "time": 27111,
        "channel": 9
      },
      {
        "type": "note_on",
        "note": 38,
        "velocity": 114,
        "time": 27112,
        "channel": 9
      },
      {
        "type": "note_off",
        "note": 38,
        "time": 27187,
        "channel": 9
      },
      {
        "type": "note_off",
        "note": 44,
        "time": 27187,
        "channel": 9
      },
      {
        "type": "note_on",
        "note": 38,
        "velocity": 33,
        "time": 27238,
        "channel": 9
      },
      {
        "type": "note_on",
        "note": 36,
        "velocity": 50,
        "time": 27249,
        "channel": 9
      },
      {
        "type": "note_off",
        "note": 38,
        "time": 27314,
        "channel": 9
      },
      {
        "type": "note_off",
        "note": 36,
        "time": 27324,
        "channel": 9
      },
      {
        "type": "note_on",
        "note": 38,
        "velocity": 27,
        "time": 27348,
        "channel": 9
      },
      {
        "type": "note_off",
        "note": 38,
        "time": 27417,
        "channel": 9
      },
      {
        "type": "note_on",
        "note": 38,
        "velocity": 39,
        "time": 27417,
        "channel": 9
      },
      {
        "type": "note_off",
        "note": 38,
        "time": 27424,
        "channel": 9
      },
      {
        "type": "note_on",
        "note": 38,
        "velocity": 95,
        "time": 27485,
        "channel": 9
      },
      {
        "type": "note_off",
        "note": 38,
        "time": 27494,
        "channel": 9
      },
      {
        "type": "note_on",
        "note": 38,
        "velocity": 31,
        "time": 27578,
        "channel": 9
      },
      {
        "type": "note_on",
        "note": 36,
        "velocity": 43,
        "time": 27583,
        "channel": 9
      },
      {
        "type": "note_on",
        "note": 44,
        "velocity": 92,
        "time": 27584,
        "channel": 9
      },
      {
        "type": "note_off",
        "note": 38,
        "time": 27654,
        "channel": 9
      },
      {
        "type": "note_off",
        "note": 36,
        "time": 27658,
        "channel": 9
      },
      {
        "type": "note_off",
        "note": 44,
        "time": 27660,
        "channel": 9
      },
      {
        "type": "note_on",
        "note": 38,
        "velocity": 33,
        "time": 27701,
        "channel": 9
      },
      {
        "type": "note_off",
        "note": 38,
        "time": 27777,
        "channel": 9
      },
      {
        "type": "note_on",
        "note": 40,
        "velocity": 100,
        "time": 27805,
        "channel": 9
      },
      {
        "type": "note_off",
        "note": 40,
        "time": 27880,
        "channel": 9
      },
      {
        "type": "note_on",
        "note": 36,
        "velocity": 43,
        "time": 27932,
        "channel": 9
      },
      {
        "type": "note_on",
        "note": 38,
        "velocity": 26,
        "time": 27960,
        "channel": 9
      },
      {
        "type": "note_off",
        "note": 36,
        "time": 28008,
        "channel": 9
      },
      {
        "type": "note_off",
        "note": 38,
        "time": 28036,
        "channel": 9
      },
      {
        "type": "note_on",
        "note": 48,
        "velocity": 84,
        "time": 28054,
        "channel": 9
      },
      {
        "type": "note_on",
        "note": 44,
        "velocity": 92,
        "time": 28062,
        "channel": 9
      },
      {
        "type": "note_off",
        "note": 48,
        "time": 28130,
        "channel": 9
      },
      {
        "type": "note_off",
        "note": 44,
        "time": 28138,
        "channel": 9
      },
      {
        "type": "note_on",
        "note": 48,
        "velocity": 94,
        "time": 28179,
        "channel": 9
      },
      {
        "type": "note_off",
        "note": 48,
        "time": 28255,
        "channel": 9
      },
      {
        "type": "note_on",
        "note": 38,
        "velocity": 29,
        "time": 28301,
        "channel": 9
      },
      {
        "type": "note_on",
        "note": 36,
        "velocity": 46,
        "time": 28302,
        "channel": 9
      },
      {
        "type": "note_off",
        "note": 38,
        "time": 28376,
        "channel": 9
      },
      {
        "type": "note_off",
        "note": 36,
        "time": 28378,
        "channel": 9
      },
      {
        "type": "note_on",
        "note": 38,
        "velocity": 34,
        "time": 28438,
        "channel": 9
      },
      {
        "type": "note_off",
        "note": 38,
        "time": 28514,
        "channel": 9
      },
      {
        "type": "note_on",
        "note": 43,
        "velocity": 127,
        "time": 28540,
        "channel": 9
      },
      {
        "type": "note_on",
        "note": 44,
        "velocity": 92,
        "time": 28543,
        "channel": 9
      },
      {
        "type": "note_off",
        "note": 43,
        "time": 28616,
        "channel": 9
      },
      {
        "type": "note_off",
        "note": 44,
        "time": 28619,
        "channel": 9
      },
      {
        "type": "note_on",
        "note": 38,
        "velocity": 36,
        "time": 28662,
        "channel": 9
      },
      {
        "type": "note_off",
        "note": 38,
        "time": 28737,
        "channel": 9
      },
      {
        "type": "note_on",
        "note": 36,
        "velocity": 45,
        "time": 28771,
        "channel": 9
      },
      {
        "type": "note_on",
        "note": 38,
        "velocity": 39,
        "time": 28780,
        "channel": 9
      },
      {
        "type": "note_off",
        "note": 36,
        "time": 28847,
        "channel": 9
      },
      {
        "type": "note_off",
        "note": 38,
        "time": 28856,
        "channel": 9
      },
      {
        "type": "note_on",
        "note": 38,
        "velocity": 37,
        "time": 28903,
        "channel": 9
      },
      {
        "type": "note_off",
        "note": 38,
        "time": 28979,
        "channel": 9
      },
      {
        "type": "note_on",
        "note": 38,
        "velocity": 83,
        "time": 29002,
        "channel": 9
      },
      {
        "type": "note_on",
        "note": 44,
        "velocity": 92,
        "time": 29011,
        "channel": 9
      },
      {
        "type": "note_off",
        "note": 38,
        "time": 29077,
        "channel": 9
      },
      {
        "type": "note_off",
        "note": 44,
        "time": 29086,
        "channel": 9
      },
      {
        "type": "note_on",
        "note": 38,
        "velocity": 31,
        "time": 29145,
        "channel": 9
      },
      {
        "type": "note_on",
        "note": 36,
        "velocity": 41,
        "time": 29174,
        "channel": 9
      },
      {
        "type": "note_off",
        "note": 38,
        "time": 29221,
        "channel": 9
      },
      {
        "type": "note_off",
        "note": 36,
        "time": 29250,
        "channel": 9
      },
      {
        "type": "note_on",
        "note": 38,
        "velocity": 28,
        "time": 29263,
        "channel": 9
      },
      {
        "type": "note_off",
        "note": 38,
        "time": 29339,
        "channel": 9
      },
      {
        "type": "note_on",
        "note": 38,
        "velocity": 98,
        "time": 29383,
        "channel": 9
      },
      {
        "type": "note_off",
        "note": 38,
        "time": 29459,
        "channel": 9
      },
      {
        "type": "note_on",
        "note": 36,
        "velocity": 43,
        "time": 29498,
        "channel": 9
      },
      {
        "type": "note_on",
        "note": 38,
        "velocity": 23,
        "time": 29507,
        "channel": 9
      },
      {
        "type": "note_on",
        "note": 44,
        "velocity": 80,
        "time": 29512,
        "channel": 9
      },
      {
        "type": "note_off",
        "note": 36,
        "time": 29574,
        "channel": 9
      },
      {
        "type": "note_off",
        "note": 38,
        "time": 29583,
        "channel": 9
      },
      {
        "type": "note_off",
        "note": 44,
        "time": 29587,
        "channel": 9
      },
      {
        "type": "note_on",
        "note": 38,
        "velocity": 24,
        "time": 29636,
        "channel": 9
      },
      {
        "type": "note_off",
        "note": 38,
        "time": 29711,
        "channel": 9
      },
      {
        "type": "note_on",
        "note": 38,
        "velocity": 103,
        "time": 29745,
        "channel": 9
      },
      {
        "type": "note_off",
        "note": 38,
        "time": 29820,
        "channel": 9
      },
      {
        "type": "note_on",
        "note": 36,
        "velocity": 42,
        "time": 29872,
        "channel": 9
      },
      {
        "type": "note_on",
        "note": 38,
        "velocity": 34,
        "time": 29889,
        "channel": 9
      },
      {
        "type": "note_off",
        "note": 36,
        "time": 29947,
        "channel": 9
      },
      {
        "type": "note_off",
        "note": 38,
        "time": 29965,
        "channel": 9
      },
      {
        "type": "note_on",
        "note": 44,
        "velocity": 82,
        "time": 29981,
        "channel": 9
      },
      {
        "type": "note_on",
        "note": 38,
        "velocity": 26,
        "time": 29999,
        "channel": 9
      },
      {
        "type": "note_off",
        "note": 44,
        "time": 30057,
        "channel": 9
      },
      {
        "type": "note_off",
        "note": 38,
        "time": 30069,
        "channel": 9
      },
      {
        "type": "note_on",
        "note": 38,
        "velocity": 30,
        "time": 30069,
        "channel": 9
      },
      {
        "type": "note_off",
        "note": 38,
        "time": 30075,
        "channel": 9
      },
      {
        "type": "note_on",
        "note": 38,
        "velocity": 99,
        "time": 30130,
        "channel": 9
      },
      {
        "type": "note_off",
        "note": 38,
        "time": 30145,
        "channel": 9
      },
      {
        "type": "note_on",
        "note": 36,
        "velocity": 46,
        "time": 30219,
        "channel": 9
      },
      {
        "type": "note_on",
        "note": 38,
        "velocity": 28,
        "time": 30232,
        "channel": 9
      },
      {
        "type": "note_off",
        "note": 36,
        "time": 30280,
        "channel": 9
      },
      {
        "type": "note_on",
        "note": 36,
        "velocity": 7,
        "time": 30280,
        "channel": 9
      },
      {
        "type": "note_off",
        "note": 36,
        "time": 30295,
        "channel": 9
      },
      {
        "type": "note_off",
        "note": 38,
        "time": 30308,
        "channel": 9
      },
      {
        "type": "note_on",
        "note": 38,
        "velocity": 32,
        "time": 30363,
        "channel": 9
      },
      {
        "type": "note_off",
        "note": 38,
        "time": 30438,
        "channel": 9
      },
      {
        "type": "note_on",
        "note": 44,
        "velocity": 97,
        "time": 30456,
        "channel": 9
      },
      {
        "type": "note_on",
        "note": 40,
        "velocity": 92,
        "time": 30461,
        "channel": 9
      },
      {
        "type": "note_off",
        "note": 44,
        "time": 30532,
        "channel": 9
      },
      {
        "type": "note_off",
        "note": 40,
        "time": 30537,
        "channel": 9
      },
      {
        "type": "note_on",
        "note": 38,
        "velocity": 33,
        "time": 30596,
        "channel": 9
      },
      {
        "type": "note_off",
        "note": 38,
        "time": 30672,
        "channel": 9
      },
      {
        "type": "note_on",
        "note": 36,
        "velocity": 40,
        "time": 30696,
        "channel": 9
      },
      {
        "type": "note_on",
        "note": 38,
        "velocity": 26,
        "time": 30697,
        "channel": 9
      },
      {
        "type": "note_off",
        "note": 36,
        "time": 30772,
        "channel": 9
      },
      {
        "type": "note_off",
        "note": 38,
        "time": 30772,
        "channel": 9
      },
      {
        "type": "note_on",
        "note": 38,
        "velocity": 18,
        "time": 30834,
        "channel": 9
      },
      {
        "type": "note_off",
        "note": 38,
        "time": 30910,
        "channel": 9
      },
      {
        "type": "note_on",
        "note": 44,
        "velocity": 105,
        "time": 30930,
        "channel": 9
      },
      {
        "type": "note_on",
        "note": 48,
        "velocity": 100,
        "time": 30939,
        "channel": 9
      },
      {
        "type": "note_off",
        "note": 44,
        "time": 31005,
        "channel": 9
      },
      {
        "type": "note_off",
        "note": 48,
        "time": 31014,
        "channel": 9
      },
      {
        "type": "note_on",
        "note": 38,
        "velocity": 31,
        "time": 31066,
        "channel": 9
      },
      {
        "type": "note_on",
        "note": 36,
        "velocity": 48,
        "time": 31070,
        "channel": 9
      },
      {
        "type": "note_off",
        "note": 38,
        "time": 31142,
        "channel": 9
      },
      {
        "type": "note_off",
        "note": 36,
        "time": 31146,
        "channel": 9
      },
      {
        "type": "note_on",
        "note": 48,
        "velocity": 84,
        "time": 31183,
        "channel": 9
      },
      {
        "type": "note_on",
        "note": 42,
        "velocity": 15,
        "time": 31193,
        "channel": 9
      },
      {
        "type": "note_off",
        "note": 48,
        "time": 31258,
        "channel": 9
      },
      {
        "type": "note_off",
        "note": 42,
        "time": 31269,
        "channel": 9
      },
      {
        "type": "note_on",
        "note": 48,
        "velocity": 93,
        "time": 31308,
        "channel": 9
      },
      {
        "type": "note_on",
        "note": 46,
        "velocity": 12,
        "time": 31319,
        "channel": 9
      },
      {
        "type": "note_off",
        "note": 48,
        "time": 31384,
        "channel": 9
      },
      {
        "type": "note_off",
        "note": 46,
        "time": 31395,
        "channel": 9
      },
      {
        "type": "note_on",
        "note": 36,
        "velocity": 52,
        "time": 31403,
        "channel": 9
      },
      {
        "type": "note_on",
        "note": 38,
        "velocity": 32,
        "time": 31407,
        "channel": 9
      },
      {
        "type": "note_on",
        "note": 44,
        "velocity": 97,
        "time": 31415,
        "channel": 9
      },
      {
        "type": "note_off",
        "note": 36,
        "time": 31479,
        "channel": 9
      },
      {
        "type": "note_off",
        "note": 38,
        "time": 31483,
        "channel": 9
      },
      {
        "type": "note_off",
        "note": 44,
        "time": 31491,
        "channel": 9
      },
      {
        "type": "note_on",
        "note": 38,
        "velocity": 38,
        "time": 31541,
        "channel": 9
      },
      {
        "type": "note_off",
        "note": 38,
        "time": 31618,
        "channel": 9
      },
      {
        "type": "note_on",
        "note": 43,
        "velocity": 122,
        "time": 31644,
        "channel": 9
      },
      {
        "type": "note_off",
        "note": 43,
        "time": 31721,
        "channel": 9
      },
      {
        "type": "note_on",
        "note": 36,
        "velocity": 47,
        "time": 31792,
        "channel": 9
      },
      {
        "type": "note_on",
        "note": 38,
        "velocity": 23,
        "time": 31792,
        "channel": 9
      },
      {
        "type": "note_off",
        "note": 36,
        "time": 31868,
        "channel": 9
      },
      {
        "type": "note_off",
        "note": 38,
        "time": 31868,
        "channel": 9
      },
      {
        "type": "note_on",
        "note": 44,
        "velocity": 97,
        "time": 31894,
        "channel": 9
      },
      {
        "type": "note_on",
        "note": 38,
        "velocity": 26,
        "time": 31911,
        "channel": 9
      },
      {
        "type": "note_off",
        "note": 44,
        "time": 31970,
        "channel": 9
      },
      {
        "type": "note_off",
        "note": 38,
        "time": 31987,
        "channel": 9
      },
      {
        "type": "note_on",
        "note": 43,
        "velocity": 114,
        "time": 32019,
        "channel": 9
      },
      {
        "type": "note_off",
        "note": 43,
        "time": 32095,
        "channel": 9
      },
      {
        "type": "note_on",
        "note": 36,
        "velocity": 38,
        "time": 32126,
        "channel": 9
      },
      {
        "type": "note_on",
        "note": 38,
        "velocity": 31,
        "time": 32137,
        "channel": 9
      },
      {
        "type": "note_off",
        "note": 36,
        "time": 32202,
        "channel": 9
      },
      {
        "type": "note_off",
        "note": 38,
        "time": 32212,
        "channel": 9
      },
      {
        "type": "note_on",
        "note": 36,
        "velocity": 45,
        "time": 32270,
        "channel": 9
      },
      {
        "type": "note_off",
        "note": 36,
        "time": 32346,
        "channel": 9
      },
      {
        "type": "note_on",
        "note": 38,
        "velocity": 94,
        "time": 32365,
        "channel": 9
      },
      {
        "type": "note_on",
        "note": 59,
        "velocity": 127,
        "time": 32365,
        "channel": 9
      },
      {
        "type": "note_on",
        "note": 44,
        "velocity": 107,
        "time": 32366,
        "channel": 9
      },
      {
        "type": "note_off",
        "note": 38,
        "time": 32441,
        "channel": 9
      },
      {
        "type": "note_off",
        "note": 44,
        "time": 32441,
        "channel": 9
      },
      {
        "type": "note_off",
        "note": 59,
        "time": 32441,
        "channel": 9
      },
      {
        "type": "note_on",
        "note": 38,
        "velocity": 46,
        "time": 32511,
        "channel": 9
      },
      {
        "type": "note_off",
        "note": 38,
        "time": 32588,
        "channel": 9
      },
      {
        "type": "note_on",
        "note": 36,
        "velocity": 52,
        "time": 32601,
        "channel": 9
      },
      {
        "type": "note_off",
        "note": 36,
        "time": 32677,
        "channel": 9
      },
      {
        "type": "note_on",
        "note": 38,
        "velocity": 20,
        "time": 32693,
        "channel": 9
      },
      {
        "type": "note_off",
        "note": 38,
        "time": 32769,
        "channel": 9
      },
      {
        "type": "note_on",
        "note": 44,
        "velocity": 102,
        "time": 32841,
        "channel": 9
      },
      {
        "type": "note_on",
        "note": 48,
        "velocity": 106,
        "time": 32851,
        "channel": 9
      },
      {
        "type": "note_off",
        "note": 44,
        "time": 32917,
        "channel": 9
      },
      {
        "type": "note_off",
        "note": 48,
        "time": 32928,
        "channel": 9
      },
      {
        "type": "note_on",
        "note": 38,
        "velocity": 30,
        "time": 32961,
        "channel": 9
      },
      {
        "type": "note_on",
        "note": 36,
        "velocity": 49,
        "time": 32986,
        "channel": 9
      },
      {
        "type": "note_off",
        "note": 38,
        "time": 33037,
        "channel": 9
      },
      {
        "type": "note_off",
        "note": 36,
        "time": 33062,
        "channel": 9
      },
      {
        "type": "note_on",
        "note": 48,
        "velocity": 46,
        "time": 33096,
        "channel": 9
      },
      {
        "type": "note_off",
        "note": 48,
        "time": 33172,
        "channel": 9
      },
      {
        "type": "note_on",
        "note": 48,
        "velocity": 88,
        "time": 33225,
        "channel": 9
      },
      {
        "type": "note_off",
        "note": 48,
        "time": 33301,
        "channel": 9
      },
      {
        "type": "note_on",
        "note": 36,
        "velocity": 46,
        "time": 33318,
        "channel": 9
      },
      {
        "type": "note_on",
        "note": 44,
        "velocity": 95,
        "time": 33332,
        "channel": 9
      },
      {
        "type": "note_on",
        "note": 38,
        "velocity": 38,
        "time": 33352,
        "channel": 9
      },
      {
        "type": "note_off",
        "note": 36,
        "time": 33394,
        "channel": 9
      },
      {
        "type": "note_off",
        "note": 44,
        "time": 33408,
        "channel": 9
      },
      {
        "type": "note_off",
        "note": 38,
        "time": 33428,
        "channel": 9
      },
      {
        "type": "note_on",
        "note": 38,
        "velocity": 42,
        "time": 33472,
        "channel": 9
      },
      {
        "type": "note_off",
        "note": 38,
        "time": 33548,
        "channel": 9
      },
      {
        "type": "note_on",
        "note": 48,
        "velocity": 114,
        "time": 33564,
        "channel": 9
      },
      {
        "type": "note_off",
        "note": 48,
        "time": 33640,
        "channel": 9
      },
      {
        "type": "note_on",
        "note": 38,
        "velocity": 32,
        "time": 33697,
        "channel": 9
      },
      {
        "type": "note_on",
        "note": 36,
        "velocity": 46,
        "time": 33716,
        "channel": 9
      },
      {
        "type": "note_off",
        "note": 38,
        "time": 33773,
        "channel": 9
      },
      {
        "type": "note_off",
        "note": 36,
        "time": 33792,
        "channel": 9
      },
      {
        "type": "note_on",
        "note": 48,
        "velocity": 27,
        "time": 33820,
        "channel": 9
      },
      {
        "type": "note_on",
        "note": 44,
        "velocity": 100,
        "time": 33827,
        "channel": 9
      },
      {
        "type": "note_off",
        "note": 48,
        "time": 33896,
        "channel": 9
      },
      {
        "type": "note_off",
        "note": 44,
        "time": 33903,
        "channel": 9
      },
      {
        "type": "note_on",
        "note": 48,
        "velocity": 73,
        "time": 33945,
        "channel": 9
      },
      {
        "type": "note_off",
        "note": 48,
        "time": 34021,
        "channel": 9
      },
      {
        "type": "note_on",
        "note": 38,
        "velocity": 39,
        "time": 34055,
        "channel": 9
      },
      {
        "type": "note_on",
        "note": 36,
        "velocity": 42,
        "time": 34063,
        "channel": 9
      },
      {
        "type": "note_off",
        "note": 38,
        "time": 34132,
        "channel": 9
      },
      {
        "type": "note_off",
        "note": 36,
        "time": 34139,
        "channel": 9
      },
      {
        "type": "note_on",
        "note": 36,
        "velocity": 38,
        "time": 34209,
        "channel": 9
      },
      {
        "type": "note_off",
        "note": 36,
        "time": 34285,
        "channel": 9
      },
      {
        "type": "note_on",
        "note": 38,
        "velocity": 92,
        "time": 34296,
        "channel": 9
      },
      {
        "type": "note_on",
        "note": 48,
        "velocity": 119,
        "time": 34300,
        "channel": 9
      },
      {
        "type": "note_on",
        "note": 44,
        "velocity": 107,
        "time": 34310,
        "channel": 9
      },
      {
        "type": "note_off",
        "note": 38,
        "time": 34372,
        "channel": 9
      },
      {
        "type": "note_off",
        "note": 48,
        "time": 34376,
        "channel": 9
      },
      {
        "type": "note_off",
        "note": 44,
        "time": 34386,
        "channel": 9
      },
      {
        "type": "note_on",
        "note": 38,
        "velocity": 61,
        "time": 34432,
        "channel": 9
      },
      {
        "type": "note_off",
        "note": 38,
        "time": 34508,
        "channel": 9
      },
      {
        "type": "note_on",
        "note": 36,
        "velocity": 45,
        "time": 34535,
        "channel": 9
      },
      {
        "type": "note_off",
        "note": 36,
        "time": 34610,
        "channel": 9
      },
      {
        "type": "note_on",
        "note": 48,
        "velocity": 33,
        "time": 34687,
        "channel": 9
      },
      {
        "type": "note_off",
        "note": 48,
        "time": 34763,
        "channel": 9
      },
      {
        "type": "note_on",
        "note": 38,
        "velocity": 81,
        "time": 34780,
        "channel": 9
      },
      {
        "type": "note_on",
        "note": 44,
        "velocity": 102,
        "time": 34791,
        "channel": 9
      },
      {
        "type": "note_off",
        "note": 38,
        "time": 34856,
        "channel": 9
      },
      {
        "type": "note_off",
        "note": 44,
        "time": 34867,
        "channel": 9
      },
      {
        "type": "note_on",
        "note": 36,
        "velocity": 48,
        "time": 34919,
        "channel": 9
      },
      {
        "type": "note_on",
        "note": 48,
        "velocity": 23,
        "time": 34929,
        "channel": 9
      },
      {
        "type": "note_off",
        "note": 36,
        "time": 34995,
        "channel": 9
      },
      {
        "type": "note_off",
        "note": 48,
        "time": 35005,
        "channel": 9
      },
      {
        "type": "note_on",
        "note": 48,
        "velocity": 43,
        "time": 35029,
        "channel": 9
      },
      {
        "type": "note_off",
        "note": 48,
        "time": 35105,
        "channel": 9
      },
      {
        "type": "note_on",
        "note": 38,
        "velocity": 83,
        "time": 35147,
        "channel": 9
      },
      {
        "type": "note_off",
        "note": 38,
        "time": 35223,
        "channel": 9
      },
      {
        "type": "note_on",
        "note": 36,
        "velocity": 45,
        "time": 35251,
        "channel": 9
      },
      {
        "type": "note_on",
        "note": 44,
        "velocity": 97,
        "time": 35263,
        "channel": 9
      },
      {
        "type": "note_on",
        "note": 48,
        "velocity": 52,
        "time": 35263,
        "channel": 9
      },
      {
        "type": "note_off",
        "note": 36,
        "time": 35327,
        "channel": 9
      },
      {
        "type": "note_off",
        "note": 44,
        "time": 35338,
        "channel": 9
      },
      {
        "type": "note_off",
        "note": 48,
        "time": 35338,
        "channel": 9
      },
      {
        "type": "note_on",
        "note": 38,
        "velocity": 34,
        "time": 35383,
        "channel": 9
      },
      {
        "type": "note_off",
        "note": 38,
        "time": 35459,
        "channel": 9
      },
      {
        "type": "note_on",
        "note": 36,
        "velocity": 49,
        "time": 35493,
        "channel": 9
      },
      {
        "type": "note_on",
        "note": 48,
        "velocity": 56,
        "time": 35508,
        "channel": 9
      },
      {
        "type": "note_off",
        "note": 36,
        "time": 35569,
        "channel": 9
      },
      {
        "type": "note_off",
        "note": 48,
        "time": 35584,
        "channel": 9
      },
      {
        "type": "note_on",
        "note": 48,
        "velocity": 68,
        "time": 35647,
        "channel": 9
      },
      {
        "type": "note_off",
        "note": 48,
        "time": 35723,
        "channel": 9
      },
      {
        "type": "note_on",
        "note": 44,
        "velocity": 100,
        "time": 35752,
        "channel": 9
      },
      {
        "type": "note_on",
        "note": 38,
        "velocity": 31,
        "time": 35754,
        "channel": 9
      },
      {
        "type": "note_off",
        "note": 38,
        "time": 35829,
        "channel": 9
      },
      {
        "type": "note_off",
        "note": 44,
        "time": 35829,
        "channel": 9
      },
      {
        "type": "note_on",
        "note": 36,
        "velocity": 51,
        "time": 35876,
        "channel": 9
      },
      {
        "type": "note_on",
        "note": 50,
        "velocity": 31,
        "time": 35881,
        "channel": 9
      },
      {
        "type": "note_off",
        "note": 36,
        "time": 35952,
        "channel": 9
      },
      {
        "type": "note_off",
        "note": 50,
        "time": 35957,
        "channel": 9
      },
      {
        "type": "note_on",
        "note": 48,
        "velocity": 44,
        "time": 35987,
        "channel": 9
      },
      {
        "type": "note_off",
        "note": 48,
        "time": 36063,
        "channel": 9
      },
      {
        "type": "note_on",
        "note": 38,
        "velocity": 86,
        "time": 36117,
        "channel": 9
      },
      {
        "type": "note_off",
        "note": 38,
        "time": 36193,
        "channel": 9
      },
      {
        "type": "note_on",
        "note": 36,
        "velocity": 44,
        "time": 36204,
        "channel": 9
      },
      {
        "type": "note_on",
        "note": 38,
        "velocity": 114,
        "time": 36220,
        "channel": 9
      },
      {
        "type": "note_on",
        "note": 44,
        "velocity": 102,
        "time": 36221,
        "channel": 9
      },
      {
        "type": "note_off",
        "note": 36,
        "time": 36281,
        "channel": 9
      },
      {
        "type": "note_off",
        "note": 38,
        "time": 36296,
        "channel": 9
      },
      {
        "type": "note_off",
        "note": 44,
        "time": 36296,
        "channel": 9
      },
      {
        "type": "note_on",
        "note": 38,
        "velocity": 38,
        "time": 36357,
        "channel": 9
      },
      {
        "type": "note_off",
        "note": 38,
        "time": 36407,
        "channel": 9
      },
      {
        "type": "note_on",
        "note": 38,
        "velocity": 40,
        "time": 36407,
        "channel": 9
      },
      {
        "type": "note_off",
        "note": 38,
        "time": 36433,
        "channel": 9
      },
      {
        "type": "note_on",
        "note": 38,
        "velocity": 31,
        "time": 36443,
        "channel": 9
      },
      {
        "type": "note_on",
        "note": 36,
        "velocity": 50,
        "time": 36473,
        "channel": 9
      },
      {
        "type": "note_on",
        "note": 48,
        "velocity": 59,
        "time": 36476,
        "channel": 9
      },
      {
        "type": "note_off",
        "note": 38,
        "time": 36483,
        "channel": 9
      },
      {
        "type": "note_off",
        "note": 36,
        "time": 36548,
        "channel": 9
      },
      {
        "type": "note_off",
        "note": 48,
        "time": 36551,
        "channel": 9
      },
      {
        "type": "note_on",
        "note": 48,
        "velocity": 49,
        "time": 36606,
        "channel": 9
      },
      {
        "type": "note_off",
        "note": 48,
        "time": 36681,
        "channel": 9
      },
      {
        "type": "note_on",
        "note": 44,
        "velocity": 100,
        "time": 36706,
        "channel": 9
      },
      {
        "type": "note_on",
        "note": 38,
        "velocity": 78,
        "time": 36714,
        "channel": 9
      },
      {
        "type": "note_off",
        "note": 44,
        "time": 36782,
        "channel": 9
      },
      {
        "type": "note_off",
        "note": 38,
        "time": 36790,
        "channel": 9
      },
      {
        "type": "note_on",
        "note": 48,
        "velocity": 46,
        "time": 36848,
        "channel": 9
      },
      {
        "type": "note_on",
        "note": 36,
        "velocity": 49,
        "time": 36852,
        "channel": 9
      },
      {
        "type": "note_off",
        "note": 48,
        "time": 36924,
        "channel": 9
      },
      {
        "type": "note_off",
        "note": 36,
        "time": 36928,
        "channel": 9
      },
      {
        "type": "note_on",
        "note": 48,
        "velocity": 73,
        "time": 36948,
        "channel": 9
      },
      {
        "type": "note_off",
        "note": 48,
        "time": 37024,
        "channel": 9
      },
      {
        "type": "note_on",
        "note": 38,
        "velocity": 52,
        "time": 37088,
        "channel": 9
      },
      {
        "type": "note_off",
        "note": 38,
        "time": 37164,
        "channel": 9
      },
      {
        "type": "note_on",
        "note": 36,
        "velocity": 47,
        "time": 37190,
        "channel": 9
      },
      {
        "type": "note_on",
        "note": 48,
        "velocity": 71,
        "time": 37193,
        "channel": 9
      },
      {
        "type": "note_on",
        "note": 44,
        "velocity": 95,
        "time": 37194,
        "channel": 9
      },
      {
        "type": "note_off",
        "note": 36,
        "time": 37266,
        "channel": 9
      },
      {
        "type": "note_off",
        "note": 44,
        "time": 37270,
        "channel": 9
      },
      {
        "type": "note_off",
        "note": 48,
        "time": 37270,
        "channel": 9
      },
      {
        "type": "note_on",
        "note": 38,
        "velocity": 39,
        "time": 37320,
        "channel": 9
      },
      {
        "type": "note_off",
        "note": 38,
        "time": 37396,
        "channel": 9
      },
      {
        "type": "note_on",
        "note": 48,
        "velocity": 58,
        "time": 37429,
        "channel": 9
      },
      {
        "type": "note_on",
        "note": 36,
        "velocity": 44,
        "time": 37438,
        "channel": 9
      },
      {
        "type": "note_off",
        "note": 48,
        "time": 37504,
        "channel": 9
      },
      {
        "type": "note_off",
        "note": 36,
        "time": 37514,
        "channel": 9
      },
      {
        "type": "note_on",
        "note": 48,
        "velocity": 90,
        "time": 37570,
        "channel": 9
      },
      {
        "type": "note_off",
        "note": 48,
        "time": 37646,
        "channel": 9
      },
      {
        "type": "note_on",
        "note": 38,
        "velocity": 48,
        "time": 37662,
        "channel": 9
      },
      {
        "type": "note_on",
        "note": 44,
        "velocity": 92,
        "time": 37672,
        "channel": 9
      },
      {
        "type": "note_off",
        "note": 38,
        "time": 37737,
        "channel": 9
      },
      {
        "type": "note_off",
        "note": 44,
        "time": 37748,
        "channel": 9
      },
      {
        "type": "note_on",
        "note": 48,
        "velocity": 57,
        "time": 37800,
        "channel": 9
      },
      {
        "type": "note_on",
        "note": 36,
        "velocity": 41,
        "time": 37803,
        "channel": 9
      },
      {
        "type": "note_off",
        "note": 48,
        "time": 37876,
        "channel": 9
      },
      {
        "type": "note_off",
        "note": 36,
        "time": 37879,
        "channel": 9
      },
      {
        "type": "note_on",
        "note": 48,
        "velocity": 73,
        "time": 37907,
        "channel": 9
      },
      {
        "type": "note_off",
        "note": 48,
        "time": 37982,
        "channel": 9
      },
      {
        "type": "note_on",
        "note": 38,
        "velocity": 40,
        "time": 38043,
        "channel": 9
      },
      {
        "type": "note_off",
        "note": 38,
        "time": 38094,
        "channel": 9
      },
      {
        "type": "note_on",
        "note": 38,
        "velocity": 45,
        "time": 38094,
        "channel": 9
      },
      {
        "type": "note_off",
        "note": 38,
        "time": 38119,
        "channel": 9
      },
      {
        "type": "note_on",
        "note": 38,
        "velocity": 37,
        "time": 38129,
        "channel": 9
      },
      {
        "type": "note_on",
        "note": 36,
        "velocity": 45,
        "time": 38143,
        "channel": 9
      },
      {
        "type": "note_on",
        "note": 40,
        "velocity": 96,
        "time": 38150,
        "channel": 9
      },
      {
        "type": "note_off",
        "note": 38,
        "time": 38170,
        "channel": 9
      },
      {
        "type": "note_off",
        "note": 36,
        "time": 38219,
        "channel": 9
      },
      {
        "type": "note_off",
        "note": 40,
        "time": 38225,
        "channel": 9
      },
      {
        "type": "note_on",
        "note": 38,
        "velocity": 37,
        "time": 38286,
        "channel": 9
      },
      {
        "type": "note_off",
        "note": 38,
        "time": 38362,
        "channel": 9
      },
      {
        "type": "note_on",
        "note": 48,
        "velocity": 57,
        "time": 38393,
        "channel": 9
      },
      {
        "type": "note_on",
        "note": 36,
        "velocity": 45,
        "time": 38402,
        "channel": 9
      },
      {
        "type": "note_off",
        "note": 48,
        "time": 38468,
        "channel": 9
      },
      {
        "type": "note_off",
        "note": 36,
        "time": 38477,
        "channel": 9
      },
      {
        "type": "note_on",
        "note": 48,
        "velocity": 64,
        "time": 38526,
        "channel": 9
      },
      {
        "type": "note_off",
        "note": 48,
        "time": 38601,
        "channel": 9
      },
      {
        "type": "note_on",
        "note": 38,
        "velocity": 67,
        "time": 38628,
        "channel": 9
      },
      {
        "type": "note_off",
        "note": 38,
        "time": 38704,
        "channel": 9
      },
      {
        "type": "note_on",
        "note": 48,
        "velocity": 54,
        "time": 38771,
        "channel": 9
      },
      {
        "type": "note_on",
        "note": 36,
        "velocity": 47,
        "time": 38778,
        "channel": 9
      },
      {
        "type": "note_off",
        "note": 48,
        "time": 38847,
        "channel": 9
      },
      {
        "type": "note_off",
        "note": 36,
        "time": 38854,
        "channel": 9
      },
      {
        "type": "note_on",
        "note": 48,
        "velocity": 56,
        "time": 38875,
        "channel": 9
      },
      {
        "type": "note_off",
        "note": 48,
        "time": 38951,
        "channel": 9
      },
      {
        "type": "note_on",
        "note": 38,
        "velocity": 84,
        "time": 39000,
        "channel": 9
      },
      {
        "type": "note_off",
        "note": 38,
        "time": 39076,
        "channel": 9
      },
      {
        "type": "note_on",
        "note": 44,
        "velocity": 77,
        "time": 39084,
        "channel": 9
      },
      {
        "type": "note_on",
        "note": 36,
        "velocity": 42,
        "time": 39110,
        "channel": 9
      },
      {
        "type": "note_on",
        "note": 48,
        "velocity": 52,
        "time": 39116,
        "channel": 9
      },
      {
        "type": "note_off",
        "note": 44,
        "time": 39160,
        "channel": 9
      },
      {
        "type": "note_off",
        "note": 36,
        "time": 39186,
        "channel": 9
      },
      {
        "type": "note_off",
        "note": 48,
        "time": 39192,
        "channel": 9
      },
      {
        "type": "note_on",
        "note": 38,
        "velocity": 44,
        "time": 39244,
        "channel": 9
      },
      {
        "type": "note_off",
        "note": 38,
        "time": 39320,
        "channel": 9
      },
      {
        "type": "note_on",
        "note": 36,
        "velocity": 43,
        "time": 39343,
        "channel": 9
      },
      {
        "type": "note_on",
        "note": 48,
        "velocity": 62,
        "time": 39357,
        "channel": 9
      },
      {
        "type": "note_off",
        "note": 36,
        "time": 39419,
        "channel": 9
      },
      {
        "type": "note_off",
        "note": 48,
        "time": 39432,
        "channel": 9
      },
      {
        "type": "note_on",
        "note": 22,
        "velocity": 96,
        "time": 39477,
        "channel": 9
      },
      {
        "type": "note_off",
        "note": 22,
        "time": 39553,
        "channel": 9
      },
      {
        "type": "note_on",
        "note": 44,
        "velocity": 100,
        "time": 39577,
        "channel": 9
      },
      {
        "type": "note_on",
        "note": 48,
        "velocity": 52,
        "time": 39583,
        "channel": 9
      },
      {
        "type": "note_off",
        "note": 44,
        "time": 39653,
        "channel": 9
      },
      {
        "type": "note_off",
        "note": 48,
        "time": 39659,
        "channel": 9
      },
      {
        "type": "note_on",
        "note": 36,
        "velocity": 50,
        "time": 39692,
        "channel": 9
      },
      {
        "type": "note_off",
        "note": 36,
        "time": 39768,
        "channel": 9
      },
      {
        "type": "note_on",
        "note": 43,
        "velocity": 127,
        "time": 39818,
        "channel": 9
      },
      {
        "type": "note_off",
        "note": 43,
        "time": 39894,
        "channel": 9
      },
      {
        "type": "note_on",
        "note": 38,
        "velocity": 31,
        "time": 39936,
        "channel": 9
      },
      {
        "type": "note_off",
        "note": 38,
        "time": 39992,
        "channel": 9
      },
      {
        "type": "note_on",
        "note": 38,
        "velocity": 35,
        "time": 39992,
        "channel": 9
      },
      {
        "type": "note_off",
        "note": 38,
        "time": 40012,
        "channel": 9
      },
      {
        "type": "note_on",
        "note": 38,
        "velocity": 35,
        "time": 40047,
        "channel": 9
      },
      {
        "type": "note_on",
        "note": 44,
        "velocity": 95,
        "time": 40054,
        "channel": 9
      },
      {
        "type": "note_on",
        "note": 36,
        "velocity": 15,
        "time": 40056,
        "channel": 9
      },
      {
        "type": "note_off",
        "note": 38,
        "time": 40068,
        "channel": 9
      },
      {
        "type": "note_on",
        "note": 38,
        "velocity": 51,
        "time": 40102,
        "channel": 9
      },
      {
        "type": "note_off",
        "note": 38,
        "time": 40123,
        "channel": 9
      },
      {
        "type": "note_off",
        "note": 44,
        "time": 40130,
        "channel": 9
      },
      {
        "type": "note_off",
        "note": 36,
        "time": 40132,
        "channel": 9
      },
      {
        "type": "note_on",
        "note": 38,
        "velocity": 31,
        "time": 40168,
        "channel": 9
      },
      {
        "type": "note_off",
        "note": 38,
        "time": 40177,
        "channel": 9
      },
      {
        "type": "note_on",
        "note": 38,
        "velocity": 38,
        "time": 40221,
        "channel": 9
      },
      {
        "type": "note_off",
        "note": 38,
        "time": 40243,
        "channel": 9
      },
      {
        "type": "note_on",
        "note": 55,
        "velocity": 85,
        "time": 40277,
        "channel": 9
      },
      {
        "type": "note_on",
        "note": 36,
        "velocity": 60,
        "time": 40278,
        "channel": 9
      },
      {
        "type": "note_off",
        "note": 55,
        "time": 40353,
        "channel": 9
      },
      {
        "type": "note_off",
        "note": 36,
        "time": 40354,
        "channel": 9
      },
      {
        "type": "note_on",
        "note": 38,
        "velocity": 21,
        "time": 40483,
        "channel": 9
      },
      {
        "type": "note_on",
        "note": 44,
        "velocity": 85,
        "time": 40510,
        "channel": 9
      },
      {
        "type": "note_off",
        "note": 38,
        "time": 40559,
        "channel": 9
      },
      {
        "type": "note_off",
        "note": 44,
        "time": 40586,
        "channel": 9
      },
      {
        "type": "note_on",
        "note": 36,
        "velocity": 49,
        "time": 40672,
        "channel": 9
      },
      {
        "type": "note_on",
        "note": 48,
        "velocity": 54,
        "time": 40677,
        "channel": 9
      },
      {
        "type": "note_off",
        "note": 36,
        "time": 40748,
        "channel": 9
      },
      {
        "type": "note_off",
        "note": 48,
        "time": 40753,
        "channel": 9
      },
      {
        "type": "note_on",
        "note": 48,
        "velocity": 49,
        "time": 40774,
        "channel": 9
      },
      {
        "type": "note_off",
        "note": 48,
        "time": 40850,
        "channel": 9
      },
      {
        "type": "note_on",
        "note": 38,
        "velocity": 26,
        "time": 40915,
        "channel": 9
      },
      {
        "type": "note_off",
        "note": 38,
        "time": 40991,
        "channel": 9
      },
      {
        "type": "note_on",
        "note": 48,
        "velocity": 114,
        "time": 41012,
        "channel": 9
      },
      {
        "type": "note_on",
        "note": 44,
        "velocity": 87,
        "time": 41019,
        "channel": 9
      },
      {
        "type": "note_on",
        "note": 36,
        "velocity": 40,
        "time": 41022,
        "channel": 9
      },
      {
        "type": "note_off",
        "note": 48,
        "time": 41088,
        "channel": 9
      },
      {
        "type": "note_off",
        "note": 44,
        "time": 41095,
        "channel": 9
      },
      {
        "type": "note_off",
        "note": 36,
        "time": 41098,
        "channel": 9
      },
      {
        "type": "note_on",
        "note": 38,
        "velocity": 26,
        "time": 41128,
        "channel": 9
      },
      {
        "type": "note_off",
        "note": 38,
        "time": 41148,
        "channel": 9
      },
      {
        "type": "note_on",
        "note": 38,
        "velocity": 21,
        "time": 41148,
        "channel": 9
      },
      {
        "type": "note_off",
        "note": 38,
        "time": 41204,
        "channel": 9
      },
      {
        "type": "note_on",
        "note": 48,
        "velocity": 42,
        "time": 41270,
        "channel": 9
      },
      {
        "type": "note_on",
        "note": 36,
        "velocity": 46,
        "time": 41271,
        "channel": 9
      },
      {
        "type": "note_off",
        "note": 36,
        "time": 41346,
        "channel": 9
      },
      {
        "type": "note_off",
        "note": 48,
        "time": 41346,
        "channel": 9
      },
      {
        "type": "note_on",
        "note": 38,
        "velocity": 79,
        "time": 41414,
        "channel": 9
      },
      {
        "type": "note_off",
        "note": 38,
        "time": 41490,
        "channel": 9
      },
      {
        "type": "note_on",
        "note": 48,
        "velocity": 46,
        "time": 41517,
        "channel": 9
      },
      {
        "type": "note_on",
        "note": 44,
        "velocity": 92,
        "time": 41519,
        "channel": 9
      },
      {
        "type": "note_off",
        "note": 48,
        "time": 41593,
        "channel": 9
      },
      {
        "type": "note_off",
        "note": 44,
        "time": 41595,
        "channel": 9
      },
      {
        "type": "note_on",
        "note": 48,
        "velocity": 41,
        "time": 41633,
        "channel": 9
      },
      {
        "type": "note_on",
        "note": 36,
        "velocity": 43,
        "time": 41639,
        "channel": 9
      },
      {
        "type": "note_off",
        "note": 48,
        "time": 41709,
        "channel": 9
      },
      {
        "type": "note_off",
        "note": 36,
        "time": 41715,
        "channel": 9
      },
      {
        "type": "note_on",
        "note": 38,
        "velocity": 92,
        "time": 41750,
        "channel": 9
      },
      {
        "type": "note_off",
        "note": 38,
        "time": 41826,
        "channel": 9
      },
      {
        "type": "note_on",
        "note": 48,
        "velocity": 45,
        "time": 41876,
        "channel": 9
      },
      {
        "type": "note_off",
        "note": 48,
        "time": 41951,
        "channel": 9
      },
      {
        "type": "note_on",
        "note": 36,
        "velocity": 44,
        "time": 41982,
        "channel": 9
      },
      {
        "type": "note_on",
        "note": 48,
        "velocity": 68,
        "time": 41982,
        "channel": 9
      },
      {
        "type": "note_on",
        "note": 44,
        "velocity": 97,
        "time": 42003,
        "channel": 9
      },
      {
        "type": "note_off",
        "note": 36,
        "time": 42058,
        "channel": 9
      },
      {
        "type": "note_off",
        "note": 48,
        "time": 42058,
        "channel": 9
      },
      {
        "type": "note_off",
        "note": 44,
        "time": 42079,
        "channel": 9
      },
      {
        "type": "note_on",
        "note": 38,
        "velocity": 33,
        "time": 42123,
        "channel": 9
      },
      {
        "type": "note_off",
        "note": 38,
        "time": 42168,
        "channel": 9
      },
      {
        "type": "note_on",
        "note": 38,
        "velocity": 29,
        "time": 42168,
        "channel": 9
      },
      {
        "type": "note_off",
        "note": 38,
        "time": 42199,
        "channel": 9
      },
      {
        "type": "note_on",
        "note": 36,
        "velocity": 47,
        "time": 42231,
        "channel": 9
      },
      {
        "type": "note_on",
        "note": 48,
        "velocity": 87,
        "time": 42237,
        "channel": 9
      },
      {
        "type": "note_off",
        "note": 36,
        "time": 42307,
        "channel": 9
      },
      {
        "type": "note_off",
        "note": 48,
        "time": 42313,
        "channel": 9
      },
      {
        "type": "note_on",
        "note": 48,
        "velocity": 39,
        "time": 42369,
        "channel": 9
      },
      {
        "type": "note_off",
        "note": 48,
        "time": 42445,
        "channel": 9
      },
      {
        "type": "note_on",
        "note": 38,
        "velocity": 33,
        "time": 42470,
        "channel": 9
      },
      {
        "type": "note_on",
        "note": 44,
        "velocity": 100,
        "time": 42479,
        "channel": 9
      },
      {
        "type": "note_off",
        "note": 38,
        "time": 42546,
        "channel": 9
      },
      {
        "type": "note_off",
        "note": 44,
        "time": 42555,
        "channel": 9
      },
      {
        "type": "note_on",
        "note": 48,
        "velocity": 74,
        "time": 42607,
        "channel": 9
      },
      {
        "type": "note_on",
        "note": 36,
        "velocity": 48,
        "time": 42609,
        "channel": 9
      },
      {
        "type": "note_off",
        "note": 48,
        "time": 42683,
        "channel": 9
      },
      {
        "type": "note_off",
        "note": 36,
        "time": 42685,
        "channel": 9
      },
      {
        "type": "note_on",
        "note": 48,
        "velocity": 80,
        "time": 42704,
        "channel": 9
      },
      {
        "type": "note_off",
        "note": 48,
        "time": 42780,
        "channel": 9
      },
      {
        "type": "note_on",
        "note": 38,
        "velocity": 11,
        "time": 42851,
        "channel": 9
      },
      {
        "type": "note_off",
        "note": 38,
        "time": 42927,
        "channel": 9
      },
      {
        "type": "note_on",
        "note": 50,
        "velocity": 94,
        "time": 42956,
        "channel": 9
      },
      {
        "type": "note_on",
        "note": 36,
        "velocity": 43,
        "time": 42957,
        "channel": 9
      },
      {
        "type": "note_on",
        "note": 44,
        "velocity": 105,
        "time": 42971,
        "channel": 9
      },
      {
        "type": "note_off",
        "note": 50,
        "time": 43031,
        "channel": 9
      },
      {
        "type": "note_off",
        "note": 36,
        "time": 43034,
        "channel": 9
      },
      {
        "type": "note_off",
        "note": 44,
        "time": 43047,
        "channel": 9
      },
      {
        "type": "note_on",
        "note": 38,
        "velocity": 23,
        "time": 43086,
        "channel": 9
      },
      {
        "type": "note_off",
        "note": 38,
        "time": 43162,
        "channel": 9
      },
      {
        "type": "note_on",
        "note": 36,
        "velocity": 43,
        "time": 43201,
        "channel": 9
      },
      {
        "type": "note_on",
        "note": 48,
        "velocity": 52,
        "time": 43206,
        "channel": 9
      },
      {
        "type": "note_off",
        "note": 36,
        "time": 43277,
        "channel": 9
      },
      {
        "type": "note_off",
        "note": 48,
        "time": 43282,
        "channel": 9
      },
      {
        "type": "note_on",
        "note": 48,
        "velocity": 87,
        "time": 43341,
        "channel": 9
      },
      {
        "type": "note_off",
        "note": 48,
        "time": 43417,
        "channel": 9
      },
      {
        "type": "note_on",
        "note": 38,
        "velocity": 64,
        "time": 43428,
        "channel": 9
      },
      {
        "type": "note_on",
        "note": 44,
        "velocity": 102,
        "time": 43444,
        "channel": 9
      },
      {
        "type": "note_off",
        "note": 38,
        "time": 43504,
        "channel": 9
      },
      {
        "type": "note_off",
        "note": 44,
        "time": 43519,
        "channel": 9
      },
      {
        "type": "note_on",
        "note": 36,
        "velocity": 45,
        "time": 43566,
        "channel": 9
      },
      {
        "type": "note_on",
        "note": 48,
        "velocity": 59,
        "time": 43566,
        "channel": 9
      },
      {
        "type": "note_off",
        "note": 36,
        "time": 43643,
        "channel": 9
      },
      {
        "type": "note_off",
        "note": 48,
        "time": 43643,
        "channel": 9
      },
      {
        "type": "note_on",
        "note": 48,
        "velocity": 70,
        "time": 43684,
        "channel": 9
      },
      {
        "type": "note_off",
        "note": 48,
        "time": 43759,
        "channel": 9
      },
      {
        "type": "note_on",
        "note": 38,
        "velocity": 93,
        "time": 43803,
        "channel": 9
      },
      {
        "type": "note_off",
        "note": 38,
        "time": 43880,
        "channel": 9
      },
      {
        "type": "note_on",
        "note": 36,
        "velocity": 43,
        "time": 43901,
        "channel": 9
      },
      {
        "type": "note_on",
        "note": 43,
        "velocity": 127,
        "time": 43906,
        "channel": 9
      },
      {
        "type": "note_on",
        "note": 44,
        "velocity": 97,
        "time": 43910,
        "channel": 9
      },
      {
        "type": "note_off",
        "note": 36,
        "time": 43977,
        "channel": 9
      },
      {
        "type": "note_off",
        "note": 43,
        "time": 43983,
        "channel": 9
      },
      {
        "type": "note_off",
        "note": 44,
        "time": 43986,
        "channel": 9
      },
      {
        "type": "note_on",
        "note": 38,
        "velocity": 37,
        "time": 44042,
        "channel": 9
      },
      {
        "type": "note_off",
        "note": 38,
        "time": 44081,
        "channel": 9
      },
      {
        "type": "note_on",
        "note": 38,
        "velocity": 35,
        "time": 44081,
        "channel": 9
      },
      {
        "type": "note_off",
        "note": 38,
        "time": 44101,
        "channel": 9
      },
      {
        "type": "note_on",
        "note": 38,
        "velocity": 25,
        "time": 44101,
        "channel": 9
      },
      {
        "type": "note_off",
        "note": 38,
        "time": 44118,
        "channel": 9
      },
      {
        "type": "note_on",
        "note": 38,
        "velocity": 24,
        "time": 44119,
        "channel": 9
      },
      {
        "type": "note_on",
        "note": 36,
        "velocity": 48,
        "time": 44142,
        "channel": 9
      },
      {
        "type": "note_off",
        "note": 38,
        "time": 44157,
        "channel": 9
      },
      {
        "type": "note_on",
        "note": 48,
        "velocity": 64,
        "time": 44161,
        "channel": 9
      },
      {
        "type": "note_off",
        "note": 36,
        "time": 44217,
        "channel": 9
      },
      {
        "type": "note_off",
        "note": 48,
        "time": 44237,
        "channel": 9
      },
      {
        "type": "note_on",
        "note": 48,
        "velocity": 70,
        "time": 44278,
        "channel": 9
      },
      {
        "type": "note_off",
        "note": 48,
        "time": 44354,
        "channel": 9
      },
      {
        "type": "note_on",
        "note": 44,
        "velocity": 87,
        "time": 44376,
        "channel": 9
      },
      {
        "type": "note_on",
        "note": 38,
        "velocity": 35,
        "time": 44395,
        "channel": 9
      },
      {
        "type": "note_off",
        "note": 44,
        "time": 44452,
        "channel": 9
      },
      {
        "type": "note_off",
        "note": 38,
        "time": 44471,
        "channel": 9
      },
      {
        "type": "note_on",
        "note": 36,
        "velocity": 52,
        "time": 44526,
        "channel": 9
      },
      {
        "type": "note_on",
        "note": 48,
        "velocity": 89,
        "time": 44535,
        "channel": 9
      },
      {
        "type": "note_off",
        "note": 36,
        "time": 44601,
        "channel": 9
      },
      {
        "type": "note_off",
        "note": 48,
        "time": 44611,
        "channel": 9
      },
      {
        "type": "note_on",
        "note": 48,
        "velocity": 66,
        "time": 44647,
        "channel": 9
      },
      {
        "type": "note_off",
        "note": 48,
        "time": 44723,
        "channel": 9
      },
      {
        "type": "note_on",
        "note": 38,
        "velocity": 29,
        "time": 44752,
        "channel": 9
      },
      {
        "type": "note_off",
        "note": 38,
        "time": 44829,
        "channel": 9
      },
      {
        "type": "note_on",
        "note": 36,
        "velocity": 47,
        "time": 44862,
        "channel": 9
      },
      {
        "type": "note_on",
        "note": 44,
        "velocity": 95,
        "time": 44865,
        "channel": 9
      },
      {
        "type": "note_on",
        "note": 48,
        "velocity": 102,
        "time": 44867,
        "channel": 9
      },
      {
        "type": "note_off",
        "note": 36,
        "time": 44938,
        "channel": 9
      },
      {
        "type": "note_off",
        "note": 44,
        "time": 44941,
        "channel": 9
      },
      {
        "type": "note_off",
        "note": 48,
        "time": 44943,
        "channel": 9
      },
      {
        "type": "note_on",
        "note": 38,
        "velocity": 28,
        "time": 45001,
        "channel": 9
      },
      {
        "type": "note_off",
        "note": 38,
        "time": 45077,
        "channel": 9
      },
      {
        "type": "note_on",
        "note": 36,
        "velocity": 52,
        "time": 45102,
        "channel": 9
      },
      {
        "type": "note_off",
        "note": 36,
        "time": 45178,
        "channel": 9
      },
      {
        "type": "note_on",
        "note": 48,
        "velocity": 125,
        "time": 45246,
        "channel": 9
      },
      {
        "type": "note_off",
        "note": 48,
        "time": 45322,
        "channel": 9
      },
      {
        "type": "note_on",
        "note": 44,
        "velocity": 92,
        "time": 45345,
        "channel": 9
      },
      {
        "type": "note_on",
        "note": 38,
        "velocity": 23,
        "time": 45368,
        "channel": 9
      },
      {
        "type": "note_off",
        "note": 44,
        "time": 45421,
        "channel": 9
      },
      {
        "type": "note_off",
        "note": 38,
        "time": 45444,
        "channel": 9
      },
      {
        "type": "note_on",
        "note": 36,
        "velocity": 48,
        "time": 45487,
        "channel": 9
      },
      {
        "type": "note_off",
        "note": 36,
        "time": 45562,
        "channel": 9
      },
      {
        "type": "note_on",
        "note": 48,
        "velocity": 115,
        "time": 45602,
        "channel": 9
      },
      {
        "type": "note_off",
        "note": 48,
        "time": 45678,
        "channel": 9
      },
      {
        "type": "note_on",
        "note": 38,
        "velocity": 31,
        "time": 45732,
        "channel": 9
      },
      {
        "type": "note_off",
        "note": 38,
        "time": 45799,
        "channel": 9
      },
      {
        "type": "note_on",
        "note": 38,
        "velocity": 34,
        "time": 45799,
        "channel": 9
      },
      {
        "type": "note_off",
        "note": 38,
        "time": 45808,
        "channel": 9
      },
      {
        "type": "note_on",
        "note": 36,
        "velocity": 43,
        "time": 45832,
        "channel": 9
      },
      {
        "type": "note_on",
        "note": 44,
        "velocity": 100,
        "time": 45845,
        "channel": 9
      },
      {
        "type": "note_on",
        "note": 38,
        "velocity": 23,
        "time": 45873,
        "channel": 9
      },
      {
        "type": "note_off",
        "note": 38,
        "time": 45875,
        "channel": 9
      },
      {
        "type": "note_off",
        "note": 36,
        "time": 45908,
        "channel": 9
      },
      {
        "type": "note_on",
        "note": 38,
        "velocity": 39,
        "time": 45921,
        "channel": 9
      },
      {
        "type": "note_off",
        "note": 44,
        "time": 45921,
        "channel": 9
      },
      {
        "type": "note_off",
        "note": 38,
        "time": 45948,
        "channel": 9
      },
      {
        "type": "note_on",
        "note": 38,
        "velocity": 61,
        "time": 45979,
        "channel": 9
      },
      {
        "type": "note_off",
        "note": 38,
        "time": 45997,
        "channel": 9
      },
      {
        "type": "note_on",
        "note": 36,
        "velocity": 47,
        "time": 46073,
        "channel": 9
      },
      {
        "type": "note_on",
        "note": 48,
        "velocity": 73,
        "time": 46073,
        "channel": 9
      },
      {
        "type": "note_off",
        "note": 36,
        "time": 46148,
        "channel": 9
      },
      {
        "type": "note_off",
        "note": 48,
        "time": 46148,
        "channel": 9
      },
      {
        "type": "note_on",
        "note": 38,
        "velocity": 30,
        "time": 46205,
        "channel": 9
      },
      {
        "type": "note_off",
        "note": 38,
        "time": 46281,
        "channel": 9
      },
      {
        "type": "note_on",
        "note": 44,
        "velocity": 90,
        "time": 46306,
        "channel": 9
      },
      {
        "type": "note_on",
        "note": 48,
        "velocity": 111,
        "time": 46307,
        "channel": 9
      },
      {
        "type": "note_off",
        "note": 44,
        "time": 46382,
        "channel": 9
      },
      {
        "type": "note_off",
        "note": 48,
        "time": 46382,
        "channel": 9
      },
      {
        "type": "note_on",
        "note": 36,
        "velocity": 44,
        "time": 46431,
        "channel": 9
      },
      {
        "type": "note_on",
        "note": 38,
        "velocity": 32,
        "time": 46448,
        "channel": 9
      },
      {
        "type": "note_off",
        "note": 36,
        "time": 46507,
        "channel": 9
      },
      {
        "type": "note_off",
        "note": 38,
        "time": 46523,
        "channel": 9
      },
      {
        "type": "note_on",
        "note": 48,
        "velocity": 97,
        "time": 46562,
        "channel": 9
      },
      {
        "type": "note_off",
        "note": 48,
        "time": 46638,
        "channel": 9
      },
      {
        "type": "note_on",
        "note": 38,
        "velocity": 11,
        "time": 46716,
        "channel": 9
      },
      {
        "type": "note_on",
        "note": 44,
        "velocity": 87,
        "time": 46787,
        "channel": 9
      },
      {
        "type": "note_on",
        "note": 36,
        "velocity": 48,
        "time": 46792,
        "channel": 9
      },
      {
        "type": "note_off",
        "note": 38,
        "time": 46792,
        "channel": 9
      },
      {
        "type": "note_on",
        "note": 48,
        "velocity": 101,
        "time": 46799,
        "channel": 9
      },
      {
        "type": "note_off",
        "note": 44,
        "time": 46864,
        "channel": 9
      },
      {
        "type": "note_off",
        "note": 36,
        "time": 46868,
        "channel": 9
      },
      {
        "type": "note_off",
        "note": 48,
        "time": 46875,
        "channel": 9
      },
      {
        "type": "note_on",
        "note": 38,
        "velocity": 38,
        "time": 46914,
        "channel": 9
      },
      {
        "type": "note_off",
        "note": 38,
        "time": 46990,
        "channel": 9
      },
      {
        "type": "note_on",
        "note": 38,
        "velocity": 94,
        "time": 47032,
        "channel": 9
      },
      {
        "type": "note_off",
        "note": 38,
        "time": 47108,
        "channel": 9
      },
      {
        "type": "note_on",
        "note": 38,
        "velocity": 81,
        "time": 47167,
        "channel": 9
      },
      {
        "type": "note_off",
        "note": 38,
        "time": 47242,
        "channel": 9
      },
      {
        "type": "note_on",
        "note": 44,
        "velocity": 97,
        "time": 47268,
        "channel": 9
      },
      {
        "type": "note_on",
        "note": 38,
        "velocity": 81,
        "time": 47275,
        "channel": 9
      },
      {
        "type": "note_off",
        "note": 44,
        "time": 47343,
        "channel": 9
      },
      {
        "type": "note_off",
        "note": 38,
        "time": 47351,
        "channel": 9
      },
      {
        "type": "note_on",
        "note": 38,
        "velocity": 9,
        "time": 47383,
        "channel": 9
      },
      {
        "type": "note_on",
        "note": 36,
        "velocity": 55,
        "time": 47401,
        "channel": 9
      },
      {
        "type": "note_off",
        "note": 38,
        "time": 47459,
        "channel": 9
      },
      {
        "type": "note_off",
        "note": 36,
        "time": 47477,
        "channel": 9
      },
      {
        "type": "note_on",
        "note": 43,
        "velocity": 127,
        "time": 47521,
        "channel": 9
      },
      {
        "type": "note_off",
        "note": 43,
        "time": 47597,
        "channel": 9
      },
      {
        "type": "note_on",
        "note": 36,
        "velocity": 49,
        "time": 47659,
        "channel": 9
      },
      {
        "type": "note_off",
        "note": 36,
        "time": 47736,
        "channel": 9
      },
      {
        "type": "note_on",
        "note": 44,
        "velocity": 90,
        "time": 47760,
        "channel": 9
      },
      {
        "type": "note_off",
        "note": 44,
        "time": 47836,
        "channel": 9
      },
      {
        "type": "note_on",
        "note": 36,
        "velocity": 25,
        "time": 47883,
        "channel": 9
      },
      {
        "type": "note_off",
        "note": 36,
        "time": 47958,
        "channel": 9
      },
      {
        "type": "note_on",
        "note": 36,
        "velocity": 56,
        "time": 47981,
        "channel": 9
      },
      {
        "type": "note_on",
        "note": 51,
        "velocity": 7,
        "time": 47987,
        "channel": 9
      },
      {
        "type": "note_on",
        "note": 55,
        "velocity": 67,
        "time": 47987,
        "channel": 9
      },
      {
        "type": "note_off",
        "note": 36,
        "time": 48057,
        "channel": 9
      },
      {
        "type": "note_off",
        "note": 51,
        "time": 48062,
        "channel": 9
      },
      {
        "type": "note_off",
        "note": 55,
        "time": 48062,
        "channel": 9
      },
      {
        "type": "note_on",
        "note": 44,
        "velocity": 90,
        "time": 48229,
        "channel": 9
      },
      {
        "type": "note_off",
        "note": 44,
        "time": 48305,
        "channel": 9
      },
      {
        "type": "note_on",
        "note": 36,
        "velocity": 59,
        "time": 48356,
        "channel": 9
      },
      {
        "type": "note_on",
        "note": 59,
        "velocity": 76,
        "time": 48360,
        "channel": 9
      },
      {
        "type": "note_off",
        "note": 36,
        "time": 48431,
        "channel": 9
      },
      {
        "type": "note_off",
        "note": 59,
        "time": 48436,
        "channel": 9
      },
      {
        "type": "note_on",
        "note": 51,
        "velocity": 24,
        "time": 48441,
        "channel": 9
      },
      {
        "type": "note_off",
        "note": 51,
        "time": 48516,
        "channel": 9
      },
      {
        "type": "note_on",
        "note": 36,
        "velocity": 51,
        "time": 48618,
        "channel": 9
      },
      {
        "type": "note_off",
        "note": 36,
        "time": 48694,
        "channel": 9
      },
      {
        "type": "note_on",
        "note": 38,
        "velocity": 96,
        "time": 48714,
        "channel": 9
      },
      {
        "type": "note_on",
        "note": 44,
        "velocity": 100,
        "time": 48720,
        "channel": 9
      },
      {
        "type": "note_on",
        "note": 59,
        "velocity": 97,
        "time": 48720,
        "channel": 9
      },
      {
        "type": "note_off",
        "note": 38,
        "time": 48790,
        "channel": 9
      },
      {
        "type": "note_off",
        "note": 44,
        "time": 48795,
        "channel": 9
      },
      {
        "type": "note_off",
        "note": 59,
        "time": 48795,
        "channel": 9
      },
      {
        "type": "note_on",
        "note": 36,
        "velocity": 37,
        "time": 48960,
        "channel": 9
      },
      {
        "type": "note_off",
        "note": 36,
        "time": 49036,
        "channel": 9
      },
      {
        "type": "note_on",
        "note": 43,
        "velocity": 127,
        "time": 49105,
        "channel": 9
      },
      {
        "type": "note_off",
        "note": 43,
        "time": 49180,
        "channel": 9
      },
      {
        "type": "note_on",
        "note": 44,
        "velocity": 92,
        "time": 49190,
        "channel": 9
      },
      {
        "type": "note_on",
        "note": 38,
        "velocity": 30,
        "time": 49209,
        "channel": 9
      },
      {
        "type": "note_off",
        "note": 44,
        "time": 49266,
        "channel": 9
      },
      {
        "type": "note_off",
        "note": 38,
        "time": 49284,
        "channel": 9
      },
      {
        "type": "note_on",
        "note": 36,
        "velocity": 52,
        "time": 49314,
        "channel": 9
      },
      {
        "type": "note_off",
        "note": 36,
        "time": 49390,
        "channel": 9
      },
      {
        "type": "note_on",
        "note": 43,
        "velocity": 121,
        "time": 49438,
        "channel": 9
      },
      {
        "type": "note_off",
        "note": 43,
        "time": 49513,
        "channel": 9
      },
      {
        "type": "note_on",
        "note": 38,
        "velocity": 38,
        "time": 49553,
        "channel": 9
      },
      {
        "type": "note_off",
        "note": 38,
        "time": 49605,
        "channel": 9
      },
      {
        "type": "note_on",
        "note": 38,
        "velocity": 36,
        "time": 49605,
        "channel": 9
      },
      {
        "type": "note_off",
        "note": 38,
        "time": 49629,
        "channel": 9
      },
      {
        "type": "note_on",
        "note": 38,
        "velocity": 15,
        "time": 49638,
        "channel": 9
      },
      {
        "type": "note_off",
        "note": 38,
        "time": 49662,
        "channel": 9
      },
      {
        "type": "note_on",
        "note": 38,
        "velocity": 39,
        "time": 49662,
        "channel": 9
      },
      {
        "type": "note_on",
        "note": 36,
        "velocity": 37,
        "time": 49664,
        "channel": 9
      },
      {
        "type": "note_on",
        "note": 44,
        "velocity": 95,
        "time": 49668,
        "channel": 9
      },
      {
        "type": "note_off",
        "note": 38,
        "time": 49681,
        "channel": 9
      },
      {
        "type": "note_on",
        "note": 38,
        "velocity": 48,
        "time": 49720,
        "channel": 9
      },
      {
        "type": "note_off",
        "note": 38,
        "time": 49738,
        "channel": 9
      },
      {
        "type": "note_off",
        "note": 36,
        "time": 49741,
        "channel": 9
      },
      {
        "type": "note_off",
        "note": 44,
        "time": 49744,
        "channel": 9
      },
      {
        "type": "note_on",
        "note": 38,
        "velocity": 68,
        "time": 49787,
        "channel": 9
      },
      {
        "type": "note_off",
        "note": 38,
        "time": 49796,
        "channel": 9
      },
      {
        "type": "note_on",
        "note": 36,
        "velocity": 47,
        "time": 49906,
        "channel": 9
      },
      {
        "type": "note_off",
        "note": 36,
        "time": 49982,
        "channel": 9
      },
      {
        "type": "note_on",
        "note": 38,
        "velocity": 39,
        "time": 50061,
        "channel": 9
      },
      {
        "type": "note_on",
        "note": 44,
        "velocity": 95,
        "time": 50131,
        "channel": 9
      },
      {
        "type": "note_off",
        "note": 38,
        "time": 50137,
        "channel": 9
      },
      {
        "type": "note_off",
        "note": 44,
        "time": 50207,
        "channel": 9
      },
      {
        "type": "note_on",
        "note": 36,
        "velocity": 48,
        "time": 50266,
        "channel": 9
      },
      {
        "type": "note_on",
        "note": 48,
        "velocity": 79,
        "time": 50272,
        "channel": 9
      },
      {
        "type": "note_off",
        "note": 36,
        "time": 50341,
        "channel": 9
      },
      {
        "type": "note_off",
        "note": 48,
        "time": 50348,
        "channel": 9
      },
      {
        "type": "note_on",
        "note": 38,
        "velocity": 31,
        "time": 50377,
        "channel": 9
      },
      {
        "type": "note_off",
        "note": 38,
        "time": 50453,
        "channel": 9
      },
      {
        "type": "note_on",
        "note": 48,
        "velocity": 55,
        "time": 50505,
        "channel": 9
      },
      {
        "type": "note_off",
        "note": 48,
        "time": 50581,
        "channel": 9
      },
      {
        "type": "note_on",
        "note": 36,
        "velocity": 44,
        "time": 50590,
        "channel": 9
      },
      {
        "type": "note_on",
        "note": 44,
        "velocity": 95,
        "time": 50593,
        "channel": 9
      },
      {
        "type": "note_on",
        "note": 48,
        "velocity": 38,
        "time": 50605,
        "channel": 9
      },
      {
        "type": "note_off",
        "note": 36,
        "time": 50666,
        "channel": 9
      },
      {
        "type": "note_off",
        "note": 44,
        "time": 50669,
        "channel": 9
      },
      {
        "type": "note_off",
        "note": 48,
        "time": 50681,
        "channel": 9
      },
      {
        "type": "note_on",
        "note": 38,
        "velocity": 59,
        "time": 50721,
        "channel": 9
      },
      {
        "type": "note_off",
        "note": 38,
        "time": 50796,
        "channel": 9
      },
      {
        "type": "note_on",
        "note": 36,
        "velocity": 44,
        "time": 50842,
        "channel": 9
      },
      {
        "type": "note_on",
        "note": 43,
        "velocity": 75,
        "time": 50843,
        "channel": 9
      },
      {
        "type": "note_off",
        "note": 36,
        "time": 50917,
        "channel": 9
      },
      {
        "type": "note_off",
        "note": 43,
        "time": 50919,
        "channel": 9
      },
      {
        "type": "note_on",
        "note": 43,
        "velocity": 85,
        "time": 50970,
        "channel": 9
      },
      {
        "type": "note_off",
        "note": 43,
        "time": 51046,
        "channel": 9
      },
      {
        "type": "note_on",
        "note": 44,
        "velocity": 90,
        "time": 51068,
        "channel": 9
      },
      {
        "type": "note_on",
        "note": 38,
        "velocity": 34,
        "time": 51073,
        "channel": 9
      },
      {
        "type": "note_off",
        "note": 44,
        "time": 51144,
        "channel": 9
      },
      {
        "type": "note_off",
        "note": 38,
        "time": 51148,
        "channel": 9
      },
      {
        "type": "note_on",
        "note": 36,
        "velocity": 46,
        "time": 51195,
        "channel": 9
      },
      {
        "type": "note_off",
        "note": 36,
        "time": 51271,
        "channel": 9
      },
      {
        "type": "note_on",
        "note": 43,
        "velocity": 103,
        "time": 51308,
        "channel": 9
      },
      {
        "type": "note_on",
        "note": 38,
        "velocity": 83,
        "time": 51312,
        "channel": 9
      },
      {
        "type": "note_off",
        "note": 43,
        "time": 51384,
        "channel": 9
      },
      {
        "type": "note_off",
        "note": 38,
        "time": 51388,
        "channel": 9
      },
      {
        "type": "note_on",
        "note": 36,
        "velocity": 42,
        "time": 51439,
        "channel": 9
      },
      {
        "type": "note_off",
        "note": 36,
        "time": 51515,
        "channel": 9
      },
      {
        "type": "note_on",
        "note": 44,
        "velocity": 87,
        "time": 51548,
        "channel": 9
      },
      {
        "type": "note_on",
        "note": 43,
        "velocity": 99,
        "time": 51550,
        "channel": 9
      },
      {
        "type": "note_on",
        "note": 38,
        "velocity": 65,
        "time": 51559,
        "channel": 9
      },
      {
        "type": "note_off",
        "note": 44,
        "time": 51624,
        "channel": 9
      },
      {
        "type": "note_off",
        "note": 43,
        "time": 51627,
        "channel": 9
      },
      {
        "type": "note_off",
        "note": 38,
        "time": 51635,
        "channel": 9
      },
      {
        "type": "note_on",
        "note": 38,
        "velocity": 49,
        "time": 51688,
        "channel": 9
      },
      {
        "type": "note_off",
        "note": 38,
        "time": 51764,
        "channel": 9
      },
      {
        "type": "note_on",
        "note": 48,
        "velocity": 51,
        "time": 51792,
        "channel": 9
      },
      {
        "type": "note_on",
        "note": 36,
        "velocity": 48,
        "time": 51798,
        "channel": 9
      },
      {
        "type": "note_off",
        "note": 48,
        "time": 51869,
        "channel": 9
      },
      {
        "type": "note_off",
        "note": 36,
        "time": 51874,
        "channel": 9
      },
      {
        "type": "note_on",
        "note": 48,
        "velocity": 48,
        "time": 51930,
        "channel": 9
      },
      {
        "type": "note_off",
        "note": 48,
        "time": 52006,
        "channel": 9
      },
      {
        "type": "note_on",
        "note": 44,
        "velocity": 95,
        "time": 52022,
        "channel": 9
      },
      {
        "type": "note_on",
        "note": 38,
        "velocity": 17,
        "time": 52043,
        "channel": 9
      },
      {
        "type": "note_off",
        "note": 44,
        "time": 52098,
        "channel": 9
      },
      {
        "type": "note_off",
        "note": 38,
        "time": 52119,
        "channel": 9
      },
      {
        "type": "note_on",
        "note": 36,
        "velocity": 46,
        "time": 52166,
        "channel": 9
      },
      {
        "type": "note_on",
        "note": 48,
        "velocity": 84,
        "time": 52182,
        "channel": 9
      },
      {
        "type": "note_off",
        "note": 36,
        "time": 52242,
        "channel": 9
      },
      {
        "type": "note_off",
        "note": 48,
        "time": 52257,
        "channel": 9
      },
      {
        "type": "note_on",
        "note": 48,
        "velocity": 56,
        "time": 52292,
        "channel": 9
      },
      {
        "type": "note_off",
        "note": 48,
        "time": 52368,
        "channel": 9
      },
      {
        "type": "note_on",
        "note": 38,
        "velocity": 27,
        "time": 52420,
        "channel": 9
      },
      {
        "type": "note_off",
        "note": 38,
        "time": 52495,
        "channel": 9
      },
      {
        "type": "note_on",
        "note": 36,
        "velocity": 44,
        "time": 52521,
        "channel": 9
      },
      {
        "type": "note_on",
        "note": 44,
        "velocity": 100,
        "time": 52523,
        "channel": 9
      },
      {
        "type": "note_on",
        "note": 48,
        "velocity": 111,
        "time": 52529,
        "channel": 9
      },
      {
        "type": "note_off",
        "note": 36,
        "time": 52597,
        "channel": 9
      },
      {
        "type": "note_off",
        "note": 44,
        "time": 52598,
        "channel": 9
      },
      {
        "type": "note_off",
        "note": 48,
        "time": 52606,
        "channel": 9
      },
      {
        "type": "note_on",
        "note": 38,
        "velocity": 58,
        "time": 52657,
        "channel": 9
      },
      {
        "type": "note_off",
        "note": 38,
        "time": 52733,
        "channel": 9
      },
      {
        "type": "note_on",
        "note": 36,
        "velocity": 43,
        "time": 52769,
        "channel": 9
      },
      {
        "type": "note_on",
        "note": 43,
        "velocity": 58,
        "time": 52785,
        "channel": 9
      },
      {
        "type": "note_off",
        "note": 36,
        "time": 52845,
        "channel": 9
      },
      {
        "type": "note_off",
        "note": 43,
        "time": 52861,
        "channel": 9
      },
      {
        "type": "note_on",
        "note": 43,
        "velocity": 80,
        "time": 52918,
        "channel": 9
      },
      {
        "type": "note_off",
        "note": 43,
        "time": 52994,
        "channel": 9
      },
      {
        "type": "note_on",
        "note": 44,
        "velocity": 95,
        "time": 53002,
        "channel": 9
      },
      {
        "type": "note_on",
        "note": 38,
        "velocity": 33,
        "time": 53023,
        "channel": 9
      },
      {
        "type": "note_off",
        "note": 44,
        "time": 53078,
        "channel": 9
      },
      {
        "type": "note_off",
        "note": 38,
        "time": 53099,
        "channel": 9
      },
      {
        "type": "note_on",
        "note": 36,
        "velocity": 43,
        "time": 53136,
        "channel": 9
      },
      {
        "type": "note_off",
        "note": 36,
        "time": 53212,
        "channel": 9
      },
      {
        "type": "note_on",
        "note": 43,
        "velocity": 93,
        "time": 53258,
        "channel": 9
      },
      {
        "type": "note_on",
        "note": 38,
        "velocity": 62,
        "time": 53260,
        "channel": 9
      },
      {
        "type": "note_off",
        "note": 43,
        "time": 53334,
        "channel": 9
      },
      {
        "type": "note_off",
        "note": 38,
        "time": 53335,
        "channel": 9
      },
      {
        "type": "note_on",
        "note": 36,
        "velocity": 41,
        "time": 53384,
        "channel": 9
      },
      {
        "type": "note_off",
        "note": 36,
        "time": 53459,
        "channel": 9
      },
      {
        "type": "note_on",
        "note": 44,
        "velocity": 85,
        "time": 53493,
        "channel": 9
      },
      {
        "type": "note_on",
        "note": 38,
        "velocity": 64,
        "time": 53508,
        "channel": 9
      },
      {
        "type": "note_on",
        "note": 43,
        "velocity": 110,
        "time": 53508,
        "channel": 9
      },
      {
        "type": "note_off",
        "note": 44,
        "time": 53569,
        "channel": 9
      },
      {
        "type": "note_off",
        "note": 38,
        "time": 53583,
        "channel": 9
      },
      {
        "type": "note_off",
        "note": 43,
        "time": 53583,
        "channel": 9
      },
      {
        "type": "note_on",
        "note": 38,
        "velocity": 54,
        "time": 53633,
        "channel": 9
      },
      {
        "type": "note_off",
        "note": 38,
        "time": 53709,
        "channel": 9
      },
      {
        "type": "note_on",
        "note": 36,
        "velocity": 46,
        "time": 53736,
        "channel": 9
      },
      {
        "type": "note_on",
        "note": 50,
        "velocity": 34,
        "time": 53747,
        "channel": 9
      },
      {
        "type": "note_off",
        "note": 36,
        "time": 53811,
        "channel": 9
      },
      {
        "type": "note_off",
        "note": 50,
        "time": 53823,
        "channel": 9
      },
      {
        "type": "note_on",
        "note": 50,
        "velocity": 17,
        "time": 53905,
        "channel": 9
      },
      {
        "type": "note_on",
        "note": 38,
        "velocity": 38,
        "time": 53973,
        "channel": 9
      },
      {
        "type": "note_on",
        "note": 44,
        "velocity": 102,
        "time": 53980,
        "channel": 9
      },
      {
        "type": "note_off",
        "note": 50,
        "time": 53980,
        "channel": 9
      },
      {
        "type": "note_off",
        "note": 38,
        "time": 54049,
        "channel": 9
      },
      {
        "type": "note_off",
        "note": 44,
        "time": 54057,
        "channel": 9
      },
      {
        "type": "note_on",
        "note": 36,
        "velocity": 46,
        "time": 54117,
        "channel": 9
      },
      {
        "type": "note_on",
        "note": 50,
        "velocity": 47,
        "time": 54117,
        "channel": 9
      },
      {
        "type": "note_off",
        "note": 36,
        "time": 54192,
        "channel": 9
      },
      {
        "type": "note_off",
        "note": 50,
        "time": 54192,
        "channel": 9
      },
      {
        "type": "note_on",
        "note": 50,
        "velocity": 49,
        "time": 54218,
        "channel": 9
      },
      {
        "type": "note_off",
        "note": 50,
        "time": 54293,
        "channel": 9
      },
      {
        "type": "note_on",
        "note": 38,
        "velocity": 38,
        "time": 54330,
        "channel": 9
      },
      {
        "type": "note_off",
        "note": 38,
        "time": 54406,
        "channel": 9
      },
      {
        "type": "note_on",
        "note": 44,
        "velocity": 85,
        "time": 54446,
        "channel": 9
      },
      {
        "type": "note_on",
        "note": 36,
        "velocity": 37,
        "time": 54449,
        "channel": 9
      },
      {
        "type": "note_on",
        "note": 48,
        "velocity": 102,
        "time": 54465,
        "channel": 9
      },
      {
        "type": "note_off",
        "note": 44,
        "time": 54522,
        "channel": 9
      },
      {
        "type": "note_off",
        "note": 36,
        "time": 54525,
        "channel": 9
      },
      {
        "type": "note_off",
        "note": 48,
        "time": 54540,
        "channel": 9
      },
      {
        "type": "note_on",
        "note": 38,
        "velocity": 32,
        "time": 54588,
        "channel": 9
      },
      {
        "type": "note_off",
        "note": 38,
        "time": 54664,
        "channel": 9
      },
      {
        "type": "note_on",
        "note": 36,
        "velocity": 43,
        "time": 54705,
        "channel": 9
      },
      {
        "type": "note_on",
        "note": 43,
        "velocity": 65,
        "time": 54709,
        "channel": 9
      },
      {
        "type": "note_off",
        "note": 36,
        "time": 54781,
        "channel": 9
      },
      {
        "type": "note_off",
        "note": 43,
        "time": 54786,
        "channel": 9
      },
      {
        "type": "note_on",
        "note": 43,
        "velocity": 83,
        "time": 54838,
        "channel": 9
      },
      {
        "type": "note_on",
        "note": 44,
        "velocity": 85,
        "time": 54908,
        "channel": 9
      },
      {
        "type": "note_off",
        "note": 43,
        "time": 54914,
        "channel": 9
      },
      {
        "type": "note_on",
        "note": 38,
        "velocity": 23,
        "time": 54952,
        "channel": 9
      },
      {
        "type": "note_off",
        "note": 44,
        "time": 54983,
        "channel": 9
      },
      {
        "type": "note_off",
        "note": 38,
        "time": 55029,
        "channel": 9
      },
      {
        "type": "note_on",
        "note": 36,
        "velocity": 44,
        "time": 55043,
        "channel": 9
      },
      {
        "type": "note_off",
        "note": 36,
        "time": 55120,
        "channel": 9
      },
      {
        "type": "note_on",
        "note": 38,
        "velocity": 64,
        "time": 55159,
        "channel": 9
      },
      {
        "type": "note_on",
        "note": 43,
        "velocity": 97,
        "time": 55162,
        "channel": 9
      },
      {
        "type": "note_off",
        "note": 38,
        "time": 55235,
        "channel": 9
      },
      {
        "type": "note_off",
        "note": 43,
        "time": 55238,
        "channel": 9
      },
      {
        "type": "note_on",
        "note": 36,
        "velocity": 39,
        "time": 55316,
        "channel": 9
      },
      {
        "type": "note_off",
        "note": 36,
        "time": 55392,
        "channel": 9
      },
      {
        "type": "note_on",
        "note": 44,
        "velocity": 85,
        "time": 55405,
        "channel": 9
      },
      {
        "type": "note_on",
        "note": 48,
        "velocity": 92,
        "time": 55416,
        "channel": 9
      },
      {
        "type": "note_off",
        "note": 44,
        "time": 55481,
        "channel": 9
      },
      {
        "type": "note_off",
        "note": 48,
        "time": 55492,
        "channel": 9
      },
      {
        "type": "note_on",
        "note": 38,
        "velocity": 49,
        "time": 55498,
        "channel": 9
      },
      {
        "type": "note_off",
        "note": 38,
        "time": 55569,
        "channel": 9
      },
      {
        "type": "note_on",
        "note": 38,
        "velocity": 49,
        "time": 55569,
        "channel": 9
      },
      {
        "type": "note_off",
        "note": 38,
        "time": 55574,
        "channel": 9
      },
      {
        "type": "note_on",
        "note": 36,
        "velocity": 56,
        "time": 55645,
        "channel": 9
      },
      {
        "type": "note_on",
        "note": 59,
        "velocity": 94,
        "time": 55651,
        "channel": 9
      },
      {
        "type": "note_off",
        "note": 36,
        "time": 55720,
        "channel": 9
      },
      {
        "type": "note_off",
        "note": 59,
        "time": 55726,
        "channel": 9
      },
      {
        "type": "note_on",
        "note": 38,
        "velocity": 30,
        "time": 55788,
        "channel": 9
      },
      {
        "type": "note_off",
        "note": 38,
        "time": 55864,
        "channel": 9
      },
      {
        "type": "note_on",
        "note": 44,
        "velocity": 100,
        "time": 55882,
        "channel": 9
      },
      {
        "type": "note_on",
        "note": 38,
        "velocity": 26,
        "time": 55900,
        "channel": 9
      },
      {
        "type": "note_off",
        "note": 44,
        "time": 55958,
        "channel": 9
      },
      {
        "type": "note_off",
        "note": 38,
        "time": 55976,
        "channel": 9
      },
      {
        "type": "note_on",
        "note": 48,
        "velocity": 64,
        "time": 56022,
        "channel": 9
      },
      {
        "type": "note_on",
        "note": 36,
        "velocity": 46,
        "time": 56041,
        "channel": 9
      },
      {
        "type": "note_off",
        "note": 48,
        "time": 56098,
        "channel": 9
      },
      {
        "type": "note_off",
        "note": 36,
        "time": 56117,
        "channel": 9
      },
      {
        "type": "note_on",
        "note": 48,
        "velocity": 64,
        "time": 56129,
        "channel": 9
      },
      {
        "type": "note_off",
        "note": 48,
        "time": 56205,
        "channel": 9
      },
      {
        "type": "note_on",
        "note": 36,
        "velocity": 44,
        "time": 56363,
        "channel": 9
      },
      {
        "type": "note_on",
        "note": 44,
        "velocity": 90,
        "time": 56363,
        "channel": 9
      },
      {
        "type": "note_on",
        "note": 50,
        "velocity": 96,
        "time": 56377,
        "channel": 9
      },
      {
        "type": "note_off",
        "note": 36,
        "time": 56439,
        "channel": 9
      },
      {
        "type": "note_off",
        "note": 44,
        "time": 56439,
        "channel": 9
      },
      {
        "type": "note_off",
        "note": 50,
        "time": 56453,
        "channel": 9
      },
      {
        "type": "note_on",
        "note": 38,
        "velocity": 17,
        "time": 56510,
        "channel": 9
      },
      {
        "type": "note_off",
        "note": 38,
        "time": 56585,
        "channel": 9
      },
      {
        "type": "note_on",
        "note": 38,
        "velocity": 21,
        "time": 56604,
        "channel": 9
      },
      {
        "type": "note_on",
        "note": 36,
        "velocity": 41,
        "time": 56613,
        "channel": 9
      },
      {
        "type": "note_off",
        "note": 38,
        "time": 56680,
        "channel": 9
      },
      {
        "type": "note_off",
        "note": 36,
        "time": 56689,
        "channel": 9
      },
      {
        "type": "note_on",
        "note": 43,
        "velocity": 119,
        "time": 56762,
        "channel": 9
      },
      {
        "type": "note_on",
        "note": 44,
        "velocity": 90,
        "time": 56833,
        "channel": 9
      },
      {
        "type": "note_off",
        "note": 43,
        "time": 56839,
        "channel": 9
      },
      {
        "type": "note_on",
        "note": 38,
        "velocity": 11,
        "time": 56877,
        "channel": 9
      },
      {
        "type": "note_off",
        "note": 44,
        "time": 56909,
        "channel": 9
      },
      {
        "type": "note_off",
        "note": 38,
        "time": 56953,
        "channel": 9
      },
      {
        "type": "note_on",
        "note": 36,
        "velocity": 45,
        "time": 56977,
        "channel": 9
      },
      {
        "type": "note_off",
        "note": 36,
        "time": 57054,
        "channel": 9
      },
      {
        "type": "note_on",
        "note": 38,
        "velocity": 40,
        "time": 57107,
        "channel": 9
      },
      {
        "type": "note_on",
        "note": 43,
        "velocity": 103,
        "time": 57109,
        "channel": 9
      },
      {
        "type": "note_off",
        "note": 38,
        "time": 57182,
        "channel": 9
      },
      {
        "type": "note_off",
        "note": 43,
        "time": 57184,
        "channel": 9
      },
      {
        "type": "note_on",
        "note": 36,
        "velocity": 36,
        "time": 57235,
        "channel": 9
      },
      {
        "type": "note_off",
        "note": 36,
        "time": 57311,
        "channel": 9
      },
      {
        "type": "note_on",
        "note": 38,
        "velocity": 41,
        "time": 57336,
        "channel": 9
      },
      {
        "type": "note_on",
        "note": 44,
        "velocity": 102,
        "time": 57345,
        "channel": 9
      },
      {
        "type": "note_on",
        "note": 43,
        "velocity": 103,
        "time": 57351,
        "channel": 9
      },
      {
        "type": "note_off",
        "note": 38,
        "time": 57412,
        "channel": 9
      },
      {
        "type": "note_off",
        "note": 44,
        "time": 57421,
        "channel": 9
      },
      {
        "type": "note_off",
        "note": 43,
        "time": 57427,
        "channel": 9
      },
      {
        "type": "note_on",
        "note": 38,
        "velocity": 38,
        "time": 57474,
        "channel": 9
      },
      {
        "type": "note_off",
        "note": 38,
        "time": 57550,
        "channel": 9
      },
      {
        "type": "note_on",
        "note": 36,
        "velocity": 47,
        "time": 57586,
        "channel": 9
      },
      {
        "type": "note_on",
        "note": 48,
        "velocity": 69,
        "time": 57591,
        "channel": 9
      },
      {
        "type": "note_off",
        "note": 36,
        "time": 57661,
        "channel": 9
      },
      {
        "type": "note_off",
        "note": 48,
        "time": 57667,
        "channel": 9
      },
      {
        "type": "note_on",
        "note": 38,
        "velocity": 29,
        "time": 57704,
        "channel": 9
      },
      {
        "type": "note_off",
        "note": 38,
        "time": 57780,
        "channel": 9
      },
      {
        "type": "note_on",
        "note": 38,
        "velocity": 29,
        "time": 57823,
        "channel": 9
      },
      {
        "type": "note_on",
        "note": 44,
        "velocity": 92,
        "time": 57833,
        "channel": 9
      },
      {
        "type": "note_off",
        "note": 38,
        "time": 57898,
        "channel": 9
      },
      {
        "type": "note_off",
        "note": 44,
        "time": 57909,
        "channel": 9
      },
      {
        "type": "note_on",
        "note": 48,
        "velocity": 71,
        "time": 57957,
        "channel": 9
      },
      {
        "type": "note_on",
        "note": 36,
        "velocity": 44,
        "time": 57962,
        "channel": 9
      },
      {
        "type": "note_off",
        "note": 48,
        "time": 58033,
        "channel": 9
      },
      {
        "type": "note_off",
        "note": 36,
        "time": 58038,
        "channel": 9
      },
      {
        "type": "note_on",
        "note": 48,
        "velocity": 82,
        "time": 58064,
        "channel": 9
      },
      {
        "type": "note_off",
        "note": 48,
        "time": 58140,
        "channel": 9
      },
      {
        "type": "note_on",
        "note": 38,
        "velocity": 14,
        "time": 58199,
        "channel": 9
      },
      {
        "type": "note_off",
        "note": 38,
        "time": 58274,
        "channel": 9
      },
      {
        "type": "note_on",
        "note": 36,
        "velocity": 43,
        "time": 58291,
        "channel": 9
      },
      {
        "type": "note_on",
        "note": 48,
        "velocity": 100,
        "time": 58300,
        "channel": 9
      },
      {
        "type": "note_on",
        "note": 44,
        "velocity": 82,
        "time": 58303,
        "channel": 9
      },
      {
        "type": "note_off",
        "note": 36,
        "time": 58367,
        "channel": 9
      },
      {
        "type": "note_off",
        "note": 48,
        "time": 58376,
        "channel": 9
      },
      {
        "type": "note_off",
        "note": 44,
        "time": 58379,
        "channel": 9
      },
      {
        "type": "note_on",
        "note": 38,
        "velocity": 27,
        "time": 58426,
        "channel": 9
      },
      {
        "type": "note_off",
        "note": 38,
        "time": 58463,
        "channel": 9
      },
      {
        "type": "note_on",
        "note": 38,
        "velocity": 23,
        "time": 58463,
        "channel": 9
      },
      {
        "type": "note_off",
        "note": 38,
        "time": 58484,
        "channel": 9
      },
      {
        "type": "note_on",
        "note": 38,
        "velocity": 23,
        "time": 58484,
        "channel": 9
      },
      {
        "type": "note_off",
        "note": 38,
        "time": 58501,
        "channel": 9
      },
      {
        "type": "note_on",
        "note": 38,
        "velocity": 13,
        "time": 58516,
        "channel": 9
      },
      {
        "type": "note_off",
        "note": 38,
        "time": 58539,
        "channel": 9
      },
      {
        "type": "note_on",
        "note": 36,
        "velocity": 43,
        "time": 58545,
        "channel": 9
      },
      {
        "type": "note_off",
        "note": 36,
        "time": 58621,
        "channel": 9
      },
      {
        "type": "note_on",
        "note": 43,
        "velocity": 109,
        "time": 58670,
        "channel": 9
      },
      {
        "type": "note_off",
        "note": 43,
        "time": 58745,
        "channel": 9
      },
      {
        "type": "note_on",
        "note": 38,
        "velocity": 32,
        "time": 58773,
        "channel": 9
      },
      {
        "type": "note_on",
        "note": 44,
        "velocity": 77,
        "time": 58779,
        "channel": 9
      },
      {
        "type": "note_off",
        "note": 38,
        "time": 58849,
        "channel": 9
      },
      {
        "type": "note_off",
        "note": 44,
        "time": 58855,
        "channel": 9
      },
      {
        "type": "note_on",
        "note": 36,
        "velocity": 41,
        "time": 58903,
        "channel": 9
      },
      {
        "type": "note_off",
        "note": 36,
        "time": 58979,
        "channel": 9
      },
      {
        "type": "note_on",
        "note": 38,
        "velocity": 42,
        "time": 59017,
        "channel": 9
      },
      {
        "type": "note_on",
        "note": 43,
        "velocity": 85,
        "time": 59026,
        "channel": 9
      },
      {
        "type": "note_off",
        "note": 38,
        "time": 59092,
        "channel": 9
      },
      {
        "type": "note_off",
        "note": 43,
        "time": 59101,
        "channel": 9
      },
      {
        "type": "note_on",
        "note": 38,
        "velocity": 29,
        "time": 59167,
        "channel": 9
      },
      {
        "type": "note_off",
        "note": 38,
        "time": 59243,
        "channel": 9
      },
      {
        "type": "note_on",
        "note": 38,
        "velocity": 42,
        "time": 59263,
        "channel": 9
      },
      {
        "type": "note_on",
        "note": 36,
        "velocity": 33,
        "time": 59266,
        "channel": 9
      },
      {
        "type": "note_on",
        "note": 44,
        "velocity": 82,
        "time": 59277,
        "channel": 9
      },
      {
        "type": "note_on",
        "note": 43,
        "velocity": 86,
        "time": 59280,
        "channel": 9
      },
      {
        "type": "note_off",
        "note": 38,
        "time": 59339,
        "channel": 9
      },
      {
        "type": "note_off",
        "note": 36,
        "time": 59342,
        "channel": 9
      },
      {
        "type": "note_off",
        "note": 44,
        "time": 59353,
        "channel": 9
      },
      {
        "type": "note_off",
        "note": 43,
        "time": 59356,
        "channel": 9
      },
      {
        "type": "note_on",
        "note": 38,
        "velocity": 38,
        "time": 59386,
        "channel": 9
      },
      {
        "type": "note_off",
        "note": 38,
        "time": 59462,
        "channel": 9
      },
      {
        "type": "note_on",
        "note": 36,
        "velocity": 51,
        "time": 59505,
        "channel": 9
      },
      {
        "type": "note_on",
        "note": 59,
        "velocity": 69,
        "time": 59513,
        "channel": 9
      },
      {
        "type": "note_off",
        "note": 36,
        "time": 59580,
        "channel": 9
      },
      {
        "type": "note_off",
        "note": 59,
        "time": 59589,
        "channel": 9
      },
      {
        "type": "note_on",
        "note": 38,
        "velocity": 13,
        "time": 59624,
        "channel": 9
      },
      {
        "type": "note_off",
        "note": 38,
        "time": 59700,
        "channel": 9
      },
      {
        "type": "note_on",
        "note": 38,
        "velocity": 28,
        "time": 59735,
        "channel": 9
      },
      {
        "type": "note_on",
        "note": 44,
        "velocity": 80,
        "time": 59751,
        "channel": 9
      },
      {
        "type": "note_off",
        "note": 38,
        "time": 59811,
        "channel": 9
      },
      {
        "type": "note_off",
        "note": 44,
        "time": 59827,
        "channel": 9
      },
      {
        "type": "note_on",
        "note": 36,
        "velocity": 50,
        "time": 59879,
        "channel": 9
      },
      {
        "type": "note_on",
        "note": 48,
        "velocity": 67,
        "time": 59887,
        "channel": 9
      },
      {
        "type": "note_off",
        "note": 36,
        "time": 59955,
        "channel": 9
      },
      {
        "type": "note_off",
        "note": 48,
        "time": 59963,
        "channel": 9
      },
      {
        "type": "note_on",
        "note": 48,
        "velocity": 74,
        "time": 59992,
        "channel": 9
      },
      {
        "type": "note_off",
        "note": 48,
        "time": 60068,
        "channel": 9
      },
      {
        "type": "note_on",
        "note": 38,
        "velocity": 15,
        "time": 60123,
        "channel": 9
      },
      {
        "type": "note_off",
        "note": 38,
        "time": 60199,
        "channel": 9
      },
      {
        "type": "note_on",
        "note": 36,
        "velocity": 40,
        "time": 60222,
        "channel": 9
      },
      {
        "type": "note_on",
        "note": 44,
        "velocity": 85,
        "time": 60223,
        "channel": 9
      },
      {
        "type": "note_on",
        "note": 50,
        "velocity": 124,
        "time": 60226,
        "channel": 9
      },
      {
        "type": "note_off",
        "note": 36,
        "time": 60298,
        "channel": 9
      },
      {
        "type": "note_off",
        "note": 44,
        "time": 60299,
        "channel": 9
      },
      {
        "type": "note_off",
        "note": 50,
        "time": 60302,
        "channel": 9
      },
      {
        "type": "note_on",
        "note": 38,
        "velocity": 28,
        "time": 60355,
        "channel": 9
      },
      {
        "type": "note_off",
        "note": 38,
        "time": 60431,
        "channel": 9
      },
      {
        "type": "note_on",
        "note": 36,
        "velocity": 42,
        "time": 60453,
        "channel": 9
      },
      {
        "type": "note_on",
        "note": 38,
        "velocity": 32,
        "time": 60465,
        "channel": 9
      },
      {
        "type": "note_off",
        "note": 36,
        "time": 60529,
        "channel": 9
      },
      {
        "type": "note_off",
        "note": 38,
        "time": 60541,
        "channel": 9
      },
      {
        "type": "note_on",
        "note": 48,
        "velocity": 108,
        "time": 60600,
        "channel": 9
      },
      {
        "type": "note_off",
        "note": 48,
        "time": 60676,
        "channel": 9
      },
      {
        "type": "note_on",
        "note": 44,
        "velocity": 75,
        "time": 60700,
        "channel": 9
      },
      {
        "type": "note_off",
        "note": 44,
        "time": 60776,
        "channel": 9
      },
      {
        "type": "note_on",
        "note": 36,
        "velocity": 45,
        "time": 60819,
        "channel": 9
      },
      {
        "type": "note_on",
        "note": 38,
        "velocity": 8,
        "time": 60838,
        "channel": 9
      },
      {
        "type": "note_off",
        "note": 36,
        "time": 60896,
        "channel": 9
      },
      {
        "type": "note_off",
        "note": 38,
        "time": 60914,
        "channel": 9
      },
      {
        "type": "note_on",
        "note": 43,
        "velocity": 94,
        "time": 60955,
        "channel": 9
      },
      {
        "type": "note_off",
        "note": 43,
        "time": 61031,
        "channel": 9
      },
      {
        "type": "note_on",
        "note": 43,
        "velocity": 80,
        "time": 61083,
        "channel": 9
      },
      {
        "type": "note_off",
        "note": 43,
        "time": 61159,
        "channel": 9
      },
      {
        "type": "note_on",
        "note": 36,
        "velocity": 38,
        "time": 61171,
        "channel": 9
      },
      {
        "type": "note_on",
        "note": 44,
        "velocity": 80,
        "time": 61186,
        "channel": 9
      },
      {
        "type": "note_on",
        "note": 43,
        "velocity": 79,
        "time": 61192,
        "channel": 9
      },
      {
        "type": "note_off",
        "note": 36,
        "time": 61247,
        "channel": 9
      },
      {
        "type": "note_off",
        "note": 44,
        "time": 61262,
        "channel": 9
      },
      {
        "type": "note_off",
        "note": 43,
        "time": 61268,
        "channel": 9
      },
      {
        "type": "note_on",
        "note": 38,
        "velocity": 19,
        "time": 61288,
        "channel": 9
      },
      {
        "type": "note_off",
        "note": 38,
        "time": 61363,
        "channel": 9
      },
      {
        "type": "note_on",
        "note": 36,
        "velocity": 56,
        "time": 61402,
        "channel": 9
      },
      {
        "type": "note_on",
        "note": 43,
        "velocity": 103,
        "time": 61414,
        "channel": 9
      },
      {
        "type": "note_off",
        "note": 36,
        "time": 61478,
        "channel": 9
      },
      {
        "type": "note_off",
        "note": 43,
        "time": 61490,
        "channel": 9
      },
      {
        "type": "note_on",
        "note": 38,
        "velocity": 24,
        "time": 61549,
        "channel": 9
      },
      {
        "type": "note_off",
        "note": 38,
        "time": 61624,
        "channel": 9
      },
      {
        "type": "note_on",
        "note": 43,
        "velocity": 100,
        "time": 61658,
        "channel": 9
      },
      {
        "type": "note_off",
        "note": 43,
        "time": 61733,
        "channel": 9
      },
      {
        "type": "note_on",
        "note": 43,
        "velocity": 103,
        "time": 61906,
        "channel": 9
      },
      {
        "type": "note_off",
        "note": 43,
        "time": 61982,
        "channel": 9
      },
      {
        "type": "note_on",
        "note": 38,
        "velocity": 8,
        "time": 62066,
        "channel": 9
      },
      {
        "type": "note_off",
        "note": 38,
        "time": 62142,
        "channel": 9
      },
      {
        "type": "note_on",
        "note": 43,
        "velocity": 116,
        "time": 62156,
        "channel": 9
      },
      {
        "type": "note_off",
        "note": 43,
        "time": 62232,
        "channel": 9
      },
      {
        "type": "note_on",
        "note": 38,
        "velocity": 20,
        "time": 62317,
        "channel": 9
      },
      {
        "type": "note_on",
        "note": 44,
        "velocity": 67,
        "time": 62373,
        "channel": 9
      },
      {
        "type": "note_off",
        "note": 38,
        "time": 62383,
        "channel": 9
      },
      {
        "type": "note_on",
        "note": 38,
        "velocity": 9,
        "time": 62383,
        "channel": 9
      },
      {
        "type": "note_off",
        "note": 38,
        "time": 62393,
        "channel": 9
      },
      {
        "type": "note_on",
        "note": 48,
        "velocity": 79,
        "time": 62408,
        "channel": 9
      },
      {
        "type": "note_off",
        "note": 44,
        "time": 62449,
        "channel": 9
      },
      {
        "type": "note_off",
        "note": 48,
        "time": 62484,
        "channel": 9
      },
      {
        "type": "note_on",
        "note": 48,
        "velocity": 65,
        "time": 62539,
        "channel": 9
      },
      {
        "type": "note_off",
        "note": 48,
        "time": 62615,
        "channel": 9
      },
      {
        "type": "note_on",
        "note": 44,
        "velocity": 65,
        "time": 62626,
        "channel": 9
      },
      {
        "type": "note_on",
        "note": 48,
        "velocity": 74,
        "time": 62642,
        "channel": 9
      },
      {
        "type": "note_off",
        "note": 44,
        "time": 62702,
        "channel": 9
      },
      {
        "type": "note_off",
        "note": 48,
        "time": 62718,
        "channel": 9
      },
      {
        "type": "note_on",
        "note": 36,
        "velocity": 48,
        "time": 62769,
        "channel": 9
      },
      {
        "type": "note_off",
        "note": 36,
        "time": 62845,
        "channel": 9
      },
      {
        "type": "note_on",
        "note": 26,
        "velocity": 113,
        "time": 62876,
        "channel": 9
      },
      {
        "type": "note_on",
        "note": 38,
        "velocity": 127,
        "time": 62880,
        "channel": 9
      },
      {
        "type": "note_off",
        "note": 26,
        "time": 62951,
        "channel": 9
      },
      {
        "type": "note_off",
        "note": 38,
        "time": 62956,
        "channel": 9
      },
      {
        "type": "note_on",
        "note": 38,
        "velocity": 39,
        "time": 63191,
        "channel": 9
      },
      {
        "type": "note_off",
        "note": 38,
        "time": 63241,
        "channel": 9
      },
      {
        "type": "note_on",
        "note": 38,
        "velocity": 46,
        "time": 63241,
        "channel": 9
      },
      {
        "type": "note_off",
        "note": 38,
        "time": 63267,
        "channel": 9
      },
      {
        "type": "note_on",
        "note": 38,
        "velocity": 57,
        "time": 63288,
        "channel": 9
      },
      {
        "type": "note_off",
        "note": 38,
        "time": 63317,
        "channel": 9
      },
      {
        "type": "note_on",
        "note": 36,
        "velocity": 62,
        "time": 63370,
        "channel": 9
      },
      {
        "type": "note_on",
        "note": 59,
        "velocity": 98,
        "time": 63371,
        "channel": 9
      },
      {
        "type": "note_off",
        "note": 36,
        "time": 63446,
        "channel": 9
      },
      {
        "type": "note_off",
        "note": 59,
        "time": 63446,
        "channel": 9
      },
      {
        "type": "note_on",
        "note": 38,
        "velocity": 21,
        "time": 63514,
        "channel": 9
      },
      {
        "type": "note_off",
        "note": 38,
        "time": 63590,
        "channel": 9
      },
      {
        "type": "note_on",
        "note": 38,
        "velocity": 7,
        "time": 63595,
        "channel": 9
      },
      {
        "type": "note_on",
        "note": 44,
        "velocity": 80,
        "time": 63607,
        "channel": 9
      },
      {
        "type": "note_off",
        "note": 38,
        "time": 63670,
        "channel": 9
      },
      {
        "type": "note_off",
        "note": 44,
        "time": 63683,
        "channel": 9
      },
      {
        "type": "note_on",
        "note": 51,
        "velocity": 124,
        "time": 63722,
        "channel": 9
      },
      {
        "type": "note_on",
        "note": 36,
        "velocity": 50,
        "time": 63730,
        "channel": 9
      },
      {
        "type": "note_off",
        "note": 51,
        "time": 63797,
        "channel": 9
      },
      {
        "type": "note_off",
        "note": 36,
        "time": 63806,
        "channel": 9
      },
      {
        "type": "note_on",
        "note": 51,
        "velocity": 72,
        "time": 63816,
        "channel": 9
      },
      {
        "type": "note_off",
        "note": 51,
        "time": 63891,
        "channel": 9
      },
      {
        "type": "note_on",
        "note": 36,
        "velocity": 44,
        "time": 64059,
        "channel": 9
      },
      {
        "type": "note_on",
        "note": 38,
        "velocity": 71,
        "time": 64064,
        "channel": 9
      },
      {
        "type": "note_on",
        "note": 44,
        "velocity": 75,
        "time": 64065,
        "channel": 9
      },
      {
        "type": "note_on",
        "note": 51,
        "velocity": 127,
        "time": 64067,
        "channel": 9
      },
      {
        "type": "note_off",
        "note": 36,
        "time": 64135,
        "channel": 9
      },
      {
        "type": "note_off",
        "note": 38,
        "time": 64140,
        "channel": 9
      },
      {
        "type": "note_off",
        "note": 44,
        "time": 64140,
        "channel": 9
      },
      {
        "type": "note_off",
        "note": 51,
        "time": 64143,
        "channel": 9
      },
      {
        "type": "note_on",
        "note": 38,
        "velocity": 24,
        "time": 64198,
        "channel": 9
      },
      {
        "type": "note_off",
        "note": 38,
        "time": 64272,
        "channel": 9
      },
      {
        "type": "note_on",
        "note": 38,
        "velocity": 8,
        "time": 64272,
        "channel": 9
      },
      {
        "type": "note_off",
        "note": 38,
        "time": 64273,
        "channel": 9
      },
      {
        "type": "note_on",
        "note": 36,
        "velocity": 43,
        "time": 64312,
        "channel": 9
      },
      {
        "type": "note_on",
        "note": 51,
        "velocity": 121,
        "time": 64326,
        "channel": 9
      },
      {
        "type": "note_off",
        "note": 36,
        "time": 64388,
        "channel": 9
      },
      {
        "type": "note_off",
        "note": 51,
        "time": 64402,
        "channel": 9
      },
      {
        "type": "note_on",
        "note": 51,
        "velocity": 115,
        "time": 64458,
        "channel": 9
      },
      {
        "type": "note_off",
        "note": 51,
        "time": 64534,
        "channel": 9
      },
      {
        "type": "note_on",
        "note": 44,
        "velocity": 75,
        "time": 64563,
        "channel": 9
      },
      {
        "type": "note_on",
        "note": 38,
        "velocity": 13,
        "time": 64576,
        "channel": 9
      },
      {
        "type": "note_off",
        "note": 44,
        "time": 64639,
        "channel": 9
      },
      {
        "type": "note_off",
        "note": 38,
        "time": 64652,
        "channel": 9
      },
      {
        "type": "note_on",
        "note": 36,
        "velocity": 46,
        "time": 64695,
        "channel": 9
      },
      {
        "type": "note_on",
        "note": 51,
        "velocity": 103,
        "time": 64697,
        "channel": 9
      },
      {
        "type": "note_off",
        "note": 36,
        "time": 64771,
        "channel": 9
      },
      {
        "type": "note_off",
        "note": 51,
        "time": 64772,
        "channel": 9
      },
      {
        "type": "note_on",
        "note": 51,
        "velocity": 96,
        "time": 64802,
        "channel": 9
      },
      {
        "type": "note_off",
        "note": 51,
        "time": 64878,
        "channel": 9
      },
      {
        "type": "note_on",
        "note": 38,
        "velocity": 15,
        "time": 64940,
        "channel": 9
      },
      {
        "type": "note_off",
        "note": 38,
        "time": 64981,
        "channel": 9
      },
      {
        "type": "note_on",
        "note": 38,
        "velocity": 24,
        "time": 64981,
        "channel": 9
      },
      {
        "type": "note_off",
        "note": 38,
        "time": 65000,
        "channel": 9
      },
      {
        "type": "note_on",
        "note": 38,
        "velocity": 24,
        "time": 65000,
        "channel": 9
      },
      {
        "type": "note_off",
        "note": 38,
        "time": 65016,
        "channel": 9
      },
      {
        "type": "note_on",
        "note": 36,
        "velocity": 41,
        "time": 65024,
        "channel": 9
      },
      {
        "type": "note_on",
        "note": 44,
        "velocity": 85,
        "time": 65026,
        "channel": 9
      },
      {
        "type": "note_on",
        "note": 59,
        "velocity": 127,
        "time": 65028,
        "channel": 9
      },
      {
        "type": "note_off",
        "note": 36,
        "time": 65100,
        "channel": 9
      },
      {
        "type": "note_off",
        "note": 44,
        "time": 65101,
        "channel": 9
      },
      {
        "type": "note_off",
        "note": 59,
        "time": 65104,
        "channel": 9
      },
      {
        "type": "note_on",
        "note": 38,
        "velocity": 20,
        "time": 65168,
        "channel": 9
      },
      {
        "type": "note_off",
        "note": 38,
        "time": 65244,
        "channel": 9
      },
      {
        "type": "note_on",
        "note": 36,
        "velocity": 42,
        "time": 65259,
        "channel": 9
      },
      {
        "type": "note_on",
        "note": 51,
        "velocity": 95,
        "time": 65272,
        "channel": 9
      },
      {
        "type": "note_off",
        "note": 36,
        "time": 65335,
        "channel": 9
      },
      {
        "type": "note_off",
        "note": 51,
        "time": 65348,
        "channel": 9
      },
      {
        "type": "note_on",
        "note": 51,
        "velocity": 84,
        "time": 65406,
        "channel": 9
      },
      {
        "type": "note_off",
        "note": 51,
        "time": 65482,
        "channel": 9
      },
      {
        "type": "note_on",
        "note": 44,
        "velocity": 67,
        "time": 65497,
        "channel": 9
      },
      {
        "type": "note_on",
        "note": 38,
        "velocity": 46,
        "time": 65513,
        "channel": 9
      },
      {
        "type": "note_off",
        "note": 44,
        "time": 65572,
        "channel": 9
      },
      {
        "type": "note_off",
        "note": 38,
        "time": 65590,
        "channel": 9
      },
      {
        "type": "note_on",
        "note": 36,
        "velocity": 46,
        "time": 65640,
        "channel": 9
      },
      {
        "type": "note_on",
        "note": 51,
        "velocity": 78,
        "time": 65651,
        "channel": 9
      },
      {
        "type": "note_off",
        "note": 36,
        "time": 65716,
        "channel": 9
      },
      {
        "type": "note_off",
        "note": 51,
        "time": 65726,
        "channel": 9
      },
      {
        "type": "note_on",
        "note": 51,
        "velocity": 73,
        "time": 65753,
        "channel": 9
      },
      {
        "type": "note_off",
        "note": 51,
        "time": 65829,
        "channel": 9
      },
      {
        "type": "note_on",
        "note": 38,
        "velocity": 95,
        "time": 65870,
        "channel": 9
      },
      {
        "type": "note_off",
        "note": 38,
        "time": 65946,
        "channel": 9
      },
      {
        "type": "note_on",
        "note": 44,
        "velocity": 92,
        "time": 65967,
        "channel": 9
      },
      {
        "type": "note_on",
        "note": 36,
        "velocity": 44,
        "time": 65968,
        "channel": 9
      },
      {
        "type": "note_on",
        "note": 51,
        "velocity": 103,
        "time": 65981,
        "channel": 9
      },
      {
        "type": "note_off",
        "note": 44,
        "time": 66043,
        "channel": 9
      },
      {
        "type": "note_off",
        "note": 36,
        "time": 66044,
        "channel": 9
      },
      {
        "type": "note_off",
        "note": 51,
        "time": 66057,
        "channel": 9
      },
      {
        "type": "note_on",
        "note": 38,
        "velocity": 20,
        "time": 66100,
        "channel": 9
      },
      {
        "type": "note_off",
        "note": 38,
        "time": 66176,
        "channel": 9
      },
      {
        "type": "note_on",
        "note": 36,
        "velocity": 37,
        "time": 66201,
        "channel": 9
      },
      {
        "type": "note_on",
        "note": 51,
        "velocity": 79,
        "time": 66216,
        "channel": 9
      },
      {
        "type": "note_off",
        "note": 36,
        "time": 66278,
        "channel": 9
      },
      {
        "type": "note_off",
        "note": 51,
        "time": 66292,
        "channel": 9
      },
      {
        "type": "note_on",
        "note": 51,
        "velocity": 91,
        "time": 66342,
        "channel": 9
      },
      {
        "type": "note_off",
        "note": 51,
        "time": 66418,
        "channel": 9
      },
      {
        "type": "note_on",
        "note": 44,
        "velocity": 100,
        "time": 66456,
        "channel": 9
      },
      {
        "type": "note_on",
        "note": 38,
        "velocity": 29,
        "time": 66458,
        "channel": 9
      },
      {
        "type": "note_off",
        "note": 44,
        "time": 66532,
        "channel": 9
      },
      {
        "type": "note_off",
        "note": 38,
        "time": 66534,
        "channel": 9
      },
      {
        "type": "note_on",
        "note": 36,
        "velocity": 46,
        "time": 66592,
        "channel": 9
      },
      {
        "type": "note_on",
        "note": 51,
        "velocity": 94,
        "time": 66604,
        "channel": 9
      },
      {
        "type": "note_off",
        "note": 36,
        "time": 66669,
        "channel": 9
      },
      {
        "type": "note_off",
        "note": 51,
        "time": 66681,
        "channel": 9
      },
      {
        "type": "note_on",
        "note": 51,
        "velocity": 90,
        "time": 66708,
        "channel": 9
      },
      {
        "type": "note_off",
        "note": 51,
        "time": 66784,
        "channel": 9
      },
      {
        "type": "note_on",
        "note": 38,
        "velocity": 33,
        "time": 66841,
        "channel": 9
      },
      {
        "type": "note_off",
        "note": 38,
        "time": 66875,
        "channel": 9
      },
      {
        "type": "note_on",
        "note": 38,
        "velocity": 34,
        "time": 66875,
        "channel": 9
      },
      {
        "type": "note_off",
        "note": 38,
        "time": 66899,
        "channel": 9
      },
      {
        "type": "note_on",
        "note": 38,
        "velocity": 28,
        "time": 66899,
        "channel": 9
      },
      {
        "type": "note_off",
        "note": 38,
        "time": 66917,
        "channel": 9
      },
      {
        "type": "note_on",
        "note": 36,
        "velocity": 40,
        "time": 66921,
        "channel": 9
      },
      {
        "type": "note_on",
        "note": 44,
        "velocity": 62,
        "time": 66928,
        "channel": 9
      },
      {
        "type": "note_on",
        "note": 51,
        "velocity": 97,
        "time": 66945,
        "channel": 9
      },
      {
        "type": "note_off",
        "note": 36,
        "time": 66997,
        "channel": 9
      },
      {
        "type": "note_off",
        "note": 44,
        "time": 67004,
        "channel": 9
      },
      {
        "type": "note_off",
        "note": 51,
        "time": 67021,
        "channel": 9
      },
      {
        "type": "note_on",
        "note": 38,
        "velocity": 22,
        "time": 67084,
        "channel": 9
      },
      {
        "type": "note_off",
        "note": 38,
        "time": 67160,
        "channel": 9
      },
      {
        "type": "note_on",
        "note": 36,
        "velocity": 41,
        "time": 67168,
        "channel": 9
      },
      {
        "type": "note_on",
        "note": 51,
        "velocity": 78,
        "time": 67180,
        "channel": 9
      },
      {
        "type": "note_off",
        "note": 36,
        "time": 67245,
        "channel": 9
      },
      {
        "type": "note_off",
        "note": 51,
        "time": 67256,
        "channel": 9
      },
      {
        "type": "note_on",
        "note": 51,
        "velocity": 67,
        "time": 67300,
        "channel": 9
      },
      {
        "type": "note_off",
        "note": 51,
        "time": 67376,
        "channel": 9
      },
      {
        "type": "note_on",
        "note": 44,
        "velocity": 92,
        "time": 67412,
        "channel": 9
      },
      {
        "type": "note_on",
        "note": 38,
        "velocity": 73,
        "time": 67431,
        "channel": 9
      },
      {
        "type": "note_off",
        "note": 44,
        "time": 67487,
        "channel": 9
      },
      {
        "type": "note_off",
        "note": 38,
        "time": 67506,
        "channel": 9
      },
      {
        "type": "note_on",
        "note": 51,
        "velocity": 78,
        "time": 67566,
        "channel": 9
      },
      {
        "type": "note_on",
        "note": 36,
        "velocity": 47,
        "time": 67572,
        "channel": 9
      },
      {
        "type": "note_off",
        "note": 51,
        "time": 67642,
        "channel": 9
      },
      {
        "type": "note_off",
        "note": 36,
        "time": 67648,
        "channel": 9
      },
      {
        "type": "note_on",
        "note": 51,
        "velocity": 64,
        "time": 67670,
        "channel": 9
      },
      {
        "type": "note_off",
        "note": 51,
        "time": 67746,
        "channel": 9
      },
      {
        "type": "note_on",
        "note": 38,
        "velocity": 76,
        "time": 67789,
        "channel": 9
      },
      {
        "type": "note_off",
        "note": 38,
        "time": 67864,
        "channel": 9
      },
      {
        "type": "note_on",
        "note": 36,
        "velocity": 44,
        "time": 67902,
        "channel": 9
      },
      {
        "type": "note_on",
        "note": 44,
        "velocity": 82,
        "time": 67910,
        "channel": 9
      },
      {
        "type": "note_on",
        "note": 51,
        "velocity": 77,
        "time": 67912,
        "channel": 9
      },
      {
        "type": "note_off",
        "note": 36,
        "time": 67978,
        "channel": 9
      },
      {
        "type": "note_off",
        "note": 44,
        "time": 67986,
        "channel": 9
      },
      {
        "type": "note_off",
        "note": 51,
        "time": 67988,
        "channel": 9
      },
      {
        "type": "note_on",
        "note": 51,
        "velocity": 79,
        "time": 68045,
        "channel": 9
      },
      {
        "type": "note_off",
        "note": 51,
        "time": 68121,
        "channel": 9
      },
      {
        "type": "note_on",
        "note": 38,
        "velocity": 46,
        "time": 68146,
        "channel": 9
      },
      {
        "type": "note_on",
        "note": 36,
        "velocity": 40,
        "time": 68189,
        "channel": 9
      },
      {
        "type": "note_off",
        "note": 38,
        "time": 68221,
        "channel": 9
      },
      {
        "type": "note_off",
        "note": 36,
        "time": 68265,
        "channel": 9
      },
      {
        "type": "note_on",
        "note": 51,
        "velocity": 58,
        "time": 68301,
        "channel": 9
      },
      {
        "type": "note_off",
        "note": 51,
        "time": 68376,
        "channel": 9
      },
      {
        "type": "note_on",
        "note": 51,
        "velocity": 97,
        "time": 68389,
        "channel": 9
      },
      {
        "type": "note_on",
        "note": 44,
        "velocity": 90,
        "time": 68391,
        "channel": 9
      },
      {
        "type": "note_off",
        "note": 51,
        "time": 68464,
        "channel": 9
      },
      {
        "type": "note_off",
        "note": 44,
        "time": 68467,
        "channel": 9
      },
      {
        "type": "note_on",
        "note": 38,
        "velocity": 35,
        "time": 68503,
        "channel": 9
      },
      {
        "type": "note_on",
        "note": 36,
        "velocity": 48,
        "time": 68536,
        "channel": 9
      },
      {
        "type": "note_off",
        "note": 38,
        "time": 68579,
        "channel": 9
      },
      {
        "type": "note_off",
        "note": 36,
        "time": 68612,
        "channel": 9
      },
      {
        "type": "note_on",
        "note": 51,
        "velocity": 80,
        "time": 68617,
        "channel": 9
      },
      {
        "type": "note_off",
        "note": 51,
        "time": 68693,
        "channel": 9
      },
      {
        "type": "note_on",
        "note": 51,
        "velocity": 70,
        "time": 68751,
        "channel": 9
      },
      {
        "type": "note_off",
        "note": 51,
        "time": 68827,
        "channel": 9
      },
      {
        "type": "note_on",
        "note": 38,
        "velocity": 80,
        "time": 68855,
        "channel": 9
      },
      {
        "type": "note_on",
        "note": 44,
        "velocity": 97,
        "time": 68858,
        "channel": 9
      },
      {
        "type": "note_on",
        "note": 51,
        "velocity": 127,
        "time": 68858,
        "channel": 9
      },
      {
        "type": "note_off",
        "note": 38,
        "time": 68931,
        "channel": 9
      },
      {
        "type": "note_off",
        "note": 44,
        "time": 68934,
        "channel": 9
      },
      {
        "type": "note_off",
        "note": 51,
        "time": 68934,
        "channel": 9
      },
      {
        "type": "note_on",
        "note": 38,
        "velocity": 36,
        "time": 68988,
        "channel": 9
      },
      {
        "type": "note_off",
        "note": 38,
        "time": 69064,
        "channel": 9
      },
      {
        "type": "note_on",
        "note": 36,
        "velocity": 48,
        "time": 69091,
        "channel": 9
      },
      {
        "type": "note_on",
        "note": 51,
        "velocity": 85,
        "time": 69099,
        "channel": 9
      },
      {
        "type": "note_off",
        "note": 36,
        "time": 69167,
        "channel": 9
      },
      {
        "type": "note_off",
        "note": 51,
        "time": 69175,
        "channel": 9
      },
      {
        "type": "note_on",
        "note": 51,
        "velocity": 83,
        "time": 69238,
        "channel": 9
      },
      {
        "type": "note_off",
        "note": 51,
        "time": 69313,
        "channel": 9
      },
      {
        "type": "note_on",
        "note": 44,
        "velocity": 95,
        "time": 69336,
        "channel": 9
      },
      {
        "type": "note_on",
        "note": 38,
        "velocity": 57,
        "time": 69356,
        "channel": 9
      },
      {
        "type": "note_off",
        "note": 44,
        "time": 69412,
        "channel": 9
      },
      {
        "type": "note_off",
        "note": 38,
        "time": 69431,
        "channel": 9
      },
      {
        "type": "note_on",
        "note": 36,
        "velocity": 44,
        "time": 69487,
        "channel": 9
      },
      {
        "type": "note_on",
        "note": 51,
        "velocity": 61,
        "time": 69495,
        "channel": 9
      },
      {
        "type": "note_off",
        "note": 36,
        "time": 69563,
        "channel": 9
      },
      {
        "type": "note_off",
        "note": 51,
        "time": 69570,
        "channel": 9
      },
      {
        "type": "note_on",
        "note": 51,
        "velocity": 74,
        "time": 69593,
        "channel": 9
      },
      {
        "type": "note_off",
        "note": 51,
        "time": 69669,
        "channel": 9
      },
      {
        "type": "note_on",
        "note": 48,
        "velocity": 102,
        "time": 69715,
        "channel": 9
      },
      {
        "type": "note_off",
        "note": 48,
        "time": 69791,
        "channel": 9
      },
      {
        "type": "note_on",
        "note": 36,
        "velocity": 46,
        "time": 69820,
        "channel": 9
      },
      {
        "type": "note_on",
        "note": 44,
        "velocity": 97,
        "time": 69833,
        "channel": 9
      },
      {
        "type": "note_on",
        "note": 51,
        "velocity": 70,
        "time": 69843,
        "channel": 9
      },
      {
        "type": "note_off",
        "note": 36,
        "time": 69896,
        "channel": 9
      },
      {
        "type": "note_off",
        "note": 44,
        "time": 69908,
        "channel": 9
      },
      {
        "type": "note_off",
        "note": 51,
        "time": 69919,
        "channel": 9
      },
      {
        "type": "note_on",
        "note": 51,
        "velocity": 75,
        "time": 69967,
        "channel": 9
      },
      {
        "type": "note_off",
        "note": 51,
        "time": 70043,
        "channel": 9
      },
      {
        "type": "note_on",
        "note": 38,
        "velocity": 98,
        "time": 70067,
        "channel": 9
      },
      {
        "type": "note_off",
        "note": 38,
        "time": 70144,
        "channel": 9
      },
      {
        "type": "note_on",
        "note": 36,
        "velocity": 49,
        "time": 70205,
        "channel": 9
      },
      {
        "type": "note_on",
        "note": 51,
        "velocity": 78,
        "time": 70216,
        "channel": 9
      },
      {
        "type": "note_off",
        "note": 36,
        "time": 70281,
        "channel": 9
      },
      {
        "type": "note_off",
        "note": 51,
        "time": 70292,
        "channel": 9
      },
      {
        "type": "note_on",
        "note": 44,
        "velocity": 97,
        "time": 70310,
        "channel": 9
      },
      {
        "type": "note_on",
        "note": 51,
        "velocity": 86,
        "time": 70320,
        "channel": 9
      },
      {
        "type": "note_off",
        "note": 44,
        "time": 70386,
        "channel": 9
      },
      {
        "type": "note_off",
        "note": 51,
        "time": 70395,
        "channel": 9
      },
      {
        "type": "note_on",
        "note": 38,
        "velocity": 79,
        "time": 70455,
        "channel": 9
      },
      {
        "type": "note_off",
        "note": 38,
        "time": 70531,
        "channel": 9
      },
      {
        "type": "note_on",
        "note": 36,
        "velocity": 38,
        "time": 70539,
        "channel": 9
      },
      {
        "type": "note_on",
        "note": 51,
        "velocity": 68,
        "time": 70561,
        "channel": 9
      },
      {
        "type": "note_off",
        "note": 36,
        "time": 70615,
        "channel": 9
      },
      {
        "type": "note_off",
        "note": 51,
        "time": 70637,
        "channel": 9
      },
      {
        "type": "note_on",
        "note": 36,
        "velocity": 40,
        "time": 70685,
        "channel": 9
      },
      {
        "type": "note_off",
        "note": 36,
        "time": 70761,
        "channel": 9
      },
      {
        "type": "note_on",
        "note": 55,
        "velocity": 123,
        "time": 70793,
        "channel": 9
      },
      {
        "type": "note_on",
        "note": 44,
        "velocity": 90,
        "time": 70794,
        "channel": 9
      },
      {
        "type": "note_on",
        "note": 38,
        "velocity": 127,
        "time": 70796,
        "channel": 9
      },
      {
        "type": "note_off",
        "note": 44,
        "time": 70869,
        "channel": 9
      },
      {
        "type": "note_off",
        "note": 55,
        "time": 70869,
        "channel": 9
      },
      {
        "type": "note_off",
        "note": 38,
        "time": 70871,
        "channel": 9
      },
      {
        "type": "note_on",
        "note": 36,
        "velocity": 42,
        "time": 71023,
        "channel": 9
      },
      {
        "type": "note_on",
        "note": 51,
        "velocity": 60,
        "time": 71045,
        "channel": 9
      },
      {
        "type": "note_off",
        "note": 36,
        "time": 71099,
        "channel": 9
      },
      {
        "type": "note_off",
        "note": 51,
        "time": 71121,
        "channel": 9
      },
      {
        "type": "note_on",
        "note": 51,
        "velocity": 65,
        "time": 71158,
        "channel": 9
      },
      {
        "type": "note_off",
        "note": 51,
        "time": 71234,
        "channel": 9
      },
      {
        "type": "note_on",
        "note": 38,
        "velocity": 75,
        "time": 71259,
        "channel": 9
      },
      {
        "type": "note_on",
        "note": 44,
        "velocity": 95,
        "time": 71276,
        "channel": 9
      },
      {
        "type": "note_off",
        "note": 38,
        "time": 71335,
        "channel": 9
      },
      {
        "type": "note_off",
        "note": 44,
        "time": 71352,
        "channel": 9
      },
      {
        "type": "note_on",
        "note": 36,
        "velocity": 41,
        "time": 71406,
        "channel": 9
      },
      {
        "type": "note_on",
        "note": 51,
        "velocity": 76,
        "time": 71413,
        "channel": 9
      },
      {
        "type": "note_off",
        "note": 36,
        "time": 71481,
        "channel": 9
      },
      {
        "type": "note_off",
        "note": 51,
        "time": 71489,
        "channel": 9
      },
      {
        "type": "note_on",
        "note": 51,
        "velocity": 63,
        "time": 71511,
        "channel": 9
      },
      {
        "type": "note_off",
        "note": 51,
        "time": 71587,
        "channel": 9
      },
      {
        "type": "note_on",
        "note": 48,
        "velocity": 101,
        "time": 71641,
        "channel": 9
      },
      {
        "type": "note_on",
        "note": 46,
        "velocity": 13,
        "time": 71652,
        "channel": 9
      },
      {
        "type": "note_off",
        "note": 48,
        "time": 71717,
        "channel": 9
      },
      {
        "type": "note_on",
        "note": 36,
        "velocity": 43,
        "time": 71724,
        "channel": 9
      },
      {
        "type": "note_off",
        "note": 46,
        "time": 71727,
        "channel": 9
      },
      {
        "type": "note_on",
        "note": 44,
        "velocity": 87,
        "time": 71745,
        "channel": 9
      },
      {
        "type": "note_on",
        "note": 51,
        "velocity": 74,
        "time": 71755,
        "channel": 9
      },
      {
        "type": "note_off",
        "note": 36,
        "time": 71799,
        "channel": 9
      },
      {
        "type": "note_off",
        "note": 44,
        "time": 71821,
        "channel": 9
      },
      {
        "type": "note_off",
        "note": 51,
        "time": 71831,
        "channel": 9
      },
      {
        "type": "note_on",
        "note": 51,
        "velocity": 70,
        "time": 71881,
        "channel": 9
      },
      {
        "type": "note_off",
        "note": 51,
        "time": 71957,
        "channel": 9
      },
      {
        "type": "note_on",
        "note": 43,
        "velocity": 102,
        "time": 71981,
        "channel": 9
      },
      {
        "type": "note_off",
        "note": 43,
        "time": 72057,
        "channel": 9
      },
      {
        "type": "note_on",
        "note": 36,
        "velocity": 47,
        "time": 72104,
        "channel": 9
      },
      {
        "type": "note_on",
        "note": 51,
        "velocity": 61,
        "time": 72119,
        "channel": 9
      },
      {
        "type": "note_off",
        "note": 36,
        "time": 72179,
        "channel": 9
      },
      {
        "type": "note_off",
        "note": 51,
        "time": 72195,
        "channel": 9
      },
      {
        "type": "note_on",
        "note": 44,
        "velocity": 85,
        "time": 72212,
        "channel": 9
      },
      {
        "type": "note_on",
        "note": 51,
        "velocity": 89,
        "time": 72219,
        "channel": 9
      },
      {
        "type": "note_off",
        "note": 44,
        "time": 72288,
        "channel": 9
      },
      {
        "type": "note_off",
        "note": 51,
        "time": 72294,
        "channel": 9
      },
      {
        "type": "note_on",
        "note": 48,
        "velocity": 87,
        "time": 72342,
        "channel": 9
      },
      {
        "type": "note_off",
        "note": 48,
        "time": 72418,
        "channel": 9
      },
      {
        "type": "note_on",
        "note": 36,
        "velocity": 34,
        "time": 72436,
        "channel": 9
      },
      {
        "type": "note_on",
        "note": 51,
        "velocity": 56,
        "time": 72462,
        "channel": 9
      },
      {
        "type": "note_off",
        "note": 36,
        "time": 72512,
        "channel": 9
      },
      {
        "type": "note_off",
        "note": 51,
        "time": 72539,
        "channel": 9
      },
      {
        "type": "note_on",
        "note": 36,
        "velocity": 38,
        "time": 72566,
        "channel": 9
      },
      {
        "type": "note_on",
        "note": 51,
        "velocity": 56,
        "time": 72594,
        "channel": 9
      },
      {
        "type": "note_off",
        "note": 36,
        "time": 72642,
        "channel": 9
      },
      {
        "type": "note_off",
        "note": 51,
        "time": 72670,
        "channel": 9
      },
      {
        "type": "note_on",
        "note": 38,
        "velocity": 79,
        "time": 72683,
        "channel": 9
      },
      {
        "type": "note_on",
        "note": 44,
        "velocity": 87,
        "time": 72687,
        "channel": 9
      },
      {
        "type": "note_on",
        "note": 51,
        "velocity": 98,
        "time": 72696,
        "channel": 9
      },
      {
        "type": "note_off",
        "note": 38,
        "time": 72759,
        "channel": 9
      },
      {
        "type": "note_off",
        "note": 44,
        "time": 72764,
        "channel": 9
      },
      {
        "type": "note_off",
        "note": 51,
        "time": 72771,
        "channel": 9
      },
      {
        "type": "note_on",
        "note": 38,
        "velocity": 71,
        "time": 72821,
        "channel": 9
      },
      {
        "type": "note_off",
        "note": 38,
        "time": 72897,
        "channel": 9
      },
      {
        "type": "note_on",
        "note": 36,
        "velocity": 46,
        "time": 72922,
        "channel": 9
      },
      {
        "type": "note_on",
        "note": 51,
        "velocity": 58,
        "time": 72933,
        "channel": 9
      },
      {
        "type": "note_off",
        "note": 36,
        "time": 72998,
        "channel": 9
      },
      {
        "type": "note_off",
        "note": 51,
        "time": 73009,
        "channel": 9
      },
      {
        "type": "note_on",
        "note": 51,
        "velocity": 81,
        "time": 73060,
        "channel": 9
      },
      {
        "type": "note_off",
        "note": 51,
        "time": 73136,
        "channel": 9
      },
      {
        "type": "note_on",
        "note": 38,
        "velocity": 58,
        "time": 73167,
        "channel": 9
      },
      {
        "type": "note_on",
        "note": 44,
        "velocity": 85,
        "time": 73185,
        "channel": 9
      },
      {
        "type": "note_off",
        "note": 38,
        "time": 73243,
        "channel": 9
      },
      {
        "type": "note_off",
        "note": 44,
        "time": 73261,
        "channel": 9
      },
      {
        "type": "note_on",
        "note": 36,
        "velocity": 40,
        "time": 73317,
        "channel": 9
      },
      {
        "type": "note_on",
        "note": 51,
        "velocity": 61,
        "time": 73320,
        "channel": 9
      },
      {
        "type": "note_off",
        "note": 36,
        "time": 73393,
        "channel": 9
      },
      {
        "type": "note_off",
        "note": 51,
        "time": 73396,
        "channel": 9
      },
      {
        "type": "note_on",
        "note": 51,
        "velocity": 103,
        "time": 73433,
        "channel": 9
      },
      {
        "type": "note_off",
        "note": 51,
        "time": 73509,
        "channel": 9
      },
      {
        "type": "note_on",
        "note": 38,
        "velocity": 73,
        "time": 73567,
        "channel": 9
      },
      {
        "type": "note_off",
        "note": 38,
        "time": 73643,
        "channel": 9
      },
      {
        "type": "note_on",
        "note": 36,
        "velocity": 43,
        "time": 73665,
        "channel": 9
      },
      {
        "type": "note_on",
        "note": 51,
        "velocity": 61,
        "time": 73677,
        "channel": 9
      },
      {
        "type": "note_on",
        "note": 44,
        "velocity": 100,
        "time": 73686,
        "channel": 9
      },
      {
        "type": "note_off",
        "note": 36,
        "time": 73741,
        "channel": 9
      },
      {
        "type": "note_off",
        "note": 51,
        "time": 73752,
        "channel": 9
      },
      {
        "type": "note_off",
        "note": 44,
        "time": 73762,
        "channel": 9
      },
      {
        "type": "note_on",
        "note": 51,
        "velocity": 74,
        "time": 73806,
        "channel": 9
      },
      {
        "type": "note_off",
        "note": 51,
        "time": 73882,
        "channel": 9
      },
      {
        "type": "note_on",
        "note": 48,
        "velocity": 93,
        "time": 73914,
        "channel": 9
      },
      {
        "type": "note_off",
        "note": 48,
        "time": 73990,
        "channel": 9
      },
      {
        "type": "note_on",
        "note": 51,
        "velocity": 68,
        "time": 74051,
        "channel": 9
      },
      {
        "type": "note_on",
        "note": 36,
        "velocity": 45,
        "time": 74053,
        "channel": 9
      },
      {
        "type": "note_off",
        "note": 51,
        "time": 74126,
        "channel": 9
      },
      {
        "type": "note_off",
        "note": 36,
        "time": 74129,
        "channel": 9
      },
      {
        "type": "note_on",
        "note": 51,
        "velocity": 112,
        "time": 74159,
        "channel": 9
      },
      {
        "type": "note_on",
        "note": 44,
        "velocity": 90,
        "time": 74165,
        "channel": 9
      },
      {
        "type": "note_off",
        "note": 51,
        "time": 74235,
        "channel": 9
      },
      {
        "type": "note_off",
        "note": 44,
        "time": 74241,
        "channel": 9
      },
      {
        "type": "note_on",
        "note": 38,
        "velocity": 60,
        "time": 74285,
        "channel": 9
      },
      {
        "type": "note_off",
        "note": 38,
        "time": 74361,
        "channel": 9
      },
      {
        "type": "note_on",
        "note": 36,
        "velocity": 36,
        "time": 74374,
        "channel": 9
      },
      {
        "type": "note_on",
        "note": 51,
        "velocity": 67,
        "time": 74396,
        "channel": 9
      },
      {
        "type": "note_off",
        "note": 36,
        "time": 74450,
        "channel": 9
      },
      {
        "type": "note_off",
        "note": 51,
        "time": 74471,
        "channel": 9
      },
      {
        "type": "note_on",
        "note": 51,
        "velocity": 66,
        "time": 74520,
        "channel": 9
      },
      {
        "type": "note_on",
        "note": 36,
        "velocity": 37,
        "time": 74527,
        "channel": 9
      },
      {
        "type": "note_off",
        "note": 51,
        "time": 74596,
        "channel": 9
      },
      {
        "type": "note_off",
        "note": 36,
        "time": 74604,
        "channel": 9
      },
      {
        "type": "note_on",
        "note": 51,
        "velocity": 127,
        "time": 74627,
        "channel": 9
      },
      {
        "type": "note_on",
        "note": 44,
        "velocity": 82,
        "time": 74632,
        "channel": 9
      },
      {
        "type": "note_on",
        "note": 38,
        "velocity": 73,
        "time": 74635,
        "channel": 9
      },
      {
        "type": "note_off",
        "note": 51,
        "time": 74702,
        "channel": 9
      },
      {
        "type": "note_off",
        "note": 44,
        "time": 74708,
        "channel": 9
      },
      {
        "type": "note_off",
        "note": 38,
        "time": 74711,
        "channel": 9
      },
      {
        "type": "note_on",
        "note": 38,
        "velocity": 56,
        "time": 74764,
        "channel": 9
      },
      {
        "type": "note_off",
        "note": 38,
        "time": 74841,
        "channel": 9
      },
      {
        "type": "note_on",
        "note": 36,
        "velocity": 45,
        "time": 74869,
        "channel": 9
      },
      {
        "type": "note_on",
        "note": 51,
        "velocity": 89,
        "time": 74883,
        "channel": 9
      },
      {
        "type": "note_off",
        "note": 36,
        "time": 74945,
        "channel": 9
      },
      {
        "type": "note_off",
        "note": 51,
        "time": 74958,
        "channel": 9
      },
      {
        "type": "note_on",
        "note": 51,
        "velocity": 116,
        "time": 75016,
        "channel": 9
      },
      {
        "type": "note_off",
        "note": 51,
        "time": 75092,
        "channel": 9
      },
      {
        "type": "note_on",
        "note": 44,
        "velocity": 87,
        "time": 75115,
        "channel": 9
      },
      {
        "type": "note_on",
        "note": 38,
        "velocity": 52,
        "time": 75118,
        "channel": 9
      },
      {
        "type": "note_off",
        "note": 44,
        "time": 75192,
        "channel": 9
      },
      {
        "type": "note_off",
        "note": 38,
        "time": 75194,
        "channel": 9
      },
      {
        "type": "note_on",
        "note": 36,
        "velocity": 46,
        "time": 75252,
        "channel": 9
      },
      {
        "type": "note_on",
        "note": 51,
        "velocity": 74,
        "time": 75257,
        "channel": 9
      },
      {
        "type": "note_off",
        "note": 36,
        "time": 75328,
        "channel": 9
      },
      {
        "type": "note_off",
        "note": 51,
        "time": 75332,
        "channel": 9
      },
      {
        "type": "note_on",
        "note": 51,
        "velocity": 105,
        "time": 75368,
        "channel": 9
      },
      {
        "type": "note_off",
        "note": 51,
        "time": 75444,
        "channel": 9
      },
      {
        "type": "note_on",
        "note": 38,
        "velocity": 53,
        "time": 75487,
        "channel": 9
      },
      {
        "type": "note_off",
        "note": 38,
        "time": 75512,
        "channel": 9
      },
      {
        "type": "note_on",
        "note": 38,
        "velocity": 50,
        "time": 75512,
        "channel": 9
      },
      {
        "type": "note_off",
        "note": 38,
        "time": 75562,
        "channel": 9
      },
      {
        "type": "note_on",
        "note": 36,
        "velocity": 48,
        "time": 75578,
        "channel": 9
      },
      {
        "type": "note_on",
        "note": 44,
        "velocity": 87,
        "time": 75599,
        "channel": 9
      },
      {
        "type": "note_on",
        "note": 51,
        "velocity": 77,
        "time": 75619,
        "channel": 9
      },
      {
        "type": "note_off",
        "note": 36,
        "time": 75654,
        "channel": 9
      },
      {
        "type": "note_off",
        "note": 44,
        "time": 75675,
        "channel": 9
      },
      {
        "type": "note_off",
        "note": 51,
        "time": 75695,
        "channel": 9
      },
      {
        "type": "note_on",
        "note": 51,
        "velocity": 81,
        "time": 75745,
        "channel": 9
      },
      {
        "type": "note_off",
        "note": 51,
        "time": 75821,
        "channel": 9
      },
      {
        "type": "note_on",
        "note": 38,
        "velocity": 68,
        "time": 75833,
        "channel": 9
      },
      {
        "type": "note_off",
        "note": 38,
        "time": 75908,
        "channel": 9
      },
      {
        "type": "note_on",
        "note": 36,
        "velocity": 45,
        "time": 75972,
        "channel": 9
      },
      {
        "type": "note_on",
        "note": 51,
        "velocity": 76,
        "time": 75984,
        "channel": 9
      },
      {
        "type": "note_off",
        "note": 36,
        "time": 76048,
        "channel": 9
      },
      {
        "type": "note_off",
        "note": 51,
        "time": 76060,
        "channel": 9
      },
      {
        "type": "note_on",
        "note": 44,
        "velocity": 65,
        "time": 76075,
        "channel": 9
      },
      {
        "type": "note_on",
        "note": 51,
        "velocity": 88,
        "time": 76085,
        "channel": 9
      },
      {
        "type": "note_off",
        "note": 44,
        "time": 76151,
        "channel": 9
      },
      {
        "type": "note_off",
        "note": 51,
        "time": 76160,
        "channel": 9
      },
      {
        "type": "note_on",
        "note": 38,
        "velocity": 55,
        "time": 76213,
        "channel": 9
      },
      {
        "type": "note_off",
        "note": 38,
        "time": 76289,
        "channel": 9
      },
      {
        "type": "note_on",
        "note": 36,
        "velocity": 27,
        "time": 76302,
        "channel": 9
      },
      {
        "type": "note_on",
        "note": 51,
        "velocity": 67,
        "time": 76334,
        "channel": 9
      },
      {
        "type": "note_off",
        "note": 36,
        "time": 76378,
        "channel": 9
      },
      {
        "type": "note_off",
        "note": 51,
        "time": 76409,
        "channel": 9
      },
      {
        "type": "note_on",
        "note": 36,
        "velocity": 42,
        "time": 76447,
        "channel": 9
      },
      {
        "type": "note_on",
        "note": 51,
        "velocity": 71,
        "time": 76454,
        "channel": 9
      },
      {
        "type": "note_off",
        "note": 36,
        "time": 76523,
        "channel": 9
      },
      {
        "type": "note_off",
        "note": 51,
        "time": 76529,
        "channel": 9
      },
      {
        "type": "note_on",
        "note": 44,
        "velocity": 102,
        "time": 76552,
        "channel": 9
      },
      {
        "type": "note_on",
        "note": 51,
        "velocity": 127,
        "time": 76553,
        "channel": 9
      },
      {
        "type": "note_on",
        "note": 38,
        "velocity": 58,
        "time": 76557,
        "channel": 9
      },
      {
        "type": "note_off",
        "note": 44,
        "time": 76628,
        "channel": 9
      },
      {
        "type": "note_off",
        "note": 51,
        "time": 76629,
        "channel": 9
      },
      {
        "type": "note_off",
        "note": 38,
        "time": 76633,
        "channel": 9
      },
      {
        "type": "note_on",
        "note": 38,
        "velocity": 69,
        "time": 76681,
        "channel": 9
      },
      {
        "type": "note_off",
        "note": 38,
        "time": 76757,
        "channel": 9
      },
      {
        "type": "note_on",
        "note": 36,
        "velocity": 43,
        "time": 76787,
        "channel": 9
      },
      {
        "type": "note_on",
        "note": 53,
        "velocity": 52,
        "time": 76805,
        "channel": 9
      },
      {
        "type": "note_off",
        "note": 36,
        "time": 76863,
        "channel": 9
      },
      {
        "type": "note_off",
        "note": 53,
        "time": 76881,
        "channel": 9
      },
      {
        "type": "note_on",
        "note": 51,
        "velocity": 101,
        "time": 76929,
        "channel": 9
      },
      {
        "type": "note_off",
        "note": 51,
        "time": 77005,
        "channel": 9
      },
      {
        "type": "note_on",
        "note": 48,
        "velocity": 85,
        "time": 77023,
        "channel": 9
      },
      {
        "type": "note_on",
        "note": 44,
        "velocity": 97,
        "time": 77034,
        "channel": 9
      },
      {
        "type": "note_off",
        "note": 48,
        "time": 77099,
        "channel": 9
      },
      {
        "type": "note_off",
        "note": 44,
        "time": 77110,
        "channel": 9
      },
      {
        "type": "note_on",
        "note": 51,
        "velocity": 77,
        "time": 77158,
        "channel": 9
      },
      {
        "type": "note_on",
        "note": 36,
        "velocity": 48,
        "time": 77170,
        "channel": 9
      },
      {
        "type": "note_off",
        "note": 51,
        "time": 77233,
        "channel": 9
      },
      {
        "type": "note_off",
        "note": 36,
        "time": 77246,
        "channel": 9
      },
      {
        "type": "note_on",
        "note": 51,
        "velocity": 124,
        "time": 77272,
        "channel": 9
      },
      {
        "type": "note_off",
        "note": 51,
        "time": 77348,
        "channel": 9
      },
      {
        "type": "note_on",
        "note": 38,
        "velocity": 77,
        "time": 77394,
        "channel": 9
      },
      {
        "type": "note_off",
        "note": 38,
        "time": 77469,
        "channel": 9
      },
      {
        "type": "note_on",
        "note": 44,
        "velocity": 80,
        "time": 77489,
        "channel": 9
      },
      {
        "type": "note_on",
        "note": 36,
        "velocity": 48,
        "time": 77491,
        "channel": 9
      },
      {
        "type": "note_on",
        "note": 51,
        "velocity": 76,
        "time": 77517,
        "channel": 9
      },
      {
        "type": "note_off",
        "note": 44,
        "time": 77564,
        "channel": 9
      },
      {
        "type": "note_off",
        "note": 36,
        "time": 77566,
        "channel": 9
      },
      {
        "type": "note_off",
        "note": 51,
        "time": 77593,
        "channel": 9
      },
      {
        "type": "note_on",
        "note": 48,
        "velocity": 40,
        "time": 77634,
        "channel": 9
      },
      {
        "type": "note_off",
        "note": 48,
        "time": 77709,
        "channel": 9
      },
      {
        "type": "note_on",
        "note": 43,
        "velocity": 84,
        "time": 77747,
        "channel": 9
      },
      {
        "type": "note_off",
        "note": 43,
        "time": 77823,
        "channel": 9
      },
      {
        "type": "note_on",
        "note": 43,
        "velocity": 95,
        "time": 77873,
        "channel": 9
      },
      {
        "type": "note_off",
        "note": 43,
        "time": 77948,
        "channel": 9
      },
      {
        "type": "note_on",
        "note": 44,
        "velocity": 85,
        "time": 77954,
        "channel": 9
      },
      {
        "type": "note_on",
        "note": 48,
        "velocity": 56,
        "time": 77983,
        "channel": 9
      },
      {
        "type": "note_off",
        "note": 44,
        "time": 78030,
        "channel": 9
      },
      {
        "type": "note_off",
        "note": 48,
        "time": 78058,
        "channel": 9
      },
      {
        "type": "note_on",
        "note": 43,
        "velocity": 81,
        "time": 78110,
        "channel": 9
      },
      {
        "type": "note_off",
        "note": 43,
        "time": 78186,
        "channel": 9
      },
      {
        "type": "note_on",
        "note": 43,
        "velocity": 85,
        "time": 78218,
        "channel": 9
      },
      {
        "type": "note_off",
        "note": 43,
        "time": 78294,
        "channel": 9
      },
      {
        "type": "note_on",
        "note": 36,
        "velocity": 53,
        "time": 78332,
        "channel": 9
      },
      {
        "type": "note_off",
        "note": 36,
        "time": 78390,
        "channel": 9
      },
      {
        "type": "note_on",
        "note": 36,
        "velocity": 9,
        "time": 78390,
        "channel": 9
      },
      {
        "type": "note_off",
        "note": 36,
        "time": 78407,
        "channel": 9
      },
      {
        "type": "note_on",
        "note": 44,
        "velocity": 97,
        "time": 78431,
        "channel": 9
      },
      {
        "type": "note_on",
        "note": 38,
        "velocity": 108,
        "time": 78440,
        "channel": 9
      },
      {
        "type": "note_on",
        "note": 59,
        "velocity": 118,
        "time": 78455,
        "channel": 9
      },
      {
        "type": "note_off",
        "note": 44,
        "time": 78507,
        "channel": 9
      },
      {
        "type": "note_off",
        "note": 38,
        "time": 78516,
        "channel": 9
      },
      {
        "type": "note_off",
        "note": 59,
        "time": 78530,
        "channel": 9
      },
      {
        "type": "note_on",
        "note": 38,
        "velocity": 41,
        "time": 78585,
        "channel": 9
      },
      {
        "type": "note_off",
        "note": 38,
        "time": 78661,
        "channel": 9
      },
      {
        "type": "note_on",
        "note": 36,
        "velocity": 43,
        "time": 78688,
        "channel": 9
      },
      {
        "type": "note_on",
        "note": 51,
        "velocity": 71,
        "time": 78707,
        "channel": 9
      },
      {
        "type": "note_off",
        "note": 36,
        "time": 78764,
        "channel": 9
      },
      {
        "type": "note_off",
        "note": 51,
        "time": 78782,
        "channel": 9
      },
      {
        "type": "note_on",
        "note": 51,
        "velocity": 76,
        "time": 78825,
        "channel": 9
      },
      {
        "type": "note_off",
        "note": 51,
        "time": 78901,
        "channel": 9
      },
      {
        "type": "note_on",
        "note": 38,
        "velocity": 35,
        "time": 78928,
        "channel": 9
      },
      {
        "type": "note_on",
        "note": 44,
        "velocity": 67,
        "time": 78938,
        "channel": 9
      },
      {
        "type": "note_off",
        "note": 38,
        "time": 79004,
        "channel": 9
      },
      {
        "type": "note_off",
        "note": 44,
        "time": 79014,
        "channel": 9
      },
      {
        "type": "note_on",
        "note": 51,
        "velocity": 67,
        "time": 79080,
        "channel": 9
      },
      {
        "type": "note_on",
        "note": 36,
        "velocity": 46,
        "time": 79082,
        "channel": 9
      },
      {
        "type": "note_off",
        "note": 51,
        "time": 79156,
        "channel": 9
      },
      {
        "type": "note_off",
        "note": 36,
        "time": 79158,
        "channel": 9
      },
      {
        "type": "note_on",
        "note": 51,
        "velocity": 89,
        "time": 79190,
        "channel": 9
      },
      {
        "type": "note_off",
        "note": 51,
        "time": 79266,
        "channel": 9
      },
      {
        "type": "note_on",
        "note": 38,
        "velocity": 90,
        "time": 79315,
        "channel": 9
      },
      {
        "type": "note_off",
        "note": 38,
        "time": 79391,
        "channel": 9
      },
      {
        "type": "note_on",
        "note": 36,
        "velocity": 49,
        "time": 79407,
        "channel": 9
      },
      {
        "type": "note_on",
        "note": 44,
        "velocity": 100,
        "time": 79419,
        "channel": 9
      },
      {
        "type": "note_on",
        "note": 51,
        "velocity": 71,
        "time": 79436,
        "channel": 9
      },
      {
        "type": "note_off",
        "note": 36,
        "time": 79483,
        "channel": 9
      },
      {
        "type": "note_off",
        "note": 44,
        "time": 79494,
        "channel": 9
      },
      {
        "type": "note_off",
        "note": 51,
        "time": 79512,
        "channel": 9
      },
      {
        "type": "note_on",
        "note": 51,
        "velocity": 51,
        "time": 79562,
        "channel": 9
      },
      {
        "type": "note_off",
        "note": 51,
        "time": 79639,
        "channel": 9
      },
      {
        "type": "note_on",
        "note": 38,
        "velocity": 72,
        "time": 79653,
        "channel": 9
      },
      {
        "type": "note_off",
        "note": 38,
        "time": 79728,
        "channel": 9
      },
      {
        "type": "note_on",
        "note": 36,
        "velocity": 42,
        "time": 79789,
        "channel": 9
      },
      {
        "type": "note_on",
        "note": 22,
        "velocity": 64,
        "time": 79794,
        "channel": 9
      },
      {
        "type": "note_off",
        "note": 36,
        "time": 79865,
        "channel": 9
      },
      {
        "type": "note_off",
        "note": 22,
        "time": 79870,
        "channel": 9
      },
      {
        "type": "note_on",
        "note": 44,
        "velocity": 100,
        "time": 79891,
        "channel": 9
      },
      {
        "type": "note_on",
        "note": 51,
        "velocity": 59,
        "time": 79899,
        "channel": 9
      },
      {
        "type": "note_off",
        "note": 44,
        "time": 79968,
        "channel": 9
      },
      {
        "type": "note_off",
        "note": 51,
        "time": 79975,
        "channel": 9
      },
      {
        "type": "note_on",
        "note": 36,
        "velocity": 43,
        "time": 80042,
        "channel": 9
      },
      {
        "type": "note_off",
        "note": 36,
        "time": 80118,
        "channel": 9
      },
      {
        "type": "note_on",
        "note": 38,
        "velocity": 79,
        "time": 80135,
        "channel": 9
      },
      {
        "type": "note_on",
        "note": 51,
        "velocity": 86,
        "time": 80143,
        "channel": 9
      },
      {
        "type": "note_off",
        "note": 38,
        "time": 80211,
        "channel": 9
      },
      {
        "type": "note_off",
        "note": 51,
        "time": 80219,
        "channel": 9
      },
      {
        "type": "note_on",
        "note": 36,
        "velocity": 44,
        "time": 80261,
        "channel": 9
      },
      {
        "type": "note_off",
        "note": 36,
        "time": 80337,
        "channel": 9
      },
      {
        "type": "note_on",
        "note": 44,
        "velocity": 100,
        "time": 80377,
        "channel": 9
      },
      {
        "type": "note_on",
        "note": 38,
        "velocity": 80,
        "time": 80382,
        "channel": 9
      },
      {
        "type": "note_on",
        "note": 51,
        "velocity": 121,
        "time": 80386,
        "channel": 9
      },
      {
        "type": "note_off",
        "note": 44,
        "time": 80453,
        "channel": 9
      },
      {
        "type": "note_off",
        "note": 38,
        "time": 80458,
        "channel": 9
      },
      {
        "type": "note_off",
        "note": 51,
        "time": 80462,
        "channel": 9
      },
      {
        "type": "note_on",
        "note": 38,
        "velocity": 61,
        "time": 80500,
        "channel": 9
      },
      {
        "type": "note_off",
        "note": 38,
        "time": 80576,
        "channel": 9
      },
      {
        "type": "note_on",
        "note": 36,
        "velocity": 43,
        "time": 80624,
        "channel": 9
      },
      {
        "type": "note_on",
        "note": 51,
        "velocity": 74,
        "time": 80628,
        "channel": 9
      },
      {
        "type": "note_off",
        "note": 36,
        "time": 80700,
        "channel": 9
      },
      {
        "type": "note_off",
        "note": 51,
        "time": 80704,
        "channel": 9
      },
      {
        "type": "note_on",
        "note": 51,
        "velocity": 77,
        "time": 80766,
        "channel": 9
      },
      {
        "type": "note_off",
        "note": 51,
        "time": 80842,
        "channel": 9
      },
      {
        "type": "note_on",
        "note": 38,
        "velocity": 40,
        "time": 80867,
        "channel": 9
      },
      {
        "type": "note_on",
        "note": 44,
        "velocity": 97,
        "time": 80875,
        "channel": 9
      },
      {
        "type": "note_off",
        "note": 38,
        "time": 80943,
        "channel": 9
      },
      {
        "type": "note_off",
        "note": 44,
        "time": 80951,
        "channel": 9
      },
      {
        "type": "note_on",
        "note": 36,
        "velocity": 47,
        "time": 81002,
        "channel": 9
      },
      {
        "type": "note_on",
        "note": 51,
        "velocity": 77,
        "time": 81008,
        "channel": 9
      },
      {
        "type": "note_off",
        "note": 36,
        "time": 81078,
        "channel": 9
      },
      {
        "type": "note_off",
        "note": 51,
        "time": 81083,
        "channel": 9
      },
      {
        "type": "note_on",
        "note": 51,
        "velocity": 80,
        "time": 81118,
        "channel": 9
      },
      {
        "type": "note_off",
        "note": 51,
        "time": 81194,
        "channel": 9
      },
      {
        "type": "note_on",
        "note": 38,
        "velocity": 99,
        "time": 81240,
        "channel": 9
      },
      {
        "type": "note_off",
        "note": 38,
        "time": 81315,
        "channel": 9
      },
      {
        "type": "note_on",
        "note": 36,
        "velocity": 49,
        "time": 81335,
        "channel": 9
      },
      {
        "type": "note_on",
        "note": 44,
        "velocity": 85,
        "time": 81353,
        "channel": 9
      },
      {
        "type": "note_on",
        "note": 51,
        "velocity": 77,
        "time": 81355,
        "channel": 9
      },
      {
        "type": "note_off",
        "note": 36,
        "time": 81411,
        "channel": 9
      },
      {
        "type": "note_off",
        "note": 44,
        "time": 81429,
        "channel": 9
      },
      {
        "type": "note_off",
        "note": 51,
        "time": 81431,
        "channel": 9
      },
      {
        "type": "note_on",
        "note": 51,
        "velocity": 69,
        "time": 81484,
        "channel": 9
      },
      {
        "type": "note_off",
        "note": 51,
        "time": 81560,
        "channel": 9
      },
      {
        "type": "note_on",
        "note": 48,
        "velocity": 101,
        "time": 81591,
        "channel": 9
      },
      {
        "type": "note_off",
        "note": 48,
        "time": 81667,
        "channel": 9
      },
      {
        "type": "note_on",
        "note": 36,
        "velocity": 52,
        "time": 81717,
        "channel": 9
      },
      {
        "type": "note_on",
        "note": 51,
        "velocity": 67,
        "time": 81725,
        "channel": 9
      },
      {
        "type": "note_off",
        "note": 36,
        "time": 81793,
        "channel": 9
      },
      {
        "type": "note_off",
        "note": 51,
        "time": 81800,
        "channel": 9
      },
      {
        "type": "note_on",
        "note": 44,
        "velocity": 95,
        "time": 81825,
        "channel": 9
      },
      {
        "type": "note_on",
        "note": 51,
        "velocity": 81,
        "time": 81826,
        "channel": 9
      },
      {
        "type": "note_off",
        "note": 44,
        "time": 81901,
        "channel": 9
      },
      {
        "type": "note_off",
        "note": 51,
        "time": 81902,
        "channel": 9
      },
      {
        "type": "note_on",
        "note": 48,
        "velocity": 104,
        "time": 81960,
        "channel": 9
      },
      {
        "type": "note_off",
        "note": 48,
        "time": 82036,
        "channel": 9
      },
      {
        "type": "note_on",
        "note": 36,
        "velocity": 40,
        "time": 82059,
        "channel": 9
      },
      {
        "type": "note_on",
        "note": 51,
        "velocity": 62,
        "time": 82083,
        "channel": 9
      },
      {
        "type": "note_off",
        "note": 36,
        "time": 82135,
        "channel": 9
      },
      {
        "type": "note_off",
        "note": 51,
        "time": 82159,
        "channel": 9
      },
      {
        "type": "note_on",
        "note": 36,
        "velocity": 44,
        "time": 82205,
        "channel": 9
      },
      {
        "type": "note_off",
        "note": 36,
        "time": 82281,
        "channel": 9
      },
      {
        "type": "note_on",
        "note": 38,
        "velocity": 111,
        "time": 82298,
        "channel": 9
      },
      {
        "type": "note_on",
        "note": 55,
        "velocity": 84,
        "time": 82307,
        "channel": 9
      },
      {
        "type": "note_on",
        "note": 44,
        "velocity": 97,
        "time": 82309,
        "channel": 9
      },
      {
        "type": "note_off",
        "note": 38,
        "time": 82373,
        "channel": 9
      },
      {
        "type": "note_off",
        "note": 55,
        "time": 82384,
        "channel": 9
      },
      {
        "type": "note_off",
        "note": 44,
        "time": 82385,
        "channel": 9
      },
      {
        "type": "note_on",
        "note": 36,
        "velocity": 44,
        "time": 82531,
        "channel": 9
      },
      {
        "type": "note_on",
        "note": 51,
        "velocity": 64,
        "time": 82556,
        "channel": 9
      },
      {
        "type": "note_off",
        "note": 36,
        "time": 82607,
        "channel": 9
      },
      {
        "type": "note_off",
        "note": 51,
        "time": 82632,
        "channel": 9
      },
      {
        "type": "note_on",
        "note": 51,
        "velocity": 76,
        "time": 82676,
        "channel": 9
      },
      {
        "type": "note_off",
        "note": 51,
        "time": 82752,
        "channel": 9
      },
      {
        "type": "note_on",
        "note": 38,
        "velocity": 55,
        "time": 82789,
        "channel": 9
      },
      {
        "type": "note_on",
        "note": 44,
        "velocity": 102,
        "time": 82809,
        "channel": 9
      },
      {
        "type": "note_off",
        "note": 38,
        "time": 82865,
        "channel": 9
      },
      {
        "type": "note_off",
        "note": 44,
        "time": 82885,
        "channel": 9
      },
      {
        "type": "note_on",
        "note": 51,
        "velocity": 77,
        "time": 82918,
        "channel": 9
      },
      {
        "type": "note_on",
        "note": 36,
        "velocity": 45,
        "time": 82937,
        "channel": 9
      },
      {
        "type": "note_off",
        "note": 51,
        "time": 82994,
        "channel": 9
      },
      {
        "type": "note_off",
        "note": 36,
        "time": 83012,
        "channel": 9
      },
      {
        "type": "note_on",
        "note": 51,
        "velocity": 76,
        "time": 83037,
        "channel": 9
      },
      {
        "type": "note_off",
        "note": 51,
        "time": 83113,
        "channel": 9
      },
      {
        "type": "note_on",
        "note": 38,
        "velocity": 91,
        "time": 83181,
        "channel": 9
      },
      {
        "type": "note_off",
        "note": 38,
        "time": 83257,
        "channel": 9
      },
      {
        "type": "note_on",
        "note": 36,
        "velocity": 45,
        "time": 83263,
        "channel": 9
      },
      {
        "type": "note_on",
        "note": 44,
        "velocity": 92,
        "time": 83276,
        "channel": 9
      },
      {
        "type": "note_on",
        "note": 51,
        "velocity": 66,
        "time": 83290,
        "channel": 9
      },
      {
        "type": "note_off",
        "note": 36,
        "time": 83339,
        "channel": 9
      },
      {
        "type": "note_off",
        "note": 44,
        "time": 83351,
        "channel": 9
      },
      {
        "type": "note_off",
        "note": 51,
        "time": 83366,
        "channel": 9
      },
      {
        "type": "note_on",
        "note": 51,
        "velocity": 96,
        "time": 83417,
        "channel": 9
      },
      {
        "type": "note_off",
        "note": 51,
        "time": 83492,
        "channel": 9
      },
      {
        "type": "note_on",
        "note": 48,
        "velocity": 84,
        "time": 83524,
        "channel": 9
      },
      {
        "type": "note_off",
        "note": 48,
        "time": 83599,
        "channel": 9
      },
      {
        "type": "note_on",
        "note": 36,
        "velocity": 46,
        "time": 83658,
        "channel": 9
      },
      {
        "type": "note_on",
        "note": 51,
        "velocity": 70,
        "time": 83673,
        "channel": 9
      },
      {
        "type": "note_off",
        "note": 36,
        "time": 83734,
        "channel": 9
      },
      {
        "type": "note_off",
        "note": 51,
        "time": 83748,
        "channel": 9
      },
      {
        "type": "note_on",
        "note": 44,
        "velocity": 90,
        "time": 83759,
        "channel": 9
      },
      {
        "type": "note_on",
        "note": 51,
        "velocity": 80,
        "time": 83764,
        "channel": 9
      },
      {
        "type": "note_off",
        "note": 44,
        "time": 83835,
        "channel": 9
      },
      {
        "type": "note_off",
        "note": 51,
        "time": 83840,
        "channel": 9
      },
      {
        "type": "note_on",
        "note": 38,
        "velocity": 43,
        "time": 83890,
        "channel": 9
      },
      {
        "type": "note_off",
        "note": 38,
        "time": 83966,
        "channel": 9
      },
      {
        "type": "note_on",
        "note": 36,
        "velocity": 27,
        "time": 83970,
        "channel": 9
      },
      {
        "type": "note_on",
        "note": 51,
        "velocity": 79,
        "time": 84000,
        "channel": 9
      },
      {
        "type": "note_off",
        "note": 36,
        "time": 84046,
        "channel": 9
      },
      {
        "type": "note_off",
        "note": 51,
        "time": 84076,
        "channel": 9
      },
      {
        "type": "note_on",
        "note": 36,
        "velocity": 42,
        "time": 84135,
        "channel": 9
      },
      {
        "type": "note_off",
        "note": 36,
        "time": 84211,
        "channel": 9
      },
      {
        "type": "note_on",
        "note": 38,
        "velocity": 87,
        "time": 84222,
        "channel": 9
      },
      {
        "type": "note_on",
        "note": 59,
        "velocity": 87,
        "time": 84229,
        "channel": 9
      },
      {
        "type": "note_on",
        "note": 44,
        "velocity": 97,
        "time": 84232,
        "channel": 9
      },
      {
        "type": "note_off",
        "note": 38,
        "time": 84298,
        "channel": 9
      },
      {
        "type": "note_off",
        "note": 59,
        "time": 84305,
        "channel": 9
      },
      {
        "type": "note_off",
        "note": 44,
        "time": 84308,
        "channel": 9
      },
      {
        "type": "note_on",
        "note": 38,
        "velocity": 48,
        "time": 84356,
        "channel": 9
      },
      {
        "type": "note_off",
        "note": 38,
        "time": 84432,
        "channel": 9
      },
      {
        "type": "note_on",
        "note": 36,
        "velocity": 44,
        "time": 84449,
        "channel": 9
      },
      {
        "type": "note_on",
        "note": 51,
        "velocity": 65,
        "time": 84474,
        "channel": 9
      },
      {
        "type": "note_off",
        "note": 36,
        "time": 84525,
        "channel": 9
      },
      {
        "type": "note_off",
        "note": 51,
        "time": 84549,
        "channel": 9
      },
      {
        "type": "note_on",
        "note": 51,
        "velocity": 64,
        "time": 84600,
        "channel": 9
      },
      {
        "type": "note_on",
        "note": 48,
        "velocity": 48,
        "time": 84620,
        "channel": 9
      },
      {
        "type": "note_off",
        "note": 51,
        "time": 84676,
        "channel": 9
      },
      {
        "type": "note_off",
        "note": 48,
        "time": 84695,
        "channel": 9
      },
      {
        "type": "note_on",
        "note": 51,
        "velocity": 61,
        "time": 84698,
        "channel": 9
      },
      {
        "type": "note_off",
        "note": 51,
        "time": 84773,
        "channel": 9
      },
      {
        "type": "note_on",
        "note": 36,
        "velocity": 50,
        "time": 84839,
        "channel": 9
      },
      {
        "type": "note_on",
        "note": 44,
        "velocity": 90,
        "time": 84875,
        "channel": 9
      },
      {
        "type": "note_off",
        "note": 36,
        "time": 84915,
        "channel": 9
      },
      {
        "type": "note_on",
        "note": 43,
        "velocity": 66,
        "time": 84935,
        "channel": 9
      },
      {
        "type": "note_on",
        "note": 38,
        "velocity": 53,
        "time": 84937,
        "channel": 9
      },
      {
        "type": "note_off",
        "note": 44,
        "time": 84951,
        "channel": 9
      },
      {
        "type": "note_off",
        "note": 43,
        "time": 85011,
        "channel": 9
      },
      {
        "type": "note_off",
        "note": 38,
        "time": 85013,
        "channel": 9
      },
      {
        "type": "note_on",
        "note": 38,
        "velocity": 47,
        "time": 85058,
        "channel": 9
      },
      {
        "type": "note_on",
        "note": 43,
        "velocity": 59,
        "time": 85065,
        "channel": 9
      },
      {
        "type": "note_off",
        "note": 38,
        "time": 85134,
        "channel": 9
      },
      {
        "type": "note_off",
        "note": 43,
        "time": 85140,
        "channel": 9
      },
      {
        "type": "note_on",
        "note": 44,
        "velocity": 92,
        "time": 85143,
        "channel": 9
      },
      {
        "type": "note_on",
        "note": 36,
        "velocity": 50,
        "time": 85150,
        "channel": 9
      },
      {
        "type": "note_off",
        "note": 44,
        "time": 85219,
        "channel": 9
      },
      {
        "type": "note_off",
        "note": 36,
        "time": 85226,
        "channel": 9
      },
      {
        "type": "note_on",
        "note": 38,
        "velocity": 47,
        "time": 85301,
        "channel": 9
      },
      {
        "type": "note_on",
        "note": 43,
        "velocity": 72,
        "time": 85309,
        "channel": 9
      },
      {
        "type": "note_off",
        "note": 38,
        "time": 85377,
        "channel": 9
      },
      {
        "type": "note_off",
        "note": 43,
        "time": 85385,
        "channel": 9
      },
      {
        "type": "note_on",
        "note": 38,
        "velocity": 48,
        "time": 85400,
        "channel": 9
      },
      {
        "type": "note_on",
        "note": 43,
        "velocity": 69,
        "time": 85414,
        "channel": 9
      },
      {
        "type": "note_off",
        "note": 38,
        "time": 85476,
        "channel": 9
      },
      {
        "type": "note_off",
        "note": 43,
        "time": 85489,
        "channel": 9
      },
      {
        "type": "note_on",
        "note": 44,
        "velocity": 47,
        "time": 85530,
        "channel": 9
      },
      {
        "type": "note_on",
        "note": 36,
        "velocity": 46,
        "time": 85531,
        "channel": 9
      },
      {
        "type": "note_off",
        "note": 36,
        "time": 85606,
        "channel": 9
      },
      {
        "type": "note_off",
        "note": 44,
        "time": 85606,
        "channel": 9
      },
      {
        "type": "note_on",
        "note": 43,
        "velocity": 81,
        "time": 85643,
        "channel": 9
      },
      {
        "type": "note_on",
        "note": 38,
        "velocity": 57,
        "time": 85646,
        "channel": 9
      },
      {
        "type": "note_off",
        "note": 43,
        "time": 85719,
        "channel": 9
      },
      {
        "type": "note_off",
        "note": 38,
        "time": 85722,
        "channel": 9
      },
      {
        "type": "note_on",
        "note": 43,
        "velocity": 73,
        "time": 85782,
        "channel": 9
      },
      {
        "type": "note_on",
        "note": 38,
        "velocity": 42,
        "time": 85787,
        "channel": 9
      },
      {
        "type": "note_off",
        "note": 43,
        "time": 85858,
        "channel": 9
      },
      {
        "type": "note_off",
        "note": 38,
        "time": 85863,
        "channel": 9
      },
      {
        "type": "note_on",
        "note": 36,
        "velocity": 41,
        "time": 85868,
        "channel": 9
      },
      {
        "type": "note_on",
        "note": 44,
        "velocity": 45,
        "time": 85879,
        "channel": 9
      },
      {
        "type": "note_off",
        "note": 36,
        "time": 85944,
        "channel": 9
      },
      {
        "type": "note_off",
        "note": 44,
        "time": 85954,
        "channel": 9
      },
      {
        "type": "note_on",
        "note": 36,
        "velocity": 52,
        "time": 86018,
        "channel": 9
      },
      {
        "type": "note_off",
        "note": 36,
        "time": 86093,
        "channel": 9
      },
      {
        "type": "note_on",
        "note": 55,
        "velocity": 94,
        "time": 86105,
        "channel": 9
      },
      {
        "type": "note_on",
        "note": 38,
        "velocity": 98,
        "time": 86108,
        "channel": 9
      },
      {
        "type": "note_off",
        "note": 55,
        "time": 86180,
        "channel": 9
      },
      {
        "type": "note_off",
        "note": 38,
        "time": 86183,
        "channel": 9
      },
      {
        "type": "note_on",
        "note": 38,
        "velocity": 11,
        "time": 86327,
        "channel": 9
      },
      {
        "type": "note_on",
        "note": 36,
        "velocity": 44,
        "time": 86342,
        "channel": 9
      },
      {
        "type": "note_on",
        "note": 59,
        "velocity": 55,
        "time": 86357,
        "channel": 9
      },
      {
        "type": "note_off",
        "note": 38,
        "time": 86402,
        "channel": 9
      },
      {
        "type": "note_off",
        "note": 36,
        "time": 86417,
        "channel": 9
      },
      {
        "type": "note_off",
        "note": 59,
        "time": 86433,
        "channel": 9
      },
      {
        "type": "note_on",
        "note": 51,
        "velocity": 41,
        "time": 86497,
        "channel": 9
      },
      {
        "type": "note_off",
        "note": 51,
        "time": 86573,
        "channel": 9
      },
      {
        "type": "note_on",
        "note": 44,
        "velocity": 80,
        "time": 86638,
        "channel": 9
      },
      {
        "type": "note_on",
        "note": 38,
        "velocity": 40,
        "time": 86643,
        "channel": 9
      },
      {
        "type": "note_off",
        "note": 44,
        "time": 86714,
        "channel": 9
      },
      {
        "type": "note_off",
        "note": 38,
        "time": 86718,
        "channel": 9
      },
      {
        "type": "note_on",
        "note": 36,
        "velocity": 43,
        "time": 86760,
        "channel": 9
      },
      {
        "type": "note_on",
        "note": 51,
        "velocity": 71,
        "time": 86767,
        "channel": 9
      },
      {
        "type": "note_off",
        "note": 36,
        "time": 86836,
        "channel": 9
      },
      {
        "type": "note_off",
        "note": 51,
        "time": 86843,
        "channel": 9
      },
      {
        "type": "note_on",
        "note": 51,
        "velocity": 77,
        "time": 86871,
        "channel": 9
      },
      {
        "type": "note_off",
        "note": 51,
        "time": 86947,
        "channel": 9
      },
      {
        "type": "note_on",
        "note": 48,
        "velocity": 96,
        "time": 87019,
        "channel": 9
      },
      {
        "type": "note_off",
        "note": 48,
        "time": 87094,
        "channel": 9
      },
      {
        "type": "note_on",
        "note": 36,
        "velocity": 45,
        "time": 87101,
        "channel": 9
      },
      {
        "type": "note_on",
        "note": 44,
        "velocity": 90,
        "time": 87105,
        "channel": 9
      },
      {
        "type": "note_on",
        "note": 51,
        "velocity": 48,
        "time": 87118,
        "channel": 9
      },
      {
        "type": "note_off",
        "note": 36,
        "time": 87178,
        "channel": 9
      },
      {
        "type": "note_off",
        "note": 44,
        "time": 87181,
        "channel": 9
      },
      {
        "type": "note_off",
        "note": 51,
        "time": 87194,
        "channel": 9
      },
      {
        "type": "note_on",
        "note": 51,
        "velocity": 53,
        "time": 87255,
        "channel": 9
      },
      {
        "type": "note_off",
        "note": 51,
        "time": 87331,
        "channel": 9
      },
      {
        "type": "note_on",
        "note": 43,
        "velocity": 98,
        "time": 87362,
        "channel": 9
      },
      {
        "type": "note_off",
        "note": 43,
        "time": 87439,
        "channel": 9
      },
      {
        "type": "note_on",
        "note": 51,
        "velocity": 54,
        "time": 87505,
        "channel": 9
      },
      {
        "type": "note_on",
        "note": 36,
        "velocity": 49,
        "time": 87512,
        "channel": 9
      },
      {
        "type": "note_off",
        "note": 51,
        "time": 87581,
        "channel": 9
      },
      {
        "type": "note_off",
        "note": 36,
        "time": 87588,
        "channel": 9
      },
      {
        "type": "note_on",
        "note": 44,
        "velocity": 80,
        "time": 87606,
        "channel": 9
      },
      {
        "type": "note_on",
        "note": 51,
        "velocity": 51,
        "time": 87611,
        "channel": 9
      },
      {
        "type": "note_off",
        "note": 44,
        "time": 87682,
        "channel": 9
      },
      {
        "type": "note_off",
        "note": 51,
        "time": 87687,
        "channel": 9
      },
      {
        "type": "note_on",
        "note": 43,
        "velocity": 112,
        "time": 87737,
        "channel": 9
      },
      {
        "type": "note_off",
        "note": 43,
        "time": 87813,
        "channel": 9
      },
      {
        "type": "note_on",
        "note": 36,
        "velocity": 36,
        "time": 87837,
        "channel": 9
      },
      {
        "type": "note_on",
        "note": 51,
        "velocity": 69,
        "time": 87853,
        "channel": 9
      },
      {
        "type": "note_off",
        "note": 36,
        "time": 87913,
        "channel": 9
      },
      {
        "type": "note_off",
        "note": 51,
        "time": 87929,
        "channel": 9
      },
      {
        "type": "note_on",
        "note": 36,
        "velocity": 45,
        "time": 87977,
        "channel": 9
      },
      {
        "type": "note_off",
        "note": 36,
        "time": 88053,
        "channel": 9
      },
      {
        "type": "note_on",
        "note": 44,
        "velocity": 92,
        "time": 88077,
        "channel": 9
      },
      {
        "type": "note_on",
        "note": 59,
        "velocity": 127,
        "time": 88079,
        "channel": 9
      },
      {
        "type": "note_on",
        "note": 38,
        "velocity": 109,
        "time": 88080,
        "channel": 9
      },
      {
        "type": "note_off",
        "note": 44,
        "time": 88153,
        "channel": 9
      },
      {
        "type": "note_off",
        "note": 59,
        "time": 88155,
        "channel": 9
      },
      {
        "type": "note_off",
        "note": 38,
        "time": 88157,
        "channel": 9
      },
      {
        "type": "note_on",
        "note": 36,
        "velocity": 41,
        "time": 88289,
        "channel": 9
      },
      {
        "type": "note_off",
        "note": 36,
        "time": 88364,
        "channel": 9
      },
      {
        "type": "note_on",
        "note": 44,
        "velocity": 95,
        "time": 88541,
        "channel": 9
      },
      {
        "type": "note_on",
        "note": 38,
        "velocity": 83,
        "time": 88559,
        "channel": 9
      },
      {
        "type": "note_on",
        "note": 51,
        "velocity": 79,
        "time": 88560,
        "channel": 9
      },
      {
        "type": "note_off",
        "note": 44,
        "time": 88618,
        "channel": 9
      },
      {
        "type": "note_off",
        "note": 38,
        "time": 88635,
        "channel": 9
      },
      {
        "type": "note_off",
        "note": 51,
        "time": 88635,
        "channel": 9
      },
      {
        "type": "note_on",
        "note": 36,
        "velocity": 43,
        "time": 88695,
        "channel": 9
      },
      {
        "type": "note_on",
        "note": 51,
        "velocity": 57,
        "time": 88707,
        "channel": 9
      },
      {
        "type": "note_off",
        "note": 36,
        "time": 88771,
        "channel": 9
      },
      {
        "type": "note_off",
        "note": 51,
        "time": 88783,
        "channel": 9
      },
      {
        "type": "note_on",
        "note": 51,
        "velocity": 47,
        "time": 88805,
        "channel": 9
      },
      {
        "type": "note_off",
        "note": 51,
        "time": 88881,
        "channel": 9
      },
      {
        "type": "note_on",
        "note": 48,
        "velocity": 81,
        "time": 88923,
        "channel": 9
      },
      {
        "type": "note_off",
        "note": 48,
        "time": 88999,
        "channel": 9
      },
      {
        "type": "note_on",
        "note": 36,
        "velocity": 49,
        "time": 89017,
        "channel": 9
      },
      {
        "type": "note_on",
        "note": 51,
        "velocity": 57,
        "time": 89028,
        "channel": 9
      },
      {
        "type": "note_on",
        "note": 44,
        "velocity": 92,
        "time": 89034,
        "channel": 9
      },
      {
        "type": "note_off",
        "note": 36,
        "time": 89093,
        "channel": 9
      },
      {
        "type": "note_off",
        "note": 51,
        "time": 89104,
        "channel": 9
      },
      {
        "type": "note_off",
        "note": 44,
        "time": 89110,
        "channel": 9
      },
      {
        "type": "note_on",
        "note": 51,
        "velocity": 64,
        "time": 89168,
        "channel": 9
      },
      {
        "type": "note_off",
        "note": 51,
        "time": 89243,
        "channel": 9
      },
      {
        "type": "note_on",
        "note": 43,
        "velocity": 104,
        "time": 89260,
        "channel": 9
      },
      {
        "type": "note_off",
        "note": 43,
        "time": 89335,
        "channel": 9
      },
      {
        "type": "note_on",
        "note": 36,
        "velocity": 43,
        "time": 89394,
        "channel": 9
      },
      {
        "type": "note_on",
        "note": 51,
        "velocity": 61,
        "time": 89397,
        "channel": 9
      },
      {
        "type": "note_off",
        "note": 36,
        "time": 89470,
        "channel": 9
      },
      {
        "type": "note_off",
        "note": 51,
        "time": 89473,
        "channel": 9
      },
      {
        "type": "note_on",
        "note": 51,
        "velocity": 65,
        "time": 89498,
        "channel": 9
      },
      {
        "type": "note_on",
        "note": 44,
        "velocity": 85,
        "time": 89506,
        "channel": 9
      },
      {
        "type": "note_off",
        "note": 51,
        "time": 89573,
        "channel": 9
      },
      {
        "type": "note_off",
        "note": 44,
        "time": 89582,
        "channel": 9
      },
      {
        "type": "note_on",
        "note": 43,
        "velocity": 120,
        "time": 89641,
        "channel": 9
      },
      {
        "type": "note_off",
        "note": 43,
        "time": 89717,
        "channel": 9
      },
      {
        "type": "note_on",
        "note": 36,
        "velocity": 33,
        "time": 89736,
        "channel": 9
      },
      {
        "type": "note_on",
        "note": 51,
        "velocity": 61,
        "time": 89757,
        "channel": 9
      },
      {
        "type": "note_off",
        "note": 36,
        "time": 89812,
        "channel": 9
      },
      {
        "type": "note_off",
        "note": 51,
        "time": 89833,
        "channel": 9
      },
      {
        "type": "note_on",
        "note": 36,
        "velocity": 34,
        "time": 89866,
        "channel": 9
      },
      {
        "type": "note_on",
        "note": 51,
        "velocity": 50,
        "time": 89906,
        "channel": 9
      },
      {
        "type": "note_off",
        "note": 36,
        "time": 89941,
        "channel": 9
      },
      {
        "type": "note_off",
        "note": 51,
        "time": 89981,
        "channel": 9
      },
      {
        "type": "note_on",
        "note": 44,
        "velocity": 97,
        "time": 89982,
        "channel": 9
      },
      {
        "type": "note_on",
        "note": 40,
        "velocity": 115,
        "time": 89989,
        "channel": 9
      },
      {
        "type": "note_on",
        "note": 51,
        "velocity": 95,
        "time": 89989,
        "channel": 9
      },
      {
        "type": "note_off",
        "note": 44,
        "time": 90059,
        "channel": 9
      },
      {
        "type": "note_off",
        "note": 40,
        "time": 90065,
        "channel": 9
      },
      {
        "type": "note_off",
        "note": 51,
        "time": 90065,
        "channel": 9
      },
      {
        "type": "note_on",
        "note": 37,
        "velocity": 62,
        "time": 90130,
        "channel": 9
      },
      {
        "type": "note_off",
        "note": 37,
        "time": 90205,
        "channel": 9
      },
      {
        "type": "note_on",
        "note": 36,
        "velocity": 43,
        "time": 90215,
        "channel": 9
      },
      {
        "type": "note_on",
        "note": 51,
        "velocity": 48,
        "time": 90242,
        "channel": 9
      },
      {
        "type": "note_off",
        "note": 36,
        "time": 90292,
        "channel": 9
      },
      {
        "type": "note_off",
        "note": 51,
        "time": 90317,
        "channel": 9
      },
      {
        "type": "note_on",
        "note": 51,
        "velocity": 49,
        "time": 90365,
        "channel": 9
      },
      {
        "type": "note_off",
        "note": 51,
        "time": 90440,
        "channel": 9
      },
      {
        "type": "note_on",
        "note": 44,
        "velocity": 87,
        "time": 90450,
        "channel": 9
      },
      {
        "type": "note_on",
        "note": 37,
        "velocity": 83,
        "time": 90477,
        "channel": 9
      },
      {
        "type": "note_off",
        "note": 44,
        "time": 90526,
        "channel": 9
      },
      {
        "type": "note_off",
        "note": 37,
        "time": 90553,
        "channel": 9
      },
      {
        "type": "note_on",
        "note": 36,
        "velocity": 47,
        "time": 90605,
        "channel": 9
      },
      {
        "type": "note_on",
        "note": 51,
        "velocity": 71,
        "time": 90619,
        "channel": 9
      },
      {
        "type": "note_off",
        "note": 36,
        "time": 90681,
        "channel": 9
      },
      {
        "type": "note_off",
        "note": 51,
        "time": 90695,
        "channel": 9
      },
      {
        "type": "note_on",
        "note": 51,
        "velocity": 65,
        "time": 90715,
        "channel": 9
      },
      {
        "type": "note_off",
        "note": 51,
        "time": 90790,
        "channel": 9
      },
      {
        "type": "note_on",
        "note": 48,
        "velocity": 109,
        "time": 90845,
        "channel": 9
      },
      {
        "type": "note_off",
        "note": 48,
        "time": 90921,
        "channel": 9
      },
      {
        "type": "note_on",
        "note": 44,
        "velocity": 87,
        "time": 90935,
        "channel": 9
      },
      {
        "type": "note_on",
        "note": 36,
        "velocity": 44,
        "time": 90941,
        "channel": 9
      },
      {
        "type": "note_on",
        "note": 51,
        "velocity": 61,
        "time": 90948,
        "channel": 9
      },
      {
        "type": "note_off",
        "note": 44,
        "time": 91011,
        "channel": 9
      },
      {
        "type": "note_off",
        "note": 36,
        "time": 91017,
        "channel": 9
      },
      {
        "type": "note_off",
        "note": 51,
        "time": 91024,
        "channel": 9
      },
      {
        "type": "note_on",
        "note": 51,
        "velocity": 61,
        "time": 91085,
        "channel": 9
      },
      {
        "type": "note_off",
        "note": 51,
        "time": 91161,
        "channel": 9
      },
      {
        "type": "note_on",
        "note": 43,
        "velocity": 89,
        "time": 91187,
        "channel": 9
      },
      {
        "type": "note_off",
        "note": 43,
        "time": 91263,
        "channel": 9
      },
      {
        "type": "note_on",
        "note": 51,
        "velocity": 55,
        "time": 91309,
        "channel": 9
      },
      {
        "type": "note_on",
        "note": 36,
        "velocity": 41,
        "time": 91324,
        "channel": 9
      },
      {
        "type": "note_off",
        "note": 51,
        "time": 91385,
        "channel": 9
      },
      {
        "type": "note_off",
        "note": 36,
        "time": 91400,
        "channel": 9
      },
      {
        "type": "note_on",
        "note": 51,
        "velocity": 61,
        "time": 91424,
        "channel": 9
      },
      {
        "type": "note_on",
        "note": 44,
        "velocity": 85,
        "time": 91427,
        "channel": 9
      },
      {
        "type": "note_off",
        "note": 51,
        "time": 91499,
        "channel": 9
      },
      {
        "type": "note_off",
        "note": 44,
        "time": 91502,
        "channel": 9
      },
      {
        "type": "note_on",
        "note": 43,
        "velocity": 119,
        "time": 91547,
        "channel": 9
      },
      {
        "type": "note_off",
        "note": 43,
        "time": 91623,
        "channel": 9
      },
      {
        "type": "note_on",
        "note": 36,
        "velocity": 31,
        "time": 91629,
        "channel": 9
      },
      {
        "type": "note_on",
        "note": 51,
        "velocity": 64,
        "time": 91662,
        "channel": 9
      },
      {
        "type": "note_off",
        "note": 36,
        "time": 91705,
        "channel": 9
      },
      {
        "type": "note_off",
        "note": 51,
        "time": 91738,
        "channel": 9
      },
      {
        "type": "note_on",
        "note": 36,
        "velocity": 38,
        "time": 91769,
        "channel": 9
      },
      {
        "type": "note_on",
        "note": 51,
        "velocity": 48,
        "time": 91787,
        "channel": 9
      },
      {
        "type": "note_off",
        "note": 36,
        "time": 91845,
        "channel": 9
      },
      {
        "type": "note_off",
        "note": 51,
        "time": 91863,
        "channel": 9
      },
      {
        "type": "note_on",
        "note": 38,
        "velocity": 80,
        "time": 91891,
        "channel": 9
      },
      {
        "type": "note_on",
        "note": 51,
        "velocity": 97,
        "time": 91897,
        "channel": 9
      },
      {
        "type": "note_on",
        "note": 44,
        "velocity": 87,
        "time": 91898,
        "channel": 9
      },
      {
        "type": "note_off",
        "note": 38,
        "time": 91967,
        "channel": 9
      },
      {
        "type": "note_off",
        "note": 44,
        "time": 91973,
        "channel": 9
      },
      {
        "type": "note_off",
        "note": 51,
        "time": 91973,
        "channel": 9
      },
      {
        "type": "note_on",
        "note": 38,
        "velocity": 74,
        "time": 92032,
        "channel": 9
      },
      {
        "type": "note_off",
        "note": 38,
        "time": 92108,
        "channel": 9
      },
      {
        "type": "note_on",
        "note": 36,
        "velocity": 43,
        "time": 92130,
        "channel": 9
      },
      {
        "type": "note_on",
        "note": 51,
        "velocity": 61,
        "time": 92151,
        "channel": 9
      },
      {
        "type": "note_off",
        "note": 36,
        "time": 92206,
        "channel": 9
      },
      {
        "type": "note_off",
        "note": 51,
        "time": 92227,
        "channel": 9
      },
      {
        "type": "note_on",
        "note": 51,
        "velocity": 73,
        "time": 92278,
        "channel": 9
      },
      {
        "type": "note_off",
        "note": 51,
        "time": 92354,
        "channel": 9
      },
      {
        "type": "note_on",
        "note": 44,
        "velocity": 75,
        "time": 92384,
        "channel": 9
      },
      {
        "type": "note_on",
        "note": 48,
        "velocity": 92,
        "time": 92394,
        "channel": 9
      },
      {
        "type": "note_off",
        "note": 44,
        "time": 92460,
        "channel": 9
      },
      {
        "type": "note_off",
        "note": 48,
        "time": 92470,
        "channel": 9
      },
      {
        "type": "note_on",
        "note": 51,
        "velocity": 69,
        "time": 92533,
        "channel": 9
      },
      {
        "type": "note_on",
        "note": 36,
        "velocity": 47,
        "time": 92535,
        "channel": 9
      },
      {
        "type": "note_off",
        "note": 51,
        "time": 92609,
        "channel": 9
      },
      {
        "type": "note_off",
        "note": 36,
        "time": 92611,
        "channel": 9
      },
      {
        "type": "note_on",
        "note": 51,
        "velocity": 73,
        "time": 92634,
        "channel": 9
      },
      {
        "type": "note_off",
        "note": 51,
        "time": 92709,
        "channel": 9
      },
      {
        "type": "note_on",
        "note": 43,
        "velocity": 105,
        "time": 92762,
        "channel": 9
      },
      {
        "type": "note_off",
        "note": 43,
        "time": 92837,
        "channel": 9
      },
      {
        "type": "note_on",
        "note": 36,
        "velocity": 46,
        "time": 92871,
        "channel": 9
      },
      {
        "type": "note_on",
        "note": 44,
        "velocity": 77,
        "time": 92871,
        "channel": 9
      },
      {
        "type": "note_on",
        "note": 51,
        "velocity": 73,
        "time": 92874,
        "channel": 9
      },
      {
        "type": "note_off",
        "note": 36,
        "time": 92947,
        "channel": 9
      },
      {
        "type": "note_off",
        "note": 44,
        "time": 92947,
        "channel": 9
      },
      {
        "type": "note_off",
        "note": 51,
        "time": 92950,
        "channel": 9
      },
      {
        "type": "note_on",
        "note": 51,
        "velocity": 68,
        "time": 92990,
        "channel": 9
      },
      {
        "type": "note_off",
        "note": 51,
        "time": 93066,
        "channel": 9
      },
      {
        "type": "note_on",
        "note": 48,
        "velocity": 96,
        "time": 93105,
        "channel": 9
      },
      {
        "type": "note_off",
        "note": 48,
        "time": 93181,
        "channel": 9
      },
      {
        "type": "note_on",
        "note": 36,
        "velocity": 50,
        "time": 93239,
        "channel": 9
      },
      {
        "type": "note_off",
        "note": 36,
        "time": 93315,
        "channel": 9
      },
      {
        "type": "note_on",
        "note": 44,
        "velocity": 82,
        "time": 93335,
        "channel": 9
      },
      {
        "type": "note_on",
        "note": 43,
        "velocity": 99,
        "time": 93356,
        "channel": 9
      },
      {
        "type": "note_off",
        "note": 44,
        "time": 93411,
        "channel": 9
      },
      {
        "type": "note_off",
        "note": 43,
        "time": 93432,
        "channel": 9
      },
      {
        "type": "note_on",
        "note": 48,
        "velocity": 104,
        "time": 93493,
        "channel": 9
      },
      {
        "type": "note_off",
        "note": 48,
        "time": 93568,
        "channel": 9
      },
      {
        "type": "note_on",
        "note": 36,
        "velocity": 36,
        "time": 93587,
        "channel": 9
      },
      {
        "type": "note_off",
        "note": 36,
        "time": 93663,
        "channel": 9
      },
      {
        "type": "note_on",
        "note": 43,
        "velocity": 91,
        "time": 93725,
        "channel": 9
      },
      {
        "type": "note_off",
        "note": 43,
        "time": 93800,
        "channel": 9
      },
      {
        "type": "note_on",
        "note": 38,
        "velocity": 102,
        "time": 93821,
        "channel": 9
      },
      {
        "type": "note_on",
        "note": 55,
        "velocity": 98,
        "time": 93822,
        "channel": 9
      },
      {
        "type": "note_on",
        "note": 44,
        "velocity": 100,
        "time": 93825,
        "channel": 9
      },
      {
        "type": "note_off",
        "note": 38,
        "time": 93897,
        "channel": 9
      },
      {
        "type": "note_off",
        "note": 55,
        "time": 93898,
        "channel": 9
      },
      {
        "type": "note_off",
        "note": 44,
        "time": 93901,
        "channel": 9
      },
      {
        "type": "note_on",
        "note": 36,
        "velocity": 43,
        "time": 94063,
        "channel": 9
      },
      {
        "type": "note_on",
        "note": 51,
        "velocity": 59,
        "time": 94079,
        "channel": 9
      },
      {
        "type": "note_off",
        "note": 36,
        "time": 94139,
        "channel": 9
      },
      {
        "type": "note_off",
        "note": 51,
        "time": 94155,
        "channel": 9
      },
      {
        "type": "note_on",
        "note": 51,
        "velocity": 69,
        "time": 94189,
        "channel": 9
      },
      {
        "type": "note_off",
        "note": 51,
        "time": 94264,
        "channel": 9
      },
      {
        "type": "note_on",
        "note": 37,
        "velocity": 87,
        "time": 94290,
        "channel": 9
      },
      {
        "type": "note_on",
        "note": 44,
        "velocity": 80,
        "time": 94309,
        "channel": 9
      },
      {
        "type": "note_off",
        "note": 37,
        "time": 94366,
        "channel": 9
      },
      {
        "type": "note_off",
        "note": 44,
        "time": 94385,
        "channel": 9
      },
      {
        "type": "note_on",
        "note": 36,
        "velocity": 48,
        "time": 94441,
        "channel": 9
      },
      {
        "type": "note_on",
        "note": 51,
        "velocity": 62,
        "time": 94455,
        "channel": 9
      },
      {
        "type": "note_off",
        "note": 36,
        "time": 94517,
        "channel": 9
      },
      {
        "type": "note_off",
        "note": 51,
        "time": 94531,
        "channel": 9
      },
      {
        "type": "note_on",
        "note": 51,
        "velocity": 60,
        "time": 94544,
        "channel": 9
      },
      {
        "type": "note_off",
        "note": 51,
        "time": 94619,
        "channel": 9
      },
      {
        "type": "note_on",
        "note": 48,
        "velocity": 108,
        "time": 94671,
        "channel": 9
      },
      {
        "type": "note_off",
        "note": 48,
        "time": 94747,
        "channel": 9
      },
      {
        "type": "note_on",
        "note": 44,
        "velocity": 72,
        "time": 94768,
        "channel": 9
      },
      {
        "type": "note_on",
        "note": 36,
        "velocity": 49,
        "time": 94773,
        "channel": 9
      },
      {
        "type": "note_on",
        "note": 51,
        "velocity": 58,
        "time": 94780,
        "channel": 9
      },
      {
        "type": "note_off",
        "note": 44,
        "time": 94844,
        "channel": 9
      },
      {
        "type": "note_off",
        "note": 36,
        "time": 94849,
        "channel": 9
      },
      {
        "type": "note_off",
        "note": 51,
        "time": 94856,
        "channel": 9
      },
      {
        "type": "note_on",
        "note": 51,
        "velocity": 57,
        "time": 94926,
        "channel": 9
      },
      {
        "type": "note_off",
        "note": 51,
        "time": 95002,
        "channel": 9
      },
      {
        "type": "note_on",
        "note": 43,
        "velocity": 79,
        "time": 95014,
        "channel": 9
      },
      {
        "type": "note_on",
        "note": 51,
        "velocity": 103,
        "time": 95023,
        "channel": 9
      },
      {
        "type": "note_off",
        "note": 43,
        "time": 95089,
        "channel": 9
      },
      {
        "type": "note_off",
        "note": 51,
        "time": 95099,
        "channel": 9
      },
      {
        "type": "note_on",
        "note": 36,
        "velocity": 48,
        "time": 95154,
        "channel": 9
      },
      {
        "type": "note_off",
        "note": 36,
        "time": 95229,
        "channel": 9
      },
      {
        "type": "note_on",
        "note": 44,
        "velocity": 90,
        "time": 95259,
        "channel": 9
      },
      {
        "type": "note_on",
        "note": 51,
        "velocity": 79,
        "time": 95279,
        "channel": 9
      },
      {
        "type": "note_off",
        "note": 44,
        "time": 95335,
        "channel": 9
      },
      {
        "type": "note_off",
        "note": 51,
        "time": 95356,
        "channel": 9
      },
      {
        "type": "note_on",
        "note": 43,
        "velocity": 127,
        "time": 95397,
        "channel": 9
      },
      {
        "type": "note_off",
        "note": 43,
        "time": 95473,
        "channel": 9
      },
      {
        "type": "note_on",
        "note": 36,
        "velocity": 43,
        "time": 95491,
        "channel": 9
      },
      {
        "type": "note_on",
        "note": 51,
        "velocity": 60,
        "time": 95509,
        "channel": 9
      },
      {
        "type": "note_off",
        "note": 36,
        "time": 95567,
        "channel": 9
      },
      {
        "type": "note_off",
        "note": 51,
        "time": 95585,
        "channel": 9
      },
      {
        "type": "note_on",
        "note": 36,
        "velocity": 48,
        "time": 95641,
        "channel": 9
      },
      {
        "type": "note_on",
        "note": 51,
        "velocity": 61,
        "time": 95647,
        "channel": 9
      },
      {
        "type": "note_off",
        "note": 36,
        "time": 95717,
        "channel": 9
      },
      {
        "type": "note_off",
        "note": 51,
        "time": 95723,
        "channel": 9
      },
      {
        "type": "note_on",
        "note": 48,
        "velocity": 80,
        "time": 95745,
        "channel": 9
      },
      {
        "type": "note_on",
        "note": 51,
        "velocity": 93,
        "time": 95745,
        "channel": 9
      },
      {
        "type": "note_on",
        "note": 44,
        "velocity": 95,
        "time": 95752,
        "channel": 9
      },
      {
        "type": "note_off",
        "note": 48,
        "time": 95820,
        "channel": 9
      },
      {
        "type": "note_off",
        "note": 51,
        "time": 95820,
        "channel": 9
      },
      {
        "type": "note_off",
        "note": 44,
        "time": 95829,
        "channel": 9
      },
      {
        "type": "note_on",
        "note": 48,
        "velocity": 83,
        "time": 95873,
        "channel": 9
      },
      {
        "type": "note_off",
        "note": 48,
        "time": 95949,
        "channel": 9
      },
      {
        "type": "note_on",
        "note": 36,
        "velocity": 59,
        "time": 95973,
        "channel": 9
      },
      {
        "type": "note_on",
        "note": 51,
        "velocity": 62,
        "time": 95994,
        "channel": 9
      },
      {
        "type": "note_off",
        "note": 36,
        "time": 96049,
        "channel": 9
      },
      {
        "type": "note_off",
        "note": 51,
        "time": 96070,
        "channel": 9
      },
      {
        "type": "note_on",
        "note": 51,
        "velocity": 71,
        "time": 96118,
        "channel": 9
      },
      {
        "type": "note_off",
        "note": 51,
        "time": 96194,
        "channel": 9
      },
      {
        "type": "note_on",
        "note": 44,
        "velocity": 72,
        "time": 96213,
        "channel": 9
      },
      {
        "type": "note_on",
        "note": 38,
        "velocity": 73,
        "time": 96221,
        "channel": 9
      },
      {
        "type": "note_off",
        "note": 44,
        "time": 96290,
        "channel": 9
      },
      {
        "type": "note_off",
        "note": 38,
        "time": 96297,
        "channel": 9
      },
      {
        "type": "note_on",
        "note": 36,
        "velocity": 52,
        "time": 96371,
        "channel": 9
      },
      {
        "type": "note_on",
        "note": 51,
        "velocity": 65,
        "time": 96373,
        "channel": 9
      },
      {
        "type": "note_off",
        "note": 36,
        "time": 96447,
        "channel": 9
      },
      {
        "type": "note_off",
        "note": 51,
        "time": 96449,
        "channel": 9
      },
      {
        "type": "note_on",
        "note": 51,
        "velocity": 76,
        "time": 96471,
        "channel": 9
      },
      {
        "type": "note_off",
        "note": 51,
        "time": 96547,
        "channel": 9
      },
      {
        "type": "note_on",
        "note": 48,
        "velocity": 113,
        "time": 96605,
        "channel": 9
      },
      {
        "type": "note_off",
        "note": 48,
        "time": 96681,
        "channel": 9
      },
      {
        "type": "note_on",
        "note": 36,
        "velocity": 50,
        "time": 96696,
        "channel": 9
      },
      {
        "type": "note_on",
        "note": 44,
        "velocity": 77,
        "time": 96706,
        "channel": 9
      },
      {
        "type": "note_on",
        "note": 51,
        "velocity": 59,
        "time": 96722,
        "channel": 9
      },
      {
        "type": "note_off",
        "note": 36,
        "time": 96772,
        "channel": 9
      },
      {
        "type": "note_off",
        "note": 44,
        "time": 96782,
        "channel": 9
      },
      {
        "type": "note_off",
        "note": 51,
        "time": 96798,
        "channel": 9
      },
      {
        "type": "note_on",
        "note": 51,
        "velocity": 52,
        "time": 96859,
        "channel": 9
      },
      {
        "type": "note_off",
        "note": 51,
        "time": 96935,
        "channel": 9
      },
      {
        "type": "note_on",
        "note": 43,
        "velocity": 100,
        "time": 96951,
        "channel": 9
      },
      {
        "type": "note_off",
        "note": 43,
        "time": 97026,
        "channel": 9
      },
      {
        "type": "note_on",
        "note": 51,
        "velocity": 67,
        "time": 97083,
        "channel": 9
      },
      {
        "type": "note_on",
        "note": 36,
        "velocity": 54,
        "time": 97089,
        "channel": 9
      },
      {
        "type": "note_off",
        "note": 51,
        "time": 97159,
        "channel": 9
      },
      {
        "type": "note_off",
        "note": 36,
        "time": 97164,
        "channel": 9
      },
      {
        "type": "note_on",
        "note": 44,
        "velocity": 77,
        "time": 97176,
        "channel": 9
      },
      {
        "type": "note_on",
        "note": 51,
        "velocity": 83,
        "time": 97193,
        "channel": 9
      },
      {
        "type": "note_off",
        "note": 44,
        "time": 97252,
        "channel": 9
      },
      {
        "type": "note_off",
        "note": 51,
        "time": 97269,
        "channel": 9
      },
      {
        "type": "note_on",
        "note": 50,
        "velocity": 86,
        "time": 97319,
        "channel": 9
      },
      {
        "type": "note_off",
        "note": 50,
        "time": 97396,
        "channel": 9
      },
      {
        "type": "note_on",
        "note": 36,
        "velocity": 40,
        "time": 97401,
        "channel": 9
      },
      {
        "type": "note_on",
        "note": 51,
        "velocity": 65,
        "time": 97437,
        "channel": 9
      },
      {
        "type": "note_off",
        "note": 36,
        "time": 97477,
        "channel": 9
      },
      {
        "type": "note_off",
        "note": 51,
        "time": 97513,
        "channel": 9
      },
      {
        "type": "note_on",
        "note": 36,
        "velocity": 47,
        "time": 97548,
        "channel": 9
      },
      {
        "type": "note_off",
        "note": 36,
        "time": 97623,
        "channel": 9
      },
      {
        "type": "note_on",
        "note": 43,
        "velocity": 83,
        "time": 97648,
        "channel": 9
      },
      {
        "type": "note_on",
        "note": 38,
        "velocity": 70,
        "time": 97655,
        "channel": 9
      },
      {
        "type": "note_on",
        "note": 44,
        "velocity": 87,
        "time": 97656,
        "channel": 9
      },
      {
        "type": "note_off",
        "note": 43,
        "time": 97723,
        "channel": 9
      },
      {
        "type": "note_off",
        "note": 38,
        "time": 97731,
        "channel": 9
      },
      {
        "type": "note_off",
        "note": 44,
        "time": 97731,
        "channel": 9
      },
      {
        "type": "note_on",
        "note": 38,
        "velocity": 69,
        "time": 97785,
        "channel": 9
      },
      {
        "type": "note_off",
        "note": 38,
        "time": 97860,
        "channel": 9
      },
      {
        "type": "note_on",
        "note": 36,
        "velocity": 48,
        "time": 97889,
        "channel": 9
      },
      {
        "type": "note_on",
        "note": 51,
        "velocity": 69,
        "time": 97896,
        "channel": 9
      },
      {
        "type": "note_off",
        "note": 36,
        "time": 97966,
        "channel": 9
      },
      {
        "type": "note_off",
        "note": 51,
        "time": 97972,
        "channel": 9
      },
      {
        "type": "note_on",
        "note": 51,
        "velocity": 70,
        "time": 98018,
        "channel": 9
      },
      {
        "type": "note_off",
        "note": 51,
        "time": 98093,
        "channel": 9
      },
      {
        "type": "note_on",
        "note": 44,
        "velocity": 62,
        "time": 98121,
        "channel": 9
      },
      {
        "type": "note_on",
        "note": 48,
        "velocity": 89,
        "time": 98134,
        "channel": 9
      },
      {
        "type": "note_off",
        "note": 44,
        "time": 98197,
        "channel": 9
      },
      {
        "type": "note_off",
        "note": 48,
        "time": 98210,
        "channel": 9
      },
      {
        "type": "note_on",
        "note": 51,
        "velocity": 71,
        "time": 98264,
        "channel": 9
      },
      {
        "type": "note_on",
        "note": 36,
        "velocity": 47,
        "time": 98266,
        "channel": 9
      },
      {
        "type": "note_off",
        "note": 51,
        "time": 98340,
        "channel": 9
      },
      {
        "type": "note_off",
        "note": 36,
        "time": 98342,
        "channel": 9
      },
      {
        "type": "note_on",
        "note": 43,
        "velocity": 96,
        "time": 98382,
        "channel": 9
      },
      {
        "type": "note_off",
        "note": 43,
        "time": 98458,
        "channel": 9
      },
      {
        "type": "note_on",
        "note": 51,
        "velocity": 54,
        "time": 98511,
        "channel": 9
      },
      {
        "type": "note_off",
        "note": 51,
        "time": 98587,
        "channel": 9
      },
      {
        "type": "note_on",
        "note": 36,
        "velocity": 42,
        "time": 98592,
        "channel": 9
      },
      {
        "type": "note_on",
        "note": 44,
        "velocity": 75,
        "time": 98604,
        "channel": 9
      },
      {
        "type": "note_on",
        "note": 51,
        "velocity": 74,
        "time": 98617,
        "channel": 9
      },
      {
        "type": "note_off",
        "note": 36,
        "time": 98668,
        "channel": 9
      },
      {
        "type": "note_off",
        "note": 44,
        "time": 98680,
        "channel": 9
      },
      {
        "type": "note_off",
        "note": 51,
        "time": 98692,
        "channel": 9
      },
      {
        "type": "note_on",
        "note": 48,
        "velocity": 105,
        "time": 98736,
        "channel": 9
      },
      {
        "type": "note_off",
        "note": 48,
        "time": 98812,
        "channel": 9
      },
      {
        "type": "note_on",
        "note": 36,
        "velocity": 47,
        "time": 98847,
        "channel": 9
      },
      {
        "type": "note_on",
        "note": 51,
        "velocity": 68,
        "time": 98860,
        "channel": 9
      },
      {
        "type": "note_off",
        "note": 36,
        "time": 98923,
        "channel": 9
      },
      {
        "type": "note_off",
        "note": 51,
        "time": 98936,
        "channel": 9
      },
      {
        "type": "note_on",
        "note": 43,
        "velocity": 87,
        "time": 98985,
        "channel": 9
      },
      {
        "type": "note_off",
        "note": 43,
        "time": 99061,
        "channel": 9
      },
      {
        "type": "note_on",
        "note": 44,
        "velocity": 97,
        "time": 99083,
        "channel": 9
      },
      {
        "type": "note_on",
        "note": 51,
        "velocity": 69,
        "time": 99087,
        "channel": 9
      },
      {
        "type": "note_off",
        "note": 44,
        "time": 99158,
        "channel": 9
      },
      {
        "type": "note_off",
        "note": 51,
        "time": 99163,
        "channel": 9
      },
      {
        "type": "note_on",
        "note": 36,
        "velocity": 52,
        "time": 99216,
        "channel": 9
      },
      {
        "type": "note_on",
        "note": 51,
        "velocity": 52,
        "time": 99238,
        "channel": 9
      },
      {
        "type": "note_off",
        "note": 36,
        "time": 99292,
        "channel": 9
      },
      {
        "type": "note_off",
        "note": 51,
        "time": 99314,
        "channel": 9
      },
      {
        "type": "note_on",
        "note": 48,
        "velocity": 93,
        "time": 99333,
        "channel": 9
      },
      {
        "type": "note_on",
        "note": 51,
        "velocity": 58,
        "time": 99343,
        "channel": 9
      },
      {
        "type": "note_off",
        "note": 48,
        "time": 99409,
        "channel": 9
      },
      {
        "type": "note_off",
        "note": 51,
        "time": 99418,
        "channel": 9
      },
      {
        "type": "note_on",
        "note": 48,
        "velocity": 87,
        "time": 99466,
        "channel": 9
      },
      {
        "type": "note_off",
        "note": 48,
        "time": 99543,
        "channel": 9
      },
      {
        "type": "note_on",
        "note": 51,
        "velocity": 76,
        "time": 99570,
        "channel": 9
      },
      {
        "type": "note_on",
        "note": 44,
        "velocity": 97,
        "time": 99572,
        "channel": 9
      },
      {
        "type": "note_on",
        "note": 48,
        "velocity": 88,
        "time": 99576,
        "channel": 9
      },
      {
        "type": "note_off",
        "note": 51,
        "time": 99646,
        "channel": 9
      },
      {
        "type": "note_off",
        "note": 44,
        "time": 99648,
        "channel": 9
      },
      {
        "type": "note_off",
        "note": 48,
        "time": 99652,
        "channel": 9
      },
      {
        "type": "note_on",
        "note": 50,
        "velocity": 83,
        "time": 99694,
        "channel": 9
      },
      {
        "type": "note_off",
        "note": 50,
        "time": 99770,
        "channel": 9
      },
      {
        "type": "note_on",
        "note": 36,
        "velocity": 49,
        "time": 99799,
        "channel": 9
      },
      {
        "type": "note_on",
        "note": 51,
        "velocity": 85,
        "time": 99806,
        "channel": 9
      },
      {
        "type": "note_off",
        "note": 36,
        "time": 99875,
        "channel": 9
      },
      {
        "type": "note_off",
        "note": 51,
        "time": 99882,
        "channel": 9
      },
      {
        "type": "note_on",
        "note": 51,
        "velocity": 58,
        "time": 99941,
        "channel": 9
      },
      {
        "type": "note_off",
        "note": 51,
        "time": 100016,
        "channel": 9
      },
      {
        "type": "note_on",
        "note": 44,
        "velocity": 95,
        "time": 100037,
        "channel": 9
      },
      {
        "type": "note_on",
        "note": 48,
        "velocity": 97,
        "time": 100057,
        "channel": 9
      },
      {
        "type": "note_off",
        "note": 44,
        "time": 100113,
        "channel": 9
      },
      {
        "type": "note_off",
        "note": 48,
        "time": 100133,
        "channel": 9
      },
      {
        "type": "note_on",
        "note": 36,
        "velocity": 42,
        "time": 100182,
        "channel": 9
      },
      {
        "type": "note_off",
        "note": 36,
        "time": 100258,
        "channel": 9
      },
      {
        "type": "note_on",
        "note": 51,
        "velocity": 101,
        "time": 100285,
        "channel": 9
      },
      {
        "type": "note_on",
        "note": 43,
        "velocity": 87,
        "time": 100288,
        "channel": 9
      },
      {
        "type": "note_off",
        "note": 51,
        "time": 100361,
        "channel": 9
      },
      {
        "type": "note_off",
        "note": 43,
        "time": 100364,
        "channel": 9
      },
      {
        "type": "note_on",
        "note": 36,
        "velocity": 43,
        "time": 100412,
        "channel": 9
      },
      {
        "type": "note_off",
        "note": 36,
        "time": 100488,
        "channel": 9
      },
      {
        "type": "note_on",
        "note": 44,
        "velocity": 95,
        "time": 100525,
        "channel": 9
      },
      {
        "type": "note_on",
        "note": 51,
        "velocity": 84,
        "time": 100534,
        "channel": 9
      },
      {
        "type": "note_off",
        "note": 44,
        "time": 100601,
        "channel": 9
      },
      {
        "type": "note_off",
        "note": 51,
        "time": 100610,
        "channel": 9
      },
      {
        "type": "note_on",
        "note": 48,
        "velocity": 69,
        "time": 100662,
        "channel": 9
      },
      {
        "type": "note_on",
        "note": 51,
        "velocity": 69,
        "time": 100665,
        "channel": 9
      },
      {
        "type": "note_off",
        "note": 48,
        "time": 100738,
        "channel": 9
      },
      {
        "type": "note_off",
        "note": 51,
        "time": 100741,
        "channel": 9
      },
      {
        "type": "note_on",
        "note": 36,
        "velocity": 33,
        "time": 100774,
        "channel": 9
      },
      {
        "type": "note_on",
        "note": 51,
        "velocity": 75,
        "time": 100785,
        "channel": 9
      },
      {
        "type": "note_off",
        "note": 36,
        "time": 100850,
        "channel": 9
      },
      {
        "type": "note_off",
        "note": 51,
        "time": 100861,
        "channel": 9
      },
      {
        "type": "note_on",
        "note": 43,
        "velocity": 96,
        "time": 100910,
        "channel": 9
      },
      {
        "type": "note_off",
        "note": 43,
        "time": 100986,
        "channel": 9
      },
      {
        "type": "note_on",
        "note": 51,
        "velocity": 86,
        "time": 101022,
        "channel": 9
      },
      {
        "type": "note_on",
        "note": 44,
        "velocity": 90,
        "time": 101031,
        "channel": 9
      },
      {
        "type": "note_off",
        "note": 51,
        "time": 101098,
        "channel": 9
      },
      {
        "type": "note_off",
        "note": 44,
        "time": 101107,
        "channel": 9
      },
      {
        "type": "note_on",
        "note": 36,
        "velocity": 44,
        "time": 101150,
        "channel": 9
      },
      {
        "type": "note_off",
        "note": 36,
        "time": 101226,
        "channel": 9
      },
      {
        "type": "note_on",
        "note": 48,
        "velocity": 76,
        "time": 101268,
        "channel": 9
      },
      {
        "type": "note_on",
        "note": 51,
        "velocity": 89,
        "time": 101275,
        "channel": 9
      },
      {
        "type": "note_off",
        "note": 48,
        "time": 101344,
        "channel": 9
      },
      {
        "type": "note_off",
        "note": 51,
        "time": 101350,
        "channel": 9
      },
      {
        "type": "note_on",
        "note": 48,
        "velocity": 79,
        "time": 101395,
        "channel": 9
      },
      {
        "type": "note_on",
        "note": 36,
        "velocity": 7,
        "time": 101466,
        "channel": 9
      },
      {
        "type": "note_off",
        "note": 48,
        "time": 101471,
        "channel": 9
      },
      {
        "type": "note_on",
        "note": 51,
        "velocity": 99,
        "time": 101493,
        "channel": 9
      },
      {
        "type": "note_on",
        "note": 44,
        "velocity": 97,
        "time": 101507,
        "channel": 9
      },
      {
        "type": "note_on",
        "note": 48,
        "velocity": 89,
        "time": 101519,
        "channel": 9
      },
      {
        "type": "note_off",
        "note": 36,
        "time": 101541,
        "channel": 9
      },
      {
        "type": "note_off",
        "note": 51,
        "time": 101569,
        "channel": 9
      },
      {
        "type": "note_off",
        "note": 44,
        "time": 101583,
        "channel": 9
      },
      {
        "type": "note_off",
        "note": 48,
        "time": 101595,
        "channel": 9
      },
      {
        "type": "note_on",
        "note": 50,
        "velocity": 90,
        "time": 101620,
        "channel": 9
      },
      {
        "type": "note_off",
        "note": 50,
        "time": 101696,
        "channel": 9
      },
      {
        "type": "note_on",
        "note": 59,
        "velocity": 81,
        "time": 101733,
        "channel": 9
      },
      {
        "type": "note_on",
        "note": 36,
        "velocity": 57,
        "time": 101735,
        "channel": 9
      },
      {
        "type": "note_off",
        "note": 59,
        "time": 101794,
        "channel": 9
      },
      {
        "type": "note_off",
        "note": 36,
        "time": 101795,
        "channel": 9
      }
    ]
  },
  {
    "file": "data\\groove\\drummer1\\session1\\101_dance-disco_120_beat_4-4.mid",
    "num_events": 3953,
    "duration": 296958,
    "events": [
      {
        "type": "set_tempo",
        "tempo": 500000,
        "time": 0
      },
      {
        "type": "note_on",
        "note": 55,
        "velocity": 88,
        "time": 0,
        "channel": 9
      },
      {
        "type": "note_on",
        "note": 44,
        "velocity": 77,
        "time": 4,
        "channel": 9
      },
      {
        "type": "note_on",
        "note": 36,
        "velocity": 62,
        "time": 20,
        "channel": 9
      },
      {
        "type": "note_off",
        "note": 55,
        "time": 97,
        "channel": 9
      },
      {
        "type": "note_off",
        "note": 44,
        "time": 100,
        "channel": 9
      },
      {
        "type": "note_off",
        "note": 36,
        "time": 118,
        "channel": 9
      },
      {
        "type": "note_on",
        "note": 26,
        "velocity": 79,
        "time": 238,
        "channel": 9
      },
      {
        "type": "note_on",
        "note": 36,
        "velocity": 6,
        "time": 275,
        "channel": 9
      },
      {
        "type": "note_off",
        "note": 26,
        "time": 335,
        "channel": 9
      },
      {
        "type": "note_off",
        "note": 36,
        "time": 372,
        "channel": 9
      },
      {
        "type": "note_on",
        "note": 44,
        "velocity": 37,
        "time": 452,
        "channel": 9
      },
      {
        "type": "note_on",
        "note": 40,
        "velocity": 93,
        "time": 475,
        "channel": 9
      },
      {
        "type": "note_on",
        "note": 42,
        "velocity": 45,
        "time": 475,
        "channel": 9
      },
      {
        "type": "note_on",
        "note": 36,
        "velocity": 62,
        "time": 487,
        "channel": 9
      },
      {
        "type": "note_off",
        "note": 44,
        "time": 551,
        "channel": 9
      },
      {
        "type": "note_off",
        "note": 40,
        "time": 572,
        "channel": 9
      },
      {
        "type": "note_off",
        "note": 42,
        "time": 572,
        "channel": 9
      },
      {
        "type": "note_off",
        "note": 36,
        "time": 583,
        "channel": 9
      },
      {
        "type": "note_on",
        "note": 38,
        "velocity": 20,
        "time": 604,
        "channel": 9
      },
      {
        "type": "note_off",
        "note": 38,
        "time": 701,
        "channel": 9
      },
      {
        "type": "note_on",
        "note": 22,
        "velocity": 74,
        "time": 705,
        "channel": 9
      },
      {
        "type": "note_off",
        "note": 22,
        "time": 802,
        "channel": 9
      },
      {
        "type": "note_on",
        "note": 38,
        "velocity": 20,
        "time": 835,
        "channel": 9
      },
      {
        "type": "note_off",
        "note": 38,
        "time": 932,
        "channel": 9
      },
      {
        "type": "note_on",
        "note": 36,
        "velocity": 59,
        "time": 944,
        "channel": 9
      },
      {
        "type": "note_on",
        "note": 42,
        "velocity": 31,
        "time": 947,
        "channel": 9
      },
      {
        "type": "note_off",
        "note": 36,
        "time": 1041,
        "channel": 9
      },
      {
        "type": "note_off",
        "note": 42,
        "time": 1044,
        "channel": 9
      },
      {
        "type": "note_on",
        "note": 38,
        "velocity": 12,
        "time": 1171,
        "channel": 9
      },
      {
        "type": "note_on",
        "note": 22,
        "velocity": 84,
        "time": 1187,
        "channel": 9
      },
      {
        "type": "note_off",
        "note": 38,
        "time": 1269,
        "channel": 9
      },
      {
        "type": "note_off",
        "note": 22,
        "time": 1284,
        "channel": 9
      },
      {
        "type": "note_on",
        "note": 36,
        "velocity": 61,
        "time": 1442,
        "channel": 9
      },
      {
        "type": "note_on",
        "note": 38,
        "velocity": 74,
        "time": 1444,
        "channel": 9
      },
      {
        "type": "note_on",
        "note": 42,
        "velocity": 57,
        "time": 1450,
        "channel": 9
      },
      {
        "type": "note_off",
        "note": 36,
        "time": 1539,
        "channel": 9
      },
      {
        "type": "note_off",
        "note": 38,
        "time": 1540,
        "channel": 9
      },
      {
        "type": "note_off",
        "note": 42,
        "time": 1547,
        "channel": 9
      },
      {
        "type": "note_on",
        "note": 42,
        "velocity": 69,
        "time": 1693,
        "channel": 9
      },
      {
        "type": "note_off",
        "note": 42,
        "time": 1790,
        "channel": 9
      },
      {
        "type": "note_on",
        "note": 38,
        "velocity": 26,
        "time": 1812,
        "channel": 9
      },
      {
        "type": "note_off",
        "note": 38,
        "time": 1908,
        "channel": 9
      },
      {
        "type": "note_on",
        "note": 36,
        "velocity": 59,
        "time": 1923,
        "channel": 9
      },
      {
        "type": "note_on",
        "note": 42,
        "velocity": 27,
        "time": 1931,
        "channel": 9
      },
      {
        "type": "note_off",
        "note": 36,
        "time": 2019,
        "channel": 9
      },
      {
        "type": "note_off",
        "note": 42,
        "time": 2029,
        "channel": 9
      },
      {
        "type": "note_on",
        "note": 42,
        "velocity": 55,
        "time": 2155,
        "channel": 9
      },
      {
        "type": "note_off",
        "note": 42,
        "time": 2252,
        "channel": 9
      },
      {
        "type": "note_on",
        "note": 38,
        "velocity": 90,
        "time": 2400,
        "channel": 9
      },
      {
        "type": "note_on",
        "note": 36,
        "velocity": 62,
        "time": 2402,
        "channel": 9
      },
      {
        "type": "note_on",
        "note": 42,
        "velocity": 55,
        "time": 2411,
        "channel": 9
      },
      {
        "type": "note_off",
        "note": 38,
        "time": 2497,
        "channel": 9
      },
      {
        "type": "note_off",
        "note": 36,
        "time": 2499,
        "channel": 9
      },
      {
        "type": "note_off",
        "note": 42,
        "time": 2508,
        "channel": 9
      },
      {
        "type": "note_on",
        "note": 42,
        "velocity": 76,
        "time": 2643,
        "channel": 9
      },
      {
        "type": "note_off",
        "note": 42,
        "time": 2740,
        "channel": 9
      },
      {
        "type": "note_on",
        "note": 36,
        "velocity": 59,
        "time": 2866,
        "channel": 9
      },
      {
        "type": "note_on",
        "note": 42,
        "velocity": 45,
        "time": 2867,
        "channel": 9
      },
      {
        "type": "note_off",
        "note": 36,
        "time": 2963,
        "channel": 9
      },
      {
        "type": "note_off",
        "note": 42,
        "time": 2965,
        "channel": 9
      },
      {
        "type": "note_on",
        "note": 42,
        "velocity": 60,
        "time": 3105,
        "channel": 9
      },
      {
        "type": "note_off",
        "note": 42,
        "time": 3202,
        "channel": 9
      },
      {
        "type": "note_on",
        "note": 36,
        "velocity": 62,
        "time": 3340,
        "channel": 9
      },
      {
        "type": "note_on",
        "note": 37,
        "velocity": 82,
        "time": 3340,
        "channel": 9
      },
      {
        "type": "note_on",
        "note": 42,
        "velocity": 67,
        "time": 3350,
        "channel": 9
      },
      {
        "type": "note_off",
        "note": 36,
        "time": 3437,
        "channel": 9
      },
      {
        "type": "note_off",
        "note": 37,
        "time": 3437,
        "channel": 9
      },
      {
        "type": "note_off",
        "note": 42,
        "time": 3448,
        "channel": 9
      },
      {
        "type": "note_on",
        "note": 42,
        "velocity": 48,
        "time": 3593,
        "channel": 9
      },
      {
        "type": "note_off",
        "note": 42,
        "time": 3690,
        "channel": 9
      },
      {
        "type": "note_on",
        "note": 42,
        "velocity": 47,
        "time": 3719,
        "channel": 9
      },
      {
        "type": "note_on",
        "note": 38,
        "velocity": 38,
        "time": 3729,
        "channel": 9
      },
      {
        "type": "note_off",
        "note": 42,
        "time": 3817,
        "channel": 9
      },
      {
        "type": "note_on",
        "note": 36,
        "velocity": 58,
        "time": 3823,
        "channel": 9
      },
      {
        "type": "note_off",
        "note": 38,
        "time": 3825,
        "channel": 9
      },
      {
        "type": "note_on",
        "note": 42,
        "velocity": 45,
        "time": 3825,
        "channel": 9
      },
      {
        "type": "note_off",
        "note": 36,
        "time": 3919,
        "channel": 9
      },
      {
        "type": "note_off",
        "note": 42,
        "time": 3923,
        "channel": 9
      },
      {
        "type": "note_on",
        "note": 38,
        "velocity": 8,
        "time": 3978,
        "channel": 9
      },
      {
        "type": "note_on",
        "note": 26,
        "velocity": 94,
        "time": 4059,
        "channel": 9
      },
      {
        "type": "note_off",
        "note": 38,
        "time": 4075,
        "channel": 9
      },
      {
        "type": "note_off",
        "note": 26,
        "time": 4155,
        "channel": 9
      },
      {
        "type": "note_on",
        "note": 44,
        "velocity": 22,
        "time": 4281,
        "channel": 9
      },
      {
        "type": "note_on",
        "note": 36,
        "velocity": 61,
        "time": 4304,
        "channel": 9
      },
      {
        "type": "note_on",
        "note": 38,
        "velocity": 77,
        "time": 4307,
        "channel": 9
      },
      {
        "type": "note_on",
        "note": 42,
        "velocity": 45,
        "time": 4309,
        "channel": 9
      },
      {
        "type": "note_off",
        "note": 44,
        "time": 4378,
        "channel": 9
      },
      {
        "type": "note_off",
        "note": 36,
        "time": 4401,
        "channel": 9
      },
      {
        "type": "note_off",
        "note": 38,
        "time": 4404,
        "channel": 9
      },
      {
        "type": "note_off",
        "note": 42,
        "time": 4406,
        "channel": 9
      },
      {
        "type": "note_on",
        "note": 42,
        "velocity": 77,
        "time": 4541,
        "channel": 9
      },
      {
        "type": "note_off",
        "note": 42,
        "time": 4638,
        "channel": 9
      },
      {
        "type": "note_on",
        "note": 38,
        "velocity": 15,
        "time": 4669,
        "channel": 9
      },
      {
        "type": "note_off",
        "note": 38,
        "time": 4766,
        "channel": 9
      },
      {
        "type": "note_on",
        "note": 36,
        "velocity": 59,
        "time": 4777,
        "channel": 9
      },
      {
        "type": "note_on",
        "note": 42,
        "velocity": 38,
        "time": 4779,
        "channel": 9
      },
      {
        "type": "note_off",
        "note": 36,
        "time": 4874,
        "channel": 9
      },
      {
        "type": "note_off",
        "note": 42,
        "time": 4876,
        "channel": 9
      },
      {
        "type": "note_on",
        "note": 38,
        "velocity": 9,
        "time": 4923,
        "channel": 9
      },
      {
        "type": "note_on",
        "note": 42,
        "velocity": 87,
        "time": 5016,
        "channel": 9
      },
      {
        "type": "note_off",
        "note": 38,
        "time": 5021,
        "channel": 9
      },
      {
        "type": "note_off",
        "note": 42,
        "time": 5114,
        "channel": 9
      },
      {
        "type": "note_on",
        "note": 36,
        "velocity": 68,
        "time": 5255,
        "channel": 9
      },
      {
        "type": "note_on",
        "note": 38,
        "velocity": 87,
        "time": 5261,
        "channel": 9
      },
      {
        "type": "note_on",
        "note": 42,
        "velocity": 71,
        "time": 5267,
        "channel": 9
      },
      {
        "type": "note_off",
        "note": 36,
        "time": 5352,
        "channel": 9
      },
      {
        "type": "note_off",
        "note": 38,
        "time": 5357,
        "channel": 9
      },
      {
        "type": "note_off",
        "note": 42,
        "time": 5364,
        "channel": 9
      },
      {
        "type": "note_on",
        "note": 22,
        "velocity": 92,
        "time": 5511,
        "channel": 9
      },
      {
        "type": "note_off",
        "note": 22,
        "time": 5608,
        "channel": 9
      },
      {
        "type": "note_on",
        "note": 38,
        "velocity": 15,
        "time": 5646,
        "channel": 9
      },
      {
        "type": "note_off",
        "note": 38,
        "time": 5679,
        "channel": 9
      },
      {
        "type": "note_on",
        "note": 38,
        "velocity": 12,
        "time": 5679,
        "channel": 9
      },
      {
        "type": "note_off",
        "note": 38,
        "time": 5742,
        "channel": 9
      },
      {
        "type": "note_on",
        "note": 42,
        "velocity": 38,
        "time": 5746,
        "channel": 9
      },
      {
        "type": "note_on",
        "note": 36,
        "velocity": 58,
        "time": 5749,
        "channel": 9
      },
      {
        "type": "note_off",
        "note": 42,
        "time": 5843,
        "channel": 9
      },
      {
        "type": "note_off",
        "note": 36,
        "time": 5846,
        "channel": 9
      },
      {
        "type": "note_on",
        "note": 38,
        "velocity": 8,
        "time": 5859,
        "channel": 9
      },
      {
        "type": "note_off",
        "note": 38,
        "time": 5955,
        "channel": 9
      },
      {
        "type": "note_on",
        "note": 42,
        "velocity": 71,
        "time": 5981,
        "channel": 9
      },
      {
        "type": "note_off",
        "note": 42,
        "time": 6078,
        "channel": 9
      },
      {
        "type": "note_on",
        "note": 37,
        "velocity": 83,
        "time": 6224,
        "channel": 9
      },
      {
        "type": "note_on",
        "note": 36,
        "velocity": 62,
        "time": 6231,
        "channel": 9
      },
      {
        "type": "note_on",
        "note": 42,
        "velocity": 59,
        "time": 6231,
        "channel": 9
      },
      {
        "type": "note_off",
        "note": 37,
        "time": 6321,
        "channel": 9
      },
      {
        "type": "note_off",
        "note": 36,
        "time": 6328,
        "channel": 9
      },
      {
        "type": "note_off",
        "note": 42,
        "time": 6328,
        "channel": 9
      },
      {
        "type": "note_on",
        "note": 42,
        "velocity": 55,
        "time": 6456,
        "channel": 9
      },
      {
        "type": "note_off",
        "note": 42,
        "time": 6553,
        "channel": 9
      },
      {
        "type": "note_on",
        "note": 38,
        "velocity": 14,
        "time": 6600,
        "channel": 9
      },
      {
        "type": "note_off",
        "note": 38,
        "time": 6697,
        "channel": 9
      },
      {
        "type": "note_on",
        "note": 36,
        "velocity": 58,
        "time": 6699,
        "channel": 9
      },
      {
        "type": "note_on",
        "note": 42,
        "velocity": 29,
        "time": 6699,
        "channel": 9
      },
      {
        "type": "note_off",
        "note": 36,
        "time": 6795,
        "channel": 9
      },
      {
        "type": "note_off",
        "note": 42,
        "time": 6795,
        "channel": 9
      },
      {
        "type": "note_on",
        "note": 37,
        "velocity": 84,
        "time": 6823,
        "channel": 9
      },
      {
        "type": "note_off",
        "note": 37,
        "time": 6869,
        "channel": 9
      },
      {
        "type": "note_on",
        "note": 37,
        "velocity": 29,
        "time": 6869,
        "channel": 9
      },
      {
        "type": "note_off",
        "note": 37,
        "time": 6920,
        "channel": 9
      },
      {
        "type": "note_on",
        "note": 22,
        "velocity": 101,
        "time": 6934,
        "channel": 9
      },
      {
        "type": "note_off",
        "note": 22,
        "time": 7031,
        "channel": 9
      },
      {
        "type": "note_on",
        "note": 38,
        "velocity": 18,
        "time": 7067,
        "channel": 9
      },
      {
        "type": "note_off",
        "note": 38,
        "time": 7163,
        "channel": 9
      },
      {
        "type": "note_on",
        "note": 36,
        "velocity": 60,
        "time": 7185,
        "channel": 9
      },
      {
        "type": "note_on",
        "note": 38,
        "velocity": 39,
        "time": 7189,
        "channel": 9
      },
      {
        "type": "note_off",
        "note": 36,
        "time": 7282,
        "channel": 9
      },
      {
        "type": "note_off",
        "note": 38,
        "time": 7286,
        "channel": 9
      },
      {
        "type": "note_on",
        "note": 38,
        "velocity": 52,
        "time": 7309,
        "channel": 9
      },
      {
        "type": "note_off",
        "note": 38,
        "time": 7406,
        "channel": 9
      },
      {
        "type": "note_on",
        "note": 38,
        "velocity": 81,
        "time": 7413,
        "channel": 9
      },
      {
        "type": "note_off",
        "note": 38,
        "time": 7510,
        "channel": 9
      },
      {
        "type": "note_on",
        "note": 38,
        "velocity": 99,
        "time": 7549,
        "channel": 9
      },
      {
        "type": "note_off",
        "note": 38,
        "time": 7646,
        "channel": 9
      },
      {
        "type": "note_on",
        "note": 36,
        "velocity": 60,
        "time": 7658,
        "channel": 9
      },
      {
        "type": "note_on",
        "note": 42,
        "velocity": 43,
        "time": 7669,
        "channel": 9
      },
      {
        "type": "note_off",
        "note": 36,
        "time": 7754,
        "channel": 9
      },
      {
        "type": "note_off",
        "note": 42,
        "time": 7767,
        "channel": 9
      },
      {
        "type": "note_on",
        "note": 38,
        "velocity": 19,
        "time": 7794,
        "channel": 9
      },
      {
        "type": "note_off",
        "note": 38,
        "time": 7891,
        "channel": 9
      },
      {
        "type": "note_on",
        "note": 26,
        "velocity": 127,
        "time": 7892,
        "channel": 9
      },
      {
        "type": "note_off",
        "note": 26,
        "time": 7990,
        "channel": 9
      },
      {
        "type": "note_on",
        "note": 44,
        "velocity": 42,
        "time": 8120,
        "channel": 9
      },
      {
        "type": "note_on",
        "note": 37,
        "velocity": 88,
        "time": 8138,
        "channel": 9
      },
      {
        "type": "note_on",
        "note": 36,
        "velocity": 63,
        "time": 8141,
        "channel": 9
      },
      {
        "type": "note_on",
        "note": 42,
        "velocity": 36,
        "time": 8158,
        "channel": 9
      },
      {
        "type": "note_off",
        "note": 44,
        "time": 8217,
        "channel": 9
      },
      {
        "type": "note_off",
        "note": 37,
        "time": 8234,
        "channel": 9
      },
      {
        "type": "note_off",
        "note": 36,
        "time": 8237,
        "channel": 9
      },
      {
        "type": "note_off",
        "note": 42,
        "time": 8255,
        "channel": 9
      },
      {
        "type": "note_on",
        "note": 38,
        "velocity": 9,
        "time": 8310,
        "channel": 9
      },
      {
        "type": "note_on",
        "note": 42,
        "velocity": 71,
        "time": 8384,
        "channel": 9
      },
      {
        "type": "note_off",
        "note": 38,
        "time": 8406,
        "channel": 9
      },
      {
        "type": "note_off",
        "note": 42,
        "time": 8482,
        "channel": 9
      },
      {
        "type": "note_on",
        "note": 38,
        "velocity": 17,
        "time": 8511,
        "channel": 9
      },
      {
        "type": "note_off",
        "note": 38,
        "time": 8608,
        "channel": 9
      },
      {
        "type": "note_on",
        "note": 42,
        "velocity": 46,
        "time": 8611,
        "channel": 9
      },
      {
        "type": "note_on",
        "note": 36,
        "velocity": 58,
        "time": 8612,
        "channel": 9
      },
      {
        "type": "note_off",
        "note": 36,
        "time": 8709,
        "channel": 9
      },
      {
        "type": "note_off",
        "note": 42,
        "time": 8709,
        "channel": 9
      },
      {
        "type": "note_on",
        "note": 42,
        "velocity": 27,
        "time": 8724,
        "channel": 9
      },
      {
        "type": "note_off",
        "note": 42,
        "time": 8821,
        "channel": 9
      },
      {
        "type": "note_on",
        "note": 26,
        "velocity": 80,
        "time": 8841,
        "channel": 9
      },
      {
        "type": "note_off",
        "note": 26,
        "time": 8938,
        "channel": 9
      },
      {
        "type": "note_on",
        "note": 38,
        "velocity": 84,
        "time": 9089,
        "channel": 9
      },
      {
        "type": "note_on",
        "note": 42,
        "velocity": 59,
        "time": 9095,
        "channel": 9
      },
      {
        "type": "note_on",
        "note": 36,
        "velocity": 61,
        "time": 9100,
        "channel": 9
      },
      {
        "type": "note_off",
        "note": 38,
        "time": 9186,
        "channel": 9
      },
      {
        "type": "note_off",
        "note": 42,
        "time": 9192,
        "channel": 9
      },
      {
        "type": "note_off",
        "note": 36,
        "time": 9197,
        "channel": 9
      },
      {
        "type": "note_on",
        "note": 42,
        "velocity": 34,
        "time": 9208,
        "channel": 9
      },
      {
        "type": "note_off",
        "note": 42,
        "time": 9306,
        "channel": 9
      },
      {
        "type": "note_on",
        "note": 42,
        "velocity": 67,
        "time": 9331,
        "channel": 9
      },
      {
        "type": "note_off",
        "note": 42,
        "time": 9429,
        "channel": 9
      },
      {
        "type": "note_on",
        "note": 38,
        "velocity": 26,
        "time": 9467,
        "channel": 9
      },
      {
        "type": "note_off",
        "note": 38,
        "time": 9564,
        "channel": 9
      },
      {
        "type": "note_on",
        "note": 36,
        "velocity": 56,
        "time": 9579,
        "channel": 9
      },
      {
        "type": "note_on",
        "note": 42,
        "velocity": 27,
        "time": 9583,
        "channel": 9
      },
      {
        "type": "note_off",
        "note": 36,
        "time": 9675,
        "channel": 9
      },
      {
        "type": "note_off",
        "note": 42,
        "time": 9680,
        "channel": 9
      },
      {
        "type": "note_on",
        "note": 22,
        "velocity": 106,
        "time": 9805,
        "channel": 9
      },
      {
        "type": "note_off",
        "note": 22,
        "time": 9902,
        "channel": 9
      },
      {
        "type": "note_on",
        "note": 37,
        "velocity": 86,
        "time": 10063,
        "channel": 9
      },
      {
        "type": "note_on",
        "note": 36,
        "velocity": 55,
        "time": 10067,
        "channel": 9
      },
      {
        "type": "note_on",
        "note": 42,
        "velocity": 46,
        "time": 10070,
        "channel": 9
      },
      {
        "type": "note_off",
        "note": 37,
        "time": 10160,
        "channel": 9
      },
      {
        "type": "note_off",
        "note": 36,
        "time": 10164,
        "channel": 9
      },
      {
        "type": "note_off",
        "note": 42,
        "time": 10168,
        "channel": 9
      },
      {
        "type": "note_on",
        "note": 22,
        "velocity": 41,
        "time": 10215,
        "channel": 9
      },
      {
        "type": "note_off",
        "note": 22,
        "time": 10313,
        "channel": 9
      },
      {
        "type": "note_on",
        "note": 42,
        "velocity": 45,
        "time": 10313,
        "channel": 9
      },
      {
        "type": "note_off",
        "note": 42,
        "time": 10410,
        "channel": 9
      },
      {
        "type": "note_on",
        "note": 38,
        "velocity": 63,
        "time": 10437,
        "channel": 9
      },
      {
        "type": "note_off",
        "note": 38,
        "time": 10534,
        "channel": 9
      },
      {
        "type": "note_on",
        "note": 42,
        "velocity": 29,
        "time": 10547,
        "channel": 9
      },
      {
        "type": "note_on",
        "note": 36,
        "velocity": 55,
        "time": 10554,
        "channel": 9
      },
      {
        "type": "note_off",
        "note": 42,
        "time": 10644,
        "channel": 9
      },
      {
        "type": "note_off",
        "note": 36,
        "time": 10651,
        "channel": 9
      },
      {
        "type": "note_on",
        "note": 38,
        "velocity": 10,
        "time": 10678,
        "channel": 9
      },
      {
        "type": "note_off",
        "note": 38,
        "time": 10774,
        "channel": 9
      },
      {
        "type": "note_on",
        "note": 42,
        "velocity": 83,
        "time": 10776,
        "channel": 9
      },
      {
        "type": "note_off",
        "note": 42,
        "time": 10873,
        "channel": 9
      },
      {
        "type": "note_on",
        "note": 38,
        "velocity": 79,
        "time": 11036,
        "channel": 9
      },
      {
        "type": "note_on",
        "note": 36,
        "velocity": 57,
        "time": 11037,
        "channel": 9
      },
      {
        "type": "note_on",
        "note": 42,
        "velocity": 67,
        "time": 11039,
        "channel": 9
      },
      {
        "type": "note_off",
        "note": 36,
        "time": 11134,
        "channel": 9
      },
      {
        "type": "note_off",
        "note": 38,
        "time": 11134,
        "channel": 9
      },
      {
        "type": "note_off",
        "note": 42,
        "time": 11137,
        "channel": 9
      },
      {
        "type": "note_on",
        "note": 42,
        "velocity": 69,
        "time": 11275,
        "channel": 9
      },
      {
        "type": "note_on",
        "note": 38,
        "velocity": 73,
        "time": 11280,
        "channel": 9
      },
      {
        "type": "note_off",
        "note": 42,
        "time": 11373,
        "channel": 9
      },
      {
        "type": "note_off",
        "note": 38,
        "time": 11377,
        "channel": 9
      },
      {
        "type": "note_on",
        "note": 38,
        "velocity": 55,
        "time": 11395,
        "channel": 9
      },
      {
        "type": "note_off",
        "note": 38,
        "time": 11493,
        "channel": 9
      },
      {
        "type": "note_on",
        "note": 22,
        "velocity": 48,
        "time": 11518,
        "channel": 9
      },
      {
        "type": "note_on",
        "note": 36,
        "velocity": 57,
        "time": 11529,
        "channel": 9
      },
      {
        "type": "note_off",
        "note": 22,
        "time": 11616,
        "channel": 9
      },
      {
        "type": "note_off",
        "note": 36,
        "time": 11625,
        "channel": 9
      },
      {
        "type": "note_on",
        "note": 38,
        "velocity": 9,
        "time": 11651,
        "channel": 9
      },
      {
        "type": "note_off",
        "note": 38,
        "time": 11748,
        "channel": 9
      },
      {
        "type": "note_on",
        "note": 42,
        "velocity": 86,
        "time": 11751,
        "channel": 9
      },
      {
        "type": "note_off",
        "note": 42,
        "time": 11849,
        "channel": 9
      },
      {
        "type": "note_on",
        "note": 38,
        "velocity": 86,
        "time": 11998,
        "channel": 9
      },
      {
        "type": "note_on",
        "note": 42,
        "velocity": 45,
        "time": 12010,
        "channel": 9
      },
      {
        "type": "note_on",
        "note": 36,
        "velocity": 56,
        "time": 12011,
        "channel": 9
      },
      {
        "type": "note_off",
        "note": 38,
        "time": 12095,
        "channel": 9
      },
      {
        "type": "note_off",
        "note": 36,
        "time": 12107,
        "channel": 9
      },
      {
        "type": "note_off",
        "note": 42,
        "time": 12107,
        "channel": 9
      },
      {
        "type": "note_on",
        "note": 42,
        "velocity": 30,
        "time": 12128,
        "channel": 9
      },
      {
        "type": "note_off",
        "note": 42,
        "time": 12226,
        "channel": 9
      },
      {
        "type": "note_on",
        "note": 22,
        "velocity": 63,
        "time": 12240,
        "channel": 9
      },
      {
        "type": "note_off",
        "note": 22,
        "time": 12337,
        "channel": 9
      },
      {
        "type": "note_on",
        "note": 38,
        "velocity": 19,
        "time": 12368,
        "channel": 9
      },
      {
        "type": "note_off",
        "note": 38,
        "time": 12465,
        "channel": 9
      },
      {
        "type": "note_on",
        "note": 42,
        "velocity": 41,
        "time": 12479,
        "channel": 9
      },
      {
        "type": "note_on",
        "note": 36,
        "velocity": 55,
        "time": 12482,
        "channel": 9
      },
      {
        "type": "note_off",
        "note": 42,
        "time": 12575,
        "channel": 9
      },
      {
        "type": "note_off",
        "note": 36,
        "time": 12579,
        "channel": 9
      },
      {
        "type": "note_on",
        "note": 38,
        "velocity": 18,
        "time": 12599,
        "channel": 9
      },
      {
        "type": "note_off",
        "note": 38,
        "time": 12694,
        "channel": 9
      },
      {
        "type": "note_on",
        "note": 38,
        "velocity": 36,
        "time": 12694,
        "channel": 9
      },
      {
        "type": "note_off",
        "note": 38,
        "time": 12696,
        "channel": 9
      },
      {
        "type": "note_on",
        "note": 26,
        "velocity": 101,
        "time": 12705,
        "channel": 9
      },
      {
        "type": "note_off",
        "note": 26,
        "time": 12802,
        "channel": 9
      },
      {
        "type": "note_on",
        "note": 44,
        "velocity": 37,
        "time": 12929,
        "channel": 9
      },
      {
        "type": "note_on",
        "note": 37,
        "velocity": 81,
        "time": 12951,
        "channel": 9
      },
      {
        "type": "note_on",
        "note": 42,
        "velocity": 57,
        "time": 12965,
        "channel": 9
      },
      {
        "type": "note_on",
        "note": 36,
        "velocity": 58,
        "time": 12966,
        "channel": 9
      },
      {
        "type": "note_off",
        "note": 44,
        "time": 13027,
        "channel": 9
      },
      {
        "type": "note_off",
        "note": 37,
        "time": 13048,
        "channel": 9
      },
      {
        "type": "note_off",
        "note": 36,
        "time": 13061,
        "channel": 9
      },
      {
        "type": "note_off",
        "note": 42,
        "time": 13061,
        "channel": 9
      },
      {
        "type": "note_on",
        "note": 38,
        "velocity": 22,
        "time": 13093,
        "channel": 9
      },
      {
        "type": "note_off",
        "note": 38,
        "time": 13190,
        "channel": 9
      },
      {
        "type": "note_on",
        "note": 42,
        "velocity": 64,
        "time": 13195,
        "channel": 9
      },
      {
        "type": "note_off",
        "note": 42,
        "time": 13293,
        "channel": 9
      },
      {
        "type": "note_on",
        "note": 38,
        "velocity": 15,
        "time": 13338,
        "channel": 9
      },
      {
        "type": "note_on",
        "note": 36,
        "velocity": 58,
        "time": 13425,
        "channel": 9
      },
      {
        "type": "note_on",
        "note": 42,
        "velocity": 26,
        "time": 13433,
        "channel": 9
      },
      {
        "type": "note_off",
        "note": 38,
        "time": 13435,
        "channel": 9
      },
      {
        "type": "note_off",
        "note": 36,
        "time": 13522,
        "channel": 9
      },
      {
        "type": "note_off",
        "note": 42,
        "time": 13530,
        "channel": 9
      },
      {
        "type": "note_on",
        "note": 38,
        "velocity": 13,
        "time": 13571,
        "channel": 9
      },
      {
        "type": "note_on",
        "note": 42,
        "velocity": 79,
        "time": 13658,
        "channel": 9
      },
      {
        "type": "note_off",
        "note": 38,
        "time": 13668,
        "channel": 9
      },
      {
        "type": "note_off",
        "note": 42,
        "time": 13754,
        "channel": 9
      },
      {
        "type": "note_on",
        "note": 38,
        "velocity": 79,
        "time": 13897,
        "channel": 9
      },
      {
        "type": "note_on",
        "note": 42,
        "velocity": 54,
        "time": 13902,
        "channel": 9
      },
      {
        "type": "note_on",
        "note": 36,
        "velocity": 58,
        "time": 13917,
        "channel": 9
      },
      {
        "type": "note_off",
        "note": 38,
        "time": 13994,
        "channel": 9
      },
      {
        "type": "note_off",
        "note": 42,
        "time": 14000,
        "channel": 9
      },
      {
        "type": "note_off",
        "note": 36,
        "time": 14014,
        "channel": 9
      },
      {
        "type": "note_on",
        "note": 38,
        "velocity": 6,
        "time": 14061,
        "channel": 9
      },
      {
        "type": "note_on",
        "note": 22,
        "velocity": 51,
        "time": 14145,
        "channel": 9
      },
      {
        "type": "note_off",
        "note": 38,
        "time": 14158,
        "channel": 9
      },
      {
        "type": "note_off",
        "note": 22,
        "time": 14242,
        "channel": 9
      },
      {
        "type": "note_on",
        "note": 38,
        "velocity": 79,
        "time": 14273,
        "channel": 9
      },
      {
        "type": "note_off",
        "note": 38,
        "time": 14370,
        "channel": 9
      },
      {
        "type": "note_on",
        "note": 36,
        "velocity": 53,
        "time": 14378,
        "channel": 9
      },
      {
        "type": "note_on",
        "note": 22,
        "velocity": 50,
        "time": 14395,
        "channel": 9
      },
      {
        "type": "note_off",
        "note": 36,
        "time": 14474,
        "channel": 9
      },
      {
        "type": "note_off",
        "note": 22,
        "time": 14493,
        "channel": 9
      },
      {
        "type": "note_on",
        "note": 38,
        "velocity": 17,
        "time": 14514,
        "channel": 9
      },
      {
        "type": "note_off",
        "note": 38,
        "time": 14611,
        "channel": 9
      },
      {
        "type": "note_on",
        "note": 42,
        "velocity": 66,
        "time": 14622,
        "channel": 9
      },
      {
        "type": "note_off",
        "note": 42,
        "time": 14720,
        "channel": 9
      },
      {
        "type": "note_on",
        "note": 38,
        "velocity": 43,
        "time": 14746,
        "channel": 9
      },
      {
        "type": "note_off",
        "note": 38,
        "time": 14843,
        "channel": 9
      },
      {
        "type": "note_on",
        "note": 36,
        "velocity": 56,
        "time": 14853,
        "channel": 9
      },
      {
        "type": "note_on",
        "note": 48,
        "velocity": 71,
        "time": 14860,
        "channel": 9
      },
      {
        "type": "note_off",
        "note": 36,
        "time": 14949,
        "channel": 9
      },
      {
        "type": "note_off",
        "note": 48,
        "time": 14956,
        "channel": 9
      },
      {
        "type": "note_on",
        "note": 48,
        "velocity": 105,
        "time": 14970,
        "channel": 9
      },
      {
        "type": "note_off",
        "note": 48,
        "time": 15068,
        "channel": 9
      },
      {
        "type": "note_on",
        "note": 43,
        "velocity": 127,
        "time": 15085,
        "channel": 9
      },
      {
        "type": "note_off",
        "note": 43,
        "time": 15182,
        "channel": 9
      },
      {
        "type": "note_on",
        "note": 36,
        "velocity": 90,
        "time": 15323,
        "channel": 9
      },
      {
        "type": "note_on",
        "note": 59,
        "velocity": 127,
        "time": 15325,
        "channel": 9
      },
      {
        "type": "note_off",
        "note": 36,
        "time": 15420,
        "channel": 9
      },
      {
        "type": "note_off",
        "note": 59,
        "time": 15422,
        "channel": 9
      },
      {
        "type": "note_on",
        "note": 38,
        "velocity": 10,
        "time": 15561,
        "channel": 9
      },
      {
        "type": "note_on",
        "note": 22,
        "velocity": 47,
        "time": 15578,
        "channel": 9
      },
      {
        "type": "note_off",
        "note": 38,
        "time": 15658,
        "channel": 9
      },
      {
        "type": "note_off",
        "note": 22,
        "time": 15674,
        "channel": 9
      },
      {
        "type": "note_on",
        "note": 37,
        "velocity": 87,
        "time": 15813,
        "channel": 9
      },
      {
        "type": "note_on",
        "note": 36,
        "velocity": 54,
        "time": 15825,
        "channel": 9
      },
      {
        "type": "note_off",
        "note": 37,
        "time": 15910,
        "channel": 9
      },
      {
        "type": "note_off",
        "note": 36,
        "time": 15922,
        "channel": 9
      },
      {
        "type": "note_on",
        "note": 38,
        "velocity": 20,
        "time": 15962,
        "channel": 9
      },
      {
        "type": "note_off",
        "note": 38,
        "time": 16058,
        "channel": 9
      },
      {
        "type": "note_on",
        "note": 42,
        "velocity": 38,
        "time": 16063,
        "channel": 9
      },
      {
        "type": "note_off",
        "note": 42,
        "time": 16160,
        "channel": 9
      },
      {
        "type": "note_on",
        "note": 38,
        "velocity": 33,
        "time": 16173,
        "channel": 9
      },
      {
        "type": "note_off",
        "note": 38,
        "time": 16270,
        "channel": 9
      },
      {
        "type": "note_on",
        "note": 22,
        "velocity": 13,
        "time": 16291,
        "channel": 9
      },
      {
        "type": "note_on",
        "note": 36,
        "velocity": 55,
        "time": 16299,
        "channel": 9
      },
      {
        "type": "note_off",
        "note": 22,
        "time": 16389,
        "channel": 9
      },
      {
        "type": "note_off",
        "note": 36,
        "time": 16395,
        "channel": 9
      },
      {
        "type": "note_on",
        "note": 37,
        "velocity": 13,
        "time": 16435,
        "channel": 9
      },
      {
        "type": "note_on",
        "note": 38,
        "velocity": 38,
        "time": 16526,
        "channel": 9
      },
      {
        "type": "note_on",
        "note": 26,
        "velocity": 107,
        "time": 16528,
        "channel": 9
      },
      {
        "type": "note_off",
        "note": 37,
        "time": 16532,
        "channel": 9
      },
      {
        "type": "note_off",
        "note": 38,
        "time": 16623,
        "channel": 9
      },
      {
        "type": "note_off",
        "note": 26,
        "time": 16626,
        "channel": 9
      },
      {
        "type": "note_on",
        "note": 44,
        "velocity": 45,
        "time": 16769,
        "channel": 9
      },
      {
        "type": "note_on",
        "note": 37,
        "velocity": 86,
        "time": 16789,
        "channel": 9
      },
      {
        "type": "note_on",
        "note": 36,
        "velocity": 58,
        "time": 16791,
        "channel": 9
      },
      {
        "type": "note_on",
        "note": 42,
        "velocity": 57,
        "time": 16794,
        "channel": 9
      },
      {
        "type": "note_off",
        "note": 44,
        "time": 16866,
        "channel": 9
      },
      {
        "type": "note_off",
        "note": 37,
        "time": 16886,
        "channel": 9
      },
      {
        "type": "note_off",
        "note": 36,
        "time": 16888,
        "channel": 9
      },
      {
        "type": "note_off",
        "note": 42,
        "time": 16892,
        "channel": 9
      },
      {
        "type": "note_on",
        "note": 22,
        "velocity": 106,
        "time": 17033,
        "channel": 9
      },
      {
        "type": "note_off",
        "note": 22,
        "time": 17131,
        "channel": 9
      },
      {
        "type": "note_on",
        "note": 38,
        "velocity": 26,
        "time": 17160,
        "channel": 9
      },
      {
        "type": "note_off",
        "note": 38,
        "time": 17198,
        "channel": 9
      },
      {
        "type": "note_on",
        "note": 38,
        "velocity": 31,
        "time": 17198,
        "channel": 9
      },
      {
        "type": "note_off",
        "note": 38,
        "time": 17226,
        "channel": 9
      },
      {
        "type": "note_on",
        "note": 38,
        "velocity": 28,
        "time": 17226,
        "channel": 9
      },
      {
        "type": "note_off",
        "note": 38,
        "time": 17247,
        "channel": 9
      },
      {
        "type": "note_on",
        "note": 38,
        "velocity": 28,
        "time": 17247,
        "channel": 9
      },
      {
        "type": "note_off",
        "note": 38,
        "time": 17256,
        "channel": 9
      },
      {
        "type": "note_on",
        "note": 36,
        "velocity": 57,
        "time": 17270,
        "channel": 9
      },
      {
        "type": "note_on",
        "note": 22,
        "velocity": 50,
        "time": 17277,
        "channel": 9
      },
      {
        "type": "note_off",
        "note": 36,
        "time": 17367,
        "channel": 9
      },
      {
        "type": "note_off",
        "note": 22,
        "time": 17374,
        "channel": 9
      },
      {
        "type": "note_on",
        "note": 38,
        "velocity": 13,
        "time": 17404,
        "channel": 9
      },
      {
        "type": "note_on",
        "note": 42,
        "velocity": 70,
        "time": 17497,
        "channel": 9
      },
      {
        "type": "note_off",
        "note": 38,
        "time": 17501,
        "channel": 9
      },
      {
        "type": "note_off",
        "note": 42,
        "time": 17594,
        "channel": 9
      },
      {
        "type": "note_on",
        "note": 38,
        "velocity": 95,
        "time": 17735,
        "channel": 9
      },
      {
        "type": "note_on",
        "note": 22,
        "velocity": 29,
        "time": 17757,
        "channel": 9
      },
      {
        "type": "note_on",
        "note": 36,
        "velocity": 58,
        "time": 17764,
        "channel": 9
      },
      {
        "type": "note_off",
        "note": 38,
        "time": 17831,
        "channel": 9
      },
      {
        "type": "note_off",
        "note": 22,
        "time": 17854,
        "channel": 9
      },
      {
        "type": "note_off",
        "note": 36,
        "time": 17860,
        "channel": 9
      },
      {
        "type": "note_on",
        "note": 42,
        "velocity": 68,
        "time": 17990,
        "channel": 9
      },
      {
        "type": "note_off",
        "note": 42,
        "time": 18087,
        "channel": 9
      },
      {
        "type": "note_on",
        "note": 38,
        "velocity": 28,
        "time": 18115,
        "channel": 9
      },
      {
        "type": "note_off",
        "note": 38,
        "time": 18212,
        "channel": 9
      },
      {
        "type": "note_on",
        "note": 42,
        "velocity": 34,
        "time": 18225,
        "channel": 9
      },
      {
        "type": "note_on",
        "note": 36,
        "velocity": 52,
        "time": 18232,
        "channel": 9
      },
      {
        "type": "note_off",
        "note": 42,
        "time": 18322,
        "channel": 9
      },
      {
        "type": "note_off",
        "note": 36,
        "time": 18329,
        "channel": 9
      },
      {
        "type": "note_on",
        "note": 38,
        "velocity": 26,
        "time": 18346,
        "channel": 9
      },
      {
        "type": "note_off",
        "note": 38,
        "time": 18443,
        "channel": 9
      },
      {
        "type": "note_on",
        "note": 46,
        "velocity": 65,
        "time": 18444,
        "channel": 9
      },
      {
        "type": "note_on",
        "note": 38,
        "velocity": 41,
        "time": 18460,
        "channel": 9
      },
      {
        "type": "note_off",
        "note": 46,
        "time": 18542,
        "channel": 9
      },
      {
        "type": "note_off",
        "note": 38,
        "time": 18557,
        "channel": 9
      },
      {
        "type": "note_on",
        "note": 44,
        "velocity": 42,
        "time": 18678,
        "channel": 9
      },
      {
        "type": "note_on",
        "note": 38,
        "velocity": 71,
        "time": 18698,
        "channel": 9
      },
      {
        "type": "note_on",
        "note": 42,
        "velocity": 58,
        "time": 18703,
        "channel": 9
      },
      {
        "type": "note_on",
        "note": 36,
        "velocity": 58,
        "time": 18707,
        "channel": 9
      },
      {
        "type": "note_off",
        "note": 44,
        "time": 18774,
        "channel": 9
      },
      {
        "type": "note_off",
        "note": 38,
        "time": 18794,
        "channel": 9
      },
      {
        "type": "note_off",
        "note": 42,
        "time": 18800,
        "channel": 9
      },
      {
        "type": "note_off",
        "note": 36,
        "time": 18804,
        "channel": 9
      },
      {
        "type": "note_on",
        "note": 42,
        "velocity": 78,
        "time": 18940,
        "channel": 9
      },
      {
        "type": "note_off",
        "note": 42,
        "time": 19037,
        "channel": 9
      },
      {
        "type": "note_on",
        "note": 38,
        "velocity": 18,
        "time": 19050,
        "channel": 9
      },
      {
        "type": "note_off",
        "note": 38,
        "time": 19091,
        "channel": 9
      },
      {
        "type": "note_on",
        "note": 38,
        "velocity": 21,
        "time": 19091,
        "channel": 9
      },
      {
        "type": "note_off",
        "note": 38,
        "time": 19147,
        "channel": 9
      },
      {
        "type": "note_on",
        "note": 36,
        "velocity": 59,
        "time": 19156,
        "channel": 9
      },
      {
        "type": "note_on",
        "note": 42,
        "velocity": 39,
        "time": 19175,
        "channel": 9
      },
      {
        "type": "note_off",
        "note": 36,
        "time": 19252,
        "channel": 9
      },
      {
        "type": "note_off",
        "note": 42,
        "time": 19272,
        "channel": 9
      },
      {
        "type": "note_on",
        "note": 38,
        "velocity": 12,
        "time": 19288,
        "channel": 9
      },
      {
        "type": "note_off",
        "note": 38,
        "time": 19340,
        "channel": 9
      },
      {
        "type": "note_on",
        "note": 38,
        "velocity": 5,
        "time": 19340,
        "channel": 9
      },
      {
        "type": "note_off",
        "note": 38,
        "time": 19385,
        "channel": 9
      },
      {
        "type": "note_on",
        "note": 42,
        "velocity": 60,
        "time": 19411,
        "channel": 9
      },
      {
        "type": "note_on",
        "note": 36,
        "velocity": 7,
        "time": 19423,
        "channel": 9
      },
      {
        "type": "note_off",
        "note": 42,
        "time": 19509,
        "channel": 9
      },
      {
        "type": "note_off",
        "note": 36,
        "time": 19519,
        "channel": 9
      },
      {
        "type": "note_on",
        "note": 38,
        "velocity": 74,
        "time": 19640,
        "channel": 9
      },
      {
        "type": "note_on",
        "note": 42,
        "velocity": 56,
        "time": 19656,
        "channel": 9
      },
      {
        "type": "note_on",
        "note": 36,
        "velocity": 64,
        "time": 19658,
        "channel": 9
      },
      {
        "type": "note_off",
        "note": 38,
        "time": 19737,
        "channel": 9
      },
      {
        "type": "note_off",
        "note": 42,
        "time": 19753,
        "channel": 9
      },
      {
        "type": "note_off",
        "note": 36,
        "time": 19755,
        "channel": 9
      },
      {
        "type": "note_on",
        "note": 38,
        "velocity": 15,
        "time": 19786,
        "channel": 9
      },
      {
        "type": "note_off",
        "note": 38,
        "time": 19883,
        "channel": 9
      },
      {
        "type": "note_on",
        "note": 42,
        "velocity": 62,
        "time": 19891,
        "channel": 9
      },
      {
        "type": "note_off",
        "note": 42,
        "time": 19988,
        "channel": 9
      },
      {
        "type": "note_on",
        "note": 38,
        "velocity": 84,
        "time": 20022,
        "channel": 9
      },
      {
        "type": "note_off",
        "note": 38,
        "time": 20119,
        "channel": 9
      },
      {
        "type": "note_on",
        "note": 42,
        "velocity": 30,
        "time": 20130,
        "channel": 9
      },
      {
        "type": "note_on",
        "note": 36,
        "velocity": 52,
        "time": 20139,
        "channel": 9
      },
      {
        "type": "note_off",
        "note": 42,
        "time": 20228,
        "channel": 9
      },
      {
        "type": "note_off",
        "note": 36,
        "time": 20235,
        "channel": 9
      },
      {
        "type": "note_on",
        "note": 38,
        "velocity": 20,
        "time": 20263,
        "channel": 9
      },
      {
        "type": "note_off",
        "note": 38,
        "time": 20360,
        "channel": 9
      },
      {
        "type": "note_on",
        "note": 46,
        "velocity": 66,
        "time": 20369,
        "channel": 9
      },
      {
        "type": "note_off",
        "note": 46,
        "time": 20466,
        "channel": 9
      },
      {
        "type": "note_on",
        "note": 44,
        "velocity": 50,
        "time": 20582,
        "channel": 9
      },
      {
        "type": "note_on",
        "note": 36,
        "velocity": 58,
        "time": 20613,
        "channel": 9
      },
      {
        "type": "note_on",
        "note": 38,
        "velocity": 77,
        "time": 20624,
        "channel": 9
      },
      {
        "type": "note_on",
        "note": 42,
        "velocity": 56,
        "time": 20625,
        "channel": 9
      },
      {
        "type": "note_off",
        "note": 44,
        "time": 20679,
        "channel": 9
      },
      {
        "type": "note_off",
        "note": 36,
        "time": 20710,
        "channel": 9
      },
      {
        "type": "note_off",
        "note": 38,
        "time": 20720,
        "channel": 9
      },
      {
        "type": "note_off",
        "note": 42,
        "time": 20723,
        "channel": 9
      },
      {
        "type": "note_on",
        "note": 38,
        "velocity": 22,
        "time": 20746,
        "channel": 9
      },
      {
        "type": "note_off",
        "note": 38,
        "time": 20843,
        "channel": 9
      },
      {
        "type": "note_on",
        "note": 42,
        "velocity": 74,
        "time": 20855,
        "channel": 9
      },
      {
        "type": "note_off",
        "note": 42,
        "time": 20952,
        "channel": 9
      },
      {
        "type": "note_on",
        "note": 38,
        "velocity": 11,
        "time": 20987,
        "channel": 9
      },
      {
        "type": "note_off",
        "note": 38,
        "time": 21084,
        "channel": 9
      },
      {
        "type": "note_on",
        "note": 42,
        "velocity": 46,
        "time": 21090,
        "channel": 9
      },
      {
        "type": "note_on",
        "note": 36,
        "velocity": 60,
        "time": 21091,
        "channel": 9
      },
      {
        "type": "note_off",
        "note": 42,
        "time": 21187,
        "channel": 9
      },
      {
        "type": "note_off",
        "note": 36,
        "time": 21188,
        "channel": 9
      },
      {
        "type": "note_on",
        "note": 42,
        "velocity": 85,
        "time": 21333,
        "channel": 9
      },
      {
        "type": "note_off",
        "note": 42,
        "time": 21430,
        "channel": 9
      },
      {
        "type": "note_on",
        "note": 37,
        "velocity": 75,
        "time": 21579,
        "channel": 9
      },
      {
        "type": "note_on",
        "note": 42,
        "velocity": 55,
        "time": 21584,
        "channel": 9
      },
      {
        "type": "note_on",
        "note": 36,
        "velocity": 58,
        "time": 21598,
        "channel": 9
      },
      {
        "type": "note_off",
        "note": 37,
        "time": 21675,
        "channel": 9
      },
      {
        "type": "note_off",
        "note": 42,
        "time": 21682,
        "channel": 9
      },
      {
        "type": "note_off",
        "note": 36,
        "time": 21695,
        "channel": 9
      },
      {
        "type": "note_on",
        "note": 38,
        "velocity": 24,
        "time": 21721,
        "channel": 9
      },
      {
        "type": "note_off",
        "note": 38,
        "time": 21818,
        "channel": 9
      },
      {
        "type": "note_on",
        "note": 42,
        "velocity": 50,
        "time": 21830,
        "channel": 9
      },
      {
        "type": "note_off",
        "note": 42,
        "time": 21928,
        "channel": 9
      },
      {
        "type": "note_on",
        "note": 38,
        "velocity": 9,
        "time": 21966,
        "channel": 9
      },
      {
        "type": "note_off",
        "note": 38,
        "time": 22063,
        "channel": 9
      },
      {
        "type": "note_on",
        "note": 42,
        "velocity": 61,
        "time": 22066,
        "channel": 9
      },
      {
        "type": "note_on",
        "note": 36,
        "velocity": 58,
        "time": 22078,
        "channel": 9
      },
      {
        "type": "note_off",
        "note": 42,
        "time": 22163,
        "channel": 9
      },
      {
        "type": "note_off",
        "note": 36,
        "time": 22174,
        "channel": 9
      },
      {
        "type": "note_on",
        "note": 38,
        "velocity": 76,
        "time": 22203,
        "channel": 9
      },
      {
        "type": "note_off",
        "note": 38,
        "time": 22300,
        "channel": 9
      },
      {
        "type": "note_on",
        "note": 38,
        "velocity": 96,
        "time": 22309,
        "channel": 9
      },
      {
        "type": "note_off",
        "note": 38,
        "time": 22406,
        "channel": 9
      },
      {
        "type": "note_on",
        "note": 38,
        "velocity": 76,
        "time": 22547,
        "channel": 9
      },
      {
        "type": "note_on",
        "note": 36,
        "velocity": 59,
        "time": 22559,
        "channel": 9
      },
      {
        "type": "note_off",
        "note": 38,
        "time": 22644,
        "channel": 9
      },
      {
        "type": "note_on",
        "note": 38,
        "velocity": 20,
        "time": 22654,
        "channel": 9
      },
      {
        "type": "note_off",
        "note": 36,
        "time": 22656,
        "channel": 9
      },
      {
        "type": "note_off",
        "note": 38,
        "time": 22750,
        "channel": 9
      },
      {
        "type": "note_on",
        "note": 38,
        "velocity": 84,
        "time": 22789,
        "channel": 9
      },
      {
        "type": "note_off",
        "note": 38,
        "time": 22886,
        "channel": 9
      },
      {
        "type": "note_on",
        "note": 38,
        "velocity": 89,
        "time": 22917,
        "channel": 9
      },
      {
        "type": "note_off",
        "note": 38,
        "time": 23013,
        "channel": 9
      },
      {
        "type": "note_on",
        "note": 55,
        "velocity": 85,
        "time": 23033,
        "channel": 9
      },
      {
        "type": "note_on",
        "note": 36,
        "velocity": 75,
        "time": 23040,
        "channel": 9
      },
      {
        "type": "note_off",
        "note": 55,
        "time": 23130,
        "channel": 9
      },
      {
        "type": "note_off",
        "note": 36,
        "time": 23137,
        "channel": 9
      },
      {
        "type": "note_on",
        "note": 38,
        "velocity": 19,
        "time": 23161,
        "channel": 9
      },
      {
        "type": "note_off",
        "note": 38,
        "time": 23257,
        "channel": 9
      },
      {
        "type": "note_on",
        "note": 26,
        "velocity": 114,
        "time": 23276,
        "channel": 9
      },
      {
        "type": "note_off",
        "note": 26,
        "time": 23372,
        "channel": 9
      },
      {
        "type": "note_on",
        "note": 44,
        "velocity": 45,
        "time": 23503,
        "channel": 9
      },
      {
        "type": "note_on",
        "note": 40,
        "velocity": 111,
        "time": 23524,
        "channel": 9
      },
      {
        "type": "note_on",
        "note": 36,
        "velocity": 56,
        "time": 23535,
        "channel": 9
      },
      {
        "type": "note_on",
        "note": 42,
        "velocity": 50,
        "time": 23535,
        "channel": 9
      },
      {
        "type": "note_off",
        "note": 44,
        "time": 23600,
        "channel": 9
      },
      {
        "type": "note_off",
        "note": 40,
        "time": 23621,
        "channel": 9
      },
      {
        "type": "note_off",
        "note": 36,
        "time": 23632,
        "channel": 9
      },
      {
        "type": "note_off",
        "note": 42,
        "time": 23632,
        "channel": 9
      },
      {
        "type": "note_on",
        "note": 38,
        "velocity": 11,
        "time": 23658,
        "channel": 9
      },
      {
        "type": "note_off",
        "note": 38,
        "time": 23756,
        "channel": 9
      },
      {
        "type": "note_on",
        "note": 22,
        "velocity": 93,
        "time": 23757,
        "channel": 9
      },
      {
        "type": "note_off",
        "note": 22,
        "time": 23853,
        "channel": 9
      },
      {
        "type": "note_on",
        "note": 38,
        "velocity": 11,
        "time": 23872,
        "channel": 9
      },
      {
        "type": "note_off",
        "note": 38,
        "time": 23970,
        "channel": 9
      },
      {
        "type": "note_on",
        "note": 42,
        "velocity": 36,
        "time": 23987,
        "channel": 9
      },
      {
        "type": "note_on",
        "note": 36,
        "velocity": 58,
        "time": 23996,
        "channel": 9
      },
      {
        "type": "note_off",
        "note": 42,
        "time": 24085,
        "channel": 9
      },
      {
        "type": "note_off",
        "note": 36,
        "time": 24093,
        "channel": 9
      },
      {
        "type": "note_on",
        "note": 38,
        "velocity": 23,
        "time": 24108,
        "channel": 9
      },
      {
        "type": "note_off",
        "note": 38,
        "time": 24205,
        "channel": 9
      },
      {
        "type": "note_on",
        "note": 26,
        "velocity": 107,
        "time": 24227,
        "channel": 9
      },
      {
        "type": "note_on",
        "note": 38,
        "velocity": 36,
        "time": 24235,
        "channel": 9
      },
      {
        "type": "note_off",
        "note": 26,
        "time": 24325,
        "channel": 9
      },
      {
        "type": "note_off",
        "note": 38,
        "time": 24332,
        "channel": 9
      },
      {
        "type": "note_on",
        "note": 44,
        "velocity": 25,
        "time": 24445,
        "channel": 9
      },
      {
        "type": "note_on",
        "note": 38,
        "velocity": 77,
        "time": 24482,
        "channel": 9
      },
      {
        "type": "note_on",
        "note": 36,
        "velocity": 60,
        "time": 24484,
        "channel": 9
      },
      {
        "type": "note_on",
        "note": 42,
        "velocity": 56,
        "time": 24485,
        "channel": 9
      },
      {
        "type": "note_off",
        "note": 44,
        "time": 24542,
        "channel": 9
      },
      {
        "type": "note_off",
        "note": 38,
        "time": 24579,
        "channel": 9
      },
      {
        "type": "note_off",
        "note": 36,
        "time": 24581,
        "channel": 9
      },
      {
        "type": "note_off",
        "note": 42,
        "time": 24581,
        "channel": 9
      },
      {
        "type": "note_on",
        "note": 42,
        "velocity": 70,
        "time": 24718,
        "channel": 9
      },
      {
        "type": "note_off",
        "note": 42,
        "time": 24815,
        "channel": 9
      },
      {
        "type": "note_on",
        "note": 38,
        "velocity": 13,
        "time": 24854,
        "channel": 9
      },
      {
        "type": "note_on",
        "note": 36,
        "velocity": 57,
        "time": 24939,
        "channel": 9
      },
      {
        "type": "note_off",
        "note": 38,
        "time": 24951,
        "channel": 9
      },
      {
        "type": "note_on",
        "note": 42,
        "velocity": 29,
        "time": 24958,
        "channel": 9
      },
      {
        "type": "note_off",
        "note": 36,
        "time": 25035,
        "channel": 9
      },
      {
        "type": "note_off",
        "note": 42,
        "time": 25055,
        "channel": 9
      },
      {
        "type": "note_on",
        "note": 42,
        "velocity": 28,
        "time": 25066,
        "channel": 9
      },
      {
        "type": "note_off",
        "note": 42,
        "time": 25163,
        "channel": 9
      },
      {
        "type": "note_on",
        "note": 38,
        "velocity": 10,
        "time": 25167,
        "channel": 9
      },
      {
        "type": "note_on",
        "note": 26,
        "velocity": 85,
        "time": 25174,
        "channel": 9
      },
      {
        "type": "note_off",
        "note": 38,
        "time": 25264,
        "channel": 9
      },
      {
        "type": "note_off",
        "note": 26,
        "time": 25270,
        "channel": 9
      },
      {
        "type": "note_on",
        "note": 44,
        "velocity": 25,
        "time": 25394,
        "channel": 9
      },
      {
        "type": "note_on",
        "note": 37,
        "velocity": 77,
        "time": 25419,
        "channel": 9
      },
      {
        "type": "note_on",
        "note": 42,
        "velocity": 64,
        "time": 25425,
        "channel": 9
      },
      {
        "type": "note_on",
        "note": 36,
        "velocity": 61,
        "time": 25431,
        "channel": 9
      },
      {
        "type": "note_off",
        "note": 44,
        "time": 25490,
        "channel": 9
      },
      {
        "type": "note_off",
        "note": 37,
        "time": 25515,
        "channel": 9
      },
      {
        "type": "note_off",
        "note": 42,
        "time": 25522,
        "channel": 9
      },
      {
        "type": "note_off",
        "note": 36,
        "time": 25529,
        "channel": 9
      },
      {
        "type": "note_on",
        "note": 38,
        "velocity": 21,
        "time": 25568,
        "channel": 9
      },
      {
        "type": "note_on",
        "note": 42,
        "velocity": 40,
        "time": 25651,
        "channel": 9
      },
      {
        "type": "note_off",
        "note": 38,
        "time": 25665,
        "channel": 9
      },
      {
        "type": "note_off",
        "note": 42,
        "time": 25748,
        "channel": 9
      },
      {
        "type": "note_on",
        "note": 38,
        "velocity": 84,
        "time": 25781,
        "channel": 9
      },
      {
        "type": "note_off",
        "note": 38,
        "time": 25878,
        "channel": 9
      },
      {
        "type": "note_on",
        "note": 42,
        "velocity": 21,
        "time": 25898,
        "channel": 9
      },
      {
        "type": "note_on",
        "note": 36,
        "velocity": 54,
        "time": 25902,
        "channel": 9
      },
      {
        "type": "note_off",
        "note": 42,
        "time": 25995,
        "channel": 9
      },
      {
        "type": "note_off",
        "note": 36,
        "time": 25999,
        "channel": 9
      },
      {
        "type": "note_on",
        "note": 38,
        "velocity": 20,
        "time": 26029,
        "channel": 9
      },
      {
        "type": "note_on",
        "note": 22,
        "velocity": 106,
        "time": 26110,
        "channel": 9
      },
      {
        "type": "note_off",
        "note": 38,
        "time": 26115,
        "channel": 9
      },
      {
        "type": "note_on",
        "note": 38,
        "velocity": 43,
        "time": 26115,
        "channel": 9
      },
      {
        "type": "note_off",
        "note": 38,
        "time": 26126,
        "channel": 9
      },
      {
        "type": "note_off",
        "note": 22,
        "time": 26206,
        "channel": 9
      },
      {
        "type": "note_on",
        "note": 44,
        "velocity": 22,
        "time": 26338,
        "channel": 9
      },
      {
        "type": "note_on",
        "note": 40,
        "velocity": 102,
        "time": 26371,
        "channel": 9
      },
      {
        "type": "note_on",
        "note": 36,
        "velocity": 57,
        "time": 26372,
        "channel": 9
      },
      {
        "type": "note_on",
        "note": 42,
        "velocity": 70,
        "time": 26374,
        "channel": 9
      },
      {
        "type": "note_off",
        "note": 44,
        "time": 26435,
        "channel": 9
      },
      {
        "type": "note_off",
        "note": 36,
        "time": 26467,
        "channel": 9
      },
      {
        "type": "note_off",
        "note": 40,
        "time": 26467,
        "channel": 9
      },
      {
        "type": "note_off",
        "note": 42,
        "time": 26471,
        "channel": 9
      },
      {
        "type": "note_on",
        "note": 38,
        "velocity": 22,
        "time": 26494,
        "channel": 9
      },
      {
        "type": "note_off",
        "note": 38,
        "time": 26590,
        "channel": 9
      },
      {
        "type": "note_on",
        "note": 22,
        "velocity": 87,
        "time": 26606,
        "channel": 9
      },
      {
        "type": "note_off",
        "note": 22,
        "time": 26704,
        "channel": 9
      },
      {
        "type": "note_on",
        "note": 38,
        "velocity": 26,
        "time": 26736,
        "channel": 9
      },
      {
        "type": "note_off",
        "note": 38,
        "time": 26770,
        "channel": 9
      },
      {
        "type": "note_on",
        "note": 38,
        "velocity": 24,
        "time": 26770,
        "channel": 9
      },
      {
        "type": "note_off",
        "note": 38,
        "time": 26792,
        "channel": 9
      },
      {
        "type": "note_on",
        "note": 38,
        "velocity": 24,
        "time": 26792,
        "channel": 9
      },
      {
        "type": "note_off",
        "note": 38,
        "time": 26832,
        "channel": 9
      },
      {
        "type": "note_on",
        "note": 36,
        "velocity": 54,
        "time": 26835,
        "channel": 9
      },
      {
        "type": "note_on",
        "note": 22,
        "velocity": 57,
        "time": 26844,
        "channel": 9
      },
      {
        "type": "note_off",
        "note": 36,
        "time": 26932,
        "channel": 9
      },
      {
        "type": "note_off",
        "note": 22,
        "time": 26942,
        "channel": 9
      },
      {
        "type": "note_on",
        "note": 38,
        "velocity": 15,
        "time": 26975,
        "channel": 9
      },
      {
        "type": "note_off",
        "note": 38,
        "time": 27072,
        "channel": 9
      },
      {
        "type": "note_on",
        "note": 22,
        "velocity": 97,
        "time": 27074,
        "channel": 9
      },
      {
        "type": "note_off",
        "note": 22,
        "time": 27171,
        "channel": 9
      },
      {
        "type": "note_on",
        "note": 38,
        "velocity": 71,
        "time": 27321,
        "channel": 9
      },
      {
        "type": "note_on",
        "note": 42,
        "velocity": 61,
        "time": 27327,
        "channel": 9
      },
      {
        "type": "note_on",
        "note": 36,
        "velocity": 62,
        "time": 27330,
        "channel": 9
      },
      {
        "type": "note_off",
        "note": 38,
        "time": 27418,
        "channel": 9
      },
      {
        "type": "note_off",
        "note": 42,
        "time": 27425,
        "channel": 9
      },
      {
        "type": "note_off",
        "note": 36,
        "time": 27427,
        "channel": 9
      },
      {
        "type": "note_on",
        "note": 38,
        "velocity": 26,
        "time": 27458,
        "channel": 9
      },
      {
        "type": "note_on",
        "note": 42,
        "velocity": 63,
        "time": 27552,
        "channel": 9
      },
      {
        "type": "note_off",
        "note": 38,
        "time": 27555,
        "channel": 9
      },
      {
        "type": "note_off",
        "note": 42,
        "time": 27650,
        "channel": 9
      },
      {
        "type": "note_on",
        "note": 38,
        "velocity": 80,
        "time": 27689,
        "channel": 9
      },
      {
        "type": "note_off",
        "note": 38,
        "time": 27786,
        "channel": 9
      },
      {
        "type": "note_on",
        "note": 42,
        "velocity": 26,
        "time": 27802,
        "channel": 9
      },
      {
        "type": "note_on",
        "note": 36,
        "velocity": 53,
        "time": 27820,
        "channel": 9
      },
      {
        "type": "note_off",
        "note": 42,
        "time": 27899,
        "channel": 9
      },
      {
        "type": "note_on",
        "note": 38,
        "velocity": 25,
        "time": 27915,
        "channel": 9
      },
      {
        "type": "note_off",
        "note": 36,
        "time": 27917,
        "channel": 9
      },
      {
        "type": "note_off",
        "note": 38,
        "time": 28012,
        "channel": 9
      },
      {
        "type": "note_on",
        "note": 38,
        "velocity": 44,
        "time": 28021,
        "channel": 9
      },
      {
        "type": "note_on",
        "note": 26,
        "velocity": 96,
        "time": 28024,
        "channel": 9
      },
      {
        "type": "note_off",
        "note": 38,
        "time": 28118,
        "channel": 9
      },
      {
        "type": "note_off",
        "note": 26,
        "time": 28121,
        "channel": 9
      },
      {
        "type": "note_on",
        "note": 44,
        "velocity": 50,
        "time": 28258,
        "channel": 9
      },
      {
        "type": "note_on",
        "note": 40,
        "velocity": 100,
        "time": 28278,
        "channel": 9
      },
      {
        "type": "note_on",
        "note": 42,
        "velocity": 61,
        "time": 28288,
        "channel": 9
      },
      {
        "type": "note_on",
        "note": 36,
        "velocity": 58,
        "time": 28300,
        "channel": 9
      },
      {
        "type": "note_off",
        "note": 44,
        "time": 28356,
        "channel": 9
      },
      {
        "type": "note_off",
        "note": 40,
        "time": 28375,
        "channel": 9
      },
      {
        "type": "note_off",
        "note": 42,
        "time": 28386,
        "channel": 9
      },
      {
        "type": "note_off",
        "note": 36,
        "time": 28397,
        "channel": 9
      },
      {
        "type": "note_on",
        "note": 38,
        "velocity": 22,
        "time": 28422,
        "channel": 9
      },
      {
        "type": "note_off",
        "note": 38,
        "time": 28519,
        "channel": 9
      },
      {
        "type": "note_on",
        "note": 42,
        "velocity": 69,
        "time": 28521,
        "channel": 9
      },
      {
        "type": "note_off",
        "note": 42,
        "time": 28619,
        "channel": 9
      },
      {
        "type": "note_on",
        "note": 38,
        "velocity": 26,
        "time": 28648,
        "channel": 9
      },
      {
        "type": "note_off",
        "note": 38,
        "time": 28745,
        "channel": 9
      },
      {
        "type": "note_on",
        "note": 36,
        "velocity": 53,
        "time": 28758,
        "channel": 9
      },
      {
        "type": "note_on",
        "note": 42,
        "velocity": 30,
        "time": 28761,
        "channel": 9
      },
      {
        "type": "note_off",
        "note": 36,
        "time": 28855,
        "channel": 9
      },
      {
        "type": "note_off",
        "note": 42,
        "time": 28858,
        "channel": 9
      },
      {
        "type": "note_on",
        "note": 38,
        "velocity": 16,
        "time": 28877,
        "channel": 9
      },
      {
        "type": "note_off",
        "note": 38,
        "time": 28974,
        "channel": 9
      },
      {
        "type": "note_on",
        "note": 38,
        "velocity": 40,
        "time": 28989,
        "channel": 9
      },
      {
        "type": "note_on",
        "note": 46,
        "velocity": 81,
        "time": 28994,
        "channel": 9
      },
      {
        "type": "note_off",
        "note": 38,
        "time": 29085,
        "channel": 9
      },
      {
        "type": "note_off",
        "note": 46,
        "time": 29090,
        "channel": 9
      },
      {
        "type": "note_on",
        "note": 44,
        "velocity": 60,
        "time": 29221,
        "channel": 9
      },
      {
        "type": "note_on",
        "note": 38,
        "velocity": 77,
        "time": 29252,
        "channel": 9
      },
      {
        "type": "note_on",
        "note": 42,
        "velocity": 61,
        "time": 29252,
        "channel": 9
      },
      {
        "type": "note_on",
        "note": 36,
        "velocity": 58,
        "time": 29263,
        "channel": 9
      },
      {
        "type": "note_off",
        "note": 44,
        "time": 29319,
        "channel": 9
      },
      {
        "type": "note_off",
        "note": 38,
        "time": 29349,
        "channel": 9
      },
      {
        "type": "note_off",
        "note": 42,
        "time": 29349,
        "channel": 9
      },
      {
        "type": "note_off",
        "note": 36,
        "time": 29360,
        "channel": 9
      },
      {
        "type": "note_on",
        "note": 38,
        "velocity": 21,
        "time": 29379,
        "channel": 9
      },
      {
        "type": "note_off",
        "note": 38,
        "time": 29476,
        "channel": 9
      },
      {
        "type": "note_on",
        "note": 42,
        "velocity": 57,
        "time": 29486,
        "channel": 9
      },
      {
        "type": "note_off",
        "note": 42,
        "time": 29584,
        "channel": 9
      },
      {
        "type": "note_on",
        "note": 38,
        "velocity": 51,
        "time": 29610,
        "channel": 9
      },
      {
        "type": "note_off",
        "note": 38,
        "time": 29707,
        "channel": 9
      },
      {
        "type": "note_on",
        "note": 42,
        "velocity": 31,
        "time": 29717,
        "channel": 9
      },
      {
        "type": "note_on",
        "note": 36,
        "velocity": 55,
        "time": 29728,
        "channel": 9
      },
      {
        "type": "note_off",
        "note": 42,
        "time": 29814,
        "channel": 9
      },
      {
        "type": "note_off",
        "note": 36,
        "time": 29826,
        "channel": 9
      },
      {
        "type": "note_on",
        "note": 38,
        "velocity": 23,
        "time": 29847,
        "channel": 9
      },
      {
        "type": "note_off",
        "note": 38,
        "time": 29939,
        "channel": 9
      },
      {
        "type": "note_on",
        "note": 38,
        "velocity": 49,
        "time": 29939,
        "channel": 9
      },
      {
        "type": "note_on",
        "note": 46,
        "velocity": 110,
        "time": 29940,
        "channel": 9
      },
      {
        "type": "note_off",
        "note": 38,
        "time": 29944,
        "channel": 9
      },
      {
        "type": "note_off",
        "note": 46,
        "time": 30038,
        "channel": 9
      },
      {
        "type": "note_on",
        "note": 44,
        "velocity": 35,
        "time": 30177,
        "channel": 9
      },
      {
        "type": "note_on",
        "note": 40,
        "velocity": 92,
        "time": 30196,
        "channel": 9
      },
      {
        "type": "note_on",
        "note": 42,
        "velocity": 84,
        "time": 30203,
        "channel": 9
      },
      {
        "type": "note_on",
        "note": 36,
        "velocity": 58,
        "time": 30214,
        "channel": 9
      },
      {
        "type": "note_off",
        "note": 44,
        "time": 30275,
        "channel": 9
      },
      {
        "type": "note_off",
        "note": 40,
        "time": 30293,
        "channel": 9
      },
      {
        "type": "note_off",
        "note": 42,
        "time": 30300,
        "channel": 9
      },
      {
        "type": "note_off",
        "note": 36,
        "time": 30310,
        "channel": 9
      },
      {
        "type": "note_on",
        "note": 38,
        "velocity": 32,
        "time": 30330,
        "channel": 9
      },
      {
        "type": "note_off",
        "note": 38,
        "time": 30427,
        "channel": 9
      },
      {
        "type": "note_on",
        "note": 42,
        "velocity": 81,
        "time": 30434,
        "channel": 9
      },
      {
        "type": "note_off",
        "note": 42,
        "time": 30531,
        "channel": 9
      },
      {
        "type": "note_on",
        "note": 38,
        "velocity": 32,
        "time": 30552,
        "channel": 9
      },
      {
        "type": "note_off",
        "note": 38,
        "time": 30593,
        "channel": 9
      },
      {
        "type": "note_on",
        "note": 38,
        "velocity": 33,
        "time": 30593,
        "channel": 9
      },
      {
        "type": "note_off",
        "note": 38,
        "time": 30617,
        "channel": 9
      },
      {
        "type": "note_on",
        "note": 38,
        "velocity": 34,
        "time": 30617,
        "channel": 9
      },
      {
        "type": "note_off",
        "note": 38,
        "time": 30648,
        "channel": 9
      },
      {
        "type": "note_on",
        "note": 36,
        "velocity": 52,
        "time": 30670,
        "channel": 9
      },
      {
        "type": "note_on",
        "note": 42,
        "velocity": 47,
        "time": 30678,
        "channel": 9
      },
      {
        "type": "note_off",
        "note": 36,
        "time": 30767,
        "channel": 9
      },
      {
        "type": "note_off",
        "note": 42,
        "time": 30775,
        "channel": 9
      },
      {
        "type": "note_on",
        "note": 38,
        "velocity": 17,
        "time": 30814,
        "channel": 9
      },
      {
        "type": "note_on",
        "note": 46,
        "velocity": 82,
        "time": 30908,
        "channel": 9
      },
      {
        "type": "note_off",
        "note": 38,
        "time": 30911,
        "channel": 9
      },
      {
        "type": "note_off",
        "note": 46,
        "time": 31005,
        "channel": 9
      },
      {
        "type": "note_on",
        "note": 44,
        "velocity": 52,
        "time": 31130,
        "channel": 9
      },
      {
        "type": "note_on",
        "note": 37,
        "velocity": 76,
        "time": 31164,
        "channel": 9
      },
      {
        "type": "note_on",
        "note": 36,
        "velocity": 57,
        "time": 31165,
        "channel": 9
      },
      {
        "type": "note_on",
        "note": 42,
        "velocity": 69,
        "time": 31166,
        "channel": 9
      },
      {
        "type": "note_off",
        "note": 44,
        "time": 31227,
        "channel": 9
      },
      {
        "type": "note_off",
        "note": 36,
        "time": 31261,
        "channel": 9
      },
      {
        "type": "note_off",
        "note": 37,
        "time": 31261,
        "channel": 9
      },
      {
        "type": "note_off",
        "note": 42,
        "time": 31263,
        "channel": 9
      },
      {
        "type": "note_on",
        "note": 38,
        "velocity": 24,
        "time": 31301,
        "channel": 9
      },
      {
        "type": "note_off",
        "note": 38,
        "time": 31398,
        "channel": 9
      },
      {
        "type": "note_on",
        "note": 42,
        "velocity": 49,
        "time": 31404,
        "channel": 9
      },
      {
        "type": "note_off",
        "note": 42,
        "time": 31502,
        "channel": 9
      },
      {
        "type": "note_on",
        "note": 38,
        "velocity": 58,
        "time": 31528,
        "channel": 9
      },
      {
        "type": "note_off",
        "note": 38,
        "time": 31624,
        "channel": 9
      },
      {
        "type": "note_on",
        "note": 42,
        "velocity": 40,
        "time": 31637,
        "channel": 9
      },
      {
        "type": "note_on",
        "note": 36,
        "velocity": 51,
        "time": 31639,
        "channel": 9
      },
      {
        "type": "note_off",
        "note": 36,
        "time": 31735,
        "channel": 9
      },
      {
        "type": "note_off",
        "note": 42,
        "time": 31735,
        "channel": 9
      },
      {
        "type": "note_on",
        "note": 38,
        "velocity": 26,
        "time": 31773,
        "channel": 9
      },
      {
        "type": "note_off",
        "note": 38,
        "time": 31866,
        "channel": 9
      },
      {
        "type": "note_on",
        "note": 38,
        "velocity": 56,
        "time": 31866,
        "channel": 9
      },
      {
        "type": "note_on",
        "note": 46,
        "velocity": 93,
        "time": 31866,
        "channel": 9
      },
      {
        "type": "note_off",
        "note": 38,
        "time": 31870,
        "channel": 9
      },
      {
        "type": "note_off",
        "note": 46,
        "time": 31962,
        "channel": 9
      },
      {
        "type": "note_on",
        "note": 44,
        "velocity": 55,
        "time": 32100,
        "channel": 9
      },
      {
        "type": "note_on",
        "note": 37,
        "velocity": 84,
        "time": 32121,
        "channel": 9
      },
      {
        "type": "note_on",
        "note": 42,
        "velocity": 56,
        "time": 32136,
        "channel": 9
      },
      {
        "type": "note_on",
        "note": 36,
        "velocity": 58,
        "time": 32141,
        "channel": 9
      },
      {
        "type": "note_off",
        "note": 44,
        "time": 32197,
        "channel": 9
      },
      {
        "type": "note_off",
        "note": 37,
        "time": 32218,
        "channel": 9
      },
      {
        "type": "note_off",
        "note": 42,
        "time": 32233,
        "channel": 9
      },
      {
        "type": "note_off",
        "note": 36,
        "time": 32238,
        "channel": 9
      },
      {
        "type": "note_on",
        "note": 38,
        "velocity": 25,
        "time": 32266,
        "channel": 9
      },
      {
        "type": "note_off",
        "note": 38,
        "time": 32363,
        "channel": 9
      },
      {
        "type": "note_on",
        "note": 42,
        "velocity": 49,
        "time": 32371,
        "channel": 9
      },
      {
        "type": "note_off",
        "note": 42,
        "time": 32468,
        "channel": 9
      },
      {
        "type": "note_on",
        "note": 38,
        "velocity": 19,
        "time": 32471,
        "channel": 9
      },
      {
        "type": "note_off",
        "note": 38,
        "time": 32568,
        "channel": 9
      },
      {
        "type": "note_on",
        "note": 36,
        "velocity": 54,
        "time": 32573,
        "channel": 9
      },
      {
        "type": "note_on",
        "note": 42,
        "velocity": 49,
        "time": 32591,
        "channel": 9
      },
      {
        "type": "note_off",
        "note": 36,
        "time": 32670,
        "channel": 9
      },
      {
        "type": "note_off",
        "note": 42,
        "time": 32689,
        "channel": 9
      },
      {
        "type": "note_on",
        "note": 38,
        "velocity": 16,
        "time": 32710,
        "channel": 9
      },
      {
        "type": "note_off",
        "note": 38,
        "time": 32806,
        "channel": 9
      },
      {
        "type": "note_on",
        "note": 38,
        "velocity": 33,
        "time": 32832,
        "channel": 9
      },
      {
        "type": "note_on",
        "note": 46,
        "velocity": 73,
        "time": 32834,
        "channel": 9
      },
      {
        "type": "note_off",
        "note": 38,
        "time": 32928,
        "channel": 9
      },
      {
        "type": "note_off",
        "note": 46,
        "time": 32931,
        "channel": 9
      },
      {
        "type": "note_on",
        "note": 44,
        "velocity": 65,
        "time": 33059,
        "channel": 9
      },
      {
        "type": "note_on",
        "note": 38,
        "velocity": 73,
        "time": 33070,
        "channel": 9
      },
      {
        "type": "note_on",
        "note": 36,
        "velocity": 57,
        "time": 33085,
        "channel": 9
      },
      {
        "type": "note_on",
        "note": 42,
        "velocity": 70,
        "time": 33097,
        "channel": 9
      },
      {
        "type": "note_off",
        "note": 44,
        "time": 33157,
        "channel": 9
      },
      {
        "type": "note_off",
        "note": 38,
        "time": 33167,
        "channel": 9
      },
      {
        "type": "note_off",
        "note": 36,
        "time": 33182,
        "channel": 9
      },
      {
        "type": "note_off",
        "note": 42,
        "time": 33194,
        "channel": 9
      },
      {
        "type": "note_on",
        "note": 38,
        "velocity": 20,
        "time": 33219,
        "channel": 9
      },
      {
        "type": "note_off",
        "note": 38,
        "time": 33315,
        "channel": 9
      },
      {
        "type": "note_on",
        "note": 42,
        "velocity": 42,
        "time": 33330,
        "channel": 9
      },
      {
        "type": "note_off",
        "note": 42,
        "time": 33427,
        "channel": 9
      },
      {
        "type": "note_on",
        "note": 38,
        "velocity": 31,
        "time": 33447,
        "channel": 9
      },
      {
        "type": "note_off",
        "note": 38,
        "time": 33544,
        "channel": 9
      },
      {
        "type": "note_on",
        "note": 36,
        "velocity": 52,
        "time": 33545,
        "channel": 9
      },
      {
        "type": "note_on",
        "note": 42,
        "velocity": 41,
        "time": 33574,
        "channel": 9
      },
      {
        "type": "note_off",
        "note": 36,
        "time": 33642,
        "channel": 9
      },
      {
        "type": "note_off",
        "note": 42,
        "time": 33670,
        "channel": 9
      },
      {
        "type": "note_on",
        "note": 38,
        "velocity": 15,
        "time": 33695,
        "channel": 9
      },
      {
        "type": "note_off",
        "note": 38,
        "time": 33784,
        "channel": 9
      },
      {
        "type": "note_on",
        "note": 38,
        "velocity": 41,
        "time": 33784,
        "channel": 9
      },
      {
        "type": "note_off",
        "note": 38,
        "time": 33791,
        "channel": 9
      },
      {
        "type": "note_on",
        "note": 42,
        "velocity": 69,
        "time": 33796,
        "channel": 9
      },
      {
        "type": "note_off",
        "note": 42,
        "time": 33893,
        "channel": 9
      },
      {
        "type": "note_on",
        "note": 44,
        "velocity": 72,
        "time": 34005,
        "channel": 9
      },
      {
        "type": "note_on",
        "note": 38,
        "velocity": 71,
        "time": 34036,
        "channel": 9
      },
      {
        "type": "note_on",
        "note": 42,
        "velocity": 51,
        "time": 34044,
        "channel": 9
      },
      {
        "type": "note_on",
        "note": 36,
        "velocity": 52,
        "time": 34047,
        "channel": 9
      },
      {
        "type": "note_off",
        "note": 44,
        "time": 34101,
        "channel": 9
      },
      {
        "type": "note_off",
        "note": 38,
        "time": 34133,
        "channel": 9
      },
      {
        "type": "note_off",
        "note": 42,
        "time": 34141,
        "channel": 9
      },
      {
        "type": "note_off",
        "note": 36,
        "time": 34143,
        "channel": 9
      },
      {
        "type": "note_on",
        "note": 38,
        "velocity": 21,
        "time": 34167,
        "channel": 9
      },
      {
        "type": "note_off",
        "note": 38,
        "time": 34265,
        "channel": 9
      },
      {
        "type": "note_on",
        "note": 42,
        "velocity": 62,
        "time": 34267,
        "channel": 9
      },
      {
        "type": "note_off",
        "note": 42,
        "time": 34364,
        "channel": 9
      },
      {
        "type": "note_on",
        "note": 38,
        "velocity": 57,
        "time": 34390,
        "channel": 9
      },
      {
        "type": "note_off",
        "note": 38,
        "time": 34487,
        "channel": 9
      },
      {
        "type": "note_on",
        "note": 42,
        "velocity": 46,
        "time": 34498,
        "channel": 9
      },
      {
        "type": "note_on",
        "note": 36,
        "velocity": 48,
        "time": 34513,
        "channel": 9
      },
      {
        "type": "note_off",
        "note": 42,
        "time": 34595,
        "channel": 9
      },
      {
        "type": "note_off",
        "note": 36,
        "time": 34610,
        "channel": 9
      },
      {
        "type": "note_on",
        "note": 38,
        "velocity": 12,
        "time": 34637,
        "channel": 9
      },
      {
        "type": "note_off",
        "note": 38,
        "time": 34734,
        "channel": 9
      },
      {
        "type": "note_on",
        "note": 46,
        "velocity": 75,
        "time": 34736,
        "channel": 9
      },
      {
        "type": "note_on",
        "note": 38,
        "velocity": 36,
        "time": 34744,
        "channel": 9
      },
      {
        "type": "note_off",
        "note": 46,
        "time": 34833,
        "channel": 9
      },
      {
        "type": "note_off",
        "note": 38,
        "time": 34841,
        "channel": 9
      },
      {
        "type": "note_on",
        "note": 44,
        "velocity": 47,
        "time": 34989,
        "channel": 9
      },
      {
        "type": "note_on",
        "note": 40,
        "velocity": 91,
        "time": 35005,
        "channel": 9
      },
      {
        "type": "note_on",
        "note": 42,
        "velocity": 49,
        "time": 35011,
        "channel": 9
      },
      {
        "type": "note_on",
        "note": 36,
        "velocity": 55,
        "time": 35027,
        "channel": 9
      },
      {
        "type": "note_off",
        "note": 44,
        "time": 35085,
        "channel": 9
      },
      {
        "type": "note_off",
        "note": 40,
        "time": 35102,
        "channel": 9
      },
      {
        "type": "note_off",
        "note": 42,
        "time": 35107,
        "channel": 9
      },
      {
        "type": "note_off",
        "note": 36,
        "time": 35124,
        "channel": 9
      },
      {
        "type": "note_on",
        "note": 38,
        "velocity": 17,
        "time": 35153,
        "channel": 9
      },
      {
        "type": "note_off",
        "note": 38,
        "time": 35249,
        "channel": 9
      },
      {
        "type": "note_on",
        "note": 42,
        "velocity": 44,
        "time": 35249,
        "channel": 9
      },
      {
        "type": "note_off",
        "note": 42,
        "time": 35346,
        "channel": 9
      },
      {
        "type": "note_on",
        "note": 38,
        "velocity": 13,
        "time": 35386,
        "channel": 9
      },
      {
        "type": "note_off",
        "note": 38,
        "time": 35483,
        "channel": 9
      },
      {
        "type": "note_on",
        "note": 42,
        "velocity": 29,
        "time": 35488,
        "channel": 9
      },
      {
        "type": "note_on",
        "note": 36,
        "velocity": 52,
        "time": 35494,
        "channel": 9
      },
      {
        "type": "note_off",
        "note": 42,
        "time": 35584,
        "channel": 9
      },
      {
        "type": "note_off",
        "note": 36,
        "time": 35591,
        "channel": 9
      },
      {
        "type": "note_on",
        "note": 37,
        "velocity": 23,
        "time": 35617,
        "channel": 9
      },
      {
        "type": "note_off",
        "note": 37,
        "time": 35713,
        "channel": 9
      },
      {
        "type": "note_on",
        "note": 38,
        "velocity": 45,
        "time": 35720,
        "channel": 9
      },
      {
        "type": "note_on",
        "note": 46,
        "velocity": 84,
        "time": 35725,
        "channel": 9
      },
      {
        "type": "note_off",
        "note": 38,
        "time": 35817,
        "channel": 9
      },
      {
        "type": "note_off",
        "note": 46,
        "time": 35823,
        "channel": 9
      },
      {
        "type": "note_on",
        "note": 44,
        "velocity": 37,
        "time": 35962,
        "channel": 9
      },
      {
        "type": "note_on",
        "note": 38,
        "velocity": 84,
        "time": 35965,
        "channel": 9
      },
      {
        "type": "note_on",
        "note": 42,
        "velocity": 59,
        "time": 35982,
        "channel": 9
      },
      {
        "type": "note_on",
        "note": 36,
        "velocity": 55,
        "time": 35996,
        "channel": 9
      },
      {
        "type": "note_off",
        "note": 44,
        "time": 36059,
        "channel": 9
      },
      {
        "type": "note_off",
        "note": 38,
        "time": 36062,
        "channel": 9
      },
      {
        "type": "note_off",
        "note": 42,
        "time": 36079,
        "channel": 9
      },
      {
        "type": "note_off",
        "note": 36,
        "time": 36093,
        "channel": 9
      },
      {
        "type": "note_on",
        "note": 38,
        "velocity": 25,
        "time": 36121,
        "channel": 9
      },
      {
        "type": "note_off",
        "note": 38,
        "time": 36217,
        "channel": 9
      },
      {
        "type": "note_on",
        "note": 42,
        "velocity": 52,
        "time": 36218,
        "channel": 9
      },
      {
        "type": "note_off",
        "note": 42,
        "time": 36315,
        "channel": 9
      },
      {
        "type": "note_on",
        "note": 38,
        "velocity": 21,
        "time": 36353,
        "channel": 9
      },
      {
        "type": "note_off",
        "note": 38,
        "time": 36449,
        "channel": 9
      },
      {
        "type": "note_on",
        "note": 42,
        "velocity": 45,
        "time": 36465,
        "channel": 9
      },
      {
        "type": "note_on",
        "note": 36,
        "velocity": 55,
        "time": 36469,
        "channel": 9
      },
      {
        "type": "note_off",
        "note": 42,
        "time": 36563,
        "channel": 9
      },
      {
        "type": "note_off",
        "note": 36,
        "time": 36566,
        "channel": 9
      },
      {
        "type": "note_on",
        "note": 38,
        "velocity": 64,
        "time": 36594,
        "channel": 9
      },
      {
        "type": "note_off",
        "note": 38,
        "time": 36690,
        "channel": 9
      },
      {
        "type": "note_on",
        "note": 38,
        "velocity": 96,
        "time": 36701,
        "channel": 9
      },
      {
        "type": "note_off",
        "note": 38,
        "time": 36798,
        "channel": 9
      },
      {
        "type": "note_on",
        "note": 38,
        "velocity": 8,
        "time": 36825,
        "channel": 9
      },
      {
        "type": "note_on",
        "note": 44,
        "velocity": 80,
        "time": 36905,
        "channel": 9
      },
      {
        "type": "note_off",
        "note": 38,
        "time": 36922,
        "channel": 9
      },
      {
        "type": "note_on",
        "note": 38,
        "velocity": 90,
        "time": 36942,
        "channel": 9
      },
      {
        "type": "note_on",
        "note": 36,
        "velocity": 57,
        "time": 36948,
        "channel": 9
      },
      {
        "type": "note_off",
        "note": 44,
        "time": 37001,
        "channel": 9
      },
      {
        "type": "note_off",
        "note": 38,
        "time": 37039,
        "channel": 9
      },
      {
        "type": "note_off",
        "note": 36,
        "time": 37045,
        "channel": 9
      },
      {
        "type": "note_on",
        "note": 38,
        "velocity": 13,
        "time": 37051,
        "channel": 9
      },
      {
        "type": "note_off",
        "note": 38,
        "time": 37147,
        "channel": 9
      },
      {
        "type": "note_on",
        "note": 38,
        "velocity": 100,
        "time": 37174,
        "channel": 9
      },
      {
        "type": "note_off",
        "note": 38,
        "time": 37271,
        "channel": 9
      },
      {
        "type": "note_on",
        "note": 38,
        "velocity": 11,
        "time": 37315,
        "channel": 9
      },
      {
        "type": "note_off",
        "note": 38,
        "time": 37412,
        "channel": 9
      },
      {
        "type": "note_on",
        "note": 38,
        "velocity": 93,
        "time": 37420,
        "channel": 9
      },
      {
        "type": "note_on",
        "note": 36,
        "velocity": 51,
        "time": 37464,
        "channel": 9
      },
      {
        "type": "note_off",
        "note": 38,
        "time": 37516,
        "channel": 9
      },
      {
        "type": "note_on",
        "note": 38,
        "velocity": 69,
        "time": 37553,
        "channel": 9
      },
      {
        "type": "note_off",
        "note": 36,
        "time": 37561,
        "channel": 9
      },
      {
        "type": "note_off",
        "note": 38,
        "time": 37649,
        "channel": 9
      },
      {
        "type": "note_on",
        "note": 48,
        "velocity": 80,
        "time": 37653,
        "channel": 9
      },
      {
        "type": "note_off",
        "note": 48,
        "time": 37749,
        "channel": 9
      },
      {
        "type": "note_on",
        "note": 48,
        "velocity": 105,
        "time": 37788,
        "channel": 9
      },
      {
        "type": "note_on",
        "note": 46,
        "velocity": 15,
        "time": 37802,
        "channel": 9
      },
      {
        "type": "note_on",
        "note": 44,
        "velocity": 62,
        "time": 37882,
        "channel": 9
      },
      {
        "type": "note_off",
        "note": 48,
        "time": 37885,
        "channel": 9
      },
      {
        "type": "note_off",
        "note": 46,
        "time": 37899,
        "channel": 9
      },
      {
        "type": "note_on",
        "note": 48,
        "velocity": 99,
        "time": 37902,
        "channel": 9
      },
      {
        "type": "note_on",
        "note": 36,
        "velocity": 50,
        "time": 37914,
        "channel": 9
      },
      {
        "type": "note_off",
        "note": 44,
        "time": 37979,
        "channel": 9
      },
      {
        "type": "note_off",
        "note": 48,
        "time": 37999,
        "channel": 9
      },
      {
        "type": "note_off",
        "note": 36,
        "time": 38011,
        "channel": 9
      },
      {
        "type": "note_on",
        "note": 48,
        "velocity": 96,
        "time": 38021,
        "channel": 9
      },
      {
        "type": "note_on",
        "note": 42,
        "velocity": 14,
        "time": 38034,
        "channel": 9
      },
      {
        "type": "note_off",
        "note": 48,
        "time": 38118,
        "channel": 9
      },
      {
        "type": "note_on",
        "note": 43,
        "velocity": 109,
        "time": 38123,
        "channel": 9
      },
      {
        "type": "note_off",
        "note": 42,
        "time": 38131,
        "channel": 9
      },
      {
        "type": "note_off",
        "note": 43,
        "time": 38220,
        "channel": 9
      },
      {
        "type": "note_on",
        "note": 55,
        "velocity": 110,
        "time": 38372,
        "channel": 9
      },
      {
        "type": "note_on",
        "note": 36,
        "velocity": 88,
        "time": 38374,
        "channel": 9
      },
      {
        "type": "note_on",
        "note": 59,
        "velocity": 127,
        "time": 38383,
        "channel": 9
      },
      {
        "type": "note_off",
        "note": 55,
        "time": 38468,
        "channel": 9
      },
      {
        "type": "note_off",
        "note": 36,
        "time": 38471,
        "channel": 9
      },
      {
        "type": "note_off",
        "note": 59,
        "time": 38480,
        "channel": 9
      },
      {
        "type": "note_on",
        "note": 40,
        "velocity": 96,
        "time": 38865,
        "channel": 9
      },
      {
        "type": "note_on",
        "note": 36,
        "velocity": 55,
        "time": 38894,
        "channel": 9
      },
      {
        "type": "note_off",
        "note": 40,
        "time": 38962,
        "channel": 9
      },
      {
        "type": "note_off",
        "note": 36,
        "time": 38992,
        "channel": 9
      },
      {
        "type": "note_on",
        "note": 38,
        "velocity": 12,
        "time": 39034,
        "channel": 9
      },
      {
        "type": "note_on",
        "note": 42,
        "velocity": 63,
        "time": 39126,
        "channel": 9
      },
      {
        "type": "note_off",
        "note": 38,
        "time": 39131,
        "channel": 9
      },
      {
        "type": "note_off",
        "note": 42,
        "time": 39224,
        "channel": 9
      },
      {
        "type": "note_on",
        "note": 38,
        "velocity": 60,
        "time": 39235,
        "channel": 9
      },
      {
        "type": "note_off",
        "note": 38,
        "time": 39332,
        "channel": 9
      },
      {
        "type": "note_on",
        "note": 42,
        "velocity": 23,
        "time": 39345,
        "channel": 9
      },
      {
        "type": "note_on",
        "note": 36,
        "velocity": 52,
        "time": 39370,
        "channel": 9
      },
      {
        "type": "note_off",
        "note": 42,
        "time": 39443,
        "channel": 9
      },
      {
        "type": "note_on",
        "note": 38,
        "velocity": 18,
        "time": 39456,
        "channel": 9
      },
      {
        "type": "note_off",
        "note": 36,
        "time": 39467,
        "channel": 9
      },
      {
        "type": "note_off",
        "note": 38,
        "time": 39552,
        "channel": 9
      },
      {
        "type": "note_on",
        "note": 26,
        "velocity": 104,
        "time": 39571,
        "channel": 9
      },
      {
        "type": "note_on",
        "note": 38,
        "velocity": 41,
        "time": 39573,
        "channel": 9
      },
      {
        "type": "note_off",
        "note": 26,
        "time": 39668,
        "channel": 9
      },
      {
        "type": "note_off",
        "note": 38,
        "time": 39668,
        "channel": 9
      },
      {
        "type": "note_on",
        "note": 44,
        "velocity": 37,
        "time": 39802,
        "channel": 9
      },
      {
        "type": "note_on",
        "note": 38,
        "velocity": 80,
        "time": 39824,
        "channel": 9
      },
      {
        "type": "note_on",
        "note": 36,
        "velocity": 56,
        "time": 39833,
        "channel": 9
      },
      {
        "type": "note_on",
        "note": 42,
        "velocity": 43,
        "time": 39839,
        "channel": 9
      },
      {
        "type": "note_off",
        "note": 44,
        "time": 39900,
        "channel": 9
      },
      {
        "type": "note_off",
        "note": 38,
        "time": 39922,
        "channel": 9
      },
      {
        "type": "note_off",
        "note": 36,
        "time": 39930,
        "channel": 9
      },
      {
        "type": "note_off",
        "note": 42,
        "time": 39936,
        "channel": 9
      },
      {
        "type": "note_on",
        "note": 38,
        "velocity": 21,
        "time": 39967,
        "channel": 9
      },
      {
        "type": "note_on",
        "note": 42,
        "velocity": 67,
        "time": 40058,
        "channel": 9
      },
      {
        "type": "note_off",
        "note": 38,
        "time": 40064,
        "channel": 9
      },
      {
        "type": "note_off",
        "note": 42,
        "time": 40156,
        "channel": 9
      },
      {
        "type": "note_on",
        "note": 38,
        "velocity": 21,
        "time": 40187,
        "channel": 9
      },
      {
        "type": "note_off",
        "note": 38,
        "time": 40238,
        "channel": 9
      },
      {
        "type": "note_on",
        "note": 38,
        "velocity": 22,
        "time": 40238,
        "channel": 9
      },
      {
        "type": "note_off",
        "note": 38,
        "time": 40270,
        "channel": 9
      },
      {
        "type": "note_on",
        "note": 38,
        "velocity": 16,
        "time": 40270,
        "channel": 9
      },
      {
        "type": "note_off",
        "note": 38,
        "time": 40284,
        "channel": 9
      },
      {
        "type": "note_on",
        "note": 42,
        "velocity": 40,
        "time": 40308,
        "channel": 9
      },
      {
        "type": "note_on",
        "note": 36,
        "velocity": 53,
        "time": 40314,
        "channel": 9
      },
      {
        "type": "note_off",
        "note": 42,
        "time": 40405,
        "channel": 9
      },
      {
        "type": "note_off",
        "note": 36,
        "time": 40410,
        "channel": 9
      },
      {
        "type": "note_on",
        "note": 26,
        "velocity": 94,
        "time": 40529,
        "channel": 9
      },
      {
        "type": "note_off",
        "note": 26,
        "time": 40626,
        "channel": 9
      },
      {
        "type": "note_on",
        "note": 44,
        "velocity": 37,
        "time": 40759,
        "channel": 9
      },
      {
        "type": "note_on",
        "note": 38,
        "velocity": 92,
        "time": 40786,
        "channel": 9
      },
      {
        "type": "note_on",
        "note": 42,
        "velocity": 54,
        "time": 40796,
        "channel": 9
      },
      {
        "type": "note_on",
        "note": 36,
        "velocity": 58,
        "time": 40800,
        "channel": 9
      },
      {
        "type": "note_off",
        "note": 44,
        "time": 40856,
        "channel": 9
      },
      {
        "type": "note_off",
        "note": 38,
        "time": 40883,
        "channel": 9
      },
      {
        "type": "note_off",
        "note": 42,
        "time": 40893,
        "channel": 9
      },
      {
        "type": "note_off",
        "note": 36,
        "time": 40897,
        "channel": 9
      },
      {
        "type": "note_on",
        "note": 42,
        "velocity": 69,
        "time": 41033,
        "channel": 9
      },
      {
        "type": "note_off",
        "note": 42,
        "time": 41129,
        "channel": 9
      },
      {
        "type": "note_on",
        "note": 38,
        "velocity": 10,
        "time": 41151,
        "channel": 9
      },
      {
        "type": "note_off",
        "note": 38,
        "time": 41248,
        "channel": 9
      },
      {
        "type": "note_on",
        "note": 42,
        "velocity": 24,
        "time": 41264,
        "channel": 9
      },
      {
        "type": "note_on",
        "note": 36,
        "velocity": 51,
        "time": 41268,
        "channel": 9
      },
      {
        "type": "note_off",
        "note": 42,
        "time": 41362,
        "channel": 9
      },
      {
        "type": "note_off",
        "note": 36,
        "time": 41364,
        "channel": 9
      },
      {
        "type": "note_on",
        "note": 38,
        "velocity": 104,
        "time": 41395,
        "channel": 9
      },
      {
        "type": "note_off",
        "note": 38,
        "time": 41491,
        "channel": 9
      },
      {
        "type": "note_on",
        "note": 42,
        "velocity": 84,
        "time": 41498,
        "channel": 9
      },
      {
        "type": "note_off",
        "note": 42,
        "time": 41595,
        "channel": 9
      },
      {
        "type": "note_on",
        "note": 38,
        "velocity": 103,
        "time": 41751,
        "channel": 9
      },
      {
        "type": "note_on",
        "note": 36,
        "velocity": 64,
        "time": 41769,
        "channel": 9
      },
      {
        "type": "note_on",
        "note": 42,
        "velocity": 61,
        "time": 41769,
        "channel": 9
      },
      {
        "type": "note_off",
        "note": 38,
        "time": 41847,
        "channel": 9
      },
      {
        "type": "note_off",
        "note": 36,
        "time": 41866,
        "channel": 9
      },
      {
        "type": "note_off",
        "note": 42,
        "time": 41866,
        "channel": 9
      },
      {
        "type": "note_on",
        "note": 38,
        "velocity": 10,
        "time": 41924,
        "channel": 9
      },
      {
        "type": "note_on",
        "note": 22,
        "velocity": 104,
        "time": 41991,
        "channel": 9
      },
      {
        "type": "note_off",
        "note": 38,
        "time": 42020,
        "channel": 9
      },
      {
        "type": "note_off",
        "note": 22,
        "time": 42088,
        "channel": 9
      },
      {
        "type": "note_on",
        "note": 38,
        "velocity": 23,
        "time": 42111,
        "channel": 9
      },
      {
        "type": "note_off",
        "note": 38,
        "time": 42143,
        "channel": 9
      },
      {
        "type": "note_on",
        "note": 38,
        "velocity": 21,
        "time": 42143,
        "channel": 9
      },
      {
        "type": "note_off",
        "note": 38,
        "time": 42181,
        "channel": 9
      },
      {
        "type": "note_on",
        "note": 38,
        "velocity": 15,
        "time": 42181,
        "channel": 9
      },
      {
        "type": "note_off",
        "note": 38,
        "time": 42207,
        "channel": 9
      },
      {
        "type": "note_on",
        "note": 42,
        "velocity": 38,
        "time": 42233,
        "channel": 9
      },
      {
        "type": "note_on",
        "note": 36,
        "velocity": 50,
        "time": 42244,
        "channel": 9
      },
      {
        "type": "note_off",
        "note": 42,
        "time": 42330,
        "channel": 9
      },
      {
        "type": "note_off",
        "note": 36,
        "time": 42341,
        "channel": 9
      },
      {
        "type": "note_on",
        "note": 38,
        "velocity": 8,
        "time": 42374,
        "channel": 9
      },
      {
        "type": "note_on",
        "note": 42,
        "velocity": 79,
        "time": 42469,
        "channel": 9
      },
      {
        "type": "note_off",
        "note": 38,
        "time": 42471,
        "channel": 9
      },
      {
        "type": "note_off",
        "note": 42,
        "time": 42566,
        "channel": 9
      },
      {
        "type": "note_on",
        "note": 38,
        "velocity": 103,
        "time": 42703,
        "channel": 9
      },
      {
        "type": "note_on",
        "note": 42,
        "velocity": 55,
        "time": 42718,
        "channel": 9
      },
      {
        "type": "note_on",
        "note": 36,
        "velocity": 64,
        "time": 42722,
        "channel": 9
      },
      {
        "type": "note_off",
        "note": 38,
        "time": 42800,
        "channel": 9
      },
      {
        "type": "note_off",
        "note": 42,
        "time": 42815,
        "channel": 9
      },
      {
        "type": "note_off",
        "note": 36,
        "time": 42819,
        "channel": 9
      },
      {
        "type": "note_on",
        "note": 42,
        "velocity": 76,
        "time": 42945,
        "channel": 9
      },
      {
        "type": "note_off",
        "note": 42,
        "time": 43043,
        "channel": 9
      },
      {
        "type": "note_on",
        "note": 38,
        "velocity": 23,
        "time": 43070,
        "channel": 9
      },
      {
        "type": "note_off",
        "note": 38,
        "time": 43166,
        "channel": 9
      },
      {
        "type": "note_on",
        "note": 42,
        "velocity": 24,
        "time": 43176,
        "channel": 9
      },
      {
        "type": "note_on",
        "note": 36,
        "velocity": 56,
        "time": 43185,
        "channel": 9
      },
      {
        "type": "note_off",
        "note": 42,
        "time": 43274,
        "channel": 9
      },
      {
        "type": "note_off",
        "note": 36,
        "time": 43282,
        "channel": 9
      },
      {
        "type": "note_on",
        "note": 38,
        "velocity": 94,
        "time": 43308,
        "channel": 9
      },
      {
        "type": "note_off",
        "note": 38,
        "time": 43405,
        "channel": 9
      },
      {
        "type": "note_on",
        "note": 42,
        "velocity": 88,
        "time": 43411,
        "channel": 9
      },
      {
        "type": "note_off",
        "note": 42,
        "time": 43508,
        "channel": 9
      },
      {
        "type": "note_on",
        "note": 38,
        "velocity": 102,
        "time": 43651,
        "channel": 9
      },
      {
        "type": "note_on",
        "note": 42,
        "velocity": 55,
        "time": 43676,
        "channel": 9
      },
      {
        "type": "note_on",
        "note": 36,
        "velocity": 57,
        "time": 43681,
        "channel": 9
      },
      {
        "type": "note_off",
        "note": 38,
        "time": 43748,
        "channel": 9
      },
      {
        "type": "note_off",
        "note": 42,
        "time": 43772,
        "channel": 9
      },
      {
        "type": "note_off",
        "note": 36,
        "time": 43778,
        "channel": 9
      },
      {
        "type": "note_on",
        "note": 38,
        "velocity": 21,
        "time": 43811,
        "channel": 9
      },
      {
        "type": "note_on",
        "note": 42,
        "velocity": 87,
        "time": 43907,
        "channel": 9
      },
      {
        "type": "note_off",
        "note": 38,
        "time": 43908,
        "channel": 9
      },
      {
        "type": "note_off",
        "note": 42,
        "time": 44004,
        "channel": 9
      },
      {
        "type": "note_on",
        "note": 38,
        "velocity": 22,
        "time": 44029,
        "channel": 9
      },
      {
        "type": "note_off",
        "note": 38,
        "time": 44057,
        "channel": 9
      },
      {
        "type": "note_on",
        "note": 38,
        "velocity": 23,
        "time": 44057,
        "channel": 9
      },
      {
        "type": "note_off",
        "note": 38,
        "time": 44126,
        "channel": 9
      },
      {
        "type": "note_on",
        "note": 36,
        "velocity": 53,
        "time": 44129,
        "channel": 9
      },
      {
        "type": "note_on",
        "note": 42,
        "velocity": 31,
        "time": 44148,
        "channel": 9
      },
      {
        "type": "note_off",
        "note": 36,
        "time": 44225,
        "channel": 9
      },
      {
        "type": "note_on",
        "note": 38,
        "velocity": 11,
        "time": 44241,
        "channel": 9
      },
      {
        "type": "note_off",
        "note": 42,
        "time": 44245,
        "channel": 9
      },
      {
        "type": "note_off",
        "note": 38,
        "time": 44338,
        "channel": 9
      },
      {
        "type": "note_on",
        "note": 42,
        "velocity": 79,
        "time": 44363,
        "channel": 9
      },
      {
        "type": "note_off",
        "note": 42,
        "time": 44461,
        "channel": 9
      },
      {
        "type": "note_on",
        "note": 37,
        "velocity": 85,
        "time": 44601,
        "channel": 9
      },
      {
        "type": "note_on",
        "note": 42,
        "velocity": 67,
        "time": 44622,
        "channel": 9
      },
      {
        "type": "note_on",
        "note": 36,
        "velocity": 60,
        "time": 44632,
        "channel": 9
      },
      {
        "type": "note_off",
        "note": 37,
        "time": 44698,
        "channel": 9
      },
      {
        "type": "note_off",
        "note": 42,
        "time": 44719,
        "channel": 9
      },
      {
        "type": "note_off",
        "note": 36,
        "time": 44729,
        "channel": 9
      },
      {
        "type": "note_on",
        "note": 38,
        "velocity": 14,
        "time": 44778,
        "channel": 9
      },
      {
        "type": "note_on",
        "note": 42,
        "velocity": 56,
        "time": 44859,
        "channel": 9
      },
      {
        "type": "note_off",
        "note": 38,
        "time": 44874,
        "channel": 9
      },
      {
        "type": "note_off",
        "note": 42,
        "time": 44956,
        "channel": 9
      },
      {
        "type": "note_on",
        "note": 38,
        "velocity": 26,
        "time": 44998,
        "channel": 9
      },
      {
        "type": "note_on",
        "note": 42,
        "velocity": 35,
        "time": 45092,
        "channel": 9
      },
      {
        "type": "note_on",
        "note": 36,
        "velocity": 51,
        "time": 45094,
        "channel": 9
      },
      {
        "type": "note_off",
        "note": 38,
        "time": 45094,
        "channel": 9
      },
      {
        "type": "note_off",
        "note": 36,
        "time": 45189,
        "channel": 9
      },
      {
        "type": "note_off",
        "note": 42,
        "time": 45189,
        "channel": 9
      },
      {
        "type": "note_on",
        "note": 38,
        "velocity": 87,
        "time": 45219,
        "channel": 9
      },
      {
        "type": "note_off",
        "note": 38,
        "time": 45316,
        "channel": 9
      },
      {
        "type": "note_on",
        "note": 26,
        "velocity": 127,
        "time": 45323,
        "channel": 9
      },
      {
        "type": "note_off",
        "note": 26,
        "time": 45421,
        "channel": 9
      },
      {
        "type": "note_on",
        "note": 44,
        "velocity": 42,
        "time": 45552,
        "channel": 9
      },
      {
        "type": "note_on",
        "note": 38,
        "velocity": 99,
        "time": 45576,
        "channel": 9
      },
      {
        "type": "note_on",
        "note": 36,
        "velocity": 61,
        "time": 45581,
        "channel": 9
      },
      {
        "type": "note_on",
        "note": 42,
        "velocity": 76,
        "time": 45584,
        "channel": 9
      },
      {
        "type": "note_off",
        "note": 44,
        "time": 45649,
        "channel": 9
      },
      {
        "type": "note_off",
        "note": 38,
        "time": 45673,
        "channel": 9
      },
      {
        "type": "note_off",
        "note": 36,
        "time": 45678,
        "channel": 9
      },
      {
        "type": "note_off",
        "note": 42,
        "time": 45681,
        "channel": 9
      },
      {
        "type": "note_on",
        "note": 38,
        "velocity": 17,
        "time": 45715,
        "channel": 9
      },
      {
        "type": "note_on",
        "note": 22,
        "velocity": 66,
        "time": 45811,
        "channel": 9
      },
      {
        "type": "note_off",
        "note": 38,
        "time": 45812,
        "channel": 9
      },
      {
        "type": "note_off",
        "note": 22,
        "time": 45908,
        "channel": 9
      },
      {
        "type": "note_on",
        "note": 38,
        "velocity": 23,
        "time": 45937,
        "channel": 9
      },
      {
        "type": "note_off",
        "note": 38,
        "time": 45968,
        "channel": 9
      },
      {
        "type": "note_on",
        "note": 38,
        "velocity": 22,
        "time": 45968,
        "channel": 9
      },
      {
        "type": "note_off",
        "note": 38,
        "time": 46002,
        "channel": 9
      },
      {
        "type": "note_on",
        "note": 38,
        "velocity": 14,
        "time": 46002,
        "channel": 9
      },
      {
        "type": "note_off",
        "note": 38,
        "time": 46034,
        "channel": 9
      },
      {
        "type": "note_on",
        "note": 36,
        "velocity": 54,
        "time": 46057,
        "channel": 9
      },
      {
        "type": "note_on",
        "note": 42,
        "velocity": 34,
        "time": 46057,
        "channel": 9
      },
      {
        "type": "note_off",
        "note": 36,
        "time": 46154,
        "channel": 9
      },
      {
        "type": "note_off",
        "note": 42,
        "time": 46154,
        "channel": 9
      },
      {
        "type": "note_on",
        "note": 38,
        "velocity": 8,
        "time": 46182,
        "channel": 9
      },
      {
        "type": "note_off",
        "note": 38,
        "time": 46279,
        "channel": 9
      },
      {
        "type": "note_on",
        "note": 42,
        "velocity": 79,
        "time": 46292,
        "channel": 9
      },
      {
        "type": "note_off",
        "note": 42,
        "time": 46389,
        "channel": 9
      },
      {
        "type": "note_on",
        "note": 42,
        "velocity": 70,
        "time": 46544,
        "channel": 9
      },
      {
        "type": "note_on",
        "note": 38,
        "velocity": 96,
        "time": 46547,
        "channel": 9
      },
      {
        "type": "note_on",
        "note": 36,
        "velocity": 57,
        "time": 46560,
        "channel": 9
      },
      {
        "type": "note_off",
        "note": 42,
        "time": 46642,
        "channel": 9
      },
      {
        "type": "note_off",
        "note": 38,
        "time": 46644,
        "channel": 9
      },
      {
        "type": "note_off",
        "note": 36,
        "time": 46657,
        "channel": 9
      },
      {
        "type": "note_on",
        "note": 42,
        "velocity": 50,
        "time": 46805,
        "channel": 9
      },
      {
        "type": "note_off",
        "note": 42,
        "time": 46903,
        "channel": 9
      },
      {
        "type": "note_on",
        "note": 38,
        "velocity": 23,
        "time": 46932,
        "channel": 9
      },
      {
        "type": "note_on",
        "note": 36,
        "velocity": 52,
        "time": 47023,
        "channel": 9
      },
      {
        "type": "note_off",
        "note": 38,
        "time": 47029,
        "channel": 9
      },
      {
        "type": "note_on",
        "note": 42,
        "velocity": 27,
        "time": 47033,
        "channel": 9
      },
      {
        "type": "note_off",
        "note": 36,
        "time": 47120,
        "channel": 9
      },
      {
        "type": "note_off",
        "note": 42,
        "time": 47130,
        "channel": 9
      },
      {
        "type": "note_on",
        "note": 38,
        "velocity": 97,
        "time": 47164,
        "channel": 9
      },
      {
        "type": "note_off",
        "note": 38,
        "time": 47262,
        "channel": 9
      },
      {
        "type": "note_on",
        "note": 22,
        "velocity": 101,
        "time": 47268,
        "channel": 9
      },
      {
        "type": "note_off",
        "note": 22,
        "time": 47365,
        "channel": 9
      },
      {
        "type": "note_on",
        "note": 36,
        "velocity": 56,
        "time": 47502,
        "channel": 9
      },
      {
        "type": "note_on",
        "note": 37,
        "velocity": 81,
        "time": 47505,
        "channel": 9
      },
      {
        "type": "note_on",
        "note": 42,
        "velocity": 58,
        "time": 47513,
        "channel": 9
      },
      {
        "type": "note_off",
        "note": 36,
        "time": 47599,
        "channel": 9
      },
      {
        "type": "note_off",
        "note": 37,
        "time": 47602,
        "channel": 9
      },
      {
        "type": "note_off",
        "note": 42,
        "time": 47610,
        "channel": 9
      },
      {
        "type": "note_on",
        "note": 38,
        "velocity": 23,
        "time": 47663,
        "channel": 9
      },
      {
        "type": "note_on",
        "note": 22,
        "velocity": 105,
        "time": 47744,
        "channel": 9
      },
      {
        "type": "note_off",
        "note": 38,
        "time": 47760,
        "channel": 9
      },
      {
        "type": "note_off",
        "note": 22,
        "time": 47842,
        "channel": 9
      },
      {
        "type": "note_on",
        "note": 38,
        "velocity": 24,
        "time": 47880,
        "channel": 9
      },
      {
        "type": "note_off",
        "note": 38,
        "time": 47977,
        "channel": 9
      },
      {
        "type": "note_on",
        "note": 36,
        "velocity": 52,
        "time": 47979,
        "channel": 9
      },
      {
        "type": "note_on",
        "note": 42,
        "velocity": 24,
        "time": 47982,
        "channel": 9
      },
      {
        "type": "note_off",
        "note": 36,
        "time": 48076,
        "channel": 9
      },
      {
        "type": "note_off",
        "note": 42,
        "time": 48080,
        "channel": 9
      },
      {
        "type": "note_on",
        "note": 38,
        "velocity": 13,
        "time": 48097,
        "channel": 9
      },
      {
        "type": "note_off",
        "note": 38,
        "time": 48194,
        "channel": 9
      },
      {
        "type": "note_on",
        "note": 42,
        "velocity": 75,
        "time": 48215,
        "channel": 9
      },
      {
        "type": "note_on",
        "note": 38,
        "velocity": 33,
        "time": 48220,
        "channel": 9
      },
      {
        "type": "note_off",
        "note": 42,
        "time": 48312,
        "channel": 9
      },
      {
        "type": "note_off",
        "note": 38,
        "time": 48318,
        "channel": 9
      },
      {
        "type": "note_on",
        "note": 40,
        "velocity": 97,
        "time": 48449,
        "channel": 9
      },
      {
        "type": "note_on",
        "note": 36,
        "velocity": 54,
        "time": 48453,
        "channel": 9
      },
      {
        "type": "note_on",
        "note": 42,
        "velocity": 69,
        "time": 48465,
        "channel": 9
      },
      {
        "type": "note_off",
        "note": 40,
        "time": 48546,
        "channel": 9
      },
      {
        "type": "note_off",
        "note": 36,
        "time": 48550,
        "channel": 9
      },
      {
        "type": "note_off",
        "note": 42,
        "time": 48562,
        "channel": 9
      },
      {
        "type": "note_on",
        "note": 38,
        "velocity": 30,
        "time": 48583,
        "channel": 9
      },
      {
        "type": "note_off",
        "note": 38,
        "time": 48681,
        "channel": 9
      },
      {
        "type": "note_on",
        "note": 22,
        "velocity": 61,
        "time": 48705,
        "channel": 9
      },
      {
        "type": "note_off",
        "note": 22,
        "time": 48802,
        "channel": 9
      },
      {
        "type": "note_on",
        "note": 38,
        "velocity": 26,
        "time": 48819,
        "channel": 9
      },
      {
        "type": "note_off",
        "note": 38,
        "time": 48894,
        "channel": 9
      },
      {
        "type": "note_on",
        "note": 38,
        "velocity": 25,
        "time": 48894,
        "channel": 9
      },
      {
        "type": "note_off",
        "note": 38,
        "time": 48916,
        "channel": 9
      },
      {
        "type": "note_on",
        "note": 36,
        "velocity": 52,
        "time": 48926,
        "channel": 9
      },
      {
        "type": "note_on",
        "note": 42,
        "velocity": 32,
        "time": 48935,
        "channel": 9
      },
      {
        "type": "note_off",
        "note": 36,
        "time": 49023,
        "channel": 9
      },
      {
        "type": "note_off",
        "note": 42,
        "time": 49032,
        "channel": 9
      },
      {
        "type": "note_on",
        "note": 38,
        "velocity": 80,
        "time": 49062,
        "channel": 9
      },
      {
        "type": "note_off",
        "note": 38,
        "time": 49159,
        "channel": 9
      },
      {
        "type": "note_on",
        "note": 42,
        "velocity": 106,
        "time": 49167,
        "channel": 9
      },
      {
        "type": "note_off",
        "note": 42,
        "time": 49264,
        "channel": 9
      },
      {
        "type": "note_on",
        "note": 38,
        "velocity": 102,
        "time": 49408,
        "channel": 9
      },
      {
        "type": "note_on",
        "note": 42,
        "velocity": 57,
        "time": 49416,
        "channel": 9
      },
      {
        "type": "note_on",
        "note": 36,
        "velocity": 57,
        "time": 49431,
        "channel": 9
      },
      {
        "type": "note_off",
        "note": 38,
        "time": 49504,
        "channel": 9
      },
      {
        "type": "note_off",
        "note": 42,
        "time": 49514,
        "channel": 9
      },
      {
        "type": "note_off",
        "note": 36,
        "time": 49527,
        "channel": 9
      },
      {
        "type": "note_on",
        "note": 38,
        "velocity": 26,
        "time": 49545,
        "channel": 9
      },
      {
        "type": "note_off",
        "note": 38,
        "time": 49642,
        "channel": 9
      },
      {
        "type": "note_on",
        "note": 42,
        "velocity": 76,
        "time": 49650,
        "channel": 9
      },
      {
        "type": "note_off",
        "note": 42,
        "time": 49746,
        "channel": 9
      },
      {
        "type": "note_on",
        "note": 38,
        "velocity": 23,
        "time": 49782,
        "channel": 9
      },
      {
        "type": "note_off",
        "note": 38,
        "time": 49879,
        "channel": 9
      },
      {
        "type": "note_on",
        "note": 42,
        "velocity": 27,
        "time": 49887,
        "channel": 9
      },
      {
        "type": "note_on",
        "note": 36,
        "velocity": 50,
        "time": 49894,
        "channel": 9
      },
      {
        "type": "note_off",
        "note": 42,
        "time": 49984,
        "channel": 9
      },
      {
        "type": "note_off",
        "note": 36,
        "time": 49991,
        "channel": 9
      },
      {
        "type": "note_on",
        "note": 38,
        "velocity": 17,
        "time": 50010,
        "channel": 9
      },
      {
        "type": "note_off",
        "note": 38,
        "time": 50106,
        "channel": 9
      },
      {
        "type": "note_on",
        "note": 38,
        "velocity": 34,
        "time": 50129,
        "channel": 9
      },
      {
        "type": "note_on",
        "note": 22,
        "velocity": 126,
        "time": 50140,
        "channel": 9
      },
      {
        "type": "note_off",
        "note": 38,
        "time": 50226,
        "channel": 9
      },
      {
        "type": "note_off",
        "note": 22,
        "time": 50237,
        "channel": 9
      },
      {
        "type": "note_on",
        "note": 44,
        "velocity": 30,
        "time": 50369,
        "channel": 9
      },
      {
        "type": "note_on",
        "note": 37,
        "velocity": 89,
        "time": 50389,
        "channel": 9
      },
      {
        "type": "note_on",
        "note": 36,
        "velocity": 63,
        "time": 50401,
        "channel": 9
      },
      {
        "type": "note_on",
        "note": 42,
        "velocity": 65,
        "time": 50405,
        "channel": 9
      },
      {
        "type": "note_off",
        "note": 44,
        "time": 50466,
        "channel": 9
      },
      {
        "type": "note_off",
        "note": 37,
        "time": 50486,
        "channel": 9
      },
      {
        "type": "note_off",
        "note": 36,
        "time": 50498,
        "channel": 9
      },
      {
        "type": "note_off",
        "note": 42,
        "time": 50503,
        "channel": 9
      },
      {
        "type": "note_on",
        "note": 38,
        "velocity": 21,
        "time": 50539,
        "channel": 9
      },
      {
        "type": "note_off",
        "note": 38,
        "time": 50636,
        "channel": 9
      },
      {
        "type": "note_on",
        "note": 42,
        "velocity": 80,
        "time": 50648,
        "channel": 9
      },
      {
        "type": "note_off",
        "note": 42,
        "time": 50746,
        "channel": 9
      },
      {
        "type": "note_on",
        "note": 38,
        "velocity": 23,
        "time": 50782,
        "channel": 9
      },
      {
        "type": "note_off",
        "note": 38,
        "time": 50846,
        "channel": 9
      },
      {
        "type": "note_on",
        "note": 38,
        "velocity": 24,
        "time": 50846,
        "channel": 9
      },
      {
        "type": "note_off",
        "note": 38,
        "time": 50879,
        "channel": 9
      },
      {
        "type": "note_on",
        "note": 42,
        "velocity": 33,
        "time": 50894,
        "channel": 9
      },
      {
        "type": "note_on",
        "note": 36,
        "velocity": 53,
        "time": 50901,
        "channel": 9
      },
      {
        "type": "note_off",
        "note": 42,
        "time": 50991,
        "channel": 9
      },
      {
        "type": "note_off",
        "note": 36,
        "time": 50997,
        "channel": 9
      },
      {
        "type": "note_on",
        "note": 37,
        "velocity": 77,
        "time": 51015,
        "channel": 9
      },
      {
        "type": "note_off",
        "note": 37,
        "time": 51112,
        "channel": 9
      },
      {
        "type": "note_on",
        "note": 42,
        "velocity": 99,
        "time": 51123,
        "channel": 9
      },
      {
        "type": "note_off",
        "note": 42,
        "time": 51221,
        "channel": 9
      },
      {
        "type": "note_on",
        "note": 37,
        "velocity": 75,
        "time": 51360,
        "channel": 9
      },
      {
        "type": "note_on",
        "note": 42,
        "velocity": 62,
        "time": 51368,
        "channel": 9
      },
      {
        "type": "note_on",
        "note": 36,
        "velocity": 56,
        "time": 51384,
        "channel": 9
      },
      {
        "type": "note_off",
        "note": 37,
        "time": 51456,
        "channel": 9
      },
      {
        "type": "note_off",
        "note": 42,
        "time": 51466,
        "channel": 9
      },
      {
        "type": "note_off",
        "note": 36,
        "time": 51481,
        "channel": 9
      },
      {
        "type": "note_on",
        "note": 38,
        "velocity": 17,
        "time": 51500,
        "channel": 9
      },
      {
        "type": "note_off",
        "note": 38,
        "time": 51597,
        "channel": 9
      },
      {
        "type": "note_on",
        "note": 42,
        "velocity": 44,
        "time": 51606,
        "channel": 9
      },
      {
        "type": "note_off",
        "note": 42,
        "time": 51703,
        "channel": 9
      },
      {
        "type": "note_on",
        "note": 38,
        "velocity": 29,
        "time": 51734,
        "channel": 9
      },
      {
        "type": "note_off",
        "note": 38,
        "time": 51831,
        "channel": 9
      },
      {
        "type": "note_on",
        "note": 42,
        "velocity": 49,
        "time": 51848,
        "channel": 9
      },
      {
        "type": "note_on",
        "note": 36,
        "velocity": 57,
        "time": 51850,
        "channel": 9
      },
      {
        "type": "note_off",
        "note": 42,
        "time": 51946,
        "channel": 9
      },
      {
        "type": "note_off",
        "note": 36,
        "time": 51947,
        "channel": 9
      },
      {
        "type": "note_on",
        "note": 37,
        "velocity": 87,
        "time": 51979,
        "channel": 9
      },
      {
        "type": "note_off",
        "note": 37,
        "time": 52076,
        "channel": 9
      },
      {
        "type": "note_on",
        "note": 38,
        "velocity": 114,
        "time": 52089,
        "channel": 9
      },
      {
        "type": "note_off",
        "note": 38,
        "time": 52186,
        "channel": 9
      },
      {
        "type": "note_on",
        "note": 38,
        "velocity": 19,
        "time": 52226,
        "channel": 9
      },
      {
        "type": "note_off",
        "note": 38,
        "time": 52323,
        "channel": 9
      },
      {
        "type": "note_on",
        "note": 48,
        "velocity": 98,
        "time": 52335,
        "channel": 9
      },
      {
        "type": "note_on",
        "note": 36,
        "velocity": 48,
        "time": 52338,
        "channel": 9
      },
      {
        "type": "note_off",
        "note": 48,
        "time": 52431,
        "channel": 9
      },
      {
        "type": "note_off",
        "note": 36,
        "time": 52435,
        "channel": 9
      },
      {
        "type": "note_on",
        "note": 38,
        "velocity": 13,
        "time": 52466,
        "channel": 9
      },
      {
        "type": "note_off",
        "note": 38,
        "time": 52563,
        "channel": 9
      },
      {
        "type": "note_on",
        "note": 48,
        "velocity": 109,
        "time": 52564,
        "channel": 9
      },
      {
        "type": "note_off",
        "note": 48,
        "time": 52661,
        "channel": 9
      },
      {
        "type": "note_on",
        "note": 38,
        "velocity": 24,
        "time": 52671,
        "channel": 9
      },
      {
        "type": "note_off",
        "note": 38,
        "time": 52767,
        "channel": 9
      },
      {
        "type": "note_on",
        "note": 38,
        "velocity": 88,
        "time": 52803,
        "channel": 9
      },
      {
        "type": "note_off",
        "note": 38,
        "time": 52900,
        "channel": 9
      },
      {
        "type": "note_on",
        "note": 37,
        "velocity": 77,
        "time": 52925,
        "channel": 9
      },
      {
        "type": "note_off",
        "note": 37,
        "time": 53022,
        "channel": 9
      },
      {
        "type": "note_on",
        "note": 38,
        "velocity": 61,
        "time": 53035,
        "channel": 9
      },
      {
        "type": "note_off",
        "note": 38,
        "time": 53132,
        "channel": 9
      },
      {
        "type": "note_on",
        "note": 36,
        "velocity": 65,
        "time": 53160,
        "channel": 9
      },
      {
        "type": "note_off",
        "note": 36,
        "time": 53257,
        "channel": 9
      },
      {
        "type": "note_on",
        "note": 43,
        "velocity": 122,
        "time": 53261,
        "channel": 9
      },
      {
        "type": "note_on",
        "note": 38,
        "velocity": 127,
        "time": 53305,
        "channel": 9
      },
      {
        "type": "note_off",
        "note": 43,
        "time": 53359,
        "channel": 9
      },
      {
        "type": "note_on",
        "note": 36,
        "velocity": 50,
        "time": 53392,
        "channel": 9
      },
      {
        "type": "note_off",
        "note": 38,
        "time": 53402,
        "channel": 9
      },
      {
        "type": "note_off",
        "note": 36,
        "time": 53489,
        "channel": 9
      },
      {
        "type": "note_on",
        "note": 36,
        "velocity": 83,
        "time": 53760,
        "channel": 9
      },
      {
        "type": "note_on",
        "note": 59,
        "velocity": 95,
        "time": 53765,
        "channel": 9
      },
      {
        "type": "note_on",
        "note": 55,
        "velocity": 83,
        "time": 53773,
        "channel": 9
      },
      {
        "type": "note_off",
        "note": 36,
        "time": 53857,
        "channel": 9
      },
      {
        "type": "note_off",
        "note": 59,
        "time": 53862,
        "channel": 9
      },
      {
        "type": "note_off",
        "note": 55,
        "time": 53869,
        "channel": 9
      },
      {
        "type": "note_on",
        "note": 22,
        "velocity": 52,
        "time": 53999,
        "channel": 9
      },
      {
        "type": "note_off",
        "note": 22,
        "time": 54097,
        "channel": 9
      },
      {
        "type": "note_on",
        "note": 37,
        "velocity": 89,
        "time": 54225,
        "channel": 9
      },
      {
        "type": "note_on",
        "note": 22,
        "velocity": 31,
        "time": 54239,
        "channel": 9
      },
      {
        "type": "note_on",
        "note": 36,
        "velocity": 60,
        "time": 54248,
        "channel": 9
      },
      {
        "type": "note_off",
        "note": 37,
        "time": 54322,
        "channel": 9
      },
      {
        "type": "note_off",
        "note": 22,
        "time": 54337,
        "channel": 9
      },
      {
        "type": "note_off",
        "note": 36,
        "time": 54345,
        "channel": 9
      },
      {
        "type": "note_on",
        "note": 38,
        "velocity": 23,
        "time": 54366,
        "channel": 9
      },
      {
        "type": "note_off",
        "note": 38,
        "time": 54463,
        "channel": 9
      },
      {
        "type": "note_on",
        "note": 22,
        "velocity": 61,
        "time": 54471,
        "channel": 9
      },
      {
        "type": "note_off",
        "note": 22,
        "time": 54568,
        "channel": 9
      },
      {
        "type": "note_on",
        "note": 38,
        "velocity": 29,
        "time": 54601,
        "channel": 9
      },
      {
        "type": "note_off",
        "note": 38,
        "time": 54698,
        "channel": 9
      },
      {
        "type": "note_on",
        "note": 36,
        "velocity": 59,
        "time": 54699,
        "channel": 9
      },
      {
        "type": "note_on",
        "note": 42,
        "velocity": 32,
        "time": 54708,
        "channel": 9
      },
      {
        "type": "note_off",
        "note": 36,
        "time": 54796,
        "channel": 9
      },
      {
        "type": "note_off",
        "note": 42,
        "time": 54805,
        "channel": 9
      },
      {
        "type": "note_on",
        "note": 38,
        "velocity": 22,
        "time": 54811,
        "channel": 9
      },
      {
        "type": "note_off",
        "note": 38,
        "time": 54908,
        "channel": 9
      },
      {
        "type": "note_on",
        "note": 26,
        "velocity": 83,
        "time": 54925,
        "channel": 9
      },
      {
        "type": "note_on",
        "note": 38,
        "velocity": 26,
        "time": 54925,
        "channel": 9
      },
      {
        "type": "note_off",
        "note": 38,
        "time": 55021,
        "channel": 9
      },
      {
        "type": "note_off",
        "note": 26,
        "time": 55023,
        "channel": 9
      },
      {
        "type": "note_on",
        "note": 44,
        "velocity": 37,
        "time": 55139,
        "channel": 9
      },
      {
        "type": "note_on",
        "note": 38,
        "velocity": 98,
        "time": 55168,
        "channel": 9
      },
      {
        "type": "note_on",
        "note": 36,
        "velocity": 60,
        "time": 55179,
        "channel": 9
      },
      {
        "type": "note_on",
        "note": 42,
        "velocity": 57,
        "time": 55185,
        "channel": 9
      },
      {
        "type": "note_off",
        "note": 44,
        "time": 55235,
        "channel": 9
      },
      {
        "type": "note_off",
        "note": 38,
        "time": 55264,
        "channel": 9
      },
      {
        "type": "note_off",
        "note": 36,
        "time": 55276,
        "channel": 9
      },
      {
        "type": "note_off",
        "note": 42,
        "time": 55281,
        "channel": 9
      },
      {
        "type": "note_on",
        "note": 38,
        "velocity": 23,
        "time": 55312,
        "channel": 9
      },
      {
        "type": "note_off",
        "note": 38,
        "time": 55409,
        "channel": 9
      },
      {
        "type": "note_on",
        "note": 22,
        "velocity": 62,
        "time": 55412,
        "channel": 9
      },
      {
        "type": "note_off",
        "note": 22,
        "time": 55510,
        "channel": 9
      },
      {
        "type": "note_on",
        "note": 38,
        "velocity": 21,
        "time": 55541,
        "channel": 9
      },
      {
        "type": "note_off",
        "note": 38,
        "time": 55638,
        "channel": 9
      },
      {
        "type": "note_on",
        "note": 36,
        "velocity": 59,
        "time": 55647,
        "channel": 9
      },
      {
        "type": "note_on",
        "note": 42,
        "velocity": 28,
        "time": 55659,
        "channel": 9
      },
      {
        "type": "note_off",
        "note": 36,
        "time": 55744,
        "channel": 9
      },
      {
        "type": "note_on",
        "note": 38,
        "velocity": 21,
        "time": 55754,
        "channel": 9
      },
      {
        "type": "note_off",
        "note": 42,
        "time": 55757,
        "channel": 9
      },
      {
        "type": "note_off",
        "note": 38,
        "time": 55851,
        "channel": 9
      },
      {
        "type": "note_on",
        "note": 38,
        "velocity": 41,
        "time": 55884,
        "channel": 9
      },
      {
        "type": "note_on",
        "note": 42,
        "velocity": 74,
        "time": 55884,
        "channel": 9
      },
      {
        "type": "note_off",
        "note": 38,
        "time": 55981,
        "channel": 9
      },
      {
        "type": "note_off",
        "note": 42,
        "time": 55981,
        "channel": 9
      },
      {
        "type": "note_on",
        "note": 38,
        "velocity": 99,
        "time": 56133,
        "channel": 9
      },
      {
        "type": "note_on",
        "note": 36,
        "velocity": 57,
        "time": 56136,
        "channel": 9
      },
      {
        "type": "note_on",
        "note": 42,
        "velocity": 44,
        "time": 56141,
        "channel": 9
      },
      {
        "type": "note_off",
        "note": 38,
        "time": 56230,
        "channel": 9
      },
      {
        "type": "note_off",
        "note": 36,
        "time": 56233,
        "channel": 9
      },
      {
        "type": "note_off",
        "note": 42,
        "time": 56239,
        "channel": 9
      },
      {
        "type": "note_on",
        "note": 38,
        "velocity": 27,
        "time": 56278,
        "channel": 9
      },
      {
        "type": "note_on",
        "note": 42,
        "velocity": 62,
        "time": 56364,
        "channel": 9
      },
      {
        "type": "note_off",
        "note": 38,
        "time": 56375,
        "channel": 9
      },
      {
        "type": "note_off",
        "note": 42,
        "time": 56461,
        "channel": 9
      },
      {
        "type": "note_on",
        "note": 38,
        "velocity": 89,
        "time": 56490,
        "channel": 9
      },
      {
        "type": "note_off",
        "note": 38,
        "time": 56587,
        "channel": 9
      },
      {
        "type": "note_on",
        "note": 36,
        "velocity": 58,
        "time": 56601,
        "channel": 9
      },
      {
        "type": "note_on",
        "note": 42,
        "velocity": 30,
        "time": 56620,
        "channel": 9
      },
      {
        "type": "note_off",
        "note": 36,
        "time": 56699,
        "channel": 9
      },
      {
        "type": "note_off",
        "note": 42,
        "time": 56717,
        "channel": 9
      },
      {
        "type": "note_on",
        "note": 38,
        "velocity": 8,
        "time": 56740,
        "channel": 9
      },
      {
        "type": "note_on",
        "note": 42,
        "velocity": 76,
        "time": 56830,
        "channel": 9
      },
      {
        "type": "note_off",
        "note": 38,
        "time": 56832,
        "channel": 9
      },
      {
        "type": "note_on",
        "note": 38,
        "velocity": 36,
        "time": 56832,
        "channel": 9
      },
      {
        "type": "note_off",
        "note": 38,
        "time": 56837,
        "channel": 9
      },
      {
        "type": "note_off",
        "note": 42,
        "time": 56927,
        "channel": 9
      },
      {
        "type": "note_on",
        "note": 37,
        "velocity": 87,
        "time": 57078,
        "channel": 9
      },
      {
        "type": "note_on",
        "note": 36,
        "velocity": 57,
        "time": 57086,
        "channel": 9
      },
      {
        "type": "note_on",
        "note": 42,
        "velocity": 55,
        "time": 57088,
        "channel": 9
      },
      {
        "type": "note_off",
        "note": 37,
        "time": 57175,
        "channel": 9
      },
      {
        "type": "note_off",
        "note": 36,
        "time": 57183,
        "channel": 9
      },
      {
        "type": "note_off",
        "note": 42,
        "time": 57186,
        "channel": 9
      },
      {
        "type": "note_on",
        "note": 46,
        "velocity": 78,
        "time": 57328,
        "channel": 9
      },
      {
        "type": "note_off",
        "note": 46,
        "time": 57424,
        "channel": 9
      },
      {
        "type": "note_on",
        "note": 38,
        "velocity": 17,
        "time": 57482,
        "channel": 9
      },
      {
        "type": "note_on",
        "note": 44,
        "velocity": 35,
        "time": 57530,
        "channel": 9
      },
      {
        "type": "note_on",
        "note": 42,
        "velocity": 40,
        "time": 57555,
        "channel": 9
      },
      {
        "type": "note_on",
        "note": 36,
        "velocity": 56,
        "time": 57563,
        "channel": 9
      },
      {
        "type": "note_off",
        "note": 38,
        "time": 57580,
        "channel": 9
      },
      {
        "type": "note_off",
        "note": 44,
        "time": 57627,
        "channel": 9
      },
      {
        "type": "note_on",
        "note": 38,
        "velocity": 9,
        "time": 57638,
        "channel": 9
      },
      {
        "type": "note_off",
        "note": 42,
        "time": 57652,
        "channel": 9
      },
      {
        "type": "note_off",
        "note": 36,
        "time": 57660,
        "channel": 9
      },
      {
        "type": "note_off",
        "note": 38,
        "time": 57735,
        "channel": 9
      },
      {
        "type": "note_on",
        "note": 42,
        "velocity": 78,
        "time": 57776,
        "channel": 9
      },
      {
        "type": "note_off",
        "note": 42,
        "time": 57874,
        "channel": 9
      },
      {
        "type": "note_on",
        "note": 38,
        "velocity": 97,
        "time": 58011,
        "channel": 9
      },
      {
        "type": "note_on",
        "note": 42,
        "velocity": 52,
        "time": 58024,
        "channel": 9
      },
      {
        "type": "note_on",
        "note": 36,
        "velocity": 60,
        "time": 58043,
        "channel": 9
      },
      {
        "type": "note_off",
        "note": 38,
        "time": 58108,
        "channel": 9
      },
      {
        "type": "note_off",
        "note": 42,
        "time": 58121,
        "channel": 9
      },
      {
        "type": "note_off",
        "note": 36,
        "time": 58139,
        "channel": 9
      },
      {
        "type": "note_on",
        "note": 38,
        "velocity": 10,
        "time": 58139,
        "channel": 9
      },
      {
        "type": "note_off",
        "note": 38,
        "time": 58236,
        "channel": 9
      },
      {
        "type": "note_on",
        "note": 42,
        "velocity": 84,
        "time": 58258,
        "channel": 9
      },
      {
        "type": "note_off",
        "note": 42,
        "time": 58355,
        "channel": 9
      },
      {
        "type": "note_on",
        "note": 38,
        "velocity": 16,
        "time": 58389,
        "channel": 9
      },
      {
        "type": "note_off",
        "note": 38,
        "time": 58486,
        "channel": 9
      },
      {
        "type": "note_on",
        "note": 42,
        "velocity": 41,
        "time": 58492,
        "channel": 9
      },
      {
        "type": "note_on",
        "note": 36,
        "velocity": 50,
        "time": 58517,
        "channel": 9
      },
      {
        "type": "note_off",
        "note": 42,
        "time": 58590,
        "channel": 9
      },
      {
        "type": "note_on",
        "note": 38,
        "velocity": 19,
        "time": 58605,
        "channel": 9
      },
      {
        "type": "note_off",
        "note": 36,
        "time": 58614,
        "channel": 9
      },
      {
        "type": "note_off",
        "note": 38,
        "time": 58702,
        "channel": 9
      },
      {
        "type": "note_on",
        "note": 38,
        "velocity": 39,
        "time": 58731,
        "channel": 9
      },
      {
        "type": "note_on",
        "note": 46,
        "velocity": 80,
        "time": 58733,
        "channel": 9
      },
      {
        "type": "note_off",
        "note": 38,
        "time": 58828,
        "channel": 9
      },
      {
        "type": "note_off",
        "note": 46,
        "time": 58831,
        "channel": 9
      },
      {
        "type": "note_on",
        "note": 44,
        "velocity": 27,
        "time": 58971,
        "channel": 9
      },
      {
        "type": "note_on",
        "note": 37,
        "velocity": 87,
        "time": 58992,
        "channel": 9
      },
      {
        "type": "note_on",
        "note": 42,
        "velocity": 65,
        "time": 59003,
        "channel": 9
      },
      {
        "type": "note_on",
        "note": 36,
        "velocity": 57,
        "time": 59008,
        "channel": 9
      },
      {
        "type": "note_off",
        "note": 44,
        "time": 59069,
        "channel": 9
      },
      {
        "type": "note_off",
        "note": 37,
        "time": 59089,
        "channel": 9
      },
      {
        "type": "note_off",
        "note": 42,
        "time": 59100,
        "channel": 9
      },
      {
        "type": "note_off",
        "note": 36,
        "time": 59105,
        "channel": 9
      },
      {
        "type": "note_on",
        "note": 38,
        "velocity": 16,
        "time": 59126,
        "channel": 9
      },
      {
        "type": "note_off",
        "note": 38,
        "time": 59223,
        "channel": 9
      },
      {
        "type": "note_on",
        "note": 42,
        "velocity": 69,
        "time": 59252,
        "channel": 9
      },
      {
        "type": "note_off",
        "note": 42,
        "time": 59350,
        "channel": 9
      },
      {
        "type": "note_on",
        "note": 38,
        "velocity": 20,
        "time": 59374,
        "channel": 9
      },
      {
        "type": "note_off",
        "note": 38,
        "time": 59410,
        "channel": 9
      },
      {
        "type": "note_on",
        "note": 38,
        "velocity": 19,
        "time": 59410,
        "channel": 9
      },
      {
        "type": "note_off",
        "note": 38,
        "time": 59435,
        "channel": 9
      },
      {
        "type": "note_on",
        "note": 38,
        "velocity": 16,
        "time": 59435,
        "channel": 9
      },
      {
        "type": "note_off",
        "note": 38,
        "time": 59471,
        "channel": 9
      },
      {
        "type": "note_on",
        "note": 42,
        "velocity": 55,
        "time": 59489,
        "channel": 9
      },
      {
        "type": "note_on",
        "note": 36,
        "velocity": 57,
        "time": 59493,
        "channel": 9
      },
      {
        "type": "note_off",
        "note": 42,
        "time": 59586,
        "channel": 9
      },
      {
        "type": "note_off",
        "note": 36,
        "time": 59590,
        "channel": 9
      },
      {
        "type": "note_on",
        "note": 46,
        "velocity": 83,
        "time": 59728,
        "channel": 9
      },
      {
        "type": "note_off",
        "note": 46,
        "time": 59824,
        "channel": 9
      },
      {
        "type": "note_on",
        "note": 44,
        "velocity": 25,
        "time": 59958,
        "channel": 9
      },
      {
        "type": "note_on",
        "note": 38,
        "velocity": 83,
        "time": 59983,
        "channel": 9
      },
      {
        "type": "note_on",
        "note": 42,
        "velocity": 64,
        "time": 59987,
        "channel": 9
      },
      {
        "type": "note_on",
        "note": 36,
        "velocity": 56,
        "time": 59995,
        "channel": 9
      },
      {
        "type": "note_off",
        "note": 44,
        "time": 60055,
        "channel": 9
      },
      {
        "type": "note_off",
        "note": 38,
        "time": 60080,
        "channel": 9
      },
      {
        "type": "note_off",
        "note": 42,
        "time": 60083,
        "channel": 9
      },
      {
        "type": "note_off",
        "note": 36,
        "time": 60092,
        "channel": 9
      },
      {
        "type": "note_on",
        "note": 38,
        "velocity": 15,
        "time": 60120,
        "channel": 9
      },
      {
        "type": "note_off",
        "note": 38,
        "time": 60217,
        "channel": 9
      },
      {
        "type": "note_on",
        "note": 22,
        "velocity": 90,
        "time": 60226,
        "channel": 9
      },
      {
        "type": "note_off",
        "note": 22,
        "time": 60323,
        "channel": 9
      },
      {
        "type": "note_on",
        "note": 38,
        "velocity": 44,
        "time": 60363,
        "channel": 9
      },
      {
        "type": "note_off",
        "note": 38,
        "time": 60460,
        "channel": 9
      },
      {
        "type": "note_on",
        "note": 38,
        "velocity": 36,
        "time": 60479,
        "channel": 9
      },
      {
        "type": "note_on",
        "note": 36,
        "velocity": 55,
        "time": 60489,
        "channel": 9
      },
      {
        "type": "note_off",
        "note": 38,
        "time": 60576,
        "channel": 9
      },
      {
        "type": "note_off",
        "note": 36,
        "time": 60586,
        "channel": 9
      },
      {
        "type": "note_on",
        "note": 38,
        "velocity": 44,
        "time": 60605,
        "channel": 9
      },
      {
        "type": "note_off",
        "note": 38,
        "time": 60702,
        "channel": 9
      },
      {
        "type": "note_on",
        "note": 38,
        "velocity": 56,
        "time": 60719,
        "channel": 9
      },
      {
        "type": "note_off",
        "note": 38,
        "time": 60816,
        "channel": 9
      },
      {
        "type": "note_on",
        "note": 38,
        "velocity": 75,
        "time": 60842,
        "channel": 9
      },
      {
        "type": "note_off",
        "note": 38,
        "time": 60939,
        "channel": 9
      },
      {
        "type": "note_on",
        "note": 38,
        "velocity": 88,
        "time": 60959,
        "channel": 9
      },
      {
        "type": "note_on",
        "note": 36,
        "velocity": 54,
        "time": 60962,
        "channel": 9
      },
      {
        "type": "note_off",
        "note": 38,
        "time": 61056,
        "channel": 9
      },
      {
        "type": "note_off",
        "note": 36,
        "time": 61059,
        "channel": 9
      },
      {
        "type": "note_on",
        "note": 38,
        "velocity": 94,
        "time": 61077,
        "channel": 9
      },
      {
        "type": "note_off",
        "note": 38,
        "time": 61174,
        "channel": 9
      },
      {
        "type": "note_on",
        "note": 38,
        "velocity": 105,
        "time": 61188,
        "channel": 9
      },
      {
        "type": "note_off",
        "note": 38,
        "time": 61284,
        "channel": 9
      },
      {
        "type": "note_on",
        "note": 38,
        "velocity": 106,
        "time": 61317,
        "channel": 9
      },
      {
        "type": "note_off",
        "note": 38,
        "time": 61414,
        "channel": 9
      },
      {
        "type": "note_on",
        "note": 36,
        "velocity": 67,
        "time": 61433,
        "channel": 9
      },
      {
        "type": "note_on",
        "note": 55,
        "velocity": 101,
        "time": 61433,
        "channel": 9
      },
      {
        "type": "note_off",
        "note": 36,
        "time": 61530,
        "channel": 9
      },
      {
        "type": "note_off",
        "note": 55,
        "time": 61530,
        "channel": 9
      },
      {
        "type": "note_on",
        "note": 38,
        "velocity": 33,
        "time": 61547,
        "channel": 9
      },
      {
        "type": "note_off",
        "note": 38,
        "time": 61643,
        "channel": 9
      },
      {
        "type": "note_on",
        "note": 38,
        "velocity": 16,
        "time": 61651,
        "channel": 9
      },
      {
        "type": "note_on",
        "note": 26,
        "velocity": 80,
        "time": 61663,
        "channel": 9
      },
      {
        "type": "note_off",
        "note": 38,
        "time": 61748,
        "channel": 9
      },
      {
        "type": "note_off",
        "note": 26,
        "time": 61759,
        "channel": 9
      },
      {
        "type": "note_on",
        "note": 44,
        "velocity": 42,
        "time": 61878,
        "channel": 9
      },
      {
        "type": "note_on",
        "note": 37,
        "velocity": 83,
        "time": 61909,
        "channel": 9
      },
      {
        "type": "note_on",
        "note": 42,
        "velocity": 53,
        "time": 61918,
        "channel": 9
      },
      {
        "type": "note_on",
        "note": 36,
        "velocity": 57,
        "time": 61922,
        "channel": 9
      },
      {
        "type": "note_off",
        "note": 44,
        "time": 61975,
        "channel": 9
      },
      {
        "type": "note_off",
        "note": 37,
        "time": 62006,
        "channel": 9
      },
      {
        "type": "note_off",
        "note": 42,
        "time": 62016,
        "channel": 9
      },
      {
        "type": "note_off",
        "note": 36,
        "time": 62019,
        "channel": 9
      },
      {
        "type": "note_on",
        "note": 38,
        "velocity": 27,
        "time": 62043,
        "channel": 9
      },
      {
        "type": "note_off",
        "note": 38,
        "time": 62141,
        "channel": 9
      },
      {
        "type": "note_on",
        "note": 42,
        "velocity": 59,
        "time": 62155,
        "channel": 9
      },
      {
        "type": "note_off",
        "note": 42,
        "time": 62252,
        "channel": 9
      },
      {
        "type": "note_on",
        "note": 38,
        "velocity": 28,
        "time": 62284,
        "channel": 9
      },
      {
        "type": "note_off",
        "note": 38,
        "time": 62381,
        "channel": 9
      },
      {
        "type": "note_on",
        "note": 22,
        "velocity": 49,
        "time": 62389,
        "channel": 9
      },
      {
        "type": "note_on",
        "note": 36,
        "velocity": 58,
        "time": 62392,
        "channel": 9
      },
      {
        "type": "note_off",
        "note": 22,
        "time": 62486,
        "channel": 9
      },
      {
        "type": "note_on",
        "note": 38,
        "velocity": 32,
        "time": 62486,
        "channel": 9
      },
      {
        "type": "note_off",
        "note": 36,
        "time": 62489,
        "channel": 9
      },
      {
        "type": "note_off",
        "note": 38,
        "time": 62583,
        "channel": 9
      },
      {
        "type": "note_on",
        "note": 38,
        "velocity": 48,
        "time": 62602,
        "channel": 9
      },
      {
        "type": "note_on",
        "note": 46,
        "velocity": 75,
        "time": 62605,
        "channel": 9
      },
      {
        "type": "note_off",
        "note": 38,
        "time": 62698,
        "channel": 9
      },
      {
        "type": "note_off",
        "note": 46,
        "time": 62702,
        "channel": 9
      },
      {
        "type": "note_on",
        "note": 44,
        "velocity": 32,
        "time": 62837,
        "channel": 9
      },
      {
        "type": "note_on",
        "note": 38,
        "velocity": 101,
        "time": 62862,
        "channel": 9
      },
      {
        "type": "note_on",
        "note": 36,
        "velocity": 49,
        "time": 62871,
        "channel": 9
      },
      {
        "type": "note_on",
        "note": 42,
        "velocity": 53,
        "time": 62871,
        "channel": 9
      },
      {
        "type": "note_off",
        "note": 44,
        "time": 62934,
        "channel": 9
      },
      {
        "type": "note_off",
        "note": 38,
        "time": 62959,
        "channel": 9
      },
      {
        "type": "note_off",
        "note": 36,
        "time": 62968,
        "channel": 9
      },
      {
        "type": "note_off",
        "note": 42,
        "time": 62968,
        "channel": 9
      },
      {
        "type": "note_on",
        "note": 38,
        "velocity": 25,
        "time": 62991,
        "channel": 9
      },
      {
        "type": "note_off",
        "note": 38,
        "time": 63088,
        "channel": 9
      },
      {
        "type": "note_on",
        "note": 42,
        "velocity": 64,
        "time": 63102,
        "channel": 9
      },
      {
        "type": "note_off",
        "note": 42,
        "time": 63199,
        "channel": 9
      },
      {
        "type": "note_on",
        "note": 38,
        "velocity": 51,
        "time": 63225,
        "channel": 9
      },
      {
        "type": "note_on",
        "note": 42,
        "velocity": 50,
        "time": 63235,
        "channel": 9
      },
      {
        "type": "note_off",
        "note": 38,
        "time": 63322,
        "channel": 9
      },
      {
        "type": "note_off",
        "note": 42,
        "time": 63332,
        "channel": 9
      },
      {
        "type": "note_on",
        "note": 22,
        "velocity": 53,
        "time": 63338,
        "channel": 9
      },
      {
        "type": "note_on",
        "note": 36,
        "velocity": 52,
        "time": 63356,
        "channel": 9
      },
      {
        "type": "note_off",
        "note": 22,
        "time": 63435,
        "channel": 9
      },
      {
        "type": "note_off",
        "note": 36,
        "time": 63453,
        "channel": 9
      },
      {
        "type": "note_on",
        "note": 38,
        "velocity": 25,
        "time": 63472,
        "channel": 9
      },
      {
        "type": "note_off",
        "note": 38,
        "time": 63569,
        "channel": 9
      },
      {
        "type": "note_on",
        "note": 38,
        "velocity": 40,
        "time": 63577,
        "channel": 9
      },
      {
        "type": "note_on",
        "note": 42,
        "velocity": 65,
        "time": 63587,
        "channel": 9
      },
      {
        "type": "note_off",
        "note": 38,
        "time": 63674,
        "channel": 9
      },
      {
        "type": "note_off",
        "note": 42,
        "time": 63684,
        "channel": 9
      },
      {
        "type": "note_on",
        "note": 38,
        "velocity": 87,
        "time": 63825,
        "channel": 9
      },
      {
        "type": "note_on",
        "note": 36,
        "velocity": 56,
        "time": 63827,
        "channel": 9
      },
      {
        "type": "note_on",
        "note": 22,
        "velocity": 52,
        "time": 63842,
        "channel": 9
      },
      {
        "type": "note_off",
        "note": 38,
        "time": 63921,
        "channel": 9
      },
      {
        "type": "note_off",
        "note": 36,
        "time": 63924,
        "channel": 9
      },
      {
        "type": "note_off",
        "note": 22,
        "time": 63939,
        "channel": 9
      },
      {
        "type": "note_on",
        "note": 38,
        "velocity": 23,
        "time": 63968,
        "channel": 9
      },
      {
        "type": "note_off",
        "note": 38,
        "time": 64064,
        "channel": 9
      },
      {
        "type": "note_on",
        "note": 42,
        "velocity": 67,
        "time": 64064,
        "channel": 9
      },
      {
        "type": "note_off",
        "note": 42,
        "time": 64162,
        "channel": 9
      },
      {
        "type": "note_on",
        "note": 42,
        "velocity": 47,
        "time": 64188,
        "channel": 9
      },
      {
        "type": "note_on",
        "note": 38,
        "velocity": 45,
        "time": 64189,
        "channel": 9
      },
      {
        "type": "note_off",
        "note": 38,
        "time": 64285,
        "channel": 9
      },
      {
        "type": "note_off",
        "note": 42,
        "time": 64285,
        "channel": 9
      },
      {
        "type": "note_on",
        "note": 42,
        "velocity": 39,
        "time": 64291,
        "channel": 9
      },
      {
        "type": "note_on",
        "note": 36,
        "velocity": 52,
        "time": 64315,
        "channel": 9
      },
      {
        "type": "note_off",
        "note": 42,
        "time": 64389,
        "channel": 9
      },
      {
        "type": "note_on",
        "note": 38,
        "velocity": 34,
        "time": 64407,
        "channel": 9
      },
      {
        "type": "note_off",
        "note": 36,
        "time": 64412,
        "channel": 9
      },
      {
        "type": "note_off",
        "note": 38,
        "time": 64504,
        "channel": 9
      },
      {
        "type": "note_on",
        "note": 38,
        "velocity": 48,
        "time": 64507,
        "channel": 9
      },
      {
        "type": "note_on",
        "note": 22,
        "velocity": 85,
        "time": 64518,
        "channel": 9
      },
      {
        "type": "note_off",
        "note": 38,
        "time": 64603,
        "channel": 9
      },
      {
        "type": "note_off",
        "note": 22,
        "time": 64614,
        "channel": 9
      },
      {
        "type": "note_on",
        "note": 37,
        "velocity": 86,
        "time": 64766,
        "channel": 9
      },
      {
        "type": "note_on",
        "note": 36,
        "velocity": 56,
        "time": 64769,
        "channel": 9
      },
      {
        "type": "note_on",
        "note": 42,
        "velocity": 63,
        "time": 64775,
        "channel": 9
      },
      {
        "type": "note_off",
        "note": 37,
        "time": 64862,
        "channel": 9
      },
      {
        "type": "note_off",
        "note": 36,
        "time": 64866,
        "channel": 9
      },
      {
        "type": "note_off",
        "note": 42,
        "time": 64872,
        "channel": 9
      },
      {
        "type": "note_on",
        "note": 38,
        "velocity": 19,
        "time": 64893,
        "channel": 9
      },
      {
        "type": "note_off",
        "note": 38,
        "time": 64990,
        "channel": 9
      },
      {
        "type": "note_on",
        "note": 42,
        "velocity": 84,
        "time": 65012,
        "channel": 9
      },
      {
        "type": "note_off",
        "note": 42,
        "time": 65110,
        "channel": 9
      },
      {
        "type": "note_on",
        "note": 38,
        "velocity": 15,
        "time": 65131,
        "channel": 9
      },
      {
        "type": "note_off",
        "note": 38,
        "time": 65170,
        "channel": 9
      },
      {
        "type": "note_on",
        "note": 38,
        "velocity": 17,
        "time": 65170,
        "channel": 9
      },
      {
        "type": "note_off",
        "note": 38,
        "time": 65193,
        "channel": 9
      },
      {
        "type": "note_on",
        "note": 38,
        "velocity": 18,
        "time": 65193,
        "channel": 9
      },
      {
        "type": "note_off",
        "note": 38,
        "time": 65228,
        "channel": 9
      },
      {
        "type": "note_on",
        "note": 22,
        "velocity": 49,
        "time": 65249,
        "channel": 9
      },
      {
        "type": "note_on",
        "note": 36,
        "velocity": 54,
        "time": 65260,
        "channel": 9
      },
      {
        "type": "note_off",
        "note": 22,
        "time": 65346,
        "channel": 9
      },
      {
        "type": "note_off",
        "note": 36,
        "time": 65357,
        "channel": 9
      },
      {
        "type": "note_on",
        "note": 38,
        "velocity": 23,
        "time": 65396,
        "channel": 9
      },
      {
        "type": "note_on",
        "note": 42,
        "velocity": 84,
        "time": 65479,
        "channel": 9
      },
      {
        "type": "note_off",
        "note": 38,
        "time": 65493,
        "channel": 9
      },
      {
        "type": "note_off",
        "note": 42,
        "time": 65576,
        "channel": 9
      },
      {
        "type": "note_on",
        "note": 38,
        "velocity": 79,
        "time": 65720,
        "channel": 9
      },
      {
        "type": "note_on",
        "note": 42,
        "velocity": 45,
        "time": 65726,
        "channel": 9
      },
      {
        "type": "note_on",
        "note": 36,
        "velocity": 56,
        "time": 65738,
        "channel": 9
      },
      {
        "type": "note_off",
        "note": 38,
        "time": 65817,
        "channel": 9
      },
      {
        "type": "note_off",
        "note": 42,
        "time": 65823,
        "channel": 9
      },
      {
        "type": "note_off",
        "note": 36,
        "time": 65835,
        "channel": 9
      },
      {
        "type": "note_on",
        "note": 22,
        "velocity": 40,
        "time": 65848,
        "channel": 9
      },
      {
        "type": "note_on",
        "note": 38,
        "velocity": 7,
        "time": 65854,
        "channel": 9
      },
      {
        "type": "note_off",
        "note": 22,
        "time": 65945,
        "channel": 9
      },
      {
        "type": "note_off",
        "note": 38,
        "time": 65951,
        "channel": 9
      },
      {
        "type": "note_on",
        "note": 26,
        "velocity": 92,
        "time": 65962,
        "channel": 9
      },
      {
        "type": "note_off",
        "note": 26,
        "time": 66059,
        "channel": 9
      },
      {
        "type": "note_on",
        "note": 38,
        "velocity": 33,
        "time": 66115,
        "channel": 9
      },
      {
        "type": "note_off",
        "note": 38,
        "time": 66147,
        "channel": 9
      },
      {
        "type": "note_on",
        "note": 38,
        "velocity": 35,
        "time": 66147,
        "channel": 9
      },
      {
        "type": "note_off",
        "note": 38,
        "time": 66212,
        "channel": 9
      },
      {
        "type": "note_on",
        "note": 42,
        "velocity": 41,
        "time": 66228,
        "channel": 9
      },
      {
        "type": "note_on",
        "note": 36,
        "velocity": 52,
        "time": 66234,
        "channel": 9
      },
      {
        "type": "note_off",
        "note": 42,
        "time": 66325,
        "channel": 9
      },
      {
        "type": "note_off",
        "note": 36,
        "time": 66331,
        "channel": 9
      },
      {
        "type": "note_on",
        "note": 38,
        "velocity": 19,
        "time": 66357,
        "channel": 9
      },
      {
        "type": "note_on",
        "note": 22,
        "velocity": 91,
        "time": 66450,
        "channel": 9
      },
      {
        "type": "note_off",
        "note": 38,
        "time": 66454,
        "channel": 9
      },
      {
        "type": "note_off",
        "note": 22,
        "time": 66547,
        "channel": 9
      },
      {
        "type": "note_on",
        "note": 38,
        "velocity": 89,
        "time": 66715,
        "channel": 9
      },
      {
        "type": "note_on",
        "note": 36,
        "velocity": 58,
        "time": 66717,
        "channel": 9
      },
      {
        "type": "note_on",
        "note": 42,
        "velocity": 62,
        "time": 66717,
        "channel": 9
      },
      {
        "type": "note_off",
        "note": 38,
        "time": 66812,
        "channel": 9
      },
      {
        "type": "note_off",
        "note": 36,
        "time": 66815,
        "channel": 9
      },
      {
        "type": "note_off",
        "note": 42,
        "time": 66815,
        "channel": 9
      },
      {
        "type": "note_on",
        "note": 38,
        "velocity": 26,
        "time": 66856,
        "channel": 9
      },
      {
        "type": "note_off",
        "note": 38,
        "time": 66953,
        "channel": 9
      },
      {
        "type": "note_on",
        "note": 42,
        "velocity": 54,
        "time": 66953,
        "channel": 9
      },
      {
        "type": "note_off",
        "note": 42,
        "time": 67051,
        "channel": 9
      },
      {
        "type": "note_on",
        "note": 38,
        "velocity": 17,
        "time": 67099,
        "channel": 9
      },
      {
        "type": "note_off",
        "note": 38,
        "time": 67195,
        "channel": 9
      },
      {
        "type": "note_on",
        "note": 36,
        "velocity": 56,
        "time": 67202,
        "channel": 9
      },
      {
        "type": "note_on",
        "note": 42,
        "velocity": 38,
        "time": 67209,
        "channel": 9
      },
      {
        "type": "note_off",
        "note": 36,
        "time": 67299,
        "channel": 9
      },
      {
        "type": "note_off",
        "note": 42,
        "time": 67306,
        "channel": 9
      },
      {
        "type": "note_on",
        "note": 26,
        "velocity": 78,
        "time": 67433,
        "channel": 9
      },
      {
        "type": "note_off",
        "note": 26,
        "time": 67530,
        "channel": 9
      },
      {
        "type": "note_on",
        "note": 42,
        "velocity": 60,
        "time": 67687,
        "channel": 9
      },
      {
        "type": "note_on",
        "note": 37,
        "velocity": 83,
        "time": 67688,
        "channel": 9
      },
      {
        "type": "note_on",
        "note": 36,
        "velocity": 55,
        "time": 67689,
        "channel": 9
      },
      {
        "type": "note_off",
        "note": 37,
        "time": 67784,
        "channel": 9
      },
      {
        "type": "note_off",
        "note": 42,
        "time": 67784,
        "channel": 9
      },
      {
        "type": "note_off",
        "note": 36,
        "time": 67786,
        "channel": 9
      },
      {
        "type": "note_on",
        "note": 38,
        "velocity": 26,
        "time": 67809,
        "channel": 9
      },
      {
        "type": "note_off",
        "note": 38,
        "time": 67837,
        "channel": 9
      },
      {
        "type": "note_on",
        "note": 38,
        "velocity": 18,
        "time": 67837,
        "channel": 9
      },
      {
        "type": "note_off",
        "note": 38,
        "time": 67905,
        "channel": 9
      },
      {
        "type": "note_on",
        "note": 42,
        "velocity": 70,
        "time": 67922,
        "channel": 9
      },
      {
        "type": "note_off",
        "note": 42,
        "time": 68020,
        "channel": 9
      },
      {
        "type": "note_on",
        "note": 38,
        "velocity": 20,
        "time": 68050,
        "channel": 9
      },
      {
        "type": "note_off",
        "note": 38,
        "time": 68147,
        "channel": 9
      },
      {
        "type": "note_on",
        "note": 42,
        "velocity": 36,
        "time": 68158,
        "channel": 9
      },
      {
        "type": "note_on",
        "note": 36,
        "velocity": 55,
        "time": 68165,
        "channel": 9
      },
      {
        "type": "note_off",
        "note": 42,
        "time": 68255,
        "channel": 9
      },
      {
        "type": "note_off",
        "note": 36,
        "time": 68262,
        "channel": 9
      },
      {
        "type": "note_on",
        "note": 37,
        "velocity": 87,
        "time": 68289,
        "channel": 9
      },
      {
        "type": "note_off",
        "note": 37,
        "time": 68386,
        "channel": 9
      },
      {
        "type": "note_on",
        "note": 22,
        "velocity": 92,
        "time": 68389,
        "channel": 9
      },
      {
        "type": "note_off",
        "note": 22,
        "time": 68486,
        "channel": 9
      },
      {
        "type": "note_on",
        "note": 22,
        "velocity": 68,
        "time": 68624,
        "channel": 9
      },
      {
        "type": "note_on",
        "note": 38,
        "velocity": 91,
        "time": 68626,
        "channel": 9
      },
      {
        "type": "note_on",
        "note": 36,
        "velocity": 56,
        "time": 68641,
        "channel": 9
      },
      {
        "type": "note_off",
        "note": 22,
        "time": 68721,
        "channel": 9
      },
      {
        "type": "note_off",
        "note": 38,
        "time": 68723,
        "channel": 9
      },
      {
        "type": "note_off",
        "note": 36,
        "time": 68738,
        "channel": 9
      },
      {
        "type": "note_on",
        "note": 38,
        "velocity": 19,
        "time": 68762,
        "channel": 9
      },
      {
        "type": "note_on",
        "note": 42,
        "velocity": 77,
        "time": 68857,
        "channel": 9
      },
      {
        "type": "note_off",
        "note": 38,
        "time": 68859,
        "channel": 9
      },
      {
        "type": "note_off",
        "note": 42,
        "time": 68954,
        "channel": 9
      },
      {
        "type": "note_on",
        "note": 38,
        "velocity": 37,
        "time": 68984,
        "channel": 9
      },
      {
        "type": "note_off",
        "note": 38,
        "time": 69046,
        "channel": 9
      },
      {
        "type": "note_on",
        "note": 38,
        "velocity": 40,
        "time": 69046,
        "channel": 9
      },
      {
        "type": "note_off",
        "note": 38,
        "time": 69080,
        "channel": 9
      },
      {
        "type": "note_on",
        "note": 38,
        "velocity": 33,
        "time": 69082,
        "channel": 9
      },
      {
        "type": "note_on",
        "note": 55,
        "velocity": 99,
        "time": 69095,
        "channel": 9
      },
      {
        "type": "note_on",
        "note": 36,
        "velocity": 62,
        "time": 69101,
        "channel": 9
      },
      {
        "type": "note_off",
        "note": 38,
        "time": 69144,
        "channel": 9
      },
      {
        "type": "note_off",
        "note": 55,
        "time": 69193,
        "channel": 9
      },
      {
        "type": "note_off",
        "note": 36,
        "time": 69197,
        "channel": 9
      },
      {
        "type": "note_on",
        "note": 38,
        "velocity": 32,
        "time": 69256,
        "channel": 9
      },
      {
        "type": "note_on",
        "note": 22,
        "velocity": 79,
        "time": 69333,
        "channel": 9
      },
      {
        "type": "note_off",
        "note": 38,
        "time": 69353,
        "channel": 9
      },
      {
        "type": "note_off",
        "note": 22,
        "time": 69431,
        "channel": 9
      },
      {
        "type": "note_on",
        "note": 38,
        "velocity": 80,
        "time": 69568,
        "channel": 9
      },
      {
        "type": "note_on",
        "note": 42,
        "velocity": 45,
        "time": 69572,
        "channel": 9
      },
      {
        "type": "note_on",
        "note": 36,
        "velocity": 53,
        "time": 69592,
        "channel": 9
      },
      {
        "type": "note_off",
        "note": 38,
        "time": 69665,
        "channel": 9
      },
      {
        "type": "note_off",
        "note": 42,
        "time": 69669,
        "channel": 9
      },
      {
        "type": "note_off",
        "note": 36,
        "time": 69689,
        "channel": 9
      },
      {
        "type": "note_on",
        "note": 38,
        "velocity": 26,
        "time": 69723,
        "channel": 9
      },
      {
        "type": "note_on",
        "note": 22,
        "velocity": 88,
        "time": 69816,
        "channel": 9
      },
      {
        "type": "note_off",
        "note": 38,
        "time": 69820,
        "channel": 9
      },
      {
        "type": "note_off",
        "note": 22,
        "time": 69913,
        "channel": 9
      },
      {
        "type": "note_on",
        "note": 38,
        "velocity": 27,
        "time": 69958,
        "channel": 9
      },
      {
        "type": "note_off",
        "note": 38,
        "time": 70056,
        "channel": 9
      },
      {
        "type": "note_on",
        "note": 22,
        "velocity": 50,
        "time": 70059,
        "channel": 9
      },
      {
        "type": "note_on",
        "note": 36,
        "velocity": 50,
        "time": 70059,
        "channel": 9
      },
      {
        "type": "note_off",
        "note": 22,
        "time": 70156,
        "channel": 9
      },
      {
        "type": "note_off",
        "note": 36,
        "time": 70156,
        "channel": 9
      },
      {
        "type": "note_on",
        "note": 38,
        "velocity": 26,
        "time": 70190,
        "channel": 9
      },
      {
        "type": "note_off",
        "note": 38,
        "time": 70287,
        "channel": 9
      },
      {
        "type": "note_on",
        "note": 38,
        "velocity": 41,
        "time": 70292,
        "channel": 9
      },
      {
        "type": "note_on",
        "note": 46,
        "velocity": 77,
        "time": 70293,
        "channel": 9
      },
      {
        "type": "note_off",
        "note": 38,
        "time": 70389,
        "channel": 9
      },
      {
        "type": "note_off",
        "note": 46,
        "time": 70389,
        "channel": 9
      },
      {
        "type": "note_on",
        "note": 44,
        "velocity": 37,
        "time": 70521,
        "channel": 9
      },
      {
        "type": "note_on",
        "note": 36,
        "velocity": 61,
        "time": 70548,
        "channel": 9
      },
      {
        "type": "note_on",
        "note": 38,
        "velocity": 93,
        "time": 70551,
        "channel": 9
      },
      {
        "type": "note_on",
        "note": 42,
        "velocity": 46,
        "time": 70551,
        "channel": 9
      },
      {
        "type": "note_off",
        "note": 44,
        "time": 70618,
        "channel": 9
      },
      {
        "type": "note_off",
        "note": 36,
        "time": 70645,
        "channel": 9
      },
      {
        "type": "note_off",
        "note": 38,
        "time": 70648,
        "channel": 9
      },
      {
        "type": "note_off",
        "note": 42,
        "time": 70648,
        "channel": 9
      },
      {
        "type": "note_on",
        "note": 38,
        "velocity": 6,
        "time": 70704,
        "channel": 9
      },
      {
        "type": "note_on",
        "note": 42,
        "velocity": 69,
        "time": 70789,
        "channel": 9
      },
      {
        "type": "note_off",
        "note": 38,
        "time": 70801,
        "channel": 9
      },
      {
        "type": "note_off",
        "note": 42,
        "time": 70886,
        "channel": 9
      },
      {
        "type": "note_on",
        "note": 38,
        "velocity": 49,
        "time": 70905,
        "channel": 9
      },
      {
        "type": "note_off",
        "note": 38,
        "time": 71001,
        "channel": 9
      },
      {
        "type": "note_on",
        "note": 22,
        "velocity": 29,
        "time": 71024,
        "channel": 9
      },
      {
        "type": "note_on",
        "note": 36,
        "velocity": 58,
        "time": 71032,
        "channel": 9
      },
      {
        "type": "note_off",
        "note": 22,
        "time": 71121,
        "channel": 9
      },
      {
        "type": "note_off",
        "note": 36,
        "time": 71128,
        "channel": 9
      },
      {
        "type": "note_on",
        "note": 38,
        "velocity": 20,
        "time": 71136,
        "channel": 9
      },
      {
        "type": "note_off",
        "note": 38,
        "time": 71233,
        "channel": 9
      },
      {
        "type": "note_on",
        "note": 38,
        "velocity": 42,
        "time": 71255,
        "channel": 9
      },
      {
        "type": "note_on",
        "note": 42,
        "velocity": 69,
        "time": 71268,
        "channel": 9
      },
      {
        "type": "note_off",
        "note": 38,
        "time": 71352,
        "channel": 9
      },
      {
        "type": "note_off",
        "note": 42,
        "time": 71365,
        "channel": 9
      },
      {
        "type": "note_on",
        "note": 38,
        "velocity": 90,
        "time": 71500,
        "channel": 9
      },
      {
        "type": "note_on",
        "note": 22,
        "velocity": 32,
        "time": 71513,
        "channel": 9
      },
      {
        "type": "note_on",
        "note": 36,
        "velocity": 60,
        "time": 71515,
        "channel": 9
      },
      {
        "type": "note_off",
        "note": 38,
        "time": 71597,
        "channel": 9
      },
      {
        "type": "note_off",
        "note": 22,
        "time": 71610,
        "channel": 9
      },
      {
        "type": "note_off",
        "note": 36,
        "time": 71612,
        "channel": 9
      },
      {
        "type": "note_on",
        "note": 38,
        "velocity": 26,
        "time": 71646,
        "channel": 9
      },
      {
        "type": "note_off",
        "note": 38,
        "time": 71742,
        "channel": 9
      },
      {
        "type": "note_on",
        "note": 42,
        "velocity": 53,
        "time": 71745,
        "channel": 9
      },
      {
        "type": "note_off",
        "note": 42,
        "time": 71841,
        "channel": 9
      },
      {
        "type": "note_on",
        "note": 38,
        "velocity": 83,
        "time": 71864,
        "channel": 9
      },
      {
        "type": "note_off",
        "note": 38,
        "time": 71960,
        "channel": 9
      },
      {
        "type": "note_on",
        "note": 42,
        "velocity": 22,
        "time": 71972,
        "channel": 9
      },
      {
        "type": "note_on",
        "note": 36,
        "velocity": 56,
        "time": 71985,
        "channel": 9
      },
      {
        "type": "note_off",
        "note": 42,
        "time": 72070,
        "channel": 9
      },
      {
        "type": "note_off",
        "note": 36,
        "time": 72082,
        "channel": 9
      },
      {
        "type": "note_on",
        "note": 38,
        "velocity": 16,
        "time": 72105,
        "channel": 9
      },
      {
        "type": "note_off",
        "note": 38,
        "time": 72201,
        "channel": 9
      },
      {
        "type": "note_on",
        "note": 42,
        "velocity": 78,
        "time": 72211,
        "channel": 9
      },
      {
        "type": "note_on",
        "note": 38,
        "velocity": 39,
        "time": 72213,
        "channel": 9
      },
      {
        "type": "note_off",
        "note": 42,
        "time": 72308,
        "channel": 9
      },
      {
        "type": "note_off",
        "note": 38,
        "time": 72310,
        "channel": 9
      },
      {
        "type": "note_on",
        "note": 42,
        "velocity": 50,
        "time": 72453,
        "channel": 9
      },
      {
        "type": "note_on",
        "note": 38,
        "velocity": 74,
        "time": 72454,
        "channel": 9
      },
      {
        "type": "note_on",
        "note": 36,
        "velocity": 53,
        "time": 72465,
        "channel": 9
      },
      {
        "type": "note_off",
        "note": 42,
        "time": 72550,
        "channel": 9
      },
      {
        "type": "note_off",
        "note": 38,
        "time": 72552,
        "channel": 9
      },
      {
        "type": "note_off",
        "note": 36,
        "time": 72561,
        "channel": 9
      },
      {
        "type": "note_on",
        "note": 42,
        "velocity": 78,
        "time": 72688,
        "channel": 9
      },
      {
        "type": "note_off",
        "note": 42,
        "time": 72786,
        "channel": 9
      },
      {
        "type": "note_on",
        "note": 38,
        "velocity": 21,
        "time": 72796,
        "channel": 9
      },
      {
        "type": "note_off",
        "note": 38,
        "time": 72835,
        "channel": 9
      },
      {
        "type": "note_on",
        "note": 38,
        "velocity": 16,
        "time": 72835,
        "channel": 9
      },
      {
        "type": "note_off",
        "note": 38,
        "time": 72860,
        "channel": 9
      },
      {
        "type": "note_on",
        "note": 38,
        "velocity": 20,
        "time": 72860,
        "channel": 9
      },
      {
        "type": "note_off",
        "note": 38,
        "time": 72893,
        "channel": 9
      },
      {
        "type": "note_on",
        "note": 42,
        "velocity": 43,
        "time": 72932,
        "channel": 9
      },
      {
        "type": "note_on",
        "note": 36,
        "velocity": 56,
        "time": 72938,
        "channel": 9
      },
      {
        "type": "note_off",
        "note": 42,
        "time": 73029,
        "channel": 9
      },
      {
        "type": "note_off",
        "note": 36,
        "time": 73035,
        "channel": 9
      },
      {
        "type": "note_on",
        "note": 38,
        "velocity": 21,
        "time": 73057,
        "channel": 9
      },
      {
        "type": "note_off",
        "note": 38,
        "time": 73151,
        "channel": 9
      },
      {
        "type": "note_on",
        "note": 38,
        "velocity": 13,
        "time": 73151,
        "channel": 9
      },
      {
        "type": "note_off",
        "note": 38,
        "time": 73154,
        "channel": 9
      },
      {
        "type": "note_on",
        "note": 42,
        "velocity": 84,
        "time": 73168,
        "channel": 9
      },
      {
        "type": "note_off",
        "note": 42,
        "time": 73266,
        "channel": 9
      },
      {
        "type": "note_on",
        "note": 37,
        "velocity": 75,
        "time": 73420,
        "channel": 9
      },
      {
        "type": "note_on",
        "note": 42,
        "velocity": 62,
        "time": 73423,
        "channel": 9
      },
      {
        "type": "note_on",
        "note": 36,
        "velocity": 56,
        "time": 73425,
        "channel": 9
      },
      {
        "type": "note_off",
        "note": 37,
        "time": 73517,
        "channel": 9
      },
      {
        "type": "note_off",
        "note": 36,
        "time": 73520,
        "channel": 9
      },
      {
        "type": "note_off",
        "note": 42,
        "time": 73520,
        "channel": 9
      },
      {
        "type": "note_on",
        "note": 38,
        "velocity": 18,
        "time": 73548,
        "channel": 9
      },
      {
        "type": "note_off",
        "note": 38,
        "time": 73644,
        "channel": 9
      },
      {
        "type": "note_on",
        "note": 42,
        "velocity": 60,
        "time": 73663,
        "channel": 9
      },
      {
        "type": "note_off",
        "note": 42,
        "time": 73760,
        "channel": 9
      },
      {
        "type": "note_on",
        "note": 38,
        "velocity": 67,
        "time": 73788,
        "channel": 9
      },
      {
        "type": "note_off",
        "note": 38,
        "time": 73885,
        "channel": 9
      },
      {
        "type": "note_on",
        "note": 42,
        "velocity": 51,
        "time": 73897,
        "channel": 9
      },
      {
        "type": "note_on",
        "note": 36,
        "velocity": 53,
        "time": 73917,
        "channel": 9
      },
      {
        "type": "note_off",
        "note": 42,
        "time": 73995,
        "channel": 9
      },
      {
        "type": "note_off",
        "note": 36,
        "time": 74014,
        "channel": 9
      },
      {
        "type": "note_on",
        "note": 38,
        "velocity": 19,
        "time": 74025,
        "channel": 9
      },
      {
        "type": "note_off",
        "note": 38,
        "time": 74122,
        "channel": 9
      },
      {
        "type": "note_on",
        "note": 46,
        "velocity": 61,
        "time": 74130,
        "channel": 9
      },
      {
        "type": "note_off",
        "note": 46,
        "time": 74227,
        "channel": 9
      },
      {
        "type": "note_on",
        "note": 44,
        "velocity": 37,
        "time": 74357,
        "channel": 9
      },
      {
        "type": "note_on",
        "note": 38,
        "velocity": 73,
        "time": 74381,
        "channel": 9
      },
      {
        "type": "note_on",
        "note": 42,
        "velocity": 61,
        "time": 74388,
        "channel": 9
      },
      {
        "type": "note_on",
        "note": 36,
        "velocity": 55,
        "time": 74395,
        "channel": 9
      },
      {
        "type": "note_off",
        "note": 44,
        "time": 74454,
        "channel": 9
      },
      {
        "type": "note_off",
        "note": 38,
        "time": 74477,
        "channel": 9
      },
      {
        "type": "note_off",
        "note": 42,
        "time": 74486,
        "channel": 9
      },
      {
        "type": "note_off",
        "note": 36,
        "time": 74492,
        "channel": 9
      },
      {
        "type": "note_on",
        "note": 38,
        "velocity": 24,
        "time": 74515,
        "channel": 9
      },
      {
        "type": "note_off",
        "note": 38,
        "time": 74612,
        "channel": 9
      },
      {
        "type": "note_on",
        "note": 42,
        "velocity": 66,
        "time": 74616,
        "channel": 9
      },
      {
        "type": "note_off",
        "note": 42,
        "time": 74714,
        "channel": 9
      },
      {
        "type": "note_on",
        "note": 38,
        "velocity": 33,
        "time": 74736,
        "channel": 9
      },
      {
        "type": "note_off",
        "note": 38,
        "time": 74833,
        "channel": 9
      },
      {
        "type": "note_on",
        "note": 42,
        "velocity": 48,
        "time": 74852,
        "channel": 9
      },
      {
        "type": "note_on",
        "note": 36,
        "velocity": 54,
        "time": 74866,
        "channel": 9
      },
      {
        "type": "note_off",
        "note": 42,
        "time": 74950,
        "channel": 9
      },
      {
        "type": "note_off",
        "note": 36,
        "time": 74963,
        "channel": 9
      },
      {
        "type": "note_on",
        "note": 38,
        "velocity": 31,
        "time": 74985,
        "channel": 9
      },
      {
        "type": "note_off",
        "note": 38,
        "time": 75081,
        "channel": 9
      },
      {
        "type": "note_on",
        "note": 38,
        "velocity": 38,
        "time": 75083,
        "channel": 9
      },
      {
        "type": "note_off",
        "note": 38,
        "time": 75180,
        "channel": 9
      },
      {
        "type": "note_on",
        "note": 38,
        "velocity": 46,
        "time": 75208,
        "channel": 9
      },
      {
        "type": "note_off",
        "note": 38,
        "time": 75305,
        "channel": 9
      },
      {
        "type": "note_on",
        "note": 38,
        "velocity": 34,
        "time": 75335,
        "channel": 9
      },
      {
        "type": "note_on",
        "note": 36,
        "velocity": 54,
        "time": 75342,
        "channel": 9
      },
      {
        "type": "note_off",
        "note": 38,
        "time": 75432,
        "channel": 9
      },
      {
        "type": "note_off",
        "note": 36,
        "time": 75438,
        "channel": 9
      },
      {
        "type": "note_on",
        "note": 38,
        "velocity": 38,
        "time": 75460,
        "channel": 9
      },
      {
        "type": "note_off",
        "note": 38,
        "time": 75556,
        "channel": 9
      },
      {
        "type": "note_on",
        "note": 38,
        "velocity": 39,
        "time": 75571,
        "channel": 9
      },
      {
        "type": "note_off",
        "note": 38,
        "time": 75668,
        "channel": 9
      },
      {
        "type": "note_on",
        "note": 38,
        "velocity": 55,
        "time": 75703,
        "channel": 9
      },
      {
        "type": "note_off",
        "note": 38,
        "time": 75799,
        "channel": 9
      },
      {
        "type": "note_on",
        "note": 38,
        "velocity": 49,
        "time": 75814,
        "channel": 9
      },
      {
        "type": "note_on",
        "note": 36,
        "velocity": 56,
        "time": 75820,
        "channel": 9
      },
      {
        "type": "note_off",
        "note": 38,
        "time": 75912,
        "channel": 9
      },
      {
        "type": "note_off",
        "note": 36,
        "time": 75916,
        "channel": 9
      },
      {
        "type": "note_on",
        "note": 38,
        "velocity": 59,
        "time": 75940,
        "channel": 9
      },
      {
        "type": "note_off",
        "note": 38,
        "time": 76037,
        "channel": 9
      },
      {
        "type": "note_on",
        "note": 38,
        "velocity": 73,
        "time": 76057,
        "channel": 9
      },
      {
        "type": "note_off",
        "note": 38,
        "time": 76154,
        "channel": 9
      },
      {
        "type": "note_on",
        "note": 40,
        "velocity": 99,
        "time": 76167,
        "channel": 9
      },
      {
        "type": "note_off",
        "note": 40,
        "time": 76263,
        "channel": 9
      },
      {
        "type": "note_on",
        "note": 36,
        "velocity": 59,
        "time": 76275,
        "channel": 9
      },
      {
        "type": "note_on",
        "note": 40,
        "velocity": 127,
        "time": 76280,
        "channel": 9
      },
      {
        "type": "note_off",
        "note": 36,
        "time": 76372,
        "channel": 9
      },
      {
        "type": "note_off",
        "note": 40,
        "time": 76377,
        "channel": 9
      },
      {
        "type": "note_on",
        "note": 36,
        "velocity": 88,
        "time": 76747,
        "channel": 9
      },
      {
        "type": "note_on",
        "note": 59,
        "velocity": 122,
        "time": 76759,
        "channel": 9
      },
      {
        "type": "note_on",
        "note": 55,
        "velocity": 118,
        "time": 76762,
        "channel": 9
      },
      {
        "type": "note_off",
        "note": 36,
        "time": 76844,
        "channel": 9
      },
      {
        "type": "note_off",
        "note": 59,
        "time": 76855,
        "channel": 9
      },
      {
        "type": "note_off",
        "note": 55,
        "time": 76858,
        "channel": 9
      },
      {
        "type": "note_on",
        "note": 51,
        "velocity": 56,
        "time": 76987,
        "channel": 9
      },
      {
        "type": "note_off",
        "note": 51,
        "time": 77084,
        "channel": 9
      },
      {
        "type": "note_on",
        "note": 44,
        "velocity": 77,
        "time": 77222,
        "channel": 9
      },
      {
        "type": "note_on",
        "note": 51,
        "velocity": 122,
        "time": 77239,
        "channel": 9
      },
      {
        "type": "note_on",
        "note": 38,
        "velocity": 93,
        "time": 77240,
        "channel": 9
      },
      {
        "type": "note_on",
        "note": 36,
        "velocity": 58,
        "time": 77250,
        "channel": 9
      },
      {
        "type": "note_off",
        "note": 44,
        "time": 77320,
        "channel": 9
      },
      {
        "type": "note_off",
        "note": 38,
        "time": 77336,
        "channel": 9
      },
      {
        "type": "note_off",
        "note": 51,
        "time": 77336,
        "channel": 9
      },
      {
        "type": "note_off",
        "note": 36,
        "time": 77347,
        "channel": 9
      },
      {
        "type": "note_on",
        "note": 38,
        "velocity": 20,
        "time": 77377,
        "channel": 9
      },
      {
        "type": "note_off",
        "note": 38,
        "time": 77474,
        "channel": 9
      },
      {
        "type": "note_on",
        "note": 51,
        "velocity": 83,
        "time": 77484,
        "channel": 9
      },
      {
        "type": "note_off",
        "note": 51,
        "time": 77581,
        "channel": 9
      },
      {
        "type": "note_on",
        "note": 51,
        "velocity": 71,
        "time": 77601,
        "channel": 9
      },
      {
        "type": "note_on",
        "note": 38,
        "velocity": 71,
        "time": 77602,
        "channel": 9
      },
      {
        "type": "note_off",
        "note": 38,
        "time": 77697,
        "channel": 9
      },
      {
        "type": "note_off",
        "note": 51,
        "time": 77697,
        "channel": 9
      },
      {
        "type": "note_on",
        "note": 51,
        "velocity": 73,
        "time": 77726,
        "channel": 9
      },
      {
        "type": "note_on",
        "note": 36,
        "velocity": 57,
        "time": 77735,
        "channel": 9
      },
      {
        "type": "note_off",
        "note": 51,
        "time": 77823,
        "channel": 9
      },
      {
        "type": "note_off",
        "note": 36,
        "time": 77832,
        "channel": 9
      },
      {
        "type": "note_on",
        "note": 38,
        "velocity": 31,
        "time": 77866,
        "channel": 9
      },
      {
        "type": "note_off",
        "note": 38,
        "time": 77962,
        "channel": 9
      },
      {
        "type": "note_on",
        "note": 51,
        "velocity": 108,
        "time": 77972,
        "channel": 9
      },
      {
        "type": "note_on",
        "note": 38,
        "velocity": 48,
        "time": 77976,
        "channel": 9
      },
      {
        "type": "note_off",
        "note": 51,
        "time": 78069,
        "channel": 9
      },
      {
        "type": "note_off",
        "note": 38,
        "time": 78073,
        "channel": 9
      },
      {
        "type": "note_on",
        "note": 44,
        "velocity": 105,
        "time": 78200,
        "channel": 9
      },
      {
        "type": "note_on",
        "note": 38,
        "velocity": 93,
        "time": 78220,
        "channel": 9
      },
      {
        "type": "note_on",
        "note": 51,
        "velocity": 118,
        "time": 78226,
        "channel": 9
      },
      {
        "type": "note_on",
        "note": 36,
        "velocity": 59,
        "time": 78234,
        "channel": 9
      },
      {
        "type": "note_off",
        "note": 44,
        "time": 78297,
        "channel": 9
      },
      {
        "type": "note_off",
        "note": 38,
        "time": 78317,
        "channel": 9
      },
      {
        "type": "note_on",
        "note": 38,
        "velocity": 15,
        "time": 78323,
        "channel": 9
      },
      {
        "type": "note_off",
        "note": 51,
        "time": 78323,
        "channel": 9
      },
      {
        "type": "note_off",
        "note": 36,
        "time": 78330,
        "channel": 9
      },
      {
        "type": "note_off",
        "note": 38,
        "time": 78420,
        "channel": 9
      },
      {
        "type": "note_on",
        "note": 51,
        "velocity": 80,
        "time": 78450,
        "channel": 9
      },
      {
        "type": "note_off",
        "note": 51,
        "time": 78547,
        "channel": 9
      },
      {
        "type": "note_on",
        "note": 38,
        "velocity": 30,
        "time": 78570,
        "channel": 9
      },
      {
        "type": "note_on",
        "note": 51,
        "velocity": 73,
        "time": 78573,
        "channel": 9
      },
      {
        "type": "note_off",
        "note": 38,
        "time": 78667,
        "channel": 9
      },
      {
        "type": "note_off",
        "note": 51,
        "time": 78670,
        "channel": 9
      },
      {
        "type": "note_on",
        "note": 51,
        "velocity": 61,
        "time": 78683,
        "channel": 9
      },
      {
        "type": "note_on",
        "note": 36,
        "velocity": 59,
        "time": 78705,
        "channel": 9
      },
      {
        "type": "note_off",
        "note": 51,
        "time": 78779,
        "channel": 9
      },
      {
        "type": "note_off",
        "note": 36,
        "time": 78802,
        "channel": 9
      },
      {
        "type": "note_on",
        "note": 38,
        "velocity": 21,
        "time": 78844,
        "channel": 9
      },
      {
        "type": "note_on",
        "note": 51,
        "velocity": 127,
        "time": 78939,
        "channel": 9
      },
      {
        "type": "note_off",
        "note": 38,
        "time": 78940,
        "channel": 9
      },
      {
        "type": "note_on",
        "note": 38,
        "velocity": 34,
        "time": 78947,
        "channel": 9
      },
      {
        "type": "note_off",
        "note": 51,
        "time": 79036,
        "channel": 9
      },
      {
        "type": "note_off",
        "note": 38,
        "time": 79044,
        "channel": 9
      },
      {
        "type": "note_on",
        "note": 44,
        "velocity": 97,
        "time": 79165,
        "channel": 9
      },
      {
        "type": "note_on",
        "note": 40,
        "velocity": 102,
        "time": 79184,
        "channel": 9
      },
      {
        "type": "note_on",
        "note": 51,
        "velocity": 112,
        "time": 79193,
        "channel": 9
      },
      {
        "type": "note_on",
        "note": 36,
        "velocity": 58,
        "time": 79201,
        "channel": 9
      },
      {
        "type": "note_off",
        "note": 44,
        "time": 79261,
        "channel": 9
      },
      {
        "type": "note_off",
        "note": 40,
        "time": 79281,
        "channel": 9
      },
      {
        "type": "note_off",
        "note": 51,
        "time": 79290,
        "channel": 9
      },
      {
        "type": "note_off",
        "note": 36,
        "time": 79298,
        "channel": 9
      },
      {
        "type": "note_on",
        "note": 38,
        "velocity": 13,
        "time": 79326,
        "channel": 9
      },
      {
        "type": "note_off",
        "note": 38,
        "time": 79423,
        "channel": 9
      },
      {
        "type": "note_on",
        "note": 51,
        "velocity": 71,
        "time": 79431,
        "channel": 9
      },
      {
        "type": "note_off",
        "note": 51,
        "time": 79528,
        "channel": 9
      },
      {
        "type": "note_on",
        "note": 38,
        "velocity": 26,
        "time": 79556,
        "channel": 9
      },
      {
        "type": "note_off",
        "note": 38,
        "time": 79620,
        "channel": 9
      },
      {
        "type": "note_on",
        "note": 38,
        "velocity": 26,
        "time": 79620,
        "channel": 9
      },
      {
        "type": "note_off",
        "note": 38,
        "time": 79653,
        "channel": 9
      },
      {
        "type": "note_on",
        "note": 36,
        "velocity": 58,
        "time": 79670,
        "channel": 9
      },
      {
        "type": "note_on",
        "note": 51,
        "velocity": 49,
        "time": 79686,
        "channel": 9
      },
      {
        "type": "note_off",
        "note": 36,
        "time": 79767,
        "channel": 9
      },
      {
        "type": "note_off",
        "note": 51,
        "time": 79782,
        "channel": 9
      },
      {
        "type": "note_on",
        "note": 38,
        "velocity": 92,
        "time": 79816,
        "channel": 9
      },
      {
        "type": "note_on",
        "note": 51,
        "velocity": 127,
        "time": 79901,
        "channel": 9
      },
      {
        "type": "note_off",
        "note": 38,
        "time": 79913,
        "channel": 9
      },
      {
        "type": "note_off",
        "note": 51,
        "time": 79998,
        "channel": 9
      },
      {
        "type": "note_on",
        "note": 44,
        "velocity": 105,
        "time": 80119,
        "channel": 9
      },
      {
        "type": "note_on",
        "note": 37,
        "velocity": 80,
        "time": 80134,
        "channel": 9
      },
      {
        "type": "note_on",
        "note": 51,
        "velocity": 57,
        "time": 80157,
        "channel": 9
      },
      {
        "type": "note_on",
        "note": 36,
        "velocity": 57,
        "time": 80159,
        "channel": 9
      },
      {
        "type": "note_off",
        "note": 44,
        "time": 80215,
        "channel": 9
      },
      {
        "type": "note_off",
        "note": 37,
        "time": 80231,
        "channel": 9
      },
      {
        "type": "note_off",
        "note": 51,
        "time": 80254,
        "channel": 9
      },
      {
        "type": "note_off",
        "note": 36,
        "time": 80256,
        "channel": 9
      },
      {
        "type": "note_on",
        "note": 38,
        "velocity": 20,
        "time": 80263,
        "channel": 9
      },
      {
        "type": "note_off",
        "note": 38,
        "time": 80360,
        "channel": 9
      },
      {
        "type": "note_on",
        "note": 51,
        "velocity": 119,
        "time": 80380,
        "channel": 9
      },
      {
        "type": "note_off",
        "note": 51,
        "time": 80476,
        "channel": 9
      },
      {
        "type": "note_on",
        "note": 38,
        "velocity": 20,
        "time": 80508,
        "channel": 9
      },
      {
        "type": "note_off",
        "note": 38,
        "time": 80605,
        "channel": 9
      },
      {
        "type": "note_on",
        "note": 51,
        "velocity": 53,
        "time": 80616,
        "channel": 9
      },
      {
        "type": "note_on",
        "note": 36,
        "velocity": 57,
        "time": 80622,
        "channel": 9
      },
      {
        "type": "note_off",
        "note": 51,
        "time": 80713,
        "channel": 9
      },
      {
        "type": "note_off",
        "note": 36,
        "time": 80719,
        "channel": 9
      },
      {
        "type": "note_on",
        "note": 38,
        "velocity": 26,
        "time": 80737,
        "channel": 9
      },
      {
        "type": "note_off",
        "note": 38,
        "time": 80834,
        "channel": 9
      },
      {
        "type": "note_on",
        "note": 51,
        "velocity": 98,
        "time": 80850,
        "channel": 9
      },
      {
        "type": "note_off",
        "note": 51,
        "time": 80947,
        "channel": 9
      },
      {
        "type": "note_on",
        "note": 44,
        "velocity": 102,
        "time": 81081,
        "channel": 9
      },
      {
        "type": "note_on",
        "note": 40,
        "velocity": 93,
        "time": 81105,
        "channel": 9
      },
      {
        "type": "note_on",
        "note": 51,
        "velocity": 59,
        "time": 81114,
        "channel": 9
      },
      {
        "type": "note_on",
        "note": 36,
        "velocity": 55,
        "time": 81123,
        "channel": 9
      },
      {
        "type": "note_off",
        "note": 44,
        "time": 81177,
        "channel": 9
      },
      {
        "type": "note_off",
        "note": 40,
        "time": 81202,
        "channel": 9
      },
      {
        "type": "note_off",
        "note": 51,
        "time": 81211,
        "channel": 9
      },
      {
        "type": "note_off",
        "note": 36,
        "time": 81220,
        "channel": 9
      },
      {
        "type": "note_on",
        "note": 51,
        "velocity": 101,
        "time": 81352,
        "channel": 9
      },
      {
        "type": "note_off",
        "note": 51,
        "time": 81449,
        "channel": 9
      },
      {
        "type": "note_on",
        "note": 38,
        "velocity": 21,
        "time": 81481,
        "channel": 9
      },
      {
        "type": "note_off",
        "note": 38,
        "time": 81578,
        "channel": 9
      },
      {
        "type": "note_on",
        "note": 36,
        "velocity": 56,
        "time": 81586,
        "channel": 9
      },
      {
        "type": "note_on",
        "note": 51,
        "velocity": 50,
        "time": 81591,
        "channel": 9
      },
      {
        "type": "note_off",
        "note": 36,
        "time": 81683,
        "channel": 9
      },
      {
        "type": "note_off",
        "note": 51,
        "time": 81688,
        "channel": 9
      },
      {
        "type": "note_on",
        "note": 38,
        "velocity": 36,
        "time": 81705,
        "channel": 9
      },
      {
        "type": "note_off",
        "note": 38,
        "time": 81801,
        "channel": 9
      },
      {
        "type": "note_on",
        "note": 51,
        "velocity": 122,
        "time": 81815,
        "channel": 9
      },
      {
        "type": "note_off",
        "note": 51,
        "time": 81912,
        "channel": 9
      },
      {
        "type": "note_on",
        "note": 44,
        "velocity": 107,
        "time": 82021,
        "channel": 9
      },
      {
        "type": "note_on",
        "note": 38,
        "velocity": 88,
        "time": 82043,
        "channel": 9
      },
      {
        "type": "note_on",
        "note": 51,
        "velocity": 71,
        "time": 82058,
        "channel": 9
      },
      {
        "type": "note_on",
        "note": 36,
        "velocity": 55,
        "time": 82066,
        "channel": 9
      },
      {
        "type": "note_off",
        "note": 44,
        "time": 82119,
        "channel": 9
      },
      {
        "type": "note_off",
        "note": 38,
        "time": 82140,
        "channel": 9
      },
      {
        "type": "note_off",
        "note": 51,
        "time": 82154,
        "channel": 9
      },
      {
        "type": "note_off",
        "note": 36,
        "time": 82163,
        "channel": 9
      },
      {
        "type": "note_on",
        "note": 51,
        "velocity": 118,
        "time": 82300,
        "channel": 9
      },
      {
        "type": "note_off",
        "note": 51,
        "time": 82396,
        "channel": 9
      },
      {
        "type": "note_on",
        "note": 38,
        "velocity": 28,
        "time": 82432,
        "channel": 9
      },
      {
        "type": "note_on",
        "note": 51,
        "velocity": 53,
        "time": 82440,
        "channel": 9
      },
      {
        "type": "note_off",
        "note": 38,
        "time": 82529,
        "channel": 9
      },
      {
        "type": "note_off",
        "note": 51,
        "time": 82536,
        "channel": 9
      },
      {
        "type": "note_on",
        "note": 36,
        "velocity": 54,
        "time": 82544,
        "channel": 9
      },
      {
        "type": "note_off",
        "note": 36,
        "time": 82641,
        "channel": 9
      },
      {
        "type": "note_on",
        "note": 51,
        "velocity": 107,
        "time": 82774,
        "channel": 9
      },
      {
        "type": "note_off",
        "note": 51,
        "time": 82871,
        "channel": 9
      },
      {
        "type": "note_on",
        "note": 44,
        "velocity": 102,
        "time": 83003,
        "channel": 9
      },
      {
        "type": "note_on",
        "note": 38,
        "velocity": 102,
        "time": 83022,
        "channel": 9
      },
      {
        "type": "note_on",
        "note": 51,
        "velocity": 69,
        "time": 83029,
        "channel": 9
      },
      {
        "type": "note_on",
        "note": 36,
        "velocity": 55,
        "time": 83030,
        "channel": 9
      },
      {
        "type": "note_off",
        "note": 44,
        "time": 83100,
        "channel": 9
      },
      {
        "type": "note_off",
        "note": 38,
        "time": 83119,
        "channel": 9
      },
      {
        "type": "note_off",
        "note": 36,
        "time": 83126,
        "channel": 9
      },
      {
        "type": "note_off",
        "note": 51,
        "time": 83126,
        "channel": 9
      },
      {
        "type": "note_on",
        "note": 51,
        "velocity": 102,
        "time": 83267,
        "channel": 9
      },
      {
        "type": "note_off",
        "note": 51,
        "time": 83364,
        "channel": 9
      },
      {
        "type": "note_on",
        "note": 38,
        "velocity": 34,
        "time": 83392,
        "channel": 9
      },
      {
        "type": "note_off",
        "note": 38,
        "time": 83489,
        "channel": 9
      },
      {
        "type": "note_on",
        "note": 36,
        "velocity": 55,
        "time": 83495,
        "channel": 9
      },
      {
        "type": "note_on",
        "note": 51,
        "velocity": 61,
        "time": 83511,
        "channel": 9
      },
      {
        "type": "note_off",
        "note": 36,
        "time": 83592,
        "channel": 9
      },
      {
        "type": "note_off",
        "note": 51,
        "time": 83608,
        "channel": 9
      },
      {
        "type": "note_on",
        "note": 48,
        "velocity": 108,
        "time": 83644,
        "channel": 9
      },
      {
        "type": "note_off",
        "note": 48,
        "time": 83741,
        "channel": 9
      },
      {
        "type": "note_on",
        "note": 51,
        "velocity": 76,
        "time": 83760,
        "channel": 9
      },
      {
        "type": "note_off",
        "note": 51,
        "time": 83858,
        "channel": 9
      },
      {
        "type": "note_on",
        "note": 44,
        "velocity": 102,
        "time": 83964,
        "channel": 9
      },
      {
        "type": "note_on",
        "note": 36,
        "velocity": 55,
        "time": 83985,
        "channel": 9
      },
      {
        "type": "note_on",
        "note": 43,
        "velocity": 127,
        "time": 83999,
        "channel": 9
      },
      {
        "type": "note_off",
        "note": 44,
        "time": 84062,
        "channel": 9
      },
      {
        "type": "note_off",
        "note": 36,
        "time": 84082,
        "channel": 9
      },
      {
        "type": "note_off",
        "note": 43,
        "time": 84096,
        "channel": 9
      },
      {
        "type": "note_on",
        "note": 51,
        "velocity": 74,
        "time": 84244,
        "channel": 9
      },
      {
        "type": "note_off",
        "note": 51,
        "time": 84341,
        "channel": 9
      },
      {
        "type": "note_on",
        "note": 37,
        "velocity": 73,
        "time": 84361,
        "channel": 9
      },
      {
        "type": "note_off",
        "note": 37,
        "time": 84458,
        "channel": 9
      },
      {
        "type": "note_on",
        "note": 51,
        "velocity": 70,
        "time": 84464,
        "channel": 9
      },
      {
        "type": "note_on",
        "note": 36,
        "velocity": 58,
        "time": 84478,
        "channel": 9
      },
      {
        "type": "note_off",
        "note": 51,
        "time": 84561,
        "channel": 9
      },
      {
        "type": "note_off",
        "note": 36,
        "time": 84575,
        "channel": 9
      },
      {
        "type": "note_on",
        "note": 38,
        "velocity": 15,
        "time": 84609,
        "channel": 9
      },
      {
        "type": "note_off",
        "note": 38,
        "time": 84706,
        "channel": 9
      },
      {
        "type": "note_on",
        "note": 51,
        "velocity": 120,
        "time": 84707,
        "channel": 9
      },
      {
        "type": "note_off",
        "note": 51,
        "time": 84804,
        "channel": 9
      },
      {
        "type": "note_on",
        "note": 44,
        "velocity": 105,
        "time": 84932,
        "channel": 9
      },
      {
        "type": "note_on",
        "note": 38,
        "velocity": 100,
        "time": 84957,
        "channel": 9
      },
      {
        "type": "note_on",
        "note": 51,
        "velocity": 68,
        "time": 84960,
        "channel": 9
      },
      {
        "type": "note_on",
        "note": 36,
        "velocity": 57,
        "time": 84969,
        "channel": 9
      },
      {
        "type": "note_off",
        "note": 44,
        "time": 85029,
        "channel": 9
      },
      {
        "type": "note_off",
        "note": 38,
        "time": 85055,
        "channel": 9
      },
      {
        "type": "note_off",
        "note": 51,
        "time": 85057,
        "channel": 9
      },
      {
        "type": "note_off",
        "note": 36,
        "time": 85066,
        "channel": 9
      },
      {
        "type": "note_on",
        "note": 51,
        "velocity": 92,
        "time": 85195,
        "channel": 9
      },
      {
        "type": "note_on",
        "note": 38,
        "velocity": 8,
        "time": 85281,
        "channel": 9
      },
      {
        "type": "note_off",
        "note": 51,
        "time": 85292,
        "channel": 9
      },
      {
        "type": "note_on",
        "note": 51,
        "velocity": 59,
        "time": 85329,
        "channel": 9
      },
      {
        "type": "note_off",
        "note": 38,
        "time": 85378,
        "channel": 9
      },
      {
        "type": "note_off",
        "note": 51,
        "time": 85426,
        "channel": 9
      },
      {
        "type": "note_on",
        "note": 51,
        "velocity": 74,
        "time": 85435,
        "channel": 9
      },
      {
        "type": "note_on",
        "note": 36,
        "velocity": 52,
        "time": 85439,
        "channel": 9
      },
      {
        "type": "note_off",
        "note": 51,
        "time": 85532,
        "channel": 9
      },
      {
        "type": "note_off",
        "note": 36,
        "time": 85537,
        "channel": 9
      },
      {
        "type": "note_on",
        "note": 38,
        "velocity": 11,
        "time": 85584,
        "channel": 9
      },
      {
        "type": "note_off",
        "note": 38,
        "time": 85668,
        "channel": 9
      },
      {
        "type": "note_on",
        "note": 38,
        "velocity": 32,
        "time": 85668,
        "channel": 9
      },
      {
        "type": "note_on",
        "note": 51,
        "velocity": 92,
        "time": 85669,
        "channel": 9
      },
      {
        "type": "note_off",
        "note": 38,
        "time": 85681,
        "channel": 9
      },
      {
        "type": "note_off",
        "note": 51,
        "time": 85765,
        "channel": 9
      },
      {
        "type": "note_on",
        "note": 51,
        "velocity": 54,
        "time": 85800,
        "channel": 9
      },
      {
        "type": "note_on",
        "note": 44,
        "velocity": 100,
        "time": 85871,
        "channel": 9
      },
      {
        "type": "note_off",
        "note": 51,
        "time": 85897,
        "channel": 9
      },
      {
        "type": "note_on",
        "note": 40,
        "velocity": 91,
        "time": 85908,
        "channel": 9
      },
      {
        "type": "note_on",
        "note": 51,
        "velocity": 63,
        "time": 85915,
        "channel": 9
      },
      {
        "type": "note_on",
        "note": 36,
        "velocity": 52,
        "time": 85916,
        "channel": 9
      },
      {
        "type": "note_off",
        "note": 44,
        "time": 85969,
        "channel": 9
      },
      {
        "type": "note_off",
        "note": 40,
        "time": 86005,
        "channel": 9
      },
      {
        "type": "note_off",
        "note": 51,
        "time": 86012,
        "channel": 9
      },
      {
        "type": "note_off",
        "note": 36,
        "time": 86014,
        "channel": 9
      },
      {
        "type": "note_on",
        "note": 38,
        "velocity": 16,
        "time": 86055,
        "channel": 9
      },
      {
        "type": "note_on",
        "note": 51,
        "velocity": 111,
        "time": 86146,
        "channel": 9
      },
      {
        "type": "note_off",
        "note": 38,
        "time": 86152,
        "channel": 9
      },
      {
        "type": "note_off",
        "note": 51,
        "time": 86242,
        "channel": 9
      },
      {
        "type": "note_on",
        "note": 38,
        "velocity": 31,
        "time": 86274,
        "channel": 9
      },
      {
        "type": "note_off",
        "note": 38,
        "time": 86371,
        "channel": 9
      },
      {
        "type": "note_on",
        "note": 51,
        "velocity": 62,
        "time": 86378,
        "channel": 9
      },
      {
        "type": "note_on",
        "note": 36,
        "velocity": 53,
        "time": 86396,
        "channel": 9
      },
      {
        "type": "note_off",
        "note": 51,
        "time": 86474,
        "channel": 9
      },
      {
        "type": "note_off",
        "note": 36,
        "time": 86494,
        "channel": 9
      },
      {
        "type": "note_on",
        "note": 38,
        "velocity": 13,
        "time": 86524,
        "channel": 9
      },
      {
        "type": "note_on",
        "note": 51,
        "velocity": 100,
        "time": 86611,
        "channel": 9
      },
      {
        "type": "note_off",
        "note": 38,
        "time": 86620,
        "channel": 9
      },
      {
        "type": "note_off",
        "note": 51,
        "time": 86708,
        "channel": 9
      },
      {
        "type": "note_on",
        "note": 44,
        "velocity": 100,
        "time": 86820,
        "channel": 9
      },
      {
        "type": "note_on",
        "note": 51,
        "velocity": 114,
        "time": 86851,
        "channel": 9
      },
      {
        "type": "note_on",
        "note": 37,
        "velocity": 78,
        "time": 86852,
        "channel": 9
      },
      {
        "type": "note_on",
        "note": 36,
        "velocity": 53,
        "time": 86856,
        "channel": 9
      },
      {
        "type": "note_off",
        "note": 44,
        "time": 86917,
        "channel": 9
      },
      {
        "type": "note_off",
        "note": 51,
        "time": 86948,
        "channel": 9
      },
      {
        "type": "note_off",
        "note": 37,
        "time": 86950,
        "channel": 9
      },
      {
        "type": "note_off",
        "note": 36,
        "time": 86953,
        "channel": 9
      },
      {
        "type": "note_on",
        "note": 38,
        "velocity": 17,
        "time": 86957,
        "channel": 9
      },
      {
        "type": "note_off",
        "note": 38,
        "time": 87054,
        "channel": 9
      },
      {
        "type": "note_on",
        "note": 51,
        "velocity": 100,
        "time": 87095,
        "channel": 9
      },
      {
        "type": "note_off",
        "note": 51,
        "time": 87192,
        "channel": 9
      },
      {
        "type": "note_on",
        "note": 38,
        "velocity": 19,
        "time": 87220,
        "channel": 9
      },
      {
        "type": "note_off",
        "note": 38,
        "time": 87316,
        "channel": 9
      },
      {
        "type": "note_on",
        "note": 51,
        "velocity": 77,
        "time": 87334,
        "channel": 9
      },
      {
        "type": "note_on",
        "note": 36,
        "velocity": 55,
        "time": 87338,
        "channel": 9
      },
      {
        "type": "note_off",
        "note": 51,
        "time": 87432,
        "channel": 9
      },
      {
        "type": "note_off",
        "note": 36,
        "time": 87434,
        "channel": 9
      },
      {
        "type": "note_on",
        "note": 38,
        "velocity": 10,
        "time": 87466,
        "channel": 9
      },
      {
        "type": "note_on",
        "note": 51,
        "velocity": 89,
        "time": 87561,
        "channel": 9
      },
      {
        "type": "note_off",
        "note": 38,
        "time": 87563,
        "channel": 9
      },
      {
        "type": "note_on",
        "note": 38,
        "velocity": 31,
        "time": 87565,
        "channel": 9
      },
      {
        "type": "note_off",
        "note": 51,
        "time": 87658,
        "channel": 9
      },
      {
        "type": "note_off",
        "note": 38,
        "time": 87662,
        "channel": 9
      },
      {
        "type": "note_on",
        "note": 44,
        "velocity": 102,
        "time": 87795,
        "channel": 9
      },
      {
        "type": "note_on",
        "note": 38,
        "velocity": 94,
        "time": 87818,
        "channel": 9
      },
      {
        "type": "note_on",
        "note": 51,
        "velocity": 95,
        "time": 87823,
        "channel": 9
      },
      {
        "type": "note_on",
        "note": 36,
        "velocity": 54,
        "time": 87829,
        "channel": 9
      },
      {
        "type": "note_off",
        "note": 44,
        "time": 87892,
        "channel": 9
      },
      {
        "type": "note_off",
        "note": 38,
        "time": 87914,
        "channel": 9
      },
      {
        "type": "note_off",
        "note": 51,
        "time": 87920,
        "channel": 9
      },
      {
        "type": "note_off",
        "note": 36,
        "time": 87926,
        "channel": 9
      },
      {
        "type": "note_on",
        "note": 51,
        "velocity": 86,
        "time": 88049,
        "channel": 9
      },
      {
        "type": "note_on",
        "note": 38,
        "velocity": 37,
        "time": 88056,
        "channel": 9
      },
      {
        "type": "note_off",
        "note": 51,
        "time": 88145,
        "channel": 9
      },
      {
        "type": "note_off",
        "note": 38,
        "time": 88152,
        "channel": 9
      },
      {
        "type": "note_on",
        "note": 38,
        "velocity": 23,
        "time": 88169,
        "channel": 9
      },
      {
        "type": "note_off",
        "note": 38,
        "time": 88265,
        "channel": 9
      },
      {
        "type": "note_on",
        "note": 51,
        "velocity": 82,
        "time": 88290,
        "channel": 9
      },
      {
        "type": "note_on",
        "note": 36,
        "velocity": 56,
        "time": 88310,
        "channel": 9
      },
      {
        "type": "note_off",
        "note": 51,
        "time": 88387,
        "channel": 9
      },
      {
        "type": "note_off",
        "note": 36,
        "time": 88407,
        "channel": 9
      },
      {
        "type": "note_on",
        "note": 38,
        "velocity": 16,
        "time": 88438,
        "channel": 9
      },
      {
        "type": "note_on",
        "note": 51,
        "velocity": 89,
        "time": 88531,
        "channel": 9
      },
      {
        "type": "note_off",
        "note": 38,
        "time": 88535,
        "channel": 9
      },
      {
        "type": "note_off",
        "note": 51,
        "time": 88628,
        "channel": 9
      },
      {
        "type": "note_on",
        "note": 44,
        "velocity": 100,
        "time": 88761,
        "channel": 9
      },
      {
        "type": "note_on",
        "note": 51,
        "velocity": 118,
        "time": 88790,
        "channel": 9
      },
      {
        "type": "note_on",
        "note": 40,
        "velocity": 102,
        "time": 88793,
        "channel": 9
      },
      {
        "type": "note_on",
        "note": 36,
        "velocity": 56,
        "time": 88799,
        "channel": 9
      },
      {
        "type": "note_off",
        "note": 44,
        "time": 88859,
        "channel": 9
      },
      {
        "type": "note_off",
        "note": 51,
        "time": 88887,
        "channel": 9
      },
      {
        "type": "note_off",
        "note": 40,
        "time": 88890,
        "channel": 9
      },
      {
        "type": "note_off",
        "note": 36,
        "time": 88896,
        "channel": 9
      },
      {
        "type": "note_on",
        "note": 51,
        "velocity": 81,
        "time": 89038,
        "channel": 9
      },
      {
        "type": "note_off",
        "note": 51,
        "time": 89134,
        "channel": 9
      },
      {
        "type": "note_on",
        "note": 38,
        "velocity": 13,
        "time": 89170,
        "channel": 9
      },
      {
        "type": "note_off",
        "note": 38,
        "time": 89267,
        "channel": 9
      },
      {
        "type": "note_on",
        "note": 51,
        "velocity": 88,
        "time": 89272,
        "channel": 9
      },
      {
        "type": "note_on",
        "note": 36,
        "velocity": 52,
        "time": 89285,
        "channel": 9
      },
      {
        "type": "note_off",
        "note": 51,
        "time": 89369,
        "channel": 9
      },
      {
        "type": "note_off",
        "note": 36,
        "time": 89381,
        "channel": 9
      },
      {
        "type": "note_on",
        "note": 38,
        "velocity": 13,
        "time": 89388,
        "channel": 9
      },
      {
        "type": "note_off",
        "note": 38,
        "time": 89485,
        "channel": 9
      },
      {
        "type": "note_on",
        "note": 51,
        "velocity": 83,
        "time": 89507,
        "channel": 9
      },
      {
        "type": "note_off",
        "note": 51,
        "time": 89604,
        "channel": 9
      },
      {
        "type": "note_on",
        "note": 44,
        "velocity": 95,
        "time": 89732,
        "channel": 9
      },
      {
        "type": "note_on",
        "note": 40,
        "velocity": 94,
        "time": 89753,
        "channel": 9
      },
      {
        "type": "note_on",
        "note": 51,
        "velocity": 99,
        "time": 89760,
        "channel": 9
      },
      {
        "type": "note_on",
        "note": 36,
        "velocity": 53,
        "time": 89771,
        "channel": 9
      },
      {
        "type": "note_off",
        "note": 44,
        "time": 89830,
        "channel": 9
      },
      {
        "type": "note_off",
        "note": 40,
        "time": 89850,
        "channel": 9
      },
      {
        "type": "note_off",
        "note": 51,
        "time": 89856,
        "channel": 9
      },
      {
        "type": "note_off",
        "note": 36,
        "time": 89868,
        "channel": 9
      },
      {
        "type": "note_on",
        "note": 51,
        "velocity": 87,
        "time": 90001,
        "channel": 9
      },
      {
        "type": "note_off",
        "note": 51,
        "time": 90098,
        "channel": 9
      },
      {
        "type": "note_on",
        "note": 51,
        "velocity": 58,
        "time": 90230,
        "channel": 9
      },
      {
        "type": "note_on",
        "note": 36,
        "velocity": 56,
        "time": 90244,
        "channel": 9
      },
      {
        "type": "note_off",
        "note": 51,
        "time": 90327,
        "channel": 9
      },
      {
        "type": "note_off",
        "note": 36,
        "time": 90340,
        "channel": 9
      },
      {
        "type": "note_on",
        "note": 38,
        "velocity": 18,
        "time": 90382,
        "channel": 9
      },
      {
        "type": "note_on",
        "note": 51,
        "velocity": 87,
        "time": 90471,
        "channel": 9
      },
      {
        "type": "note_off",
        "note": 38,
        "time": 90478,
        "channel": 9
      },
      {
        "type": "note_off",
        "note": 51,
        "time": 90568,
        "channel": 9
      },
      {
        "type": "note_on",
        "note": 44,
        "velocity": 97,
        "time": 90691,
        "channel": 9
      },
      {
        "type": "note_on",
        "note": 40,
        "velocity": 99,
        "time": 90714,
        "channel": 9
      },
      {
        "type": "note_on",
        "note": 51,
        "velocity": 99,
        "time": 90719,
        "channel": 9
      },
      {
        "type": "note_on",
        "note": 36,
        "velocity": 53,
        "time": 90728,
        "channel": 9
      },
      {
        "type": "note_off",
        "note": 44,
        "time": 90788,
        "channel": 9
      },
      {
        "type": "note_off",
        "note": 40,
        "time": 90811,
        "channel": 9
      },
      {
        "type": "note_off",
        "note": 51,
        "time": 90816,
        "channel": 9
      },
      {
        "type": "note_off",
        "note": 36,
        "time": 90825,
        "channel": 9
      },
      {
        "type": "note_on",
        "note": 51,
        "velocity": 69,
        "time": 90959,
        "channel": 9
      },
      {
        "type": "note_on",
        "note": 40,
        "velocity": 93,
        "time": 91056,
        "channel": 9
      },
      {
        "type": "note_off",
        "note": 51,
        "time": 91056,
        "channel": 9
      },
      {
        "type": "note_off",
        "note": 40,
        "time": 91153,
        "channel": 9
      },
      {
        "type": "note_on",
        "note": 51,
        "velocity": 69,
        "time": 91175,
        "channel": 9
      },
      {
        "type": "note_on",
        "note": 36,
        "velocity": 49,
        "time": 91205,
        "channel": 9
      },
      {
        "type": "note_off",
        "note": 51,
        "time": 91271,
        "channel": 9
      },
      {
        "type": "note_on",
        "note": 48,
        "velocity": 96,
        "time": 91292,
        "channel": 9
      },
      {
        "type": "note_off",
        "note": 36,
        "time": 91302,
        "channel": 9
      },
      {
        "type": "note_off",
        "note": 48,
        "time": 91388,
        "channel": 9
      },
      {
        "type": "note_on",
        "note": 51,
        "velocity": 94,
        "time": 91407,
        "channel": 9
      },
      {
        "type": "note_off",
        "note": 51,
        "time": 91504,
        "channel": 9
      },
      {
        "type": "note_on",
        "note": 36,
        "velocity": 43,
        "time": 91535,
        "channel": 9
      },
      {
        "type": "note_off",
        "note": 36,
        "time": 91631,
        "channel": 9
      },
      {
        "type": "note_on",
        "note": 44,
        "velocity": 110,
        "time": 91631,
        "channel": 9
      },
      {
        "type": "note_on",
        "note": 43,
        "velocity": 127,
        "time": 91649,
        "channel": 9
      },
      {
        "type": "note_off",
        "note": 44,
        "time": 91729,
        "channel": 9
      },
      {
        "type": "note_off",
        "note": 43,
        "time": 91746,
        "channel": 9
      },
      {
        "type": "note_on",
        "note": 43,
        "velocity": 127,
        "time": 91764,
        "channel": 9
      },
      {
        "type": "note_off",
        "note": 43,
        "time": 91860,
        "channel": 9
      },
      {
        "type": "note_on",
        "note": 43,
        "velocity": 122,
        "time": 91866,
        "channel": 9
      },
      {
        "type": "note_off",
        "note": 43,
        "time": 91964,
        "channel": 9
      },
      {
        "type": "note_on",
        "note": 36,
        "velocity": 95,
        "time": 92126,
        "channel": 9
      },
      {
        "type": "note_on",
        "note": 55,
        "velocity": 105,
        "time": 92131,
        "channel": 9
      },
      {
        "type": "note_on",
        "note": 59,
        "velocity": 123,
        "time": 92143,
        "channel": 9
      },
      {
        "type": "note_off",
        "note": 36,
        "time": 92222,
        "channel": 9
      },
      {
        "type": "note_off",
        "note": 55,
        "time": 92228,
        "channel": 9
      },
      {
        "type": "note_off",
        "note": 59,
        "time": 92239,
        "channel": 9
      },
      {
        "type": "note_on",
        "note": 51,
        "velocity": 45,
        "time": 92380,
        "channel": 9
      },
      {
        "type": "note_off",
        "note": 51,
        "time": 92477,
        "channel": 9
      },
      {
        "type": "note_on",
        "note": 44,
        "velocity": 102,
        "time": 92605,
        "channel": 9
      },
      {
        "type": "note_on",
        "note": 40,
        "velocity": 115,
        "time": 92628,
        "channel": 9
      },
      {
        "type": "note_on",
        "note": 51,
        "velocity": 118,
        "time": 92633,
        "channel": 9
      },
      {
        "type": "note_on",
        "note": 36,
        "velocity": 49,
        "time": 92635,
        "channel": 9
      },
      {
        "type": "note_off",
        "note": 44,
        "time": 92702,
        "channel": 9
      },
      {
        "type": "note_off",
        "note": 40,
        "time": 92725,
        "channel": 9
      },
      {
        "type": "note_off",
        "note": 51,
        "time": 92730,
        "channel": 9
      },
      {
        "type": "note_off",
        "note": 36,
        "time": 92732,
        "channel": 9
      },
      {
        "type": "note_on",
        "note": 51,
        "velocity": 53,
        "time": 92881,
        "channel": 9
      },
      {
        "type": "note_off",
        "note": 51,
        "time": 92978,
        "channel": 9
      },
      {
        "type": "note_on",
        "note": 38,
        "velocity": 15,
        "time": 93021,
        "channel": 9
      },
      {
        "type": "note_on",
        "note": 51,
        "velocity": 71,
        "time": 93113,
        "channel": 9
      },
      {
        "type": "note_on",
        "note": 36,
        "velocity": 53,
        "time": 93116,
        "channel": 9
      },
      {
        "type": "note_off",
        "note": 38,
        "time": 93118,
        "channel": 9
      },
      {
        "type": "note_off",
        "note": 51,
        "time": 93210,
        "channel": 9
      },
      {
        "type": "note_off",
        "note": 36,
        "time": 93213,
        "channel": 9
      },
      {
        "type": "note_on",
        "note": 51,
        "velocity": 100,
        "time": 93350,
        "channel": 9
      },
      {
        "type": "note_off",
        "note": 51,
        "time": 93447,
        "channel": 9
      },
      {
        "type": "note_on",
        "note": 44,
        "velocity": 85,
        "time": 93557,
        "channel": 9
      },
      {
        "type": "note_on",
        "note": 40,
        "velocity": 94,
        "time": 93586,
        "channel": 9
      },
      {
        "type": "note_on",
        "note": 51,
        "velocity": 110,
        "time": 93586,
        "channel": 9
      },
      {
        "type": "note_on",
        "note": 36,
        "velocity": 57,
        "time": 93592,
        "channel": 9
      },
      {
        "type": "note_off",
        "note": 44,
        "time": 93653,
        "channel": 9
      },
      {
        "type": "note_off",
        "note": 40,
        "time": 93683,
        "channel": 9
      },
      {
        "type": "note_off",
        "note": 51,
        "time": 93683,
        "channel": 9
      },
      {
        "type": "note_off",
        "note": 36,
        "time": 93689,
        "channel": 9
      },
      {
        "type": "note_on",
        "note": 51,
        "velocity": 110,
        "time": 93825,
        "channel": 9
      },
      {
        "type": "note_off",
        "note": 51,
        "time": 93921,
        "channel": 9
      },
      {
        "type": "note_on",
        "note": 38,
        "velocity": 8,
        "time": 93969,
        "channel": 9
      },
      {
        "type": "note_on",
        "note": 51,
        "velocity": 57,
        "time": 94060,
        "channel": 9
      },
      {
        "type": "note_off",
        "note": 38,
        "time": 94066,
        "channel": 9
      },
      {
        "type": "note_on",
        "note": 36,
        "velocity": 53,
        "time": 94073,
        "channel": 9
      },
      {
        "type": "note_off",
        "note": 51,
        "time": 94157,
        "channel": 9
      },
      {
        "type": "note_off",
        "note": 36,
        "time": 94170,
        "channel": 9
      },
      {
        "type": "note_on",
        "note": 51,
        "velocity": 103,
        "time": 94292,
        "channel": 9
      },
      {
        "type": "note_off",
        "note": 51,
        "time": 94390,
        "channel": 9
      },
      {
        "type": "note_on",
        "note": 44,
        "velocity": 107,
        "time": 94515,
        "channel": 9
      },
      {
        "type": "note_on",
        "note": 51,
        "velocity": 74,
        "time": 94540,
        "channel": 9
      },
      {
        "type": "note_on",
        "note": 38,
        "velocity": 87,
        "time": 94542,
        "channel": 9
      },
      {
        "type": "note_on",
        "note": 36,
        "velocity": 60,
        "time": 94548,
        "channel": 9
      },
      {
        "type": "note_off",
        "note": 44,
        "time": 94613,
        "channel": 9
      },
      {
        "type": "note_off",
        "note": 38,
        "time": 94637,
        "channel": 9
      },
      {
        "type": "note_off",
        "note": 51,
        "time": 94637,
        "channel": 9
      },
      {
        "type": "note_off",
        "note": 36,
        "time": 94645,
        "channel": 9
      },
      {
        "type": "note_on",
        "note": 51,
        "velocity": 127,
        "time": 94775,
        "channel": 9
      },
      {
        "type": "note_off",
        "note": 51,
        "time": 94872,
        "channel": 9
      },
      {
        "type": "note_on",
        "note": 38,
        "velocity": 16,
        "time": 94934,
        "channel": 9
      },
      {
        "type": "note_on",
        "note": 51,
        "velocity": 54,
        "time": 95022,
        "channel": 9
      },
      {
        "type": "note_on",
        "note": 36,
        "velocity": 62,
        "time": 95031,
        "channel": 9
      },
      {
        "type": "note_off",
        "note": 38,
        "time": 95031,
        "channel": 9
      },
      {
        "type": "note_off",
        "note": 51,
        "time": 95119,
        "channel": 9
      },
      {
        "type": "note_off",
        "note": 36,
        "time": 95128,
        "channel": 9
      },
      {
        "type": "note_on",
        "note": 38,
        "velocity": 94,
        "time": 95150,
        "channel": 9
      },
      {
        "type": "note_off",
        "note": 38,
        "time": 95247,
        "channel": 9
      },
      {
        "type": "note_on",
        "note": 51,
        "velocity": 112,
        "time": 95250,
        "channel": 9
      },
      {
        "type": "note_off",
        "note": 51,
        "time": 95348,
        "channel": 9
      },
      {
        "type": "note_on",
        "note": 44,
        "velocity": 100,
        "time": 95491,
        "channel": 9
      },
      {
        "type": "note_on",
        "note": 40,
        "velocity": 96,
        "time": 95499,
        "channel": 9
      },
      {
        "type": "note_on",
        "note": 51,
        "velocity": 89,
        "time": 95504,
        "channel": 9
      },
      {
        "type": "note_on",
        "note": 36,
        "velocity": 61,
        "time": 95517,
        "channel": 9
      },
      {
        "type": "note_off",
        "note": 44,
        "time": 95589,
        "channel": 9
      },
      {
        "type": "note_off",
        "note": 40,
        "time": 95595,
        "channel": 9
      },
      {
        "type": "note_off",
        "note": 51,
        "time": 95601,
        "channel": 9
      },
      {
        "type": "note_off",
        "note": 36,
        "time": 95614,
        "channel": 9
      },
      {
        "type": "note_on",
        "note": 51,
        "velocity": 127,
        "time": 95752,
        "channel": 9
      },
      {
        "type": "note_off",
        "note": 51,
        "time": 95849,
        "channel": 9
      },
      {
        "type": "note_on",
        "note": 38,
        "velocity": 20,
        "time": 95879,
        "channel": 9
      },
      {
        "type": "note_off",
        "note": 38,
        "time": 95975,
        "channel": 9
      },
      {
        "type": "note_on",
        "note": 51,
        "velocity": 55,
        "time": 95985,
        "channel": 9
      },
      {
        "type": "note_on",
        "note": 36,
        "velocity": 58,
        "time": 96002,
        "channel": 9
      },
      {
        "type": "note_off",
        "note": 51,
        "time": 96082,
        "channel": 9
      },
      {
        "type": "note_on",
        "note": 38,
        "velocity": 11,
        "time": 96096,
        "channel": 9
      },
      {
        "type": "note_off",
        "note": 36,
        "time": 96099,
        "channel": 9
      },
      {
        "type": "note_off",
        "note": 38,
        "time": 96192,
        "channel": 9
      },
      {
        "type": "note_on",
        "note": 51,
        "velocity": 122,
        "time": 96208,
        "channel": 9
      },
      {
        "type": "note_off",
        "note": 51,
        "time": 96305,
        "channel": 9
      },
      {
        "type": "note_on",
        "note": 44,
        "velocity": 102,
        "time": 96440,
        "channel": 9
      },
      {
        "type": "note_on",
        "note": 37,
        "velocity": 88,
        "time": 96452,
        "channel": 9
      },
      {
        "type": "note_on",
        "note": 51,
        "velocity": 77,
        "time": 96459,
        "channel": 9
      },
      {
        "type": "note_on",
        "note": 36,
        "velocity": 53,
        "time": 96477,
        "channel": 9
      },
      {
        "type": "note_off",
        "note": 44,
        "time": 96537,
        "channel": 9
      },
      {
        "type": "note_off",
        "note": 37,
        "time": 96548,
        "channel": 9
      },
      {
        "type": "note_off",
        "note": 51,
        "time": 96556,
        "channel": 9
      },
      {
        "type": "note_off",
        "note": 36,
        "time": 96574,
        "channel": 9
      },
      {
        "type": "note_on",
        "note": 51,
        "velocity": 127,
        "time": 96698,
        "channel": 9
      },
      {
        "type": "note_off",
        "note": 51,
        "time": 96794,
        "channel": 9
      },
      {
        "type": "note_on",
        "note": 38,
        "velocity": 21,
        "time": 96852,
        "channel": 9
      },
      {
        "type": "note_on",
        "note": 51,
        "velocity": 49,
        "time": 96940,
        "channel": 9
      },
      {
        "type": "note_on",
        "note": 36,
        "velocity": 57,
        "time": 96947,
        "channel": 9
      },
      {
        "type": "note_off",
        "note": 38,
        "time": 96949,
        "channel": 9
      },
      {
        "type": "note_off",
        "note": 51,
        "time": 97037,
        "channel": 9
      },
      {
        "type": "note_off",
        "note": 36,
        "time": 97044,
        "channel": 9
      },
      {
        "type": "note_on",
        "note": 38,
        "velocity": 10,
        "time": 97067,
        "channel": 9
      },
      {
        "type": "note_on",
        "note": 51,
        "velocity": 127,
        "time": 97161,
        "channel": 9
      },
      {
        "type": "note_off",
        "note": 38,
        "time": 97164,
        "channel": 9
      },
      {
        "type": "note_off",
        "note": 51,
        "time": 97258,
        "channel": 9
      },
      {
        "type": "note_on",
        "note": 44,
        "velocity": 107,
        "time": 97385,
        "channel": 9
      },
      {
        "type": "note_on",
        "note": 38,
        "velocity": 99,
        "time": 97401,
        "channel": 9
      },
      {
        "type": "note_on",
        "note": 51,
        "velocity": 83,
        "time": 97412,
        "channel": 9
      },
      {
        "type": "note_on",
        "note": 36,
        "velocity": 57,
        "time": 97418,
        "channel": 9
      },
      {
        "type": "note_off",
        "note": 44,
        "time": 97482,
        "channel": 9
      },
      {
        "type": "note_off",
        "note": 38,
        "time": 97498,
        "channel": 9
      },
      {
        "type": "note_off",
        "note": 51,
        "time": 97509,
        "channel": 9
      },
      {
        "type": "note_off",
        "note": 36,
        "time": 97515,
        "channel": 9
      },
      {
        "type": "note_on",
        "note": 51,
        "velocity": 127,
        "time": 97654,
        "channel": 9
      },
      {
        "type": "note_off",
        "note": 51,
        "time": 97751,
        "channel": 9
      },
      {
        "type": "note_on",
        "note": 38,
        "velocity": 14,
        "time": 97781,
        "channel": 9
      },
      {
        "type": "note_off",
        "note": 38,
        "time": 97878,
        "channel": 9
      },
      {
        "type": "note_on",
        "note": 51,
        "velocity": 37,
        "time": 97900,
        "channel": 9
      },
      {
        "type": "note_on",
        "note": 36,
        "velocity": 55,
        "time": 97908,
        "channel": 9
      },
      {
        "type": "note_off",
        "note": 51,
        "time": 97997,
        "channel": 9
      },
      {
        "type": "note_off",
        "note": 36,
        "time": 98005,
        "channel": 9
      },
      {
        "type": "note_on",
        "note": 38,
        "velocity": 12,
        "time": 98026,
        "channel": 9
      },
      {
        "type": "note_off",
        "note": 38,
        "time": 98123,
        "channel": 9
      },
      {
        "type": "note_on",
        "note": 51,
        "velocity": 117,
        "time": 98133,
        "channel": 9
      },
      {
        "type": "note_off",
        "note": 51,
        "time": 98230,
        "channel": 9
      },
      {
        "type": "note_on",
        "note": 44,
        "velocity": 107,
        "time": 98349,
        "channel": 9
      },
      {
        "type": "note_on",
        "note": 37,
        "velocity": 88,
        "time": 98372,
        "channel": 9
      },
      {
        "type": "note_on",
        "note": 51,
        "velocity": 89,
        "time": 98379,
        "channel": 9
      },
      {
        "type": "note_on",
        "note": 36,
        "velocity": 49,
        "time": 98382,
        "channel": 9
      },
      {
        "type": "note_off",
        "note": 44,
        "time": 98446,
        "channel": 9
      },
      {
        "type": "note_off",
        "note": 37,
        "time": 98469,
        "channel": 9
      },
      {
        "type": "note_off",
        "note": 51,
        "time": 98476,
        "channel": 9
      },
      {
        "type": "note_off",
        "note": 36,
        "time": 98479,
        "channel": 9
      },
      {
        "type": "note_on",
        "note": 51,
        "velocity": 115,
        "time": 98618,
        "channel": 9
      },
      {
        "type": "note_off",
        "note": 51,
        "time": 98715,
        "channel": 9
      },
      {
        "type": "note_on",
        "note": 38,
        "velocity": 13,
        "time": 98741,
        "channel": 9
      },
      {
        "type": "note_off",
        "note": 38,
        "time": 98838,
        "channel": 9
      },
      {
        "type": "note_on",
        "note": 36,
        "velocity": 60,
        "time": 98851,
        "channel": 9
      },
      {
        "type": "note_on",
        "note": 51,
        "velocity": 59,
        "time": 98851,
        "channel": 9
      },
      {
        "type": "note_off",
        "note": 36,
        "time": 98947,
        "channel": 9
      },
      {
        "type": "note_off",
        "note": 51,
        "time": 98947,
        "channel": 9
      },
      {
        "type": "note_on",
        "note": 38,
        "velocity": 99,
        "time": 98985,
        "channel": 9
      },
      {
        "type": "note_on",
        "note": 51,
        "velocity": 127,
        "time": 99081,
        "channel": 9
      },
      {
        "type": "note_off",
        "note": 38,
        "time": 99082,
        "channel": 9
      },
      {
        "type": "note_off",
        "note": 51,
        "time": 99178,
        "channel": 9
      },
      {
        "type": "note_on",
        "note": 44,
        "velocity": 95,
        "time": 99313,
        "channel": 9
      },
      {
        "type": "note_on",
        "note": 38,
        "velocity": 77,
        "time": 99332,
        "channel": 9
      },
      {
        "type": "note_on",
        "note": 51,
        "velocity": 74,
        "time": 99336,
        "channel": 9
      },
      {
        "type": "note_on",
        "note": 36,
        "velocity": 53,
        "time": 99342,
        "channel": 9
      },
      {
        "type": "note_off",
        "note": 44,
        "time": 99410,
        "channel": 9
      },
      {
        "type": "note_off",
        "note": 38,
        "time": 99430,
        "channel": 9
      },
      {
        "type": "note_off",
        "note": 51,
        "time": 99432,
        "channel": 9
      },
      {
        "type": "note_off",
        "note": 36,
        "time": 99439,
        "channel": 9
      },
      {
        "type": "note_on",
        "note": 51,
        "velocity": 127,
        "time": 99570,
        "channel": 9
      },
      {
        "type": "note_on",
        "note": 38,
        "velocity": 93,
        "time": 99586,
        "channel": 9
      },
      {
        "type": "note_off",
        "note": 51,
        "time": 99667,
        "channel": 9
      },
      {
        "type": "note_off",
        "note": 38,
        "time": 99683,
        "channel": 9
      },
      {
        "type": "note_on",
        "note": 37,
        "velocity": 73,
        "time": 99718,
        "channel": 9
      },
      {
        "type": "note_on",
        "note": 51,
        "velocity": 65,
        "time": 99811,
        "channel": 9
      },
      {
        "type": "note_off",
        "note": 37,
        "time": 99814,
        "channel": 9
      },
      {
        "type": "note_on",
        "note": 36,
        "velocity": 57,
        "time": 99824,
        "channel": 9
      },
      {
        "type": "note_off",
        "note": 51,
        "time": 99907,
        "channel": 9
      },
      {
        "type": "note_off",
        "note": 36,
        "time": 99920,
        "channel": 9
      },
      {
        "type": "note_on",
        "note": 38,
        "velocity": 18,
        "time": 99920,
        "channel": 9
      },
      {
        "type": "note_off",
        "note": 38,
        "time": 99953,
        "channel": 9
      },
      {
        "type": "note_on",
        "note": 38,
        "velocity": 13,
        "time": 99953,
        "channel": 9
      },
      {
        "type": "note_off",
        "note": 38,
        "time": 100017,
        "channel": 9
      },
      {
        "type": "note_on",
        "note": 51,
        "velocity": 127,
        "time": 100042,
        "channel": 9
      },
      {
        "type": "note_off",
        "note": 51,
        "time": 100138,
        "channel": 9
      },
      {
        "type": "note_on",
        "note": 44,
        "velocity": 102,
        "time": 100267,
        "channel": 9
      },
      {
        "type": "note_on",
        "note": 37,
        "velocity": 83,
        "time": 100288,
        "channel": 9
      },
      {
        "type": "note_on",
        "note": 51,
        "velocity": 77,
        "time": 100290,
        "channel": 9
      },
      {
        "type": "note_on",
        "note": 36,
        "velocity": 52,
        "time": 100312,
        "channel": 9
      },
      {
        "type": "note_off",
        "note": 44,
        "time": 100364,
        "channel": 9
      },
      {
        "type": "note_off",
        "note": 37,
        "time": 100385,
        "channel": 9
      },
      {
        "type": "note_off",
        "note": 51,
        "time": 100387,
        "channel": 9
      },
      {
        "type": "note_off",
        "note": 36,
        "time": 100409,
        "channel": 9
      },
      {
        "type": "note_on",
        "note": 38,
        "velocity": 14,
        "time": 100428,
        "channel": 9
      },
      {
        "type": "note_on",
        "note": 51,
        "velocity": 127,
        "time": 100522,
        "channel": 9
      },
      {
        "type": "note_off",
        "note": 38,
        "time": 100525,
        "channel": 9
      },
      {
        "type": "note_off",
        "note": 51,
        "time": 100618,
        "channel": 9
      },
      {
        "type": "note_on",
        "note": 38,
        "velocity": 15,
        "time": 100688,
        "channel": 9
      },
      {
        "type": "note_on",
        "note": 51,
        "velocity": 46,
        "time": 100771,
        "channel": 9
      },
      {
        "type": "note_on",
        "note": 36,
        "velocity": 57,
        "time": 100777,
        "channel": 9
      },
      {
        "type": "note_off",
        "note": 38,
        "time": 100785,
        "channel": 9
      },
      {
        "type": "note_off",
        "note": 51,
        "time": 100867,
        "channel": 9
      },
      {
        "type": "note_off",
        "note": 36,
        "time": 100874,
        "channel": 9
      },
      {
        "type": "note_on",
        "note": 38,
        "velocity": 26,
        "time": 100913,
        "channel": 9
      },
      {
        "type": "note_on",
        "note": 51,
        "velocity": 127,
        "time": 100994,
        "channel": 9
      },
      {
        "type": "note_off",
        "note": 38,
        "time": 101011,
        "channel": 9
      },
      {
        "type": "note_off",
        "note": 51,
        "time": 101091,
        "channel": 9
      },
      {
        "type": "note_on",
        "note": 44,
        "velocity": 100,
        "time": 101228,
        "channel": 9
      },
      {
        "type": "note_on",
        "note": 38,
        "velocity": 98,
        "time": 101250,
        "channel": 9
      },
      {
        "type": "note_on",
        "note": 51,
        "velocity": 84,
        "time": 101257,
        "channel": 9
      },
      {
        "type": "note_on",
        "note": 36,
        "velocity": 51,
        "time": 101258,
        "channel": 9
      },
      {
        "type": "note_off",
        "note": 44,
        "time": 101325,
        "channel": 9
      },
      {
        "type": "note_off",
        "note": 38,
        "time": 101347,
        "channel": 9
      },
      {
        "type": "note_off",
        "note": 51,
        "time": 101353,
        "channel": 9
      },
      {
        "type": "note_off",
        "note": 36,
        "time": 101355,
        "channel": 9
      },
      {
        "type": "note_on",
        "note": 51,
        "velocity": 125,
        "time": 101496,
        "channel": 9
      },
      {
        "type": "note_off",
        "note": 51,
        "time": 101592,
        "channel": 9
      },
      {
        "type": "note_on",
        "note": 38,
        "velocity": 24,
        "time": 101610,
        "channel": 9
      },
      {
        "type": "note_off",
        "note": 38,
        "time": 101707,
        "channel": 9
      },
      {
        "type": "note_on",
        "note": 51,
        "velocity": 46,
        "time": 101733,
        "channel": 9
      },
      {
        "type": "note_on",
        "note": 36,
        "velocity": 55,
        "time": 101744,
        "channel": 9
      },
      {
        "type": "note_off",
        "note": 51,
        "time": 101830,
        "channel": 9
      },
      {
        "type": "note_off",
        "note": 36,
        "time": 101841,
        "channel": 9
      },
      {
        "type": "note_on",
        "note": 38,
        "velocity": 7,
        "time": 101881,
        "channel": 9
      },
      {
        "type": "note_on",
        "note": 51,
        "velocity": 127,
        "time": 101966,
        "channel": 9
      },
      {
        "type": "note_off",
        "note": 38,
        "time": 101978,
        "channel": 9
      },
      {
        "type": "note_off",
        "note": 51,
        "time": 102063,
        "channel": 9
      },
      {
        "type": "note_on",
        "note": 44,
        "velocity": 87,
        "time": 102185,
        "channel": 9
      },
      {
        "type": "note_on",
        "note": 36,
        "velocity": 55,
        "time": 102212,
        "channel": 9
      },
      {
        "type": "note_on",
        "note": 37,
        "velocity": 88,
        "time": 102215,
        "channel": 9
      },
      {
        "type": "note_on",
        "note": 51,
        "velocity": 59,
        "time": 102217,
        "channel": 9
      },
      {
        "type": "note_off",
        "note": 44,
        "time": 102283,
        "channel": 9
      },
      {
        "type": "note_off",
        "note": 36,
        "time": 102308,
        "channel": 9
      },
      {
        "type": "note_off",
        "note": 37,
        "time": 102312,
        "channel": 9
      },
      {
        "type": "note_off",
        "note": 51,
        "time": 102312,
        "channel": 9
      },
      {
        "type": "note_on",
        "note": 38,
        "velocity": 9,
        "time": 102391,
        "channel": 9
      },
      {
        "type": "note_on",
        "note": 51,
        "velocity": 127,
        "time": 102443,
        "channel": 9
      },
      {
        "type": "note_off",
        "note": 38,
        "time": 102488,
        "channel": 9
      },
      {
        "type": "note_off",
        "note": 51,
        "time": 102540,
        "channel": 9
      },
      {
        "type": "note_on",
        "note": 38,
        "velocity": 10,
        "time": 102616,
        "channel": 9
      },
      {
        "type": "note_on",
        "note": 51,
        "velocity": 54,
        "time": 102695,
        "channel": 9
      },
      {
        "type": "note_on",
        "note": 36,
        "velocity": 53,
        "time": 102700,
        "channel": 9
      },
      {
        "type": "note_off",
        "note": 38,
        "time": 102713,
        "channel": 9
      },
      {
        "type": "note_off",
        "note": 51,
        "time": 102791,
        "channel": 9
      },
      {
        "type": "note_off",
        "note": 36,
        "time": 102796,
        "channel": 9
      },
      {
        "type": "note_on",
        "note": 38,
        "velocity": 100,
        "time": 102836,
        "channel": 9
      },
      {
        "type": "note_on",
        "note": 51,
        "velocity": 127,
        "time": 102916,
        "channel": 9
      },
      {
        "type": "note_off",
        "note": 38,
        "time": 102932,
        "channel": 9
      },
      {
        "type": "note_off",
        "note": 51,
        "time": 103012,
        "channel": 9
      },
      {
        "type": "note_on",
        "note": 44,
        "velocity": 92,
        "time": 103149,
        "channel": 9
      },
      {
        "type": "note_on",
        "note": 38,
        "velocity": 80,
        "time": 103169,
        "channel": 9
      },
      {
        "type": "note_on",
        "note": 51,
        "velocity": 81,
        "time": 103178,
        "channel": 9
      },
      {
        "type": "note_on",
        "note": 36,
        "velocity": 55,
        "time": 103182,
        "channel": 9
      },
      {
        "type": "note_off",
        "note": 44,
        "time": 103246,
        "channel": 9
      },
      {
        "type": "note_off",
        "note": 38,
        "time": 103267,
        "channel": 9
      },
      {
        "type": "note_off",
        "note": 51,
        "time": 103274,
        "channel": 9
      },
      {
        "type": "note_off",
        "note": 36,
        "time": 103279,
        "channel": 9
      },
      {
        "type": "note_on",
        "note": 51,
        "velocity": 127,
        "time": 103413,
        "channel": 9
      },
      {
        "type": "note_on",
        "note": 38,
        "velocity": 74,
        "time": 103434,
        "channel": 9
      },
      {
        "type": "note_off",
        "note": 51,
        "time": 103509,
        "channel": 9
      },
      {
        "type": "note_off",
        "note": 38,
        "time": 103531,
        "channel": 9
      },
      {
        "type": "note_on",
        "note": 38,
        "velocity": 59,
        "time": 103552,
        "channel": 9
      },
      {
        "type": "note_on",
        "note": 44,
        "velocity": 20,
        "time": 103608,
        "channel": 9
      },
      {
        "type": "note_off",
        "note": 38,
        "time": 103649,
        "channel": 9
      },
      {
        "type": "note_on",
        "note": 36,
        "velocity": 55,
        "time": 103663,
        "channel": 9
      },
      {
        "type": "note_on",
        "note": 51,
        "velocity": 63,
        "time": 103663,
        "channel": 9
      },
      {
        "type": "note_off",
        "note": 44,
        "time": 103705,
        "channel": 9
      },
      {
        "type": "note_off",
        "note": 36,
        "time": 103760,
        "channel": 9
      },
      {
        "type": "note_off",
        "note": 51,
        "time": 103760,
        "channel": 9
      },
      {
        "type": "note_on",
        "note": 38,
        "velocity": 29,
        "time": 103784,
        "channel": 9
      },
      {
        "type": "note_off",
        "note": 38,
        "time": 103881,
        "channel": 9
      },
      {
        "type": "note_on",
        "note": 51,
        "velocity": 127,
        "time": 103896,
        "channel": 9
      },
      {
        "type": "note_off",
        "note": 51,
        "time": 103993,
        "channel": 9
      },
      {
        "type": "note_on",
        "note": 44,
        "velocity": 90,
        "time": 104100,
        "channel": 9
      },
      {
        "type": "note_on",
        "note": 51,
        "velocity": 67,
        "time": 104136,
        "channel": 9
      },
      {
        "type": "note_on",
        "note": 36,
        "velocity": 55,
        "time": 104143,
        "channel": 9
      },
      {
        "type": "note_on",
        "note": 38,
        "velocity": 79,
        "time": 104144,
        "channel": 9
      },
      {
        "type": "note_off",
        "note": 44,
        "time": 104198,
        "channel": 9
      },
      {
        "type": "note_off",
        "note": 51,
        "time": 104232,
        "channel": 9
      },
      {
        "type": "note_off",
        "note": 36,
        "time": 104240,
        "channel": 9
      },
      {
        "type": "note_off",
        "note": 38,
        "time": 104240,
        "channel": 9
      },
      {
        "type": "note_on",
        "note": 38,
        "velocity": 11,
        "time": 104306,
        "channel": 9
      },
      {
        "type": "note_on",
        "note": 51,
        "velocity": 127,
        "time": 104378,
        "channel": 9
      },
      {
        "type": "note_off",
        "note": 38,
        "time": 104402,
        "channel": 9
      },
      {
        "type": "note_off",
        "note": 51,
        "time": 104474,
        "channel": 9
      },
      {
        "type": "note_on",
        "note": 38,
        "velocity": 10,
        "time": 104524,
        "channel": 9
      },
      {
        "type": "note_on",
        "note": 51,
        "velocity": 66,
        "time": 104610,
        "channel": 9
      },
      {
        "type": "note_off",
        "note": 38,
        "time": 104621,
        "channel": 9
      },
      {
        "type": "note_on",
        "note": 36,
        "velocity": 54,
        "time": 104635,
        "channel": 9
      },
      {
        "type": "note_off",
        "note": 51,
        "time": 104707,
        "channel": 9
      },
      {
        "type": "note_off",
        "note": 36,
        "time": 104732,
        "channel": 9
      },
      {
        "type": "note_on",
        "note": 51,
        "velocity": 127,
        "time": 104856,
        "channel": 9
      },
      {
        "type": "note_off",
        "note": 51,
        "time": 104952,
        "channel": 9
      },
      {
        "type": "note_on",
        "note": 44,
        "velocity": 90,
        "time": 105073,
        "channel": 9
      },
      {
        "type": "note_on",
        "note": 51,
        "velocity": 66,
        "time": 105104,
        "channel": 9
      },
      {
        "type": "note_on",
        "note": 36,
        "velocity": 50,
        "time": 105113,
        "channel": 9
      },
      {
        "type": "note_on",
        "note": 38,
        "velocity": 83,
        "time": 105113,
        "channel": 9
      },
      {
        "type": "note_off",
        "note": 44,
        "time": 105170,
        "channel": 9
      },
      {
        "type": "note_off",
        "note": 51,
        "time": 105201,
        "channel": 9
      },
      {
        "type": "note_off",
        "note": 36,
        "time": 105210,
        "channel": 9
      },
      {
        "type": "note_off",
        "note": 38,
        "time": 105210,
        "channel": 9
      },
      {
        "type": "note_on",
        "note": 51,
        "velocity": 127,
        "time": 105341,
        "channel": 9
      },
      {
        "type": "note_off",
        "note": 51,
        "time": 105438,
        "channel": 9
      },
      {
        "type": "note_on",
        "note": 51,
        "velocity": 59,
        "time": 105593,
        "channel": 9
      },
      {
        "type": "note_on",
        "note": 36,
        "velocity": 52,
        "time": 105595,
        "channel": 9
      },
      {
        "type": "note_off",
        "note": 51,
        "time": 105690,
        "channel": 9
      },
      {
        "type": "note_off",
        "note": 36,
        "time": 105691,
        "channel": 9
      },
      {
        "type": "note_on",
        "note": 51,
        "velocity": 127,
        "time": 105819,
        "channel": 9
      },
      {
        "type": "note_on",
        "note": 48,
        "velocity": 111,
        "time": 105823,
        "channel": 9
      },
      {
        "type": "note_off",
        "note": 51,
        "time": 105916,
        "channel": 9
      },
      {
        "type": "note_off",
        "note": 48,
        "time": 105920,
        "channel": 9
      },
      {
        "type": "note_on",
        "note": 44,
        "velocity": 90,
        "time": 106035,
        "channel": 9
      },
      {
        "type": "note_on",
        "note": 36,
        "velocity": 51,
        "time": 106066,
        "channel": 9
      },
      {
        "type": "note_off",
        "note": 44,
        "time": 106132,
        "channel": 9
      },
      {
        "type": "note_off",
        "note": 36,
        "time": 106163,
        "channel": 9
      },
      {
        "type": "note_on",
        "note": 51,
        "velocity": 127,
        "time": 106303,
        "channel": 9
      },
      {
        "type": "note_on",
        "note": 48,
        "velocity": 115,
        "time": 106317,
        "channel": 9
      },
      {
        "type": "note_off",
        "note": 51,
        "time": 106400,
        "channel": 9
      },
      {
        "type": "note_off",
        "note": 48,
        "time": 106414,
        "channel": 9
      },
      {
        "type": "note_on",
        "note": 36,
        "velocity": 59,
        "time": 106541,
        "channel": 9
      },
      {
        "type": "note_off",
        "note": 36,
        "time": 106638,
        "channel": 9
      },
      {
        "type": "note_on",
        "note": 43,
        "velocity": 119,
        "time": 106949,
        "channel": 9
      },
      {
        "type": "note_on",
        "note": 44,
        "velocity": 105,
        "time": 107023,
        "channel": 9
      },
      {
        "type": "note_off",
        "note": 43,
        "time": 107046,
        "channel": 9
      },
      {
        "type": "note_on",
        "note": 43,
        "velocity": 127,
        "time": 107054,
        "channel": 9
      },
      {
        "type": "note_off",
        "note": 44,
        "time": 107120,
        "channel": 9
      },
      {
        "type": "note_off",
        "note": 43,
        "time": 107151,
        "channel": 9
      },
      {
        "type": "note_on",
        "note": 36,
        "velocity": 58,
        "time": 107484,
        "channel": 9
      },
      {
        "type": "note_off",
        "note": 36,
        "time": 107581,
        "channel": 9
      },
      {
        "type": "note_on",
        "note": 51,
        "velocity": 127,
        "time": 107747,
        "channel": 9
      },
      {
        "type": "note_off",
        "note": 51,
        "time": 107844,
        "channel": 9
      },
      {
        "type": "note_on",
        "note": 44,
        "velocity": 92,
        "time": 107961,
        "channel": 9
      },
      {
        "type": "note_on",
        "note": 36,
        "velocity": 25,
        "time": 107978,
        "channel": 9
      },
      {
        "type": "note_on",
        "note": 40,
        "velocity": 92,
        "time": 107988,
        "channel": 9
      },
      {
        "type": "note_off",
        "note": 44,
        "time": 108058,
        "channel": 9
      },
      {
        "type": "note_off",
        "note": 36,
        "time": 108075,
        "channel": 9
      },
      {
        "type": "note_off",
        "note": 40,
        "time": 108086,
        "channel": 9
      },
      {
        "type": "note_on",
        "note": 51,
        "velocity": 126,
        "time": 108230,
        "channel": 9
      },
      {
        "type": "note_off",
        "note": 51,
        "time": 108327,
        "channel": 9
      },
      {
        "type": "note_on",
        "note": 44,
        "velocity": 27,
        "time": 108432,
        "channel": 9
      },
      {
        "type": "note_on",
        "note": 36,
        "velocity": 57,
        "time": 108482,
        "channel": 9
      },
      {
        "type": "note_off",
        "note": 44,
        "time": 108530,
        "channel": 9
      },
      {
        "type": "note_off",
        "note": 36,
        "time": 108579,
        "channel": 9
      },
      {
        "type": "note_on",
        "note": 51,
        "velocity": 124,
        "time": 108703,
        "channel": 9
      },
      {
        "type": "note_off",
        "note": 51,
        "time": 108800,
        "channel": 9
      },
      {
        "type": "note_on",
        "note": 44,
        "velocity": 85,
        "time": 108928,
        "channel": 9
      },
      {
        "type": "note_on",
        "note": 37,
        "velocity": 90,
        "time": 108945,
        "channel": 9
      },
      {
        "type": "note_on",
        "note": 36,
        "velocity": 52,
        "time": 108959,
        "channel": 9
      },
      {
        "type": "note_off",
        "note": 44,
        "time": 109025,
        "channel": 9
      },
      {
        "type": "note_off",
        "note": 37,
        "time": 109042,
        "channel": 9
      },
      {
        "type": "note_off",
        "note": 36,
        "time": 109055,
        "channel": 9
      },
      {
        "type": "note_on",
        "note": 51,
        "velocity": 127,
        "time": 109289,
        "channel": 9
      },
      {
        "type": "note_off",
        "note": 51,
        "time": 109386,
        "channel": 9
      },
      {
        "type": "note_on",
        "note": 36,
        "velocity": 52,
        "time": 109433,
        "channel": 9
      },
      {
        "type": "note_off",
        "note": 36,
        "time": 109530,
        "channel": 9
      },
      {
        "type": "note_on",
        "note": 51,
        "velocity": 127,
        "time": 109681,
        "channel": 9
      },
      {
        "type": "note_off",
        "note": 51,
        "time": 109777,
        "channel": 9
      },
      {
        "type": "note_on",
        "note": 44,
        "velocity": 82,
        "time": 109876,
        "channel": 9
      },
      {
        "type": "note_on",
        "note": 37,
        "velocity": 83,
        "time": 109914,
        "channel": 9
      },
      {
        "type": "note_on",
        "note": 36,
        "velocity": 49,
        "time": 109922,
        "channel": 9
      },
      {
        "type": "note_off",
        "note": 44,
        "time": 109974,
        "channel": 9
      },
      {
        "type": "note_off",
        "note": 37,
        "time": 110011,
        "channel": 9
      },
      {
        "type": "note_off",
        "note": 36,
        "time": 110019,
        "channel": 9
      },
      {
        "type": "note_on",
        "note": 51,
        "velocity": 115,
        "time": 110143,
        "channel": 9
      },
      {
        "type": "note_off",
        "note": 51,
        "time": 110240,
        "channel": 9
      },
      {
        "type": "note_on",
        "note": 36,
        "velocity": 52,
        "time": 110393,
        "channel": 9
      },
      {
        "type": "note_off",
        "note": 36,
        "time": 110489,
        "channel": 9
      },
      {
        "type": "note_on",
        "note": 51,
        "velocity": 127,
        "time": 110626,
        "channel": 9
      },
      {
        "type": "note_off",
        "note": 51,
        "time": 110723,
        "channel": 9
      },
      {
        "type": "note_on",
        "note": 44,
        "velocity": 92,
        "time": 110838,
        "channel": 9
      },
      {
        "type": "note_on",
        "note": 36,
        "velocity": 46,
        "time": 110868,
        "channel": 9
      },
      {
        "type": "note_on",
        "note": 37,
        "velocity": 81,
        "time": 110877,
        "channel": 9
      },
      {
        "type": "note_off",
        "note": 44,
        "time": 110935,
        "channel": 9
      },
      {
        "type": "note_off",
        "note": 36,
        "time": 110966,
        "channel": 9
      },
      {
        "type": "note_off",
        "note": 37,
        "time": 110974,
        "channel": 9
      },
      {
        "type": "note_on",
        "note": 38,
        "velocity": 19,
        "time": 111097,
        "channel": 9
      },
      {
        "type": "note_off",
        "note": 38,
        "time": 111194,
        "channel": 9
      },
      {
        "type": "note_on",
        "note": 48,
        "velocity": 95,
        "time": 111222,
        "channel": 9
      },
      {
        "type": "note_off",
        "note": 48,
        "time": 111319,
        "channel": 9
      },
      {
        "type": "note_on",
        "note": 36,
        "velocity": 55,
        "time": 111341,
        "channel": 9
      },
      {
        "type": "note_off",
        "note": 36,
        "time": 111438,
        "channel": 9
      },
      {
        "type": "note_on",
        "note": 48,
        "velocity": 117,
        "time": 111574,
        "channel": 9
      },
      {
        "type": "note_off",
        "note": 48,
        "time": 111670,
        "channel": 9
      },
      {
        "type": "note_on",
        "note": 44,
        "velocity": 85,
        "time": 111789,
        "channel": 9
      },
      {
        "type": "note_on",
        "note": 38,
        "velocity": 91,
        "time": 111822,
        "channel": 9
      },
      {
        "type": "note_on",
        "note": 36,
        "velocity": 51,
        "time": 111828,
        "channel": 9
      },
      {
        "type": "note_off",
        "note": 44,
        "time": 111886,
        "channel": 9
      },
      {
        "type": "note_off",
        "note": 38,
        "time": 111919,
        "channel": 9
      },
      {
        "type": "note_off",
        "note": 36,
        "time": 111925,
        "channel": 9
      },
      {
        "type": "note_on",
        "note": 51,
        "velocity": 127,
        "time": 112056,
        "channel": 9
      },
      {
        "type": "note_off",
        "note": 51,
        "time": 112153,
        "channel": 9
      },
      {
        "type": "note_on",
        "note": 36,
        "velocity": 52,
        "time": 112304,
        "channel": 9
      },
      {
        "type": "note_off",
        "note": 36,
        "time": 112401,
        "channel": 9
      },
      {
        "type": "note_on",
        "note": 51,
        "velocity": 127,
        "time": 112538,
        "channel": 9
      },
      {
        "type": "note_off",
        "note": 51,
        "time": 112634,
        "channel": 9
      },
      {
        "type": "note_on",
        "note": 44,
        "velocity": 95,
        "time": 112747,
        "channel": 9
      },
      {
        "type": "note_on",
        "note": 36,
        "velocity": 48,
        "time": 112769,
        "channel": 9
      },
      {
        "type": "note_on",
        "note": 38,
        "velocity": 92,
        "time": 112783,
        "channel": 9
      },
      {
        "type": "note_off",
        "note": 44,
        "time": 112844,
        "channel": 9
      },
      {
        "type": "note_off",
        "note": 36,
        "time": 112865,
        "channel": 9
      },
      {
        "type": "note_off",
        "note": 38,
        "time": 112880,
        "channel": 9
      },
      {
        "type": "note_on",
        "note": 51,
        "velocity": 105,
        "time": 113003,
        "channel": 9
      },
      {
        "type": "note_off",
        "note": 51,
        "time": 113100,
        "channel": 9
      },
      {
        "type": "note_on",
        "note": 48,
        "velocity": 87,
        "time": 113143,
        "channel": 9
      },
      {
        "type": "note_off",
        "note": 48,
        "time": 113240,
        "channel": 9
      },
      {
        "type": "note_on",
        "note": 36,
        "velocity": 44,
        "time": 113253,
        "channel": 9
      },
      {
        "type": "note_off",
        "note": 36,
        "time": 113349,
        "channel": 9
      },
      {
        "type": "note_on",
        "note": 51,
        "velocity": 127,
        "time": 113484,
        "channel": 9
      },
      {
        "type": "note_on",
        "note": 48,
        "velocity": 86,
        "time": 113494,
        "channel": 9
      },
      {
        "type": "note_off",
        "note": 51,
        "time": 113581,
        "channel": 9
      },
      {
        "type": "note_off",
        "note": 48,
        "time": 113591,
        "channel": 9
      },
      {
        "type": "note_on",
        "note": 44,
        "velocity": 87,
        "time": 113700,
        "channel": 9
      },
      {
        "type": "note_on",
        "note": 36,
        "velocity": 50,
        "time": 113721,
        "channel": 9
      },
      {
        "type": "note_on",
        "note": 38,
        "velocity": 84,
        "time": 113752,
        "channel": 9
      },
      {
        "type": "note_off",
        "note": 44,
        "time": 113798,
        "channel": 9
      },
      {
        "type": "note_off",
        "note": 36,
        "time": 113818,
        "channel": 9
      },
      {
        "type": "note_off",
        "note": 38,
        "time": 113848,
        "channel": 9
      },
      {
        "type": "note_on",
        "note": 51,
        "velocity": 127,
        "time": 113979,
        "channel": 9
      },
      {
        "type": "note_off",
        "note": 51,
        "time": 114076,
        "channel": 9
      },
      {
        "type": "note_on",
        "note": 36,
        "velocity": 55,
        "time": 114224,
        "channel": 9
      },
      {
        "type": "note_off",
        "note": 36,
        "time": 114321,
        "channel": 9
      },
      {
        "type": "note_on",
        "note": 51,
        "velocity": 127,
        "time": 114436,
        "channel": 9
      },
      {
        "type": "note_off",
        "note": 51,
        "time": 114533,
        "channel": 9
      },
      {
        "type": "note_on",
        "note": 44,
        "velocity": 92,
        "time": 114684,
        "channel": 9
      },
      {
        "type": "note_on",
        "note": 36,
        "velocity": 50,
        "time": 114689,
        "channel": 9
      },
      {
        "type": "note_on",
        "note": 38,
        "velocity": 99,
        "time": 114697,
        "channel": 9
      },
      {
        "type": "note_off",
        "note": 44,
        "time": 114782,
        "channel": 9
      },
      {
        "type": "note_off",
        "note": 36,
        "time": 114786,
        "channel": 9
      },
      {
        "type": "note_off",
        "note": 38,
        "time": 114794,
        "channel": 9
      },
      {
        "type": "note_on",
        "note": 51,
        "velocity": 122,
        "time": 114926,
        "channel": 9
      },
      {
        "type": "note_off",
        "note": 51,
        "time": 115023,
        "channel": 9
      },
      {
        "type": "note_on",
        "note": 48,
        "velocity": 90,
        "time": 115027,
        "channel": 9
      },
      {
        "type": "note_off",
        "note": 48,
        "time": 115124,
        "channel": 9
      },
      {
        "type": "note_on",
        "note": 36,
        "velocity": 50,
        "time": 115177,
        "channel": 9
      },
      {
        "type": "note_off",
        "note": 36,
        "time": 115274,
        "channel": 9
      },
      {
        "type": "note_on",
        "note": 48,
        "velocity": 95,
        "time": 115393,
        "channel": 9
      },
      {
        "type": "note_on",
        "note": 51,
        "velocity": 119,
        "time": 115400,
        "channel": 9
      },
      {
        "type": "note_on",
        "note": 42,
        "velocity": 14,
        "time": 115408,
        "channel": 9
      },
      {
        "type": "note_off",
        "note": 48,
        "time": 115490,
        "channel": 9
      },
      {
        "type": "note_off",
        "note": 51,
        "time": 115497,
        "channel": 9
      },
      {
        "type": "note_off",
        "note": 42,
        "time": 115504,
        "channel": 9
      },
      {
        "type": "note_on",
        "note": 44,
        "velocity": 90,
        "time": 115621,
        "channel": 9
      },
      {
        "type": "note_on",
        "note": 36,
        "velocity": 49,
        "time": 115658,
        "channel": 9
      },
      {
        "type": "note_on",
        "note": 38,
        "velocity": 91,
        "time": 115660,
        "channel": 9
      },
      {
        "type": "note_off",
        "note": 44,
        "time": 115718,
        "channel": 9
      },
      {
        "type": "note_off",
        "note": 36,
        "time": 115755,
        "channel": 9
      },
      {
        "type": "note_off",
        "note": 38,
        "time": 115757,
        "channel": 9
      },
      {
        "type": "note_on",
        "note": 51,
        "velocity": 127,
        "time": 115887,
        "channel": 9
      },
      {
        "type": "note_off",
        "note": 51,
        "time": 115984,
        "channel": 9
      },
      {
        "type": "note_on",
        "note": 36,
        "velocity": 50,
        "time": 116126,
        "channel": 9
      },
      {
        "type": "note_off",
        "note": 36,
        "time": 116223,
        "channel": 9
      },
      {
        "type": "note_on",
        "note": 51,
        "velocity": 120,
        "time": 116369,
        "channel": 9
      },
      {
        "type": "note_off",
        "note": 51,
        "time": 116466,
        "channel": 9
      },
      {
        "type": "note_on",
        "note": 44,
        "velocity": 82,
        "time": 116591,
        "channel": 9
      },
      {
        "type": "note_on",
        "note": 40,
        "velocity": 96,
        "time": 116611,
        "channel": 9
      },
      {
        "type": "note_on",
        "note": 36,
        "velocity": 51,
        "time": 116612,
        "channel": 9
      },
      {
        "type": "note_off",
        "note": 44,
        "time": 116687,
        "channel": 9
      },
      {
        "type": "note_off",
        "note": 40,
        "time": 116707,
        "channel": 9
      },
      {
        "type": "note_off",
        "note": 36,
        "time": 116709,
        "channel": 9
      },
      {
        "type": "note_on",
        "note": 51,
        "velocity": 107,
        "time": 116844,
        "channel": 9
      },
      {
        "type": "note_off",
        "note": 51,
        "time": 116942,
        "channel": 9
      },
      {
        "type": "note_on",
        "note": 48,
        "velocity": 89,
        "time": 116969,
        "channel": 9
      },
      {
        "type": "note_off",
        "note": 48,
        "time": 117065,
        "channel": 9
      },
      {
        "type": "note_on",
        "note": 36,
        "velocity": 51,
        "time": 117088,
        "channel": 9
      },
      {
        "type": "note_off",
        "note": 36,
        "time": 117185,
        "channel": 9
      },
      {
        "type": "note_on",
        "note": 48,
        "velocity": 93,
        "time": 117337,
        "channel": 9
      },
      {
        "type": "note_on",
        "note": 51,
        "velocity": 113,
        "time": 117339,
        "channel": 9
      },
      {
        "type": "note_on",
        "note": 42,
        "velocity": 14,
        "time": 117351,
        "channel": 9
      },
      {
        "type": "note_off",
        "note": 48,
        "time": 117434,
        "channel": 9
      },
      {
        "type": "note_off",
        "note": 51,
        "time": 117436,
        "channel": 9
      },
      {
        "type": "note_off",
        "note": 42,
        "time": 117448,
        "channel": 9
      },
      {
        "type": "note_on",
        "note": 44,
        "velocity": 92,
        "time": 117576,
        "channel": 9
      },
      {
        "type": "note_on",
        "note": 36,
        "velocity": 48,
        "time": 117599,
        "channel": 9
      },
      {
        "type": "note_on",
        "note": 38,
        "velocity": 75,
        "time": 117629,
        "channel": 9
      },
      {
        "type": "note_off",
        "note": 44,
        "time": 117673,
        "channel": 9
      },
      {
        "type": "note_off",
        "note": 36,
        "time": 117696,
        "channel": 9
      },
      {
        "type": "note_off",
        "note": 38,
        "time": 117725,
        "channel": 9
      },
      {
        "type": "note_on",
        "note": 51,
        "velocity": 106,
        "time": 117834,
        "channel": 9
      },
      {
        "type": "note_off",
        "note": 51,
        "time": 117931,
        "channel": 9
      },
      {
        "type": "note_on",
        "note": 36,
        "velocity": 50,
        "time": 118072,
        "channel": 9
      },
      {
        "type": "note_off",
        "note": 36,
        "time": 118168,
        "channel": 9
      },
      {
        "type": "note_on",
        "note": 51,
        "velocity": 118,
        "time": 118313,
        "channel": 9
      },
      {
        "type": "note_off",
        "note": 51,
        "time": 118409,
        "channel": 9
      },
      {
        "type": "note_on",
        "note": 44,
        "velocity": 92,
        "time": 118545,
        "channel": 9
      },
      {
        "type": "note_on",
        "note": 38,
        "velocity": 96,
        "time": 118551,
        "channel": 9
      },
      {
        "type": "note_on",
        "note": 36,
        "velocity": 42,
        "time": 118561,
        "channel": 9
      },
      {
        "type": "note_off",
        "note": 44,
        "time": 118642,
        "channel": 9
      },
      {
        "type": "note_off",
        "note": 38,
        "time": 118648,
        "channel": 9
      },
      {
        "type": "note_off",
        "note": 36,
        "time": 118658,
        "channel": 9
      },
      {
        "type": "note_on",
        "note": 51,
        "velocity": 106,
        "time": 118787,
        "channel": 9
      },
      {
        "type": "note_off",
        "note": 51,
        "time": 118884,
        "channel": 9
      },
      {
        "type": "note_on",
        "note": 48,
        "velocity": 79,
        "time": 118899,
        "channel": 9
      },
      {
        "type": "note_on",
        "note": 42,
        "velocity": 15,
        "time": 118912,
        "channel": 9
      },
      {
        "type": "note_off",
        "note": 48,
        "time": 118996,
        "channel": 9
      },
      {
        "type": "note_off",
        "note": 42,
        "time": 119009,
        "channel": 9
      },
      {
        "type": "note_on",
        "note": 36,
        "velocity": 53,
        "time": 119012,
        "channel": 9
      },
      {
        "type": "note_off",
        "note": 36,
        "time": 119109,
        "channel": 9
      },
      {
        "type": "note_on",
        "note": 48,
        "velocity": 52,
        "time": 119260,
        "channel": 9
      },
      {
        "type": "note_on",
        "note": 51,
        "velocity": 112,
        "time": 119265,
        "channel": 9
      },
      {
        "type": "note_on",
        "note": 42,
        "velocity": 13,
        "time": 119273,
        "channel": 9
      },
      {
        "type": "note_off",
        "note": 48,
        "time": 119357,
        "channel": 9
      },
      {
        "type": "note_off",
        "note": 51,
        "time": 119362,
        "channel": 9
      },
      {
        "type": "note_off",
        "note": 42,
        "time": 119370,
        "channel": 9
      },
      {
        "type": "note_on",
        "note": 44,
        "velocity": 82,
        "time": 119490,
        "channel": 9
      },
      {
        "type": "note_on",
        "note": 37,
        "velocity": 88,
        "time": 119502,
        "channel": 9
      },
      {
        "type": "note_on",
        "note": 36,
        "velocity": 48,
        "time": 119512,
        "channel": 9
      },
      {
        "type": "note_on",
        "note": 38,
        "velocity": 39,
        "time": 119563,
        "channel": 9
      },
      {
        "type": "note_off",
        "note": 44,
        "time": 119587,
        "channel": 9
      },
      {
        "type": "note_off",
        "note": 37,
        "time": 119599,
        "channel": 9
      },
      {
        "type": "note_off",
        "note": 36,
        "time": 119609,
        "channel": 9
      },
      {
        "type": "note_off",
        "note": 38,
        "time": 119659,
        "channel": 9
      },
      {
        "type": "note_on",
        "note": 51,
        "velocity": 127,
        "time": 119743,
        "channel": 9
      },
      {
        "type": "note_off",
        "note": 51,
        "time": 119841,
        "channel": 9
      },
      {
        "type": "note_on",
        "note": 36,
        "velocity": 51,
        "time": 119959,
        "channel": 9
      },
      {
        "type": "note_off",
        "note": 36,
        "time": 120056,
        "channel": 9
      },
      {
        "type": "note_on",
        "note": 51,
        "velocity": 123,
        "time": 120225,
        "channel": 9
      },
      {
        "type": "note_off",
        "note": 51,
        "time": 120322,
        "channel": 9
      },
      {
        "type": "note_on",
        "note": 44,
        "velocity": 87,
        "time": 120445,
        "channel": 9
      },
      {
        "type": "note_on",
        "note": 37,
        "velocity": 84,
        "time": 120469,
        "channel": 9
      },
      {
        "type": "note_on",
        "note": 36,
        "velocity": 49,
        "time": 120476,
        "channel": 9
      },
      {
        "type": "note_off",
        "note": 44,
        "time": 120542,
        "channel": 9
      },
      {
        "type": "note_off",
        "note": 37,
        "time": 120565,
        "channel": 9
      },
      {
        "type": "note_off",
        "note": 36,
        "time": 120572,
        "channel": 9
      },
      {
        "type": "note_on",
        "note": 51,
        "velocity": 125,
        "time": 120703,
        "channel": 9
      },
      {
        "type": "note_off",
        "note": 51,
        "time": 120800,
        "channel": 9
      },
      {
        "type": "note_on",
        "note": 48,
        "velocity": 83,
        "time": 120836,
        "channel": 9
      },
      {
        "type": "note_off",
        "note": 48,
        "time": 120932,
        "channel": 9
      },
      {
        "type": "note_on",
        "note": 36,
        "velocity": 43,
        "time": 120949,
        "channel": 9
      },
      {
        "type": "note_off",
        "note": 36,
        "time": 121046,
        "channel": 9
      },
      {
        "type": "note_on",
        "note": 48,
        "velocity": 82,
        "time": 121185,
        "channel": 9
      },
      {
        "type": "note_on",
        "note": 51,
        "velocity": 119,
        "time": 121188,
        "channel": 9
      },
      {
        "type": "note_on",
        "note": 42,
        "velocity": 14,
        "time": 121198,
        "channel": 9
      },
      {
        "type": "note_off",
        "note": 48,
        "time": 121282,
        "channel": 9
      },
      {
        "type": "note_off",
        "note": 51,
        "time": 121285,
        "channel": 9
      },
      {
        "type": "note_off",
        "note": 42,
        "time": 121296,
        "channel": 9
      },
      {
        "type": "note_on",
        "note": 37,
        "velocity": 89,
        "time": 121439,
        "channel": 9
      },
      {
        "type": "note_on",
        "note": 44,
        "velocity": 90,
        "time": 121443,
        "channel": 9
      },
      {
        "type": "note_on",
        "note": 36,
        "velocity": 44,
        "time": 121454,
        "channel": 9
      },
      {
        "type": "note_off",
        "note": 37,
        "time": 121536,
        "channel": 9
      },
      {
        "type": "note_off",
        "note": 44,
        "time": 121541,
        "channel": 9
      },
      {
        "type": "note_off",
        "note": 36,
        "time": 121550,
        "channel": 9
      },
      {
        "type": "note_on",
        "note": 51,
        "velocity": 127,
        "time": 121675,
        "channel": 9
      },
      {
        "type": "note_off",
        "note": 51,
        "time": 121772,
        "channel": 9
      },
      {
        "type": "note_on",
        "note": 36,
        "velocity": 48,
        "time": 121917,
        "channel": 9
      },
      {
        "type": "note_off",
        "note": 36,
        "time": 122014,
        "channel": 9
      },
      {
        "type": "note_on",
        "note": 51,
        "velocity": 124,
        "time": 122162,
        "channel": 9
      },
      {
        "type": "note_off",
        "note": 51,
        "time": 122258,
        "channel": 9
      },
      {
        "type": "note_on",
        "note": 44,
        "velocity": 82,
        "time": 122366,
        "channel": 9
      },
      {
        "type": "note_on",
        "note": 38,
        "velocity": 93,
        "time": 122386,
        "channel": 9
      },
      {
        "type": "note_on",
        "note": 36,
        "velocity": 40,
        "time": 122398,
        "channel": 9
      },
      {
        "type": "note_off",
        "note": 44,
        "time": 122463,
        "channel": 9
      },
      {
        "type": "note_off",
        "note": 38,
        "time": 122483,
        "channel": 9
      },
      {
        "type": "note_off",
        "note": 36,
        "time": 122495,
        "channel": 9
      },
      {
        "type": "note_on",
        "note": 51,
        "velocity": 114,
        "time": 122628,
        "channel": 9
      },
      {
        "type": "note_off",
        "note": 51,
        "time": 122725,
        "channel": 9
      },
      {
        "type": "note_on",
        "note": 48,
        "velocity": 86,
        "time": 122741,
        "channel": 9
      },
      {
        "type": "note_on",
        "note": 42,
        "velocity": 15,
        "time": 122754,
        "channel": 9
      },
      {
        "type": "note_off",
        "note": 48,
        "time": 122838,
        "channel": 9
      },
      {
        "type": "note_off",
        "note": 42,
        "time": 122851,
        "channel": 9
      },
      {
        "type": "note_on",
        "note": 36,
        "velocity": 48,
        "time": 122853,
        "channel": 9
      },
      {
        "type": "note_off",
        "note": 36,
        "time": 122950,
        "channel": 9
      },
      {
        "type": "note_on",
        "note": 48,
        "velocity": 96,
        "time": 123099,
        "channel": 9
      },
      {
        "type": "note_on",
        "note": 51,
        "velocity": 127,
        "time": 123106,
        "channel": 9
      },
      {
        "type": "note_off",
        "note": 48,
        "time": 123196,
        "channel": 9
      },
      {
        "type": "note_off",
        "note": 51,
        "time": 123203,
        "channel": 9
      },
      {
        "type": "note_on",
        "note": 44,
        "velocity": 77,
        "time": 123306,
        "channel": 9
      },
      {
        "type": "note_on",
        "note": 36,
        "velocity": 46,
        "time": 123342,
        "channel": 9
      },
      {
        "type": "note_on",
        "note": 37,
        "velocity": 86,
        "time": 123342,
        "channel": 9
      },
      {
        "type": "note_off",
        "note": 44,
        "time": 123403,
        "channel": 9
      },
      {
        "type": "note_off",
        "note": 36,
        "time": 123439,
        "channel": 9
      },
      {
        "type": "note_off",
        "note": 37,
        "time": 123439,
        "channel": 9
      },
      {
        "type": "note_on",
        "note": 51,
        "velocity": 125,
        "time": 123589,
        "channel": 9
      },
      {
        "type": "note_off",
        "note": 51,
        "time": 123686,
        "channel": 9
      },
      {
        "type": "note_on",
        "note": 36,
        "velocity": 48,
        "time": 123826,
        "channel": 9
      },
      {
        "type": "note_off",
        "note": 36,
        "time": 123924,
        "channel": 9
      },
      {
        "type": "note_on",
        "note": 51,
        "velocity": 127,
        "time": 124054,
        "channel": 9
      },
      {
        "type": "note_off",
        "note": 51,
        "time": 124151,
        "channel": 9
      },
      {
        "type": "note_on",
        "note": 44,
        "velocity": 90,
        "time": 124275,
        "channel": 9
      },
      {
        "type": "note_on",
        "note": 38,
        "velocity": 88,
        "time": 124292,
        "channel": 9
      },
      {
        "type": "note_on",
        "note": 36,
        "velocity": 45,
        "time": 124307,
        "channel": 9
      },
      {
        "type": "note_off",
        "note": 44,
        "time": 124373,
        "channel": 9
      },
      {
        "type": "note_off",
        "note": 38,
        "time": 124375,
        "channel": 9
      },
      {
        "type": "note_on",
        "note": 38,
        "velocity": 28,
        "time": 124375,
        "channel": 9
      },
      {
        "type": "note_off",
        "note": 38,
        "time": 124389,
        "channel": 9
      },
      {
        "type": "note_off",
        "note": 36,
        "time": 124404,
        "channel": 9
      },
      {
        "type": "note_on",
        "note": 51,
        "velocity": 123,
        "time": 124540,
        "channel": 9
      },
      {
        "type": "note_off",
        "note": 51,
        "time": 124637,
        "channel": 9
      },
      {
        "type": "note_on",
        "note": 48,
        "velocity": 83,
        "time": 124648,
        "channel": 9
      },
      {
        "type": "note_off",
        "note": 48,
        "time": 124744,
        "channel": 9
      },
      {
        "type": "note_on",
        "note": 36,
        "velocity": 47,
        "time": 124788,
        "channel": 9
      },
      {
        "type": "note_off",
        "note": 36,
        "time": 124886,
        "channel": 9
      },
      {
        "type": "note_on",
        "note": 48,
        "velocity": 88,
        "time": 125024,
        "channel": 9
      },
      {
        "type": "note_on",
        "note": 51,
        "velocity": 125,
        "time": 125029,
        "channel": 9
      },
      {
        "type": "note_off",
        "note": 48,
        "time": 125121,
        "channel": 9
      },
      {
        "type": "note_off",
        "note": 51,
        "time": 125125,
        "channel": 9
      },
      {
        "type": "note_on",
        "note": 44,
        "velocity": 95,
        "time": 125259,
        "channel": 9
      },
      {
        "type": "note_on",
        "note": 37,
        "velocity": 82,
        "time": 125268,
        "channel": 9
      },
      {
        "type": "note_on",
        "note": 36,
        "velocity": 48,
        "time": 125286,
        "channel": 9
      },
      {
        "type": "note_off",
        "note": 44,
        "time": 125357,
        "channel": 9
      },
      {
        "type": "note_off",
        "note": 37,
        "time": 125364,
        "channel": 9
      },
      {
        "type": "note_off",
        "note": 36,
        "time": 125383,
        "channel": 9
      },
      {
        "type": "note_on",
        "note": 51,
        "velocity": 127,
        "time": 125513,
        "channel": 9
      },
      {
        "type": "note_off",
        "note": 51,
        "time": 125609,
        "channel": 9
      },
      {
        "type": "note_on",
        "note": 36,
        "velocity": 46,
        "time": 125762,
        "channel": 9
      },
      {
        "type": "note_off",
        "note": 36,
        "time": 125859,
        "channel": 9
      },
      {
        "type": "note_on",
        "note": 51,
        "velocity": 127,
        "time": 125994,
        "channel": 9
      },
      {
        "type": "note_off",
        "note": 51,
        "time": 126091,
        "channel": 9
      },
      {
        "type": "note_on",
        "note": 44,
        "velocity": 85,
        "time": 126212,
        "channel": 9
      },
      {
        "type": "note_on",
        "note": 38,
        "velocity": 89,
        "time": 126233,
        "channel": 9
      },
      {
        "type": "note_on",
        "note": 36,
        "velocity": 43,
        "time": 126244,
        "channel": 9
      },
      {
        "type": "note_off",
        "note": 44,
        "time": 126309,
        "channel": 9
      },
      {
        "type": "note_off",
        "note": 38,
        "time": 126330,
        "channel": 9
      },
      {
        "type": "note_off",
        "note": 36,
        "time": 126341,
        "channel": 9
      },
      {
        "type": "note_on",
        "note": 51,
        "velocity": 112,
        "time": 126460,
        "channel": 9
      },
      {
        "type": "note_off",
        "note": 51,
        "time": 126557,
        "channel": 9
      },
      {
        "type": "note_on",
        "note": 48,
        "velocity": 87,
        "time": 126588,
        "channel": 9
      },
      {
        "type": "note_on",
        "note": 46,
        "velocity": 13,
        "time": 126602,
        "channel": 9
      },
      {
        "type": "note_off",
        "note": 48,
        "time": 126685,
        "channel": 9
      },
      {
        "type": "note_off",
        "note": 46,
        "time": 126699,
        "channel": 9
      },
      {
        "type": "note_on",
        "note": 36,
        "velocity": 46,
        "time": 126703,
        "channel": 9
      },
      {
        "type": "note_off",
        "note": 36,
        "time": 126800,
        "channel": 9
      },
      {
        "type": "note_on",
        "note": 51,
        "velocity": 117,
        "time": 126942,
        "channel": 9
      },
      {
        "type": "note_on",
        "note": 48,
        "velocity": 93,
        "time": 126947,
        "channel": 9
      },
      {
        "type": "note_on",
        "note": 42,
        "velocity": 15,
        "time": 126961,
        "channel": 9
      },
      {
        "type": "note_off",
        "note": 51,
        "time": 127039,
        "channel": 9
      },
      {
        "type": "note_off",
        "note": 48,
        "time": 127043,
        "channel": 9
      },
      {
        "type": "note_off",
        "note": 42,
        "time": 127058,
        "channel": 9
      },
      {
        "type": "note_on",
        "note": 44,
        "velocity": 80,
        "time": 127161,
        "channel": 9
      },
      {
        "type": "note_on",
        "note": 36,
        "velocity": 42,
        "time": 127193,
        "channel": 9
      },
      {
        "type": "note_on",
        "note": 38,
        "velocity": 86,
        "time": 127204,
        "channel": 9
      },
      {
        "type": "note_off",
        "note": 44,
        "time": 127258,
        "channel": 9
      },
      {
        "type": "note_off",
        "note": 36,
        "time": 127289,
        "channel": 9
      },
      {
        "type": "note_off",
        "note": 38,
        "time": 127301,
        "channel": 9
      },
      {
        "type": "note_on",
        "note": 51,
        "velocity": 118,
        "time": 127434,
        "channel": 9
      },
      {
        "type": "note_off",
        "note": 51,
        "time": 127530,
        "channel": 9
      },
      {
        "type": "note_on",
        "note": 36,
        "velocity": 46,
        "time": 127666,
        "channel": 9
      },
      {
        "type": "note_off",
        "note": 36,
        "time": 127762,
        "channel": 9
      },
      {
        "type": "note_on",
        "note": 51,
        "velocity": 127,
        "time": 127896,
        "channel": 9
      },
      {
        "type": "note_off",
        "note": 51,
        "time": 127993,
        "channel": 9
      },
      {
        "type": "note_on",
        "note": 44,
        "velocity": 82,
        "time": 128118,
        "channel": 9
      },
      {
        "type": "note_on",
        "note": 36,
        "velocity": 43,
        "time": 128142,
        "channel": 9
      },
      {
        "type": "note_on",
        "note": 38,
        "velocity": 90,
        "time": 128147,
        "channel": 9
      },
      {
        "type": "note_off",
        "note": 44,
        "time": 128216,
        "channel": 9
      },
      {
        "type": "note_off",
        "note": 36,
        "time": 128239,
        "channel": 9
      },
      {
        "type": "note_off",
        "note": 38,
        "time": 128243,
        "channel": 9
      },
      {
        "type": "note_on",
        "note": 51,
        "velocity": 122,
        "time": 128377,
        "channel": 9
      },
      {
        "type": "note_off",
        "note": 51,
        "time": 128474,
        "channel": 9
      },
      {
        "type": "note_on",
        "note": 48,
        "velocity": 83,
        "time": 128500,
        "channel": 9
      },
      {
        "type": "note_on",
        "note": 42,
        "velocity": 15,
        "time": 128513,
        "channel": 9
      },
      {
        "type": "note_off",
        "note": 48,
        "time": 128596,
        "channel": 9
      },
      {
        "type": "note_off",
        "note": 42,
        "time": 128611,
        "channel": 9
      },
      {
        "type": "note_on",
        "note": 36,
        "velocity": 40,
        "time": 128624,
        "channel": 9
      },
      {
        "type": "note_off",
        "note": 36,
        "time": 128721,
        "channel": 9
      },
      {
        "type": "note_on",
        "note": 48,
        "velocity": 86,
        "time": 128845,
        "channel": 9
      },
      {
        "type": "note_on",
        "note": 51,
        "velocity": 127,
        "time": 128845,
        "channel": 9
      },
      {
        "type": "note_off",
        "note": 48,
        "time": 128941,
        "channel": 9
      },
      {
        "type": "note_off",
        "note": 51,
        "time": 128941,
        "channel": 9
      },
      {
        "type": "note_on",
        "note": 44,
        "velocity": 82,
        "time": 129070,
        "channel": 9
      },
      {
        "type": "note_on",
        "note": 36,
        "velocity": 40,
        "time": 129091,
        "channel": 9
      },
      {
        "type": "note_on",
        "note": 37,
        "velocity": 86,
        "time": 129115,
        "channel": 9
      },
      {
        "type": "note_off",
        "note": 44,
        "time": 129167,
        "channel": 9
      },
      {
        "type": "note_off",
        "note": 36,
        "time": 129187,
        "channel": 9
      },
      {
        "type": "note_off",
        "note": 37,
        "time": 129212,
        "channel": 9
      },
      {
        "type": "note_on",
        "note": 51,
        "velocity": 112,
        "time": 129333,
        "channel": 9
      },
      {
        "type": "note_off",
        "note": 51,
        "time": 129430,
        "channel": 9
      },
      {
        "type": "note_on",
        "note": 48,
        "velocity": 111,
        "time": 129557,
        "channel": 9
      },
      {
        "type": "note_off",
        "note": 48,
        "time": 129654,
        "channel": 9
      },
      {
        "type": "note_on",
        "note": 43,
        "velocity": 127,
        "time": 129905,
        "channel": 9
      },
      {
        "type": "note_off",
        "note": 43,
        "time": 130002,
        "channel": 9
      },
      {
        "type": "note_on",
        "note": 44,
        "velocity": 110,
        "time": 130014,
        "channel": 9
      },
      {
        "type": "note_on",
        "note": 43,
        "velocity": 127,
        "time": 130026,
        "channel": 9
      },
      {
        "type": "note_off",
        "note": 44,
        "time": 130112,
        "channel": 9
      },
      {
        "type": "note_off",
        "note": 43,
        "time": 130123,
        "channel": 9
      },
      {
        "type": "note_on",
        "note": 36,
        "velocity": 57,
        "time": 130512,
        "channel": 9
      },
      {
        "type": "note_on",
        "note": 55,
        "velocity": 82,
        "time": 130522,
        "channel": 9
      },
      {
        "type": "note_off",
        "note": 36,
        "time": 130609,
        "channel": 9
      },
      {
        "type": "note_off",
        "note": 55,
        "time": 130619,
        "channel": 9
      },
      {
        "type": "note_on",
        "note": 51,
        "velocity": 73,
        "time": 130757,
        "channel": 9
      },
      {
        "type": "note_off",
        "note": 51,
        "time": 130854,
        "channel": 9
      },
      {
        "type": "note_on",
        "note": 44,
        "velocity": 92,
        "time": 130987,
        "channel": 9
      },
      {
        "type": "note_on",
        "note": 38,
        "velocity": 58,
        "time": 130999,
        "channel": 9
      },
      {
        "type": "note_on",
        "note": 51,
        "velocity": 61,
        "time": 131008,
        "channel": 9
      },
      {
        "type": "note_on",
        "note": 36,
        "velocity": 52,
        "time": 131015,
        "channel": 9
      },
      {
        "type": "note_off",
        "note": 44,
        "time": 131084,
        "channel": 9
      },
      {
        "type": "note_off",
        "note": 38,
        "time": 131096,
        "channel": 9
      },
      {
        "type": "note_off",
        "note": 51,
        "time": 131105,
        "channel": 9
      },
      {
        "type": "note_off",
        "note": 36,
        "time": 131111,
        "channel": 9
      },
      {
        "type": "note_on",
        "note": 51,
        "velocity": 81,
        "time": 131243,
        "channel": 9
      },
      {
        "type": "note_off",
        "note": 51,
        "time": 131339,
        "channel": 9
      },
      {
        "type": "note_on",
        "note": 51,
        "velocity": 45,
        "time": 131506,
        "channel": 9
      },
      {
        "type": "note_on",
        "note": 36,
        "velocity": 53,
        "time": 131520,
        "channel": 9
      },
      {
        "type": "note_off",
        "note": 51,
        "time": 131603,
        "channel": 9
      },
      {
        "type": "note_off",
        "note": 36,
        "time": 131617,
        "channel": 9
      },
      {
        "type": "note_on",
        "note": 51,
        "velocity": 80,
        "time": 131744,
        "channel": 9
      },
      {
        "type": "note_off",
        "note": 51,
        "time": 131842,
        "channel": 9
      },
      {
        "type": "note_on",
        "note": 44,
        "velocity": 87,
        "time": 131960,
        "channel": 9
      },
      {
        "type": "note_on",
        "note": 37,
        "velocity": 70,
        "time": 131993,
        "channel": 9
      },
      {
        "type": "note_on",
        "note": 36,
        "velocity": 55,
        "time": 132001,
        "channel": 9
      },
      {
        "type": "note_on",
        "note": 51,
        "velocity": 72,
        "time": 132002,
        "channel": 9
      },
      {
        "type": "note_off",
        "note": 44,
        "time": 132058,
        "channel": 9
      },
      {
        "type": "note_off",
        "note": 37,
        "time": 132090,
        "channel": 9
      },
      {
        "type": "note_off",
        "note": 36,
        "time": 132099,
        "channel": 9
      },
      {
        "type": "note_off",
        "note": 51,
        "time": 132099,
        "channel": 9
      },
      {
        "type": "note_on",
        "note": 51,
        "velocity": 84,
        "time": 132232,
        "channel": 9
      },
      {
        "type": "note_off",
        "note": 51,
        "time": 132329,
        "channel": 9
      },
      {
        "type": "note_on",
        "note": 38,
        "velocity": 13,
        "time": 132363,
        "channel": 9
      },
      {
        "type": "note_off",
        "note": 38,
        "time": 132460,
        "channel": 9
      },
      {
        "type": "note_on",
        "note": 51,
        "velocity": 54,
        "time": 132471,
        "channel": 9
      },
      {
        "type": "note_on",
        "note": 36,
        "velocity": 48,
        "time": 132483,
        "channel": 9
      },
      {
        "type": "note_off",
        "note": 51,
        "time": 132567,
        "channel": 9
      },
      {
        "type": "note_off",
        "note": 36,
        "time": 132580,
        "channel": 9
      },
      {
        "type": "note_on",
        "note": 51,
        "velocity": 46,
        "time": 132587,
        "channel": 9
      },
      {
        "type": "note_off",
        "note": 51,
        "time": 132684,
        "channel": 9
      },
      {
        "type": "note_on",
        "note": 51,
        "velocity": 89,
        "time": 132686,
        "channel": 9
      },
      {
        "type": "note_off",
        "note": 51,
        "time": 132783,
        "channel": 9
      },
      {
        "type": "note_on",
        "note": 44,
        "velocity": 82,
        "time": 132908,
        "channel": 9
      },
      {
        "type": "note_on",
        "note": 51,
        "velocity": 68,
        "time": 132928,
        "channel": 9
      },
      {
        "type": "note_on",
        "note": 38,
        "velocity": 77,
        "time": 132931,
        "channel": 9
      },
      {
        "type": "note_on",
        "note": 36,
        "velocity": 48,
        "time": 132943,
        "channel": 9
      },
      {
        "type": "note_off",
        "note": 44,
        "time": 133006,
        "channel": 9
      },
      {
        "type": "note_off",
        "note": 51,
        "time": 133025,
        "channel": 9
      },
      {
        "type": "note_off",
        "note": 38,
        "time": 133028,
        "channel": 9
      },
      {
        "type": "note_off",
        "note": 36,
        "time": 133040,
        "channel": 9
      },
      {
        "type": "note_on",
        "note": 51,
        "velocity": 110,
        "time": 133168,
        "channel": 9
      },
      {
        "type": "note_off",
        "note": 51,
        "time": 133265,
        "channel": 9
      },
      {
        "type": "note_on",
        "note": 36,
        "velocity": 48,
        "time": 133431,
        "channel": 9
      },
      {
        "type": "note_on",
        "note": 51,
        "velocity": 52,
        "time": 133433,
        "channel": 9
      },
      {
        "type": "note_off",
        "note": 36,
        "time": 133528,
        "channel": 9
      },
      {
        "type": "note_off",
        "note": 51,
        "time": 133528,
        "channel": 9
      },
      {
        "type": "note_on",
        "note": 51,
        "velocity": 94,
        "time": 133666,
        "channel": 9
      },
      {
        "type": "note_off",
        "note": 51,
        "time": 133762,
        "channel": 9
      },
      {
        "type": "note_on",
        "note": 44,
        "velocity": 82,
        "time": 133883,
        "channel": 9
      },
      {
        "type": "note_on",
        "note": 38,
        "velocity": 74,
        "time": 133908,
        "channel": 9
      },
      {
        "type": "note_on",
        "note": 51,
        "velocity": 87,
        "time": 133915,
        "channel": 9
      },
      {
        "type": "note_on",
        "note": 36,
        "velocity": 47,
        "time": 133924,
        "channel": 9
      },
      {
        "type": "note_off",
        "note": 44,
        "time": 133980,
        "channel": 9
      },
      {
        "type": "note_off",
        "note": 38,
        "time": 134004,
        "channel": 9
      },
      {
        "type": "note_off",
        "note": 51,
        "time": 134011,
        "channel": 9
      },
      {
        "type": "note_off",
        "note": 36,
        "time": 134021,
        "channel": 9
      },
      {
        "type": "note_on",
        "note": 51,
        "velocity": 118,
        "time": 134141,
        "channel": 9
      },
      {
        "type": "note_off",
        "note": 51,
        "time": 134238,
        "channel": 9
      },
      {
        "type": "note_on",
        "note": 38,
        "velocity": 21,
        "time": 134293,
        "channel": 9
      },
      {
        "type": "note_on",
        "note": 51,
        "velocity": 69,
        "time": 134386,
        "channel": 9
      },
      {
        "type": "note_off",
        "note": 38,
        "time": 134390,
        "channel": 9
      },
      {
        "type": "note_on",
        "note": 36,
        "velocity": 48,
        "time": 134394,
        "channel": 9
      },
      {
        "type": "note_off",
        "note": 51,
        "time": 134483,
        "channel": 9
      },
      {
        "type": "note_off",
        "note": 36,
        "time": 134490,
        "channel": 9
      },
      {
        "type": "note_on",
        "note": 51,
        "velocity": 65,
        "time": 134505,
        "channel": 9
      },
      {
        "type": "note_off",
        "note": 51,
        "time": 134601,
        "channel": 9
      },
      {
        "type": "note_on",
        "note": 51,
        "velocity": 96,
        "time": 134620,
        "channel": 9
      },
      {
        "type": "note_off",
        "note": 51,
        "time": 134717,
        "channel": 9
      },
      {
        "type": "note_on",
        "note": 44,
        "velocity": 85,
        "time": 134843,
        "channel": 9
      },
      {
        "type": "note_on",
        "note": 37,
        "velocity": 88,
        "time": 134858,
        "channel": 9
      },
      {
        "type": "note_on",
        "note": 51,
        "velocity": 73,
        "time": 134858,
        "channel": 9
      },
      {
        "type": "note_on",
        "note": 36,
        "velocity": 48,
        "time": 134876,
        "channel": 9
      },
      {
        "type": "note_off",
        "note": 44,
        "time": 134940,
        "channel": 9
      },
      {
        "type": "note_off",
        "note": 37,
        "time": 134955,
        "channel": 9
      },
      {
        "type": "note_off",
        "note": 51,
        "time": 134955,
        "channel": 9
      },
      {
        "type": "note_off",
        "note": 36,
        "time": 134973,
        "channel": 9
      },
      {
        "type": "note_on",
        "note": 51,
        "velocity": 118,
        "time": 135100,
        "channel": 9
      },
      {
        "type": "note_off",
        "note": 51,
        "time": 135196,
        "channel": 9
      },
      {
        "type": "note_on",
        "note": 51,
        "velocity": 79,
        "time": 135344,
        "channel": 9
      },
      {
        "type": "note_on",
        "note": 36,
        "velocity": 44,
        "time": 135357,
        "channel": 9
      },
      {
        "type": "note_off",
        "note": 51,
        "time": 135440,
        "channel": 9
      },
      {
        "type": "note_off",
        "note": 36,
        "time": 135454,
        "channel": 9
      },
      {
        "type": "note_on",
        "note": 59,
        "velocity": 50,
        "time": 135574,
        "channel": 9
      },
      {
        "type": "note_off",
        "note": 59,
        "time": 135671,
        "channel": 9
      },
      {
        "type": "note_on",
        "note": 44,
        "velocity": 87,
        "time": 135800,
        "channel": 9
      },
      {
        "type": "note_on",
        "note": 51,
        "velocity": 100,
        "time": 135830,
        "channel": 9
      },
      {
        "type": "note_on",
        "note": 38,
        "velocity": 83,
        "time": 135833,
        "channel": 9
      },
      {
        "type": "note_on",
        "note": 36,
        "velocity": 45,
        "time": 135838,
        "channel": 9
      },
      {
        "type": "note_off",
        "note": 44,
        "time": 135897,
        "channel": 9
      },
      {
        "type": "note_off",
        "note": 38,
        "time": 135928,
        "channel": 9
      },
      {
        "type": "note_off",
        "note": 51,
        "time": 135928,
        "channel": 9
      },
      {
        "type": "note_off",
        "note": 36,
        "time": 135935,
        "channel": 9
      },
      {
        "type": "note_on",
        "note": 51,
        "velocity": 78,
        "time": 136061,
        "channel": 9
      },
      {
        "type": "note_off",
        "note": 51,
        "time": 136159,
        "channel": 9
      },
      {
        "type": "note_on",
        "note": 38,
        "velocity": 58,
        "time": 136183,
        "channel": 9
      },
      {
        "type": "note_off",
        "note": 38,
        "time": 136280,
        "channel": 9
      },
      {
        "type": "note_on",
        "note": 36,
        "velocity": 47,
        "time": 136304,
        "channel": 9
      },
      {
        "type": "note_on",
        "note": 51,
        "velocity": 63,
        "time": 136307,
        "channel": 9
      },
      {
        "type": "note_off",
        "note": 36,
        "time": 136401,
        "channel": 9
      },
      {
        "type": "note_off",
        "note": 51,
        "time": 136403,
        "channel": 9
      },
      {
        "type": "note_on",
        "note": 51,
        "velocity": 46,
        "time": 136430,
        "channel": 9
      },
      {
        "type": "note_off",
        "note": 51,
        "time": 136527,
        "channel": 9
      },
      {
        "type": "note_on",
        "note": 51,
        "velocity": 103,
        "time": 136536,
        "channel": 9
      },
      {
        "type": "note_off",
        "note": 51,
        "time": 136633,
        "channel": 9
      },
      {
        "type": "note_on",
        "note": 44,
        "velocity": 95,
        "time": 136759,
        "channel": 9
      },
      {
        "type": "note_on",
        "note": 37,
        "velocity": 87,
        "time": 136779,
        "channel": 9
      },
      {
        "type": "note_on",
        "note": 51,
        "velocity": 81,
        "time": 136786,
        "channel": 9
      },
      {
        "type": "note_on",
        "note": 36,
        "velocity": 48,
        "time": 136794,
        "channel": 9
      },
      {
        "type": "note_off",
        "note": 44,
        "time": 136857,
        "channel": 9
      },
      {
        "type": "note_off",
        "note": 37,
        "time": 136876,
        "channel": 9
      },
      {
        "type": "note_off",
        "note": 51,
        "time": 136882,
        "channel": 9
      },
      {
        "type": "note_off",
        "note": 36,
        "time": 136891,
        "channel": 9
      },
      {
        "type": "note_on",
        "note": 51,
        "velocity": 117,
        "time": 137017,
        "channel": 9
      },
      {
        "type": "note_off",
        "note": 51,
        "time": 137114,
        "channel": 9
      },
      {
        "type": "note_on",
        "note": 51,
        "velocity": 61,
        "time": 137267,
        "channel": 9
      },
      {
        "type": "note_on",
        "note": 36,
        "velocity": 50,
        "time": 137283,
        "channel": 9
      },
      {
        "type": "note_off",
        "note": 51,
        "time": 137363,
        "channel": 9
      },
      {
        "type": "note_off",
        "note": 36,
        "time": 137381,
        "channel": 9
      },
      {
        "type": "note_on",
        "note": 53,
        "velocity": 112,
        "time": 137478,
        "channel": 9
      },
      {
        "type": "note_off",
        "note": 53,
        "time": 137575,
        "channel": 9
      },
      {
        "type": "note_on",
        "note": 44,
        "velocity": 102,
        "time": 137702,
        "channel": 9
      },
      {
        "type": "note_on",
        "note": 38,
        "velocity": 82,
        "time": 137732,
        "channel": 9
      },
      {
        "type": "note_on",
        "note": 51,
        "velocity": 42,
        "time": 137738,
        "channel": 9
      },
      {
        "type": "note_on",
        "note": 36,
        "velocity": 46,
        "time": 137743,
        "channel": 9
      },
      {
        "type": "note_off",
        "note": 44,
        "time": 137800,
        "channel": 9
      },
      {
        "type": "note_off",
        "note": 38,
        "time": 137829,
        "channel": 9
      },
      {
        "type": "note_off",
        "note": 51,
        "time": 137835,
        "channel": 9
      },
      {
        "type": "note_off",
        "note": 36,
        "time": 137840,
        "channel": 9
      },
      {
        "type": "note_on",
        "note": 53,
        "velocity": 78,
        "time": 137974,
        "channel": 9
      },
      {
        "type": "note_off",
        "note": 53,
        "time": 138071,
        "channel": 9
      },
      {
        "type": "note_on",
        "note": 51,
        "velocity": 96,
        "time": 138211,
        "channel": 9
      },
      {
        "type": "note_on",
        "note": 36,
        "velocity": 53,
        "time": 138226,
        "channel": 9
      },
      {
        "type": "note_off",
        "note": 51,
        "time": 138308,
        "channel": 9
      },
      {
        "type": "note_off",
        "note": 36,
        "time": 138323,
        "channel": 9
      },
      {
        "type": "note_on",
        "note": 53,
        "velocity": 87,
        "time": 138450,
        "channel": 9
      },
      {
        "type": "note_off",
        "note": 53,
        "time": 138547,
        "channel": 9
      },
      {
        "type": "note_on",
        "note": 44,
        "velocity": 95,
        "time": 138678,
        "channel": 9
      },
      {
        "type": "note_on",
        "note": 37,
        "velocity": 81,
        "time": 138692,
        "channel": 9
      },
      {
        "type": "note_on",
        "note": 51,
        "velocity": 36,
        "time": 138694,
        "channel": 9
      },
      {
        "type": "note_on",
        "note": 36,
        "velocity": 46,
        "time": 138718,
        "channel": 9
      },
      {
        "type": "note_off",
        "note": 44,
        "time": 138776,
        "channel": 9
      },
      {
        "type": "note_off",
        "note": 37,
        "time": 138788,
        "channel": 9
      },
      {
        "type": "note_off",
        "note": 51,
        "time": 138791,
        "channel": 9
      },
      {
        "type": "note_off",
        "note": 36,
        "time": 138815,
        "channel": 9
      },
      {
        "type": "note_on",
        "note": 53,
        "velocity": 89,
        "time": 138940,
        "channel": 9
      },
      {
        "type": "note_off",
        "note": 53,
        "time": 139037,
        "channel": 9
      },
      {
        "type": "note_on",
        "note": 51,
        "velocity": 41,
        "time": 139180,
        "channel": 9
      },
      {
        "type": "note_on",
        "note": 36,
        "velocity": 44,
        "time": 139189,
        "channel": 9
      },
      {
        "type": "note_off",
        "note": 51,
        "time": 139277,
        "channel": 9
      },
      {
        "type": "note_off",
        "note": 36,
        "time": 139286,
        "channel": 9
      },
      {
        "type": "note_on",
        "note": 53,
        "velocity": 101,
        "time": 139394,
        "channel": 9
      },
      {
        "type": "note_off",
        "note": 53,
        "time": 139491,
        "channel": 9
      },
      {
        "type": "note_on",
        "note": 44,
        "velocity": 100,
        "time": 139631,
        "channel": 9
      },
      {
        "type": "note_on",
        "note": 51,
        "velocity": 102,
        "time": 139651,
        "channel": 9
      },
      {
        "type": "note_on",
        "note": 40,
        "velocity": 95,
        "time": 139652,
        "channel": 9
      },
      {
        "type": "note_on",
        "note": 36,
        "velocity": 49,
        "time": 139661,
        "channel": 9
      },
      {
        "type": "note_off",
        "note": 44,
        "time": 139728,
        "channel": 9
      },
      {
        "type": "note_off",
        "note": 40,
        "time": 139748,
        "channel": 9
      },
      {
        "type": "note_off",
        "note": 51,
        "time": 139748,
        "channel": 9
      },
      {
        "type": "note_off",
        "note": 36,
        "time": 139758,
        "channel": 9
      },
      {
        "type": "note_on",
        "note": 53,
        "velocity": 86,
        "time": 139890,
        "channel": 9
      },
      {
        "type": "note_off",
        "note": 53,
        "time": 139987,
        "channel": 9
      },
      {
        "type": "note_on",
        "note": 51,
        "velocity": 34,
        "time": 140139,
        "channel": 9
      },
      {
        "type": "note_on",
        "note": 36,
        "velocity": 50,
        "time": 140140,
        "channel": 9
      },
      {
        "type": "note_off",
        "note": 36,
        "time": 140236,
        "channel": 9
      },
      {
        "type": "note_off",
        "note": 51,
        "time": 140236,
        "channel": 9
      },
      {
        "type": "note_on",
        "note": 53,
        "velocity": 77,
        "time": 140358,
        "channel": 9
      },
      {
        "type": "note_off",
        "note": 53,
        "time": 140455,
        "channel": 9
      },
      {
        "type": "note_on",
        "note": 44,
        "velocity": 90,
        "time": 140585,
        "channel": 9
      },
      {
        "type": "note_on",
        "note": 40,
        "velocity": 102,
        "time": 140609,
        "channel": 9
      },
      {
        "type": "note_on",
        "note": 51,
        "velocity": 43,
        "time": 140615,
        "channel": 9
      },
      {
        "type": "note_on",
        "note": 36,
        "velocity": 48,
        "time": 140628,
        "channel": 9
      },
      {
        "type": "note_off",
        "note": 44,
        "time": 140682,
        "channel": 9
      },
      {
        "type": "note_off",
        "note": 40,
        "time": 140706,
        "channel": 9
      },
      {
        "type": "note_off",
        "note": 51,
        "time": 140713,
        "channel": 9
      },
      {
        "type": "note_off",
        "note": 36,
        "time": 140724,
        "channel": 9
      },
      {
        "type": "note_on",
        "note": 53,
        "velocity": 77,
        "time": 140845,
        "channel": 9
      },
      {
        "type": "note_off",
        "note": 53,
        "time": 140941,
        "channel": 9
      },
      {
        "type": "note_on",
        "note": 38,
        "velocity": 8,
        "time": 140987,
        "channel": 9
      },
      {
        "type": "note_off",
        "note": 38,
        "time": 141083,
        "channel": 9
      },
      {
        "type": "note_on",
        "note": 36,
        "velocity": 53,
        "time": 141089,
        "channel": 9
      },
      {
        "type": "note_on",
        "note": 51,
        "velocity": 35,
        "time": 141089,
        "channel": 9
      },
      {
        "type": "note_off",
        "note": 36,
        "time": 141186,
        "channel": 9
      },
      {
        "type": "note_off",
        "note": 51,
        "time": 141186,
        "channel": 9
      },
      {
        "type": "note_on",
        "note": 37,
        "velocity": 73,
        "time": 141205,
        "channel": 9
      },
      {
        "type": "note_off",
        "note": 37,
        "time": 141302,
        "channel": 9
      },
      {
        "type": "note_on",
        "note": 53,
        "velocity": 91,
        "time": 141310,
        "channel": 9
      },
      {
        "type": "note_off",
        "note": 53,
        "time": 141407,
        "channel": 9
      },
      {
        "type": "note_on",
        "note": 44,
        "velocity": 92,
        "time": 141533,
        "channel": 9
      },
      {
        "type": "note_on",
        "note": 37,
        "velocity": 86,
        "time": 141545,
        "channel": 9
      },
      {
        "type": "note_on",
        "note": 51,
        "velocity": 40,
        "time": 141564,
        "channel": 9
      },
      {
        "type": "note_on",
        "note": 36,
        "velocity": 52,
        "time": 141574,
        "channel": 9
      },
      {
        "type": "note_off",
        "note": 44,
        "time": 141631,
        "channel": 9
      },
      {
        "type": "note_off",
        "note": 37,
        "time": 141642,
        "channel": 9
      },
      {
        "type": "note_off",
        "note": 51,
        "time": 141661,
        "channel": 9
      },
      {
        "type": "note_off",
        "note": 36,
        "time": 141672,
        "channel": 9
      },
      {
        "type": "note_on",
        "note": 53,
        "velocity": 69,
        "time": 141785,
        "channel": 9
      },
      {
        "type": "note_off",
        "note": 53,
        "time": 141881,
        "channel": 9
      },
      {
        "type": "note_on",
        "note": 38,
        "velocity": 16,
        "time": 141922,
        "channel": 9
      },
      {
        "type": "note_off",
        "note": 38,
        "time": 142019,
        "channel": 9
      },
      {
        "type": "note_on",
        "note": 51,
        "velocity": 39,
        "time": 142044,
        "channel": 9
      },
      {
        "type": "note_on",
        "note": 36,
        "velocity": 52,
        "time": 142050,
        "channel": 9
      },
      {
        "type": "note_off",
        "note": 51,
        "time": 142141,
        "channel": 9
      },
      {
        "type": "note_off",
        "note": 36,
        "time": 142147,
        "channel": 9
      },
      {
        "type": "note_on",
        "note": 53,
        "velocity": 106,
        "time": 142265,
        "channel": 9
      },
      {
        "type": "note_off",
        "note": 53,
        "time": 142362,
        "channel": 9
      },
      {
        "type": "note_on",
        "note": 44,
        "velocity": 92,
        "time": 142500,
        "channel": 9
      },
      {
        "type": "note_on",
        "note": 51,
        "velocity": 95,
        "time": 142523,
        "channel": 9
      },
      {
        "type": "note_on",
        "note": 40,
        "velocity": 127,
        "time": 142524,
        "channel": 9
      },
      {
        "type": "note_on",
        "note": 36,
        "velocity": 52,
        "time": 142545,
        "channel": 9
      },
      {
        "type": "note_off",
        "note": 44,
        "time": 142597,
        "channel": 9
      },
      {
        "type": "note_off",
        "note": 51,
        "time": 142619,
        "channel": 9
      },
      {
        "type": "note_off",
        "note": 40,
        "time": 142621,
        "channel": 9
      },
      {
        "type": "note_off",
        "note": 36,
        "time": 142641,
        "channel": 9
      },
      {
        "type": "note_on",
        "note": 53,
        "velocity": 100,
        "time": 142774,
        "channel": 9
      },
      {
        "type": "note_off",
        "note": 53,
        "time": 142871,
        "channel": 9
      },
      {
        "type": "note_on",
        "note": 36,
        "velocity": 56,
        "time": 143028,
        "channel": 9
      },
      {
        "type": "note_on",
        "note": 51,
        "velocity": 32,
        "time": 143036,
        "channel": 9
      },
      {
        "type": "note_off",
        "note": 36,
        "time": 143125,
        "channel": 9
      },
      {
        "type": "note_off",
        "note": 51,
        "time": 143133,
        "channel": 9
      },
      {
        "type": "note_on",
        "note": 53,
        "velocity": 103,
        "time": 143254,
        "channel": 9
      },
      {
        "type": "note_off",
        "note": 53,
        "time": 143351,
        "channel": 9
      },
      {
        "type": "note_on",
        "note": 44,
        "velocity": 92,
        "time": 143483,
        "channel": 9
      },
      {
        "type": "note_on",
        "note": 40,
        "velocity": 101,
        "time": 143503,
        "channel": 9
      },
      {
        "type": "note_on",
        "note": 51,
        "velocity": 50,
        "time": 143508,
        "channel": 9
      },
      {
        "type": "note_on",
        "note": 36,
        "velocity": 52,
        "time": 143521,
        "channel": 9
      },
      {
        "type": "note_off",
        "note": 44,
        "time": 143580,
        "channel": 9
      },
      {
        "type": "note_off",
        "note": 40,
        "time": 143599,
        "channel": 9
      },
      {
        "type": "note_off",
        "note": 51,
        "time": 143604,
        "channel": 9
      },
      {
        "type": "note_off",
        "note": 36,
        "time": 143619,
        "channel": 9
      },
      {
        "type": "note_on",
        "note": 53,
        "velocity": 92,
        "time": 143744,
        "channel": 9
      },
      {
        "type": "note_off",
        "note": 53,
        "time": 143841,
        "channel": 9
      },
      {
        "type": "note_on",
        "note": 51,
        "velocity": 34,
        "time": 143992,
        "channel": 9
      },
      {
        "type": "note_on",
        "note": 36,
        "velocity": 50,
        "time": 143999,
        "channel": 9
      },
      {
        "type": "note_off",
        "note": 51,
        "time": 144089,
        "channel": 9
      },
      {
        "type": "note_off",
        "note": 36,
        "time": 144097,
        "channel": 9
      },
      {
        "type": "note_on",
        "note": 53,
        "velocity": 104,
        "time": 144212,
        "channel": 9
      },
      {
        "type": "note_off",
        "note": 53,
        "time": 144309,
        "channel": 9
      },
      {
        "type": "note_on",
        "note": 44,
        "velocity": 92,
        "time": 144435,
        "channel": 9
      },
      {
        "type": "note_on",
        "note": 51,
        "velocity": 115,
        "time": 144464,
        "channel": 9
      },
      {
        "type": "note_on",
        "note": 40,
        "velocity": 103,
        "time": 144468,
        "channel": 9
      },
      {
        "type": "note_on",
        "note": 36,
        "velocity": 47,
        "time": 144470,
        "channel": 9
      },
      {
        "type": "note_off",
        "note": 44,
        "time": 144532,
        "channel": 9
      },
      {
        "type": "note_off",
        "note": 51,
        "time": 144560,
        "channel": 9
      },
      {
        "type": "note_off",
        "note": 40,
        "time": 144564,
        "channel": 9
      },
      {
        "type": "note_off",
        "note": 36,
        "time": 144567,
        "channel": 9
      },
      {
        "type": "note_on",
        "note": 53,
        "velocity": 94,
        "time": 144703,
        "channel": 9
      },
      {
        "type": "note_off",
        "note": 53,
        "time": 144799,
        "channel": 9
      },
      {
        "type": "note_on",
        "note": 51,
        "velocity": 33,
        "time": 144946,
        "channel": 9
      },
      {
        "type": "note_on",
        "note": 36,
        "velocity": 50,
        "time": 144960,
        "channel": 9
      },
      {
        "type": "note_off",
        "note": 51,
        "time": 145043,
        "channel": 9
      },
      {
        "type": "note_off",
        "note": 36,
        "time": 145057,
        "channel": 9
      },
      {
        "type": "note_on",
        "note": 40,
        "velocity": 95,
        "time": 145061,
        "channel": 9
      },
      {
        "type": "note_off",
        "note": 40,
        "time": 145158,
        "channel": 9
      },
      {
        "type": "note_on",
        "note": 53,
        "velocity": 102,
        "time": 145172,
        "channel": 9
      },
      {
        "type": "note_off",
        "note": 53,
        "time": 145269,
        "channel": 9
      },
      {
        "type": "note_on",
        "note": 44,
        "velocity": 92,
        "time": 145398,
        "channel": 9
      },
      {
        "type": "note_on",
        "note": 40,
        "velocity": 126,
        "time": 145414,
        "channel": 9
      },
      {
        "type": "note_on",
        "note": 51,
        "velocity": 67,
        "time": 145429,
        "channel": 9
      },
      {
        "type": "note_on",
        "note": 36,
        "velocity": 50,
        "time": 145443,
        "channel": 9
      },
      {
        "type": "note_off",
        "note": 44,
        "time": 145495,
        "channel": 9
      },
      {
        "type": "note_off",
        "note": 40,
        "time": 145511,
        "channel": 9
      },
      {
        "type": "note_off",
        "note": 51,
        "time": 145526,
        "channel": 9
      },
      {
        "type": "note_off",
        "note": 36,
        "time": 145540,
        "channel": 9
      },
      {
        "type": "note_on",
        "note": 53,
        "velocity": 81,
        "time": 145664,
        "channel": 9
      },
      {
        "type": "note_off",
        "note": 53,
        "time": 145760,
        "channel": 9
      },
      {
        "type": "note_on",
        "note": 38,
        "velocity": 16,
        "time": 145787,
        "channel": 9
      },
      {
        "type": "note_off",
        "note": 38,
        "time": 145884,
        "channel": 9
      },
      {
        "type": "note_on",
        "note": 51,
        "velocity": 28,
        "time": 145915,
        "channel": 9
      },
      {
        "type": "note_on",
        "note": 36,
        "velocity": 52,
        "time": 145922,
        "channel": 9
      },
      {
        "type": "note_off",
        "note": 51,
        "time": 146012,
        "channel": 9
      },
      {
        "type": "note_off",
        "note": 36,
        "time": 146020,
        "channel": 9
      },
      {
        "type": "note_on",
        "note": 53,
        "velocity": 103,
        "time": 146131,
        "channel": 9
      },
      {
        "type": "note_off",
        "note": 53,
        "time": 146228,
        "channel": 9
      },
      {
        "type": "note_on",
        "note": 44,
        "velocity": 100,
        "time": 146357,
        "channel": 9
      },
      {
        "type": "note_on",
        "note": 51,
        "velocity": 89,
        "time": 146386,
        "channel": 9
      },
      {
        "type": "note_on",
        "note": 40,
        "velocity": 119,
        "time": 146387,
        "channel": 9
      },
      {
        "type": "note_on",
        "note": 36,
        "velocity": 52,
        "time": 146405,
        "channel": 9
      },
      {
        "type": "note_off",
        "note": 44,
        "time": 146455,
        "channel": 9
      },
      {
        "type": "note_off",
        "note": 40,
        "time": 146482,
        "channel": 9
      },
      {
        "type": "note_off",
        "note": 51,
        "time": 146482,
        "channel": 9
      },
      {
        "type": "note_off",
        "note": 36,
        "time": 146502,
        "channel": 9
      },
      {
        "type": "note_on",
        "note": 53,
        "velocity": 100,
        "time": 146625,
        "channel": 9
      },
      {
        "type": "note_off",
        "note": 53,
        "time": 146721,
        "channel": 9
      },
      {
        "type": "note_on",
        "note": 51,
        "velocity": 27,
        "time": 146869,
        "channel": 9
      },
      {
        "type": "note_on",
        "note": 36,
        "velocity": 54,
        "time": 146888,
        "channel": 9
      },
      {
        "type": "note_off",
        "note": 51,
        "time": 146966,
        "channel": 9
      },
      {
        "type": "note_off",
        "note": 36,
        "time": 146984,
        "channel": 9
      },
      {
        "type": "note_on",
        "note": 53,
        "velocity": 77,
        "time": 147099,
        "channel": 9
      },
      {
        "type": "note_off",
        "note": 53,
        "time": 147196,
        "channel": 9
      },
      {
        "type": "note_on",
        "note": 44,
        "velocity": 92,
        "time": 147319,
        "channel": 9
      },
      {
        "type": "note_on",
        "note": 51,
        "velocity": 38,
        "time": 147341,
        "channel": 9
      },
      {
        "type": "note_on",
        "note": 40,
        "velocity": 111,
        "time": 147344,
        "channel": 9
      },
      {
        "type": "note_on",
        "note": 36,
        "velocity": 49,
        "time": 147354,
        "channel": 9
      },
      {
        "type": "note_off",
        "note": 44,
        "time": 147416,
        "channel": 9
      },
      {
        "type": "note_off",
        "note": 51,
        "time": 147438,
        "channel": 9
      },
      {
        "type": "note_off",
        "note": 40,
        "time": 147441,
        "channel": 9
      },
      {
        "type": "note_off",
        "note": 36,
        "time": 147451,
        "channel": 9
      },
      {
        "type": "note_on",
        "note": 53,
        "velocity": 98,
        "time": 147584,
        "channel": 9
      },
      {
        "type": "note_off",
        "note": 53,
        "time": 147680,
        "channel": 9
      },
      {
        "type": "note_on",
        "note": 51,
        "velocity": 36,
        "time": 147821,
        "channel": 9
      },
      {
        "type": "note_on",
        "note": 36,
        "velocity": 49,
        "time": 147837,
        "channel": 9
      },
      {
        "type": "note_off",
        "note": 51,
        "time": 147917,
        "channel": 9
      },
      {
        "type": "note_off",
        "note": 36,
        "time": 147934,
        "channel": 9
      },
      {
        "type": "note_on",
        "note": 53,
        "velocity": 98,
        "time": 148049,
        "channel": 9
      },
      {
        "type": "note_off",
        "note": 53,
        "time": 148145,
        "channel": 9
      },
      {
        "type": "note_on",
        "note": 44,
        "velocity": 85,
        "time": 148259,
        "channel": 9
      },
      {
        "type": "note_on",
        "note": 40,
        "velocity": 96,
        "time": 148294,
        "channel": 9
      },
      {
        "type": "note_on",
        "note": 36,
        "velocity": 49,
        "time": 148308,
        "channel": 9
      },
      {
        "type": "note_off",
        "note": 44,
        "time": 148356,
        "channel": 9
      },
      {
        "type": "note_off",
        "note": 40,
        "time": 148391,
        "channel": 9
      },
      {
        "type": "note_off",
        "note": 36,
        "time": 148404,
        "channel": 9
      },
      {
        "type": "note_on",
        "note": 53,
        "velocity": 95,
        "time": 148529,
        "channel": 9
      },
      {
        "type": "note_off",
        "note": 53,
        "time": 148625,
        "channel": 9
      },
      {
        "type": "note_on",
        "note": 38,
        "velocity": 19,
        "time": 148664,
        "channel": 9
      },
      {
        "type": "note_off",
        "note": 38,
        "time": 148761,
        "channel": 9
      },
      {
        "type": "note_on",
        "note": 51,
        "velocity": 32,
        "time": 148764,
        "channel": 9
      },
      {
        "type": "note_on",
        "note": 36,
        "velocity": 49,
        "time": 148774,
        "channel": 9
      },
      {
        "type": "note_off",
        "note": 51,
        "time": 148861,
        "channel": 9
      },
      {
        "type": "note_off",
        "note": 36,
        "time": 148871,
        "channel": 9
      },
      {
        "type": "note_on",
        "note": 38,
        "velocity": 75,
        "time": 148898,
        "channel": 9
      },
      {
        "type": "note_off",
        "note": 38,
        "time": 148995,
        "channel": 9
      },
      {
        "type": "note_on",
        "note": 53,
        "velocity": 99,
        "time": 148998,
        "channel": 9
      },
      {
        "type": "note_off",
        "note": 53,
        "time": 149095,
        "channel": 9
      },
      {
        "type": "note_on",
        "note": 44,
        "velocity": 92,
        "time": 149220,
        "channel": 9
      },
      {
        "type": "note_on",
        "note": 40,
        "velocity": 124,
        "time": 149238,
        "channel": 9
      },
      {
        "type": "note_on",
        "note": 36,
        "velocity": 52,
        "time": 149251,
        "channel": 9
      },
      {
        "type": "note_off",
        "note": 44,
        "time": 149317,
        "channel": 9
      },
      {
        "type": "note_off",
        "note": 40,
        "time": 149335,
        "channel": 9
      },
      {
        "type": "note_off",
        "note": 36,
        "time": 149348,
        "channel": 9
      },
      {
        "type": "note_on",
        "note": 53,
        "velocity": 85,
        "time": 149486,
        "channel": 9
      },
      {
        "type": "note_off",
        "note": 53,
        "time": 149583,
        "channel": 9
      },
      {
        "type": "note_on",
        "note": 38,
        "velocity": 21,
        "time": 149617,
        "channel": 9
      },
      {
        "type": "note_on",
        "note": 44,
        "velocity": 17,
        "time": 149682,
        "channel": 9
      },
      {
        "type": "note_off",
        "note": 38,
        "time": 149713,
        "channel": 9
      },
      {
        "type": "note_on",
        "note": 36,
        "velocity": 52,
        "time": 149720,
        "channel": 9
      },
      {
        "type": "note_on",
        "note": 51,
        "velocity": 34,
        "time": 149732,
        "channel": 9
      },
      {
        "type": "note_off",
        "note": 44,
        "time": 149780,
        "channel": 9
      },
      {
        "type": "note_off",
        "note": 36,
        "time": 149816,
        "channel": 9
      },
      {
        "type": "note_off",
        "note": 51,
        "time": 149829,
        "channel": 9
      },
      {
        "type": "note_on",
        "note": 53,
        "velocity": 78,
        "time": 149968,
        "channel": 9
      },
      {
        "type": "note_off",
        "note": 53,
        "time": 150065,
        "channel": 9
      },
      {
        "type": "note_on",
        "note": 44,
        "velocity": 95,
        "time": 150197,
        "channel": 9
      },
      {
        "type": "note_on",
        "note": 40,
        "velocity": 115,
        "time": 150218,
        "channel": 9
      },
      {
        "type": "note_on",
        "note": 51,
        "velocity": 87,
        "time": 150227,
        "channel": 9
      },
      {
        "type": "note_on",
        "note": 36,
        "velocity": 52,
        "time": 150230,
        "channel": 9
      },
      {
        "type": "note_off",
        "note": 44,
        "time": 150294,
        "channel": 9
      },
      {
        "type": "note_off",
        "note": 40,
        "time": 150316,
        "channel": 9
      },
      {
        "type": "note_off",
        "note": 51,
        "time": 150324,
        "channel": 9
      },
      {
        "type": "note_off",
        "note": 36,
        "time": 150327,
        "channel": 9
      },
      {
        "type": "note_on",
        "note": 53,
        "velocity": 109,
        "time": 150473,
        "channel": 9
      },
      {
        "type": "note_off",
        "note": 53,
        "time": 150570,
        "channel": 9
      },
      {
        "type": "note_on",
        "note": 36,
        "velocity": 46,
        "time": 150715,
        "channel": 9
      },
      {
        "type": "note_on",
        "note": 51,
        "velocity": 39,
        "time": 150719,
        "channel": 9
      },
      {
        "type": "note_off",
        "note": 36,
        "time": 150812,
        "channel": 9
      },
      {
        "type": "note_off",
        "note": 51,
        "time": 150816,
        "channel": 9
      },
      {
        "type": "note_on",
        "note": 53,
        "velocity": 71,
        "time": 150949,
        "channel": 9
      },
      {
        "type": "note_off",
        "note": 53,
        "time": 151046,
        "channel": 9
      },
      {
        "type": "note_on",
        "note": 44,
        "velocity": 97,
        "time": 151158,
        "channel": 9
      },
      {
        "type": "note_on",
        "note": 37,
        "velocity": 90,
        "time": 151182,
        "channel": 9
      },
      {
        "type": "note_on",
        "note": 36,
        "velocity": 50,
        "time": 151189,
        "channel": 9
      },
      {
        "type": "note_on",
        "note": 51,
        "velocity": 98,
        "time": 151189,
        "channel": 9
      },
      {
        "type": "note_off",
        "note": 44,
        "time": 151255,
        "channel": 9
      },
      {
        "type": "note_off",
        "note": 37,
        "time": 151279,
        "channel": 9
      },
      {
        "type": "note_off",
        "note": 36,
        "time": 151285,
        "channel": 9
      },
      {
        "type": "note_off",
        "note": 51,
        "time": 151287,
        "channel": 9
      },
      {
        "type": "note_on",
        "note": 53,
        "velocity": 79,
        "time": 151440,
        "channel": 9
      },
      {
        "type": "note_off",
        "note": 53,
        "time": 151537,
        "channel": 9
      },
      {
        "type": "note_on",
        "note": 36,
        "velocity": 55,
        "time": 151689,
        "channel": 9
      },
      {
        "type": "note_on",
        "note": 51,
        "velocity": 73,
        "time": 151695,
        "channel": 9
      },
      {
        "type": "note_off",
        "note": 36,
        "time": 151785,
        "channel": 9
      },
      {
        "type": "note_off",
        "note": 51,
        "time": 151792,
        "channel": 9
      },
      {
        "type": "note_on",
        "note": 53,
        "velocity": 76,
        "time": 151909,
        "channel": 9
      },
      {
        "type": "note_off",
        "note": 53,
        "time": 152005,
        "channel": 9
      },
      {
        "type": "note_on",
        "note": 44,
        "velocity": 97,
        "time": 152130,
        "channel": 9
      },
      {
        "type": "note_on",
        "note": 51,
        "velocity": 127,
        "time": 152142,
        "channel": 9
      },
      {
        "type": "note_on",
        "note": 40,
        "velocity": 116,
        "time": 152153,
        "channel": 9
      },
      {
        "type": "note_on",
        "note": 36,
        "velocity": 50,
        "time": 152155,
        "channel": 9
      },
      {
        "type": "note_off",
        "note": 44,
        "time": 152227,
        "channel": 9
      },
      {
        "type": "note_off",
        "note": 51,
        "time": 152239,
        "channel": 9
      },
      {
        "type": "note_off",
        "note": 40,
        "time": 152250,
        "channel": 9
      },
      {
        "type": "note_off",
        "note": 36,
        "time": 152252,
        "channel": 9
      },
      {
        "type": "note_on",
        "note": 48,
        "velocity": 48,
        "time": 152485,
        "channel": 9
      },
      {
        "type": "note_on",
        "note": 43,
        "velocity": 102,
        "time": 152541,
        "channel": 9
      },
      {
        "type": "note_off",
        "note": 48,
        "time": 152582,
        "channel": 9
      },
      {
        "type": "note_on",
        "note": 36,
        "velocity": 66,
        "time": 152616,
        "channel": 9
      },
      {
        "type": "note_off",
        "note": 43,
        "time": 152638,
        "channel": 9
      },
      {
        "type": "note_off",
        "note": 36,
        "time": 152714,
        "channel": 9
      },
      {
        "type": "note_on",
        "note": 38,
        "velocity": 108,
        "time": 152851,
        "channel": 9
      },
      {
        "type": "note_off",
        "note": 38,
        "time": 152948,
        "channel": 9
      },
      {
        "type": "note_on",
        "note": 44,
        "velocity": 100,
        "time": 153096,
        "channel": 9
      },
      {
        "type": "note_on",
        "note": 38,
        "velocity": 96,
        "time": 153114,
        "channel": 9
      },
      {
        "type": "note_off",
        "note": 44,
        "time": 153193,
        "channel": 9
      },
      {
        "type": "note_off",
        "note": 38,
        "time": 153211,
        "channel": 9
      },
      {
        "type": "note_on",
        "note": 38,
        "velocity": 124,
        "time": 153229,
        "channel": 9
      },
      {
        "type": "note_off",
        "note": 38,
        "time": 153326,
        "channel": 9
      },
      {
        "type": "note_on",
        "note": 36,
        "velocity": 104,
        "time": 153585,
        "channel": 9
      },
      {
        "type": "note_on",
        "note": 26,
        "velocity": 122,
        "time": 153591,
        "channel": 9
      },
      {
        "type": "note_on",
        "note": 55,
        "velocity": 88,
        "time": 153593,
        "channel": 9
      },
      {
        "type": "note_off",
        "note": 36,
        "time": 153682,
        "channel": 9
      },
      {
        "type": "note_off",
        "note": 26,
        "time": 153689,
        "channel": 9
      },
      {
        "type": "note_off",
        "note": 55,
        "time": 153689,
        "channel": 9
      },
      {
        "type": "note_on",
        "note": 44,
        "velocity": 35,
        "time": 154067,
        "channel": 9
      },
      {
        "type": "note_on",
        "note": 40,
        "velocity": 127,
        "time": 154080,
        "channel": 9
      },
      {
        "type": "note_on",
        "note": 36,
        "velocity": 50,
        "time": 154093,
        "channel": 9
      },
      {
        "type": "note_off",
        "note": 44,
        "time": 154164,
        "channel": 9
      },
      {
        "type": "note_off",
        "note": 40,
        "time": 154177,
        "channel": 9
      },
      {
        "type": "note_off",
        "note": 36,
        "time": 154190,
        "channel": 9
      },
      {
        "type": "note_on",
        "note": 42,
        "velocity": 50,
        "time": 154326,
        "channel": 9
      },
      {
        "type": "note_off",
        "note": 42,
        "time": 154423,
        "channel": 9
      },
      {
        "type": "note_on",
        "note": 42,
        "velocity": 36,
        "time": 154441,
        "channel": 9
      },
      {
        "type": "note_off",
        "note": 42,
        "time": 154539,
        "channel": 9
      },
      {
        "type": "note_on",
        "note": 36,
        "velocity": 43,
        "time": 154566,
        "channel": 9
      },
      {
        "type": "note_off",
        "note": 36,
        "time": 154662,
        "channel": 9
      },
      {
        "type": "note_on",
        "note": 37,
        "velocity": 84,
        "time": 155024,
        "channel": 9
      },
      {
        "type": "note_on",
        "note": 36,
        "velocity": 56,
        "time": 155047,
        "channel": 9
      },
      {
        "type": "note_off",
        "note": 37,
        "time": 155069,
        "channel": 9
      },
      {
        "type": "note_on",
        "note": 37,
        "velocity": 49,
        "time": 155069,
        "channel": 9
      },
      {
        "type": "note_off",
        "note": 37,
        "time": 155121,
        "channel": 9
      },
      {
        "type": "note_off",
        "note": 36,
        "time": 155144,
        "channel": 9
      },
      {
        "type": "note_on",
        "note": 36,
        "velocity": 48,
        "time": 155516,
        "channel": 9
      },
      {
        "type": "note_off",
        "note": 36,
        "time": 155613,
        "channel": 9
      },
      {
        "type": "note_on",
        "note": 38,
        "velocity": 101,
        "time": 155986,
        "channel": 9
      },
      {
        "type": "note_on",
        "note": 36,
        "velocity": 58,
        "time": 156003,
        "channel": 9
      },
      {
        "type": "note_off",
        "note": 38,
        "time": 156083,
        "channel": 9
      },
      {
        "type": "note_off",
        "note": 36,
        "time": 156099,
        "channel": 9
      },
      {
        "type": "note_on",
        "note": 38,
        "velocity": 98,
        "time": 156316,
        "channel": 9
      },
      {
        "type": "note_off",
        "note": 38,
        "time": 156412,
        "channel": 9
      },
      {
        "type": "note_on",
        "note": 36,
        "velocity": 49,
        "time": 156462,
        "channel": 9
      },
      {
        "type": "note_off",
        "note": 36,
        "time": 156559,
        "channel": 9
      },
      {
        "type": "note_on",
        "note": 38,
        "velocity": 24,
        "time": 156782,
        "channel": 9
      },
      {
        "type": "note_off",
        "note": 38,
        "time": 156831,
        "channel": 9
      },
      {
        "type": "note_on",
        "note": 38,
        "velocity": 21,
        "time": 156831,
        "channel": 9
      },
      {
        "type": "note_off",
        "note": 38,
        "time": 156879,
        "channel": 9
      },
      {
        "type": "note_on",
        "note": 40,
        "velocity": 94,
        "time": 156913,
        "channel": 9
      },
      {
        "type": "note_on",
        "note": 36,
        "velocity": 54,
        "time": 156922,
        "channel": 9
      },
      {
        "type": "note_off",
        "note": 40,
        "time": 157010,
        "channel": 9
      },
      {
        "type": "note_off",
        "note": 36,
        "time": 157019,
        "channel": 9
      },
      {
        "type": "note_on",
        "note": 38,
        "velocity": 73,
        "time": 157032,
        "channel": 9
      },
      {
        "type": "note_off",
        "note": 38,
        "time": 157129,
        "channel": 9
      },
      {
        "type": "note_on",
        "note": 38,
        "velocity": 65,
        "time": 157148,
        "channel": 9
      },
      {
        "type": "note_off",
        "note": 38,
        "time": 157245,
        "channel": 9
      },
      {
        "type": "note_on",
        "note": 38,
        "velocity": 43,
        "time": 157258,
        "channel": 9
      },
      {
        "type": "note_off",
        "note": 38,
        "time": 157355,
        "channel": 9
      },
      {
        "type": "note_on",
        "note": 36,
        "velocity": 50,
        "time": 157376,
        "channel": 9
      },
      {
        "type": "note_off",
        "note": 36,
        "time": 157473,
        "channel": 9
      },
      {
        "type": "note_on",
        "note": 40,
        "velocity": 127,
        "time": 157879,
        "channel": 9
      },
      {
        "type": "note_on",
        "note": 36,
        "velocity": 63,
        "time": 157887,
        "channel": 9
      },
      {
        "type": "note_off",
        "note": 40,
        "time": 157975,
        "channel": 9
      },
      {
        "type": "note_off",
        "note": 36,
        "time": 157984,
        "channel": 9
      },
      {
        "type": "note_on",
        "note": 36,
        "velocity": 51,
        "time": 158379,
        "channel": 9
      },
      {
        "type": "note_off",
        "note": 36,
        "time": 158476,
        "channel": 9
      },
      {
        "type": "note_on",
        "note": 38,
        "velocity": 11,
        "time": 158737,
        "channel": 9
      },
      {
        "type": "note_off",
        "note": 38,
        "time": 158791,
        "channel": 9
      },
      {
        "type": "note_on",
        "note": 38,
        "velocity": 19,
        "time": 158791,
        "channel": 9
      },
      {
        "type": "note_off",
        "note": 38,
        "time": 158834,
        "channel": 9
      },
      {
        "type": "note_on",
        "note": 40,
        "velocity": 106,
        "time": 158854,
        "channel": 9
      },
      {
        "type": "note_on",
        "note": 36,
        "velocity": 56,
        "time": 158856,
        "channel": 9
      },
      {
        "type": "note_on",
        "note": 44,
        "velocity": 92,
        "time": 158857,
        "channel": 9
      },
      {
        "type": "note_off",
        "note": 40,
        "time": 158951,
        "channel": 9
      },
      {
        "type": "note_off",
        "note": 36,
        "time": 158953,
        "channel": 9
      },
      {
        "type": "note_off",
        "note": 44,
        "time": 158953,
        "channel": 9
      },
      {
        "type": "note_on",
        "note": 38,
        "velocity": 49,
        "time": 158969,
        "channel": 9
      },
      {
        "type": "note_off",
        "note": 38,
        "time": 159066,
        "channel": 9
      },
      {
        "type": "note_on",
        "note": 38,
        "velocity": 38,
        "time": 159098,
        "channel": 9
      },
      {
        "type": "note_off",
        "note": 38,
        "time": 159194,
        "channel": 9
      },
      {
        "type": "note_on",
        "note": 38,
        "velocity": 37,
        "time": 159222,
        "channel": 9
      },
      {
        "type": "note_off",
        "note": 38,
        "time": 159318,
        "channel": 9
      },
      {
        "type": "note_on",
        "note": 36,
        "velocity": 45,
        "time": 159354,
        "channel": 9
      },
      {
        "type": "note_off",
        "note": 36,
        "time": 159451,
        "channel": 9
      },
      {
        "type": "note_on",
        "note": 44,
        "velocity": 87,
        "time": 159795,
        "channel": 9
      },
      {
        "type": "note_on",
        "note": 36,
        "velocity": 50,
        "time": 159814,
        "channel": 9
      },
      {
        "type": "note_off",
        "note": 44,
        "time": 159892,
        "channel": 9
      },
      {
        "type": "note_off",
        "note": 36,
        "time": 159912,
        "channel": 9
      },
      {
        "type": "note_on",
        "note": 38,
        "velocity": 77,
        "time": 160167,
        "channel": 9
      },
      {
        "type": "note_off",
        "note": 38,
        "time": 160264,
        "channel": 9
      },
      {
        "type": "note_on",
        "note": 38,
        "velocity": 36,
        "time": 160291,
        "channel": 9
      },
      {
        "type": "note_on",
        "note": 36,
        "velocity": 47,
        "time": 160301,
        "channel": 9
      },
      {
        "type": "note_off",
        "note": 38,
        "time": 160389,
        "channel": 9
      },
      {
        "type": "note_off",
        "note": 36,
        "time": 160397,
        "channel": 9
      },
      {
        "type": "note_on",
        "note": 38,
        "velocity": 38,
        "time": 160407,
        "channel": 9
      },
      {
        "type": "note_off",
        "note": 38,
        "time": 160504,
        "channel": 9
      },
      {
        "type": "note_on",
        "note": 38,
        "velocity": 50,
        "time": 160514,
        "channel": 9
      },
      {
        "type": "note_off",
        "note": 38,
        "time": 160610,
        "channel": 9
      },
      {
        "type": "note_on",
        "note": 38,
        "velocity": 44,
        "time": 160631,
        "channel": 9
      },
      {
        "type": "note_off",
        "note": 38,
        "time": 160728,
        "channel": 9
      },
      {
        "type": "note_on",
        "note": 44,
        "velocity": 82,
        "time": 160741,
        "channel": 9
      },
      {
        "type": "note_on",
        "note": 38,
        "velocity": 68,
        "time": 160750,
        "channel": 9
      },
      {
        "type": "note_on",
        "note": 36,
        "velocity": 47,
        "time": 160760,
        "channel": 9
      },
      {
        "type": "note_off",
        "note": 44,
        "time": 160839,
        "channel": 9
      },
      {
        "type": "note_off",
        "note": 38,
        "time": 160847,
        "channel": 9
      },
      {
        "type": "note_off",
        "note": 36,
        "time": 160857,
        "channel": 9
      },
      {
        "type": "note_on",
        "note": 38,
        "velocity": 76,
        "time": 160865,
        "channel": 9
      },
      {
        "type": "note_off",
        "note": 38,
        "time": 160962,
        "channel": 9
      },
      {
        "type": "note_on",
        "note": 38,
        "velocity": 67,
        "time": 160973,
        "channel": 9
      },
      {
        "type": "note_off",
        "note": 38,
        "time": 161069,
        "channel": 9
      },
      {
        "type": "note_on",
        "note": 40,
        "velocity": 105,
        "time": 161087,
        "channel": 9
      },
      {
        "type": "note_off",
        "note": 40,
        "time": 161185,
        "channel": 9
      },
      {
        "type": "note_on",
        "note": 36,
        "velocity": 52,
        "time": 161224,
        "channel": 9
      },
      {
        "type": "note_off",
        "note": 36,
        "time": 161321,
        "channel": 9
      },
      {
        "type": "note_on",
        "note": 38,
        "velocity": 5,
        "time": 161525,
        "channel": 9
      },
      {
        "type": "note_off",
        "note": 38,
        "time": 161596,
        "channel": 9
      },
      {
        "type": "note_on",
        "note": 38,
        "velocity": 10,
        "time": 161596,
        "channel": 9
      },
      {
        "type": "note_off",
        "note": 38,
        "time": 161621,
        "channel": 9
      },
      {
        "type": "note_on",
        "note": 38,
        "velocity": 8,
        "time": 161635,
        "channel": 9
      },
      {
        "type": "note_on",
        "note": 44,
        "velocity": 110,
        "time": 161691,
        "channel": 9
      },
      {
        "type": "note_off",
        "note": 38,
        "time": 161692,
        "channel": 9
      },
      {
        "type": "note_on",
        "note": 40,
        "velocity": 120,
        "time": 161694,
        "channel": 9
      },
      {
        "type": "note_on",
        "note": 36,
        "velocity": 57,
        "time": 161721,
        "channel": 9
      },
      {
        "type": "note_off",
        "note": 44,
        "time": 161788,
        "channel": 9
      },
      {
        "type": "note_off",
        "note": 40,
        "time": 161790,
        "channel": 9
      },
      {
        "type": "note_off",
        "note": 36,
        "time": 161817,
        "channel": 9
      },
      {
        "type": "note_on",
        "note": 36,
        "velocity": 40,
        "time": 162223,
        "channel": 9
      },
      {
        "type": "note_off",
        "note": 36,
        "time": 162320,
        "channel": 9
      },
      {
        "type": "note_on",
        "note": 44,
        "velocity": 97,
        "time": 162717,
        "channel": 9
      },
      {
        "type": "note_on",
        "note": 40,
        "velocity": 102,
        "time": 162732,
        "channel": 9
      },
      {
        "type": "note_on",
        "note": 36,
        "velocity": 49,
        "time": 162739,
        "channel": 9
      },
      {
        "type": "note_off",
        "note": 44,
        "time": 162815,
        "channel": 9
      },
      {
        "type": "note_off",
        "note": 40,
        "time": 162829,
        "channel": 9
      },
      {
        "type": "note_off",
        "note": 36,
        "time": 162836,
        "channel": 9
      },
      {
        "type": "note_on",
        "note": 38,
        "velocity": 81,
        "time": 162853,
        "channel": 9
      },
      {
        "type": "note_off",
        "note": 38,
        "time": 162950,
        "channel": 9
      },
      {
        "type": "note_on",
        "note": 38,
        "velocity": 46,
        "time": 162972,
        "channel": 9
      },
      {
        "type": "note_off",
        "note": 38,
        "time": 163069,
        "channel": 9
      },
      {
        "type": "note_on",
        "note": 38,
        "velocity": 37,
        "time": 163093,
        "channel": 9
      },
      {
        "type": "note_on",
        "note": 44,
        "velocity": 20,
        "time": 163159,
        "channel": 9
      },
      {
        "type": "note_off",
        "note": 38,
        "time": 163189,
        "channel": 9
      },
      {
        "type": "note_on",
        "note": 36,
        "velocity": 43,
        "time": 163202,
        "channel": 9
      },
      {
        "type": "note_off",
        "note": 44,
        "time": 163256,
        "channel": 9
      },
      {
        "type": "note_off",
        "note": 36,
        "time": 163298,
        "channel": 9
      },
      {
        "type": "note_on",
        "note": 44,
        "velocity": 90,
        "time": 163675,
        "channel": 9
      },
      {
        "type": "note_on",
        "note": 36,
        "velocity": 55,
        "time": 163703,
        "channel": 9
      },
      {
        "type": "note_on",
        "note": 40,
        "velocity": 124,
        "time": 163703,
        "channel": 9
      },
      {
        "type": "note_off",
        "note": 44,
        "time": 163773,
        "channel": 9
      },
      {
        "type": "note_off",
        "note": 36,
        "time": 163800,
        "channel": 9
      },
      {
        "type": "note_off",
        "note": 40,
        "time": 163800,
        "channel": 9
      },
      {
        "type": "note_on",
        "note": 36,
        "velocity": 39,
        "time": 164175,
        "channel": 9
      },
      {
        "type": "note_off",
        "note": 36,
        "time": 164272,
        "channel": 9
      },
      {
        "type": "note_on",
        "note": 38,
        "velocity": 13,
        "time": 164527,
        "channel": 9
      },
      {
        "type": "note_off",
        "note": 38,
        "time": 164598,
        "channel": 9
      },
      {
        "type": "note_on",
        "note": 38,
        "velocity": 15,
        "time": 164598,
        "channel": 9
      },
      {
        "type": "note_off",
        "note": 38,
        "time": 164624,
        "channel": 9
      },
      {
        "type": "note_on",
        "note": 44,
        "velocity": 92,
        "time": 164642,
        "channel": 9
      },
      {
        "type": "note_on",
        "note": 36,
        "velocity": 52,
        "time": 164651,
        "channel": 9
      },
      {
        "type": "note_on",
        "note": 38,
        "velocity": 87,
        "time": 164659,
        "channel": 9
      },
      {
        "type": "note_off",
        "note": 38,
        "time": 164695,
        "channel": 9
      },
      {
        "type": "note_off",
        "note": 44,
        "time": 164739,
        "channel": 9
      },
      {
        "type": "note_off",
        "note": 36,
        "time": 164748,
        "channel": 9
      },
      {
        "type": "note_on",
        "note": 38,
        "velocity": 65,
        "time": 164765,
        "channel": 9
      },
      {
        "type": "note_off",
        "note": 38,
        "time": 164861,
        "channel": 9
      },
      {
        "type": "note_on",
        "note": 37,
        "velocity": 71,
        "time": 164882,
        "channel": 9
      },
      {
        "type": "note_off",
        "note": 37,
        "time": 164978,
        "channel": 9
      },
      {
        "type": "note_on",
        "note": 38,
        "velocity": 39,
        "time": 165006,
        "channel": 9
      },
      {
        "type": "note_off",
        "note": 38,
        "time": 165103,
        "channel": 9
      },
      {
        "type": "note_on",
        "note": 36,
        "velocity": 44,
        "time": 165119,
        "channel": 9
      },
      {
        "type": "note_off",
        "note": 36,
        "time": 165217,
        "channel": 9
      },
      {
        "type": "note_on",
        "note": 44,
        "velocity": 100,
        "time": 165598,
        "channel": 9
      },
      {
        "type": "note_on",
        "note": 36,
        "velocity": 50,
        "time": 165620,
        "channel": 9
      },
      {
        "type": "note_on",
        "note": 40,
        "velocity": 103,
        "time": 165622,
        "channel": 9
      },
      {
        "type": "note_off",
        "note": 44,
        "time": 165696,
        "channel": 9
      },
      {
        "type": "note_off",
        "note": 36,
        "time": 165717,
        "channel": 9
      },
      {
        "type": "note_off",
        "note": 40,
        "time": 165719,
        "channel": 9
      },
      {
        "type": "note_on",
        "note": 36,
        "velocity": 46,
        "time": 166100,
        "channel": 9
      },
      {
        "type": "note_off",
        "note": 36,
        "time": 166197,
        "channel": 9
      },
      {
        "type": "note_on",
        "note": 38,
        "velocity": 13,
        "time": 166454,
        "channel": 9
      },
      {
        "type": "note_off",
        "note": 38,
        "time": 166501,
        "channel": 9
      },
      {
        "type": "note_on",
        "note": 38,
        "velocity": 22,
        "time": 166501,
        "channel": 9
      },
      {
        "type": "note_off",
        "note": 38,
        "time": 166551,
        "channel": 9
      },
      {
        "type": "note_on",
        "note": 44,
        "velocity": 95,
        "time": 166557,
        "channel": 9
      },
      {
        "type": "note_on",
        "note": 40,
        "velocity": 96,
        "time": 166582,
        "channel": 9
      },
      {
        "type": "note_on",
        "note": 36,
        "velocity": 43,
        "time": 166585,
        "channel": 9
      },
      {
        "type": "note_off",
        "note": 44,
        "time": 166654,
        "channel": 9
      },
      {
        "type": "note_on",
        "note": 38,
        "velocity": 52,
        "time": 166677,
        "channel": 9
      },
      {
        "type": "note_off",
        "note": 40,
        "time": 166679,
        "channel": 9
      },
      {
        "type": "note_off",
        "note": 36,
        "time": 166682,
        "channel": 9
      },
      {
        "type": "note_off",
        "note": 38,
        "time": 166774,
        "channel": 9
      },
      {
        "type": "note_on",
        "note": 38,
        "velocity": 39,
        "time": 166799,
        "channel": 9
      },
      {
        "type": "note_off",
        "note": 38,
        "time": 166895,
        "channel": 9
      },
      {
        "type": "note_on",
        "note": 38,
        "velocity": 31,
        "time": 166934,
        "channel": 9
      },
      {
        "type": "note_off",
        "note": 38,
        "time": 167031,
        "channel": 9
      },
      {
        "type": "note_on",
        "note": 36,
        "velocity": 42,
        "time": 167037,
        "channel": 9
      },
      {
        "type": "note_off",
        "note": 36,
        "time": 167134,
        "channel": 9
      },
      {
        "type": "note_on",
        "note": 44,
        "velocity": 95,
        "time": 167511,
        "channel": 9
      },
      {
        "type": "note_on",
        "note": 36,
        "velocity": 44,
        "time": 167530,
        "channel": 9
      },
      {
        "type": "note_on",
        "note": 40,
        "velocity": 99,
        "time": 167535,
        "channel": 9
      },
      {
        "type": "note_off",
        "note": 44,
        "time": 167608,
        "channel": 9
      },
      {
        "type": "note_off",
        "note": 36,
        "time": 167627,
        "channel": 9
      },
      {
        "type": "note_off",
        "note": 40,
        "time": 167632,
        "channel": 9
      },
      {
        "type": "note_on",
        "note": 38,
        "velocity": 21,
        "time": 167741,
        "channel": 9
      },
      {
        "type": "note_off",
        "note": 38,
        "time": 167838,
        "channel": 9
      },
      {
        "type": "note_on",
        "note": 38,
        "velocity": 104,
        "time": 167878,
        "channel": 9
      },
      {
        "type": "note_off",
        "note": 38,
        "time": 167974,
        "channel": 9
      },
      {
        "type": "note_on",
        "note": 38,
        "velocity": 33,
        "time": 167992,
        "channel": 9
      },
      {
        "type": "note_on",
        "note": 36,
        "velocity": 45,
        "time": 167993,
        "channel": 9
      },
      {
        "type": "note_off",
        "note": 38,
        "time": 168089,
        "channel": 9
      },
      {
        "type": "note_off",
        "note": 36,
        "time": 168091,
        "channel": 9
      },
      {
        "type": "note_on",
        "note": 38,
        "velocity": 38,
        "time": 168097,
        "channel": 9
      },
      {
        "type": "note_off",
        "note": 38,
        "time": 168193,
        "channel": 9
      },
      {
        "type": "note_on",
        "note": 38,
        "velocity": 59,
        "time": 168218,
        "channel": 9
      },
      {
        "type": "note_off",
        "note": 38,
        "time": 168314,
        "channel": 9
      },
      {
        "type": "note_on",
        "note": 44,
        "velocity": 85,
        "time": 168449,
        "channel": 9
      },
      {
        "type": "note_on",
        "note": 38,
        "velocity": 86,
        "time": 168457,
        "channel": 9
      },
      {
        "type": "note_on",
        "note": 36,
        "velocity": 46,
        "time": 168465,
        "channel": 9
      },
      {
        "type": "note_off",
        "note": 44,
        "time": 168545,
        "channel": 9
      },
      {
        "type": "note_off",
        "note": 38,
        "time": 168553,
        "channel": 9
      },
      {
        "type": "note_off",
        "note": 36,
        "time": 168562,
        "channel": 9
      },
      {
        "type": "note_on",
        "note": 38,
        "velocity": 55,
        "time": 168582,
        "channel": 9
      },
      {
        "type": "note_off",
        "note": 38,
        "time": 168679,
        "channel": 9
      },
      {
        "type": "note_on",
        "note": 38,
        "velocity": 34,
        "time": 168692,
        "channel": 9
      },
      {
        "type": "note_off",
        "note": 38,
        "time": 168790,
        "channel": 9
      },
      {
        "type": "note_on",
        "note": 38,
        "velocity": 45,
        "time": 168803,
        "channel": 9
      },
      {
        "type": "note_off",
        "note": 38,
        "time": 168900,
        "channel": 9
      },
      {
        "type": "note_on",
        "note": 36,
        "velocity": 48,
        "time": 168937,
        "channel": 9
      },
      {
        "type": "note_off",
        "note": 36,
        "time": 169033,
        "channel": 9
      },
      {
        "type": "note_on",
        "note": 38,
        "velocity": 19,
        "time": 169317,
        "channel": 9
      },
      {
        "type": "note_off",
        "note": 38,
        "time": 169379,
        "channel": 9
      },
      {
        "type": "note_on",
        "note": 38,
        "velocity": 29,
        "time": 169379,
        "channel": 9
      },
      {
        "type": "note_on",
        "note": 44,
        "velocity": 92,
        "time": 169413,
        "channel": 9
      },
      {
        "type": "note_off",
        "note": 38,
        "time": 169414,
        "channel": 9
      },
      {
        "type": "note_on",
        "note": 40,
        "velocity": 101,
        "time": 169448,
        "channel": 9
      },
      {
        "type": "note_on",
        "note": 36,
        "velocity": 48,
        "time": 169452,
        "channel": 9
      },
      {
        "type": "note_off",
        "note": 44,
        "time": 169510,
        "channel": 9
      },
      {
        "type": "note_off",
        "note": 40,
        "time": 169544,
        "channel": 9
      },
      {
        "type": "note_off",
        "note": 36,
        "time": 169549,
        "channel": 9
      },
      {
        "type": "note_on",
        "note": 36,
        "velocity": 43,
        "time": 169913,
        "channel": 9
      },
      {
        "type": "note_off",
        "note": 36,
        "time": 170010,
        "channel": 9
      },
      {
        "type": "note_on",
        "note": 38,
        "velocity": 14,
        "time": 170283,
        "channel": 9
      },
      {
        "type": "note_off",
        "note": 38,
        "time": 170344,
        "channel": 9
      },
      {
        "type": "note_on",
        "note": 38,
        "velocity": 26,
        "time": 170344,
        "channel": 9
      },
      {
        "type": "note_off",
        "note": 38,
        "time": 170380,
        "channel": 9
      },
      {
        "type": "note_on",
        "note": 44,
        "velocity": 90,
        "time": 170388,
        "channel": 9
      },
      {
        "type": "note_on",
        "note": 36,
        "velocity": 45,
        "time": 170407,
        "channel": 9
      },
      {
        "type": "note_on",
        "note": 40,
        "velocity": 97,
        "time": 170416,
        "channel": 9
      },
      {
        "type": "note_off",
        "note": 44,
        "time": 170485,
        "channel": 9
      },
      {
        "type": "note_off",
        "note": 36,
        "time": 170504,
        "channel": 9
      },
      {
        "type": "note_off",
        "note": 40,
        "time": 170513,
        "channel": 9
      },
      {
        "type": "note_on",
        "note": 38,
        "velocity": 62,
        "time": 170515,
        "channel": 9
      },
      {
        "type": "note_off",
        "note": 38,
        "time": 170612,
        "channel": 9
      },
      {
        "type": "note_on",
        "note": 38,
        "velocity": 42,
        "time": 170634,
        "channel": 9
      },
      {
        "type": "note_off",
        "note": 38,
        "time": 170732,
        "channel": 9
      },
      {
        "type": "note_on",
        "note": 38,
        "velocity": 36,
        "time": 170751,
        "channel": 9
      },
      {
        "type": "note_off",
        "note": 38,
        "time": 170848,
        "channel": 9
      },
      {
        "type": "note_on",
        "note": 44,
        "velocity": 17,
        "time": 170859,
        "channel": 9
      },
      {
        "type": "note_on",
        "note": 36,
        "velocity": 44,
        "time": 170889,
        "channel": 9
      },
      {
        "type": "note_off",
        "note": 44,
        "time": 170957,
        "channel": 9
      },
      {
        "type": "note_off",
        "note": 36,
        "time": 170986,
        "channel": 9
      },
      {
        "type": "note_on",
        "note": 38,
        "velocity": 9,
        "time": 171227,
        "channel": 9
      },
      {
        "type": "note_off",
        "note": 38,
        "time": 171291,
        "channel": 9
      },
      {
        "type": "note_on",
        "note": 38,
        "velocity": 14,
        "time": 171291,
        "channel": 9
      },
      {
        "type": "note_off",
        "note": 38,
        "time": 171324,
        "channel": 9
      },
      {
        "type": "note_on",
        "note": 44,
        "velocity": 92,
        "time": 171354,
        "channel": 9
      },
      {
        "type": "note_on",
        "note": 40,
        "velocity": 109,
        "time": 171369,
        "channel": 9
      },
      {
        "type": "note_on",
        "note": 36,
        "velocity": 45,
        "time": 171378,
        "channel": 9
      },
      {
        "type": "note_off",
        "note": 44,
        "time": 171452,
        "channel": 9
      },
      {
        "type": "note_off",
        "note": 40,
        "time": 171466,
        "channel": 9
      },
      {
        "type": "note_off",
        "note": 36,
        "time": 171475,
        "channel": 9
      },
      {
        "type": "note_on",
        "note": 48,
        "velocity": 100,
        "time": 171709,
        "channel": 9
      },
      {
        "type": "note_off",
        "note": 48,
        "time": 171806,
        "channel": 9
      },
      {
        "type": "note_on",
        "note": 36,
        "velocity": 46,
        "time": 171844,
        "channel": 9
      },
      {
        "type": "note_off",
        "note": 36,
        "time": 171941,
        "channel": 9
      },
      {
        "type": "note_on",
        "note": 48,
        "velocity": 104,
        "time": 172056,
        "channel": 9
      },
      {
        "type": "note_off",
        "note": 48,
        "time": 172152,
        "channel": 9
      },
      {
        "type": "note_on",
        "note": 44,
        "velocity": 95,
        "time": 172296,
        "channel": 9
      },
      {
        "type": "note_on",
        "note": 38,
        "velocity": 91,
        "time": 172317,
        "channel": 9
      },
      {
        "type": "note_on",
        "note": 36,
        "velocity": 46,
        "time": 172326,
        "channel": 9
      },
      {
        "type": "note_off",
        "note": 44,
        "time": 172393,
        "channel": 9
      },
      {
        "type": "note_off",
        "note": 38,
        "time": 172414,
        "channel": 9
      },
      {
        "type": "note_off",
        "note": 36,
        "time": 172423,
        "channel": 9
      },
      {
        "type": "note_on",
        "note": 38,
        "velocity": 42,
        "time": 172433,
        "channel": 9
      },
      {
        "type": "note_off",
        "note": 38,
        "time": 172530,
        "channel": 9
      },
      {
        "type": "note_on",
        "note": 38,
        "velocity": 40,
        "time": 172559,
        "channel": 9
      },
      {
        "type": "note_off",
        "note": 38,
        "time": 172655,
        "channel": 9
      },
      {
        "type": "note_on",
        "note": 38,
        "velocity": 51,
        "time": 172664,
        "channel": 9
      },
      {
        "type": "note_off",
        "note": 38,
        "time": 172760,
        "channel": 9
      },
      {
        "type": "note_on",
        "note": 36,
        "velocity": 44,
        "time": 172793,
        "channel": 9
      },
      {
        "type": "note_off",
        "note": 36,
        "time": 172891,
        "channel": 9
      },
      {
        "type": "note_on",
        "note": 38,
        "velocity": 20,
        "time": 173156,
        "channel": 9
      },
      {
        "type": "note_off",
        "note": 38,
        "time": 173217,
        "channel": 9
      },
      {
        "type": "note_on",
        "note": 38,
        "velocity": 33,
        "time": 173217,
        "channel": 9
      },
      {
        "type": "note_on",
        "note": 44,
        "velocity": 70,
        "time": 173247,
        "channel": 9
      },
      {
        "type": "note_off",
        "note": 38,
        "time": 173253,
        "channel": 9
      },
      {
        "type": "note_on",
        "note": 38,
        "velocity": 26,
        "time": 173255,
        "channel": 9
      },
      {
        "type": "note_on",
        "note": 36,
        "velocity": 47,
        "time": 173284,
        "channel": 9
      },
      {
        "type": "note_on",
        "note": 40,
        "velocity": 119,
        "time": 173289,
        "channel": 9
      },
      {
        "type": "note_off",
        "note": 38,
        "time": 173315,
        "channel": 9
      },
      {
        "type": "note_off",
        "note": 44,
        "time": 173345,
        "channel": 9
      },
      {
        "type": "note_on",
        "note": 38,
        "velocity": 24,
        "time": 173356,
        "channel": 9
      },
      {
        "type": "note_off",
        "note": 36,
        "time": 173380,
        "channel": 9
      },
      {
        "type": "note_off",
        "note": 40,
        "time": 173386,
        "channel": 9
      },
      {
        "type": "note_off",
        "note": 38,
        "time": 173453,
        "channel": 9
      },
      {
        "type": "note_on",
        "note": 38,
        "velocity": 5,
        "time": 173535,
        "channel": 9
      },
      {
        "type": "note_off",
        "note": 38,
        "time": 173632,
        "channel": 9
      },
      {
        "type": "note_on",
        "note": 48,
        "velocity": 90,
        "time": 173635,
        "channel": 9
      },
      {
        "type": "note_off",
        "note": 48,
        "time": 173731,
        "channel": 9
      },
      {
        "type": "note_on",
        "note": 38,
        "velocity": 15,
        "time": 173738,
        "channel": 9
      },
      {
        "type": "note_on",
        "note": 36,
        "velocity": 41,
        "time": 173778,
        "channel": 9
      },
      {
        "type": "note_off",
        "note": 38,
        "time": 173835,
        "channel": 9
      },
      {
        "type": "note_off",
        "note": 36,
        "time": 173875,
        "channel": 9
      },
      {
        "type": "note_on",
        "note": 50,
        "velocity": 76,
        "time": 173978,
        "channel": 9
      },
      {
        "type": "note_off",
        "note": 50,
        "time": 174075,
        "channel": 9
      },
      {
        "type": "note_on",
        "note": 44,
        "velocity": 97,
        "time": 174223,
        "channel": 9
      },
      {
        "type": "note_on",
        "note": 37,
        "velocity": 86,
        "time": 174235,
        "channel": 9
      },
      {
        "type": "note_on",
        "note": 36,
        "velocity": 47,
        "time": 174246,
        "channel": 9
      },
      {
        "type": "note_off",
        "note": 44,
        "time": 174321,
        "channel": 9
      },
      {
        "type": "note_off",
        "note": 37,
        "time": 174332,
        "channel": 9
      },
      {
        "type": "note_on",
        "note": 38,
        "velocity": 40,
        "time": 174339,
        "channel": 9
      },
      {
        "type": "note_off",
        "note": 36,
        "time": 174343,
        "channel": 9
      },
      {
        "type": "note_off",
        "note": 38,
        "time": 174435,
        "channel": 9
      },
      {
        "type": "note_on",
        "note": 38,
        "velocity": 41,
        "time": 174463,
        "channel": 9
      },
      {
        "type": "note_off",
        "note": 38,
        "time": 174560,
        "channel": 9
      },
      {
        "type": "note_on",
        "note": 38,
        "velocity": 36,
        "time": 174573,
        "channel": 9
      },
      {
        "type": "note_off",
        "note": 38,
        "time": 174669,
        "channel": 9
      },
      {
        "type": "note_on",
        "note": 36,
        "velocity": 42,
        "time": 174703,
        "channel": 9
      },
      {
        "type": "note_off",
        "note": 36,
        "time": 174799,
        "channel": 9
      },
      {
        "type": "note_on",
        "note": 38,
        "velocity": 14,
        "time": 175034,
        "channel": 9
      },
      {
        "type": "note_off",
        "note": 38,
        "time": 175114,
        "channel": 9
      },
      {
        "type": "note_on",
        "note": 38,
        "velocity": 26,
        "time": 175114,
        "channel": 9
      },
      {
        "type": "note_off",
        "note": 38,
        "time": 175131,
        "channel": 9
      },
      {
        "type": "note_on",
        "note": 44,
        "velocity": 85,
        "time": 175172,
        "channel": 9
      },
      {
        "type": "note_on",
        "note": 40,
        "velocity": 99,
        "time": 175199,
        "channel": 9
      },
      {
        "type": "note_on",
        "note": 36,
        "velocity": 44,
        "time": 175205,
        "channel": 9
      },
      {
        "type": "note_off",
        "note": 44,
        "time": 175269,
        "channel": 9
      },
      {
        "type": "note_off",
        "note": 40,
        "time": 175295,
        "channel": 9
      },
      {
        "type": "note_off",
        "note": 36,
        "time": 175302,
        "channel": 9
      },
      {
        "type": "note_on",
        "note": 38,
        "velocity": 53,
        "time": 175304,
        "channel": 9
      },
      {
        "type": "note_off",
        "note": 38,
        "time": 175401,
        "channel": 9
      },
      {
        "type": "note_on",
        "note": 37,
        "velocity": 60,
        "time": 175415,
        "channel": 9
      },
      {
        "type": "note_off",
        "note": 37,
        "time": 175511,
        "channel": 9
      },
      {
        "type": "note_on",
        "note": 48,
        "velocity": 58,
        "time": 175533,
        "channel": 9
      },
      {
        "type": "note_on",
        "note": 38,
        "velocity": 18,
        "time": 175630,
        "channel": 9
      },
      {
        "type": "note_off",
        "note": 48,
        "time": 175630,
        "channel": 9
      },
      {
        "type": "note_on",
        "note": 36,
        "velocity": 44,
        "time": 175665,
        "channel": 9
      },
      {
        "type": "note_off",
        "note": 38,
        "time": 175727,
        "channel": 9
      },
      {
        "type": "note_on",
        "note": 38,
        "velocity": 10,
        "time": 175741,
        "channel": 9
      },
      {
        "type": "note_off",
        "note": 36,
        "time": 175762,
        "channel": 9
      },
      {
        "type": "note_off",
        "note": 38,
        "time": 175838,
        "channel": 9
      },
      {
        "type": "note_on",
        "note": 48,
        "velocity": 79,
        "time": 175876,
        "channel": 9
      },
      {
        "type": "note_off",
        "note": 48,
        "time": 175973,
        "channel": 9
      },
      {
        "type": "note_on",
        "note": 38,
        "velocity": 13,
        "time": 175976,
        "channel": 9
      },
      {
        "type": "note_off",
        "note": 38,
        "time": 176073,
        "channel": 9
      },
      {
        "type": "note_on",
        "note": 44,
        "velocity": 95,
        "time": 176116,
        "channel": 9
      },
      {
        "type": "note_on",
        "note": 45,
        "velocity": 105,
        "time": 176129,
        "channel": 9
      },
      {
        "type": "note_on",
        "note": 36,
        "velocity": 48,
        "time": 176134,
        "channel": 9
      },
      {
        "type": "note_off",
        "note": 44,
        "time": 176213,
        "channel": 9
      },
      {
        "type": "note_off",
        "note": 45,
        "time": 176226,
        "channel": 9
      },
      {
        "type": "note_off",
        "note": 36,
        "time": 176230,
        "channel": 9
      },
      {
        "type": "note_on",
        "note": 38,
        "velocity": 18,
        "time": 176255,
        "channel": 9
      },
      {
        "type": "note_off",
        "note": 38,
        "time": 176351,
        "channel": 9
      },
      {
        "type": "note_on",
        "note": 43,
        "velocity": 108,
        "time": 176366,
        "channel": 9
      },
      {
        "type": "note_off",
        "note": 43,
        "time": 176463,
        "channel": 9
      },
      {
        "type": "note_on",
        "note": 37,
        "velocity": 86,
        "time": 176474,
        "channel": 9
      },
      {
        "type": "note_off",
        "note": 37,
        "time": 176570,
        "channel": 9
      },
      {
        "type": "note_on",
        "note": 36,
        "velocity": 56,
        "time": 176608,
        "channel": 9
      },
      {
        "type": "note_off",
        "note": 36,
        "time": 176705,
        "channel": 9
      },
      {
        "type": "note_on",
        "note": 38,
        "velocity": 9,
        "time": 176964,
        "channel": 9
      },
      {
        "type": "note_off",
        "note": 38,
        "time": 177008,
        "channel": 9
      },
      {
        "type": "note_on",
        "note": 38,
        "velocity": 16,
        "time": 177008,
        "channel": 9
      },
      {
        "type": "note_off",
        "note": 38,
        "time": 177035,
        "channel": 9
      },
      {
        "type": "note_on",
        "note": 38,
        "velocity": 16,
        "time": 177035,
        "channel": 9
      },
      {
        "type": "note_off",
        "note": 38,
        "time": 177061,
        "channel": 9
      },
      {
        "type": "note_on",
        "note": 44,
        "velocity": 87,
        "time": 177078,
        "channel": 9
      },
      {
        "type": "note_on",
        "note": 40,
        "velocity": 126,
        "time": 177092,
        "channel": 9
      },
      {
        "type": "note_on",
        "note": 36,
        "velocity": 53,
        "time": 177106,
        "channel": 9
      },
      {
        "type": "note_off",
        "note": 44,
        "time": 177175,
        "channel": 9
      },
      {
        "type": "note_off",
        "note": 40,
        "time": 177188,
        "channel": 9
      },
      {
        "type": "note_off",
        "note": 36,
        "time": 177202,
        "channel": 9
      },
      {
        "type": "note_on",
        "note": 38,
        "velocity": 16,
        "time": 177332,
        "channel": 9
      },
      {
        "type": "note_off",
        "note": 38,
        "time": 177429,
        "channel": 9
      },
      {
        "type": "note_on",
        "note": 38,
        "velocity": 97,
        "time": 177441,
        "channel": 9
      },
      {
        "type": "note_off",
        "note": 38,
        "time": 177538,
        "channel": 9
      },
      {
        "type": "note_on",
        "note": 36,
        "velocity": 44,
        "time": 177568,
        "channel": 9
      },
      {
        "type": "note_on",
        "note": 38,
        "velocity": 19,
        "time": 177585,
        "channel": 9
      },
      {
        "type": "note_off",
        "note": 36,
        "time": 177665,
        "channel": 9
      },
      {
        "type": "note_off",
        "note": 38,
        "time": 177682,
        "channel": 9
      },
      {
        "type": "note_on",
        "note": 38,
        "velocity": 20,
        "time": 177735,
        "channel": 9
      },
      {
        "type": "note_off",
        "note": 38,
        "time": 177822,
        "channel": 9
      },
      {
        "type": "note_on",
        "note": 38,
        "velocity": 32,
        "time": 177822,
        "channel": 9
      },
      {
        "type": "note_off",
        "note": 38,
        "time": 177832,
        "channel": 9
      },
      {
        "type": "note_on",
        "note": 38,
        "velocity": 53,
        "time": 177947,
        "channel": 9
      },
      {
        "type": "note_on",
        "note": 44,
        "velocity": 90,
        "time": 178034,
        "channel": 9
      },
      {
        "type": "note_off",
        "note": 38,
        "time": 178044,
        "channel": 9
      },
      {
        "type": "note_on",
        "note": 38,
        "velocity": 84,
        "time": 178049,
        "channel": 9
      },
      {
        "type": "note_on",
        "note": 36,
        "velocity": 46,
        "time": 178056,
        "channel": 9
      },
      {
        "type": "note_off",
        "note": 44,
        "time": 178131,
        "channel": 9
      },
      {
        "type": "note_off",
        "note": 38,
        "time": 178146,
        "channel": 9
      },
      {
        "type": "note_off",
        "note": 36,
        "time": 178152,
        "channel": 9
      },
      {
        "type": "note_on",
        "note": 37,
        "velocity": 87,
        "time": 178161,
        "channel": 9
      },
      {
        "type": "note_off",
        "note": 37,
        "time": 178258,
        "channel": 9
      },
      {
        "type": "note_on",
        "note": 38,
        "velocity": 84,
        "time": 178268,
        "channel": 9
      },
      {
        "type": "note_off",
        "note": 38,
        "time": 178364,
        "channel": 9
      },
      {
        "type": "note_on",
        "note": 38,
        "velocity": 49,
        "time": 178374,
        "channel": 9
      },
      {
        "type": "note_off",
        "note": 38,
        "time": 178471,
        "channel": 9
      },
      {
        "type": "note_on",
        "note": 36,
        "velocity": 49,
        "time": 178505,
        "channel": 9
      },
      {
        "type": "note_off",
        "note": 36,
        "time": 178602,
        "channel": 9
      },
      {
        "type": "note_on",
        "note": 38,
        "velocity": 5,
        "time": 178901,
        "channel": 9
      },
      {
        "type": "note_off",
        "note": 38,
        "time": 178959,
        "channel": 9
      },
      {
        "type": "note_on",
        "note": 38,
        "velocity": 18,
        "time": 178959,
        "channel": 9
      },
      {
        "type": "note_off",
        "note": 38,
        "time": 178998,
        "channel": 9
      },
      {
        "type": "note_on",
        "note": 38,
        "velocity": 8,
        "time": 179002,
        "channel": 9
      },
      {
        "type": "note_on",
        "note": 44,
        "velocity": 92,
        "time": 179003,
        "channel": 9
      },
      {
        "type": "note_on",
        "note": 40,
        "velocity": 120,
        "time": 179026,
        "channel": 9
      },
      {
        "type": "note_on",
        "note": 36,
        "velocity": 48,
        "time": 179033,
        "channel": 9
      },
      {
        "type": "note_off",
        "note": 38,
        "time": 179057,
        "channel": 9
      },
      {
        "type": "note_off",
        "note": 44,
        "time": 179101,
        "channel": 9
      },
      {
        "type": "note_off",
        "note": 40,
        "time": 179123,
        "channel": 9
      },
      {
        "type": "note_off",
        "note": 36,
        "time": 179131,
        "channel": 9
      },
      {
        "type": "note_on",
        "note": 36,
        "velocity": 36,
        "time": 179514,
        "channel": 9
      },
      {
        "type": "note_off",
        "note": 36,
        "time": 179611,
        "channel": 9
      },
      {
        "type": "note_on",
        "note": 44,
        "velocity": 95,
        "time": 179988,
        "channel": 9
      },
      {
        "type": "note_on",
        "note": 38,
        "velocity": 66,
        "time": 180001,
        "channel": 9
      },
      {
        "type": "note_on",
        "note": 36,
        "velocity": 53,
        "time": 180002,
        "channel": 9
      },
      {
        "type": "note_off",
        "note": 44,
        "time": 180085,
        "channel": 9
      },
      {
        "type": "note_off",
        "note": 36,
        "time": 180098,
        "channel": 9
      },
      {
        "type": "note_off",
        "note": 38,
        "time": 180098,
        "channel": 9
      },
      {
        "type": "note_on",
        "note": 38,
        "velocity": 50,
        "time": 180125,
        "channel": 9
      },
      {
        "type": "note_off",
        "note": 38,
        "time": 180222,
        "channel": 9
      },
      {
        "type": "note_on",
        "note": 38,
        "velocity": 30,
        "time": 180232,
        "channel": 9
      },
      {
        "type": "note_off",
        "note": 38,
        "time": 180330,
        "channel": 9
      },
      {
        "type": "note_on",
        "note": 38,
        "velocity": 39,
        "time": 180334,
        "channel": 9
      },
      {
        "type": "note_off",
        "note": 38,
        "time": 180430,
        "channel": 9
      },
      {
        "type": "note_on",
        "note": 44,
        "velocity": 20,
        "time": 180449,
        "channel": 9
      },
      {
        "type": "note_on",
        "note": 36,
        "velocity": 42,
        "time": 180458,
        "channel": 9
      },
      {
        "type": "note_off",
        "note": 44,
        "time": 180546,
        "channel": 9
      },
      {
        "type": "note_off",
        "note": 36,
        "time": 180555,
        "channel": 9
      },
      {
        "type": "note_on",
        "note": 38,
        "velocity": 18,
        "time": 180823,
        "channel": 9
      },
      {
        "type": "note_off",
        "note": 38,
        "time": 180889,
        "channel": 9
      },
      {
        "type": "note_on",
        "note": 38,
        "velocity": 26,
        "time": 180889,
        "channel": 9
      },
      {
        "type": "note_off",
        "note": 38,
        "time": 180920,
        "channel": 9
      },
      {
        "type": "note_on",
        "note": 44,
        "velocity": 95,
        "time": 180936,
        "channel": 9
      },
      {
        "type": "note_on",
        "note": 36,
        "velocity": 49,
        "time": 180959,
        "channel": 9
      },
      {
        "type": "note_on",
        "note": 38,
        "velocity": 105,
        "time": 180959,
        "channel": 9
      },
      {
        "type": "note_off",
        "note": 38,
        "time": 180986,
        "channel": 9
      },
      {
        "type": "note_on",
        "note": 38,
        "velocity": 28,
        "time": 181030,
        "channel": 9
      },
      {
        "type": "note_off",
        "note": 44,
        "time": 181034,
        "channel": 9
      },
      {
        "type": "note_off",
        "note": 36,
        "time": 181056,
        "channel": 9
      },
      {
        "type": "note_off",
        "note": 38,
        "time": 181056,
        "channel": 9
      },
      {
        "type": "note_on",
        "note": 36,
        "velocity": 41,
        "time": 181442,
        "channel": 9
      },
      {
        "type": "note_off",
        "note": 36,
        "time": 181538,
        "channel": 9
      },
      {
        "type": "note_on",
        "note": 38,
        "velocity": 11,
        "time": 181783,
        "channel": 9
      },
      {
        "type": "note_off",
        "note": 38,
        "time": 181845,
        "channel": 9
      },
      {
        "type": "note_on",
        "note": 38,
        "velocity": 17,
        "time": 181845,
        "channel": 9
      },
      {
        "type": "note_off",
        "note": 38,
        "time": 181879,
        "channel": 9
      },
      {
        "type": "note_on",
        "note": 44,
        "velocity": 95,
        "time": 181903,
        "channel": 9
      },
      {
        "type": "note_on",
        "note": 38,
        "velocity": 90,
        "time": 181918,
        "channel": 9
      },
      {
        "type": "note_on",
        "note": 36,
        "velocity": 48,
        "time": 181925,
        "channel": 9
      },
      {
        "type": "note_off",
        "note": 38,
        "time": 181942,
        "channel": 9
      },
      {
        "type": "note_off",
        "note": 44,
        "time": 182001,
        "channel": 9
      },
      {
        "type": "note_off",
        "note": 36,
        "time": 182022,
        "channel": 9
      },
      {
        "type": "note_on",
        "note": 38,
        "velocity": 35,
        "time": 182051,
        "channel": 9
      },
      {
        "type": "note_off",
        "note": 38,
        "time": 182148,
        "channel": 9
      },
      {
        "type": "note_on",
        "note": 38,
        "velocity": 33,
        "time": 182159,
        "channel": 9
      },
      {
        "type": "note_off",
        "note": 38,
        "time": 182256,
        "channel": 9
      },
      {
        "type": "note_on",
        "note": 38,
        "velocity": 23,
        "time": 182289,
        "channel": 9
      },
      {
        "type": "note_off",
        "note": 38,
        "time": 182386,
        "channel": 9
      },
      {
        "type": "note_on",
        "note": 38,
        "velocity": 17,
        "time": 182390,
        "channel": 9
      },
      {
        "type": "note_on",
        "note": 36,
        "velocity": 36,
        "time": 182399,
        "channel": 9
      },
      {
        "type": "note_off",
        "note": 38,
        "time": 182487,
        "channel": 9
      },
      {
        "type": "note_off",
        "note": 36,
        "time": 182496,
        "channel": 9
      },
      {
        "type": "note_on",
        "note": 38,
        "velocity": 25,
        "time": 182505,
        "channel": 9
      },
      {
        "type": "note_off",
        "note": 38,
        "time": 182602,
        "channel": 9
      },
      {
        "type": "note_on",
        "note": 38,
        "velocity": 18,
        "time": 182621,
        "channel": 9
      },
      {
        "type": "note_off",
        "note": 38,
        "time": 182718,
        "channel": 9
      },
      {
        "type": "note_on",
        "note": 38,
        "velocity": 49,
        "time": 182727,
        "channel": 9
      },
      {
        "type": "note_off",
        "note": 38,
        "time": 182824,
        "channel": 9
      },
      {
        "type": "note_on",
        "note": 38,
        "velocity": 50,
        "time": 182849,
        "channel": 9
      },
      {
        "type": "note_on",
        "note": 44,
        "velocity": 105,
        "time": 182873,
        "channel": 9
      },
      {
        "type": "note_off",
        "note": 38,
        "time": 182947,
        "channel": 9
      },
      {
        "type": "note_on",
        "note": 38,
        "velocity": 50,
        "time": 182959,
        "channel": 9
      },
      {
        "type": "note_off",
        "note": 44,
        "time": 182970,
        "channel": 9
      },
      {
        "type": "note_off",
        "note": 38,
        "time": 183056,
        "channel": 9
      },
      {
        "type": "note_on",
        "note": 38,
        "velocity": 54,
        "time": 183075,
        "channel": 9
      },
      {
        "type": "note_off",
        "note": 38,
        "time": 183172,
        "channel": 9
      },
      {
        "type": "note_on",
        "note": 38,
        "velocity": 74,
        "time": 183190,
        "channel": 9
      },
      {
        "type": "note_off",
        "note": 38,
        "time": 183286,
        "channel": 9
      },
      {
        "type": "note_on",
        "note": 37,
        "velocity": 87,
        "time": 183312,
        "channel": 9
      },
      {
        "type": "note_off",
        "note": 37,
        "time": 183408,
        "channel": 9
      },
      {
        "type": "note_on",
        "note": 36,
        "velocity": 58,
        "time": 183533,
        "channel": 9
      },
      {
        "type": "note_on",
        "note": 26,
        "velocity": 82,
        "time": 183546,
        "channel": 9
      },
      {
        "type": "note_off",
        "note": 36,
        "time": 183630,
        "channel": 9
      },
      {
        "type": "note_off",
        "note": 26,
        "time": 183643,
        "channel": 9
      },
      {
        "type": "note_on",
        "note": 44,
        "velocity": 80,
        "time": 183766,
        "channel": 9
      },
      {
        "type": "note_off",
        "note": 44,
        "time": 183863,
        "channel": 9
      },
      {
        "type": "note_on",
        "note": 26,
        "velocity": 82,
        "time": 184029,
        "channel": 9
      },
      {
        "type": "note_on",
        "note": 36,
        "velocity": 51,
        "time": 184033,
        "channel": 9
      },
      {
        "type": "note_off",
        "note": 26,
        "time": 184126,
        "channel": 9
      },
      {
        "type": "note_off",
        "note": 36,
        "time": 184130,
        "channel": 9
      },
      {
        "type": "note_on",
        "note": 55,
        "velocity": 65,
        "time": 184272,
        "channel": 9
      },
      {
        "type": "note_on",
        "note": 36,
        "velocity": 66,
        "time": 184274,
        "channel": 9
      },
      {
        "type": "note_off",
        "note": 36,
        "time": 184369,
        "channel": 9
      },
      {
        "type": "note_off",
        "note": 55,
        "time": 184369,
        "channel": 9
      },
      {
        "type": "note_on",
        "note": 44,
        "velocity": 50,
        "time": 184761,
        "channel": 9
      },
      {
        "type": "note_on",
        "note": 37,
        "velocity": 80,
        "time": 184776,
        "channel": 9
      },
      {
        "type": "note_on",
        "note": 36,
        "velocity": 56,
        "time": 184781,
        "channel": 9
      },
      {
        "type": "note_on",
        "note": 42,
        "velocity": 73,
        "time": 184781,
        "channel": 9
      },
      {
        "type": "note_off",
        "note": 44,
        "time": 184858,
        "channel": 9
      },
      {
        "type": "note_off",
        "note": 37,
        "time": 184873,
        "channel": 9
      },
      {
        "type": "note_off",
        "note": 36,
        "time": 184878,
        "channel": 9
      },
      {
        "type": "note_off",
        "note": 42,
        "time": 184878,
        "channel": 9
      },
      {
        "type": "note_on",
        "note": 42,
        "velocity": 20,
        "time": 185036,
        "channel": 9
      },
      {
        "type": "note_off",
        "note": 42,
        "time": 185133,
        "channel": 9
      },
      {
        "type": "note_on",
        "note": 38,
        "velocity": 29,
        "time": 185142,
        "channel": 9
      },
      {
        "type": "note_off",
        "note": 38,
        "time": 185239,
        "channel": 9
      },
      {
        "type": "note_on",
        "note": 42,
        "velocity": 28,
        "time": 185260,
        "channel": 9
      },
      {
        "type": "note_on",
        "note": 36,
        "velocity": 52,
        "time": 185269,
        "channel": 9
      },
      {
        "type": "note_on",
        "note": 38,
        "velocity": 23,
        "time": 185346,
        "channel": 9
      },
      {
        "type": "note_off",
        "note": 42,
        "time": 185357,
        "channel": 9
      },
      {
        "type": "note_off",
        "note": 36,
        "time": 185366,
        "channel": 9
      },
      {
        "type": "note_off",
        "note": 38,
        "time": 185442,
        "channel": 9
      },
      {
        "type": "note_on",
        "note": 46,
        "velocity": 68,
        "time": 185477,
        "channel": 9
      },
      {
        "type": "note_on",
        "note": 38,
        "velocity": 12,
        "time": 185494,
        "channel": 9
      },
      {
        "type": "note_off",
        "note": 46,
        "time": 185574,
        "channel": 9
      },
      {
        "type": "note_off",
        "note": 38,
        "time": 185591,
        "channel": 9
      },
      {
        "type": "note_on",
        "note": 44,
        "velocity": 42,
        "time": 185744,
        "channel": 9
      },
      {
        "type": "note_on",
        "note": 38,
        "velocity": 87,
        "time": 185754,
        "channel": 9
      },
      {
        "type": "note_on",
        "note": 42,
        "velocity": 64,
        "time": 185755,
        "channel": 9
      },
      {
        "type": "note_on",
        "note": 36,
        "velocity": 60,
        "time": 185767,
        "channel": 9
      },
      {
        "type": "note_off",
        "note": 44,
        "time": 185842,
        "channel": 9
      },
      {
        "type": "note_off",
        "note": 38,
        "time": 185850,
        "channel": 9
      },
      {
        "type": "note_off",
        "note": 42,
        "time": 185850,
        "channel": 9
      },
      {
        "type": "note_off",
        "note": 36,
        "time": 185864,
        "channel": 9
      },
      {
        "type": "note_on",
        "note": 38,
        "velocity": 49,
        "time": 185872,
        "channel": 9
      },
      {
        "type": "note_off",
        "note": 38,
        "time": 185969,
        "channel": 9
      },
      {
        "type": "note_on",
        "note": 38,
        "velocity": 40,
        "time": 185993,
        "channel": 9
      },
      {
        "type": "note_on",
        "note": 22,
        "velocity": 52,
        "time": 186009,
        "channel": 9
      },
      {
        "type": "note_off",
        "note": 38,
        "time": 186089,
        "channel": 9
      },
      {
        "type": "note_off",
        "note": 22,
        "time": 186107,
        "channel": 9
      },
      {
        "type": "note_on",
        "note": 38,
        "velocity": 30,
        "time": 186117,
        "channel": 9
      },
      {
        "type": "note_off",
        "note": 38,
        "time": 186213,
        "channel": 9
      },
      {
        "type": "note_on",
        "note": 22,
        "velocity": 54,
        "time": 186228,
        "channel": 9
      },
      {
        "type": "note_on",
        "note": 36,
        "velocity": 49,
        "time": 186233,
        "channel": 9
      },
      {
        "type": "note_off",
        "note": 22,
        "time": 186326,
        "channel": 9
      },
      {
        "type": "note_off",
        "note": 36,
        "time": 186329,
        "channel": 9
      },
      {
        "type": "note_on",
        "note": 42,
        "velocity": 58,
        "time": 186484,
        "channel": 9
      },
      {
        "type": "note_off",
        "note": 42,
        "time": 186582,
        "channel": 9
      },
      {
        "type": "note_on",
        "note": 42,
        "velocity": 67,
        "time": 186724,
        "channel": 9
      },
      {
        "type": "note_on",
        "note": 38,
        "velocity": 83,
        "time": 186726,
        "channel": 9
      },
      {
        "type": "note_on",
        "note": 36,
        "velocity": 55,
        "time": 186727,
        "channel": 9
      },
      {
        "type": "note_off",
        "note": 42,
        "time": 186821,
        "channel": 9
      },
      {
        "type": "note_off",
        "note": 36,
        "time": 186823,
        "channel": 9
      },
      {
        "type": "note_off",
        "note": 38,
        "time": 186823,
        "channel": 9
      },
      {
        "type": "note_on",
        "note": 22,
        "velocity": 43,
        "time": 186966,
        "channel": 9
      },
      {
        "type": "note_off",
        "note": 22,
        "time": 187063,
        "channel": 9
      },
      {
        "type": "note_on",
        "note": 42,
        "velocity": 34,
        "time": 187071,
        "channel": 9
      },
      {
        "type": "note_on",
        "note": 38,
        "velocity": 19,
        "time": 187093,
        "channel": 9
      },
      {
        "type": "note_off",
        "note": 42,
        "time": 187169,
        "channel": 9
      },
      {
        "type": "note_off",
        "note": 38,
        "time": 187190,
        "channel": 9
      },
      {
        "type": "note_on",
        "note": 42,
        "velocity": 28,
        "time": 187191,
        "channel": 9
      },
      {
        "type": "note_on",
        "note": 36,
        "velocity": 47,
        "time": 187198,
        "channel": 9
      },
      {
        "type": "note_off",
        "note": 42,
        "time": 187288,
        "channel": 9
      },
      {
        "type": "note_off",
        "note": 36,
        "time": 187294,
        "channel": 9
      },
      {
        "type": "note_on",
        "note": 38,
        "velocity": 16,
        "time": 187328,
        "channel": 9
      },
      {
        "type": "note_off",
        "note": 38,
        "time": 187425,
        "channel": 9
      },
      {
        "type": "note_on",
        "note": 42,
        "velocity": 74,
        "time": 187429,
        "channel": 9
      },
      {
        "type": "note_off",
        "note": 42,
        "time": 187527,
        "channel": 9
      },
      {
        "type": "note_on",
        "note": 42,
        "velocity": 75,
        "time": 187669,
        "channel": 9
      },
      {
        "type": "note_on",
        "note": 38,
        "velocity": 87,
        "time": 187677,
        "channel": 9
      },
      {
        "type": "note_on",
        "note": 36,
        "velocity": 57,
        "time": 187698,
        "channel": 9
      },
      {
        "type": "note_off",
        "note": 42,
        "time": 187766,
        "channel": 9
      },
      {
        "type": "note_off",
        "note": 38,
        "time": 187773,
        "channel": 9
      },
      {
        "type": "note_off",
        "note": 36,
        "time": 187795,
        "channel": 9
      },
      {
        "type": "note_on",
        "note": 38,
        "velocity": 37,
        "time": 187799,
        "channel": 9
      },
      {
        "type": "note_off",
        "note": 38,
        "time": 187896,
        "channel": 9
      },
      {
        "type": "note_on",
        "note": 22,
        "velocity": 44,
        "time": 187914,
        "channel": 9
      },
      {
        "type": "note_on",
        "note": 38,
        "velocity": 34,
        "time": 187927,
        "channel": 9
      },
      {
        "type": "note_off",
        "note": 22,
        "time": 188011,
        "channel": 9
      },
      {
        "type": "note_off",
        "note": 38,
        "time": 188024,
        "channel": 9
      },
      {
        "type": "note_on",
        "note": 38,
        "velocity": 30,
        "time": 188038,
        "channel": 9
      },
      {
        "type": "note_off",
        "note": 38,
        "time": 188134,
        "channel": 9
      },
      {
        "type": "note_on",
        "note": 42,
        "velocity": 43,
        "time": 188140,
        "channel": 9
      },
      {
        "type": "note_on",
        "note": 36,
        "velocity": 53,
        "time": 188147,
        "channel": 9
      },
      {
        "type": "note_off",
        "note": 42,
        "time": 188237,
        "channel": 9
      },
      {
        "type": "note_off",
        "note": 36,
        "time": 188244,
        "channel": 9
      },
      {
        "type": "note_on",
        "note": 22,
        "velocity": 67,
        "time": 188393,
        "channel": 9
      },
      {
        "type": "note_off",
        "note": 22,
        "time": 188490,
        "channel": 9
      },
      {
        "type": "note_on",
        "note": 38,
        "velocity": 89,
        "time": 188637,
        "channel": 9
      },
      {
        "type": "note_on",
        "note": 42,
        "velocity": 55,
        "time": 188638,
        "channel": 9
      },
      {
        "type": "note_on",
        "note": 36,
        "velocity": 57,
        "time": 188643,
        "channel": 9
      },
      {
        "type": "note_off",
        "note": 38,
        "time": 188733,
        "channel": 9
      },
      {
        "type": "note_off",
        "note": 42,
        "time": 188735,
        "channel": 9
      },
      {
        "type": "note_off",
        "note": 36,
        "time": 188740,
        "channel": 9
      },
      {
        "type": "note_on",
        "note": 42,
        "velocity": 33,
        "time": 188872,
        "channel": 9
      },
      {
        "type": "note_on",
        "note": 38,
        "velocity": 43,
        "time": 188969,
        "channel": 9
      },
      {
        "type": "note_off",
        "note": 42,
        "time": 188969,
        "channel": 9
      },
      {
        "type": "note_off",
        "note": 38,
        "time": 189066,
        "channel": 9
      },
      {
        "type": "note_on",
        "note": 42,
        "velocity": 28,
        "time": 189096,
        "channel": 9
      },
      {
        "type": "note_on",
        "note": 36,
        "velocity": 47,
        "time": 189128,
        "channel": 9
      },
      {
        "type": "note_off",
        "note": 42,
        "time": 189193,
        "channel": 9
      },
      {
        "type": "note_on",
        "note": 38,
        "velocity": 10,
        "time": 189200,
        "channel": 9
      },
      {
        "type": "note_off",
        "note": 36,
        "time": 189226,
        "channel": 9
      },
      {
        "type": "note_off",
        "note": 38,
        "time": 189297,
        "channel": 9
      },
      {
        "type": "note_on",
        "note": 42,
        "velocity": 61,
        "time": 189329,
        "channel": 9
      },
      {
        "type": "note_on",
        "note": 38,
        "velocity": 10,
        "time": 189341,
        "channel": 9
      },
      {
        "type": "note_off",
        "note": 42,
        "time": 189426,
        "channel": 9
      },
      {
        "type": "note_off",
        "note": 38,
        "time": 189438,
        "channel": 9
      },
      {
        "type": "note_on",
        "note": 38,
        "velocity": 80,
        "time": 189588,
        "channel": 9
      },
      {
        "type": "note_on",
        "note": 22,
        "velocity": 89,
        "time": 189590,
        "channel": 9
      },
      {
        "type": "note_on",
        "note": 36,
        "velocity": 57,
        "time": 189615,
        "channel": 9
      },
      {
        "type": "note_off",
        "note": 38,
        "time": 189685,
        "channel": 9
      },
      {
        "type": "note_off",
        "note": 22,
        "time": 189688,
        "channel": 9
      },
      {
        "type": "note_off",
        "note": 36,
        "time": 189712,
        "channel": 9
      },
      {
        "type": "note_on",
        "note": 38,
        "velocity": 41,
        "time": 189722,
        "channel": 9
      },
      {
        "type": "note_off",
        "note": 38,
        "time": 189819,
        "channel": 9
      },
      {
        "type": "note_on",
        "note": 42,
        "velocity": 46,
        "time": 189827,
        "channel": 9
      },
      {
        "type": "note_on",
        "note": 38,
        "velocity": 36,
        "time": 189831,
        "channel": 9
      },
      {
        "type": "note_off",
        "note": 42,
        "time": 189925,
        "channel": 9
      },
      {
        "type": "note_off",
        "note": 38,
        "time": 189927,
        "channel": 9
      },
      {
        "type": "note_on",
        "note": 38,
        "velocity": 28,
        "time": 189952,
        "channel": 9
      },
      {
        "type": "note_on",
        "note": 42,
        "velocity": 44,
        "time": 190045,
        "channel": 9
      },
      {
        "type": "note_off",
        "note": 38,
        "time": 190049,
        "channel": 9
      },
      {
        "type": "note_on",
        "note": 36,
        "velocity": 51,
        "time": 190065,
        "channel": 9
      },
      {
        "type": "note_off",
        "note": 42,
        "time": 190143,
        "channel": 9
      },
      {
        "type": "note_off",
        "note": 36,
        "time": 190162,
        "channel": 9
      },
      {
        "type": "note_on",
        "note": 22,
        "velocity": 61,
        "time": 190305,
        "channel": 9
      },
      {
        "type": "note_off",
        "note": 22,
        "time": 190402,
        "channel": 9
      },
      {
        "type": "note_on",
        "note": 42,
        "velocity": 60,
        "time": 190558,
        "channel": 9
      },
      {
        "type": "note_on",
        "note": 38,
        "velocity": 61,
        "time": 190560,
        "channel": 9
      },
      {
        "type": "note_on",
        "note": 36,
        "velocity": 54,
        "time": 190561,
        "channel": 9
      },
      {
        "type": "note_off",
        "note": 42,
        "time": 190655,
        "channel": 9
      },
      {
        "type": "note_off",
        "note": 36,
        "time": 190657,
        "channel": 9
      },
      {
        "type": "note_off",
        "note": 38,
        "time": 190657,
        "channel": 9
      },
      {
        "type": "note_on",
        "note": 42,
        "velocity": 37,
        "time": 190672,
        "channel": 9
      },
      {
        "type": "note_off",
        "note": 42,
        "time": 190768,
        "channel": 9
      },
      {
        "type": "note_on",
        "note": 42,
        "velocity": 47,
        "time": 190795,
        "channel": 9
      },
      {
        "type": "note_off",
        "note": 42,
        "time": 190892,
        "channel": 9
      },
      {
        "type": "note_on",
        "note": 38,
        "velocity": 72,
        "time": 190903,
        "channel": 9
      },
      {
        "type": "note_off",
        "note": 38,
        "time": 191000,
        "channel": 9
      },
      {
        "type": "note_on",
        "note": 42,
        "velocity": 32,
        "time": 191033,
        "channel": 9
      },
      {
        "type": "note_on",
        "note": 36,
        "velocity": 49,
        "time": 191057,
        "channel": 9
      },
      {
        "type": "note_off",
        "note": 42,
        "time": 191129,
        "channel": 9
      },
      {
        "type": "note_on",
        "note": 38,
        "velocity": 21,
        "time": 191132,
        "channel": 9
      },
      {
        "type": "note_off",
        "note": 36,
        "time": 191153,
        "channel": 9
      },
      {
        "type": "note_off",
        "note": 38,
        "time": 191228,
        "channel": 9
      },
      {
        "type": "note_on",
        "note": 26,
        "velocity": 95,
        "time": 191251,
        "channel": 9
      },
      {
        "type": "note_off",
        "note": 26,
        "time": 191348,
        "channel": 9
      },
      {
        "type": "note_on",
        "note": 38,
        "velocity": 15,
        "time": 191379,
        "channel": 9
      },
      {
        "type": "note_off",
        "note": 38,
        "time": 191476,
        "channel": 9
      },
      {
        "type": "note_on",
        "note": 38,
        "velocity": 45,
        "time": 191509,
        "channel": 9
      },
      {
        "type": "note_on",
        "note": 44,
        "velocity": 67,
        "time": 191516,
        "channel": 9
      },
      {
        "type": "note_on",
        "note": 36,
        "velocity": 52,
        "time": 191546,
        "channel": 9
      },
      {
        "type": "note_off",
        "note": 38,
        "time": 191607,
        "channel": 9
      },
      {
        "type": "note_off",
        "note": 44,
        "time": 191614,
        "channel": 9
      },
      {
        "type": "note_on",
        "note": 38,
        "velocity": 45,
        "time": 191619,
        "channel": 9
      },
      {
        "type": "note_off",
        "note": 36,
        "time": 191643,
        "channel": 9
      },
      {
        "type": "note_off",
        "note": 38,
        "time": 191715,
        "channel": 9
      },
      {
        "type": "note_on",
        "note": 38,
        "velocity": 84,
        "time": 191731,
        "channel": 9
      },
      {
        "type": "note_off",
        "note": 38,
        "time": 191828,
        "channel": 9
      },
      {
        "type": "note_on",
        "note": 37,
        "velocity": 89,
        "time": 191844,
        "channel": 9
      },
      {
        "type": "note_off",
        "note": 37,
        "time": 191941,
        "channel": 9
      },
      {
        "type": "note_on",
        "note": 42,
        "velocity": 33,
        "time": 191988,
        "channel": 9
      },
      {
        "type": "note_on",
        "note": 36,
        "velocity": 53,
        "time": 191989,
        "channel": 9
      },
      {
        "type": "note_off",
        "note": 36,
        "time": 192086,
        "channel": 9
      },
      {
        "type": "note_off",
        "note": 42,
        "time": 192086,
        "channel": 9
      },
      {
        "type": "note_on",
        "note": 38,
        "velocity": 16,
        "time": 192102,
        "channel": 9
      },
      {
        "type": "note_off",
        "note": 38,
        "time": 192199,
        "channel": 9
      },
      {
        "type": "note_on",
        "note": 26,
        "velocity": 93,
        "time": 192215,
        "channel": 9
      },
      {
        "type": "note_off",
        "note": 26,
        "time": 192312,
        "channel": 9
      },
      {
        "type": "note_on",
        "note": 44,
        "velocity": 32,
        "time": 192455,
        "channel": 9
      },
      {
        "type": "note_on",
        "note": 38,
        "velocity": 84,
        "time": 192464,
        "channel": 9
      },
      {
        "type": "note_on",
        "note": 42,
        "velocity": 46,
        "time": 192473,
        "channel": 9
      },
      {
        "type": "note_on",
        "note": 36,
        "velocity": 56,
        "time": 192481,
        "channel": 9
      },
      {
        "type": "note_off",
        "note": 44,
        "time": 192551,
        "channel": 9
      },
      {
        "type": "note_off",
        "note": 38,
        "time": 192562,
        "channel": 9
      },
      {
        "type": "note_off",
        "note": 42,
        "time": 192569,
        "channel": 9
      },
      {
        "type": "note_off",
        "note": 36,
        "time": 192578,
        "channel": 9
      },
      {
        "type": "note_on",
        "note": 38,
        "velocity": 19,
        "time": 192588,
        "channel": 9
      },
      {
        "type": "note_off",
        "note": 38,
        "time": 192684,
        "channel": 9
      },
      {
        "type": "note_on",
        "note": 42,
        "velocity": 56,
        "time": 192700,
        "channel": 9
      },
      {
        "type": "note_off",
        "note": 42,
        "time": 192798,
        "channel": 9
      },
      {
        "type": "note_on",
        "note": 38,
        "velocity": 32,
        "time": 192813,
        "channel": 9
      },
      {
        "type": "note_off",
        "note": 38,
        "time": 192909,
        "channel": 9
      },
      {
        "type": "note_on",
        "note": 42,
        "velocity": 28,
        "time": 192935,
        "channel": 9
      },
      {
        "type": "note_on",
        "note": 36,
        "velocity": 53,
        "time": 192952,
        "channel": 9
      },
      {
        "type": "note_off",
        "note": 42,
        "time": 193032,
        "channel": 9
      },
      {
        "type": "note_off",
        "note": 36,
        "time": 193048,
        "channel": 9
      },
      {
        "type": "note_on",
        "note": 38,
        "velocity": 22,
        "time": 193055,
        "channel": 9
      },
      {
        "type": "note_off",
        "note": 38,
        "time": 193151,
        "channel": 9
      },
      {
        "type": "note_on",
        "note": 42,
        "velocity": 68,
        "time": 193155,
        "channel": 9
      },
      {
        "type": "note_on",
        "note": 38,
        "velocity": 24,
        "time": 193164,
        "channel": 9
      },
      {
        "type": "note_off",
        "note": 42,
        "time": 193252,
        "channel": 9
      },
      {
        "type": "note_off",
        "note": 38,
        "time": 193261,
        "channel": 9
      },
      {
        "type": "note_on",
        "note": 38,
        "velocity": 87,
        "time": 193425,
        "channel": 9
      },
      {
        "type": "note_on",
        "note": 42,
        "velocity": 67,
        "time": 193429,
        "channel": 9
      },
      {
        "type": "note_on",
        "note": 36,
        "velocity": 54,
        "time": 193457,
        "channel": 9
      },
      {
        "type": "note_off",
        "note": 38,
        "time": 193522,
        "channel": 9
      },
      {
        "type": "note_off",
        "note": 42,
        "time": 193525,
        "channel": 9
      },
      {
        "type": "note_off",
        "note": 36,
        "time": 193553,
        "channel": 9
      },
      {
        "type": "note_on",
        "note": 38,
        "velocity": 41,
        "time": 193559,
        "channel": 9
      },
      {
        "type": "note_off",
        "note": 38,
        "time": 193656,
        "channel": 9
      },
      {
        "type": "note_on",
        "note": 42,
        "velocity": 40,
        "time": 193662,
        "channel": 9
      },
      {
        "type": "note_on",
        "note": 38,
        "velocity": 35,
        "time": 193676,
        "channel": 9
      },
      {
        "type": "note_off",
        "note": 42,
        "time": 193760,
        "channel": 9
      },
      {
        "type": "note_off",
        "note": 38,
        "time": 193773,
        "channel": 9
      },
      {
        "type": "note_on",
        "note": 38,
        "velocity": 30,
        "time": 193798,
        "channel": 9
      },
      {
        "type": "note_off",
        "note": 38,
        "time": 193895,
        "channel": 9
      },
      {
        "type": "note_on",
        "note": 22,
        "velocity": 47,
        "time": 193900,
        "channel": 9
      },
      {
        "type": "note_on",
        "note": 36,
        "velocity": 51,
        "time": 193916,
        "channel": 9
      },
      {
        "type": "note_off",
        "note": 22,
        "time": 193997,
        "channel": 9
      },
      {
        "type": "note_off",
        "note": 36,
        "time": 194012,
        "channel": 9
      },
      {
        "type": "note_on",
        "note": 38,
        "velocity": 7,
        "time": 194015,
        "channel": 9
      },
      {
        "type": "note_off",
        "note": 38,
        "time": 194111,
        "channel": 9
      },
      {
        "type": "note_on",
        "note": 42,
        "velocity": 65,
        "time": 194136,
        "channel": 9
      },
      {
        "type": "note_off",
        "note": 42,
        "time": 194233,
        "channel": 9
      },
      {
        "type": "note_on",
        "note": 22,
        "velocity": 40,
        "time": 194253,
        "channel": 9
      },
      {
        "type": "note_off",
        "note": 22,
        "time": 194350,
        "channel": 9
      },
      {
        "type": "note_on",
        "note": 42,
        "velocity": 52,
        "time": 194369,
        "channel": 9
      },
      {
        "type": "note_on",
        "note": 36,
        "velocity": 50,
        "time": 194382,
        "channel": 9
      },
      {
        "type": "note_on",
        "note": 38,
        "velocity": 69,
        "time": 194385,
        "channel": 9
      },
      {
        "type": "note_off",
        "note": 42,
        "time": 194466,
        "channel": 9
      },
      {
        "type": "note_off",
        "note": 36,
        "time": 194479,
        "channel": 9
      },
      {
        "type": "note_off",
        "note": 38,
        "time": 194482,
        "channel": 9
      },
      {
        "type": "note_on",
        "note": 38,
        "velocity": 22,
        "time": 194511,
        "channel": 9
      },
      {
        "type": "note_on",
        "note": 42,
        "velocity": 53,
        "time": 194605,
        "channel": 9
      },
      {
        "type": "note_off",
        "note": 38,
        "time": 194607,
        "channel": 9
      },
      {
        "type": "note_off",
        "note": 42,
        "time": 194702,
        "channel": 9
      },
      {
        "type": "note_on",
        "note": 38,
        "velocity": 64,
        "time": 194725,
        "channel": 9
      },
      {
        "type": "note_off",
        "note": 38,
        "time": 194821,
        "channel": 9
      },
      {
        "type": "note_on",
        "note": 22,
        "velocity": 36,
        "time": 194851,
        "channel": 9
      },
      {
        "type": "note_on",
        "note": 36,
        "velocity": 49,
        "time": 194859,
        "channel": 9
      },
      {
        "type": "note_off",
        "note": 22,
        "time": 194948,
        "channel": 9
      },
      {
        "type": "note_off",
        "note": 36,
        "time": 194956,
        "channel": 9
      },
      {
        "type": "note_on",
        "note": 26,
        "velocity": 97,
        "time": 195066,
        "channel": 9
      },
      {
        "type": "note_off",
        "note": 26,
        "time": 195163,
        "channel": 9
      },
      {
        "type": "note_on",
        "note": 44,
        "velocity": 35,
        "time": 195304,
        "channel": 9
      },
      {
        "type": "note_on",
        "note": 38,
        "velocity": 84,
        "time": 195317,
        "channel": 9
      },
      {
        "type": "note_on",
        "note": 42,
        "velocity": 64,
        "time": 195322,
        "channel": 9
      },
      {
        "type": "note_on",
        "note": 36,
        "velocity": 56,
        "time": 195335,
        "channel": 9
      },
      {
        "type": "note_off",
        "note": 44,
        "time": 195401,
        "channel": 9
      },
      {
        "type": "note_off",
        "note": 38,
        "time": 195414,
        "channel": 9
      },
      {
        "type": "note_off",
        "note": 42,
        "time": 195419,
        "channel": 9
      },
      {
        "type": "note_off",
        "note": 36,
        "time": 195432,
        "channel": 9
      },
      {
        "type": "note_on",
        "note": 38,
        "velocity": 44,
        "time": 195455,
        "channel": 9
      },
      {
        "type": "note_off",
        "note": 38,
        "time": 195552,
        "channel": 9
      },
      {
        "type": "note_on",
        "note": 38,
        "velocity": 34,
        "time": 195553,
        "channel": 9
      },
      {
        "type": "note_on",
        "note": 42,
        "velocity": 34,
        "time": 195568,
        "channel": 9
      },
      {
        "type": "note_off",
        "note": 38,
        "time": 195650,
        "channel": 9
      },
      {
        "type": "note_off",
        "note": 42,
        "time": 195664,
        "channel": 9
      },
      {
        "type": "note_on",
        "note": 38,
        "velocity": 39,
        "time": 195680,
        "channel": 9
      },
      {
        "type": "note_off",
        "note": 38,
        "time": 195778,
        "channel": 9
      },
      {
        "type": "note_on",
        "note": 22,
        "velocity": 63,
        "time": 195796,
        "channel": 9
      },
      {
        "type": "note_on",
        "note": 36,
        "velocity": 50,
        "time": 195810,
        "channel": 9
      },
      {
        "type": "note_off",
        "note": 22,
        "time": 195893,
        "channel": 9
      },
      {
        "type": "note_off",
        "note": 36,
        "time": 195907,
        "channel": 9
      },
      {
        "type": "note_on",
        "note": 22,
        "velocity": 76,
        "time": 196047,
        "channel": 9
      },
      {
        "type": "note_off",
        "note": 22,
        "time": 196144,
        "channel": 9
      },
      {
        "type": "note_on",
        "note": 38,
        "velocity": 74,
        "time": 196299,
        "channel": 9
      },
      {
        "type": "note_on",
        "note": 36,
        "velocity": 53,
        "time": 196304,
        "channel": 9
      },
      {
        "type": "note_on",
        "note": 42,
        "velocity": 56,
        "time": 196308,
        "channel": 9
      },
      {
        "type": "note_off",
        "note": 38,
        "time": 196396,
        "channel": 9
      },
      {
        "type": "note_off",
        "note": 36,
        "time": 196401,
        "channel": 9
      },
      {
        "type": "note_off",
        "note": 42,
        "time": 196405,
        "channel": 9
      },
      {
        "type": "note_on",
        "note": 42,
        "velocity": 32,
        "time": 196424,
        "channel": 9
      },
      {
        "type": "note_off",
        "note": 42,
        "time": 196521,
        "channel": 9
      },
      {
        "type": "note_on",
        "note": 42,
        "velocity": 47,
        "time": 196538,
        "channel": 9
      },
      {
        "type": "note_off",
        "note": 42,
        "time": 196635,
        "channel": 9
      },
      {
        "type": "note_on",
        "note": 38,
        "velocity": 76,
        "time": 196655,
        "channel": 9
      },
      {
        "type": "note_off",
        "note": 38,
        "time": 196752,
        "channel": 9
      },
      {
        "type": "note_on",
        "note": 42,
        "velocity": 29,
        "time": 196778,
        "channel": 9
      },
      {
        "type": "note_on",
        "note": 36,
        "velocity": 49,
        "time": 196800,
        "channel": 9
      },
      {
        "type": "note_off",
        "note": 42,
        "time": 196875,
        "channel": 9
      },
      {
        "type": "note_on",
        "note": 38,
        "velocity": 24,
        "time": 196877,
        "channel": 9
      },
      {
        "type": "note_off",
        "note": 36,
        "time": 196896,
        "channel": 9
      },
      {
        "type": "note_off",
        "note": 38,
        "time": 196974,
        "channel": 9
      },
      {
        "type": "note_on",
        "note": 26,
        "velocity": 100,
        "time": 197006,
        "channel": 9
      },
      {
        "type": "note_off",
        "note": 26,
        "time": 197103,
        "channel": 9
      },
      {
        "type": "note_on",
        "note": 44,
        "velocity": 35,
        "time": 197252,
        "channel": 9
      },
      {
        "type": "note_on",
        "note": 38,
        "velocity": 79,
        "time": 197260,
        "channel": 9
      },
      {
        "type": "note_on",
        "note": 42,
        "velocity": 58,
        "time": 197269,
        "channel": 9
      },
      {
        "type": "note_on",
        "note": 36,
        "velocity": 53,
        "time": 197285,
        "channel": 9
      },
      {
        "type": "note_off",
        "note": 44,
        "time": 197349,
        "channel": 9
      },
      {
        "type": "note_off",
        "note": 38,
        "time": 197357,
        "channel": 9
      },
      {
        "type": "note_off",
        "note": 42,
        "time": 197365,
        "channel": 9
      },
      {
        "type": "note_off",
        "note": 36,
        "time": 197382,
        "channel": 9
      },
      {
        "type": "note_on",
        "note": 38,
        "velocity": 45,
        "time": 197392,
        "channel": 9
      },
      {
        "type": "note_off",
        "note": 38,
        "time": 197488,
        "channel": 9
      },
      {
        "type": "note_on",
        "note": 42,
        "velocity": 39,
        "time": 197499,
        "channel": 9
      },
      {
        "type": "note_on",
        "note": 38,
        "velocity": 35,
        "time": 197513,
        "channel": 9
      },
      {
        "type": "note_off",
        "note": 42,
        "time": 197597,
        "channel": 9
      },
      {
        "type": "note_off",
        "note": 38,
        "time": 197610,
        "channel": 9
      },
      {
        "type": "note_on",
        "note": 38,
        "velocity": 22,
        "time": 197635,
        "channel": 9
      },
      {
        "type": "note_off",
        "note": 38,
        "time": 197732,
        "channel": 9
      },
      {
        "type": "note_on",
        "note": 36,
        "velocity": 49,
        "time": 197739,
        "channel": 9
      },
      {
        "type": "note_on",
        "note": 42,
        "velocity": 47,
        "time": 197742,
        "channel": 9
      },
      {
        "type": "note_off",
        "note": 36,
        "time": 197836,
        "channel": 9
      },
      {
        "type": "note_off",
        "note": 42,
        "time": 197840,
        "channel": 9
      },
      {
        "type": "note_on",
        "note": 38,
        "velocity": 24,
        "time": 197865,
        "channel": 9
      },
      {
        "type": "note_off",
        "note": 38,
        "time": 197962,
        "channel": 9
      },
      {
        "type": "note_on",
        "note": 22,
        "velocity": 86,
        "time": 197971,
        "channel": 9
      },
      {
        "type": "note_off",
        "note": 22,
        "time": 198068,
        "channel": 9
      },
      {
        "type": "note_on",
        "note": 38,
        "velocity": 21,
        "time": 198113,
        "channel": 9
      },
      {
        "type": "note_off",
        "note": 38,
        "time": 198209,
        "channel": 9
      },
      {
        "type": "note_on",
        "note": 38,
        "velocity": 31,
        "time": 198219,
        "channel": 9
      },
      {
        "type": "note_on",
        "note": 36,
        "velocity": 49,
        "time": 198233,
        "channel": 9
      },
      {
        "type": "note_off",
        "note": 38,
        "time": 198316,
        "channel": 9
      },
      {
        "type": "note_off",
        "note": 36,
        "time": 198330,
        "channel": 9
      },
      {
        "type": "note_on",
        "note": 38,
        "velocity": 58,
        "time": 198457,
        "channel": 9
      },
      {
        "type": "note_off",
        "note": 38,
        "time": 198554,
        "channel": 9
      },
      {
        "type": "note_on",
        "note": 38,
        "velocity": 70,
        "time": 198590,
        "channel": 9
      },
      {
        "type": "note_off",
        "note": 38,
        "time": 198686,
        "channel": 9
      },
      {
        "type": "note_on",
        "note": 36,
        "velocity": 44,
        "time": 198705,
        "channel": 9
      },
      {
        "type": "note_on",
        "note": 48,
        "velocity": 65,
        "time": 198709,
        "channel": 9
      },
      {
        "type": "note_off",
        "note": 36,
        "time": 198803,
        "channel": 9
      },
      {
        "type": "note_off",
        "note": 48,
        "time": 198807,
        "channel": 9
      },
      {
        "type": "note_on",
        "note": 48,
        "velocity": 95,
        "time": 198825,
        "channel": 9
      },
      {
        "type": "note_off",
        "note": 48,
        "time": 198922,
        "channel": 9
      },
      {
        "type": "note_on",
        "note": 48,
        "velocity": 72,
        "time": 198946,
        "channel": 9
      },
      {
        "type": "note_off",
        "note": 48,
        "time": 199043,
        "channel": 9
      },
      {
        "type": "note_on",
        "note": 36,
        "velocity": 53,
        "time": 199052,
        "channel": 9
      },
      {
        "type": "note_off",
        "note": 36,
        "time": 199149,
        "channel": 9
      },
      {
        "type": "note_on",
        "note": 43,
        "velocity": 127,
        "time": 199173,
        "channel": 9
      },
      {
        "type": "note_off",
        "note": 43,
        "time": 199270,
        "channel": 9
      }
    ]
  },
  {
    "file": "data\\groove\\drummer1\\session1\\102_funk_95_beat_4-4.mid",
    "num_events": 4161,
    "duration": 202921,
    "events": [
      {
        "type": "set_tempo",
        "tempo": 631578,
        "time": 0
      },
      {
        "type": "note_on",
        "note": 44,
        "velocity": 22,
        "time": 1165,
        "channel": 9
      },
      {
        "type": "note_off",
        "note": 44,
        "time": 1242,
        "channel": 9
      },
      {
        "type": "note_on",
        "note": 38,
        "velocity": 84,
        "time": 1304,
        "channel": 9
      },
      {
        "type": "note_off",
        "note": 38,
        "time": 1381,
        "channel": 9
      },
      {
        "type": "note_on",
        "note": 40,
        "velocity": 115,
        "time": 1428,
        "channel": 9
      },
      {
        "type": "note_off",
        "note": 40,
        "time": 1505,
        "channel": 9
      },
      {
        "type": "note_on",
        "note": 44,
        "velocity": 87,
        "time": 1644,
        "channel": 9
      },
      {
        "type": "note_off",
        "note": 44,
        "time": 1721,
        "channel": 9
      },
      {
        "type": "note_on",
        "note": 38,
        "velocity": 20,
        "time": 1777,
        "channel": 9
      },
      {
        "type": "note_off",
        "note": 38,
        "time": 1809,
        "channel": 9
      },
      {
        "type": "note_on",
        "note": 38,
        "velocity": 23,
        "time": 1809,
        "channel": 9
      },
      {
        "type": "note_off",
        "note": 38,
        "time": 1836,
        "channel": 9
      },
      {
        "type": "note_on",
        "note": 38,
        "velocity": 16,
        "time": 1836,
        "channel": 9
      },
      {
        "type": "note_off",
        "note": 38,
        "time": 1854,
        "channel": 9
      },
      {
        "type": "note_on",
        "note": 36,
        "velocity": 59,
        "time": 1899,
        "channel": 9
      },
      {
        "type": "note_on",
        "note": 22,
        "velocity": 91,
        "time": 1904,
        "channel": 9
      },
      {
        "type": "note_off",
        "note": 36,
        "time": 1975,
        "channel": 9
      },
      {
        "type": "note_off",
        "note": 22,
        "time": 1982,
        "channel": 9
      },
      {
        "type": "note_on",
        "note": 38,
        "velocity": 21,
        "time": 2010,
        "channel": 9
      },
      {
        "type": "note_off",
        "note": 38,
        "time": 2087,
        "channel": 9
      },
      {
        "type": "note_on",
        "note": 42,
        "velocity": 38,
        "time": 2134,
        "channel": 9
      },
      {
        "type": "note_on",
        "note": 38,
        "velocity": 22,
        "time": 2140,
        "channel": 9
      },
      {
        "type": "note_off",
        "note": 42,
        "time": 2211,
        "channel": 9
      },
      {
        "type": "note_off",
        "note": 38,
        "time": 2217,
        "channel": 9
      },
      {
        "type": "note_on",
        "note": 36,
        "velocity": 50,
        "time": 2257,
        "channel": 9
      },
      {
        "type": "note_on",
        "note": 42,
        "velocity": 20,
        "time": 2257,
        "channel": 9
      },
      {
        "type": "note_off",
        "note": 36,
        "time": 2334,
        "channel": 9
      },
      {
        "type": "note_off",
        "note": 42,
        "time": 2334,
        "channel": 9
      },
      {
        "type": "note_on",
        "note": 22,
        "velocity": 84,
        "time": 2374,
        "channel": 9
      },
      {
        "type": "note_off",
        "note": 22,
        "time": 2450,
        "channel": 9
      },
      {
        "type": "note_on",
        "note": 40,
        "velocity": 102,
        "time": 2507,
        "channel": 9
      },
      {
        "type": "note_off",
        "note": 40,
        "time": 2584,
        "channel": 9
      },
      {
        "type": "note_on",
        "note": 42,
        "velocity": 43,
        "time": 2621,
        "channel": 9
      },
      {
        "type": "note_off",
        "note": 42,
        "time": 2698,
        "channel": 9
      },
      {
        "type": "note_on",
        "note": 42,
        "velocity": 25,
        "time": 2752,
        "channel": 9
      },
      {
        "type": "note_off",
        "note": 42,
        "time": 2829,
        "channel": 9
      },
      {
        "type": "note_on",
        "note": 22,
        "velocity": 96,
        "time": 2864,
        "channel": 9
      },
      {
        "type": "note_off",
        "note": 22,
        "time": 2941,
        "channel": 9
      },
      {
        "type": "note_on",
        "note": 38,
        "velocity": 12,
        "time": 2999,
        "channel": 9
      },
      {
        "type": "note_off",
        "note": 38,
        "time": 3076,
        "channel": 9
      },
      {
        "type": "note_on",
        "note": 42,
        "velocity": 29,
        "time": 3110,
        "channel": 9
      },
      {
        "type": "note_on",
        "note": 38,
        "velocity": 21,
        "time": 3116,
        "channel": 9
      },
      {
        "type": "note_on",
        "note": 36,
        "velocity": 27,
        "time": 3120,
        "channel": 9
      },
      {
        "type": "note_off",
        "note": 42,
        "time": 3188,
        "channel": 9
      },
      {
        "type": "note_off",
        "note": 38,
        "time": 3192,
        "channel": 9
      },
      {
        "type": "note_off",
        "note": 36,
        "time": 3197,
        "channel": 9
      },
      {
        "type": "note_on",
        "note": 36,
        "velocity": 36,
        "time": 3231,
        "channel": 9
      },
      {
        "type": "note_on",
        "note": 42,
        "velocity": 25,
        "time": 3238,
        "channel": 9
      },
      {
        "type": "note_off",
        "note": 36,
        "time": 3308,
        "channel": 9
      },
      {
        "type": "note_off",
        "note": 42,
        "time": 3314,
        "channel": 9
      },
      {
        "type": "note_on",
        "note": 37,
        "velocity": 81,
        "time": 3362,
        "channel": 9
      },
      {
        "type": "note_on",
        "note": 26,
        "velocity": 98,
        "time": 3364,
        "channel": 9
      },
      {
        "type": "note_on",
        "note": 38,
        "velocity": 26,
        "time": 3425,
        "channel": 9
      },
      {
        "type": "note_off",
        "note": 37,
        "time": 3439,
        "channel": 9
      },
      {
        "type": "note_off",
        "note": 26,
        "time": 3441,
        "channel": 9
      },
      {
        "type": "note_off",
        "note": 38,
        "time": 3501,
        "channel": 9
      },
      {
        "type": "note_on",
        "note": 38,
        "velocity": 17,
        "time": 3508,
        "channel": 9
      },
      {
        "type": "note_off",
        "note": 38,
        "time": 3533,
        "channel": 9
      },
      {
        "type": "note_on",
        "note": 38,
        "velocity": 12,
        "time": 3533,
        "channel": 9
      },
      {
        "type": "note_off",
        "note": 38,
        "time": 3584,
        "channel": 9
      },
      {
        "type": "note_on",
        "note": 44,
        "velocity": 42,
        "time": 3588,
        "channel": 9
      },
      {
        "type": "note_on",
        "note": 42,
        "velocity": 41,
        "time": 3605,
        "channel": 9
      },
      {
        "type": "note_off",
        "note": 44,
        "time": 3664,
        "channel": 9
      },
      {
        "type": "note_off",
        "note": 42,
        "time": 3682,
        "channel": 9
      },
      {
        "type": "note_on",
        "note": 42,
        "velocity": 21,
        "time": 3719,
        "channel": 9
      },
      {
        "type": "note_off",
        "note": 42,
        "time": 3796,
        "channel": 9
      },
      {
        "type": "note_on",
        "note": 36,
        "velocity": 50,
        "time": 3819,
        "channel": 9
      },
      {
        "type": "note_on",
        "note": 22,
        "velocity": 86,
        "time": 3835,
        "channel": 9
      },
      {
        "type": "note_off",
        "note": 36,
        "time": 3895,
        "channel": 9
      },
      {
        "type": "note_off",
        "note": 22,
        "time": 3913,
        "channel": 9
      },
      {
        "type": "note_on",
        "note": 38,
        "velocity": 16,
        "time": 3950,
        "channel": 9
      },
      {
        "type": "note_off",
        "note": 38,
        "time": 4027,
        "channel": 9
      },
      {
        "type": "note_on",
        "note": 38,
        "velocity": 7,
        "time": 4049,
        "channel": 9
      },
      {
        "type": "note_on",
        "note": 42,
        "velocity": 34,
        "time": 4064,
        "channel": 9
      },
      {
        "type": "note_off",
        "note": 38,
        "time": 4125,
        "channel": 9
      },
      {
        "type": "note_off",
        "note": 42,
        "time": 4141,
        "channel": 9
      },
      {
        "type": "note_on",
        "note": 42,
        "velocity": 27,
        "time": 4179,
        "channel": 9
      },
      {
        "type": "note_on",
        "note": 36,
        "velocity": 58,
        "time": 4183,
        "channel": 9
      },
      {
        "type": "note_off",
        "note": 42,
        "time": 4256,
        "channel": 9
      },
      {
        "type": "note_off",
        "note": 36,
        "time": 4260,
        "channel": 9
      },
      {
        "type": "note_on",
        "note": 22,
        "velocity": 67,
        "time": 4307,
        "channel": 9
      },
      {
        "type": "note_off",
        "note": 22,
        "time": 4384,
        "channel": 9
      },
      {
        "type": "note_on",
        "note": 37,
        "velocity": 90,
        "time": 4430,
        "channel": 9
      },
      {
        "type": "note_off",
        "note": 37,
        "time": 4506,
        "channel": 9
      },
      {
        "type": "note_on",
        "note": 42,
        "velocity": 32,
        "time": 4545,
        "channel": 9
      },
      {
        "type": "note_off",
        "note": 42,
        "time": 4622,
        "channel": 9
      },
      {
        "type": "note_on",
        "note": 22,
        "velocity": 24,
        "time": 4662,
        "channel": 9
      },
      {
        "type": "note_off",
        "note": 22,
        "time": 4739,
        "channel": 9
      },
      {
        "type": "note_on",
        "note": 26,
        "velocity": 79,
        "time": 4775,
        "channel": 9
      },
      {
        "type": "note_off",
        "note": 26,
        "time": 4852,
        "channel": 9
      },
      {
        "type": "note_on",
        "note": 38,
        "velocity": 8,
        "time": 4901,
        "channel": 9
      },
      {
        "type": "note_off",
        "note": 38,
        "time": 4931,
        "channel": 9
      },
      {
        "type": "note_on",
        "note": 38,
        "velocity": 7,
        "time": 4931,
        "channel": 9
      },
      {
        "type": "note_off",
        "note": 38,
        "time": 4977,
        "channel": 9
      },
      {
        "type": "note_on",
        "note": 44,
        "velocity": 60,
        "time": 5017,
        "channel": 9
      },
      {
        "type": "note_on",
        "note": 42,
        "velocity": 34,
        "time": 5030,
        "channel": 9
      },
      {
        "type": "note_off",
        "note": 44,
        "time": 5094,
        "channel": 9
      },
      {
        "type": "note_off",
        "note": 42,
        "time": 5107,
        "channel": 9
      },
      {
        "type": "note_on",
        "note": 42,
        "velocity": 25,
        "time": 5147,
        "channel": 9
      },
      {
        "type": "note_off",
        "note": 42,
        "time": 5224,
        "channel": 9
      },
      {
        "type": "note_on",
        "note": 26,
        "velocity": 90,
        "time": 5272,
        "channel": 9
      },
      {
        "type": "note_off",
        "note": 26,
        "time": 5349,
        "channel": 9
      },
      {
        "type": "note_on",
        "note": 44,
        "velocity": 70,
        "time": 5504,
        "channel": 9
      },
      {
        "type": "note_on",
        "note": 42,
        "velocity": 34,
        "time": 5527,
        "channel": 9
      },
      {
        "type": "note_on",
        "note": 38,
        "velocity": 11,
        "time": 5574,
        "channel": 9
      },
      {
        "type": "note_off",
        "note": 44,
        "time": 5581,
        "channel": 9
      },
      {
        "type": "note_off",
        "note": 42,
        "time": 5604,
        "channel": 9
      },
      {
        "type": "note_on",
        "note": 42,
        "velocity": 24,
        "time": 5638,
        "channel": 9
      },
      {
        "type": "note_off",
        "note": 38,
        "time": 5651,
        "channel": 9
      },
      {
        "type": "note_off",
        "note": 42,
        "time": 5715,
        "channel": 9
      },
      {
        "type": "note_on",
        "note": 36,
        "velocity": 53,
        "time": 5740,
        "channel": 9
      },
      {
        "type": "note_on",
        "note": 22,
        "velocity": 77,
        "time": 5749,
        "channel": 9
      },
      {
        "type": "note_off",
        "note": 36,
        "time": 5816,
        "channel": 9
      },
      {
        "type": "note_off",
        "note": 22,
        "time": 5826,
        "channel": 9
      },
      {
        "type": "note_on",
        "note": 38,
        "velocity": 13,
        "time": 5868,
        "channel": 9
      },
      {
        "type": "note_off",
        "note": 38,
        "time": 5945,
        "channel": 9
      },
      {
        "type": "note_on",
        "note": 38,
        "velocity": 11,
        "time": 5980,
        "channel": 9
      },
      {
        "type": "note_on",
        "note": 42,
        "velocity": 25,
        "time": 5991,
        "channel": 9
      },
      {
        "type": "note_off",
        "note": 38,
        "time": 6057,
        "channel": 9
      },
      {
        "type": "note_off",
        "note": 42,
        "time": 6069,
        "channel": 9
      },
      {
        "type": "note_on",
        "note": 36,
        "velocity": 55,
        "time": 6099,
        "channel": 9
      },
      {
        "type": "note_on",
        "note": 42,
        "velocity": 21,
        "time": 6109,
        "channel": 9
      },
      {
        "type": "note_off",
        "note": 36,
        "time": 6176,
        "channel": 9
      },
      {
        "type": "note_off",
        "note": 42,
        "time": 6186,
        "channel": 9
      },
      {
        "type": "note_on",
        "note": 22,
        "velocity": 49,
        "time": 6237,
        "channel": 9
      },
      {
        "type": "note_off",
        "note": 22,
        "time": 6314,
        "channel": 9
      },
      {
        "type": "note_on",
        "note": 38,
        "velocity": 93,
        "time": 6351,
        "channel": 9
      },
      {
        "type": "note_off",
        "note": 38,
        "time": 6427,
        "channel": 9
      },
      {
        "type": "note_on",
        "note": 42,
        "velocity": 28,
        "time": 6483,
        "channel": 9
      },
      {
        "type": "note_off",
        "note": 42,
        "time": 6560,
        "channel": 9
      },
      {
        "type": "note_on",
        "note": 42,
        "velocity": 21,
        "time": 6595,
        "channel": 9
      },
      {
        "type": "note_off",
        "note": 42,
        "time": 6672,
        "channel": 9
      },
      {
        "type": "note_on",
        "note": 26,
        "velocity": 77,
        "time": 6723,
        "channel": 9
      },
      {
        "type": "note_off",
        "note": 26,
        "time": 6800,
        "channel": 9
      },
      {
        "type": "note_on",
        "note": 38,
        "velocity": 6,
        "time": 6869,
        "channel": 9
      },
      {
        "type": "note_off",
        "note": 38,
        "time": 6895,
        "channel": 9
      },
      {
        "type": "note_on",
        "note": 38,
        "velocity": 7,
        "time": 6895,
        "channel": 9
      },
      {
        "type": "note_off",
        "note": 38,
        "time": 6945,
        "channel": 9
      },
      {
        "type": "note_on",
        "note": 44,
        "velocity": 67,
        "time": 6970,
        "channel": 9
      },
      {
        "type": "note_on",
        "note": 42,
        "velocity": 28,
        "time": 6982,
        "channel": 9
      },
      {
        "type": "note_off",
        "note": 44,
        "time": 7047,
        "channel": 9
      },
      {
        "type": "note_off",
        "note": 42,
        "time": 7058,
        "channel": 9
      },
      {
        "type": "note_on",
        "note": 42,
        "velocity": 25,
        "time": 7087,
        "channel": 9
      },
      {
        "type": "note_off",
        "note": 42,
        "time": 7164,
        "channel": 9
      },
      {
        "type": "note_on",
        "note": 22,
        "velocity": 89,
        "time": 7207,
        "channel": 9
      },
      {
        "type": "note_off",
        "note": 22,
        "time": 7285,
        "channel": 9
      },
      {
        "type": "note_on",
        "note": 42,
        "velocity": 34,
        "time": 7431,
        "channel": 9
      },
      {
        "type": "note_off",
        "note": 42,
        "time": 7507,
        "channel": 9
      },
      {
        "type": "note_on",
        "note": 42,
        "velocity": 27,
        "time": 7552,
        "channel": 9
      },
      {
        "type": "note_off",
        "note": 42,
        "time": 7629,
        "channel": 9
      },
      {
        "type": "note_on",
        "note": 36,
        "velocity": 53,
        "time": 7668,
        "channel": 9
      },
      {
        "type": "note_on",
        "note": 22,
        "velocity": 72,
        "time": 7670,
        "channel": 9
      },
      {
        "type": "note_off",
        "note": 36,
        "time": 7745,
        "channel": 9
      },
      {
        "type": "note_off",
        "note": 22,
        "time": 7748,
        "channel": 9
      },
      {
        "type": "note_on",
        "note": 38,
        "velocity": 15,
        "time": 7784,
        "channel": 9
      },
      {
        "type": "note_off",
        "note": 38,
        "time": 7861,
        "channel": 9
      },
      {
        "type": "note_on",
        "note": 38,
        "velocity": 16,
        "time": 7891,
        "channel": 9
      },
      {
        "type": "note_on",
        "note": 42,
        "velocity": 24,
        "time": 7901,
        "channel": 9
      },
      {
        "type": "note_off",
        "note": 38,
        "time": 7967,
        "channel": 9
      },
      {
        "type": "note_off",
        "note": 42,
        "time": 7979,
        "channel": 9
      },
      {
        "type": "note_on",
        "note": 36,
        "velocity": 51,
        "time": 8018,
        "channel": 9
      },
      {
        "type": "note_on",
        "note": 42,
        "velocity": 25,
        "time": 8019,
        "channel": 9
      },
      {
        "type": "note_off",
        "note": 36,
        "time": 8095,
        "channel": 9
      },
      {
        "type": "note_off",
        "note": 42,
        "time": 8096,
        "channel": 9
      },
      {
        "type": "note_on",
        "note": 22,
        "velocity": 61,
        "time": 8147,
        "channel": 9
      },
      {
        "type": "note_off",
        "note": 22,
        "time": 8224,
        "channel": 9
      },
      {
        "type": "note_on",
        "note": 37,
        "velocity": 79,
        "time": 8272,
        "channel": 9
      },
      {
        "type": "note_off",
        "note": 37,
        "time": 8349,
        "channel": 9
      },
      {
        "type": "note_on",
        "note": 42,
        "velocity": 36,
        "time": 8386,
        "channel": 9
      },
      {
        "type": "note_off",
        "note": 42,
        "time": 8464,
        "channel": 9
      },
      {
        "type": "note_on",
        "note": 42,
        "velocity": 23,
        "time": 8512,
        "channel": 9
      },
      {
        "type": "note_off",
        "note": 42,
        "time": 8589,
        "channel": 9
      },
      {
        "type": "note_on",
        "note": 36,
        "velocity": 44,
        "time": 8618,
        "channel": 9
      },
      {
        "type": "note_on",
        "note": 22,
        "velocity": 93,
        "time": 8625,
        "channel": 9
      },
      {
        "type": "note_off",
        "note": 36,
        "time": 8695,
        "channel": 9
      },
      {
        "type": "note_off",
        "note": 22,
        "time": 8702,
        "channel": 9
      },
      {
        "type": "note_on",
        "note": 38,
        "velocity": 8,
        "time": 8739,
        "channel": 9
      },
      {
        "type": "note_off",
        "note": 38,
        "time": 8816,
        "channel": 9
      },
      {
        "type": "note_on",
        "note": 26,
        "velocity": 60,
        "time": 8851,
        "channel": 9
      },
      {
        "type": "note_off",
        "note": 26,
        "time": 8927,
        "channel": 9
      },
      {
        "type": "note_on",
        "note": 38,
        "velocity": 89,
        "time": 8980,
        "channel": 9
      },
      {
        "type": "note_off",
        "note": 38,
        "time": 9057,
        "channel": 9
      },
      {
        "type": "note_on",
        "note": 44,
        "velocity": 32,
        "time": 9070,
        "channel": 9
      },
      {
        "type": "note_on",
        "note": 38,
        "velocity": 115,
        "time": 9117,
        "channel": 9
      },
      {
        "type": "note_off",
        "note": 44,
        "time": 9147,
        "channel": 9
      },
      {
        "type": "note_off",
        "note": 38,
        "time": 9193,
        "channel": 9
      },
      {
        "type": "note_on",
        "note": 38,
        "velocity": 92,
        "time": 9341,
        "channel": 9
      },
      {
        "type": "note_on",
        "note": 44,
        "velocity": 100,
        "time": 9344,
        "channel": 9
      },
      {
        "type": "note_off",
        "note": 38,
        "time": 9417,
        "channel": 9
      },
      {
        "type": "note_off",
        "note": 44,
        "time": 9421,
        "channel": 9
      },
      {
        "type": "note_on",
        "note": 38,
        "velocity": 79,
        "time": 9463,
        "channel": 9
      },
      {
        "type": "note_off",
        "note": 38,
        "time": 9540,
        "channel": 9
      },
      {
        "type": "note_on",
        "note": 36,
        "velocity": 53,
        "time": 9590,
        "channel": 9
      },
      {
        "type": "note_on",
        "note": 42,
        "velocity": 34,
        "time": 9595,
        "channel": 9
      },
      {
        "type": "note_off",
        "note": 36,
        "time": 9667,
        "channel": 9
      },
      {
        "type": "note_off",
        "note": 42,
        "time": 9672,
        "channel": 9
      },
      {
        "type": "note_on",
        "note": 38,
        "velocity": 21,
        "time": 9700,
        "channel": 9
      },
      {
        "type": "note_off",
        "note": 38,
        "time": 9778,
        "channel": 9
      },
      {
        "type": "note_on",
        "note": 38,
        "velocity": 11,
        "time": 9824,
        "channel": 9
      },
      {
        "type": "note_on",
        "note": 42,
        "velocity": 27,
        "time": 9827,
        "channel": 9
      },
      {
        "type": "note_off",
        "note": 38,
        "time": 9901,
        "channel": 9
      },
      {
        "type": "note_off",
        "note": 42,
        "time": 9904,
        "channel": 9
      },
      {
        "type": "note_on",
        "note": 36,
        "velocity": 57,
        "time": 9936,
        "channel": 9
      },
      {
        "type": "note_on",
        "note": 42,
        "velocity": 19,
        "time": 9947,
        "channel": 9
      },
      {
        "type": "note_off",
        "note": 36,
        "time": 10012,
        "channel": 9
      },
      {
        "type": "note_off",
        "note": 42,
        "time": 10024,
        "channel": 9
      },
      {
        "type": "note_on",
        "note": 22,
        "velocity": 103,
        "time": 10076,
        "channel": 9
      },
      {
        "type": "note_off",
        "note": 22,
        "time": 10153,
        "channel": 9
      },
      {
        "type": "note_on",
        "note": 40,
        "velocity": 104,
        "time": 10200,
        "channel": 9
      },
      {
        "type": "note_off",
        "note": 40,
        "time": 10277,
        "channel": 9
      },
      {
        "type": "note_on",
        "note": 42,
        "velocity": 28,
        "time": 10315,
        "channel": 9
      },
      {
        "type": "note_off",
        "note": 42,
        "time": 10392,
        "channel": 9
      },
      {
        "type": "note_on",
        "note": 42,
        "velocity": 20,
        "time": 10440,
        "channel": 9
      },
      {
        "type": "note_off",
        "note": 42,
        "time": 10517,
        "channel": 9
      },
      {
        "type": "note_on",
        "note": 26,
        "velocity": 102,
        "time": 10554,
        "channel": 9
      },
      {
        "type": "note_off",
        "note": 26,
        "time": 10632,
        "channel": 9
      },
      {
        "type": "note_on",
        "note": 44,
        "velocity": 65,
        "time": 10759,
        "channel": 9
      },
      {
        "type": "note_on",
        "note": 42,
        "velocity": 41,
        "time": 10798,
        "channel": 9
      },
      {
        "type": "note_off",
        "note": 44,
        "time": 10835,
        "channel": 9
      },
      {
        "type": "note_off",
        "note": 42,
        "time": 10875,
        "channel": 9
      },
      {
        "type": "note_on",
        "note": 42,
        "velocity": 23,
        "time": 10918,
        "channel": 9
      },
      {
        "type": "note_off",
        "note": 42,
        "time": 10995,
        "channel": 9
      },
      {
        "type": "note_on",
        "note": 26,
        "velocity": 89,
        "time": 11036,
        "channel": 9
      },
      {
        "type": "note_off",
        "note": 26,
        "time": 11114,
        "channel": 9
      },
      {
        "type": "note_on",
        "note": 44,
        "velocity": 77,
        "time": 11280,
        "channel": 9
      },
      {
        "type": "note_off",
        "note": 44,
        "time": 11357,
        "channel": 9
      },
      {
        "type": "note_on",
        "note": 38,
        "velocity": 26,
        "time": 11406,
        "channel": 9
      },
      {
        "type": "note_off",
        "note": 38,
        "time": 11462,
        "channel": 9
      },
      {
        "type": "note_on",
        "note": 38,
        "velocity": 26,
        "time": 11462,
        "channel": 9
      },
      {
        "type": "note_off",
        "note": 38,
        "time": 11483,
        "channel": 9
      },
      {
        "type": "note_on",
        "note": 36,
        "velocity": 53,
        "time": 11514,
        "channel": 9
      },
      {
        "type": "note_on",
        "note": 22,
        "velocity": 83,
        "time": 11520,
        "channel": 9
      },
      {
        "type": "note_off",
        "note": 36,
        "time": 11591,
        "channel": 9
      },
      {
        "type": "note_off",
        "note": 22,
        "time": 11598,
        "channel": 9
      },
      {
        "type": "note_on",
        "note": 38,
        "velocity": 16,
        "time": 11640,
        "channel": 9
      },
      {
        "type": "note_off",
        "note": 38,
        "time": 11716,
        "channel": 9
      },
      {
        "type": "note_on",
        "note": 42,
        "velocity": 33,
        "time": 11747,
        "channel": 9
      },
      {
        "type": "note_on",
        "note": 38,
        "velocity": 11,
        "time": 11757,
        "channel": 9
      },
      {
        "type": "note_off",
        "note": 42,
        "time": 11824,
        "channel": 9
      },
      {
        "type": "note_off",
        "note": 38,
        "time": 11834,
        "channel": 9
      },
      {
        "type": "note_on",
        "note": 42,
        "velocity": 27,
        "time": 11861,
        "channel": 9
      },
      {
        "type": "note_on",
        "note": 36,
        "velocity": 53,
        "time": 11863,
        "channel": 9
      },
      {
        "type": "note_off",
        "note": 42,
        "time": 11937,
        "channel": 9
      },
      {
        "type": "note_off",
        "note": 36,
        "time": 11940,
        "channel": 9
      },
      {
        "type": "note_on",
        "note": 22,
        "velocity": 93,
        "time": 11991,
        "channel": 9
      },
      {
        "type": "note_off",
        "note": 22,
        "time": 12068,
        "channel": 9
      },
      {
        "type": "note_on",
        "note": 37,
        "velocity": 86,
        "time": 12117,
        "channel": 9
      },
      {
        "type": "note_off",
        "note": 37,
        "time": 12193,
        "channel": 9
      },
      {
        "type": "note_on",
        "note": 42,
        "velocity": 35,
        "time": 12233,
        "channel": 9
      },
      {
        "type": "note_off",
        "note": 42,
        "time": 12311,
        "channel": 9
      },
      {
        "type": "note_on",
        "note": 42,
        "velocity": 25,
        "time": 12354,
        "channel": 9
      },
      {
        "type": "note_off",
        "note": 42,
        "time": 12431,
        "channel": 9
      },
      {
        "type": "note_on",
        "note": 26,
        "velocity": 89,
        "time": 12474,
        "channel": 9
      },
      {
        "type": "note_off",
        "note": 26,
        "time": 12551,
        "channel": 9
      },
      {
        "type": "note_on",
        "note": 38,
        "velocity": 8,
        "time": 12614,
        "channel": 9
      },
      {
        "type": "note_off",
        "note": 38,
        "time": 12642,
        "channel": 9
      },
      {
        "type": "note_on",
        "note": 38,
        "velocity": 6,
        "time": 12642,
        "channel": 9
      },
      {
        "type": "note_off",
        "note": 38,
        "time": 12691,
        "channel": 9
      },
      {
        "type": "note_on",
        "note": 44,
        "velocity": 70,
        "time": 12711,
        "channel": 9
      },
      {
        "type": "note_off",
        "note": 44,
        "time": 12788,
        "channel": 9
      },
      {
        "type": "note_on",
        "note": 42,
        "velocity": 28,
        "time": 12835,
        "channel": 9
      },
      {
        "type": "note_off",
        "note": 42,
        "time": 12912,
        "channel": 9
      },
      {
        "type": "note_on",
        "note": 26,
        "velocity": 99,
        "time": 12951,
        "channel": 9
      },
      {
        "type": "note_off",
        "note": 26,
        "time": 13028,
        "channel": 9
      },
      {
        "type": "note_on",
        "note": 44,
        "velocity": 57,
        "time": 13181,
        "channel": 9
      },
      {
        "type": "note_on",
        "note": 37,
        "velocity": 83,
        "time": 13195,
        "channel": 9
      },
      {
        "type": "note_on",
        "note": 42,
        "velocity": 41,
        "time": 13208,
        "channel": 9
      },
      {
        "type": "note_off",
        "note": 44,
        "time": 13257,
        "channel": 9
      },
      {
        "type": "note_off",
        "note": 37,
        "time": 13271,
        "channel": 9
      },
      {
        "type": "note_off",
        "note": 42,
        "time": 13286,
        "channel": 9
      },
      {
        "type": "note_on",
        "note": 42,
        "velocity": 27,
        "time": 13329,
        "channel": 9
      },
      {
        "type": "note_off",
        "note": 42,
        "time": 13406,
        "channel": 9
      },
      {
        "type": "note_on",
        "note": 36,
        "velocity": 55,
        "time": 13412,
        "channel": 9
      },
      {
        "type": "note_on",
        "note": 22,
        "velocity": 88,
        "time": 13449,
        "channel": 9
      },
      {
        "type": "note_off",
        "note": 36,
        "time": 13489,
        "channel": 9
      },
      {
        "type": "note_off",
        "note": 22,
        "time": 13526,
        "channel": 9
      },
      {
        "type": "note_on",
        "note": 38,
        "velocity": 75,
        "time": 13561,
        "channel": 9
      },
      {
        "type": "note_off",
        "note": 38,
        "time": 13637,
        "channel": 9
      },
      {
        "type": "note_on",
        "note": 42,
        "velocity": 37,
        "time": 13681,
        "channel": 9
      },
      {
        "type": "note_off",
        "note": 42,
        "time": 13758,
        "channel": 9
      },
      {
        "type": "note_on",
        "note": 36,
        "velocity": 49,
        "time": 13772,
        "channel": 9
      },
      {
        "type": "note_on",
        "note": 42,
        "velocity": 24,
        "time": 13803,
        "channel": 9
      },
      {
        "type": "note_off",
        "note": 36,
        "time": 13849,
        "channel": 9
      },
      {
        "type": "note_off",
        "note": 42,
        "time": 13880,
        "channel": 9
      },
      {
        "type": "note_on",
        "note": 22,
        "velocity": 96,
        "time": 13907,
        "channel": 9
      },
      {
        "type": "note_off",
        "note": 22,
        "time": 13983,
        "channel": 9
      },
      {
        "type": "note_on",
        "note": 40,
        "velocity": 91,
        "time": 14041,
        "channel": 9
      },
      {
        "type": "note_off",
        "note": 40,
        "time": 14118,
        "channel": 9
      },
      {
        "type": "note_on",
        "note": 42,
        "velocity": 45,
        "time": 14157,
        "channel": 9
      },
      {
        "type": "note_off",
        "note": 42,
        "time": 14234,
        "channel": 9
      },
      {
        "type": "note_on",
        "note": 42,
        "velocity": 29,
        "time": 14270,
        "channel": 9
      },
      {
        "type": "note_off",
        "note": 42,
        "time": 14347,
        "channel": 9
      },
      {
        "type": "note_on",
        "note": 22,
        "velocity": 99,
        "time": 14393,
        "channel": 9
      },
      {
        "type": "note_off",
        "note": 22,
        "time": 14470,
        "channel": 9
      },
      {
        "type": "note_on",
        "note": 38,
        "velocity": 22,
        "time": 14503,
        "channel": 9
      },
      {
        "type": "note_off",
        "note": 38,
        "time": 14580,
        "channel": 9
      },
      {
        "type": "note_on",
        "note": 38,
        "velocity": 27,
        "time": 14623,
        "channel": 9
      },
      {
        "type": "note_on",
        "note": 42,
        "velocity": 43,
        "time": 14626,
        "channel": 9
      },
      {
        "type": "note_off",
        "note": 38,
        "time": 14699,
        "channel": 9
      },
      {
        "type": "note_off",
        "note": 42,
        "time": 14702,
        "channel": 9
      },
      {
        "type": "note_on",
        "note": 42,
        "velocity": 28,
        "time": 14734,
        "channel": 9
      },
      {
        "type": "note_off",
        "note": 42,
        "time": 14811,
        "channel": 9
      },
      {
        "type": "note_on",
        "note": 26,
        "velocity": 106,
        "time": 14870,
        "channel": 9
      },
      {
        "type": "note_on",
        "note": 37,
        "velocity": 90,
        "time": 14873,
        "channel": 9
      },
      {
        "type": "note_off",
        "note": 26,
        "time": 14947,
        "channel": 9
      },
      {
        "type": "note_off",
        "note": 37,
        "time": 14950,
        "channel": 9
      },
      {
        "type": "note_on",
        "note": 26,
        "velocity": 68,
        "time": 15106,
        "channel": 9
      },
      {
        "type": "note_on",
        "note": 44,
        "velocity": 62,
        "time": 15109,
        "channel": 9
      },
      {
        "type": "note_off",
        "note": 26,
        "time": 15183,
        "channel": 9
      },
      {
        "type": "note_off",
        "note": 44,
        "time": 15186,
        "channel": 9
      },
      {
        "type": "note_on",
        "note": 38,
        "velocity": 30,
        "time": 15215,
        "channel": 9
      },
      {
        "type": "note_off",
        "note": 38,
        "time": 15280,
        "channel": 9
      },
      {
        "type": "note_on",
        "note": 38,
        "velocity": 35,
        "time": 15280,
        "channel": 9
      },
      {
        "type": "note_off",
        "note": 38,
        "time": 15291,
        "channel": 9
      },
      {
        "type": "note_on",
        "note": 36,
        "velocity": 53,
        "time": 15344,
        "channel": 9
      },
      {
        "type": "note_on",
        "note": 42,
        "velocity": 48,
        "time": 15348,
        "channel": 9
      },
      {
        "type": "note_off",
        "note": 36,
        "time": 15420,
        "channel": 9
      },
      {
        "type": "note_off",
        "note": 42,
        "time": 15425,
        "channel": 9
      },
      {
        "type": "note_on",
        "note": 42,
        "velocity": 45,
        "time": 15474,
        "channel": 9
      },
      {
        "type": "note_off",
        "note": 42,
        "time": 15551,
        "channel": 9
      },
      {
        "type": "note_on",
        "note": 38,
        "velocity": 75,
        "time": 15579,
        "channel": 9
      },
      {
        "type": "note_off",
        "note": 38,
        "time": 15656,
        "channel": 9
      },
      {
        "type": "note_on",
        "note": 36,
        "velocity": 58,
        "time": 15699,
        "channel": 9
      },
      {
        "type": "note_on",
        "note": 42,
        "velocity": 36,
        "time": 15707,
        "channel": 9
      },
      {
        "type": "note_off",
        "note": 36,
        "time": 15775,
        "channel": 9
      },
      {
        "type": "note_off",
        "note": 42,
        "time": 15784,
        "channel": 9
      },
      {
        "type": "note_on",
        "note": 42,
        "velocity": 36,
        "time": 15827,
        "channel": 9
      },
      {
        "type": "note_off",
        "note": 42,
        "time": 15904,
        "channel": 9
      },
      {
        "type": "note_on",
        "note": 37,
        "velocity": 81,
        "time": 15932,
        "channel": 9
      },
      {
        "type": "note_off",
        "note": 37,
        "time": 15966,
        "channel": 9
      },
      {
        "type": "note_on",
        "note": 37,
        "velocity": 30,
        "time": 15966,
        "channel": 9
      },
      {
        "type": "note_off",
        "note": 37,
        "time": 16009,
        "channel": 9
      },
      {
        "type": "note_on",
        "note": 22,
        "velocity": 55,
        "time": 16062,
        "channel": 9
      },
      {
        "type": "note_off",
        "note": 22,
        "time": 16139,
        "channel": 9
      },
      {
        "type": "note_on",
        "note": 44,
        "velocity": 95,
        "time": 16310,
        "channel": 9
      },
      {
        "type": "note_off",
        "note": 44,
        "time": 16387,
        "channel": 9
      },
      {
        "type": "note_on",
        "note": 38,
        "velocity": 56,
        "time": 16424,
        "channel": 9
      },
      {
        "type": "note_off",
        "note": 38,
        "time": 16500,
        "channel": 9
      },
      {
        "type": "note_on",
        "note": 38,
        "velocity": 49,
        "time": 16544,
        "channel": 9
      },
      {
        "type": "note_off",
        "note": 38,
        "time": 16621,
        "channel": 9
      },
      {
        "type": "note_on",
        "note": 36,
        "velocity": 52,
        "time": 16663,
        "channel": 9
      },
      {
        "type": "note_off",
        "note": 36,
        "time": 16740,
        "channel": 9
      },
      {
        "type": "note_on",
        "note": 43,
        "velocity": 127,
        "time": 16802,
        "channel": 9
      },
      {
        "type": "note_off",
        "note": 43,
        "time": 16879,
        "channel": 9
      },
      {
        "type": "note_on",
        "note": 44,
        "velocity": 85,
        "time": 17029,
        "channel": 9
      },
      {
        "type": "note_on",
        "note": 42,
        "velocity": 30,
        "time": 17053,
        "channel": 9
      },
      {
        "type": "note_off",
        "note": 44,
        "time": 17106,
        "channel": 9
      },
      {
        "type": "note_off",
        "note": 42,
        "time": 17130,
        "channel": 9
      },
      {
        "type": "note_on",
        "note": 38,
        "velocity": 25,
        "time": 17159,
        "channel": 9
      },
      {
        "type": "note_off",
        "note": 38,
        "time": 17216,
        "channel": 9
      },
      {
        "type": "note_on",
        "note": 38,
        "velocity": 22,
        "time": 17216,
        "channel": 9
      },
      {
        "type": "note_off",
        "note": 38,
        "time": 17235,
        "channel": 9
      },
      {
        "type": "note_on",
        "note": 36,
        "velocity": 60,
        "time": 17273,
        "channel": 9
      },
      {
        "type": "note_on",
        "note": 22,
        "velocity": 83,
        "time": 17281,
        "channel": 9
      },
      {
        "type": "note_off",
        "note": 36,
        "time": 17350,
        "channel": 9
      },
      {
        "type": "note_off",
        "note": 22,
        "time": 17358,
        "channel": 9
      },
      {
        "type": "note_on",
        "note": 38,
        "velocity": 12,
        "time": 17390,
        "channel": 9
      },
      {
        "type": "note_off",
        "note": 38,
        "time": 17467,
        "channel": 9
      },
      {
        "type": "note_on",
        "note": 38,
        "velocity": 26,
        "time": 17504,
        "channel": 9
      },
      {
        "type": "note_on",
        "note": 42,
        "velocity": 31,
        "time": 17514,
        "channel": 9
      },
      {
        "type": "note_off",
        "note": 38,
        "time": 17580,
        "channel": 9
      },
      {
        "type": "note_off",
        "note": 42,
        "time": 17591,
        "channel": 9
      },
      {
        "type": "note_on",
        "note": 36,
        "velocity": 57,
        "time": 17628,
        "channel": 9
      },
      {
        "type": "note_on",
        "note": 42,
        "velocity": 20,
        "time": 17628,
        "channel": 9
      },
      {
        "type": "note_off",
        "note": 36,
        "time": 17704,
        "channel": 9
      },
      {
        "type": "note_off",
        "note": 42,
        "time": 17706,
        "channel": 9
      },
      {
        "type": "note_on",
        "note": 22,
        "velocity": 92,
        "time": 17756,
        "channel": 9
      },
      {
        "type": "note_off",
        "note": 22,
        "time": 17833,
        "channel": 9
      },
      {
        "type": "note_on",
        "note": 37,
        "velocity": 89,
        "time": 17890,
        "channel": 9
      },
      {
        "type": "note_off",
        "note": 37,
        "time": 17966,
        "channel": 9
      },
      {
        "type": "note_on",
        "note": 42,
        "velocity": 33,
        "time": 18014,
        "channel": 9
      },
      {
        "type": "note_off",
        "note": 42,
        "time": 18090,
        "channel": 9
      },
      {
        "type": "note_on",
        "note": 42,
        "velocity": 22,
        "time": 18114,
        "channel": 9
      },
      {
        "type": "note_off",
        "note": 42,
        "time": 18191,
        "channel": 9
      },
      {
        "type": "note_on",
        "note": 22,
        "velocity": 108,
        "time": 18238,
        "channel": 9
      },
      {
        "type": "note_off",
        "note": 22,
        "time": 18314,
        "channel": 9
      },
      {
        "type": "note_on",
        "note": 38,
        "velocity": 19,
        "time": 18350,
        "channel": 9
      },
      {
        "type": "note_off",
        "note": 38,
        "time": 18427,
        "channel": 9
      },
      {
        "type": "note_on",
        "note": 42,
        "velocity": 36,
        "time": 18467,
        "channel": 9
      },
      {
        "type": "note_on",
        "note": 38,
        "velocity": 23,
        "time": 18474,
        "channel": 9
      },
      {
        "type": "note_off",
        "note": 42,
        "time": 18544,
        "channel": 9
      },
      {
        "type": "note_off",
        "note": 38,
        "time": 18550,
        "channel": 9
      },
      {
        "type": "note_on",
        "note": 36,
        "velocity": 45,
        "time": 18584,
        "channel": 9
      },
      {
        "type": "note_on",
        "note": 42,
        "velocity": 26,
        "time": 18595,
        "channel": 9
      },
      {
        "type": "note_off",
        "note": 36,
        "time": 18661,
        "channel": 9
      },
      {
        "type": "note_off",
        "note": 42,
        "time": 18672,
        "channel": 9
      },
      {
        "type": "note_on",
        "note": 40,
        "velocity": 101,
        "time": 18733,
        "channel": 9
      },
      {
        "type": "note_on",
        "note": 26,
        "velocity": 114,
        "time": 18736,
        "channel": 9
      },
      {
        "type": "note_on",
        "note": 38,
        "velocity": 29,
        "time": 18794,
        "channel": 9
      },
      {
        "type": "note_off",
        "note": 40,
        "time": 18810,
        "channel": 9
      },
      {
        "type": "note_off",
        "note": 26,
        "time": 18814,
        "channel": 9
      },
      {
        "type": "note_off",
        "note": 38,
        "time": 18871,
        "channel": 9
      },
      {
        "type": "note_on",
        "note": 26,
        "velocity": 59,
        "time": 18960,
        "channel": 9
      },
      {
        "type": "note_off",
        "note": 26,
        "time": 19037,
        "channel": 9
      },
      {
        "type": "note_on",
        "note": 38,
        "velocity": 29,
        "time": 19072,
        "channel": 9
      },
      {
        "type": "note_off",
        "note": 38,
        "time": 19124,
        "channel": 9
      },
      {
        "type": "note_on",
        "note": 38,
        "velocity": 33,
        "time": 19124,
        "channel": 9
      },
      {
        "type": "note_off",
        "note": 38,
        "time": 19149,
        "channel": 9
      },
      {
        "type": "note_on",
        "note": 38,
        "velocity": 19,
        "time": 19155,
        "channel": 9
      },
      {
        "type": "note_on",
        "note": 36,
        "velocity": 57,
        "time": 19189,
        "channel": 9
      },
      {
        "type": "note_on",
        "note": 22,
        "velocity": 78,
        "time": 19198,
        "channel": 9
      },
      {
        "type": "note_off",
        "note": 38,
        "time": 19201,
        "channel": 9
      },
      {
        "type": "note_off",
        "note": 36,
        "time": 19265,
        "channel": 9
      },
      {
        "type": "note_off",
        "note": 22,
        "time": 19275,
        "channel": 9
      },
      {
        "type": "note_on",
        "note": 38,
        "velocity": 29,
        "time": 19305,
        "channel": 9
      },
      {
        "type": "note_off",
        "note": 38,
        "time": 19382,
        "channel": 9
      },
      {
        "type": "note_on",
        "note": 38,
        "velocity": 24,
        "time": 19413,
        "channel": 9
      },
      {
        "type": "note_on",
        "note": 42,
        "velocity": 28,
        "time": 19418,
        "channel": 9
      },
      {
        "type": "note_off",
        "note": 38,
        "time": 19489,
        "channel": 9
      },
      {
        "type": "note_off",
        "note": 42,
        "time": 19495,
        "channel": 9
      },
      {
        "type": "note_on",
        "note": 42,
        "velocity": 26,
        "time": 19537,
        "channel": 9
      },
      {
        "type": "note_on",
        "note": 36,
        "velocity": 54,
        "time": 19550,
        "channel": 9
      },
      {
        "type": "note_off",
        "note": 42,
        "time": 19613,
        "channel": 9
      },
      {
        "type": "note_off",
        "note": 36,
        "time": 19627,
        "channel": 9
      },
      {
        "type": "note_on",
        "note": 22,
        "velocity": 96,
        "time": 19667,
        "channel": 9
      },
      {
        "type": "note_off",
        "note": 22,
        "time": 19744,
        "channel": 9
      },
      {
        "type": "note_on",
        "note": 37,
        "velocity": 87,
        "time": 19779,
        "channel": 9
      },
      {
        "type": "note_on",
        "note": 38,
        "velocity": 37,
        "time": 19816,
        "channel": 9
      },
      {
        "type": "note_off",
        "note": 37,
        "time": 19856,
        "channel": 9
      },
      {
        "type": "note_off",
        "note": 38,
        "time": 19893,
        "channel": 9
      },
      {
        "type": "note_on",
        "note": 42,
        "velocity": 41,
        "time": 19897,
        "channel": 9
      },
      {
        "type": "note_off",
        "note": 42,
        "time": 19974,
        "channel": 9
      },
      {
        "type": "note_on",
        "note": 42,
        "velocity": 19,
        "time": 20018,
        "channel": 9
      },
      {
        "type": "note_off",
        "note": 42,
        "time": 20095,
        "channel": 9
      },
      {
        "type": "note_on",
        "note": 22,
        "velocity": 96,
        "time": 20134,
        "channel": 9
      },
      {
        "type": "note_off",
        "note": 22,
        "time": 20211,
        "channel": 9
      },
      {
        "type": "note_on",
        "note": 38,
        "velocity": 15,
        "time": 20253,
        "channel": 9
      },
      {
        "type": "note_off",
        "note": 38,
        "time": 20330,
        "channel": 9
      },
      {
        "type": "note_on",
        "note": 38,
        "velocity": 18,
        "time": 20353,
        "channel": 9
      },
      {
        "type": "note_on",
        "note": 42,
        "velocity": 33,
        "time": 20359,
        "channel": 9
      },
      {
        "type": "note_off",
        "note": 38,
        "time": 20430,
        "channel": 9
      },
      {
        "type": "note_off",
        "note": 42,
        "time": 20436,
        "channel": 9
      },
      {
        "type": "note_on",
        "note": 36,
        "velocity": 43,
        "time": 20490,
        "channel": 9
      },
      {
        "type": "note_on",
        "note": 42,
        "velocity": 19,
        "time": 20502,
        "channel": 9
      },
      {
        "type": "note_off",
        "note": 36,
        "time": 20567,
        "channel": 9
      },
      {
        "type": "note_off",
        "note": 42,
        "time": 20579,
        "channel": 9
      },
      {
        "type": "note_on",
        "note": 40,
        "velocity": 114,
        "time": 20630,
        "channel": 9
      },
      {
        "type": "note_on",
        "note": 26,
        "velocity": 89,
        "time": 20633,
        "channel": 9
      },
      {
        "type": "note_off",
        "note": 40,
        "time": 20707,
        "channel": 9
      },
      {
        "type": "note_off",
        "note": 26,
        "time": 20710,
        "channel": 9
      },
      {
        "type": "note_on",
        "note": 26,
        "velocity": 67,
        "time": 20869,
        "channel": 9
      },
      {
        "type": "note_off",
        "note": 26,
        "time": 20946,
        "channel": 9
      },
      {
        "type": "note_on",
        "note": 38,
        "velocity": 23,
        "time": 21004,
        "channel": 9
      },
      {
        "type": "note_off",
        "note": 38,
        "time": 21052,
        "channel": 9
      },
      {
        "type": "note_on",
        "note": 38,
        "velocity": 27,
        "time": 21052,
        "channel": 9
      },
      {
        "type": "note_off",
        "note": 38,
        "time": 21081,
        "channel": 9
      },
      {
        "type": "note_on",
        "note": 38,
        "velocity": 18,
        "time": 21082,
        "channel": 9
      },
      {
        "type": "note_on",
        "note": 44,
        "velocity": 62,
        "time": 21091,
        "channel": 9
      },
      {
        "type": "note_on",
        "note": 36,
        "velocity": 56,
        "time": 21110,
        "channel": 9
      },
      {
        "type": "note_on",
        "note": 42,
        "velocity": 38,
        "time": 21113,
        "channel": 9
      },
      {
        "type": "note_off",
        "note": 38,
        "time": 21129,
        "channel": 9
      },
      {
        "type": "note_off",
        "note": 44,
        "time": 21167,
        "channel": 9
      },
      {
        "type": "note_off",
        "note": 36,
        "time": 21187,
        "channel": 9
      },
      {
        "type": "note_off",
        "note": 42,
        "time": 21189,
        "channel": 9
      },
      {
        "type": "note_on",
        "note": 38,
        "velocity": 17,
        "time": 21249,
        "channel": 9
      },
      {
        "type": "note_off",
        "note": 38,
        "time": 21326,
        "channel": 9
      },
      {
        "type": "note_on",
        "note": 42,
        "velocity": 29,
        "time": 21353,
        "channel": 9
      },
      {
        "type": "note_off",
        "note": 42,
        "time": 21430,
        "channel": 9
      },
      {
        "type": "note_on",
        "note": 36,
        "velocity": 50,
        "time": 21462,
        "channel": 9
      },
      {
        "type": "note_on",
        "note": 42,
        "velocity": 28,
        "time": 21474,
        "channel": 9
      },
      {
        "type": "note_off",
        "note": 36,
        "time": 21538,
        "channel": 9
      },
      {
        "type": "note_off",
        "note": 42,
        "time": 21551,
        "channel": 9
      },
      {
        "type": "note_on",
        "note": 22,
        "velocity": 85,
        "time": 21599,
        "channel": 9
      },
      {
        "type": "note_off",
        "note": 22,
        "time": 21676,
        "channel": 9
      },
      {
        "type": "note_on",
        "note": 37,
        "velocity": 85,
        "time": 21721,
        "channel": 9
      },
      {
        "type": "note_off",
        "note": 37,
        "time": 21798,
        "channel": 9
      },
      {
        "type": "note_on",
        "note": 42,
        "velocity": 49,
        "time": 21835,
        "channel": 9
      },
      {
        "type": "note_off",
        "note": 42,
        "time": 21912,
        "channel": 9
      },
      {
        "type": "note_on",
        "note": 42,
        "velocity": 31,
        "time": 21944,
        "channel": 9
      },
      {
        "type": "note_off",
        "note": 42,
        "time": 22021,
        "channel": 9
      },
      {
        "type": "note_on",
        "note": 22,
        "velocity": 118,
        "time": 22076,
        "channel": 9
      },
      {
        "type": "note_off",
        "note": 22,
        "time": 22153,
        "channel": 9
      },
      {
        "type": "note_on",
        "note": 38,
        "velocity": 11,
        "time": 22189,
        "channel": 9
      },
      {
        "type": "note_off",
        "note": 38,
        "time": 22266,
        "channel": 9
      },
      {
        "type": "note_on",
        "note": 42,
        "velocity": 33,
        "time": 22305,
        "channel": 9
      },
      {
        "type": "note_on",
        "note": 38,
        "velocity": 28,
        "time": 22308,
        "channel": 9
      },
      {
        "type": "note_off",
        "note": 42,
        "time": 22382,
        "channel": 9
      },
      {
        "type": "note_off",
        "note": 38,
        "time": 22385,
        "channel": 9
      },
      {
        "type": "note_on",
        "note": 36,
        "velocity": 45,
        "time": 22421,
        "channel": 9
      },
      {
        "type": "note_on",
        "note": 42,
        "velocity": 11,
        "time": 22443,
        "channel": 9
      },
      {
        "type": "note_off",
        "note": 36,
        "time": 22497,
        "channel": 9
      },
      {
        "type": "note_off",
        "note": 42,
        "time": 22520,
        "channel": 9
      },
      {
        "type": "note_on",
        "note": 37,
        "velocity": 86,
        "time": 22562,
        "channel": 9
      },
      {
        "type": "note_on",
        "note": 26,
        "velocity": 101,
        "time": 22564,
        "channel": 9
      },
      {
        "type": "note_on",
        "note": 38,
        "velocity": 64,
        "time": 22581,
        "channel": 9
      },
      {
        "type": "note_off",
        "note": 37,
        "time": 22638,
        "channel": 9
      },
      {
        "type": "note_off",
        "note": 26,
        "time": 22641,
        "channel": 9
      },
      {
        "type": "note_off",
        "note": 38,
        "time": 22658,
        "channel": 9
      },
      {
        "type": "note_on",
        "note": 26,
        "velocity": 59,
        "time": 22796,
        "channel": 9
      },
      {
        "type": "note_off",
        "note": 26,
        "time": 22874,
        "channel": 9
      },
      {
        "type": "note_on",
        "note": 38,
        "velocity": 23,
        "time": 22929,
        "channel": 9
      },
      {
        "type": "note_off",
        "note": 38,
        "time": 22981,
        "channel": 9
      },
      {
        "type": "note_on",
        "note": 38,
        "velocity": 26,
        "time": 22981,
        "channel": 9
      },
      {
        "type": "note_off",
        "note": 38,
        "time": 23006,
        "channel": 9
      },
      {
        "type": "note_on",
        "note": 44,
        "velocity": 55,
        "time": 23017,
        "channel": 9
      },
      {
        "type": "note_on",
        "note": 36,
        "velocity": 55,
        "time": 23033,
        "channel": 9
      },
      {
        "type": "note_on",
        "note": 22,
        "velocity": 67,
        "time": 23043,
        "channel": 9
      },
      {
        "type": "note_off",
        "note": 44,
        "time": 23094,
        "channel": 9
      },
      {
        "type": "note_off",
        "note": 36,
        "time": 23110,
        "channel": 9
      },
      {
        "type": "note_off",
        "note": 22,
        "time": 23121,
        "channel": 9
      },
      {
        "type": "note_on",
        "note": 38,
        "velocity": 12,
        "time": 23167,
        "channel": 9
      },
      {
        "type": "note_off",
        "note": 38,
        "time": 23244,
        "channel": 9
      },
      {
        "type": "note_on",
        "note": 38,
        "velocity": 30,
        "time": 23260,
        "channel": 9
      },
      {
        "type": "note_on",
        "note": 42,
        "velocity": 27,
        "time": 23261,
        "channel": 9
      },
      {
        "type": "note_off",
        "note": 38,
        "time": 23336,
        "channel": 9
      },
      {
        "type": "note_off",
        "note": 42,
        "time": 23338,
        "channel": 9
      },
      {
        "type": "note_on",
        "note": 36,
        "velocity": 53,
        "time": 23391,
        "channel": 9
      },
      {
        "type": "note_on",
        "note": 42,
        "velocity": 28,
        "time": 23394,
        "channel": 9
      },
      {
        "type": "note_off",
        "note": 36,
        "time": 23467,
        "channel": 9
      },
      {
        "type": "note_off",
        "note": 42,
        "time": 23471,
        "channel": 9
      },
      {
        "type": "note_on",
        "note": 22,
        "velocity": 91,
        "time": 23509,
        "channel": 9
      },
      {
        "type": "note_off",
        "note": 22,
        "time": 23586,
        "channel": 9
      },
      {
        "type": "note_on",
        "note": 37,
        "velocity": 86,
        "time": 23626,
        "channel": 9
      },
      {
        "type": "note_off",
        "note": 37,
        "time": 23703,
        "channel": 9
      },
      {
        "type": "note_on",
        "note": 42,
        "velocity": 39,
        "time": 23740,
        "channel": 9
      },
      {
        "type": "note_off",
        "note": 42,
        "time": 23817,
        "channel": 9
      },
      {
        "type": "note_on",
        "note": 42,
        "velocity": 27,
        "time": 23860,
        "channel": 9
      },
      {
        "type": "note_off",
        "note": 42,
        "time": 23937,
        "channel": 9
      },
      {
        "type": "note_on",
        "note": 44,
        "velocity": 102,
        "time": 23987,
        "channel": 9
      },
      {
        "type": "note_off",
        "note": 44,
        "time": 24063,
        "channel": 9
      },
      {
        "type": "note_on",
        "note": 38,
        "velocity": 69,
        "time": 24107,
        "channel": 9
      },
      {
        "type": "note_off",
        "note": 38,
        "time": 24184,
        "channel": 9
      },
      {
        "type": "note_on",
        "note": 48,
        "velocity": 83,
        "time": 24232,
        "channel": 9
      },
      {
        "type": "note_off",
        "note": 48,
        "time": 24309,
        "channel": 9
      },
      {
        "type": "note_on",
        "note": 36,
        "velocity": 48,
        "time": 24327,
        "channel": 9
      },
      {
        "type": "note_off",
        "note": 36,
        "time": 24404,
        "channel": 9
      },
      {
        "type": "note_on",
        "note": 43,
        "velocity": 127,
        "time": 24484,
        "channel": 9
      },
      {
        "type": "note_off",
        "note": 43,
        "time": 24561,
        "channel": 9
      },
      {
        "type": "note_on",
        "note": 38,
        "velocity": 17,
        "time": 24630,
        "channel": 9
      },
      {
        "type": "note_off",
        "note": 38,
        "time": 24707,
        "channel": 9
      },
      {
        "type": "note_on",
        "note": 44,
        "velocity": 85,
        "time": 24711,
        "channel": 9
      },
      {
        "type": "note_off",
        "note": 44,
        "time": 24788,
        "channel": 9
      },
      {
        "type": "note_on",
        "note": 38,
        "velocity": 48,
        "time": 24846,
        "channel": 9
      },
      {
        "type": "note_off",
        "note": 38,
        "time": 24923,
        "channel": 9
      },
      {
        "type": "note_on",
        "note": 36,
        "velocity": 62,
        "time": 24954,
        "channel": 9
      },
      {
        "type": "note_on",
        "note": 55,
        "velocity": 64,
        "time": 24971,
        "channel": 9
      },
      {
        "type": "note_off",
        "note": 36,
        "time": 25031,
        "channel": 9
      },
      {
        "type": "note_off",
        "note": 55,
        "time": 25048,
        "channel": 9
      },
      {
        "type": "note_on",
        "note": 38,
        "velocity": 21,
        "time": 25056,
        "channel": 9
      },
      {
        "type": "note_off",
        "note": 38,
        "time": 25132,
        "channel": 9
      },
      {
        "type": "note_on",
        "note": 38,
        "velocity": 26,
        "time": 25182,
        "channel": 9
      },
      {
        "type": "note_off",
        "note": 38,
        "time": 25259,
        "channel": 9
      },
      {
        "type": "note_on",
        "note": 36,
        "velocity": 50,
        "time": 25308,
        "channel": 9
      },
      {
        "type": "note_off",
        "note": 36,
        "time": 25385,
        "channel": 9
      },
      {
        "type": "note_on",
        "note": 22,
        "velocity": 127,
        "time": 25466,
        "channel": 9
      },
      {
        "type": "note_off",
        "note": 22,
        "time": 25543,
        "channel": 9
      },
      {
        "type": "note_on",
        "note": 37,
        "velocity": 65,
        "time": 25574,
        "channel": 9
      },
      {
        "type": "note_on",
        "note": 38,
        "velocity": 38,
        "time": 25603,
        "channel": 9
      },
      {
        "type": "note_off",
        "note": 37,
        "time": 25651,
        "channel": 9
      },
      {
        "type": "note_off",
        "note": 38,
        "time": 25680,
        "channel": 9
      },
      {
        "type": "note_on",
        "note": 38,
        "velocity": 18,
        "time": 25792,
        "channel": 9
      },
      {
        "type": "note_off",
        "note": 38,
        "time": 25869,
        "channel": 9
      },
      {
        "type": "note_on",
        "note": 22,
        "velocity": 88,
        "time": 25904,
        "channel": 9
      },
      {
        "type": "note_off",
        "note": 22,
        "time": 25981,
        "channel": 9
      },
      {
        "type": "note_on",
        "note": 38,
        "velocity": 15,
        "time": 26024,
        "channel": 9
      },
      {
        "type": "note_off",
        "note": 38,
        "time": 26101,
        "channel": 9
      },
      {
        "type": "note_on",
        "note": 38,
        "velocity": 23,
        "time": 26114,
        "channel": 9
      },
      {
        "type": "note_on",
        "note": 42,
        "velocity": 22,
        "time": 26122,
        "channel": 9
      },
      {
        "type": "note_off",
        "note": 38,
        "time": 26191,
        "channel": 9
      },
      {
        "type": "note_off",
        "note": 42,
        "time": 26199,
        "channel": 9
      },
      {
        "type": "note_on",
        "note": 36,
        "velocity": 37,
        "time": 26235,
        "channel": 9
      },
      {
        "type": "note_on",
        "note": 42,
        "velocity": 29,
        "time": 26238,
        "channel": 9
      },
      {
        "type": "note_off",
        "note": 36,
        "time": 26311,
        "channel": 9
      },
      {
        "type": "note_off",
        "note": 42,
        "time": 26316,
        "channel": 9
      },
      {
        "type": "note_on",
        "note": 37,
        "velocity": 77,
        "time": 26379,
        "channel": 9
      },
      {
        "type": "note_on",
        "note": 26,
        "velocity": 100,
        "time": 26385,
        "channel": 9
      },
      {
        "type": "note_off",
        "note": 37,
        "time": 26414,
        "channel": 9
      },
      {
        "type": "note_on",
        "note": 37,
        "velocity": 36,
        "time": 26414,
        "channel": 9
      },
      {
        "type": "note_off",
        "note": 37,
        "time": 26456,
        "channel": 9
      },
      {
        "type": "note_off",
        "note": 26,
        "time": 26462,
        "channel": 9
      },
      {
        "type": "note_on",
        "note": 26,
        "velocity": 80,
        "time": 26608,
        "channel": 9
      },
      {
        "type": "note_off",
        "note": 26,
        "time": 26684,
        "channel": 9
      },
      {
        "type": "note_on",
        "note": 38,
        "velocity": 24,
        "time": 26728,
        "channel": 9
      },
      {
        "type": "note_off",
        "note": 38,
        "time": 26776,
        "channel": 9
      },
      {
        "type": "note_on",
        "note": 38,
        "velocity": 23,
        "time": 26776,
        "channel": 9
      },
      {
        "type": "note_off",
        "note": 38,
        "time": 26804,
        "channel": 9
      },
      {
        "type": "note_on",
        "note": 44,
        "velocity": 50,
        "time": 26837,
        "channel": 9
      },
      {
        "type": "note_on",
        "note": 36,
        "velocity": 57,
        "time": 26846,
        "channel": 9
      },
      {
        "type": "note_on",
        "note": 22,
        "velocity": 84,
        "time": 26856,
        "channel": 9
      },
      {
        "type": "note_off",
        "note": 44,
        "time": 26914,
        "channel": 9
      },
      {
        "type": "note_off",
        "note": 36,
        "time": 26923,
        "channel": 9
      },
      {
        "type": "note_off",
        "note": 22,
        "time": 26932,
        "channel": 9
      },
      {
        "type": "note_on",
        "note": 38,
        "velocity": 23,
        "time": 26971,
        "channel": 9
      },
      {
        "type": "note_off",
        "note": 38,
        "time": 27048,
        "channel": 9
      },
      {
        "type": "note_on",
        "note": 38,
        "velocity": 25,
        "time": 27086,
        "channel": 9
      },
      {
        "type": "note_on",
        "note": 42,
        "velocity": 21,
        "time": 27092,
        "channel": 9
      },
      {
        "type": "note_off",
        "note": 38,
        "time": 27163,
        "channel": 9
      },
      {
        "type": "note_off",
        "note": 42,
        "time": 27169,
        "channel": 9
      },
      {
        "type": "note_on",
        "note": 36,
        "velocity": 52,
        "time": 27209,
        "channel": 9
      },
      {
        "type": "note_on",
        "note": 42,
        "velocity": 23,
        "time": 27210,
        "channel": 9
      },
      {
        "type": "note_off",
        "note": 36,
        "time": 27285,
        "channel": 9
      },
      {
        "type": "note_off",
        "note": 42,
        "time": 27288,
        "channel": 9
      },
      {
        "type": "note_on",
        "note": 22,
        "velocity": 109,
        "time": 27338,
        "channel": 9
      },
      {
        "type": "note_off",
        "note": 22,
        "time": 27415,
        "channel": 9
      },
      {
        "type": "note_on",
        "note": 37,
        "velocity": 77,
        "time": 27459,
        "channel": 9
      },
      {
        "type": "note_off",
        "note": 37,
        "time": 27535,
        "channel": 9
      },
      {
        "type": "note_on",
        "note": 42,
        "velocity": 35,
        "time": 27580,
        "channel": 9
      },
      {
        "type": "note_off",
        "note": 42,
        "time": 27657,
        "channel": 9
      },
      {
        "type": "note_on",
        "note": 42,
        "velocity": 25,
        "time": 27699,
        "channel": 9
      },
      {
        "type": "note_off",
        "note": 42,
        "time": 27776,
        "channel": 9
      },
      {
        "type": "note_on",
        "note": 22,
        "velocity": 97,
        "time": 27826,
        "channel": 9
      },
      {
        "type": "note_off",
        "note": 22,
        "time": 27903,
        "channel": 9
      },
      {
        "type": "note_on",
        "note": 38,
        "velocity": 22,
        "time": 27954,
        "channel": 9
      },
      {
        "type": "note_off",
        "note": 38,
        "time": 28030,
        "channel": 9
      },
      {
        "type": "note_on",
        "note": 42,
        "velocity": 40,
        "time": 28067,
        "channel": 9
      },
      {
        "type": "note_on",
        "note": 38,
        "velocity": 25,
        "time": 28074,
        "channel": 9
      },
      {
        "type": "note_off",
        "note": 42,
        "time": 28144,
        "channel": 9
      },
      {
        "type": "note_off",
        "note": 38,
        "time": 28151,
        "channel": 9
      },
      {
        "type": "note_on",
        "note": 22,
        "velocity": 38,
        "time": 28178,
        "channel": 9
      },
      {
        "type": "note_on",
        "note": 36,
        "velocity": 47,
        "time": 28194,
        "channel": 9
      },
      {
        "type": "note_off",
        "note": 22,
        "time": 28255,
        "channel": 9
      },
      {
        "type": "note_off",
        "note": 36,
        "time": 28271,
        "channel": 9
      },
      {
        "type": "note_on",
        "note": 26,
        "velocity": 104,
        "time": 28319,
        "channel": 9
      },
      {
        "type": "note_on",
        "note": 37,
        "velocity": 81,
        "time": 28319,
        "channel": 9
      },
      {
        "type": "note_off",
        "note": 26,
        "time": 28397,
        "channel": 9
      },
      {
        "type": "note_off",
        "note": 37,
        "time": 28397,
        "channel": 9
      },
      {
        "type": "note_on",
        "note": 26,
        "velocity": 65,
        "time": 28555,
        "channel": 9
      },
      {
        "type": "note_off",
        "note": 26,
        "time": 28632,
        "channel": 9
      },
      {
        "type": "note_on",
        "note": 38,
        "velocity": 26,
        "time": 28675,
        "channel": 9
      },
      {
        "type": "note_off",
        "note": 38,
        "time": 28724,
        "channel": 9
      },
      {
        "type": "note_on",
        "note": 38,
        "velocity": 31,
        "time": 28724,
        "channel": 9
      },
      {
        "type": "note_off",
        "note": 38,
        "time": 28751,
        "channel": 9
      },
      {
        "type": "note_on",
        "note": 44,
        "velocity": 52,
        "time": 28776,
        "channel": 9
      },
      {
        "type": "note_on",
        "note": 36,
        "velocity": 61,
        "time": 28803,
        "channel": 9
      },
      {
        "type": "note_on",
        "note": 22,
        "velocity": 80,
        "time": 28809,
        "channel": 9
      },
      {
        "type": "note_off",
        "note": 44,
        "time": 28854,
        "channel": 9
      },
      {
        "type": "note_off",
        "note": 36,
        "time": 28879,
        "channel": 9
      },
      {
        "type": "note_off",
        "note": 22,
        "time": 28886,
        "channel": 9
      },
      {
        "type": "note_on",
        "note": 38,
        "velocity": 29,
        "time": 28913,
        "channel": 9
      },
      {
        "type": "note_off",
        "note": 38,
        "time": 28990,
        "channel": 9
      },
      {
        "type": "note_on",
        "note": 38,
        "velocity": 31,
        "time": 29026,
        "channel": 9
      },
      {
        "type": "note_on",
        "note": 42,
        "velocity": 32,
        "time": 29040,
        "channel": 9
      },
      {
        "type": "note_off",
        "note": 38,
        "time": 29103,
        "channel": 9
      },
      {
        "type": "note_off",
        "note": 42,
        "time": 29117,
        "channel": 9
      },
      {
        "type": "note_on",
        "note": 36,
        "velocity": 53,
        "time": 29153,
        "channel": 9
      },
      {
        "type": "note_on",
        "note": 42,
        "velocity": 29,
        "time": 29153,
        "channel": 9
      },
      {
        "type": "note_off",
        "note": 36,
        "time": 29230,
        "channel": 9
      },
      {
        "type": "note_off",
        "note": 42,
        "time": 29230,
        "channel": 9
      },
      {
        "type": "note_on",
        "note": 22,
        "velocity": 104,
        "time": 29280,
        "channel": 9
      },
      {
        "type": "note_off",
        "note": 22,
        "time": 29357,
        "channel": 9
      },
      {
        "type": "note_on",
        "note": 38,
        "velocity": 82,
        "time": 29396,
        "channel": 9
      },
      {
        "type": "note_off",
        "note": 38,
        "time": 29473,
        "channel": 9
      },
      {
        "type": "note_on",
        "note": 42,
        "velocity": 43,
        "time": 29509,
        "channel": 9
      },
      {
        "type": "note_off",
        "note": 42,
        "time": 29586,
        "channel": 9
      },
      {
        "type": "note_on",
        "note": 42,
        "velocity": 25,
        "time": 29619,
        "channel": 9
      },
      {
        "type": "note_off",
        "note": 42,
        "time": 29697,
        "channel": 9
      },
      {
        "type": "note_on",
        "note": 22,
        "velocity": 89,
        "time": 29746,
        "channel": 9
      },
      {
        "type": "note_off",
        "note": 22,
        "time": 29823,
        "channel": 9
      },
      {
        "type": "note_on",
        "note": 38,
        "velocity": 15,
        "time": 29865,
        "channel": 9
      },
      {
        "type": "note_off",
        "note": 38,
        "time": 29941,
        "channel": 9
      },
      {
        "type": "note_on",
        "note": 42,
        "velocity": 40,
        "time": 29987,
        "channel": 9
      },
      {
        "type": "note_on",
        "note": 38,
        "velocity": 25,
        "time": 29992,
        "channel": 9
      },
      {
        "type": "note_off",
        "note": 42,
        "time": 30064,
        "channel": 9
      },
      {
        "type": "note_off",
        "note": 38,
        "time": 30069,
        "channel": 9
      },
      {
        "type": "note_on",
        "note": 22,
        "velocity": 34,
        "time": 30104,
        "channel": 9
      },
      {
        "type": "note_on",
        "note": 36,
        "velocity": 53,
        "time": 30110,
        "channel": 9
      },
      {
        "type": "note_off",
        "note": 22,
        "time": 30182,
        "channel": 9
      },
      {
        "type": "note_off",
        "note": 36,
        "time": 30187,
        "channel": 9
      },
      {
        "type": "note_on",
        "note": 26,
        "velocity": 82,
        "time": 30249,
        "channel": 9
      },
      {
        "type": "note_on",
        "note": 37,
        "velocity": 81,
        "time": 30251,
        "channel": 9
      },
      {
        "type": "note_on",
        "note": 38,
        "velocity": 46,
        "time": 30287,
        "channel": 9
      },
      {
        "type": "note_off",
        "note": 26,
        "time": 30325,
        "channel": 9
      },
      {
        "type": "note_off",
        "note": 37,
        "time": 30328,
        "channel": 9
      },
      {
        "type": "note_off",
        "note": 38,
        "time": 30363,
        "channel": 9
      },
      {
        "type": "note_on",
        "note": 46,
        "velocity": 53,
        "time": 30477,
        "channel": 9
      },
      {
        "type": "note_off",
        "note": 46,
        "time": 30554,
        "channel": 9
      },
      {
        "type": "note_on",
        "note": 38,
        "velocity": 26,
        "time": 30580,
        "channel": 9
      },
      {
        "type": "note_off",
        "note": 38,
        "time": 30639,
        "channel": 9
      },
      {
        "type": "note_on",
        "note": 38,
        "velocity": 26,
        "time": 30639,
        "channel": 9
      },
      {
        "type": "note_off",
        "note": 38,
        "time": 30656,
        "channel": 9
      },
      {
        "type": "note_on",
        "note": 44,
        "velocity": 52,
        "time": 30693,
        "channel": 9
      },
      {
        "type": "note_on",
        "note": 22,
        "velocity": 75,
        "time": 30717,
        "channel": 9
      },
      {
        "type": "note_on",
        "note": 36,
        "velocity": 56,
        "time": 30717,
        "channel": 9
      },
      {
        "type": "note_off",
        "note": 44,
        "time": 30770,
        "channel": 9
      },
      {
        "type": "note_off",
        "note": 22,
        "time": 30794,
        "channel": 9
      },
      {
        "type": "note_off",
        "note": 36,
        "time": 30794,
        "channel": 9
      },
      {
        "type": "note_on",
        "note": 38,
        "velocity": 32,
        "time": 30821,
        "channel": 9
      },
      {
        "type": "note_off",
        "note": 38,
        "time": 30898,
        "channel": 9
      },
      {
        "type": "note_on",
        "note": 38,
        "velocity": 27,
        "time": 30933,
        "channel": 9
      },
      {
        "type": "note_on",
        "note": 42,
        "velocity": 38,
        "time": 30937,
        "channel": 9
      },
      {
        "type": "note_off",
        "note": 38,
        "time": 31009,
        "channel": 9
      },
      {
        "type": "note_off",
        "note": 42,
        "time": 31015,
        "channel": 9
      },
      {
        "type": "note_on",
        "note": 22,
        "velocity": 42,
        "time": 31058,
        "channel": 9
      },
      {
        "type": "note_on",
        "note": 36,
        "velocity": 57,
        "time": 31066,
        "channel": 9
      },
      {
        "type": "note_off",
        "note": 22,
        "time": 31136,
        "channel": 9
      },
      {
        "type": "note_off",
        "note": 36,
        "time": 31143,
        "channel": 9
      },
      {
        "type": "note_on",
        "note": 22,
        "velocity": 17,
        "time": 31183,
        "channel": 9
      },
      {
        "type": "note_off",
        "note": 22,
        "time": 31260,
        "channel": 9
      },
      {
        "type": "note_on",
        "note": 38,
        "velocity": 82,
        "time": 31296,
        "channel": 9
      },
      {
        "type": "note_off",
        "note": 38,
        "time": 31373,
        "channel": 9
      },
      {
        "type": "note_on",
        "note": 42,
        "velocity": 46,
        "time": 31415,
        "channel": 9
      },
      {
        "type": "note_off",
        "note": 42,
        "time": 31492,
        "channel": 9
      },
      {
        "type": "note_on",
        "note": 38,
        "velocity": 36,
        "time": 31542,
        "channel": 9
      },
      {
        "type": "note_off",
        "note": 38,
        "time": 31619,
        "channel": 9
      },
      {
        "type": "note_on",
        "note": 38,
        "velocity": 66,
        "time": 31667,
        "channel": 9
      },
      {
        "type": "note_off",
        "note": 38,
        "time": 31744,
        "channel": 9
      },
      {
        "type": "note_on",
        "note": 38,
        "velocity": 64,
        "time": 31794,
        "channel": 9
      },
      {
        "type": "note_off",
        "note": 38,
        "time": 31871,
        "channel": 9
      },
      {
        "type": "note_on",
        "note": 38,
        "velocity": 61,
        "time": 31914,
        "channel": 9
      },
      {
        "type": "note_off",
        "note": 38,
        "time": 31990,
        "channel": 9
      },
      {
        "type": "note_on",
        "note": 36,
        "velocity": 47,
        "time": 32022,
        "channel": 9
      },
      {
        "type": "note_off",
        "note": 36,
        "time": 32099,
        "channel": 9
      },
      {
        "type": "note_on",
        "note": 40,
        "velocity": 95,
        "time": 32147,
        "channel": 9
      },
      {
        "type": "note_on",
        "note": 38,
        "velocity": 119,
        "time": 32177,
        "channel": 9
      },
      {
        "type": "note_off",
        "note": 40,
        "time": 32223,
        "channel": 9
      },
      {
        "type": "note_off",
        "note": 38,
        "time": 32253,
        "channel": 9
      },
      {
        "type": "note_on",
        "note": 36,
        "velocity": 49,
        "time": 32264,
        "channel": 9
      },
      {
        "type": "note_off",
        "note": 36,
        "time": 32341,
        "channel": 9
      },
      {
        "type": "note_on",
        "note": 44,
        "velocity": 72,
        "time": 32375,
        "channel": 9
      },
      {
        "type": "note_off",
        "note": 44,
        "time": 32452,
        "channel": 9
      },
      {
        "type": "note_on",
        "note": 36,
        "velocity": 69,
        "time": 32633,
        "channel": 9
      },
      {
        "type": "note_on",
        "note": 55,
        "velocity": 95,
        "time": 32636,
        "channel": 9
      },
      {
        "type": "note_off",
        "note": 36,
        "time": 32710,
        "channel": 9
      },
      {
        "type": "note_off",
        "note": 55,
        "time": 32712,
        "channel": 9
      },
      {
        "type": "note_on",
        "note": 38,
        "velocity": 22,
        "time": 32745,
        "channel": 9
      },
      {
        "type": "note_off",
        "note": 38,
        "time": 32822,
        "channel": 9
      },
      {
        "type": "note_on",
        "note": 38,
        "velocity": 26,
        "time": 32876,
        "channel": 9
      },
      {
        "type": "note_off",
        "note": 38,
        "time": 32953,
        "channel": 9
      },
      {
        "type": "note_on",
        "note": 36,
        "velocity": 51,
        "time": 32976,
        "channel": 9
      },
      {
        "type": "note_off",
        "note": 36,
        "time": 33053,
        "channel": 9
      },
      {
        "type": "note_on",
        "note": 22,
        "velocity": 127,
        "time": 33124,
        "channel": 9
      },
      {
        "type": "note_off",
        "note": 22,
        "time": 33201,
        "channel": 9
      },
      {
        "type": "note_on",
        "note": 38,
        "velocity": 30,
        "time": 33228,
        "channel": 9
      },
      {
        "type": "note_off",
        "note": 38,
        "time": 33305,
        "channel": 9
      },
      {
        "type": "note_on",
        "note": 42,
        "velocity": 23,
        "time": 33322,
        "channel": 9
      },
      {
        "type": "note_off",
        "note": 42,
        "time": 33399,
        "channel": 9
      },
      {
        "type": "note_on",
        "note": 38,
        "velocity": 69,
        "time": 33439,
        "channel": 9
      },
      {
        "type": "note_off",
        "note": 38,
        "time": 33516,
        "channel": 9
      },
      {
        "type": "note_on",
        "note": 42,
        "velocity": 127,
        "time": 33580,
        "channel": 9
      },
      {
        "type": "note_off",
        "note": 42,
        "time": 33657,
        "channel": 9
      },
      {
        "type": "note_on",
        "note": 38,
        "velocity": 19,
        "time": 33684,
        "channel": 9
      },
      {
        "type": "note_off",
        "note": 38,
        "time": 33760,
        "channel": 9
      },
      {
        "type": "note_on",
        "note": 38,
        "velocity": 26,
        "time": 33790,
        "channel": 9
      },
      {
        "type": "note_on",
        "note": 42,
        "velocity": 15,
        "time": 33796,
        "channel": 9
      },
      {
        "type": "note_off",
        "note": 38,
        "time": 33867,
        "channel": 9
      },
      {
        "type": "note_off",
        "note": 42,
        "time": 33873,
        "channel": 9
      },
      {
        "type": "note_on",
        "note": 36,
        "velocity": 48,
        "time": 33902,
        "channel": 9
      },
      {
        "type": "note_on",
        "note": 42,
        "velocity": 20,
        "time": 33910,
        "channel": 9
      },
      {
        "type": "note_off",
        "note": 36,
        "time": 33979,
        "channel": 9
      },
      {
        "type": "note_off",
        "note": 42,
        "time": 33988,
        "channel": 9
      },
      {
        "type": "note_on",
        "note": 40,
        "velocity": 101,
        "time": 34048,
        "channel": 9
      },
      {
        "type": "note_on",
        "note": 26,
        "velocity": 100,
        "time": 34050,
        "channel": 9
      },
      {
        "type": "note_off",
        "note": 40,
        "time": 34125,
        "channel": 9
      },
      {
        "type": "note_off",
        "note": 26,
        "time": 34127,
        "channel": 9
      },
      {
        "type": "note_on",
        "note": 44,
        "velocity": 65,
        "time": 34287,
        "channel": 9
      },
      {
        "type": "note_on",
        "note": 26,
        "velocity": 56,
        "time": 34290,
        "channel": 9
      },
      {
        "type": "note_off",
        "note": 44,
        "time": 34363,
        "channel": 9
      },
      {
        "type": "note_off",
        "note": 26,
        "time": 34367,
        "channel": 9
      },
      {
        "type": "note_on",
        "note": 38,
        "velocity": 23,
        "time": 34397,
        "channel": 9
      },
      {
        "type": "note_off",
        "note": 38,
        "time": 34452,
        "channel": 9
      },
      {
        "type": "note_on",
        "note": 38,
        "velocity": 27,
        "time": 34452,
        "channel": 9
      },
      {
        "type": "note_off",
        "note": 38,
        "time": 34474,
        "channel": 9
      },
      {
        "type": "note_on",
        "note": 36,
        "velocity": 55,
        "time": 34527,
        "channel": 9
      },
      {
        "type": "note_on",
        "note": 22,
        "velocity": 70,
        "time": 34535,
        "channel": 9
      },
      {
        "type": "note_off",
        "note": 36,
        "time": 34603,
        "channel": 9
      },
      {
        "type": "note_off",
        "note": 22,
        "time": 34612,
        "channel": 9
      },
      {
        "type": "note_on",
        "note": 42,
        "velocity": 14,
        "time": 34652,
        "channel": 9
      },
      {
        "type": "note_off",
        "note": 42,
        "time": 34729,
        "channel": 9
      },
      {
        "type": "note_on",
        "note": 38,
        "velocity": 80,
        "time": 34762,
        "channel": 9
      },
      {
        "type": "note_off",
        "note": 38,
        "time": 34839,
        "channel": 9
      },
      {
        "type": "note_on",
        "note": 36,
        "velocity": 57,
        "time": 34891,
        "channel": 9
      },
      {
        "type": "note_on",
        "note": 42,
        "velocity": 39,
        "time": 34893,
        "channel": 9
      },
      {
        "type": "note_off",
        "note": 36,
        "time": 34967,
        "channel": 9
      },
      {
        "type": "note_off",
        "note": 42,
        "time": 34970,
        "channel": 9
      },
      {
        "type": "note_on",
        "note": 42,
        "velocity": 21,
        "time": 35021,
        "channel": 9
      },
      {
        "type": "note_off",
        "note": 42,
        "time": 35098,
        "channel": 9
      },
      {
        "type": "note_on",
        "note": 38,
        "velocity": 80,
        "time": 35134,
        "channel": 9
      },
      {
        "type": "note_off",
        "note": 38,
        "time": 35211,
        "channel": 9
      },
      {
        "type": "note_on",
        "note": 42,
        "velocity": 16,
        "time": 35252,
        "channel": 9
      },
      {
        "type": "note_off",
        "note": 42,
        "time": 35329,
        "channel": 9
      },
      {
        "type": "note_on",
        "note": 36,
        "velocity": 44,
        "time": 35359,
        "channel": 9
      },
      {
        "type": "note_on",
        "note": 26,
        "velocity": 68,
        "time": 35372,
        "channel": 9
      },
      {
        "type": "note_off",
        "note": 36,
        "time": 35436,
        "channel": 9
      },
      {
        "type": "note_off",
        "note": 26,
        "time": 35448,
        "channel": 9
      },
      {
        "type": "note_on",
        "note": 44,
        "velocity": 65,
        "time": 35451,
        "channel": 9
      },
      {
        "type": "note_off",
        "note": 44,
        "time": 35527,
        "channel": 9
      },
      {
        "type": "note_on",
        "note": 38,
        "velocity": 6,
        "time": 35572,
        "channel": 9
      },
      {
        "type": "note_on",
        "note": 36,
        "velocity": 27,
        "time": 35597,
        "channel": 9
      },
      {
        "type": "note_on",
        "note": 42,
        "velocity": 36,
        "time": 35604,
        "channel": 9
      },
      {
        "type": "note_off",
        "note": 38,
        "time": 35649,
        "channel": 9
      },
      {
        "type": "note_off",
        "note": 36,
        "time": 35674,
        "channel": 9
      },
      {
        "type": "note_off",
        "note": 42,
        "time": 35681,
        "channel": 9
      },
      {
        "type": "note_on",
        "note": 36,
        "velocity": 63,
        "time": 35736,
        "channel": 9
      },
      {
        "type": "note_on",
        "note": 26,
        "velocity": 74,
        "time": 35741,
        "channel": 9
      },
      {
        "type": "note_off",
        "note": 36,
        "time": 35812,
        "channel": 9
      },
      {
        "type": "note_off",
        "note": 26,
        "time": 35818,
        "channel": 9
      },
      {
        "type": "note_on",
        "note": 40,
        "velocity": 124,
        "time": 35977,
        "channel": 9
      },
      {
        "type": "note_on",
        "note": 44,
        "velocity": 57,
        "time": 35983,
        "channel": 9
      },
      {
        "type": "note_off",
        "note": 40,
        "time": 36053,
        "channel": 9
      },
      {
        "type": "note_off",
        "note": 44,
        "time": 36059,
        "channel": 9
      },
      {
        "type": "note_on",
        "note": 42,
        "velocity": 34,
        "time": 36116,
        "channel": 9
      },
      {
        "type": "note_off",
        "note": 42,
        "time": 36193,
        "channel": 9
      },
      {
        "type": "note_on",
        "note": 22,
        "velocity": 78,
        "time": 36251,
        "channel": 9
      },
      {
        "type": "note_off",
        "note": 22,
        "time": 36328,
        "channel": 9
      },
      {
        "type": "note_on",
        "note": 38,
        "velocity": 24,
        "time": 36353,
        "channel": 9
      },
      {
        "type": "note_off",
        "note": 38,
        "time": 36425,
        "channel": 9
      },
      {
        "type": "note_on",
        "note": 38,
        "velocity": 35,
        "time": 36425,
        "channel": 9
      },
      {
        "type": "note_off",
        "note": 38,
        "time": 36429,
        "channel": 9
      },
      {
        "type": "note_on",
        "note": 36,
        "velocity": 56,
        "time": 36486,
        "channel": 9
      },
      {
        "type": "note_on",
        "note": 22,
        "velocity": 72,
        "time": 36499,
        "channel": 9
      },
      {
        "type": "note_off",
        "note": 36,
        "time": 36563,
        "channel": 9
      },
      {
        "type": "note_off",
        "note": 22,
        "time": 36576,
        "channel": 9
      },
      {
        "type": "note_on",
        "note": 42,
        "velocity": 18,
        "time": 36613,
        "channel": 9
      },
      {
        "type": "note_off",
        "note": 42,
        "time": 36690,
        "channel": 9
      },
      {
        "type": "note_on",
        "note": 38,
        "velocity": 77,
        "time": 36717,
        "channel": 9
      },
      {
        "type": "note_off",
        "note": 38,
        "time": 36794,
        "channel": 9
      },
      {
        "type": "note_on",
        "note": 36,
        "velocity": 53,
        "time": 36841,
        "channel": 9
      },
      {
        "type": "note_on",
        "note": 42,
        "velocity": 27,
        "time": 36851,
        "channel": 9
      },
      {
        "type": "note_off",
        "note": 36,
        "time": 36918,
        "channel": 9
      },
      {
        "type": "note_off",
        "note": 42,
        "time": 36927,
        "channel": 9
      },
      {
        "type": "note_on",
        "note": 42,
        "velocity": 30,
        "time": 36969,
        "channel": 9
      },
      {
        "type": "note_off",
        "note": 42,
        "time": 37046,
        "channel": 9
      },
      {
        "type": "note_on",
        "note": 38,
        "velocity": 88,
        "time": 37079,
        "channel": 9
      },
      {
        "type": "note_off",
        "note": 38,
        "time": 37156,
        "channel": 9
      },
      {
        "type": "note_on",
        "note": 42,
        "velocity": 15,
        "time": 37198,
        "channel": 9
      },
      {
        "type": "note_off",
        "note": 42,
        "time": 37275,
        "channel": 9
      },
      {
        "type": "note_on",
        "note": 36,
        "velocity": 49,
        "time": 37309,
        "channel": 9
      },
      {
        "type": "note_on",
        "note": 26,
        "velocity": 71,
        "time": 37318,
        "channel": 9
      },
      {
        "type": "note_off",
        "note": 36,
        "time": 37386,
        "channel": 9
      },
      {
        "type": "note_off",
        "note": 26,
        "time": 37395,
        "channel": 9
      },
      {
        "type": "note_on",
        "note": 44,
        "velocity": 62,
        "time": 37408,
        "channel": 9
      },
      {
        "type": "note_on",
        "note": 38,
        "velocity": 24,
        "time": 37434,
        "channel": 9
      },
      {
        "type": "note_off",
        "note": 44,
        "time": 37484,
        "channel": 9
      },
      {
        "type": "note_off",
        "note": 38,
        "time": 37510,
        "channel": 9
      },
      {
        "type": "note_on",
        "note": 42,
        "velocity": 24,
        "time": 37534,
        "channel": 9
      },
      {
        "type": "note_on",
        "note": 36,
        "velocity": 26,
        "time": 37543,
        "channel": 9
      },
      {
        "type": "note_off",
        "note": 42,
        "time": 37611,
        "channel": 9
      },
      {
        "type": "note_off",
        "note": 36,
        "time": 37620,
        "channel": 9
      },
      {
        "type": "note_on",
        "note": 36,
        "velocity": 67,
        "time": 37667,
        "channel": 9
      },
      {
        "type": "note_on",
        "note": 26,
        "velocity": 75,
        "time": 37680,
        "channel": 9
      },
      {
        "type": "note_off",
        "note": 36,
        "time": 37744,
        "channel": 9
      },
      {
        "type": "note_off",
        "note": 26,
        "time": 37757,
        "channel": 9
      },
      {
        "type": "note_on",
        "note": 44,
        "velocity": 57,
        "time": 37900,
        "channel": 9
      },
      {
        "type": "note_on",
        "note": 40,
        "velocity": 127,
        "time": 37915,
        "channel": 9
      },
      {
        "type": "note_off",
        "note": 44,
        "time": 37977,
        "channel": 9
      },
      {
        "type": "note_off",
        "note": 40,
        "time": 37992,
        "channel": 9
      },
      {
        "type": "note_on",
        "note": 42,
        "velocity": 18,
        "time": 38037,
        "channel": 9
      },
      {
        "type": "note_off",
        "note": 42,
        "time": 38114,
        "channel": 9
      },
      {
        "type": "note_on",
        "note": 22,
        "velocity": 70,
        "time": 38167,
        "channel": 9
      },
      {
        "type": "note_off",
        "note": 22,
        "time": 38244,
        "channel": 9
      },
      {
        "type": "note_on",
        "note": 38,
        "velocity": 26,
        "time": 38281,
        "channel": 9
      },
      {
        "type": "note_off",
        "note": 38,
        "time": 38342,
        "channel": 9
      },
      {
        "type": "note_on",
        "note": 38,
        "velocity": 29,
        "time": 38342,
        "channel": 9
      },
      {
        "type": "note_off",
        "note": 38,
        "time": 38358,
        "channel": 9
      },
      {
        "type": "note_on",
        "note": 36,
        "velocity": 58,
        "time": 38405,
        "channel": 9
      },
      {
        "type": "note_on",
        "note": 42,
        "velocity": 27,
        "time": 38415,
        "channel": 9
      },
      {
        "type": "note_off",
        "note": 36,
        "time": 38482,
        "channel": 9
      },
      {
        "type": "note_off",
        "note": 42,
        "time": 38492,
        "channel": 9
      },
      {
        "type": "note_on",
        "note": 42,
        "velocity": 21,
        "time": 38522,
        "channel": 9
      },
      {
        "type": "note_off",
        "note": 42,
        "time": 38599,
        "channel": 9
      },
      {
        "type": "note_on",
        "note": 38,
        "velocity": 75,
        "time": 38630,
        "channel": 9
      },
      {
        "type": "note_off",
        "note": 38,
        "time": 38664,
        "channel": 9
      },
      {
        "type": "note_on",
        "note": 38,
        "velocity": 40,
        "time": 38664,
        "channel": 9
      },
      {
        "type": "note_off",
        "note": 38,
        "time": 38707,
        "channel": 9
      },
      {
        "type": "note_on",
        "note": 42,
        "velocity": 20,
        "time": 38756,
        "channel": 9
      },
      {
        "type": "note_on",
        "note": 36,
        "velocity": 57,
        "time": 38773,
        "channel": 9
      },
      {
        "type": "note_off",
        "note": 42,
        "time": 38834,
        "channel": 9
      },
      {
        "type": "note_off",
        "note": 36,
        "time": 38850,
        "channel": 9
      },
      {
        "type": "note_on",
        "note": 42,
        "velocity": 7,
        "time": 38888,
        "channel": 9
      },
      {
        "type": "note_off",
        "note": 42,
        "time": 38965,
        "channel": 9
      },
      {
        "type": "note_on",
        "note": 37,
        "velocity": 74,
        "time": 38983,
        "channel": 9
      },
      {
        "type": "note_on",
        "note": 38,
        "velocity": 55,
        "time": 39005,
        "channel": 9
      },
      {
        "type": "note_off",
        "note": 37,
        "time": 39059,
        "channel": 9
      },
      {
        "type": "note_off",
        "note": 38,
        "time": 39082,
        "channel": 9
      },
      {
        "type": "note_on",
        "note": 42,
        "velocity": 22,
        "time": 39099,
        "channel": 9
      },
      {
        "type": "note_off",
        "note": 42,
        "time": 39175,
        "channel": 9
      },
      {
        "type": "note_on",
        "note": 26,
        "velocity": 66,
        "time": 39222,
        "channel": 9
      },
      {
        "type": "note_on",
        "note": 36,
        "velocity": 51,
        "time": 39223,
        "channel": 9
      },
      {
        "type": "note_off",
        "note": 26,
        "time": 39299,
        "channel": 9
      },
      {
        "type": "note_off",
        "note": 36,
        "time": 39299,
        "channel": 9
      },
      {
        "type": "note_on",
        "note": 44,
        "velocity": 67,
        "time": 39324,
        "channel": 9
      },
      {
        "type": "note_on",
        "note": 38,
        "velocity": 12,
        "time": 39353,
        "channel": 9
      },
      {
        "type": "note_off",
        "note": 44,
        "time": 39401,
        "channel": 9
      },
      {
        "type": "note_off",
        "note": 38,
        "time": 39430,
        "channel": 9
      },
      {
        "type": "note_on",
        "note": 36,
        "velocity": 27,
        "time": 39446,
        "channel": 9
      },
      {
        "type": "note_on",
        "note": 42,
        "velocity": 24,
        "time": 39452,
        "channel": 9
      },
      {
        "type": "note_off",
        "note": 36,
        "time": 39523,
        "channel": 9
      },
      {
        "type": "note_off",
        "note": 42,
        "time": 39529,
        "channel": 9
      },
      {
        "type": "note_on",
        "note": 26,
        "velocity": 84,
        "time": 39584,
        "channel": 9
      },
      {
        "type": "note_on",
        "note": 36,
        "velocity": 66,
        "time": 39587,
        "channel": 9
      },
      {
        "type": "note_off",
        "note": 26,
        "time": 39662,
        "channel": 9
      },
      {
        "type": "note_off",
        "note": 36,
        "time": 39664,
        "channel": 9
      },
      {
        "type": "note_on",
        "note": 40,
        "velocity": 127,
        "time": 39826,
        "channel": 9
      },
      {
        "type": "note_on",
        "note": 44,
        "velocity": 57,
        "time": 39828,
        "channel": 9
      },
      {
        "type": "note_off",
        "note": 40,
        "time": 39903,
        "channel": 9
      },
      {
        "type": "note_off",
        "note": 44,
        "time": 39905,
        "channel": 9
      },
      {
        "type": "note_on",
        "note": 42,
        "velocity": 35,
        "time": 39947,
        "channel": 9
      },
      {
        "type": "note_off",
        "note": 42,
        "time": 40024,
        "channel": 9
      },
      {
        "type": "note_on",
        "note": 22,
        "velocity": 74,
        "time": 40075,
        "channel": 9
      },
      {
        "type": "note_off",
        "note": 22,
        "time": 40151,
        "channel": 9
      },
      {
        "type": "note_on",
        "note": 38,
        "velocity": 31,
        "time": 40197,
        "channel": 9
      },
      {
        "type": "note_off",
        "note": 38,
        "time": 40249,
        "channel": 9
      },
      {
        "type": "note_on",
        "note": 38,
        "velocity": 36,
        "time": 40249,
        "channel": 9
      },
      {
        "type": "note_off",
        "note": 38,
        "time": 40274,
        "channel": 9
      },
      {
        "type": "note_on",
        "note": 36,
        "velocity": 62,
        "time": 40316,
        "channel": 9
      },
      {
        "type": "note_on",
        "note": 22,
        "velocity": 88,
        "time": 40323,
        "channel": 9
      },
      {
        "type": "note_off",
        "note": 36,
        "time": 40392,
        "channel": 9
      },
      {
        "type": "note_off",
        "note": 22,
        "time": 40400,
        "channel": 9
      },
      {
        "type": "note_on",
        "note": 38,
        "velocity": 29,
        "time": 40439,
        "channel": 9
      },
      {
        "type": "note_off",
        "note": 38,
        "time": 40516,
        "channel": 9
      },
      {
        "type": "note_on",
        "note": 42,
        "velocity": 36,
        "time": 40539,
        "channel": 9
      },
      {
        "type": "note_on",
        "note": 38,
        "velocity": 28,
        "time": 40546,
        "channel": 9
      },
      {
        "type": "note_off",
        "note": 42,
        "time": 40616,
        "channel": 9
      },
      {
        "type": "note_off",
        "note": 38,
        "time": 40622,
        "channel": 9
      },
      {
        "type": "note_on",
        "note": 36,
        "velocity": 61,
        "time": 40649,
        "channel": 9
      },
      {
        "type": "note_on",
        "note": 42,
        "velocity": 30,
        "time": 40656,
        "channel": 9
      },
      {
        "type": "note_off",
        "note": 36,
        "time": 40726,
        "channel": 9
      },
      {
        "type": "note_off",
        "note": 42,
        "time": 40733,
        "channel": 9
      },
      {
        "type": "note_on",
        "note": 22,
        "velocity": 57,
        "time": 40779,
        "channel": 9
      },
      {
        "type": "note_off",
        "note": 22,
        "time": 40857,
        "channel": 9
      },
      {
        "type": "note_on",
        "note": 37,
        "velocity": 79,
        "time": 40896,
        "channel": 9
      },
      {
        "type": "note_off",
        "note": 37,
        "time": 40973,
        "channel": 9
      },
      {
        "type": "note_on",
        "note": 42,
        "velocity": 28,
        "time": 40999,
        "channel": 9
      },
      {
        "type": "note_off",
        "note": 42,
        "time": 41076,
        "channel": 9
      },
      {
        "type": "note_on",
        "note": 36,
        "velocity": 63,
        "time": 41123,
        "channel": 9
      },
      {
        "type": "note_on",
        "note": 26,
        "velocity": 64,
        "time": 41133,
        "channel": 9
      },
      {
        "type": "note_off",
        "note": 36,
        "time": 41199,
        "channel": 9
      },
      {
        "type": "note_off",
        "note": 26,
        "time": 41210,
        "channel": 9
      },
      {
        "type": "note_on",
        "note": 44,
        "velocity": 47,
        "time": 41240,
        "channel": 9
      },
      {
        "type": "note_on",
        "note": 38,
        "velocity": 12,
        "time": 41246,
        "channel": 9
      },
      {
        "type": "note_off",
        "note": 44,
        "time": 41317,
        "channel": 9
      },
      {
        "type": "note_off",
        "note": 38,
        "time": 41323,
        "channel": 9
      },
      {
        "type": "note_on",
        "note": 42,
        "velocity": 32,
        "time": 41364,
        "channel": 9
      },
      {
        "type": "note_off",
        "note": 42,
        "time": 41442,
        "channel": 9
      },
      {
        "type": "note_on",
        "note": 22,
        "velocity": 71,
        "time": 41490,
        "channel": 9
      },
      {
        "type": "note_on",
        "note": 36,
        "velocity": 70,
        "time": 41495,
        "channel": 9
      },
      {
        "type": "note_off",
        "note": 22,
        "time": 41566,
        "channel": 9
      },
      {
        "type": "note_off",
        "note": 36,
        "time": 41572,
        "channel": 9
      },
      {
        "type": "note_on",
        "note": 44,
        "velocity": 35,
        "time": 41715,
        "channel": 9
      },
      {
        "type": "note_on",
        "note": 40,
        "velocity": 112,
        "time": 41735,
        "channel": 9
      },
      {
        "type": "note_on",
        "note": 42,
        "velocity": 40,
        "time": 41756,
        "channel": 9
      },
      {
        "type": "note_off",
        "note": 44,
        "time": 41792,
        "channel": 9
      },
      {
        "type": "note_off",
        "note": 40,
        "time": 41811,
        "channel": 9
      },
      {
        "type": "note_off",
        "note": 42,
        "time": 41833,
        "channel": 9
      },
      {
        "type": "note_on",
        "note": 38,
        "velocity": 20,
        "time": 41877,
        "channel": 9
      },
      {
        "type": "note_off",
        "note": 38,
        "time": 41954,
        "channel": 9
      },
      {
        "type": "note_on",
        "note": 22,
        "velocity": 72,
        "time": 41984,
        "channel": 9
      },
      {
        "type": "note_off",
        "note": 22,
        "time": 42060,
        "channel": 9
      },
      {
        "type": "note_on",
        "note": 38,
        "velocity": 22,
        "time": 42098,
        "channel": 9
      },
      {
        "type": "note_off",
        "note": 38,
        "time": 42149,
        "channel": 9
      },
      {
        "type": "note_on",
        "note": 38,
        "velocity": 15,
        "time": 42149,
        "channel": 9
      },
      {
        "type": "note_off",
        "note": 38,
        "time": 42174,
        "channel": 9
      },
      {
        "type": "note_on",
        "note": 38,
        "velocity": 10,
        "time": 42180,
        "channel": 9
      },
      {
        "type": "note_on",
        "note": 36,
        "velocity": 64,
        "time": 42226,
        "channel": 9
      },
      {
        "type": "note_off",
        "note": 38,
        "time": 42226,
        "channel": 9
      },
      {
        "type": "note_on",
        "note": 22,
        "velocity": 72,
        "time": 42229,
        "channel": 9
      },
      {
        "type": "note_off",
        "note": 36,
        "time": 42303,
        "channel": 9
      },
      {
        "type": "note_off",
        "note": 22,
        "time": 42306,
        "channel": 9
      },
      {
        "type": "note_on",
        "note": 22,
        "velocity": 39,
        "time": 42345,
        "channel": 9
      },
      {
        "type": "note_off",
        "note": 22,
        "time": 42422,
        "channel": 9
      },
      {
        "type": "note_on",
        "note": 37,
        "velocity": 65,
        "time": 42465,
        "channel": 9
      },
      {
        "type": "note_off",
        "note": 37,
        "time": 42542,
        "channel": 9
      },
      {
        "type": "note_on",
        "note": 36,
        "velocity": 65,
        "time": 42585,
        "channel": 9
      },
      {
        "type": "note_on",
        "note": 42,
        "velocity": 47,
        "time": 42587,
        "channel": 9
      },
      {
        "type": "note_off",
        "note": 36,
        "time": 42661,
        "channel": 9
      },
      {
        "type": "note_off",
        "note": 42,
        "time": 42664,
        "channel": 9
      },
      {
        "type": "note_on",
        "note": 42,
        "velocity": 24,
        "time": 42700,
        "channel": 9
      },
      {
        "type": "note_off",
        "note": 42,
        "time": 42777,
        "channel": 9
      },
      {
        "type": "note_on",
        "note": 38,
        "velocity": 80,
        "time": 42813,
        "channel": 9
      },
      {
        "type": "note_off",
        "note": 38,
        "time": 42890,
        "channel": 9
      },
      {
        "type": "note_on",
        "note": 42,
        "velocity": 27,
        "time": 42926,
        "channel": 9
      },
      {
        "type": "note_off",
        "note": 42,
        "time": 43003,
        "channel": 9
      },
      {
        "type": "note_on",
        "note": 26,
        "velocity": 79,
        "time": 43055,
        "channel": 9
      },
      {
        "type": "note_on",
        "note": 36,
        "velocity": 58,
        "time": 43055,
        "channel": 9
      },
      {
        "type": "note_off",
        "note": 26,
        "time": 43131,
        "channel": 9
      },
      {
        "type": "note_off",
        "note": 36,
        "time": 43131,
        "channel": 9
      },
      {
        "type": "note_on",
        "note": 44,
        "velocity": 60,
        "time": 43174,
        "channel": 9
      },
      {
        "type": "note_off",
        "note": 44,
        "time": 43250,
        "channel": 9
      },
      {
        "type": "note_on",
        "note": 42,
        "velocity": 24,
        "time": 43303,
        "channel": 9
      },
      {
        "type": "note_off",
        "note": 42,
        "time": 43380,
        "channel": 9
      },
      {
        "type": "note_on",
        "note": 36,
        "velocity": 45,
        "time": 43432,
        "channel": 9
      },
      {
        "type": "note_on",
        "note": 26,
        "velocity": 87,
        "time": 43437,
        "channel": 9
      },
      {
        "type": "note_off",
        "note": 36,
        "time": 43509,
        "channel": 9
      },
      {
        "type": "note_off",
        "note": 26,
        "time": 43513,
        "channel": 9
      },
      {
        "type": "note_on",
        "note": 44,
        "velocity": 42,
        "time": 43677,
        "channel": 9
      },
      {
        "type": "note_on",
        "note": 40,
        "velocity": 127,
        "time": 43678,
        "channel": 9
      },
      {
        "type": "note_off",
        "note": 44,
        "time": 43754,
        "channel": 9
      },
      {
        "type": "note_off",
        "note": 40,
        "time": 43755,
        "channel": 9
      },
      {
        "type": "note_on",
        "note": 22,
        "velocity": 76,
        "time": 43926,
        "channel": 9
      },
      {
        "type": "note_off",
        "note": 22,
        "time": 44003,
        "channel": 9
      },
      {
        "type": "note_on",
        "note": 38,
        "velocity": 23,
        "time": 44038,
        "channel": 9
      },
      {
        "type": "note_off",
        "note": 38,
        "time": 44093,
        "channel": 9
      },
      {
        "type": "note_on",
        "note": 38,
        "velocity": 20,
        "time": 44093,
        "channel": 9
      },
      {
        "type": "note_off",
        "note": 38,
        "time": 44115,
        "channel": 9
      },
      {
        "type": "note_on",
        "note": 38,
        "velocity": 15,
        "time": 44125,
        "channel": 9
      },
      {
        "type": "note_on",
        "note": 36,
        "velocity": 61,
        "time": 44157,
        "channel": 9
      },
      {
        "type": "note_on",
        "note": 42,
        "velocity": 29,
        "time": 44162,
        "channel": 9
      },
      {
        "type": "note_off",
        "note": 38,
        "time": 44170,
        "channel": 9
      },
      {
        "type": "note_off",
        "note": 36,
        "time": 44233,
        "channel": 9
      },
      {
        "type": "note_off",
        "note": 42,
        "time": 44238,
        "channel": 9
      },
      {
        "type": "note_on",
        "note": 42,
        "velocity": 22,
        "time": 44267,
        "channel": 9
      },
      {
        "type": "note_off",
        "note": 42,
        "time": 44343,
        "channel": 9
      },
      {
        "type": "note_on",
        "note": 38,
        "velocity": 50,
        "time": 44390,
        "channel": 9
      },
      {
        "type": "note_off",
        "note": 38,
        "time": 44467,
        "channel": 9
      },
      {
        "type": "note_on",
        "note": 42,
        "velocity": 39,
        "time": 44496,
        "channel": 9
      },
      {
        "type": "note_on",
        "note": 36,
        "velocity": 61,
        "time": 44511,
        "channel": 9
      },
      {
        "type": "note_off",
        "note": 42,
        "time": 44573,
        "channel": 9
      },
      {
        "type": "note_off",
        "note": 36,
        "time": 44587,
        "channel": 9
      },
      {
        "type": "note_on",
        "note": 42,
        "velocity": 26,
        "time": 44619,
        "channel": 9
      },
      {
        "type": "note_off",
        "note": 42,
        "time": 44696,
        "channel": 9
      },
      {
        "type": "note_on",
        "note": 38,
        "velocity": 86,
        "time": 44747,
        "channel": 9
      },
      {
        "type": "note_off",
        "note": 38,
        "time": 44824,
        "channel": 9
      },
      {
        "type": "note_on",
        "note": 42,
        "velocity": 28,
        "time": 44868,
        "channel": 9
      },
      {
        "type": "note_off",
        "note": 42,
        "time": 44945,
        "channel": 9
      },
      {
        "type": "note_on",
        "note": 36,
        "velocity": 57,
        "time": 44989,
        "channel": 9
      },
      {
        "type": "note_on",
        "note": 26,
        "velocity": 55,
        "time": 44998,
        "channel": 9
      },
      {
        "type": "note_off",
        "note": 36,
        "time": 45065,
        "channel": 9
      },
      {
        "type": "note_off",
        "note": 26,
        "time": 45075,
        "channel": 9
      },
      {
        "type": "note_on",
        "note": 44,
        "velocity": 55,
        "time": 45099,
        "channel": 9
      },
      {
        "type": "note_on",
        "note": 38,
        "velocity": 13,
        "time": 45111,
        "channel": 9
      },
      {
        "type": "note_off",
        "note": 44,
        "time": 45176,
        "channel": 9
      },
      {
        "type": "note_off",
        "note": 38,
        "time": 45188,
        "channel": 9
      },
      {
        "type": "note_on",
        "note": 42,
        "velocity": 32,
        "time": 45234,
        "channel": 9
      },
      {
        "type": "note_on",
        "note": 36,
        "velocity": 27,
        "time": 45259,
        "channel": 9
      },
      {
        "type": "note_off",
        "note": 42,
        "time": 45311,
        "channel": 9
      },
      {
        "type": "note_off",
        "note": 36,
        "time": 45335,
        "channel": 9
      },
      {
        "type": "note_on",
        "note": 36,
        "velocity": 47,
        "time": 45348,
        "channel": 9
      },
      {
        "type": "note_on",
        "note": 26,
        "velocity": 76,
        "time": 45361,
        "channel": 9
      },
      {
        "type": "note_off",
        "note": 36,
        "time": 45424,
        "channel": 9
      },
      {
        "type": "note_off",
        "note": 26,
        "time": 45438,
        "channel": 9
      },
      {
        "type": "note_on",
        "note": 44,
        "velocity": 47,
        "time": 45604,
        "channel": 9
      },
      {
        "type": "note_on",
        "note": 40,
        "velocity": 105,
        "time": 45609,
        "channel": 9
      },
      {
        "type": "note_on",
        "note": 42,
        "velocity": 50,
        "time": 45630,
        "channel": 9
      },
      {
        "type": "note_off",
        "note": 44,
        "time": 45680,
        "channel": 9
      },
      {
        "type": "note_off",
        "note": 40,
        "time": 45686,
        "channel": 9
      },
      {
        "type": "note_off",
        "note": 42,
        "time": 45707,
        "channel": 9
      },
      {
        "type": "note_on",
        "note": 38,
        "velocity": 7,
        "time": 45753,
        "channel": 9
      },
      {
        "type": "note_off",
        "note": 38,
        "time": 45830,
        "channel": 9
      },
      {
        "type": "note_on",
        "note": 22,
        "velocity": 79,
        "time": 45837,
        "channel": 9
      },
      {
        "type": "note_off",
        "note": 22,
        "time": 45914,
        "channel": 9
      },
      {
        "type": "note_on",
        "note": 38,
        "velocity": 20,
        "time": 45953,
        "channel": 9
      },
      {
        "type": "note_off",
        "note": 38,
        "time": 46002,
        "channel": 9
      },
      {
        "type": "note_on",
        "note": 38,
        "velocity": 25,
        "time": 46002,
        "channel": 9
      },
      {
        "type": "note_off",
        "note": 38,
        "time": 46029,
        "channel": 9
      },
      {
        "type": "note_on",
        "note": 36,
        "velocity": 58,
        "time": 46062,
        "channel": 9
      },
      {
        "type": "note_on",
        "note": 42,
        "velocity": 27,
        "time": 46078,
        "channel": 9
      },
      {
        "type": "note_off",
        "note": 36,
        "time": 46138,
        "channel": 9
      },
      {
        "type": "note_off",
        "note": 42,
        "time": 46154,
        "channel": 9
      },
      {
        "type": "note_on",
        "note": 42,
        "velocity": 28,
        "time": 46183,
        "channel": 9
      },
      {
        "type": "note_off",
        "note": 42,
        "time": 46260,
        "channel": 9
      },
      {
        "type": "note_on",
        "note": 38,
        "velocity": 66,
        "time": 46298,
        "channel": 9
      },
      {
        "type": "note_off",
        "note": 38,
        "time": 46375,
        "channel": 9
      },
      {
        "type": "note_on",
        "note": 42,
        "velocity": 43,
        "time": 46423,
        "channel": 9
      },
      {
        "type": "note_on",
        "note": 36,
        "velocity": 57,
        "time": 46437,
        "channel": 9
      },
      {
        "type": "note_off",
        "note": 36,
        "time": 46500,
        "channel": 9
      },
      {
        "type": "note_on",
        "note": 36,
        "velocity": 7,
        "time": 46500,
        "channel": 9
      },
      {
        "type": "note_off",
        "note": 42,
        "time": 46500,
        "channel": 9
      },
      {
        "type": "note_off",
        "note": 36,
        "time": 46514,
        "channel": 9
      },
      {
        "type": "note_on",
        "note": 42,
        "velocity": 27,
        "time": 46543,
        "channel": 9
      },
      {
        "type": "note_off",
        "note": 42,
        "time": 46620,
        "channel": 9
      },
      {
        "type": "note_on",
        "note": 38,
        "velocity": 84,
        "time": 46662,
        "channel": 9
      },
      {
        "type": "note_off",
        "note": 38,
        "time": 46738,
        "channel": 9
      },
      {
        "type": "note_on",
        "note": 42,
        "velocity": 36,
        "time": 46775,
        "channel": 9
      },
      {
        "type": "note_off",
        "note": 42,
        "time": 46851,
        "channel": 9
      },
      {
        "type": "note_on",
        "note": 36,
        "velocity": 60,
        "time": 46908,
        "channel": 9
      },
      {
        "type": "note_on",
        "note": 26,
        "velocity": 71,
        "time": 46911,
        "channel": 9
      },
      {
        "type": "note_off",
        "note": 36,
        "time": 46985,
        "channel": 9
      },
      {
        "type": "note_off",
        "note": 26,
        "time": 46988,
        "channel": 9
      },
      {
        "type": "note_on",
        "note": 44,
        "velocity": 55,
        "time": 47016,
        "channel": 9
      },
      {
        "type": "note_on",
        "note": 38,
        "velocity": 20,
        "time": 47031,
        "channel": 9
      },
      {
        "type": "note_off",
        "note": 44,
        "time": 47093,
        "channel": 9
      },
      {
        "type": "note_off",
        "note": 38,
        "time": 47108,
        "channel": 9
      },
      {
        "type": "note_on",
        "note": 42,
        "velocity": 34,
        "time": 47131,
        "channel": 9
      },
      {
        "type": "note_off",
        "note": 42,
        "time": 47208,
        "channel": 9
      },
      {
        "type": "note_on",
        "note": 36,
        "velocity": 59,
        "time": 47259,
        "channel": 9
      },
      {
        "type": "note_on",
        "note": 26,
        "velocity": 83,
        "time": 47261,
        "channel": 9
      },
      {
        "type": "note_off",
        "note": 36,
        "time": 47335,
        "channel": 9
      },
      {
        "type": "note_off",
        "note": 26,
        "time": 47338,
        "channel": 9
      },
      {
        "type": "note_on",
        "note": 44,
        "velocity": 47,
        "time": 47478,
        "channel": 9
      },
      {
        "type": "note_on",
        "note": 40,
        "velocity": 108,
        "time": 47500,
        "channel": 9
      },
      {
        "type": "note_off",
        "note": 44,
        "time": 47554,
        "channel": 9
      },
      {
        "type": "note_off",
        "note": 40,
        "time": 47577,
        "channel": 9
      },
      {
        "type": "note_on",
        "note": 42,
        "velocity": 37,
        "time": 47626,
        "channel": 9
      },
      {
        "type": "note_off",
        "note": 42,
        "time": 47703,
        "channel": 9
      },
      {
        "type": "note_on",
        "note": 22,
        "velocity": 64,
        "time": 47742,
        "channel": 9
      },
      {
        "type": "note_off",
        "note": 22,
        "time": 47819,
        "channel": 9
      },
      {
        "type": "note_on",
        "note": 38,
        "velocity": 29,
        "time": 47853,
        "channel": 9
      },
      {
        "type": "note_off",
        "note": 38,
        "time": 47911,
        "channel": 9
      },
      {
        "type": "note_on",
        "note": 38,
        "velocity": 36,
        "time": 47911,
        "channel": 9
      },
      {
        "type": "note_off",
        "note": 38,
        "time": 47930,
        "channel": 9
      },
      {
        "type": "note_on",
        "note": 36,
        "velocity": 58,
        "time": 47965,
        "channel": 9
      },
      {
        "type": "note_on",
        "note": 22,
        "velocity": 64,
        "time": 47984,
        "channel": 9
      },
      {
        "type": "note_off",
        "note": 36,
        "time": 48041,
        "channel": 9
      },
      {
        "type": "note_off",
        "note": 22,
        "time": 48061,
        "channel": 9
      },
      {
        "type": "note_on",
        "note": 22,
        "velocity": 43,
        "time": 48090,
        "channel": 9
      },
      {
        "type": "note_off",
        "note": 22,
        "time": 48167,
        "channel": 9
      },
      {
        "type": "note_on",
        "note": 38,
        "velocity": 46,
        "time": 48205,
        "channel": 9
      },
      {
        "type": "note_off",
        "note": 38,
        "time": 48282,
        "channel": 9
      },
      {
        "type": "note_on",
        "note": 42,
        "velocity": 36,
        "time": 48323,
        "channel": 9
      },
      {
        "type": "note_on",
        "note": 36,
        "velocity": 58,
        "time": 48333,
        "channel": 9
      },
      {
        "type": "note_off",
        "note": 42,
        "time": 48400,
        "channel": 9
      },
      {
        "type": "note_off",
        "note": 36,
        "time": 48409,
        "channel": 9
      },
      {
        "type": "note_on",
        "note": 42,
        "velocity": 21,
        "time": 48450,
        "channel": 9
      },
      {
        "type": "note_off",
        "note": 42,
        "time": 48527,
        "channel": 9
      },
      {
        "type": "note_on",
        "note": 37,
        "velocity": 74,
        "time": 48565,
        "channel": 9
      },
      {
        "type": "note_off",
        "note": 37,
        "time": 48642,
        "channel": 9
      },
      {
        "type": "note_on",
        "note": 42,
        "velocity": 36,
        "time": 48676,
        "channel": 9
      },
      {
        "type": "note_off",
        "note": 42,
        "time": 48753,
        "channel": 9
      },
      {
        "type": "note_on",
        "note": 36,
        "velocity": 56,
        "time": 48794,
        "channel": 9
      },
      {
        "type": "note_on",
        "note": 26,
        "velocity": 55,
        "time": 48808,
        "channel": 9
      },
      {
        "type": "note_off",
        "note": 36,
        "time": 48871,
        "channel": 9
      },
      {
        "type": "note_on",
        "note": 44,
        "velocity": 55,
        "time": 48880,
        "channel": 9
      },
      {
        "type": "note_off",
        "note": 26,
        "time": 48884,
        "channel": 9
      },
      {
        "type": "note_on",
        "note": 38,
        "velocity": 23,
        "time": 48927,
        "channel": 9
      },
      {
        "type": "note_off",
        "note": 44,
        "time": 48957,
        "channel": 9
      },
      {
        "type": "note_off",
        "note": 38,
        "time": 49004,
        "channel": 9
      },
      {
        "type": "note_on",
        "note": 36,
        "velocity": 22,
        "time": 49022,
        "channel": 9
      },
      {
        "type": "note_on",
        "note": 42,
        "velocity": 40,
        "time": 49042,
        "channel": 9
      },
      {
        "type": "note_off",
        "note": 36,
        "time": 49099,
        "channel": 9
      },
      {
        "type": "note_off",
        "note": 42,
        "time": 49119,
        "channel": 9
      },
      {
        "type": "note_on",
        "note": 36,
        "velocity": 66,
        "time": 49148,
        "channel": 9
      },
      {
        "type": "note_on",
        "note": 26,
        "velocity": 79,
        "time": 49160,
        "channel": 9
      },
      {
        "type": "note_off",
        "note": 36,
        "time": 49225,
        "channel": 9
      },
      {
        "type": "note_off",
        "note": 26,
        "time": 49237,
        "channel": 9
      },
      {
        "type": "note_on",
        "note": 44,
        "velocity": 42,
        "time": 49396,
        "channel": 9
      },
      {
        "type": "note_on",
        "note": 40,
        "velocity": 127,
        "time": 49403,
        "channel": 9
      },
      {
        "type": "note_off",
        "note": 44,
        "time": 49473,
        "channel": 9
      },
      {
        "type": "note_off",
        "note": 40,
        "time": 49480,
        "channel": 9
      },
      {
        "type": "note_on",
        "note": 42,
        "velocity": 36,
        "time": 49499,
        "channel": 9
      },
      {
        "type": "note_off",
        "note": 42,
        "time": 49577,
        "channel": 9
      },
      {
        "type": "note_on",
        "note": 22,
        "velocity": 62,
        "time": 49644,
        "channel": 9
      },
      {
        "type": "note_off",
        "note": 22,
        "time": 49721,
        "channel": 9
      },
      {
        "type": "note_on",
        "note": 38,
        "velocity": 29,
        "time": 49775,
        "channel": 9
      },
      {
        "type": "note_off",
        "note": 38,
        "time": 49839,
        "channel": 9
      },
      {
        "type": "note_on",
        "note": 38,
        "velocity": 37,
        "time": 49839,
        "channel": 9
      },
      {
        "type": "note_off",
        "note": 38,
        "time": 49852,
        "channel": 9
      },
      {
        "type": "note_on",
        "note": 36,
        "velocity": 57,
        "time": 49886,
        "channel": 9
      },
      {
        "type": "note_on",
        "note": 42,
        "velocity": 39,
        "time": 49893,
        "channel": 9
      },
      {
        "type": "note_off",
        "note": 36,
        "time": 49962,
        "channel": 9
      },
      {
        "type": "note_off",
        "note": 42,
        "time": 49970,
        "channel": 9
      },
      {
        "type": "note_on",
        "note": 42,
        "velocity": 34,
        "time": 50006,
        "channel": 9
      },
      {
        "type": "note_off",
        "note": 42,
        "time": 50083,
        "channel": 9
      },
      {
        "type": "note_on",
        "note": 38,
        "velocity": 34,
        "time": 50123,
        "channel": 9
      },
      {
        "type": "note_off",
        "note": 38,
        "time": 50200,
        "channel": 9
      },
      {
        "type": "note_on",
        "note": 36,
        "velocity": 59,
        "time": 50255,
        "channel": 9
      },
      {
        "type": "note_on",
        "note": 42,
        "velocity": 41,
        "time": 50255,
        "channel": 9
      },
      {
        "type": "note_off",
        "note": 36,
        "time": 50331,
        "channel": 9
      },
      {
        "type": "note_off",
        "note": 42,
        "time": 50331,
        "channel": 9
      },
      {
        "type": "note_on",
        "note": 42,
        "velocity": 40,
        "time": 50382,
        "channel": 9
      },
      {
        "type": "note_off",
        "note": 42,
        "time": 50459,
        "channel": 9
      },
      {
        "type": "note_on",
        "note": 38,
        "velocity": 81,
        "time": 50503,
        "channel": 9
      },
      {
        "type": "note_off",
        "note": 38,
        "time": 50579,
        "channel": 9
      },
      {
        "type": "note_on",
        "note": 42,
        "velocity": 38,
        "time": 50613,
        "channel": 9
      },
      {
        "type": "note_off",
        "note": 42,
        "time": 50690,
        "channel": 9
      },
      {
        "type": "note_on",
        "note": 36,
        "velocity": 50,
        "time": 50742,
        "channel": 9
      },
      {
        "type": "note_on",
        "note": 22,
        "velocity": 64,
        "time": 50749,
        "channel": 9
      },
      {
        "type": "note_off",
        "note": 36,
        "time": 50819,
        "channel": 9
      },
      {
        "type": "note_off",
        "note": 22,
        "time": 50825,
        "channel": 9
      },
      {
        "type": "note_on",
        "note": 44,
        "velocity": 67,
        "time": 50846,
        "channel": 9
      },
      {
        "type": "note_on",
        "note": 38,
        "velocity": 18,
        "time": 50856,
        "channel": 9
      },
      {
        "type": "note_off",
        "note": 44,
        "time": 50923,
        "channel": 9
      },
      {
        "type": "note_off",
        "note": 38,
        "time": 50932,
        "channel": 9
      },
      {
        "type": "note_on",
        "note": 36,
        "velocity": 29,
        "time": 50981,
        "channel": 9
      },
      {
        "type": "note_on",
        "note": 42,
        "velocity": 41,
        "time": 50986,
        "channel": 9
      },
      {
        "type": "note_off",
        "note": 36,
        "time": 51057,
        "channel": 9
      },
      {
        "type": "note_off",
        "note": 42,
        "time": 51062,
        "channel": 9
      },
      {
        "type": "note_on",
        "note": 36,
        "velocity": 60,
        "time": 51101,
        "channel": 9
      },
      {
        "type": "note_on",
        "note": 26,
        "velocity": 61,
        "time": 51112,
        "channel": 9
      },
      {
        "type": "note_off",
        "note": 36,
        "time": 51179,
        "channel": 9
      },
      {
        "type": "note_off",
        "note": 26,
        "time": 51188,
        "channel": 9
      },
      {
        "type": "note_on",
        "note": 44,
        "velocity": 50,
        "time": 51339,
        "channel": 9
      },
      {
        "type": "note_on",
        "note": 40,
        "velocity": 124,
        "time": 51347,
        "channel": 9
      },
      {
        "type": "note_off",
        "note": 44,
        "time": 51416,
        "channel": 9
      },
      {
        "type": "note_off",
        "note": 40,
        "time": 51423,
        "channel": 9
      },
      {
        "type": "note_on",
        "note": 42,
        "velocity": 36,
        "time": 51477,
        "channel": 9
      },
      {
        "type": "note_off",
        "note": 42,
        "time": 51554,
        "channel": 9
      },
      {
        "type": "note_on",
        "note": 22,
        "velocity": 75,
        "time": 51596,
        "channel": 9
      },
      {
        "type": "note_off",
        "note": 22,
        "time": 51673,
        "channel": 9
      },
      {
        "type": "note_on",
        "note": 38,
        "velocity": 22,
        "time": 51705,
        "channel": 9
      },
      {
        "type": "note_off",
        "note": 38,
        "time": 51764,
        "channel": 9
      },
      {
        "type": "note_on",
        "note": 38,
        "velocity": 26,
        "time": 51764,
        "channel": 9
      },
      {
        "type": "note_off",
        "note": 38,
        "time": 51781,
        "channel": 9
      },
      {
        "type": "note_on",
        "note": 36,
        "velocity": 53,
        "time": 51838,
        "channel": 9
      },
      {
        "type": "note_on",
        "note": 42,
        "velocity": 33,
        "time": 51843,
        "channel": 9
      },
      {
        "type": "note_off",
        "note": 36,
        "time": 51914,
        "channel": 9
      },
      {
        "type": "note_off",
        "note": 42,
        "time": 51920,
        "channel": 9
      },
      {
        "type": "note_on",
        "note": 42,
        "velocity": 31,
        "time": 51959,
        "channel": 9
      },
      {
        "type": "note_off",
        "note": 42,
        "time": 52036,
        "channel": 9
      },
      {
        "type": "note_on",
        "note": 38,
        "velocity": 32,
        "time": 52069,
        "channel": 9
      },
      {
        "type": "note_off",
        "note": 38,
        "time": 52145,
        "channel": 9
      },
      {
        "type": "note_on",
        "note": 42,
        "velocity": 52,
        "time": 52192,
        "channel": 9
      },
      {
        "type": "note_on",
        "note": 36,
        "velocity": 54,
        "time": 52194,
        "channel": 9
      },
      {
        "type": "note_off",
        "note": 36,
        "time": 52269,
        "channel": 9
      },
      {
        "type": "note_off",
        "note": 42,
        "time": 52269,
        "channel": 9
      },
      {
        "type": "note_on",
        "note": 42,
        "velocity": 64,
        "time": 52310,
        "channel": 9
      },
      {
        "type": "note_off",
        "note": 42,
        "time": 52387,
        "channel": 9
      },
      {
        "type": "note_on",
        "note": 38,
        "velocity": 84,
        "time": 52441,
        "channel": 9
      },
      {
        "type": "note_off",
        "note": 38,
        "time": 52518,
        "channel": 9
      },
      {
        "type": "note_on",
        "note": 42,
        "velocity": 45,
        "time": 52551,
        "channel": 9
      },
      {
        "type": "note_off",
        "note": 42,
        "time": 52629,
        "channel": 9
      },
      {
        "type": "note_on",
        "note": 36,
        "velocity": 54,
        "time": 52675,
        "channel": 9
      },
      {
        "type": "note_on",
        "note": 46,
        "velocity": 64,
        "time": 52683,
        "channel": 9
      },
      {
        "type": "note_off",
        "note": 36,
        "time": 52751,
        "channel": 9
      },
      {
        "type": "note_off",
        "note": 46,
        "time": 52760,
        "channel": 9
      },
      {
        "type": "note_on",
        "note": 44,
        "velocity": 60,
        "time": 52775,
        "channel": 9
      },
      {
        "type": "note_on",
        "note": 38,
        "velocity": 21,
        "time": 52796,
        "channel": 9
      },
      {
        "type": "note_off",
        "note": 44,
        "time": 52851,
        "channel": 9
      },
      {
        "type": "note_off",
        "note": 38,
        "time": 52874,
        "channel": 9
      },
      {
        "type": "note_on",
        "note": 36,
        "velocity": 21,
        "time": 52910,
        "channel": 9
      },
      {
        "type": "note_on",
        "note": 42,
        "velocity": 45,
        "time": 52917,
        "channel": 9
      },
      {
        "type": "note_off",
        "note": 36,
        "time": 52987,
        "channel": 9
      },
      {
        "type": "note_off",
        "note": 42,
        "time": 52994,
        "channel": 9
      },
      {
        "type": "note_on",
        "note": 36,
        "velocity": 61,
        "time": 53032,
        "channel": 9
      },
      {
        "type": "note_on",
        "note": 26,
        "velocity": 70,
        "time": 53040,
        "channel": 9
      },
      {
        "type": "note_off",
        "note": 36,
        "time": 53108,
        "channel": 9
      },
      {
        "type": "note_off",
        "note": 26,
        "time": 53117,
        "channel": 9
      },
      {
        "type": "note_on",
        "note": 44,
        "velocity": 47,
        "time": 53273,
        "channel": 9
      },
      {
        "type": "note_on",
        "note": 40,
        "velocity": 127,
        "time": 53284,
        "channel": 9
      },
      {
        "type": "note_off",
        "note": 44,
        "time": 53349,
        "channel": 9
      },
      {
        "type": "note_off",
        "note": 40,
        "time": 53361,
        "channel": 9
      },
      {
        "type": "note_on",
        "note": 42,
        "velocity": 34,
        "time": 53425,
        "channel": 9
      },
      {
        "type": "note_off",
        "note": 42,
        "time": 53503,
        "channel": 9
      },
      {
        "type": "note_on",
        "note": 22,
        "velocity": 59,
        "time": 53531,
        "channel": 9
      },
      {
        "type": "note_off",
        "note": 22,
        "time": 53608,
        "channel": 9
      },
      {
        "type": "note_on",
        "note": 38,
        "velocity": 27,
        "time": 53640,
        "channel": 9
      },
      {
        "type": "note_off",
        "note": 38,
        "time": 53707,
        "channel": 9
      },
      {
        "type": "note_on",
        "note": 38,
        "velocity": 35,
        "time": 53707,
        "channel": 9
      },
      {
        "type": "note_off",
        "note": 38,
        "time": 53717,
        "channel": 9
      },
      {
        "type": "note_on",
        "note": 36,
        "velocity": 55,
        "time": 53768,
        "channel": 9
      },
      {
        "type": "note_on",
        "note": 42,
        "velocity": 39,
        "time": 53782,
        "channel": 9
      },
      {
        "type": "note_off",
        "note": 36,
        "time": 53845,
        "channel": 9
      },
      {
        "type": "note_off",
        "note": 42,
        "time": 53858,
        "channel": 9
      },
      {
        "type": "note_on",
        "note": 42,
        "velocity": 31,
        "time": 53887,
        "channel": 9
      },
      {
        "type": "note_off",
        "note": 42,
        "time": 53964,
        "channel": 9
      },
      {
        "type": "note_on",
        "note": 37,
        "velocity": 88,
        "time": 53990,
        "channel": 9
      },
      {
        "type": "note_off",
        "note": 37,
        "time": 54067,
        "channel": 9
      },
      {
        "type": "note_on",
        "note": 36,
        "velocity": 55,
        "time": 54108,
        "channel": 9
      },
      {
        "type": "note_on",
        "note": 46,
        "velocity": 46,
        "time": 54134,
        "channel": 9
      },
      {
        "type": "note_on",
        "note": 44,
        "velocity": 45,
        "time": 54177,
        "channel": 9
      },
      {
        "type": "note_off",
        "note": 36,
        "time": 54185,
        "channel": 9
      },
      {
        "type": "note_off",
        "note": 46,
        "time": 54211,
        "channel": 9
      },
      {
        "type": "note_on",
        "note": 38,
        "velocity": 13,
        "time": 54250,
        "channel": 9
      },
      {
        "type": "note_off",
        "note": 44,
        "time": 54254,
        "channel": 9
      },
      {
        "type": "note_off",
        "note": 38,
        "time": 54327,
        "channel": 9
      },
      {
        "type": "note_on",
        "note": 36,
        "velocity": 52,
        "time": 54338,
        "channel": 9
      },
      {
        "type": "note_on",
        "note": 26,
        "velocity": 48,
        "time": 54367,
        "channel": 9
      },
      {
        "type": "note_off",
        "note": 36,
        "time": 54416,
        "channel": 9
      },
      {
        "type": "note_on",
        "note": 44,
        "velocity": 65,
        "time": 54425,
        "channel": 9
      },
      {
        "type": "note_off",
        "note": 26,
        "time": 54445,
        "channel": 9
      },
      {
        "type": "note_on",
        "note": 38,
        "velocity": 16,
        "time": 54477,
        "channel": 9
      },
      {
        "type": "note_off",
        "note": 44,
        "time": 54502,
        "channel": 9
      },
      {
        "type": "note_off",
        "note": 38,
        "time": 54554,
        "channel": 9
      },
      {
        "type": "note_on",
        "note": 36,
        "velocity": 56,
        "time": 54582,
        "channel": 9
      },
      {
        "type": "note_on",
        "note": 26,
        "velocity": 62,
        "time": 54599,
        "channel": 9
      },
      {
        "type": "note_off",
        "note": 36,
        "time": 54659,
        "channel": 9
      },
      {
        "type": "note_on",
        "note": 44,
        "velocity": 65,
        "time": 54671,
        "channel": 9
      },
      {
        "type": "note_off",
        "note": 26,
        "time": 54676,
        "channel": 9
      },
      {
        "type": "note_on",
        "note": 38,
        "velocity": 9,
        "time": 54713,
        "channel": 9
      },
      {
        "type": "note_off",
        "note": 44,
        "time": 54748,
        "channel": 9
      },
      {
        "type": "note_off",
        "note": 38,
        "time": 54789,
        "channel": 9
      },
      {
        "type": "note_on",
        "note": 38,
        "velocity": 89,
        "time": 54828,
        "channel": 9
      },
      {
        "type": "note_off",
        "note": 38,
        "time": 54904,
        "channel": 9
      },
      {
        "type": "note_on",
        "note": 38,
        "velocity": 63,
        "time": 54940,
        "channel": 9
      },
      {
        "type": "note_off",
        "note": 38,
        "time": 55017,
        "channel": 9
      },
      {
        "type": "note_on",
        "note": 38,
        "velocity": 85,
        "time": 55056,
        "channel": 9
      },
      {
        "type": "note_off",
        "note": 38,
        "time": 55132,
        "channel": 9
      },
      {
        "type": "note_on",
        "note": 40,
        "velocity": 127,
        "time": 55175,
        "channel": 9
      },
      {
        "type": "note_off",
        "note": 40,
        "time": 55252,
        "channel": 9
      },
      {
        "type": "note_on",
        "note": 36,
        "velocity": 82,
        "time": 55674,
        "channel": 9
      },
      {
        "type": "note_on",
        "note": 55,
        "velocity": 109,
        "time": 55680,
        "channel": 9
      },
      {
        "type": "note_off",
        "note": 36,
        "time": 55750,
        "channel": 9
      },
      {
        "type": "note_off",
        "note": 55,
        "time": 55757,
        "channel": 9
      },
      {
        "type": "note_on",
        "note": 38,
        "velocity": 21,
        "time": 55805,
        "channel": 9
      },
      {
        "type": "note_off",
        "note": 38,
        "time": 55882,
        "channel": 9
      },
      {
        "type": "note_on",
        "note": 42,
        "velocity": 14,
        "time": 55915,
        "channel": 9
      },
      {
        "type": "note_off",
        "note": 42,
        "time": 55992,
        "channel": 9
      },
      {
        "type": "note_on",
        "note": 38,
        "velocity": 12,
        "time": 56031,
        "channel": 9
      },
      {
        "type": "note_on",
        "note": 36,
        "velocity": 55,
        "time": 56056,
        "channel": 9
      },
      {
        "type": "note_off",
        "note": 38,
        "time": 56107,
        "channel": 9
      },
      {
        "type": "note_off",
        "note": 36,
        "time": 56133,
        "channel": 9
      },
      {
        "type": "note_on",
        "note": 22,
        "velocity": 55,
        "time": 56171,
        "channel": 9
      },
      {
        "type": "note_off",
        "note": 22,
        "time": 56248,
        "channel": 9
      },
      {
        "type": "note_on",
        "note": 38,
        "velocity": 75,
        "time": 56288,
        "channel": 9
      },
      {
        "type": "note_off",
        "note": 38,
        "time": 56365,
        "channel": 9
      },
      {
        "type": "note_on",
        "note": 42,
        "velocity": 41,
        "time": 56399,
        "channel": 9
      },
      {
        "type": "note_off",
        "note": 42,
        "time": 56477,
        "channel": 9
      },
      {
        "type": "note_on",
        "note": 36,
        "velocity": 55,
        "time": 56495,
        "channel": 9
      },
      {
        "type": "note_on",
        "note": 26,
        "velocity": 74,
        "time": 56515,
        "channel": 9
      },
      {
        "type": "note_off",
        "note": 36,
        "time": 56572,
        "channel": 9
      },
      {
        "type": "note_off",
        "note": 26,
        "time": 56591,
        "channel": 9
      },
      {
        "type": "note_on",
        "note": 44,
        "velocity": 62,
        "time": 56598,
        "channel": 9
      },
      {
        "type": "note_on",
        "note": 38,
        "velocity": 28,
        "time": 56637,
        "channel": 9
      },
      {
        "type": "note_off",
        "note": 44,
        "time": 56675,
        "channel": 9
      },
      {
        "type": "note_off",
        "note": 38,
        "time": 56714,
        "channel": 9
      },
      {
        "type": "note_on",
        "note": 36,
        "velocity": 30,
        "time": 56723,
        "channel": 9
      },
      {
        "type": "note_on",
        "note": 42,
        "velocity": 26,
        "time": 56740,
        "channel": 9
      },
      {
        "type": "note_off",
        "note": 36,
        "time": 56800,
        "channel": 9
      },
      {
        "type": "note_off",
        "note": 42,
        "time": 56816,
        "channel": 9
      },
      {
        "type": "note_on",
        "note": 36,
        "velocity": 67,
        "time": 56853,
        "channel": 9
      },
      {
        "type": "note_on",
        "note": 26,
        "velocity": 82,
        "time": 56859,
        "channel": 9
      },
      {
        "type": "note_off",
        "note": 36,
        "time": 56930,
        "channel": 9
      },
      {
        "type": "note_off",
        "note": 26,
        "time": 56936,
        "channel": 9
      },
      {
        "type": "note_on",
        "note": 44,
        "velocity": 47,
        "time": 57093,
        "channel": 9
      },
      {
        "type": "note_on",
        "note": 40,
        "velocity": 127,
        "time": 57098,
        "channel": 9
      },
      {
        "type": "note_off",
        "note": 44,
        "time": 57170,
        "channel": 9
      },
      {
        "type": "note_off",
        "note": 40,
        "time": 57174,
        "channel": 9
      },
      {
        "type": "note_on",
        "note": 42,
        "velocity": 39,
        "time": 57225,
        "channel": 9
      },
      {
        "type": "note_off",
        "note": 42,
        "time": 57302,
        "channel": 9
      },
      {
        "type": "note_on",
        "note": 22,
        "velocity": 73,
        "time": 57343,
        "channel": 9
      },
      {
        "type": "note_off",
        "note": 22,
        "time": 57420,
        "channel": 9
      },
      {
        "type": "note_on",
        "note": 38,
        "velocity": 30,
        "time": 57439,
        "channel": 9
      },
      {
        "type": "note_off",
        "note": 38,
        "time": 57509,
        "channel": 9
      },
      {
        "type": "note_on",
        "note": 38,
        "velocity": 32,
        "time": 57509,
        "channel": 9
      },
      {
        "type": "note_off",
        "note": 38,
        "time": 57515,
        "channel": 9
      },
      {
        "type": "note_on",
        "note": 36,
        "velocity": 58,
        "time": 57565,
        "channel": 9
      },
      {
        "type": "note_on",
        "note": 42,
        "velocity": 38,
        "time": 57584,
        "channel": 9
      },
      {
        "type": "note_off",
        "note": 36,
        "time": 57642,
        "channel": 9
      },
      {
        "type": "note_off",
        "note": 42,
        "time": 57661,
        "channel": 9
      },
      {
        "type": "note_on",
        "note": 42,
        "velocity": 23,
        "time": 57689,
        "channel": 9
      },
      {
        "type": "note_off",
        "note": 42,
        "time": 57766,
        "channel": 9
      },
      {
        "type": "note_on",
        "note": 38,
        "velocity": 74,
        "time": 57799,
        "channel": 9
      },
      {
        "type": "note_off",
        "note": 38,
        "time": 57875,
        "channel": 9
      },
      {
        "type": "note_on",
        "note": 42,
        "velocity": 35,
        "time": 57923,
        "channel": 9
      },
      {
        "type": "note_on",
        "note": 36,
        "velocity": 60,
        "time": 57937,
        "channel": 9
      },
      {
        "type": "note_off",
        "note": 42,
        "time": 58000,
        "channel": 9
      },
      {
        "type": "note_off",
        "note": 36,
        "time": 58013,
        "channel": 9
      },
      {
        "type": "note_on",
        "note": 42,
        "velocity": 25,
        "time": 58042,
        "channel": 9
      },
      {
        "type": "note_off",
        "note": 42,
        "time": 58119,
        "channel": 9
      },
      {
        "type": "note_on",
        "note": 38,
        "velocity": 90,
        "time": 58150,
        "channel": 9
      },
      {
        "type": "note_off",
        "note": 38,
        "time": 58227,
        "channel": 9
      },
      {
        "type": "note_on",
        "note": 42,
        "velocity": 22,
        "time": 58277,
        "channel": 9
      },
      {
        "type": "note_off",
        "note": 42,
        "time": 58355,
        "channel": 9
      },
      {
        "type": "note_on",
        "note": 36,
        "velocity": 52,
        "time": 58387,
        "channel": 9
      },
      {
        "type": "note_on",
        "note": 26,
        "velocity": 57,
        "time": 58403,
        "channel": 9
      },
      {
        "type": "note_off",
        "note": 36,
        "time": 58463,
        "channel": 9
      },
      {
        "type": "note_off",
        "note": 26,
        "time": 58480,
        "channel": 9
      },
      {
        "type": "note_on",
        "note": 44,
        "velocity": 67,
        "time": 58495,
        "channel": 9
      },
      {
        "type": "note_on",
        "note": 38,
        "velocity": 17,
        "time": 58523,
        "channel": 9
      },
      {
        "type": "note_off",
        "note": 44,
        "time": 58572,
        "channel": 9
      },
      {
        "type": "note_off",
        "note": 38,
        "time": 58600,
        "channel": 9
      },
      {
        "type": "note_on",
        "note": 36,
        "velocity": 33,
        "time": 58622,
        "channel": 9
      },
      {
        "type": "note_on",
        "note": 42,
        "velocity": 38,
        "time": 58640,
        "channel": 9
      },
      {
        "type": "note_off",
        "note": 36,
        "time": 58699,
        "channel": 9
      },
      {
        "type": "note_off",
        "note": 42,
        "time": 58716,
        "channel": 9
      },
      {
        "type": "note_on",
        "note": 36,
        "velocity": 66,
        "time": 58751,
        "channel": 9
      },
      {
        "type": "note_on",
        "note": 26,
        "velocity": 77,
        "time": 58759,
        "channel": 9
      },
      {
        "type": "note_off",
        "note": 36,
        "time": 58828,
        "channel": 9
      },
      {
        "type": "note_off",
        "note": 26,
        "time": 58836,
        "channel": 9
      },
      {
        "type": "note_on",
        "note": 44,
        "velocity": 40,
        "time": 58996,
        "channel": 9
      },
      {
        "type": "note_on",
        "note": 40,
        "velocity": 127,
        "time": 59002,
        "channel": 9
      },
      {
        "type": "note_off",
        "note": 44,
        "time": 59073,
        "channel": 9
      },
      {
        "type": "note_off",
        "note": 40,
        "time": 59079,
        "channel": 9
      },
      {
        "type": "note_on",
        "note": 42,
        "velocity": 41,
        "time": 59137,
        "channel": 9
      },
      {
        "type": "note_off",
        "note": 42,
        "time": 59213,
        "channel": 9
      },
      {
        "type": "note_on",
        "note": 22,
        "velocity": 72,
        "time": 59262,
        "channel": 9
      },
      {
        "type": "note_off",
        "note": 22,
        "time": 59339,
        "channel": 9
      },
      {
        "type": "note_on",
        "note": 38,
        "velocity": 27,
        "time": 59367,
        "channel": 9
      },
      {
        "type": "note_off",
        "note": 38,
        "time": 59431,
        "channel": 9
      },
      {
        "type": "note_on",
        "note": 38,
        "velocity": 28,
        "time": 59431,
        "channel": 9
      },
      {
        "type": "note_off",
        "note": 38,
        "time": 59444,
        "channel": 9
      },
      {
        "type": "note_on",
        "note": 36,
        "velocity": 58,
        "time": 59502,
        "channel": 9
      },
      {
        "type": "note_on",
        "note": 42,
        "velocity": 33,
        "time": 59514,
        "channel": 9
      },
      {
        "type": "note_off",
        "note": 36,
        "time": 59579,
        "channel": 9
      },
      {
        "type": "note_off",
        "note": 42,
        "time": 59591,
        "channel": 9
      },
      {
        "type": "note_on",
        "note": 42,
        "velocity": 18,
        "time": 59628,
        "channel": 9
      },
      {
        "type": "note_off",
        "note": 42,
        "time": 59706,
        "channel": 9
      },
      {
        "type": "note_on",
        "note": 40,
        "velocity": 99,
        "time": 59738,
        "channel": 9
      },
      {
        "type": "note_off",
        "note": 40,
        "time": 59814,
        "channel": 9
      },
      {
        "type": "note_on",
        "note": 36,
        "velocity": 58,
        "time": 59872,
        "channel": 9
      },
      {
        "type": "note_on",
        "note": 42,
        "velocity": 19,
        "time": 59878,
        "channel": 9
      },
      {
        "type": "note_off",
        "note": 36,
        "time": 59948,
        "channel": 9
      },
      {
        "type": "note_off",
        "note": 42,
        "time": 59955,
        "channel": 9
      },
      {
        "type": "note_on",
        "note": 42,
        "velocity": 18,
        "time": 60003,
        "channel": 9
      },
      {
        "type": "note_off",
        "note": 42,
        "time": 60080,
        "channel": 9
      },
      {
        "type": "note_on",
        "note": 40,
        "velocity": 101,
        "time": 60106,
        "channel": 9
      },
      {
        "type": "note_off",
        "note": 40,
        "time": 60182,
        "channel": 9
      },
      {
        "type": "note_on",
        "note": 42,
        "velocity": 19,
        "time": 60228,
        "channel": 9
      },
      {
        "type": "note_off",
        "note": 42,
        "time": 60305,
        "channel": 9
      },
      {
        "type": "note_on",
        "note": 36,
        "velocity": 52,
        "time": 60331,
        "channel": 9
      },
      {
        "type": "note_on",
        "note": 26,
        "velocity": 66,
        "time": 60344,
        "channel": 9
      },
      {
        "type": "note_off",
        "note": 36,
        "time": 60407,
        "channel": 9
      },
      {
        "type": "note_off",
        "note": 26,
        "time": 60420,
        "channel": 9
      },
      {
        "type": "note_on",
        "note": 44,
        "velocity": 85,
        "time": 60440,
        "channel": 9
      },
      {
        "type": "note_on",
        "note": 38,
        "velocity": 16,
        "time": 60461,
        "channel": 9
      },
      {
        "type": "note_off",
        "note": 44,
        "time": 60517,
        "channel": 9
      },
      {
        "type": "note_off",
        "note": 38,
        "time": 60538,
        "channel": 9
      },
      {
        "type": "note_on",
        "note": 36,
        "velocity": 11,
        "time": 60559,
        "channel": 9
      },
      {
        "type": "note_on",
        "note": 42,
        "velocity": 37,
        "time": 60575,
        "channel": 9
      },
      {
        "type": "note_off",
        "note": 36,
        "time": 60636,
        "channel": 9
      },
      {
        "type": "note_off",
        "note": 42,
        "time": 60653,
        "channel": 9
      },
      {
        "type": "note_on",
        "note": 36,
        "velocity": 55,
        "time": 60688,
        "channel": 9
      },
      {
        "type": "note_on",
        "note": 26,
        "velocity": 78,
        "time": 60689,
        "channel": 9
      },
      {
        "type": "note_off",
        "note": 36,
        "time": 60764,
        "channel": 9
      },
      {
        "type": "note_off",
        "note": 26,
        "time": 60767,
        "channel": 9
      },
      {
        "type": "note_on",
        "note": 44,
        "velocity": 47,
        "time": 60936,
        "channel": 9
      },
      {
        "type": "note_on",
        "note": 40,
        "velocity": 127,
        "time": 60944,
        "channel": 9
      },
      {
        "type": "note_on",
        "note": 38,
        "velocity": 29,
        "time": 61001,
        "channel": 9
      },
      {
        "type": "note_off",
        "note": 44,
        "time": 61013,
        "channel": 9
      },
      {
        "type": "note_off",
        "note": 40,
        "time": 61021,
        "channel": 9
      },
      {
        "type": "note_on",
        "note": 42,
        "velocity": 27,
        "time": 61069,
        "channel": 9
      },
      {
        "type": "note_off",
        "note": 38,
        "time": 61078,
        "channel": 9
      },
      {
        "type": "note_off",
        "note": 42,
        "time": 61146,
        "channel": 9
      },
      {
        "type": "note_on",
        "note": 22,
        "velocity": 65,
        "time": 61193,
        "channel": 9
      },
      {
        "type": "note_off",
        "note": 22,
        "time": 61270,
        "channel": 9
      },
      {
        "type": "note_on",
        "note": 38,
        "velocity": 32,
        "time": 61311,
        "channel": 9
      },
      {
        "type": "note_off",
        "note": 38,
        "time": 61364,
        "channel": 9
      },
      {
        "type": "note_on",
        "note": 38,
        "velocity": 35,
        "time": 61364,
        "channel": 9
      },
      {
        "type": "note_off",
        "note": 38,
        "time": 61388,
        "channel": 9
      },
      {
        "type": "note_on",
        "note": 36,
        "velocity": 60,
        "time": 61426,
        "channel": 9
      },
      {
        "type": "note_on",
        "note": 42,
        "velocity": 33,
        "time": 61439,
        "channel": 9
      },
      {
        "type": "note_off",
        "note": 36,
        "time": 61503,
        "channel": 9
      },
      {
        "type": "note_off",
        "note": 42,
        "time": 61516,
        "channel": 9
      },
      {
        "type": "note_on",
        "note": 42,
        "velocity": 18,
        "time": 61549,
        "channel": 9
      },
      {
        "type": "note_off",
        "note": 42,
        "time": 61626,
        "channel": 9
      },
      {
        "type": "note_on",
        "note": 40,
        "velocity": 111,
        "time": 61669,
        "channel": 9
      },
      {
        "type": "note_off",
        "note": 40,
        "time": 61746,
        "channel": 9
      },
      {
        "type": "note_on",
        "note": 42,
        "velocity": 18,
        "time": 61810,
        "channel": 9
      },
      {
        "type": "note_on",
        "note": 36,
        "velocity": 60,
        "time": 61812,
        "channel": 9
      },
      {
        "type": "note_off",
        "note": 36,
        "time": 61888,
        "channel": 9
      },
      {
        "type": "note_off",
        "note": 42,
        "time": 61888,
        "channel": 9
      },
      {
        "type": "note_on",
        "note": 42,
        "velocity": 14,
        "time": 61925,
        "channel": 9
      },
      {
        "type": "note_off",
        "note": 42,
        "time": 62003,
        "channel": 9
      },
      {
        "type": "note_on",
        "note": 40,
        "velocity": 104,
        "time": 62029,
        "channel": 9
      },
      {
        "type": "note_off",
        "note": 40,
        "time": 62105,
        "channel": 9
      },
      {
        "type": "note_on",
        "note": 36,
        "velocity": 52,
        "time": 62257,
        "channel": 9
      },
      {
        "type": "note_on",
        "note": 26,
        "velocity": 52,
        "time": 62273,
        "channel": 9
      },
      {
        "type": "note_off",
        "note": 36,
        "time": 62334,
        "channel": 9
      },
      {
        "type": "note_off",
        "note": 26,
        "time": 62350,
        "channel": 9
      },
      {
        "type": "note_on",
        "note": 44,
        "velocity": 65,
        "time": 62364,
        "channel": 9
      },
      {
        "type": "note_off",
        "note": 44,
        "time": 62441,
        "channel": 9
      },
      {
        "type": "note_on",
        "note": 42,
        "velocity": 41,
        "time": 62504,
        "channel": 9
      },
      {
        "type": "note_on",
        "note": 36,
        "velocity": 29,
        "time": 62511,
        "channel": 9
      },
      {
        "type": "note_off",
        "note": 42,
        "time": 62581,
        "channel": 9
      },
      {
        "type": "note_off",
        "note": 36,
        "time": 62588,
        "channel": 9
      },
      {
        "type": "note_on",
        "note": 36,
        "velocity": 42,
        "time": 62616,
        "channel": 9
      },
      {
        "type": "note_on",
        "note": 42,
        "velocity": 51,
        "time": 62632,
        "channel": 9
      },
      {
        "type": "note_off",
        "note": 36,
        "time": 62692,
        "channel": 9
      },
      {
        "type": "note_off",
        "note": 42,
        "time": 62709,
        "channel": 9
      },
      {
        "type": "note_on",
        "note": 37,
        "velocity": 82,
        "time": 62745,
        "channel": 9
      },
      {
        "type": "note_off",
        "note": 37,
        "time": 62822,
        "channel": 9
      },
      {
        "type": "note_on",
        "note": 43,
        "velocity": 127,
        "time": 62885,
        "channel": 9
      },
      {
        "type": "note_off",
        "note": 43,
        "time": 62962,
        "channel": 9
      },
      {
        "type": "note_on",
        "note": 44,
        "velocity": 90,
        "time": 63126,
        "channel": 9
      },
      {
        "type": "note_off",
        "note": 44,
        "time": 63203,
        "channel": 9
      },
      {
        "type": "note_on",
        "note": 37,
        "velocity": 71,
        "time": 63240,
        "channel": 9
      },
      {
        "type": "note_off",
        "note": 37,
        "time": 63316,
        "channel": 9
      },
      {
        "type": "note_on",
        "note": 36,
        "velocity": 73,
        "time": 63356,
        "channel": 9
      },
      {
        "type": "note_on",
        "note": 55,
        "velocity": 40,
        "time": 63364,
        "channel": 9
      },
      {
        "type": "note_off",
        "note": 36,
        "time": 63433,
        "channel": 9
      },
      {
        "type": "note_off",
        "note": 55,
        "time": 63440,
        "channel": 9
      },
      {
        "type": "note_on",
        "note": 38,
        "velocity": 30,
        "time": 63467,
        "channel": 9
      },
      {
        "type": "note_off",
        "note": 38,
        "time": 63544,
        "channel": 9
      },
      {
        "type": "note_on",
        "note": 38,
        "velocity": 30,
        "time": 63582,
        "channel": 9
      },
      {
        "type": "note_off",
        "note": 38,
        "time": 63658,
        "channel": 9
      },
      {
        "type": "note_on",
        "note": 36,
        "velocity": 55,
        "time": 63711,
        "channel": 9
      },
      {
        "type": "note_on",
        "note": 42,
        "velocity": 38,
        "time": 63722,
        "channel": 9
      },
      {
        "type": "note_off",
        "note": 36,
        "time": 63787,
        "channel": 9
      },
      {
        "type": "note_off",
        "note": 42,
        "time": 63799,
        "channel": 9
      },
      {
        "type": "note_on",
        "note": 42,
        "velocity": 34,
        "time": 63829,
        "channel": 9
      },
      {
        "type": "note_off",
        "note": 42,
        "time": 63905,
        "channel": 9
      },
      {
        "type": "note_on",
        "note": 37,
        "velocity": 82,
        "time": 63953,
        "channel": 9
      },
      {
        "type": "note_off",
        "note": 37,
        "time": 64030,
        "channel": 9
      },
      {
        "type": "note_on",
        "note": 42,
        "velocity": 24,
        "time": 64058,
        "channel": 9
      },
      {
        "type": "note_off",
        "note": 42,
        "time": 64135,
        "channel": 9
      },
      {
        "type": "note_on",
        "note": 36,
        "velocity": 49,
        "time": 64182,
        "channel": 9
      },
      {
        "type": "note_on",
        "note": 22,
        "velocity": 83,
        "time": 64189,
        "channel": 9
      },
      {
        "type": "note_off",
        "note": 36,
        "time": 64258,
        "channel": 9
      },
      {
        "type": "note_off",
        "note": 22,
        "time": 64266,
        "channel": 9
      },
      {
        "type": "note_on",
        "note": 38,
        "velocity": 21,
        "time": 64302,
        "channel": 9
      },
      {
        "type": "note_on",
        "note": 44,
        "velocity": 60,
        "time": 64310,
        "channel": 9
      },
      {
        "type": "note_off",
        "note": 38,
        "time": 64378,
        "channel": 9
      },
      {
        "type": "note_off",
        "note": 44,
        "time": 64387,
        "channel": 9
      },
      {
        "type": "note_on",
        "note": 36,
        "velocity": 28,
        "time": 64416,
        "channel": 9
      },
      {
        "type": "note_on",
        "note": 42,
        "velocity": 47,
        "time": 64422,
        "channel": 9
      },
      {
        "type": "note_off",
        "note": 36,
        "time": 64493,
        "channel": 9
      },
      {
        "type": "note_off",
        "note": 42,
        "time": 64498,
        "channel": 9
      },
      {
        "type": "note_on",
        "note": 36,
        "velocity": 63,
        "time": 64547,
        "channel": 9
      },
      {
        "type": "note_on",
        "note": 26,
        "velocity": 84,
        "time": 64548,
        "channel": 9
      },
      {
        "type": "note_off",
        "note": 26,
        "time": 64624,
        "channel": 9
      },
      {
        "type": "note_off",
        "note": 36,
        "time": 64624,
        "channel": 9
      },
      {
        "type": "note_on",
        "note": 44,
        "velocity": 40,
        "time": 64768,
        "channel": 9
      },
      {
        "type": "note_on",
        "note": 40,
        "velocity": 126,
        "time": 64785,
        "channel": 9
      },
      {
        "type": "note_on",
        "note": 38,
        "velocity": 30,
        "time": 64840,
        "channel": 9
      },
      {
        "type": "note_off",
        "note": 44,
        "time": 64845,
        "channel": 9
      },
      {
        "type": "note_off",
        "note": 40,
        "time": 64862,
        "channel": 9
      },
      {
        "type": "note_on",
        "note": 42,
        "velocity": 36,
        "time": 64902,
        "channel": 9
      },
      {
        "type": "note_off",
        "note": 38,
        "time": 64917,
        "channel": 9
      },
      {
        "type": "note_off",
        "note": 42,
        "time": 64979,
        "channel": 9
      },
      {
        "type": "note_on",
        "note": 22,
        "velocity": 76,
        "time": 65033,
        "channel": 9
      },
      {
        "type": "note_off",
        "note": 22,
        "time": 65110,
        "channel": 9
      },
      {
        "type": "note_on",
        "note": 38,
        "velocity": 27,
        "time": 65131,
        "channel": 9
      },
      {
        "type": "note_off",
        "note": 38,
        "time": 65204,
        "channel": 9
      },
      {
        "type": "note_on",
        "note": 38,
        "velocity": 35,
        "time": 65204,
        "channel": 9
      },
      {
        "type": "note_off",
        "note": 38,
        "time": 65207,
        "channel": 9
      },
      {
        "type": "note_on",
        "note": 36,
        "velocity": 58,
        "time": 65269,
        "channel": 9
      },
      {
        "type": "note_on",
        "note": 42,
        "velocity": 28,
        "time": 65287,
        "channel": 9
      },
      {
        "type": "note_off",
        "note": 36,
        "time": 65345,
        "channel": 9
      },
      {
        "type": "note_off",
        "note": 42,
        "time": 65364,
        "channel": 9
      },
      {
        "type": "note_on",
        "note": 42,
        "velocity": 25,
        "time": 65394,
        "channel": 9
      },
      {
        "type": "note_off",
        "note": 42,
        "time": 65471,
        "channel": 9
      },
      {
        "type": "note_on",
        "note": 40,
        "velocity": 91,
        "time": 65490,
        "channel": 9
      },
      {
        "type": "note_off",
        "note": 40,
        "time": 65567,
        "channel": 9
      },
      {
        "type": "note_on",
        "note": 46,
        "velocity": 30,
        "time": 65619,
        "channel": 9
      },
      {
        "type": "note_on",
        "note": 36,
        "velocity": 60,
        "time": 65625,
        "channel": 9
      },
      {
        "type": "note_off",
        "note": 46,
        "time": 65696,
        "channel": 9
      },
      {
        "type": "note_off",
        "note": 36,
        "time": 65701,
        "channel": 9
      },
      {
        "type": "note_on",
        "note": 44,
        "velocity": 75,
        "time": 65721,
        "channel": 9
      },
      {
        "type": "note_on",
        "note": 42,
        "velocity": 35,
        "time": 65743,
        "channel": 9
      },
      {
        "type": "note_off",
        "note": 44,
        "time": 65798,
        "channel": 9
      },
      {
        "type": "note_off",
        "note": 42,
        "time": 65820,
        "channel": 9
      },
      {
        "type": "note_on",
        "note": 37,
        "velocity": 72,
        "time": 65853,
        "channel": 9
      },
      {
        "type": "note_off",
        "note": 37,
        "time": 65878,
        "channel": 9
      },
      {
        "type": "note_on",
        "note": 37,
        "velocity": 43,
        "time": 65878,
        "channel": 9
      },
      {
        "type": "note_off",
        "note": 37,
        "time": 65929,
        "channel": 9
      },
      {
        "type": "note_on",
        "note": 42,
        "velocity": 33,
        "time": 65965,
        "channel": 9
      },
      {
        "type": "note_off",
        "note": 42,
        "time": 66042,
        "channel": 9
      },
      {
        "type": "note_on",
        "note": 36,
        "velocity": 49,
        "time": 66073,
        "channel": 9
      },
      {
        "type": "note_on",
        "note": 26,
        "velocity": 74,
        "time": 66083,
        "channel": 9
      },
      {
        "type": "note_off",
        "note": 36,
        "time": 66149,
        "channel": 9
      },
      {
        "type": "note_off",
        "note": 26,
        "time": 66160,
        "channel": 9
      },
      {
        "type": "note_on",
        "note": 44,
        "velocity": 60,
        "time": 66206,
        "channel": 9
      },
      {
        "type": "note_on",
        "note": 38,
        "velocity": 8,
        "time": 66209,
        "channel": 9
      },
      {
        "type": "note_off",
        "note": 44,
        "time": 66282,
        "channel": 9
      },
      {
        "type": "note_off",
        "note": 38,
        "time": 66286,
        "channel": 9
      },
      {
        "type": "note_on",
        "note": 36,
        "velocity": 27,
        "time": 66313,
        "channel": 9
      },
      {
        "type": "note_on",
        "note": 42,
        "velocity": 38,
        "time": 66324,
        "channel": 9
      },
      {
        "type": "note_off",
        "note": 36,
        "time": 66390,
        "channel": 9
      },
      {
        "type": "note_off",
        "note": 42,
        "time": 66401,
        "channel": 9
      },
      {
        "type": "note_on",
        "note": 26,
        "velocity": 72,
        "time": 66443,
        "channel": 9
      },
      {
        "type": "note_on",
        "note": 36,
        "velocity": 62,
        "time": 66448,
        "channel": 9
      },
      {
        "type": "note_off",
        "note": 26,
        "time": 66520,
        "channel": 9
      },
      {
        "type": "note_off",
        "note": 36,
        "time": 66524,
        "channel": 9
      },
      {
        "type": "note_on",
        "note": 44,
        "velocity": 42,
        "time": 66687,
        "channel": 9
      },
      {
        "type": "note_on",
        "note": 40,
        "velocity": 112,
        "time": 66690,
        "channel": 9
      },
      {
        "type": "note_off",
        "note": 44,
        "time": 66763,
        "channel": 9
      },
      {
        "type": "note_off",
        "note": 40,
        "time": 66767,
        "channel": 9
      },
      {
        "type": "note_on",
        "note": 42,
        "velocity": 36,
        "time": 66815,
        "channel": 9
      },
      {
        "type": "note_off",
        "note": 42,
        "time": 66892,
        "channel": 9
      },
      {
        "type": "note_on",
        "note": 22,
        "velocity": 77,
        "time": 66951,
        "channel": 9
      },
      {
        "type": "note_off",
        "note": 22,
        "time": 67028,
        "channel": 9
      },
      {
        "type": "note_on",
        "note": 38,
        "velocity": 24,
        "time": 67053,
        "channel": 9
      },
      {
        "type": "note_off",
        "note": 38,
        "time": 67124,
        "channel": 9
      },
      {
        "type": "note_on",
        "note": 38,
        "velocity": 32,
        "time": 67124,
        "channel": 9
      },
      {
        "type": "note_off",
        "note": 38,
        "time": 67130,
        "channel": 9
      },
      {
        "type": "note_on",
        "note": 36,
        "velocity": 55,
        "time": 67202,
        "channel": 9
      },
      {
        "type": "note_on",
        "note": 42,
        "velocity": 33,
        "time": 67206,
        "channel": 9
      },
      {
        "type": "note_off",
        "note": 36,
        "time": 67278,
        "channel": 9
      },
      {
        "type": "note_off",
        "note": 42,
        "time": 67283,
        "channel": 9
      },
      {
        "type": "note_on",
        "note": 42,
        "velocity": 19,
        "time": 67318,
        "channel": 9
      },
      {
        "type": "note_off",
        "note": 42,
        "time": 67395,
        "channel": 9
      },
      {
        "type": "note_on",
        "note": 37,
        "velocity": 78,
        "time": 67431,
        "channel": 9
      },
      {
        "type": "note_off",
        "note": 37,
        "time": 67508,
        "channel": 9
      },
      {
        "type": "note_on",
        "note": 36,
        "velocity": 55,
        "time": 67566,
        "channel": 9
      },
      {
        "type": "note_on",
        "note": 46,
        "velocity": 25,
        "time": 67566,
        "channel": 9
      },
      {
        "type": "note_off",
        "note": 36,
        "time": 67642,
        "channel": 9
      },
      {
        "type": "note_off",
        "note": 46,
        "time": 67644,
        "channel": 9
      },
      {
        "type": "note_on",
        "note": 44,
        "velocity": 40,
        "time": 67646,
        "channel": 9
      },
      {
        "type": "note_on",
        "note": 42,
        "velocity": 37,
        "time": 67682,
        "channel": 9
      },
      {
        "type": "note_off",
        "note": 44,
        "time": 67722,
        "channel": 9
      },
      {
        "type": "note_off",
        "note": 42,
        "time": 67759,
        "channel": 9
      },
      {
        "type": "note_on",
        "note": 38,
        "velocity": 73,
        "time": 67799,
        "channel": 9
      },
      {
        "type": "note_off",
        "note": 38,
        "time": 67876,
        "channel": 9
      },
      {
        "type": "note_on",
        "note": 42,
        "velocity": 30,
        "time": 67923,
        "channel": 9
      },
      {
        "type": "note_off",
        "note": 42,
        "time": 68000,
        "channel": 9
      },
      {
        "type": "note_on",
        "note": 36,
        "velocity": 56,
        "time": 68018,
        "channel": 9
      },
      {
        "type": "note_on",
        "note": 26,
        "velocity": 68,
        "time": 68032,
        "channel": 9
      },
      {
        "type": "note_off",
        "note": 36,
        "time": 68095,
        "channel": 9
      },
      {
        "type": "note_off",
        "note": 26,
        "time": 68109,
        "channel": 9
      },
      {
        "type": "note_on",
        "note": 44,
        "velocity": 60,
        "time": 68138,
        "channel": 9
      },
      {
        "type": "note_on",
        "note": 38,
        "velocity": 17,
        "time": 68144,
        "channel": 9
      },
      {
        "type": "note_off",
        "note": 44,
        "time": 68215,
        "channel": 9
      },
      {
        "type": "note_off",
        "note": 38,
        "time": 68221,
        "channel": 9
      },
      {
        "type": "note_on",
        "note": 36,
        "velocity": 21,
        "time": 68252,
        "channel": 9
      },
      {
        "type": "note_on",
        "note": 42,
        "velocity": 34,
        "time": 68279,
        "channel": 9
      },
      {
        "type": "note_off",
        "note": 36,
        "time": 68329,
        "channel": 9
      },
      {
        "type": "note_off",
        "note": 42,
        "time": 68356,
        "channel": 9
      },
      {
        "type": "note_on",
        "note": 36,
        "velocity": 57,
        "time": 68384,
        "channel": 9
      },
      {
        "type": "note_on",
        "note": 26,
        "velocity": 78,
        "time": 68390,
        "channel": 9
      },
      {
        "type": "note_off",
        "note": 36,
        "time": 68461,
        "channel": 9
      },
      {
        "type": "note_off",
        "note": 26,
        "time": 68467,
        "channel": 9
      },
      {
        "type": "note_on",
        "note": 44,
        "velocity": 42,
        "time": 68620,
        "channel": 9
      },
      {
        "type": "note_on",
        "note": 40,
        "velocity": 103,
        "time": 68639,
        "channel": 9
      },
      {
        "type": "note_off",
        "note": 44,
        "time": 68697,
        "channel": 9
      },
      {
        "type": "note_off",
        "note": 40,
        "time": 68716,
        "channel": 9
      },
      {
        "type": "note_on",
        "note": 42,
        "velocity": 38,
        "time": 68782,
        "channel": 9
      },
      {
        "type": "note_off",
        "note": 42,
        "time": 68859,
        "channel": 9
      },
      {
        "type": "note_on",
        "note": 22,
        "velocity": 73,
        "time": 68890,
        "channel": 9
      },
      {
        "type": "note_off",
        "note": 22,
        "time": 68967,
        "channel": 9
      },
      {
        "type": "note_on",
        "note": 38,
        "velocity": 27,
        "time": 69001,
        "channel": 9
      },
      {
        "type": "note_off",
        "note": 38,
        "time": 69062,
        "channel": 9
      },
      {
        "type": "note_on",
        "note": 38,
        "velocity": 32,
        "time": 69062,
        "channel": 9
      },
      {
        "type": "note_off",
        "note": 38,
        "time": 69078,
        "channel": 9
      },
      {
        "type": "note_on",
        "note": 42,
        "velocity": 43,
        "time": 69134,
        "channel": 9
      },
      {
        "type": "note_on",
        "note": 36,
        "velocity": 55,
        "time": 69143,
        "channel": 9
      },
      {
        "type": "note_off",
        "note": 42,
        "time": 69210,
        "channel": 9
      },
      {
        "type": "note_off",
        "note": 36,
        "time": 69220,
        "channel": 9
      },
      {
        "type": "note_on",
        "note": 42,
        "velocity": 35,
        "time": 69241,
        "channel": 9
      },
      {
        "type": "note_off",
        "note": 42,
        "time": 69318,
        "channel": 9
      },
      {
        "type": "note_on",
        "note": 37,
        "velocity": 81,
        "time": 69347,
        "channel": 9
      },
      {
        "type": "note_off",
        "note": 37,
        "time": 69424,
        "channel": 9
      },
      {
        "type": "note_on",
        "note": 42,
        "velocity": 44,
        "time": 69479,
        "channel": 9
      },
      {
        "type": "note_on",
        "note": 36,
        "velocity": 57,
        "time": 69494,
        "channel": 9
      },
      {
        "type": "note_off",
        "note": 42,
        "time": 69555,
        "channel": 9
      },
      {
        "type": "note_off",
        "note": 36,
        "time": 69570,
        "channel": 9
      },
      {
        "type": "note_on",
        "note": 42,
        "velocity": 20,
        "time": 69609,
        "channel": 9
      },
      {
        "type": "note_off",
        "note": 42,
        "time": 69686,
        "channel": 9
      },
      {
        "type": "note_on",
        "note": 37,
        "velocity": 77,
        "time": 69722,
        "channel": 9
      },
      {
        "type": "note_off",
        "note": 37,
        "time": 69751,
        "channel": 9
      },
      {
        "type": "note_on",
        "note": 37,
        "velocity": 35,
        "time": 69751,
        "channel": 9
      },
      {
        "type": "note_off",
        "note": 37,
        "time": 69798,
        "channel": 9
      },
      {
        "type": "note_on",
        "note": 42,
        "velocity": 46,
        "time": 69838,
        "channel": 9
      },
      {
        "type": "note_off",
        "note": 42,
        "time": 69915,
        "channel": 9
      },
      {
        "type": "note_on",
        "note": 38,
        "velocity": 17,
        "time": 69944,
        "channel": 9
      },
      {
        "type": "note_off",
        "note": 38,
        "time": 69975,
        "channel": 9
      },
      {
        "type": "note_on",
        "note": 38,
        "velocity": 19,
        "time": 69975,
        "channel": 9
      },
      {
        "type": "note_off",
        "note": 38,
        "time": 69994,
        "channel": 9
      },
      {
        "type": "note_on",
        "note": 38,
        "velocity": 21,
        "time": 69994,
        "channel": 9
      },
      {
        "type": "note_off",
        "note": 38,
        "time": 70021,
        "channel": 9
      },
      {
        "type": "note_on",
        "note": 26,
        "velocity": 101,
        "time": 70081,
        "channel": 9
      },
      {
        "type": "note_off",
        "note": 26,
        "time": 70159,
        "channel": 9
      },
      {
        "type": "note_on",
        "note": 38,
        "velocity": 18,
        "time": 70213,
        "channel": 9
      },
      {
        "type": "note_off",
        "note": 38,
        "time": 70289,
        "channel": 9
      },
      {
        "type": "note_on",
        "note": 44,
        "velocity": 50,
        "time": 70300,
        "channel": 9
      },
      {
        "type": "note_on",
        "note": 42,
        "velocity": 51,
        "time": 70323,
        "channel": 9
      },
      {
        "type": "note_on",
        "note": 38,
        "velocity": 8,
        "time": 70332,
        "channel": 9
      },
      {
        "type": "note_off",
        "note": 44,
        "time": 70377,
        "channel": 9
      },
      {
        "type": "note_off",
        "note": 42,
        "time": 70400,
        "channel": 9
      },
      {
        "type": "note_off",
        "note": 38,
        "time": 70409,
        "channel": 9
      },
      {
        "type": "note_on",
        "note": 38,
        "velocity": 12,
        "time": 70416,
        "channel": 9
      },
      {
        "type": "note_on",
        "note": 42,
        "velocity": 33,
        "time": 70436,
        "channel": 9
      },
      {
        "type": "note_off",
        "note": 38,
        "time": 70458,
        "channel": 9
      },
      {
        "type": "note_on",
        "note": 38,
        "velocity": 8,
        "time": 70458,
        "channel": 9
      },
      {
        "type": "note_off",
        "note": 38,
        "time": 70480,
        "channel": 9
      },
      {
        "type": "note_on",
        "note": 38,
        "velocity": 13,
        "time": 70480,
        "channel": 9
      },
      {
        "type": "note_off",
        "note": 38,
        "time": 70492,
        "channel": 9
      },
      {
        "type": "note_off",
        "note": 42,
        "time": 70513,
        "channel": 9
      },
      {
        "type": "note_on",
        "note": 26,
        "velocity": 101,
        "time": 70557,
        "channel": 9
      },
      {
        "type": "note_off",
        "note": 26,
        "time": 70634,
        "channel": 9
      },
      {
        "type": "note_on",
        "note": 44,
        "velocity": 55,
        "time": 70795,
        "channel": 9
      },
      {
        "type": "note_on",
        "note": 37,
        "velocity": 68,
        "time": 70803,
        "channel": 9
      },
      {
        "type": "note_on",
        "note": 42,
        "velocity": 52,
        "time": 70808,
        "channel": 9
      },
      {
        "type": "note_off",
        "note": 44,
        "time": 70872,
        "channel": 9
      },
      {
        "type": "note_off",
        "note": 37,
        "time": 70881,
        "channel": 9
      },
      {
        "type": "note_off",
        "note": 42,
        "time": 70885,
        "channel": 9
      },
      {
        "type": "note_on",
        "note": 42,
        "velocity": 26,
        "time": 70924,
        "channel": 9
      },
      {
        "type": "note_on",
        "note": 38,
        "velocity": 19,
        "time": 70929,
        "channel": 9
      },
      {
        "type": "note_off",
        "note": 42,
        "time": 71001,
        "channel": 9
      },
      {
        "type": "note_off",
        "note": 38,
        "time": 71005,
        "channel": 9
      },
      {
        "type": "note_on",
        "note": 22,
        "velocity": 60,
        "time": 71042,
        "channel": 9
      },
      {
        "type": "note_on",
        "note": 36,
        "velocity": 57,
        "time": 71050,
        "channel": 9
      },
      {
        "type": "note_off",
        "note": 22,
        "time": 71119,
        "channel": 9
      },
      {
        "type": "note_off",
        "note": 36,
        "time": 71127,
        "channel": 9
      },
      {
        "type": "note_on",
        "note": 37,
        "velocity": 64,
        "time": 71157,
        "channel": 9
      },
      {
        "type": "note_off",
        "note": 37,
        "time": 71233,
        "channel": 9
      },
      {
        "type": "note_on",
        "note": 42,
        "velocity": 25,
        "time": 71264,
        "channel": 9
      },
      {
        "type": "note_off",
        "note": 42,
        "time": 71341,
        "channel": 9
      },
      {
        "type": "note_on",
        "note": 36,
        "velocity": 61,
        "time": 71375,
        "channel": 9
      },
      {
        "type": "note_on",
        "note": 22,
        "velocity": 77,
        "time": 71379,
        "channel": 9
      },
      {
        "type": "note_off",
        "note": 36,
        "time": 71452,
        "channel": 9
      },
      {
        "type": "note_off",
        "note": 22,
        "time": 71455,
        "channel": 9
      },
      {
        "type": "note_on",
        "note": 44,
        "velocity": 82,
        "time": 71493,
        "channel": 9
      },
      {
        "type": "note_off",
        "note": 44,
        "time": 71569,
        "channel": 9
      },
      {
        "type": "note_on",
        "note": 42,
        "velocity": 42,
        "time": 71618,
        "channel": 9
      },
      {
        "type": "note_off",
        "note": 42,
        "time": 71695,
        "channel": 9
      },
      {
        "type": "note_on",
        "note": 22,
        "velocity": 79,
        "time": 71740,
        "channel": 9
      },
      {
        "type": "note_off",
        "note": 22,
        "time": 71817,
        "channel": 9
      },
      {
        "type": "note_on",
        "note": 38,
        "velocity": 15,
        "time": 71854,
        "channel": 9
      },
      {
        "type": "note_off",
        "note": 38,
        "time": 71930,
        "channel": 9
      },
      {
        "type": "note_on",
        "note": 38,
        "velocity": 29,
        "time": 71967,
        "channel": 9
      },
      {
        "type": "note_on",
        "note": 42,
        "velocity": 28,
        "time": 71979,
        "channel": 9
      },
      {
        "type": "note_off",
        "note": 38,
        "time": 72043,
        "channel": 9
      },
      {
        "type": "note_off",
        "note": 42,
        "time": 72056,
        "channel": 9
      },
      {
        "type": "note_on",
        "note": 42,
        "velocity": 28,
        "time": 72100,
        "channel": 9
      },
      {
        "type": "note_on",
        "note": 36,
        "velocity": 54,
        "time": 72107,
        "channel": 9
      },
      {
        "type": "note_off",
        "note": 42,
        "time": 72176,
        "channel": 9
      },
      {
        "type": "note_off",
        "note": 36,
        "time": 72183,
        "channel": 9
      },
      {
        "type": "note_on",
        "note": 40,
        "velocity": 96,
        "time": 72230,
        "channel": 9
      },
      {
        "type": "note_off",
        "note": 40,
        "time": 72306,
        "channel": 9
      },
      {
        "type": "note_on",
        "note": 42,
        "velocity": 20,
        "time": 72362,
        "channel": 9
      },
      {
        "type": "note_off",
        "note": 42,
        "time": 72439,
        "channel": 9
      },
      {
        "type": "note_on",
        "note": 42,
        "velocity": 28,
        "time": 72478,
        "channel": 9
      },
      {
        "type": "note_off",
        "note": 42,
        "time": 72555,
        "channel": 9
      },
      {
        "type": "note_on",
        "note": 40,
        "velocity": 127,
        "time": 72607,
        "channel": 9
      },
      {
        "type": "note_off",
        "note": 40,
        "time": 72683,
        "channel": 9
      },
      {
        "type": "note_on",
        "note": 42,
        "velocity": 43,
        "time": 72731,
        "channel": 9
      },
      {
        "type": "note_off",
        "note": 42,
        "time": 72808,
        "channel": 9
      },
      {
        "type": "note_on",
        "note": 36,
        "velocity": 55,
        "time": 72963,
        "channel": 9
      },
      {
        "type": "note_on",
        "note": 42,
        "velocity": 27,
        "time": 72978,
        "channel": 9
      },
      {
        "type": "note_off",
        "note": 36,
        "time": 73039,
        "channel": 9
      },
      {
        "type": "note_off",
        "note": 42,
        "time": 73055,
        "channel": 9
      },
      {
        "type": "note_on",
        "note": 37,
        "velocity": 83,
        "time": 73092,
        "channel": 9
      },
      {
        "type": "note_off",
        "note": 37,
        "time": 73168,
        "channel": 9
      },
      {
        "type": "note_on",
        "note": 42,
        "velocity": 33,
        "time": 73206,
        "channel": 9
      },
      {
        "type": "note_off",
        "note": 42,
        "time": 73283,
        "channel": 9
      },
      {
        "type": "note_on",
        "note": 46,
        "velocity": 44,
        "time": 73323,
        "channel": 9
      },
      {
        "type": "note_on",
        "note": 36,
        "velocity": 57,
        "time": 73326,
        "channel": 9
      },
      {
        "type": "note_off",
        "note": 46,
        "time": 73399,
        "channel": 9
      },
      {
        "type": "note_off",
        "note": 36,
        "time": 73403,
        "channel": 9
      },
      {
        "type": "note_on",
        "note": 44,
        "velocity": 85,
        "time": 73436,
        "channel": 9
      },
      {
        "type": "note_on",
        "note": 38,
        "velocity": 14,
        "time": 73469,
        "channel": 9
      },
      {
        "type": "note_off",
        "note": 44,
        "time": 73513,
        "channel": 9
      },
      {
        "type": "note_off",
        "note": 38,
        "time": 73546,
        "channel": 9
      },
      {
        "type": "note_on",
        "note": 42,
        "velocity": 41,
        "time": 73558,
        "channel": 9
      },
      {
        "type": "note_off",
        "note": 42,
        "time": 73635,
        "channel": 9
      },
      {
        "type": "note_on",
        "note": 22,
        "velocity": 87,
        "time": 73666,
        "channel": 9
      },
      {
        "type": "note_off",
        "note": 22,
        "time": 73743,
        "channel": 9
      },
      {
        "type": "note_on",
        "note": 38,
        "velocity": 19,
        "time": 73779,
        "channel": 9
      },
      {
        "type": "note_off",
        "note": 38,
        "time": 73856,
        "channel": 9
      },
      {
        "type": "note_on",
        "note": 38,
        "velocity": 20,
        "time": 73900,
        "channel": 9
      },
      {
        "type": "note_on",
        "note": 42,
        "velocity": 50,
        "time": 73906,
        "channel": 9
      },
      {
        "type": "note_off",
        "note": 38,
        "time": 73977,
        "channel": 9
      },
      {
        "type": "note_off",
        "note": 42,
        "time": 73983,
        "channel": 9
      },
      {
        "type": "note_on",
        "note": 42,
        "velocity": 30,
        "time": 74036,
        "channel": 9
      },
      {
        "type": "note_on",
        "note": 36,
        "velocity": 53,
        "time": 74047,
        "channel": 9
      },
      {
        "type": "note_off",
        "note": 42,
        "time": 74113,
        "channel": 9
      },
      {
        "type": "note_off",
        "note": 36,
        "time": 74124,
        "channel": 9
      },
      {
        "type": "note_on",
        "note": 38,
        "velocity": 104,
        "time": 74165,
        "channel": 9
      },
      {
        "type": "note_off",
        "note": 38,
        "time": 74241,
        "channel": 9
      },
      {
        "type": "note_on",
        "note": 42,
        "velocity": 49,
        "time": 74283,
        "channel": 9
      },
      {
        "type": "note_off",
        "note": 42,
        "time": 74361,
        "channel": 9
      },
      {
        "type": "note_on",
        "note": 42,
        "velocity": 34,
        "time": 74399,
        "channel": 9
      },
      {
        "type": "note_off",
        "note": 42,
        "time": 74475,
        "channel": 9
      },
      {
        "type": "note_on",
        "note": 38,
        "velocity": 84,
        "time": 74519,
        "channel": 9
      },
      {
        "type": "note_off",
        "note": 38,
        "time": 74595,
        "channel": 9
      },
      {
        "type": "note_on",
        "note": 42,
        "velocity": 45,
        "time": 74641,
        "channel": 9
      },
      {
        "type": "note_off",
        "note": 42,
        "time": 74718,
        "channel": 9
      },
      {
        "type": "note_on",
        "note": 38,
        "velocity": 23,
        "time": 74769,
        "channel": 9
      },
      {
        "type": "note_off",
        "note": 38,
        "time": 74806,
        "channel": 9
      },
      {
        "type": "note_on",
        "note": 38,
        "velocity": 15,
        "time": 74806,
        "channel": 9
      },
      {
        "type": "note_off",
        "note": 38,
        "time": 74831,
        "channel": 9
      },
      {
        "type": "note_on",
        "note": 38,
        "velocity": 22,
        "time": 74831,
        "channel": 9
      },
      {
        "type": "note_off",
        "note": 38,
        "time": 74845,
        "channel": 9
      },
      {
        "type": "note_on",
        "note": 36,
        "velocity": 57,
        "time": 74886,
        "channel": 9
      },
      {
        "type": "note_on",
        "note": 42,
        "velocity": 49,
        "time": 74887,
        "channel": 9
      },
      {
        "type": "note_off",
        "note": 36,
        "time": 74962,
        "channel": 9
      },
      {
        "type": "note_off",
        "note": 42,
        "time": 74964,
        "channel": 9
      },
      {
        "type": "note_on",
        "note": 37,
        "velocity": 67,
        "time": 75004,
        "channel": 9
      },
      {
        "type": "note_off",
        "note": 37,
        "time": 75081,
        "channel": 9
      },
      {
        "type": "note_on",
        "note": 42,
        "velocity": 31,
        "time": 75125,
        "channel": 9
      },
      {
        "type": "note_off",
        "note": 42,
        "time": 75202,
        "channel": 9
      },
      {
        "type": "note_on",
        "note": 36,
        "velocity": 55,
        "time": 75224,
        "channel": 9
      },
      {
        "type": "note_on",
        "note": 26,
        "velocity": 59,
        "time": 75233,
        "channel": 9
      },
      {
        "type": "note_off",
        "note": 36,
        "time": 75301,
        "channel": 9
      },
      {
        "type": "note_off",
        "note": 26,
        "time": 75310,
        "channel": 9
      },
      {
        "type": "note_on",
        "note": 44,
        "velocity": 82,
        "time": 75332,
        "channel": 9
      },
      {
        "type": "note_on",
        "note": 38,
        "velocity": 11,
        "time": 75365,
        "channel": 9
      },
      {
        "type": "note_off",
        "note": 44,
        "time": 75409,
        "channel": 9
      },
      {
        "type": "note_off",
        "note": 38,
        "time": 75442,
        "channel": 9
      },
      {
        "type": "note_on",
        "note": 42,
        "velocity": 36,
        "time": 75473,
        "channel": 9
      },
      {
        "type": "note_off",
        "note": 42,
        "time": 75550,
        "channel": 9
      },
      {
        "type": "note_on",
        "note": 22,
        "velocity": 80,
        "time": 75585,
        "channel": 9
      },
      {
        "type": "note_off",
        "note": 22,
        "time": 75662,
        "channel": 9
      },
      {
        "type": "note_on",
        "note": 38,
        "velocity": 18,
        "time": 75700,
        "channel": 9
      },
      {
        "type": "note_off",
        "note": 38,
        "time": 75777,
        "channel": 9
      },
      {
        "type": "note_on",
        "note": 42,
        "velocity": 34,
        "time": 75822,
        "channel": 9
      },
      {
        "type": "note_on",
        "note": 38,
        "velocity": 26,
        "time": 75829,
        "channel": 9
      },
      {
        "type": "note_off",
        "note": 42,
        "time": 75899,
        "channel": 9
      },
      {
        "type": "note_off",
        "note": 38,
        "time": 75906,
        "channel": 9
      },
      {
        "type": "note_on",
        "note": 42,
        "velocity": 36,
        "time": 75936,
        "channel": 9
      },
      {
        "type": "note_on",
        "note": 36,
        "velocity": 54,
        "time": 75943,
        "channel": 9
      },
      {
        "type": "note_off",
        "note": 42,
        "time": 76014,
        "channel": 9
      },
      {
        "type": "note_off",
        "note": 36,
        "time": 76019,
        "channel": 9
      },
      {
        "type": "note_on",
        "note": 40,
        "velocity": 103,
        "time": 76074,
        "channel": 9
      },
      {
        "type": "note_off",
        "note": 40,
        "time": 76150,
        "channel": 9
      },
      {
        "type": "note_on",
        "note": 42,
        "velocity": 41,
        "time": 76190,
        "channel": 9
      },
      {
        "type": "note_off",
        "note": 42,
        "time": 76268,
        "channel": 9
      },
      {
        "type": "note_on",
        "note": 42,
        "velocity": 31,
        "time": 76316,
        "channel": 9
      },
      {
        "type": "note_off",
        "note": 42,
        "time": 76394,
        "channel": 9
      },
      {
        "type": "note_on",
        "note": 40,
        "velocity": 124,
        "time": 76439,
        "channel": 9
      },
      {
        "type": "note_off",
        "note": 40,
        "time": 76516,
        "channel": 9
      },
      {
        "type": "note_on",
        "note": 42,
        "velocity": 44,
        "time": 76562,
        "channel": 9
      },
      {
        "type": "note_off",
        "note": 42,
        "time": 76638,
        "channel": 9
      },
      {
        "type": "note_on",
        "note": 38,
        "velocity": 20,
        "time": 76666,
        "channel": 9
      },
      {
        "type": "note_off",
        "note": 38,
        "time": 76743,
        "channel": 9
      },
      {
        "type": "note_on",
        "note": 36,
        "velocity": 57,
        "time": 76792,
        "channel": 9
      },
      {
        "type": "note_on",
        "note": 42,
        "velocity": 10,
        "time": 76808,
        "channel": 9
      },
      {
        "type": "note_off",
        "note": 36,
        "time": 76869,
        "channel": 9
      },
      {
        "type": "note_off",
        "note": 42,
        "time": 76885,
        "channel": 9
      },
      {
        "type": "note_on",
        "note": 40,
        "velocity": 120,
        "time": 76911,
        "channel": 9
      },
      {
        "type": "note_off",
        "note": 40,
        "time": 76988,
        "channel": 9
      },
      {
        "type": "note_on",
        "note": 42,
        "velocity": 44,
        "time": 77039,
        "channel": 9
      },
      {
        "type": "note_off",
        "note": 42,
        "time": 77116,
        "channel": 9
      },
      {
        "type": "note_on",
        "note": 36,
        "velocity": 57,
        "time": 77149,
        "channel": 9
      },
      {
        "type": "note_on",
        "note": 46,
        "velocity": 61,
        "time": 77161,
        "channel": 9
      },
      {
        "type": "note_off",
        "note": 36,
        "time": 77226,
        "channel": 9
      },
      {
        "type": "note_off",
        "note": 46,
        "time": 77237,
        "channel": 9
      },
      {
        "type": "note_on",
        "note": 44,
        "velocity": 85,
        "time": 77263,
        "channel": 9
      },
      {
        "type": "note_on",
        "note": 38,
        "velocity": 13,
        "time": 77267,
        "channel": 9
      },
      {
        "type": "note_off",
        "note": 44,
        "time": 77340,
        "channel": 9
      },
      {
        "type": "note_off",
        "note": 38,
        "time": 77344,
        "channel": 9
      },
      {
        "type": "note_on",
        "note": 42,
        "velocity": 31,
        "time": 77389,
        "channel": 9
      },
      {
        "type": "note_off",
        "note": 42,
        "time": 77466,
        "channel": 9
      },
      {
        "type": "note_on",
        "note": 42,
        "velocity": 66,
        "time": 77504,
        "channel": 9
      },
      {
        "type": "note_off",
        "note": 42,
        "time": 77581,
        "channel": 9
      },
      {
        "type": "note_on",
        "note": 38,
        "velocity": 24,
        "time": 77629,
        "channel": 9
      },
      {
        "type": "note_off",
        "note": 38,
        "time": 77705,
        "channel": 9
      },
      {
        "type": "note_on",
        "note": 42,
        "velocity": 33,
        "time": 77744,
        "channel": 9
      },
      {
        "type": "note_on",
        "note": 38,
        "velocity": 28,
        "time": 77748,
        "channel": 9
      },
      {
        "type": "note_off",
        "note": 42,
        "time": 77821,
        "channel": 9
      },
      {
        "type": "note_off",
        "note": 38,
        "time": 77825,
        "channel": 9
      },
      {
        "type": "note_on",
        "note": 36,
        "velocity": 57,
        "time": 77859,
        "channel": 9
      },
      {
        "type": "note_on",
        "note": 42,
        "velocity": 24,
        "time": 77878,
        "channel": 9
      },
      {
        "type": "note_off",
        "note": 36,
        "time": 77936,
        "channel": 9
      },
      {
        "type": "note_off",
        "note": 42,
        "time": 77955,
        "channel": 9
      },
      {
        "type": "note_on",
        "note": 40,
        "velocity": 114,
        "time": 77987,
        "channel": 9
      },
      {
        "type": "note_off",
        "note": 40,
        "time": 78064,
        "channel": 9
      },
      {
        "type": "note_on",
        "note": 42,
        "velocity": 34,
        "time": 78103,
        "channel": 9
      },
      {
        "type": "note_off",
        "note": 42,
        "time": 78180,
        "channel": 9
      },
      {
        "type": "note_on",
        "note": 42,
        "velocity": 67,
        "time": 78226,
        "channel": 9
      },
      {
        "type": "note_off",
        "note": 42,
        "time": 78303,
        "channel": 9
      },
      {
        "type": "note_on",
        "note": 40,
        "velocity": 107,
        "time": 78350,
        "channel": 9
      },
      {
        "type": "note_off",
        "note": 40,
        "time": 78427,
        "channel": 9
      },
      {
        "type": "note_on",
        "note": 42,
        "velocity": 56,
        "time": 78470,
        "channel": 9
      },
      {
        "type": "note_off",
        "note": 42,
        "time": 78547,
        "channel": 9
      },
      {
        "type": "note_on",
        "note": 38,
        "velocity": 30,
        "time": 78571,
        "channel": 9
      },
      {
        "type": "note_off",
        "note": 38,
        "time": 78648,
        "channel": 9
      },
      {
        "type": "note_on",
        "note": 42,
        "velocity": 49,
        "time": 78700,
        "channel": 9
      },
      {
        "type": "note_on",
        "note": 36,
        "velocity": 62,
        "time": 78708,
        "channel": 9
      },
      {
        "type": "note_off",
        "note": 42,
        "time": 78777,
        "channel": 9
      },
      {
        "type": "note_off",
        "note": 36,
        "time": 78785,
        "channel": 9
      },
      {
        "type": "note_on",
        "note": 40,
        "velocity": 109,
        "time": 78832,
        "channel": 9
      },
      {
        "type": "note_off",
        "note": 40,
        "time": 78908,
        "channel": 9
      },
      {
        "type": "note_on",
        "note": 42,
        "velocity": 27,
        "time": 78953,
        "channel": 9
      },
      {
        "type": "note_on",
        "note": 38,
        "velocity": 11,
        "time": 78985,
        "channel": 9
      },
      {
        "type": "note_off",
        "note": 42,
        "time": 79030,
        "channel": 9
      },
      {
        "type": "note_on",
        "note": 26,
        "velocity": 70,
        "time": 79057,
        "channel": 9
      },
      {
        "type": "note_on",
        "note": 36,
        "velocity": 58,
        "time": 79060,
        "channel": 9
      },
      {
        "type": "note_off",
        "note": 38,
        "time": 79062,
        "channel": 9
      },
      {
        "type": "note_off",
        "note": 26,
        "time": 79134,
        "channel": 9
      },
      {
        "type": "note_off",
        "note": 36,
        "time": 79137,
        "channel": 9
      },
      {
        "type": "note_on",
        "note": 44,
        "velocity": 100,
        "time": 79164,
        "channel": 9
      },
      {
        "type": "note_off",
        "note": 44,
        "time": 79241,
        "channel": 9
      },
      {
        "type": "note_on",
        "note": 42,
        "velocity": 53,
        "time": 79295,
        "channel": 9
      },
      {
        "type": "note_off",
        "note": 42,
        "time": 79372,
        "channel": 9
      },
      {
        "type": "note_on",
        "note": 42,
        "velocity": 65,
        "time": 79411,
        "channel": 9
      },
      {
        "type": "note_off",
        "note": 42,
        "time": 79488,
        "channel": 9
      },
      {
        "type": "note_on",
        "note": 38,
        "velocity": 20,
        "time": 79528,
        "channel": 9
      },
      {
        "type": "note_off",
        "note": 38,
        "time": 79605,
        "channel": 9
      },
      {
        "type": "note_on",
        "note": 38,
        "velocity": 28,
        "time": 79642,
        "channel": 9
      },
      {
        "type": "note_on",
        "note": 42,
        "velocity": 44,
        "time": 79658,
        "channel": 9
      },
      {
        "type": "note_off",
        "note": 38,
        "time": 79719,
        "channel": 9
      },
      {
        "type": "note_off",
        "note": 42,
        "time": 79735,
        "channel": 9
      },
      {
        "type": "note_on",
        "note": 36,
        "velocity": 49,
        "time": 79746,
        "channel": 9
      },
      {
        "type": "note_on",
        "note": 42,
        "velocity": 32,
        "time": 79768,
        "channel": 9
      },
      {
        "type": "note_off",
        "note": 36,
        "time": 79823,
        "channel": 9
      },
      {
        "type": "note_off",
        "note": 42,
        "time": 79846,
        "channel": 9
      },
      {
        "type": "note_on",
        "note": 40,
        "velocity": 120,
        "time": 79881,
        "channel": 9
      },
      {
        "type": "note_off",
        "note": 40,
        "time": 79958,
        "channel": 9
      },
      {
        "type": "note_on",
        "note": 42,
        "velocity": 50,
        "time": 80012,
        "channel": 9
      },
      {
        "type": "note_off",
        "note": 42,
        "time": 80089,
        "channel": 9
      },
      {
        "type": "note_on",
        "note": 42,
        "velocity": 45,
        "time": 80125,
        "channel": 9
      },
      {
        "type": "note_off",
        "note": 42,
        "time": 80201,
        "channel": 9
      },
      {
        "type": "note_on",
        "note": 40,
        "velocity": 105,
        "time": 80243,
        "channel": 9
      },
      {
        "type": "note_off",
        "note": 40,
        "time": 80320,
        "channel": 9
      },
      {
        "type": "note_on",
        "note": 42,
        "velocity": 35,
        "time": 80381,
        "channel": 9
      },
      {
        "type": "note_off",
        "note": 42,
        "time": 80458,
        "channel": 9
      },
      {
        "type": "note_on",
        "note": 38,
        "velocity": 30,
        "time": 80493,
        "channel": 9
      },
      {
        "type": "note_off",
        "note": 38,
        "time": 80569,
        "channel": 9
      },
      {
        "type": "note_on",
        "note": 36,
        "velocity": 56,
        "time": 80622,
        "channel": 9
      },
      {
        "type": "note_on",
        "note": 42,
        "velocity": 50,
        "time": 80626,
        "channel": 9
      },
      {
        "type": "note_off",
        "note": 36,
        "time": 80699,
        "channel": 9
      },
      {
        "type": "note_off",
        "note": 42,
        "time": 80704,
        "channel": 9
      },
      {
        "type": "note_on",
        "note": 40,
        "velocity": 94,
        "time": 80746,
        "channel": 9
      },
      {
        "type": "note_off",
        "note": 40,
        "time": 80823,
        "channel": 9
      },
      {
        "type": "note_on",
        "note": 42,
        "velocity": 44,
        "time": 80868,
        "channel": 9
      },
      {
        "type": "note_off",
        "note": 42,
        "time": 80945,
        "channel": 9
      },
      {
        "type": "note_on",
        "note": 36,
        "velocity": 64,
        "time": 80990,
        "channel": 9
      },
      {
        "type": "note_on",
        "note": 26,
        "velocity": 76,
        "time": 81003,
        "channel": 9
      },
      {
        "type": "note_off",
        "note": 36,
        "time": 81066,
        "channel": 9
      },
      {
        "type": "note_off",
        "note": 26,
        "time": 81080,
        "channel": 9
      },
      {
        "type": "note_on",
        "note": 44,
        "velocity": 85,
        "time": 81100,
        "channel": 9
      },
      {
        "type": "note_on",
        "note": 38,
        "velocity": 16,
        "time": 81116,
        "channel": 9
      },
      {
        "type": "note_off",
        "note": 44,
        "time": 81176,
        "channel": 9
      },
      {
        "type": "note_off",
        "note": 38,
        "time": 81193,
        "channel": 9
      },
      {
        "type": "note_on",
        "note": 42,
        "velocity": 49,
        "time": 81229,
        "channel": 9
      },
      {
        "type": "note_off",
        "note": 42,
        "time": 81306,
        "channel": 9
      },
      {
        "type": "note_on",
        "note": 42,
        "velocity": 57,
        "time": 81352,
        "channel": 9
      },
      {
        "type": "note_off",
        "note": 42,
        "time": 81429,
        "channel": 9
      },
      {
        "type": "note_on",
        "note": 38,
        "velocity": 19,
        "time": 81462,
        "channel": 9
      },
      {
        "type": "note_off",
        "note": 38,
        "time": 81539,
        "channel": 9
      },
      {
        "type": "note_on",
        "note": 38,
        "velocity": 28,
        "time": 81574,
        "channel": 9
      },
      {
        "type": "note_on",
        "note": 42,
        "velocity": 53,
        "time": 81592,
        "channel": 9
      },
      {
        "type": "note_off",
        "note": 38,
        "time": 81651,
        "channel": 9
      },
      {
        "type": "note_off",
        "note": 42,
        "time": 81670,
        "channel": 9
      },
      {
        "type": "note_on",
        "note": 36,
        "velocity": 45,
        "time": 81694,
        "channel": 9
      },
      {
        "type": "note_on",
        "note": 42,
        "velocity": 44,
        "time": 81706,
        "channel": 9
      },
      {
        "type": "note_off",
        "note": 36,
        "time": 81771,
        "channel": 9
      },
      {
        "type": "note_off",
        "note": 42,
        "time": 81783,
        "channel": 9
      },
      {
        "type": "note_on",
        "note": 40,
        "velocity": 124,
        "time": 81824,
        "channel": 9
      },
      {
        "type": "note_off",
        "note": 40,
        "time": 81901,
        "channel": 9
      },
      {
        "type": "note_on",
        "note": 42,
        "velocity": 47,
        "time": 81954,
        "channel": 9
      },
      {
        "type": "note_off",
        "note": 42,
        "time": 82031,
        "channel": 9
      },
      {
        "type": "note_on",
        "note": 42,
        "velocity": 27,
        "time": 82072,
        "channel": 9
      },
      {
        "type": "note_off",
        "note": 42,
        "time": 82149,
        "channel": 9
      },
      {
        "type": "note_on",
        "note": 40,
        "velocity": 106,
        "time": 82184,
        "channel": 9
      },
      {
        "type": "note_off",
        "note": 40,
        "time": 82260,
        "channel": 9
      },
      {
        "type": "note_on",
        "note": 42,
        "velocity": 48,
        "time": 82310,
        "channel": 9
      },
      {
        "type": "note_off",
        "note": 42,
        "time": 82387,
        "channel": 9
      },
      {
        "type": "note_on",
        "note": 38,
        "velocity": 19,
        "time": 82424,
        "channel": 9
      },
      {
        "type": "note_off",
        "note": 38,
        "time": 82479,
        "channel": 9
      },
      {
        "type": "note_on",
        "note": 38,
        "velocity": 24,
        "time": 82479,
        "channel": 9
      },
      {
        "type": "note_off",
        "note": 38,
        "time": 82501,
        "channel": 9
      },
      {
        "type": "note_on",
        "note": 38,
        "velocity": 16,
        "time": 82508,
        "channel": 9
      },
      {
        "type": "note_on",
        "note": 36,
        "velocity": 57,
        "time": 82553,
        "channel": 9
      },
      {
        "type": "note_on",
        "note": 42,
        "velocity": 66,
        "time": 82553,
        "channel": 9
      },
      {
        "type": "note_off",
        "note": 38,
        "time": 82556,
        "channel": 9
      },
      {
        "type": "note_off",
        "note": 36,
        "time": 82630,
        "channel": 9
      },
      {
        "type": "note_off",
        "note": 42,
        "time": 82630,
        "channel": 9
      },
      {
        "type": "note_on",
        "note": 40,
        "velocity": 92,
        "time": 82670,
        "channel": 9
      },
      {
        "type": "note_off",
        "note": 40,
        "time": 82746,
        "channel": 9
      },
      {
        "type": "note_on",
        "note": 42,
        "velocity": 40,
        "time": 82793,
        "channel": 9
      },
      {
        "type": "note_off",
        "note": 42,
        "time": 82870,
        "channel": 9
      },
      {
        "type": "note_on",
        "note": 36,
        "velocity": 64,
        "time": 82919,
        "channel": 9
      },
      {
        "type": "note_on",
        "note": 26,
        "velocity": 74,
        "time": 82924,
        "channel": 9
      },
      {
        "type": "note_off",
        "note": 36,
        "time": 82996,
        "channel": 9
      },
      {
        "type": "note_off",
        "note": 26,
        "time": 83001,
        "channel": 9
      },
      {
        "type": "note_on",
        "note": 44,
        "velocity": 90,
        "time": 83037,
        "channel": 9
      },
      {
        "type": "note_on",
        "note": 38,
        "velocity": 14,
        "time": 83055,
        "channel": 9
      },
      {
        "type": "note_off",
        "note": 44,
        "time": 83114,
        "channel": 9
      },
      {
        "type": "note_off",
        "note": 38,
        "time": 83132,
        "channel": 9
      },
      {
        "type": "note_on",
        "note": 42,
        "velocity": 46,
        "time": 83164,
        "channel": 9
      },
      {
        "type": "note_off",
        "note": 42,
        "time": 83241,
        "channel": 9
      },
      {
        "type": "note_on",
        "note": 42,
        "velocity": 59,
        "time": 83279,
        "channel": 9
      },
      {
        "type": "note_off",
        "note": 42,
        "time": 83356,
        "channel": 9
      },
      {
        "type": "note_on",
        "note": 38,
        "velocity": 23,
        "time": 83384,
        "channel": 9
      },
      {
        "type": "note_off",
        "note": 38,
        "time": 83461,
        "channel": 9
      },
      {
        "type": "note_on",
        "note": 38,
        "velocity": 20,
        "time": 83506,
        "channel": 9
      },
      {
        "type": "note_on",
        "note": 42,
        "velocity": 47,
        "time": 83515,
        "channel": 9
      },
      {
        "type": "note_off",
        "note": 38,
        "time": 83583,
        "channel": 9
      },
      {
        "type": "note_off",
        "note": 42,
        "time": 83592,
        "channel": 9
      },
      {
        "type": "note_on",
        "note": 36,
        "velocity": 44,
        "time": 83623,
        "channel": 9
      },
      {
        "type": "note_on",
        "note": 42,
        "velocity": 37,
        "time": 83637,
        "channel": 9
      },
      {
        "type": "note_off",
        "note": 36,
        "time": 83699,
        "channel": 9
      },
      {
        "type": "note_off",
        "note": 42,
        "time": 83714,
        "channel": 9
      },
      {
        "type": "note_on",
        "note": 40,
        "velocity": 103,
        "time": 83755,
        "channel": 9
      },
      {
        "type": "note_off",
        "note": 40,
        "time": 83831,
        "channel": 9
      },
      {
        "type": "note_on",
        "note": 42,
        "velocity": 40,
        "time": 83886,
        "channel": 9
      },
      {
        "type": "note_off",
        "note": 42,
        "time": 83962,
        "channel": 9
      },
      {
        "type": "note_on",
        "note": 42,
        "velocity": 20,
        "time": 84019,
        "channel": 9
      },
      {
        "type": "note_off",
        "note": 42,
        "time": 84096,
        "channel": 9
      },
      {
        "type": "note_on",
        "note": 37,
        "velocity": 90,
        "time": 84127,
        "channel": 9
      },
      {
        "type": "note_off",
        "note": 37,
        "time": 84203,
        "channel": 9
      },
      {
        "type": "note_on",
        "note": 42,
        "velocity": 39,
        "time": 84245,
        "channel": 9
      },
      {
        "type": "note_off",
        "note": 42,
        "time": 84322,
        "channel": 9
      },
      {
        "type": "note_on",
        "note": 38,
        "velocity": 26,
        "time": 84361,
        "channel": 9
      },
      {
        "type": "note_off",
        "note": 38,
        "time": 84408,
        "channel": 9
      },
      {
        "type": "note_on",
        "note": 38,
        "velocity": 31,
        "time": 84408,
        "channel": 9
      },
      {
        "type": "note_off",
        "note": 38,
        "time": 84437,
        "channel": 9
      },
      {
        "type": "note_on",
        "note": 42,
        "velocity": 45,
        "time": 84487,
        "channel": 9
      },
      {
        "type": "note_on",
        "note": 36,
        "velocity": 54,
        "time": 84490,
        "channel": 9
      },
      {
        "type": "note_off",
        "note": 42,
        "time": 84564,
        "channel": 9
      },
      {
        "type": "note_off",
        "note": 36,
        "time": 84567,
        "channel": 9
      },
      {
        "type": "note_on",
        "note": 38,
        "velocity": 62,
        "time": 84609,
        "channel": 9
      },
      {
        "type": "note_off",
        "note": 38,
        "time": 84685,
        "channel": 9
      },
      {
        "type": "note_on",
        "note": 42,
        "velocity": 45,
        "time": 84714,
        "channel": 9
      },
      {
        "type": "note_off",
        "note": 42,
        "time": 84791,
        "channel": 9
      },
      {
        "type": "note_on",
        "note": 26,
        "velocity": 83,
        "time": 84843,
        "channel": 9
      },
      {
        "type": "note_on",
        "note": 36,
        "velocity": 62,
        "time": 84844,
        "channel": 9
      },
      {
        "type": "note_off",
        "note": 26,
        "time": 84919,
        "channel": 9
      },
      {
        "type": "note_off",
        "note": 36,
        "time": 84919,
        "channel": 9
      },
      {
        "type": "note_on",
        "note": 44,
        "velocity": 77,
        "time": 84944,
        "channel": 9
      },
      {
        "type": "note_on",
        "note": 38,
        "velocity": 13,
        "time": 84981,
        "channel": 9
      },
      {
        "type": "note_off",
        "note": 44,
        "time": 85021,
        "channel": 9
      },
      {
        "type": "note_off",
        "note": 38,
        "time": 85058,
        "channel": 9
      },
      {
        "type": "note_on",
        "note": 42,
        "velocity": 41,
        "time": 85065,
        "channel": 9
      },
      {
        "type": "note_off",
        "note": 42,
        "time": 85142,
        "channel": 9
      },
      {
        "type": "note_on",
        "note": 42,
        "velocity": 46,
        "time": 85181,
        "channel": 9
      },
      {
        "type": "note_off",
        "note": 42,
        "time": 85257,
        "channel": 9
      },
      {
        "type": "note_on",
        "note": 38,
        "velocity": 23,
        "time": 85295,
        "channel": 9
      },
      {
        "type": "note_off",
        "note": 38,
        "time": 85372,
        "channel": 9
      },
      {
        "type": "note_on",
        "note": 38,
        "velocity": 25,
        "time": 85405,
        "channel": 9
      },
      {
        "type": "note_on",
        "note": 42,
        "velocity": 51,
        "time": 85420,
        "channel": 9
      },
      {
        "type": "note_off",
        "note": 38,
        "time": 85482,
        "channel": 9
      },
      {
        "type": "note_off",
        "note": 42,
        "time": 85497,
        "channel": 9
      },
      {
        "type": "note_on",
        "note": 36,
        "velocity": 54,
        "time": 85522,
        "channel": 9
      },
      {
        "type": "note_on",
        "note": 42,
        "velocity": 47,
        "time": 85533,
        "channel": 9
      },
      {
        "type": "note_off",
        "note": 36,
        "time": 85598,
        "channel": 9
      },
      {
        "type": "note_off",
        "note": 42,
        "time": 85610,
        "channel": 9
      },
      {
        "type": "note_on",
        "note": 40,
        "velocity": 106,
        "time": 85653,
        "channel": 9
      },
      {
        "type": "note_on",
        "note": 37,
        "velocity": 46,
        "time": 85687,
        "channel": 9
      },
      {
        "type": "note_off",
        "note": 40,
        "time": 85729,
        "channel": 9
      },
      {
        "type": "note_off",
        "note": 37,
        "time": 85764,
        "channel": 9
      },
      {
        "type": "note_on",
        "note": 42,
        "velocity": 52,
        "time": 85772,
        "channel": 9
      },
      {
        "type": "note_off",
        "note": 42,
        "time": 85849,
        "channel": 9
      },
      {
        "type": "note_on",
        "note": 42,
        "velocity": 68,
        "time": 85901,
        "channel": 9
      },
      {
        "type": "note_off",
        "note": 42,
        "time": 85979,
        "channel": 9
      },
      {
        "type": "note_on",
        "note": 37,
        "velocity": 76,
        "time": 86017,
        "channel": 9
      },
      {
        "type": "note_off",
        "note": 37,
        "time": 86094,
        "channel": 9
      },
      {
        "type": "note_on",
        "note": 38,
        "velocity": 97,
        "time": 86146,
        "channel": 9
      },
      {
        "type": "note_off",
        "note": 38,
        "time": 86223,
        "channel": 9
      },
      {
        "type": "note_on",
        "note": 38,
        "velocity": 70,
        "time": 86271,
        "channel": 9
      },
      {
        "type": "note_off",
        "note": 38,
        "time": 86347,
        "channel": 9
      },
      {
        "type": "note_on",
        "note": 42,
        "velocity": 64,
        "time": 86386,
        "channel": 9
      },
      {
        "type": "note_on",
        "note": 36,
        "velocity": 61,
        "time": 86395,
        "channel": 9
      },
      {
        "type": "note_off",
        "note": 42,
        "time": 86463,
        "channel": 9
      },
      {
        "type": "note_off",
        "note": 36,
        "time": 86472,
        "channel": 9
      },
      {
        "type": "note_on",
        "note": 42,
        "velocity": 47,
        "time": 86490,
        "channel": 9
      },
      {
        "type": "note_off",
        "note": 42,
        "time": 86567,
        "channel": 9
      },
      {
        "type": "note_on",
        "note": 38,
        "velocity": 67,
        "time": 86607,
        "channel": 9
      },
      {
        "type": "note_off",
        "note": 38,
        "time": 86684,
        "channel": 9
      },
      {
        "type": "note_on",
        "note": 36,
        "velocity": 64,
        "time": 86739,
        "channel": 9
      },
      {
        "type": "note_on",
        "note": 42,
        "velocity": 65,
        "time": 86745,
        "channel": 9
      },
      {
        "type": "note_off",
        "note": 36,
        "time": 86815,
        "channel": 9
      },
      {
        "type": "note_off",
        "note": 42,
        "time": 86822,
        "channel": 9
      },
      {
        "type": "note_on",
        "note": 42,
        "velocity": 43,
        "time": 86854,
        "channel": 9
      },
      {
        "type": "note_off",
        "note": 42,
        "time": 86932,
        "channel": 9
      },
      {
        "type": "note_on",
        "note": 38,
        "velocity": 30,
        "time": 86957,
        "channel": 9
      },
      {
        "type": "note_off",
        "note": 38,
        "time": 86989,
        "channel": 9
      },
      {
        "type": "note_on",
        "note": 38,
        "velocity": 33,
        "time": 86989,
        "channel": 9
      },
      {
        "type": "note_off",
        "note": 38,
        "time": 87012,
        "channel": 9
      },
      {
        "type": "note_on",
        "note": 38,
        "velocity": 29,
        "time": 87012,
        "channel": 9
      },
      {
        "type": "note_off",
        "note": 38,
        "time": 87025,
        "channel": 9
      },
      {
        "type": "note_on",
        "note": 38,
        "velocity": 28,
        "time": 87025,
        "channel": 9
      },
      {
        "type": "note_off",
        "note": 38,
        "time": 87033,
        "channel": 9
      },
      {
        "type": "note_on",
        "note": 38,
        "velocity": 25,
        "time": 87040,
        "channel": 9
      },
      {
        "type": "note_off",
        "note": 38,
        "time": 87066,
        "channel": 9
      },
      {
        "type": "note_on",
        "note": 42,
        "velocity": 81,
        "time": 87087,
        "channel": 9
      },
      {
        "type": "note_off",
        "note": 42,
        "time": 87163,
        "channel": 9
      },
      {
        "type": "note_on",
        "note": 38,
        "velocity": 34,
        "time": 87218,
        "channel": 9
      },
      {
        "type": "note_off",
        "note": 38,
        "time": 87295,
        "channel": 9
      },
      {
        "type": "note_on",
        "note": 38,
        "velocity": 32,
        "time": 87324,
        "channel": 9
      },
      {
        "type": "note_on",
        "note": 42,
        "velocity": 45,
        "time": 87333,
        "channel": 9
      },
      {
        "type": "note_off",
        "note": 38,
        "time": 87401,
        "channel": 9
      },
      {
        "type": "note_off",
        "note": 42,
        "time": 87410,
        "channel": 9
      },
      {
        "type": "note_on",
        "note": 36,
        "velocity": 55,
        "time": 87450,
        "channel": 9
      },
      {
        "type": "note_off",
        "note": 36,
        "time": 87527,
        "channel": 9
      },
      {
        "type": "note_on",
        "note": 40,
        "velocity": 93,
        "time": 87581,
        "channel": 9
      },
      {
        "type": "note_on",
        "note": 42,
        "velocity": 104,
        "time": 87584,
        "channel": 9
      },
      {
        "type": "note_off",
        "note": 40,
        "time": 87658,
        "channel": 9
      },
      {
        "type": "note_off",
        "note": 42,
        "time": 87661,
        "channel": 9
      },
      {
        "type": "note_on",
        "note": 38,
        "velocity": 21,
        "time": 87722,
        "channel": 9
      },
      {
        "type": "note_off",
        "note": 38,
        "time": 87798,
        "channel": 9
      },
      {
        "type": "note_on",
        "note": 42,
        "velocity": 56,
        "time": 87823,
        "channel": 9
      },
      {
        "type": "note_off",
        "note": 42,
        "time": 87900,
        "channel": 9
      },
      {
        "type": "note_on",
        "note": 40,
        "velocity": 116,
        "time": 87941,
        "channel": 9
      },
      {
        "type": "note_off",
        "note": 40,
        "time": 88018,
        "channel": 9
      },
      {
        "type": "note_on",
        "note": 42,
        "velocity": 48,
        "time": 88069,
        "channel": 9
      },
      {
        "type": "note_off",
        "note": 42,
        "time": 88145,
        "channel": 9
      },
      {
        "type": "note_on",
        "note": 38,
        "velocity": 13,
        "time": 88188,
        "channel": 9
      },
      {
        "type": "note_off",
        "note": 38,
        "time": 88265,
        "channel": 9
      },
      {
        "type": "note_on",
        "note": 36,
        "velocity": 60,
        "time": 88282,
        "channel": 9
      },
      {
        "type": "note_on",
        "note": 42,
        "velocity": 48,
        "time": 88294,
        "channel": 9
      },
      {
        "type": "note_off",
        "note": 36,
        "time": 88358,
        "channel": 9
      },
      {
        "type": "note_off",
        "note": 42,
        "time": 88371,
        "channel": 9
      },
      {
        "type": "note_on",
        "note": 40,
        "velocity": 110,
        "time": 88417,
        "channel": 9
      },
      {
        "type": "note_off",
        "note": 40,
        "time": 88493,
        "channel": 9
      },
      {
        "type": "note_on",
        "note": 42,
        "velocity": 43,
        "time": 88537,
        "channel": 9
      },
      {
        "type": "note_off",
        "note": 42,
        "time": 88614,
        "channel": 9
      },
      {
        "type": "note_on",
        "note": 46,
        "velocity": 73,
        "time": 88667,
        "channel": 9
      },
      {
        "type": "note_on",
        "note": 36,
        "velocity": 58,
        "time": 88671,
        "channel": 9
      },
      {
        "type": "note_off",
        "note": 46,
        "time": 88744,
        "channel": 9
      },
      {
        "type": "note_off",
        "note": 36,
        "time": 88747,
        "channel": 9
      },
      {
        "type": "note_on",
        "note": 44,
        "velocity": 82,
        "time": 88791,
        "channel": 9
      },
      {
        "type": "note_off",
        "note": 44,
        "time": 88867,
        "channel": 9
      },
      {
        "type": "note_on",
        "note": 42,
        "velocity": 41,
        "time": 88909,
        "channel": 9
      },
      {
        "type": "note_off",
        "note": 42,
        "time": 88986,
        "channel": 9
      },
      {
        "type": "note_on",
        "note": 42,
        "velocity": 75,
        "time": 89028,
        "channel": 9
      },
      {
        "type": "note_off",
        "note": 42,
        "time": 89104,
        "channel": 9
      },
      {
        "type": "note_on",
        "note": 38,
        "velocity": 23,
        "time": 89131,
        "channel": 9
      },
      {
        "type": "note_off",
        "note": 38,
        "time": 89208,
        "channel": 9
      },
      {
        "type": "note_on",
        "note": 38,
        "velocity": 18,
        "time": 89254,
        "channel": 9
      },
      {
        "type": "note_on",
        "note": 42,
        "velocity": 37,
        "time": 89264,
        "channel": 9
      },
      {
        "type": "note_off",
        "note": 38,
        "time": 89331,
        "channel": 9
      },
      {
        "type": "note_off",
        "note": 42,
        "time": 89341,
        "channel": 9
      },
      {
        "type": "note_on",
        "note": 36,
        "velocity": 41,
        "time": 89352,
        "channel": 9
      },
      {
        "type": "note_on",
        "note": 42,
        "velocity": 23,
        "time": 89377,
        "channel": 9
      },
      {
        "type": "note_off",
        "note": 36,
        "time": 89429,
        "channel": 9
      },
      {
        "type": "note_off",
        "note": 42,
        "time": 89454,
        "channel": 9
      },
      {
        "type": "note_on",
        "note": 40,
        "velocity": 104,
        "time": 89502,
        "channel": 9
      },
      {
        "type": "note_off",
        "note": 40,
        "time": 89579,
        "channel": 9
      },
      {
        "type": "note_on",
        "note": 42,
        "velocity": 34,
        "time": 89614,
        "channel": 9
      },
      {
        "type": "note_off",
        "note": 42,
        "time": 89691,
        "channel": 9
      },
      {
        "type": "note_on",
        "note": 42,
        "velocity": 46,
        "time": 89742,
        "channel": 9
      },
      {
        "type": "note_off",
        "note": 42,
        "time": 89820,
        "channel": 9
      },
      {
        "type": "note_on",
        "note": 40,
        "velocity": 98,
        "time": 89868,
        "channel": 9
      },
      {
        "type": "note_off",
        "note": 40,
        "time": 89945,
        "channel": 9
      },
      {
        "type": "note_on",
        "note": 42,
        "velocity": 47,
        "time": 89986,
        "channel": 9
      },
      {
        "type": "note_off",
        "note": 42,
        "time": 90064,
        "channel": 9
      },
      {
        "type": "note_on",
        "note": 38,
        "velocity": 27,
        "time": 90087,
        "channel": 9
      },
      {
        "type": "note_off",
        "note": 38,
        "time": 90132,
        "channel": 9
      },
      {
        "type": "note_on",
        "note": 38,
        "velocity": 29,
        "time": 90132,
        "channel": 9
      },
      {
        "type": "note_off",
        "note": 38,
        "time": 90163,
        "channel": 9
      },
      {
        "type": "note_on",
        "note": 38,
        "velocity": 20,
        "time": 90166,
        "channel": 9
      },
      {
        "type": "note_off",
        "note": 38,
        "time": 90209,
        "channel": 9
      },
      {
        "type": "note_on",
        "note": 36,
        "velocity": 59,
        "time": 90221,
        "channel": 9
      },
      {
        "type": "note_on",
        "note": 42,
        "velocity": 46,
        "time": 90228,
        "channel": 9
      },
      {
        "type": "note_off",
        "note": 36,
        "time": 90298,
        "channel": 9
      },
      {
        "type": "note_off",
        "note": 42,
        "time": 90305,
        "channel": 9
      },
      {
        "type": "note_on",
        "note": 37,
        "velocity": 88,
        "time": 90339,
        "channel": 9
      },
      {
        "type": "note_off",
        "note": 37,
        "time": 90416,
        "channel": 9
      },
      {
        "type": "note_on",
        "note": 42,
        "velocity": 39,
        "time": 90463,
        "channel": 9
      },
      {
        "type": "note_off",
        "note": 42,
        "time": 90540,
        "channel": 9
      },
      {
        "type": "note_on",
        "note": 46,
        "velocity": 76,
        "time": 90582,
        "channel": 9
      },
      {
        "type": "note_on",
        "note": 36,
        "velocity": 56,
        "time": 90586,
        "channel": 9
      },
      {
        "type": "note_off",
        "note": 46,
        "time": 90659,
        "channel": 9
      },
      {
        "type": "note_off",
        "note": 36,
        "time": 90663,
        "channel": 9
      },
      {
        "type": "note_on",
        "note": 44,
        "velocity": 82,
        "time": 90678,
        "channel": 9
      },
      {
        "type": "note_on",
        "note": 38,
        "velocity": 15,
        "time": 90710,
        "channel": 9
      },
      {
        "type": "note_off",
        "note": 44,
        "time": 90754,
        "channel": 9
      },
      {
        "type": "note_off",
        "note": 38,
        "time": 90786,
        "channel": 9
      },
      {
        "type": "note_on",
        "note": 36,
        "velocity": 17,
        "time": 90802,
        "channel": 9
      },
      {
        "type": "note_on",
        "note": 42,
        "velocity": 44,
        "time": 90822,
        "channel": 9
      },
      {
        "type": "note_off",
        "note": 36,
        "time": 90879,
        "channel": 9
      },
      {
        "type": "note_off",
        "note": 42,
        "time": 90899,
        "channel": 9
      },
      {
        "type": "note_on",
        "note": 42,
        "velocity": 76,
        "time": 90942,
        "channel": 9
      },
      {
        "type": "note_on",
        "note": 36,
        "velocity": 61,
        "time": 90944,
        "channel": 9
      },
      {
        "type": "note_off",
        "note": 42,
        "time": 91019,
        "channel": 9
      },
      {
        "type": "note_off",
        "note": 36,
        "time": 91021,
        "channel": 9
      },
      {
        "type": "note_on",
        "note": 38,
        "velocity": 19,
        "time": 91053,
        "channel": 9
      },
      {
        "type": "note_off",
        "note": 38,
        "time": 91129,
        "channel": 9
      },
      {
        "type": "note_on",
        "note": 38,
        "velocity": 17,
        "time": 91164,
        "channel": 9
      },
      {
        "type": "note_on",
        "note": 42,
        "velocity": 45,
        "time": 91182,
        "channel": 9
      },
      {
        "type": "note_off",
        "note": 38,
        "time": 91241,
        "channel": 9
      },
      {
        "type": "note_off",
        "note": 42,
        "time": 91259,
        "channel": 9
      },
      {
        "type": "note_on",
        "note": 36,
        "velocity": 31,
        "time": 91289,
        "channel": 9
      },
      {
        "type": "note_on",
        "note": 42,
        "velocity": 42,
        "time": 91305,
        "channel": 9
      },
      {
        "type": "note_off",
        "note": 36,
        "time": 91366,
        "channel": 9
      },
      {
        "type": "note_off",
        "note": 42,
        "time": 91382,
        "channel": 9
      },
      {
        "type": "note_on",
        "note": 36,
        "velocity": 64,
        "time": 91419,
        "channel": 9
      },
      {
        "type": "note_on",
        "note": 40,
        "velocity": 98,
        "time": 91420,
        "channel": 9
      },
      {
        "type": "note_off",
        "note": 36,
        "time": 91495,
        "channel": 9
      },
      {
        "type": "note_off",
        "note": 40,
        "time": 91497,
        "channel": 9
      },
      {
        "type": "note_on",
        "note": 38,
        "velocity": 20,
        "time": 91545,
        "channel": 9
      },
      {
        "type": "note_off",
        "note": 38,
        "time": 91622,
        "channel": 9
      },
      {
        "type": "note_on",
        "note": 42,
        "velocity": 54,
        "time": 91664,
        "channel": 9
      },
      {
        "type": "note_off",
        "note": 42,
        "time": 91742,
        "channel": 9
      },
      {
        "type": "note_on",
        "note": 40,
        "velocity": 102,
        "time": 91771,
        "channel": 9
      },
      {
        "type": "note_off",
        "note": 40,
        "time": 91848,
        "channel": 9
      },
      {
        "type": "note_on",
        "note": 42,
        "velocity": 45,
        "time": 91895,
        "channel": 9
      },
      {
        "type": "note_off",
        "note": 42,
        "time": 91972,
        "channel": 9
      },
      {
        "type": "note_on",
        "note": 36,
        "velocity": 61,
        "time": 92018,
        "channel": 9
      },
      {
        "type": "note_on",
        "note": 26,
        "velocity": 87,
        "time": 92028,
        "channel": 9
      },
      {
        "type": "note_off",
        "note": 36,
        "time": 92094,
        "channel": 9
      },
      {
        "type": "note_off",
        "note": 26,
        "time": 92105,
        "channel": 9
      },
      {
        "type": "note_on",
        "note": 44,
        "velocity": 70,
        "time": 92134,
        "channel": 9
      },
      {
        "type": "note_on",
        "note": 38,
        "velocity": 19,
        "time": 92151,
        "channel": 9
      },
      {
        "type": "note_off",
        "note": 44,
        "time": 92211,
        "channel": 9
      },
      {
        "type": "note_off",
        "note": 38,
        "time": 92228,
        "channel": 9
      },
      {
        "type": "note_on",
        "note": 36,
        "velocity": 27,
        "time": 92245,
        "channel": 9
      },
      {
        "type": "note_on",
        "note": 42,
        "velocity": 43,
        "time": 92285,
        "channel": 9
      },
      {
        "type": "note_off",
        "note": 36,
        "time": 92322,
        "channel": 9
      },
      {
        "type": "note_off",
        "note": 42,
        "time": 92362,
        "channel": 9
      },
      {
        "type": "note_on",
        "note": 36,
        "velocity": 82,
        "time": 92393,
        "channel": 9
      },
      {
        "type": "note_on",
        "note": 26,
        "velocity": 72,
        "time": 92400,
        "channel": 9
      },
      {
        "type": "note_off",
        "note": 36,
        "time": 92470,
        "channel": 9
      },
      {
        "type": "note_off",
        "note": 26,
        "time": 92477,
        "channel": 9
      },
      {
        "type": "note_on",
        "note": 38,
        "velocity": 19,
        "time": 92509,
        "channel": 9
      },
      {
        "type": "note_on",
        "note": 44,
        "velocity": 40,
        "time": 92569,
        "channel": 9
      },
      {
        "type": "note_off",
        "note": 38,
        "time": 92586,
        "channel": 9
      },
      {
        "type": "note_on",
        "note": 38,
        "velocity": 29,
        "time": 92616,
        "channel": 9
      },
      {
        "type": "note_on",
        "note": 42,
        "velocity": 50,
        "time": 92636,
        "channel": 9
      },
      {
        "type": "note_off",
        "note": 44,
        "time": 92646,
        "channel": 9
      },
      {
        "type": "note_off",
        "note": 38,
        "time": 92692,
        "channel": 9
      },
      {
        "type": "note_off",
        "note": 42,
        "time": 92714,
        "channel": 9
      },
      {
        "type": "note_on",
        "note": 36,
        "velocity": 36,
        "time": 92737,
        "channel": 9
      },
      {
        "type": "note_on",
        "note": 42,
        "velocity": 40,
        "time": 92747,
        "channel": 9
      },
      {
        "type": "note_off",
        "note": 36,
        "time": 92814,
        "channel": 9
      },
      {
        "type": "note_off",
        "note": 42,
        "time": 92825,
        "channel": 9
      },
      {
        "type": "note_on",
        "note": 26,
        "velocity": 72,
        "time": 92871,
        "channel": 9
      },
      {
        "type": "note_on",
        "note": 36,
        "velocity": 71,
        "time": 92873,
        "channel": 9
      },
      {
        "type": "note_off",
        "note": 26,
        "time": 92947,
        "channel": 9
      },
      {
        "type": "note_off",
        "note": 36,
        "time": 92950,
        "channel": 9
      },
      {
        "type": "note_on",
        "note": 38,
        "velocity": 13,
        "time": 92986,
        "channel": 9
      },
      {
        "type": "note_off",
        "note": 38,
        "time": 93063,
        "channel": 9
      },
      {
        "type": "note_on",
        "note": 44,
        "velocity": 35,
        "time": 93088,
        "channel": 9
      },
      {
        "type": "note_on",
        "note": 38,
        "velocity": 16,
        "time": 93108,
        "channel": 9
      },
      {
        "type": "note_on",
        "note": 42,
        "velocity": 45,
        "time": 93121,
        "channel": 9
      },
      {
        "type": "note_off",
        "note": 44,
        "time": 93165,
        "channel": 9
      },
      {
        "type": "note_off",
        "note": 38,
        "time": 93184,
        "channel": 9
      },
      {
        "type": "note_off",
        "note": 42,
        "time": 93198,
        "channel": 9
      },
      {
        "type": "note_on",
        "note": 36,
        "velocity": 43,
        "time": 93231,
        "channel": 9
      },
      {
        "type": "note_on",
        "note": 42,
        "velocity": 37,
        "time": 93235,
        "channel": 9
      },
      {
        "type": "note_off",
        "note": 36,
        "time": 93307,
        "channel": 9
      },
      {
        "type": "note_off",
        "note": 42,
        "time": 93312,
        "channel": 9
      },
      {
        "type": "note_on",
        "note": 36,
        "velocity": 60,
        "time": 93357,
        "channel": 9
      },
      {
        "type": "note_on",
        "note": 26,
        "velocity": 64,
        "time": 93358,
        "channel": 9
      },
      {
        "type": "note_off",
        "note": 36,
        "time": 93433,
        "channel": 9
      },
      {
        "type": "note_off",
        "note": 26,
        "time": 93435,
        "channel": 9
      },
      {
        "type": "note_on",
        "note": 38,
        "velocity": 11,
        "time": 93477,
        "channel": 9
      },
      {
        "type": "note_off",
        "note": 38,
        "time": 93554,
        "channel": 9
      },
      {
        "type": "note_on",
        "note": 44,
        "velocity": 50,
        "time": 93580,
        "channel": 9
      },
      {
        "type": "note_on",
        "note": 22,
        "velocity": 30,
        "time": 93597,
        "channel": 9
      },
      {
        "type": "note_off",
        "note": 44,
        "time": 93656,
        "channel": 9
      },
      {
        "type": "note_off",
        "note": 22,
        "time": 93674,
        "channel": 9
      },
      {
        "type": "note_on",
        "note": 38,
        "velocity": 80,
        "time": 93703,
        "channel": 9
      },
      {
        "type": "note_off",
        "note": 38,
        "time": 93780,
        "channel": 9
      },
      {
        "type": "note_on",
        "note": 38,
        "velocity": 102,
        "time": 93824,
        "channel": 9
      },
      {
        "type": "note_off",
        "note": 38,
        "time": 93900,
        "channel": 9
      },
      {
        "type": "note_on",
        "note": 40,
        "velocity": 93,
        "time": 93949,
        "channel": 9
      },
      {
        "type": "note_off",
        "note": 40,
        "time": 94026,
        "channel": 9
      },
      {
        "type": "note_on",
        "note": 38,
        "velocity": 42,
        "time": 94076,
        "channel": 9
      },
      {
        "type": "note_off",
        "note": 38,
        "time": 94152,
        "channel": 9
      },
      {
        "type": "note_on",
        "note": 36,
        "velocity": 59,
        "time": 94189,
        "channel": 9
      },
      {
        "type": "note_on",
        "note": 26,
        "velocity": 76,
        "time": 94196,
        "channel": 9
      },
      {
        "type": "note_off",
        "note": 36,
        "time": 94266,
        "channel": 9
      },
      {
        "type": "note_off",
        "note": 26,
        "time": 94272,
        "channel": 9
      },
      {
        "type": "note_on",
        "note": 44,
        "velocity": 50,
        "time": 94279,
        "channel": 9
      },
      {
        "type": "note_on",
        "note": 38,
        "velocity": 24,
        "time": 94311,
        "channel": 9
      },
      {
        "type": "note_off",
        "note": 44,
        "time": 94355,
        "channel": 9
      },
      {
        "type": "note_off",
        "note": 38,
        "time": 94388,
        "channel": 9
      },
      {
        "type": "note_on",
        "note": 42,
        "velocity": 28,
        "time": 94420,
        "channel": 9
      },
      {
        "type": "note_off",
        "note": 42,
        "time": 94497,
        "channel": 9
      },
      {
        "type": "note_on",
        "note": 36,
        "velocity": 59,
        "time": 94527,
        "channel": 9
      },
      {
        "type": "note_on",
        "note": 26,
        "velocity": 87,
        "time": 94537,
        "channel": 9
      },
      {
        "type": "note_off",
        "note": 36,
        "time": 94604,
        "channel": 9
      },
      {
        "type": "note_off",
        "note": 26,
        "time": 94614,
        "channel": 9
      },
      {
        "type": "note_on",
        "note": 44,
        "velocity": 42,
        "time": 94775,
        "channel": 9
      },
      {
        "type": "note_on",
        "note": 40,
        "velocity": 127,
        "time": 94788,
        "channel": 9
      },
      {
        "type": "note_off",
        "note": 44,
        "time": 94852,
        "channel": 9
      },
      {
        "type": "note_off",
        "note": 40,
        "time": 94865,
        "channel": 9
      },
      {
        "type": "note_on",
        "note": 38,
        "velocity": 5,
        "time": 94895,
        "channel": 9
      },
      {
        "type": "note_off",
        "note": 38,
        "time": 94972,
        "channel": 9
      },
      {
        "type": "note_on",
        "note": 22,
        "velocity": 88,
        "time": 95038,
        "channel": 9
      },
      {
        "type": "note_off",
        "note": 22,
        "time": 95115,
        "channel": 9
      },
      {
        "type": "note_on",
        "note": 40,
        "velocity": 100,
        "time": 95266,
        "channel": 9
      },
      {
        "type": "note_off",
        "note": 40,
        "time": 95342,
        "channel": 9
      },
      {
        "type": "note_on",
        "note": 38,
        "velocity": 25,
        "time": 95384,
        "channel": 9
      },
      {
        "type": "note_off",
        "note": 38,
        "time": 95460,
        "channel": 9
      },
      {
        "type": "note_on",
        "note": 42,
        "velocity": 80,
        "time": 95498,
        "channel": 9
      },
      {
        "type": "note_off",
        "note": 42,
        "time": 95574,
        "channel": 9
      },
      {
        "type": "note_on",
        "note": 37,
        "velocity": 87,
        "time": 95610,
        "channel": 9
      },
      {
        "type": "note_on",
        "note": 38,
        "velocity": 36,
        "time": 95653,
        "channel": 9
      },
      {
        "type": "note_off",
        "note": 37,
        "time": 95686,
        "channel": 9
      },
      {
        "type": "note_off",
        "note": 38,
        "time": 95730,
        "channel": 9
      },
      {
        "type": "note_on",
        "note": 22,
        "velocity": 20,
        "time": 95738,
        "channel": 9
      },
      {
        "type": "note_on",
        "note": 38,
        "velocity": 10,
        "time": 95790,
        "channel": 9
      },
      {
        "type": "note_off",
        "note": 22,
        "time": 95814,
        "channel": 9
      },
      {
        "type": "note_on",
        "note": 36,
        "velocity": 59,
        "time": 95837,
        "channel": 9
      },
      {
        "type": "note_on",
        "note": 26,
        "velocity": 79,
        "time": 95855,
        "channel": 9
      },
      {
        "type": "note_off",
        "note": 38,
        "time": 95867,
        "channel": 9
      },
      {
        "type": "note_off",
        "note": 36,
        "time": 95914,
        "channel": 9
      },
      {
        "type": "note_on",
        "note": 44,
        "velocity": 60,
        "time": 95931,
        "channel": 9
      },
      {
        "type": "note_off",
        "note": 26,
        "time": 95932,
        "channel": 9
      },
      {
        "type": "note_on",
        "note": 38,
        "velocity": 14,
        "time": 95977,
        "channel": 9
      },
      {
        "type": "note_off",
        "note": 44,
        "time": 96008,
        "channel": 9
      },
      {
        "type": "note_off",
        "note": 38,
        "time": 96054,
        "channel": 9
      },
      {
        "type": "note_on",
        "note": 36,
        "velocity": 31,
        "time": 96057,
        "channel": 9
      },
      {
        "type": "note_on",
        "note": 42,
        "velocity": 48,
        "time": 96077,
        "channel": 9
      },
      {
        "type": "note_off",
        "note": 36,
        "time": 96134,
        "channel": 9
      },
      {
        "type": "note_off",
        "note": 42,
        "time": 96154,
        "channel": 9
      },
      {
        "type": "note_on",
        "note": 36,
        "velocity": 71,
        "time": 96192,
        "channel": 9
      },
      {
        "type": "note_on",
        "note": 26,
        "velocity": 82,
        "time": 96200,
        "channel": 9
      },
      {
        "type": "note_off",
        "note": 36,
        "time": 96269,
        "channel": 9
      },
      {
        "type": "note_off",
        "note": 26,
        "time": 96277,
        "channel": 9
      },
      {
        "type": "note_on",
        "note": 44,
        "velocity": 70,
        "time": 96450,
        "channel": 9
      },
      {
        "type": "note_on",
        "note": 26,
        "velocity": 59,
        "time": 96452,
        "channel": 9
      },
      {
        "type": "note_off",
        "note": 44,
        "time": 96526,
        "channel": 9
      },
      {
        "type": "note_off",
        "note": 26,
        "time": 96529,
        "channel": 9
      },
      {
        "type": "note_on",
        "note": 40,
        "velocity": 94,
        "time": 96687,
        "channel": 9
      },
      {
        "type": "note_on",
        "note": 42,
        "velocity": 69,
        "time": 96700,
        "channel": 9
      },
      {
        "type": "note_off",
        "note": 40,
        "time": 96764,
        "channel": 9
      },
      {
        "type": "note_off",
        "note": 42,
        "time": 96777,
        "channel": 9
      },
      {
        "type": "note_on",
        "note": 38,
        "velocity": 13,
        "time": 96817,
        "channel": 9
      },
      {
        "type": "note_off",
        "note": 38,
        "time": 96894,
        "channel": 9
      },
      {
        "type": "note_on",
        "note": 22,
        "velocity": 127,
        "time": 96938,
        "channel": 9
      },
      {
        "type": "note_off",
        "note": 22,
        "time": 97015,
        "channel": 9
      },
      {
        "type": "note_on",
        "note": 37,
        "velocity": 90,
        "time": 97179,
        "channel": 9
      },
      {
        "type": "note_on",
        "note": 42,
        "velocity": 71,
        "time": 97187,
        "channel": 9
      },
      {
        "type": "note_off",
        "note": 37,
        "time": 97255,
        "channel": 9
      },
      {
        "type": "note_off",
        "note": 42,
        "time": 97264,
        "channel": 9
      },
      {
        "type": "note_on",
        "note": 38,
        "velocity": 30,
        "time": 97289,
        "channel": 9
      },
      {
        "type": "note_off",
        "note": 38,
        "time": 97366,
        "channel": 9
      },
      {
        "type": "note_on",
        "note": 42,
        "velocity": 89,
        "time": 97411,
        "channel": 9
      },
      {
        "type": "note_off",
        "note": 42,
        "time": 97488,
        "channel": 9
      },
      {
        "type": "note_on",
        "note": 40,
        "velocity": 97,
        "time": 97532,
        "channel": 9
      },
      {
        "type": "note_off",
        "note": 40,
        "time": 97609,
        "channel": 9
      },
      {
        "type": "note_on",
        "note": 42,
        "velocity": 41,
        "time": 97669,
        "channel": 9
      },
      {
        "type": "note_on",
        "note": 38,
        "velocity": 11,
        "time": 97702,
        "channel": 9
      },
      {
        "type": "note_off",
        "note": 42,
        "time": 97746,
        "channel": 9
      },
      {
        "type": "note_on",
        "note": 36,
        "velocity": 58,
        "time": 97755,
        "channel": 9
      },
      {
        "type": "note_on",
        "note": 26,
        "velocity": 79,
        "time": 97774,
        "channel": 9
      },
      {
        "type": "note_off",
        "note": 38,
        "time": 97778,
        "channel": 9
      },
      {
        "type": "note_off",
        "note": 36,
        "time": 97832,
        "channel": 9
      },
      {
        "type": "note_off",
        "note": 26,
        "time": 97851,
        "channel": 9
      },
      {
        "type": "note_on",
        "note": 44,
        "velocity": 60,
        "time": 97861,
        "channel": 9
      },
      {
        "type": "note_on",
        "note": 38,
        "velocity": 20,
        "time": 97901,
        "channel": 9
      },
      {
        "type": "note_off",
        "note": 44,
        "time": 97937,
        "channel": 9
      },
      {
        "type": "note_off",
        "note": 38,
        "time": 97977,
        "channel": 9
      },
      {
        "type": "note_on",
        "note": 36,
        "velocity": 34,
        "time": 97979,
        "channel": 9
      },
      {
        "type": "note_on",
        "note": 42,
        "velocity": 44,
        "time": 98007,
        "channel": 9
      },
      {
        "type": "note_off",
        "note": 36,
        "time": 98056,
        "channel": 9
      },
      {
        "type": "note_off",
        "note": 42,
        "time": 98085,
        "channel": 9
      },
      {
        "type": "note_on",
        "note": 36,
        "velocity": 81,
        "time": 98124,
        "channel": 9
      },
      {
        "type": "note_on",
        "note": 26,
        "velocity": 95,
        "time": 98132,
        "channel": 9
      },
      {
        "type": "note_off",
        "note": 36,
        "time": 98201,
        "channel": 9
      },
      {
        "type": "note_off",
        "note": 26,
        "time": 98209,
        "channel": 9
      },
      {
        "type": "note_on",
        "note": 44,
        "velocity": 62,
        "time": 98384,
        "channel": 9
      },
      {
        "type": "note_on",
        "note": 42,
        "velocity": 73,
        "time": 98403,
        "channel": 9
      },
      {
        "type": "note_off",
        "note": 44,
        "time": 98460,
        "channel": 9
      },
      {
        "type": "note_off",
        "note": 42,
        "time": 98479,
        "channel": 9
      },
      {
        "type": "note_on",
        "note": 40,
        "velocity": 103,
        "time": 98626,
        "channel": 9
      },
      {
        "type": "note_on",
        "note": 42,
        "velocity": 63,
        "time": 98628,
        "channel": 9
      },
      {
        "type": "note_off",
        "note": 40,
        "time": 98702,
        "channel": 9
      },
      {
        "type": "note_off",
        "note": 42,
        "time": 98705,
        "channel": 9
      },
      {
        "type": "note_on",
        "note": 38,
        "velocity": 19,
        "time": 98751,
        "channel": 9
      },
      {
        "type": "note_off",
        "note": 38,
        "time": 98827,
        "channel": 9
      },
      {
        "type": "note_on",
        "note": 22,
        "velocity": 119,
        "time": 98865,
        "channel": 9
      },
      {
        "type": "note_off",
        "note": 22,
        "time": 98943,
        "channel": 9
      },
      {
        "type": "note_on",
        "note": 37,
        "velocity": 89,
        "time": 99115,
        "channel": 9
      },
      {
        "type": "note_on",
        "note": 42,
        "velocity": 66,
        "time": 99115,
        "channel": 9
      },
      {
        "type": "note_off",
        "note": 37,
        "time": 99191,
        "channel": 9
      },
      {
        "type": "note_off",
        "note": 42,
        "time": 99193,
        "channel": 9
      },
      {
        "type": "note_on",
        "note": 38,
        "velocity": 29,
        "time": 99241,
        "channel": 9
      },
      {
        "type": "note_off",
        "note": 38,
        "time": 99318,
        "channel": 9
      },
      {
        "type": "note_on",
        "note": 42,
        "velocity": 65,
        "time": 99339,
        "channel": 9
      },
      {
        "type": "note_off",
        "note": 42,
        "time": 99416,
        "channel": 9
      },
      {
        "type": "note_on",
        "note": 37,
        "velocity": 87,
        "time": 99456,
        "channel": 9
      },
      {
        "type": "note_off",
        "note": 37,
        "time": 99533,
        "channel": 9
      },
      {
        "type": "note_on",
        "note": 42,
        "velocity": 43,
        "time": 99575,
        "channel": 9
      },
      {
        "type": "note_off",
        "note": 42,
        "time": 99652,
        "channel": 9
      },
      {
        "type": "note_on",
        "note": 36,
        "velocity": 58,
        "time": 99695,
        "channel": 9
      },
      {
        "type": "note_on",
        "note": 26,
        "velocity": 85,
        "time": 99697,
        "channel": 9
      },
      {
        "type": "note_off",
        "note": 36,
        "time": 99772,
        "channel": 9
      },
      {
        "type": "note_off",
        "note": 26,
        "time": 99774,
        "channel": 9
      },
      {
        "type": "note_on",
        "note": 44,
        "velocity": 57,
        "time": 99797,
        "channel": 9
      },
      {
        "type": "note_on",
        "note": 38,
        "velocity": 29,
        "time": 99806,
        "channel": 9
      },
      {
        "type": "note_off",
        "note": 44,
        "time": 99874,
        "channel": 9
      },
      {
        "type": "note_off",
        "note": 38,
        "time": 99884,
        "channel": 9
      },
      {
        "type": "note_on",
        "note": 42,
        "velocity": 50,
        "time": 99921,
        "channel": 9
      },
      {
        "type": "note_on",
        "note": 36,
        "velocity": 7,
        "time": 99926,
        "channel": 9
      },
      {
        "type": "note_off",
        "note": 42,
        "time": 99998,
        "channel": 9
      },
      {
        "type": "note_off",
        "note": 36,
        "time": 100003,
        "channel": 9
      },
      {
        "type": "note_on",
        "note": 36,
        "velocity": 63,
        "time": 100040,
        "channel": 9
      },
      {
        "type": "note_on",
        "note": 26,
        "velocity": 91,
        "time": 100043,
        "channel": 9
      },
      {
        "type": "note_off",
        "note": 36,
        "time": 100116,
        "channel": 9
      },
      {
        "type": "note_off",
        "note": 26,
        "time": 100120,
        "channel": 9
      },
      {
        "type": "note_on",
        "note": 36,
        "velocity": 6,
        "time": 100191,
        "channel": 9
      },
      {
        "type": "note_off",
        "note": 36,
        "time": 100267,
        "channel": 9
      },
      {
        "type": "note_on",
        "note": 38,
        "velocity": 13,
        "time": 100287,
        "channel": 9
      },
      {
        "type": "note_on",
        "note": 44,
        "velocity": 62,
        "time": 100287,
        "channel": 9
      },
      {
        "type": "note_on",
        "note": 42,
        "velocity": 80,
        "time": 100309,
        "channel": 9
      },
      {
        "type": "note_off",
        "note": 38,
        "time": 100363,
        "channel": 9
      },
      {
        "type": "note_off",
        "note": 44,
        "time": 100363,
        "channel": 9
      },
      {
        "type": "note_off",
        "note": 42,
        "time": 100386,
        "channel": 9
      },
      {
        "type": "note_on",
        "note": 36,
        "velocity": 54,
        "time": 100412,
        "channel": 9
      },
      {
        "type": "note_off",
        "note": 36,
        "time": 100488,
        "channel": 9
      },
      {
        "type": "note_on",
        "note": 22,
        "velocity": 93,
        "time": 100537,
        "channel": 9
      },
      {
        "type": "note_on",
        "note": 37,
        "velocity": 83,
        "time": 100537,
        "channel": 9
      },
      {
        "type": "note_off",
        "note": 22,
        "time": 100614,
        "channel": 9
      },
      {
        "type": "note_off",
        "note": 37,
        "time": 100614,
        "channel": 9
      },
      {
        "type": "note_on",
        "note": 38,
        "velocity": 19,
        "time": 100652,
        "channel": 9
      },
      {
        "type": "note_off",
        "note": 38,
        "time": 100729,
        "channel": 9
      },
      {
        "type": "note_on",
        "note": 42,
        "velocity": 72,
        "time": 100777,
        "channel": 9
      },
      {
        "type": "note_off",
        "note": 42,
        "time": 100854,
        "channel": 9
      },
      {
        "type": "note_on",
        "note": 36,
        "velocity": 50,
        "time": 100882,
        "channel": 9
      },
      {
        "type": "note_off",
        "note": 36,
        "time": 100959,
        "channel": 9
      },
      {
        "type": "note_on",
        "note": 37,
        "velocity": 83,
        "time": 101014,
        "channel": 9
      },
      {
        "type": "note_on",
        "note": 22,
        "velocity": 112,
        "time": 101016,
        "channel": 9
      },
      {
        "type": "note_off",
        "note": 37,
        "time": 101090,
        "channel": 9
      },
      {
        "type": "note_off",
        "note": 22,
        "time": 101093,
        "channel": 9
      },
      {
        "type": "note_on",
        "note": 38,
        "velocity": 29,
        "time": 101136,
        "channel": 9
      },
      {
        "type": "note_off",
        "note": 38,
        "time": 101212,
        "channel": 9
      },
      {
        "type": "note_on",
        "note": 42,
        "velocity": 43,
        "time": 101259,
        "channel": 9
      },
      {
        "type": "note_off",
        "note": 42,
        "time": 101337,
        "channel": 9
      },
      {
        "type": "note_on",
        "note": 40,
        "velocity": 97,
        "time": 101374,
        "channel": 9
      },
      {
        "type": "note_off",
        "note": 40,
        "time": 101451,
        "channel": 9
      },
      {
        "type": "note_on",
        "note": 42,
        "velocity": 45,
        "time": 101499,
        "channel": 9
      },
      {
        "type": "note_off",
        "note": 42,
        "time": 101576,
        "channel": 9
      },
      {
        "type": "note_on",
        "note": 36,
        "velocity": 61,
        "time": 101618,
        "channel": 9
      },
      {
        "type": "note_on",
        "note": 26,
        "velocity": 96,
        "time": 101628,
        "channel": 9
      },
      {
        "type": "note_off",
        "note": 36,
        "time": 101695,
        "channel": 9
      },
      {
        "type": "note_off",
        "note": 26,
        "time": 101704,
        "channel": 9
      },
      {
        "type": "note_on",
        "note": 44,
        "velocity": 65,
        "time": 101730,
        "channel": 9
      },
      {
        "type": "note_on",
        "note": 38,
        "velocity": 28,
        "time": 101746,
        "channel": 9
      },
      {
        "type": "note_off",
        "note": 44,
        "time": 101806,
        "channel": 9
      },
      {
        "type": "note_off",
        "note": 38,
        "time": 101823,
        "channel": 9
      },
      {
        "type": "note_on",
        "note": 36,
        "velocity": 32,
        "time": 101850,
        "channel": 9
      },
      {
        "type": "note_on",
        "note": 42,
        "velocity": 46,
        "time": 101856,
        "channel": 9
      },
      {
        "type": "note_off",
        "note": 36,
        "time": 101926,
        "channel": 9
      },
      {
        "type": "note_off",
        "note": 42,
        "time": 101933,
        "channel": 9
      },
      {
        "type": "note_on",
        "note": 36,
        "velocity": 75,
        "time": 101983,
        "channel": 9
      },
      {
        "type": "note_on",
        "note": 26,
        "velocity": 78,
        "time": 101989,
        "channel": 9
      },
      {
        "type": "note_off",
        "note": 36,
        "time": 102060,
        "channel": 9
      },
      {
        "type": "note_off",
        "note": 26,
        "time": 102065,
        "channel": 9
      },
      {
        "type": "note_on",
        "note": 44,
        "velocity": 57,
        "time": 102230,
        "channel": 9
      },
      {
        "type": "note_on",
        "note": 42,
        "velocity": 61,
        "time": 102248,
        "channel": 9
      },
      {
        "type": "note_off",
        "note": 44,
        "time": 102307,
        "channel": 9
      },
      {
        "type": "note_off",
        "note": 42,
        "time": 102325,
        "channel": 9
      },
      {
        "type": "note_on",
        "note": 36,
        "velocity": 53,
        "time": 102360,
        "channel": 9
      },
      {
        "type": "note_off",
        "note": 36,
        "time": 102436,
        "channel": 9
      },
      {
        "type": "note_on",
        "note": 37,
        "velocity": 81,
        "time": 102474,
        "channel": 9
      },
      {
        "type": "note_on",
        "note": 42,
        "velocity": 104,
        "time": 102479,
        "channel": 9
      },
      {
        "type": "note_off",
        "note": 37,
        "time": 102550,
        "channel": 9
      },
      {
        "type": "note_off",
        "note": 42,
        "time": 102556,
        "channel": 9
      },
      {
        "type": "note_on",
        "note": 38,
        "velocity": 26,
        "time": 102584,
        "channel": 9
      },
      {
        "type": "note_off",
        "note": 38,
        "time": 102661,
        "channel": 9
      },
      {
        "type": "note_on",
        "note": 42,
        "velocity": 57,
        "time": 102711,
        "channel": 9
      },
      {
        "type": "note_off",
        "note": 42,
        "time": 102787,
        "channel": 9
      },
      {
        "type": "note_on",
        "note": 37,
        "velocity": 80,
        "time": 102835,
        "channel": 9
      },
      {
        "type": "note_off",
        "note": 37,
        "time": 102911,
        "channel": 9
      },
      {
        "type": "note_on",
        "note": 42,
        "velocity": 83,
        "time": 102955,
        "channel": 9
      },
      {
        "type": "note_off",
        "note": 42,
        "time": 103032,
        "channel": 9
      },
      {
        "type": "note_on",
        "note": 38,
        "velocity": 26,
        "time": 103074,
        "channel": 9
      },
      {
        "type": "note_off",
        "note": 38,
        "time": 103151,
        "channel": 9
      },
      {
        "type": "note_on",
        "note": 42,
        "velocity": 56,
        "time": 103192,
        "channel": 9
      },
      {
        "type": "note_off",
        "note": 42,
        "time": 103268,
        "channel": 9
      },
      {
        "type": "note_on",
        "note": 40,
        "velocity": 93,
        "time": 103310,
        "channel": 9
      },
      {
        "type": "note_off",
        "note": 40,
        "time": 103386,
        "channel": 9
      },
      {
        "type": "note_on",
        "note": 42,
        "velocity": 61,
        "time": 103431,
        "channel": 9
      },
      {
        "type": "note_off",
        "note": 42,
        "time": 103508,
        "channel": 9
      },
      {
        "type": "note_on",
        "note": 36,
        "velocity": 53,
        "time": 103543,
        "channel": 9
      },
      {
        "type": "note_on",
        "note": 26,
        "velocity": 91,
        "time": 103558,
        "channel": 9
      },
      {
        "type": "note_off",
        "note": 36,
        "time": 103620,
        "channel": 9
      },
      {
        "type": "note_off",
        "note": 26,
        "time": 103634,
        "channel": 9
      },
      {
        "type": "note_on",
        "note": 44,
        "velocity": 57,
        "time": 103662,
        "channel": 9
      },
      {
        "type": "note_on",
        "note": 38,
        "velocity": 28,
        "time": 103675,
        "channel": 9
      },
      {
        "type": "note_off",
        "note": 44,
        "time": 103739,
        "channel": 9
      },
      {
        "type": "note_off",
        "note": 38,
        "time": 103752,
        "channel": 9
      },
      {
        "type": "note_on",
        "note": 36,
        "velocity": 36,
        "time": 103776,
        "channel": 9
      },
      {
        "type": "note_on",
        "note": 42,
        "velocity": 42,
        "time": 103800,
        "channel": 9
      },
      {
        "type": "note_off",
        "note": 36,
        "time": 103852,
        "channel": 9
      },
      {
        "type": "note_off",
        "note": 42,
        "time": 103876,
        "channel": 9
      },
      {
        "type": "note_on",
        "note": 36,
        "velocity": 58,
        "time": 103908,
        "channel": 9
      },
      {
        "type": "note_on",
        "note": 26,
        "velocity": 73,
        "time": 103915,
        "channel": 9
      },
      {
        "type": "note_off",
        "note": 36,
        "time": 103984,
        "channel": 9
      },
      {
        "type": "note_off",
        "note": 26,
        "time": 103992,
        "channel": 9
      },
      {
        "type": "note_on",
        "note": 44,
        "velocity": 62,
        "time": 104146,
        "channel": 9
      },
      {
        "type": "note_on",
        "note": 42,
        "velocity": 51,
        "time": 104170,
        "channel": 9
      },
      {
        "type": "note_off",
        "note": 44,
        "time": 104223,
        "channel": 9
      },
      {
        "type": "note_off",
        "note": 42,
        "time": 104247,
        "channel": 9
      },
      {
        "type": "note_on",
        "note": 36,
        "velocity": 44,
        "time": 104278,
        "channel": 9
      },
      {
        "type": "note_off",
        "note": 36,
        "time": 104354,
        "channel": 9
      },
      {
        "type": "note_on",
        "note": 37,
        "velocity": 75,
        "time": 104385,
        "channel": 9
      },
      {
        "type": "note_on",
        "note": 22,
        "velocity": 119,
        "time": 104397,
        "channel": 9
      },
      {
        "type": "note_off",
        "note": 37,
        "time": 104462,
        "channel": 9
      },
      {
        "type": "note_off",
        "note": 22,
        "time": 104475,
        "channel": 9
      },
      {
        "type": "note_on",
        "note": 38,
        "velocity": 19,
        "time": 104513,
        "channel": 9
      },
      {
        "type": "note_off",
        "note": 38,
        "time": 104590,
        "channel": 9
      },
      {
        "type": "note_on",
        "note": 22,
        "velocity": 68,
        "time": 104629,
        "channel": 9
      },
      {
        "type": "note_off",
        "note": 22,
        "time": 104706,
        "channel": 9
      },
      {
        "type": "note_on",
        "note": 36,
        "velocity": 51,
        "time": 104742,
        "channel": 9
      },
      {
        "type": "note_off",
        "note": 36,
        "time": 104819,
        "channel": 9
      },
      {
        "type": "note_on",
        "note": 38,
        "velocity": 71,
        "time": 104867,
        "channel": 9
      },
      {
        "type": "note_on",
        "note": 22,
        "velocity": 95,
        "time": 104874,
        "channel": 9
      },
      {
        "type": "note_off",
        "note": 38,
        "time": 104944,
        "channel": 9
      },
      {
        "type": "note_off",
        "note": 22,
        "time": 104951,
        "channel": 9
      },
      {
        "type": "note_on",
        "note": 38,
        "velocity": 32,
        "time": 104998,
        "channel": 9
      },
      {
        "type": "note_off",
        "note": 38,
        "time": 105074,
        "channel": 9
      },
      {
        "type": "note_on",
        "note": 42,
        "velocity": 54,
        "time": 105115,
        "channel": 9
      },
      {
        "type": "note_off",
        "note": 42,
        "time": 105192,
        "channel": 9
      },
      {
        "type": "note_on",
        "note": 37,
        "velocity": 85,
        "time": 105229,
        "channel": 9
      },
      {
        "type": "note_off",
        "note": 37,
        "time": 105306,
        "channel": 9
      },
      {
        "type": "note_on",
        "note": 42,
        "velocity": 51,
        "time": 105328,
        "channel": 9
      },
      {
        "type": "note_off",
        "note": 42,
        "time": 105405,
        "channel": 9
      },
      {
        "type": "note_on",
        "note": 36,
        "velocity": 53,
        "time": 105443,
        "channel": 9
      },
      {
        "type": "note_on",
        "note": 46,
        "velocity": 92,
        "time": 105455,
        "channel": 9
      },
      {
        "type": "note_off",
        "note": 36,
        "time": 105520,
        "channel": 9
      },
      {
        "type": "note_off",
        "note": 46,
        "time": 105532,
        "channel": 9
      },
      {
        "type": "note_on",
        "note": 44,
        "velocity": 65,
        "time": 105545,
        "channel": 9
      },
      {
        "type": "note_on",
        "note": 38,
        "velocity": 18,
        "time": 105583,
        "channel": 9
      },
      {
        "type": "note_off",
        "note": 44,
        "time": 105622,
        "channel": 9
      },
      {
        "type": "note_off",
        "note": 38,
        "time": 105660,
        "channel": 9
      },
      {
        "type": "note_on",
        "note": 36,
        "velocity": 18,
        "time": 105675,
        "channel": 9
      },
      {
        "type": "note_on",
        "note": 42,
        "velocity": 50,
        "time": 105700,
        "channel": 9
      },
      {
        "type": "note_off",
        "note": 36,
        "time": 105751,
        "channel": 9
      },
      {
        "type": "note_off",
        "note": 42,
        "time": 105777,
        "channel": 9
      },
      {
        "type": "note_on",
        "note": 36,
        "velocity": 66,
        "time": 105800,
        "channel": 9
      },
      {
        "type": "note_on",
        "note": 26,
        "velocity": 80,
        "time": 105817,
        "channel": 9
      },
      {
        "type": "note_off",
        "note": 36,
        "time": 105877,
        "channel": 9
      },
      {
        "type": "note_off",
        "note": 26,
        "time": 105893,
        "channel": 9
      },
      {
        "type": "note_on",
        "note": 44,
        "velocity": 50,
        "time": 106045,
        "channel": 9
      },
      {
        "type": "note_on",
        "note": 42,
        "velocity": 60,
        "time": 106072,
        "channel": 9
      },
      {
        "type": "note_off",
        "note": 44,
        "time": 106122,
        "channel": 9
      },
      {
        "type": "note_off",
        "note": 42,
        "time": 106149,
        "channel": 9
      },
      {
        "type": "note_on",
        "note": 36,
        "velocity": 45,
        "time": 106180,
        "channel": 9
      },
      {
        "type": "note_off",
        "note": 36,
        "time": 106257,
        "channel": 9
      },
      {
        "type": "note_on",
        "note": 37,
        "velocity": 80,
        "time": 106289,
        "channel": 9
      },
      {
        "type": "note_on",
        "note": 42,
        "velocity": 109,
        "time": 106302,
        "channel": 9
      },
      {
        "type": "note_off",
        "note": 37,
        "time": 106365,
        "channel": 9
      },
      {
        "type": "note_off",
        "note": 42,
        "time": 106379,
        "channel": 9
      },
      {
        "type": "note_on",
        "note": 38,
        "velocity": 29,
        "time": 106407,
        "channel": 9
      },
      {
        "type": "note_off",
        "note": 38,
        "time": 106484,
        "channel": 9
      },
      {
        "type": "note_on",
        "note": 42,
        "velocity": 67,
        "time": 106539,
        "channel": 9
      },
      {
        "type": "note_on",
        "note": 36,
        "velocity": 7,
        "time": 106600,
        "channel": 9
      },
      {
        "type": "note_off",
        "note": 42,
        "time": 106616,
        "channel": 9
      },
      {
        "type": "note_on",
        "note": 42,
        "velocity": 54,
        "time": 106647,
        "channel": 9
      },
      {
        "type": "note_off",
        "note": 36,
        "time": 106676,
        "channel": 9
      },
      {
        "type": "note_off",
        "note": 42,
        "time": 106723,
        "channel": 9
      },
      {
        "type": "note_on",
        "note": 37,
        "velocity": 81,
        "time": 106778,
        "channel": 9
      },
      {
        "type": "note_off",
        "note": 37,
        "time": 106854,
        "channel": 9
      },
      {
        "type": "note_on",
        "note": 38,
        "velocity": 34,
        "time": 106888,
        "channel": 9
      },
      {
        "type": "note_off",
        "note": 38,
        "time": 106964,
        "channel": 9
      },
      {
        "type": "note_on",
        "note": 42,
        "velocity": 67,
        "time": 107016,
        "channel": 9
      },
      {
        "type": "note_off",
        "note": 42,
        "time": 107094,
        "channel": 9
      },
      {
        "type": "note_on",
        "note": 40,
        "velocity": 96,
        "time": 107126,
        "channel": 9
      },
      {
        "type": "note_off",
        "note": 40,
        "time": 107203,
        "channel": 9
      },
      {
        "type": "note_on",
        "note": 42,
        "velocity": 44,
        "time": 107242,
        "channel": 9
      },
      {
        "type": "note_off",
        "note": 42,
        "time": 107319,
        "channel": 9
      },
      {
        "type": "note_on",
        "note": 36,
        "velocity": 46,
        "time": 107354,
        "channel": 9
      },
      {
        "type": "note_on",
        "note": 26,
        "velocity": 65,
        "time": 107373,
        "channel": 9
      },
      {
        "type": "note_off",
        "note": 36,
        "time": 107430,
        "channel": 9
      },
      {
        "type": "note_off",
        "note": 26,
        "time": 107449,
        "channel": 9
      },
      {
        "type": "note_on",
        "note": 44,
        "velocity": 52,
        "time": 107465,
        "channel": 9
      },
      {
        "type": "note_on",
        "note": 38,
        "velocity": 24,
        "time": 107487,
        "channel": 9
      },
      {
        "type": "note_off",
        "note": 44,
        "time": 107542,
        "channel": 9
      },
      {
        "type": "note_off",
        "note": 38,
        "time": 107565,
        "channel": 9
      },
      {
        "type": "note_on",
        "note": 42,
        "velocity": 52,
        "time": 107607,
        "channel": 9
      },
      {
        "type": "note_on",
        "note": 36,
        "velocity": 30,
        "time": 107610,
        "channel": 9
      },
      {
        "type": "note_off",
        "note": 42,
        "time": 107684,
        "channel": 9
      },
      {
        "type": "note_off",
        "note": 36,
        "time": 107686,
        "channel": 9
      },
      {
        "type": "note_on",
        "note": 36,
        "velocity": 49,
        "time": 107721,
        "channel": 9
      },
      {
        "type": "note_on",
        "note": 26,
        "velocity": 71,
        "time": 107727,
        "channel": 9
      },
      {
        "type": "note_off",
        "note": 36,
        "time": 107798,
        "channel": 9
      },
      {
        "type": "note_off",
        "note": 26,
        "time": 107804,
        "channel": 9
      },
      {
        "type": "note_on",
        "note": 38,
        "velocity": 25,
        "time": 107845,
        "channel": 9
      },
      {
        "type": "note_off",
        "note": 38,
        "time": 107921,
        "channel": 9
      },
      {
        "type": "note_on",
        "note": 44,
        "velocity": 22,
        "time": 107923,
        "channel": 9
      },
      {
        "type": "note_on",
        "note": 38,
        "velocity": 35,
        "time": 107975,
        "channel": 9
      },
      {
        "type": "note_off",
        "note": 44,
        "time": 107999,
        "channel": 9
      },
      {
        "type": "note_off",
        "note": 38,
        "time": 108052,
        "channel": 9
      },
      {
        "type": "note_on",
        "note": 38,
        "velocity": 86,
        "time": 108089,
        "channel": 9
      },
      {
        "type": "note_off",
        "note": 38,
        "time": 108165,
        "channel": 9
      },
      {
        "type": "note_on",
        "note": 38,
        "velocity": 98,
        "time": 108214,
        "channel": 9
      },
      {
        "type": "note_off",
        "note": 38,
        "time": 108290,
        "channel": 9
      },
      {
        "type": "note_on",
        "note": 38,
        "velocity": 90,
        "time": 108341,
        "channel": 9
      },
      {
        "type": "note_off",
        "note": 38,
        "time": 108417,
        "channel": 9
      },
      {
        "type": "note_on",
        "note": 38,
        "velocity": 97,
        "time": 108458,
        "channel": 9
      },
      {
        "type": "note_off",
        "note": 38,
        "time": 108535,
        "channel": 9
      },
      {
        "type": "note_on",
        "note": 38,
        "velocity": 27,
        "time": 108566,
        "channel": 9
      },
      {
        "type": "note_off",
        "note": 38,
        "time": 108643,
        "channel": 9
      },
      {
        "type": "note_on",
        "note": 44,
        "velocity": 50,
        "time": 108689,
        "channel": 9
      },
      {
        "type": "note_on",
        "note": 43,
        "velocity": 127,
        "time": 108704,
        "channel": 9
      },
      {
        "type": "note_off",
        "note": 44,
        "time": 108766,
        "channel": 9
      },
      {
        "type": "note_off",
        "note": 43,
        "time": 108781,
        "channel": 9
      },
      {
        "type": "note_on",
        "note": 38,
        "velocity": 23,
        "time": 108822,
        "channel": 9
      },
      {
        "type": "note_off",
        "note": 38,
        "time": 108898,
        "channel": 9
      },
      {
        "type": "note_on",
        "note": 44,
        "velocity": 72,
        "time": 108946,
        "channel": 9
      },
      {
        "type": "note_on",
        "note": 38,
        "velocity": 18,
        "time": 108954,
        "channel": 9
      },
      {
        "type": "note_off",
        "note": 44,
        "time": 109022,
        "channel": 9
      },
      {
        "type": "note_off",
        "note": 38,
        "time": 109031,
        "channel": 9
      },
      {
        "type": "note_on",
        "note": 43,
        "velocity": 127,
        "time": 109072,
        "channel": 9
      },
      {
        "type": "note_off",
        "note": 43,
        "time": 109149,
        "channel": 9
      },
      {
        "type": "note_on",
        "note": 44,
        "velocity": 82,
        "time": 109181,
        "channel": 9
      },
      {
        "type": "note_off",
        "note": 44,
        "time": 109258,
        "channel": 9
      },
      {
        "type": "note_on",
        "note": 38,
        "velocity": 13,
        "time": 109277,
        "channel": 9
      },
      {
        "type": "note_on",
        "note": 36,
        "velocity": 30,
        "time": 109315,
        "channel": 9
      },
      {
        "type": "note_off",
        "note": 38,
        "time": 109354,
        "channel": 9
      },
      {
        "type": "note_off",
        "note": 36,
        "time": 109392,
        "channel": 9
      },
      {
        "type": "note_on",
        "note": 55,
        "velocity": 75,
        "time": 109431,
        "channel": 9
      },
      {
        "type": "note_on",
        "note": 36,
        "velocity": 62,
        "time": 109435,
        "channel": 9
      },
      {
        "type": "note_off",
        "note": 55,
        "time": 109508,
        "channel": 9
      },
      {
        "type": "note_off",
        "note": 36,
        "time": 109512,
        "channel": 9
      },
      {
        "type": "note_on",
        "note": 38,
        "velocity": 90,
        "time": 109561,
        "channel": 9
      },
      {
        "type": "note_off",
        "note": 38,
        "time": 109638,
        "channel": 9
      },
      {
        "type": "note_on",
        "note": 38,
        "velocity": 25,
        "time": 109690,
        "channel": 9
      },
      {
        "type": "note_off",
        "note": 38,
        "time": 109767,
        "channel": 9
      },
      {
        "type": "note_on",
        "note": 36,
        "velocity": 64,
        "time": 109789,
        "channel": 9
      },
      {
        "type": "note_on",
        "note": 26,
        "velocity": 99,
        "time": 109802,
        "channel": 9
      },
      {
        "type": "note_off",
        "note": 36,
        "time": 109866,
        "channel": 9
      },
      {
        "type": "note_off",
        "note": 26,
        "time": 109879,
        "channel": 9
      },
      {
        "type": "note_on",
        "note": 38,
        "velocity": 14,
        "time": 109920,
        "channel": 9
      },
      {
        "type": "note_on",
        "note": 44,
        "velocity": 62,
        "time": 109921,
        "channel": 9
      },
      {
        "type": "note_off",
        "note": 38,
        "time": 109997,
        "channel": 9
      },
      {
        "type": "note_off",
        "note": 44,
        "time": 109998,
        "channel": 9
      },
      {
        "type": "note_on",
        "note": 42,
        "velocity": 38,
        "time": 110044,
        "channel": 9
      },
      {
        "type": "note_off",
        "note": 42,
        "time": 110121,
        "channel": 9
      },
      {
        "type": "note_on",
        "note": 42,
        "velocity": 81,
        "time": 110164,
        "channel": 9
      },
      {
        "type": "note_off",
        "note": 42,
        "time": 110241,
        "channel": 9
      },
      {
        "type": "note_on",
        "note": 38,
        "velocity": 32,
        "time": 110263,
        "channel": 9
      },
      {
        "type": "note_off",
        "note": 38,
        "time": 110339,
        "channel": 9
      },
      {
        "type": "note_on",
        "note": 42,
        "velocity": 40,
        "time": 110389,
        "channel": 9
      },
      {
        "type": "note_on",
        "note": 38,
        "velocity": 25,
        "time": 110392,
        "channel": 9
      },
      {
        "type": "note_off",
        "note": 42,
        "time": 110466,
        "channel": 9
      },
      {
        "type": "note_off",
        "note": 38,
        "time": 110469,
        "channel": 9
      },
      {
        "type": "note_on",
        "note": 36,
        "velocity": 40,
        "time": 110496,
        "channel": 9
      },
      {
        "type": "note_on",
        "note": 42,
        "velocity": 44,
        "time": 110502,
        "channel": 9
      },
      {
        "type": "note_off",
        "note": 36,
        "time": 110573,
        "channel": 9
      },
      {
        "type": "note_off",
        "note": 42,
        "time": 110580,
        "channel": 9
      },
      {
        "type": "note_on",
        "note": 40,
        "velocity": 97,
        "time": 110641,
        "channel": 9
      },
      {
        "type": "note_off",
        "note": 40,
        "time": 110717,
        "channel": 9
      },
      {
        "type": "note_on",
        "note": 42,
        "velocity": 30,
        "time": 110770,
        "channel": 9
      },
      {
        "type": "note_off",
        "note": 42,
        "time": 110847,
        "channel": 9
      },
      {
        "type": "note_on",
        "note": 42,
        "velocity": 29,
        "time": 110890,
        "channel": 9
      },
      {
        "type": "note_off",
        "note": 42,
        "time": 110966,
        "channel": 9
      },
      {
        "type": "note_on",
        "note": 40,
        "velocity": 116,
        "time": 111013,
        "channel": 9
      },
      {
        "type": "note_off",
        "note": 40,
        "time": 111090,
        "channel": 9
      },
      {
        "type": "note_on",
        "note": 42,
        "velocity": 33,
        "time": 111135,
        "channel": 9
      },
      {
        "type": "note_off",
        "note": 42,
        "time": 111212,
        "channel": 9
      },
      {
        "type": "note_on",
        "note": 38,
        "velocity": 14,
        "time": 111238,
        "channel": 9
      },
      {
        "type": "note_off",
        "note": 38,
        "time": 111314,
        "channel": 9
      },
      {
        "type": "note_on",
        "note": 36,
        "velocity": 55,
        "time": 111348,
        "channel": 9
      },
      {
        "type": "note_on",
        "note": 42,
        "velocity": 43,
        "time": 111356,
        "channel": 9
      },
      {
        "type": "note_off",
        "note": 36,
        "time": 111424,
        "channel": 9
      },
      {
        "type": "note_off",
        "note": 42,
        "time": 111432,
        "channel": 9
      },
      {
        "type": "note_on",
        "note": 37,
        "velocity": 80,
        "time": 111480,
        "channel": 9
      },
      {
        "type": "note_off",
        "note": 37,
        "time": 111557,
        "channel": 9
      },
      {
        "type": "note_on",
        "note": 42,
        "velocity": 37,
        "time": 111598,
        "channel": 9
      },
      {
        "type": "note_off",
        "note": 42,
        "time": 111675,
        "channel": 9
      },
      {
        "type": "note_on",
        "note": 46,
        "velocity": 65,
        "time": 111715,
        "channel": 9
      },
      {
        "type": "note_on",
        "note": 36,
        "velocity": 53,
        "time": 111716,
        "channel": 9
      },
      {
        "type": "note_off",
        "note": 36,
        "time": 111792,
        "channel": 9
      },
      {
        "type": "note_off",
        "note": 46,
        "time": 111792,
        "channel": 9
      },
      {
        "type": "note_on",
        "note": 44,
        "velocity": 65,
        "time": 111828,
        "channel": 9
      },
      {
        "type": "note_off",
        "note": 44,
        "time": 111904,
        "channel": 9
      },
      {
        "type": "note_on",
        "note": 42,
        "velocity": 42,
        "time": 111954,
        "channel": 9
      },
      {
        "type": "note_off",
        "note": 42,
        "time": 112030,
        "channel": 9
      },
      {
        "type": "note_on",
        "note": 22,
        "velocity": 80,
        "time": 112082,
        "channel": 9
      },
      {
        "type": "note_off",
        "note": 22,
        "time": 112159,
        "channel": 9
      },
      {
        "type": "note_on",
        "note": 38,
        "velocity": 19,
        "time": 112190,
        "channel": 9
      },
      {
        "type": "note_off",
        "note": 38,
        "time": 112267,
        "channel": 9
      },
      {
        "type": "note_on",
        "note": 38,
        "velocity": 21,
        "time": 112296,
        "channel": 9
      },
      {
        "type": "note_on",
        "note": 42,
        "velocity": 36,
        "time": 112307,
        "channel": 9
      },
      {
        "type": "note_off",
        "note": 38,
        "time": 112373,
        "channel": 9
      },
      {
        "type": "note_off",
        "note": 42,
        "time": 112384,
        "channel": 9
      },
      {
        "type": "note_on",
        "note": 36,
        "velocity": 47,
        "time": 112426,
        "channel": 9
      },
      {
        "type": "note_on",
        "note": 42,
        "velocity": 39,
        "time": 112426,
        "channel": 9
      },
      {
        "type": "note_off",
        "note": 36,
        "time": 112503,
        "channel": 9
      },
      {
        "type": "note_off",
        "note": 42,
        "time": 112503,
        "channel": 9
      },
      {
        "type": "note_on",
        "note": 40,
        "velocity": 127,
        "time": 112563,
        "channel": 9
      },
      {
        "type": "note_off",
        "note": 40,
        "time": 112640,
        "channel": 9
      },
      {
        "type": "note_on",
        "note": 42,
        "velocity": 31,
        "time": 112691,
        "channel": 9
      },
      {
        "type": "note_off",
        "note": 42,
        "time": 112768,
        "channel": 9
      },
      {
        "type": "note_on",
        "note": 42,
        "velocity": 38,
        "time": 112806,
        "channel": 9
      },
      {
        "type": "note_off",
        "note": 42,
        "time": 112883,
        "channel": 9
      },
      {
        "type": "note_on",
        "note": 40,
        "velocity": 127,
        "time": 112923,
        "channel": 9
      },
      {
        "type": "note_off",
        "note": 40,
        "time": 112999,
        "channel": 9
      },
      {
        "type": "note_on",
        "note": 42,
        "velocity": 41,
        "time": 113046,
        "channel": 9
      },
      {
        "type": "note_off",
        "note": 42,
        "time": 113123,
        "channel": 9
      },
      {
        "type": "note_on",
        "note": 38,
        "velocity": 30,
        "time": 113130,
        "channel": 9
      },
      {
        "type": "note_off",
        "note": 38,
        "time": 113207,
        "channel": 9
      },
      {
        "type": "note_on",
        "note": 36,
        "velocity": 52,
        "time": 113266,
        "channel": 9
      },
      {
        "type": "note_on",
        "note": 42,
        "velocity": 44,
        "time": 113281,
        "channel": 9
      },
      {
        "type": "note_off",
        "note": 36,
        "time": 113342,
        "channel": 9
      },
      {
        "type": "note_off",
        "note": 42,
        "time": 113358,
        "channel": 9
      },
      {
        "type": "note_on",
        "note": 37,
        "velocity": 84,
        "time": 113383,
        "channel": 9
      },
      {
        "type": "note_off",
        "note": 37,
        "time": 113459,
        "channel": 9
      },
      {
        "type": "note_on",
        "note": 42,
        "velocity": 30,
        "time": 113507,
        "channel": 9
      },
      {
        "type": "note_off",
        "note": 42,
        "time": 113584,
        "channel": 9
      },
      {
        "type": "note_on",
        "note": 36,
        "velocity": 57,
        "time": 113609,
        "channel": 9
      },
      {
        "type": "note_on",
        "note": 22,
        "velocity": 73,
        "time": 113612,
        "channel": 9
      },
      {
        "type": "note_off",
        "note": 36,
        "time": 113686,
        "channel": 9
      },
      {
        "type": "note_off",
        "note": 22,
        "time": 113689,
        "channel": 9
      },
      {
        "type": "note_on",
        "note": 44,
        "velocity": 75,
        "time": 113737,
        "channel": 9
      },
      {
        "type": "note_on",
        "note": 38,
        "velocity": 26,
        "time": 113763,
        "channel": 9
      },
      {
        "type": "note_off",
        "note": 44,
        "time": 113814,
        "channel": 9
      },
      {
        "type": "note_off",
        "note": 38,
        "time": 113839,
        "channel": 9
      },
      {
        "type": "note_on",
        "note": 42,
        "velocity": 36,
        "time": 113860,
        "channel": 9
      },
      {
        "type": "note_off",
        "note": 42,
        "time": 113937,
        "channel": 9
      },
      {
        "type": "note_on",
        "note": 22,
        "velocity": 94,
        "time": 113979,
        "channel": 9
      },
      {
        "type": "note_off",
        "note": 22,
        "time": 114056,
        "channel": 9
      },
      {
        "type": "note_on",
        "note": 38,
        "velocity": 29,
        "time": 114079,
        "channel": 9
      },
      {
        "type": "note_off",
        "note": 38,
        "time": 114156,
        "channel": 9
      },
      {
        "type": "note_on",
        "note": 38,
        "velocity": 26,
        "time": 114204,
        "channel": 9
      },
      {
        "type": "note_on",
        "note": 42,
        "velocity": 44,
        "time": 114220,
        "channel": 9
      },
      {
        "type": "note_off",
        "note": 38,
        "time": 114281,
        "channel": 9
      },
      {
        "type": "note_off",
        "note": 42,
        "time": 114297,
        "channel": 9
      },
      {
        "type": "note_on",
        "note": 42,
        "velocity": 38,
        "time": 114340,
        "channel": 9
      },
      {
        "type": "note_on",
        "note": 36,
        "velocity": 47,
        "time": 114343,
        "channel": 9
      },
      {
        "type": "note_off",
        "note": 42,
        "time": 114417,
        "channel": 9
      },
      {
        "type": "note_off",
        "note": 36,
        "time": 114420,
        "channel": 9
      },
      {
        "type": "note_on",
        "note": 40,
        "velocity": 100,
        "time": 114461,
        "channel": 9
      },
      {
        "type": "note_off",
        "note": 40,
        "time": 114538,
        "channel": 9
      },
      {
        "type": "note_on",
        "note": 42,
        "velocity": 36,
        "time": 114599,
        "channel": 9
      },
      {
        "type": "note_off",
        "note": 42,
        "time": 114676,
        "channel": 9
      },
      {
        "type": "note_on",
        "note": 42,
        "velocity": 35,
        "time": 114714,
        "channel": 9
      },
      {
        "type": "note_off",
        "note": 42,
        "time": 114791,
        "channel": 9
      },
      {
        "type": "note_on",
        "note": 40,
        "velocity": 112,
        "time": 114836,
        "channel": 9
      },
      {
        "type": "note_off",
        "note": 40,
        "time": 114913,
        "channel": 9
      },
      {
        "type": "note_on",
        "note": 42,
        "velocity": 48,
        "time": 114961,
        "channel": 9
      },
      {
        "type": "note_off",
        "note": 42,
        "time": 115038,
        "channel": 9
      },
      {
        "type": "note_on",
        "note": 38,
        "velocity": 23,
        "time": 115057,
        "channel": 9
      },
      {
        "type": "note_off",
        "note": 38,
        "time": 115097,
        "channel": 9
      },
      {
        "type": "note_on",
        "note": 38,
        "velocity": 26,
        "time": 115097,
        "channel": 9
      },
      {
        "type": "note_off",
        "note": 38,
        "time": 115124,
        "channel": 9
      },
      {
        "type": "note_on",
        "note": 38,
        "velocity": 23,
        "time": 115124,
        "channel": 9
      },
      {
        "type": "note_off",
        "note": 38,
        "time": 115134,
        "channel": 9
      },
      {
        "type": "note_on",
        "note": 38,
        "velocity": 9,
        "time": 115167,
        "channel": 9
      },
      {
        "type": "note_off",
        "note": 38,
        "time": 115174,
        "channel": 9
      },
      {
        "type": "note_on",
        "note": 36,
        "velocity": 55,
        "time": 115202,
        "channel": 9
      },
      {
        "type": "note_on",
        "note": 42,
        "velocity": 39,
        "time": 115203,
        "channel": 9
      },
      {
        "type": "note_off",
        "note": 36,
        "time": 115279,
        "channel": 9
      },
      {
        "type": "note_off",
        "note": 42,
        "time": 115279,
        "channel": 9
      },
      {
        "type": "note_on",
        "note": 37,
        "velocity": 89,
        "time": 115316,
        "channel": 9
      },
      {
        "type": "note_off",
        "note": 37,
        "time": 115393,
        "channel": 9
      },
      {
        "type": "note_on",
        "note": 42,
        "velocity": 30,
        "time": 115434,
        "channel": 9
      },
      {
        "type": "note_off",
        "note": 42,
        "time": 115511,
        "channel": 9
      },
      {
        "type": "note_on",
        "note": 36,
        "velocity": 56,
        "time": 115549,
        "channel": 9
      },
      {
        "type": "note_on",
        "note": 46,
        "velocity": 61,
        "time": 115550,
        "channel": 9
      },
      {
        "type": "note_off",
        "note": 36,
        "time": 115625,
        "channel": 9
      },
      {
        "type": "note_off",
        "note": 46,
        "time": 115627,
        "channel": 9
      },
      {
        "type": "note_on",
        "note": 44,
        "velocity": 82,
        "time": 115666,
        "channel": 9
      },
      {
        "type": "note_on",
        "note": 38,
        "velocity": 34,
        "time": 115668,
        "channel": 9
      },
      {
        "type": "note_off",
        "note": 44,
        "time": 115743,
        "channel": 9
      },
      {
        "type": "note_off",
        "note": 38,
        "time": 115745,
        "channel": 9
      },
      {
        "type": "note_on",
        "note": 38,
        "velocity": 68,
        "time": 115784,
        "channel": 9
      },
      {
        "type": "note_off",
        "note": 38,
        "time": 115861,
        "channel": 9
      },
      {
        "type": "note_on",
        "note": 38,
        "velocity": 53,
        "time": 115908,
        "channel": 9
      },
      {
        "type": "note_off",
        "note": 38,
        "time": 115985,
        "channel": 9
      },
      {
        "type": "note_on",
        "note": 38,
        "velocity": 70,
        "time": 116025,
        "channel": 9
      },
      {
        "type": "note_off",
        "note": 38,
        "time": 116101,
        "channel": 9
      },
      {
        "type": "note_on",
        "note": 38,
        "velocity": 71,
        "time": 116140,
        "channel": 9
      },
      {
        "type": "note_off",
        "note": 38,
        "time": 116217,
        "channel": 9
      },
      {
        "type": "note_on",
        "note": 36,
        "velocity": 53,
        "time": 116366,
        "channel": 9
      },
      {
        "type": "note_on",
        "note": 26,
        "velocity": 97,
        "time": 116384,
        "channel": 9
      },
      {
        "type": "note_off",
        "note": 36,
        "time": 116443,
        "channel": 9
      },
      {
        "type": "note_off",
        "note": 26,
        "time": 116461,
        "channel": 9
      },
      {
        "type": "note_on",
        "note": 38,
        "velocity": 29,
        "time": 116493,
        "channel": 9
      },
      {
        "type": "note_on",
        "note": 44,
        "velocity": 37,
        "time": 116507,
        "channel": 9
      },
      {
        "type": "note_off",
        "note": 38,
        "time": 116570,
        "channel": 9
      },
      {
        "type": "note_off",
        "note": 44,
        "time": 116583,
        "channel": 9
      },
      {
        "type": "note_on",
        "note": 38,
        "velocity": 26,
        "time": 116613,
        "channel": 9
      },
      {
        "type": "note_off",
        "note": 38,
        "time": 116689,
        "channel": 9
      },
      {
        "type": "note_on",
        "note": 36,
        "velocity": 59,
        "time": 116723,
        "channel": 9
      },
      {
        "type": "note_on",
        "note": 26,
        "velocity": 75,
        "time": 116747,
        "channel": 9
      },
      {
        "type": "note_off",
        "note": 36,
        "time": 116799,
        "channel": 9
      },
      {
        "type": "note_off",
        "note": 26,
        "time": 116824,
        "channel": 9
      },
      {
        "type": "note_on",
        "note": 44,
        "velocity": 62,
        "time": 116824,
        "channel": 9
      },
      {
        "type": "note_on",
        "note": 38,
        "velocity": 17,
        "time": 116862,
        "channel": 9
      },
      {
        "type": "note_off",
        "note": 44,
        "time": 116900,
        "channel": 9
      },
      {
        "type": "note_off",
        "note": 38,
        "time": 116938,
        "channel": 9
      },
      {
        "type": "note_on",
        "note": 36,
        "velocity": 37,
        "time": 116965,
        "channel": 9
      },
      {
        "type": "note_off",
        "note": 36,
        "time": 117042,
        "channel": 9
      },
      {
        "type": "note_on",
        "note": 36,
        "velocity": 70,
        "time": 117088,
        "channel": 9
      },
      {
        "type": "note_on",
        "note": 55,
        "velocity": 83,
        "time": 117092,
        "channel": 9
      },
      {
        "type": "note_off",
        "note": 36,
        "time": 117165,
        "channel": 9
      },
      {
        "type": "note_off",
        "note": 55,
        "time": 117169,
        "channel": 9
      },
      {
        "type": "note_on",
        "note": 37,
        "velocity": 72,
        "time": 117217,
        "channel": 9
      },
      {
        "type": "note_off",
        "note": 37,
        "time": 117293,
        "channel": 9
      },
      {
        "type": "note_on",
        "note": 42,
        "velocity": 25,
        "time": 117340,
        "channel": 9
      },
      {
        "type": "note_off",
        "note": 42,
        "time": 117417,
        "channel": 9
      },
      {
        "type": "note_on",
        "note": 36,
        "velocity": 84,
        "time": 117464,
        "channel": 9
      },
      {
        "type": "note_on",
        "note": 22,
        "velocity": 102,
        "time": 117466,
        "channel": 9
      },
      {
        "type": "note_off",
        "note": 36,
        "time": 117540,
        "channel": 9
      },
      {
        "type": "note_off",
        "note": 22,
        "time": 117543,
        "channel": 9
      },
      {
        "type": "note_on",
        "note": 38,
        "velocity": 13,
        "time": 117588,
        "channel": 9
      },
      {
        "type": "note_on",
        "note": 44,
        "velocity": 52,
        "time": 117602,
        "channel": 9
      },
      {
        "type": "note_off",
        "note": 38,
        "time": 117664,
        "channel": 9
      },
      {
        "type": "note_off",
        "note": 44,
        "time": 117679,
        "channel": 9
      },
      {
        "type": "note_on",
        "note": 42,
        "velocity": 39,
        "time": 117697,
        "channel": 9
      },
      {
        "type": "note_off",
        "note": 42,
        "time": 117774,
        "channel": 9
      },
      {
        "type": "note_on",
        "note": 22,
        "velocity": 89,
        "time": 117819,
        "channel": 9
      },
      {
        "type": "note_off",
        "note": 22,
        "time": 117896,
        "channel": 9
      },
      {
        "type": "note_on",
        "note": 38,
        "velocity": 27,
        "time": 117920,
        "channel": 9
      },
      {
        "type": "note_off",
        "note": 38,
        "time": 117996,
        "channel": 9
      },
      {
        "type": "note_on",
        "note": 38,
        "velocity": 15,
        "time": 118055,
        "channel": 9
      },
      {
        "type": "note_on",
        "note": 42,
        "velocity": 41,
        "time": 118060,
        "channel": 9
      },
      {
        "type": "note_off",
        "note": 38,
        "time": 118132,
        "channel": 9
      },
      {
        "type": "note_off",
        "note": 42,
        "time": 118137,
        "channel": 9
      },
      {
        "type": "note_on",
        "note": 42,
        "velocity": 31,
        "time": 118179,
        "channel": 9
      },
      {
        "type": "note_on",
        "note": 36,
        "velocity": 40,
        "time": 118191,
        "channel": 9
      },
      {
        "type": "note_off",
        "note": 42,
        "time": 118256,
        "channel": 9
      },
      {
        "type": "note_off",
        "note": 36,
        "time": 118268,
        "channel": 9
      },
      {
        "type": "note_on",
        "note": 40,
        "velocity": 101,
        "time": 118306,
        "channel": 9
      },
      {
        "type": "note_off",
        "note": 40,
        "time": 118382,
        "channel": 9
      },
      {
        "type": "note_on",
        "note": 42,
        "velocity": 35,
        "time": 118426,
        "channel": 9
      },
      {
        "type": "note_off",
        "note": 42,
        "time": 118502,
        "channel": 9
      },
      {
        "type": "note_on",
        "note": 42,
        "velocity": 48,
        "time": 118548,
        "channel": 9
      },
      {
        "type": "note_off",
        "note": 42,
        "time": 118625,
        "channel": 9
      },
      {
        "type": "note_on",
        "note": 40,
        "velocity": 94,
        "time": 118668,
        "channel": 9
      },
      {
        "type": "note_off",
        "note": 40,
        "time": 118745,
        "channel": 9
      },
      {
        "type": "note_on",
        "note": 42,
        "velocity": 47,
        "time": 118796,
        "channel": 9
      },
      {
        "type": "note_off",
        "note": 42,
        "time": 118873,
        "channel": 9
      },
      {
        "type": "note_on",
        "note": 38,
        "velocity": 21,
        "time": 118883,
        "channel": 9
      },
      {
        "type": "note_off",
        "note": 38,
        "time": 118927,
        "channel": 9
      },
      {
        "type": "note_on",
        "note": 38,
        "velocity": 20,
        "time": 118927,
        "channel": 9
      },
      {
        "type": "note_off",
        "note": 38,
        "time": 118960,
        "channel": 9
      },
      {
        "type": "note_on",
        "note": 38,
        "velocity": 11,
        "time": 118965,
        "channel": 9
      },
      {
        "type": "note_off",
        "note": 38,
        "time": 119004,
        "channel": 9
      },
      {
        "type": "note_on",
        "note": 36,
        "velocity": 60,
        "time": 119013,
        "channel": 9
      },
      {
        "type": "note_on",
        "note": 42,
        "velocity": 83,
        "time": 119022,
        "channel": 9
      },
      {
        "type": "note_off",
        "note": 36,
        "time": 119089,
        "channel": 9
      },
      {
        "type": "note_off",
        "note": 42,
        "time": 119099,
        "channel": 9
      },
      {
        "type": "note_on",
        "note": 38,
        "velocity": 76,
        "time": 119150,
        "channel": 9
      },
      {
        "type": "note_off",
        "note": 38,
        "time": 119226,
        "channel": 9
      },
      {
        "type": "note_on",
        "note": 42,
        "velocity": 44,
        "time": 119262,
        "channel": 9
      },
      {
        "type": "note_off",
        "note": 42,
        "time": 119339,
        "channel": 9
      },
      {
        "type": "note_on",
        "note": 36,
        "velocity": 60,
        "time": 119369,
        "channel": 9
      },
      {
        "type": "note_on",
        "note": 46,
        "velocity": 18,
        "time": 119373,
        "channel": 9
      },
      {
        "type": "note_off",
        "note": 36,
        "time": 119446,
        "channel": 9
      },
      {
        "type": "note_off",
        "note": 46,
        "time": 119449,
        "channel": 9
      },
      {
        "type": "note_on",
        "note": 44,
        "velocity": 80,
        "time": 119473,
        "channel": 9
      },
      {
        "type": "note_off",
        "note": 44,
        "time": 119550,
        "channel": 9
      },
      {
        "type": "note_on",
        "note": 42,
        "velocity": 88,
        "time": 119974,
        "channel": 9
      },
      {
        "type": "note_off",
        "note": 42,
        "time": 120051,
        "channel": 9
      },
      {
        "type": "note_on",
        "note": 38,
        "velocity": 42,
        "time": 120087,
        "channel": 9
      },
      {
        "type": "note_off",
        "note": 38,
        "time": 120164,
        "channel": 9
      },
      {
        "type": "note_on",
        "note": 38,
        "velocity": 20,
        "time": 120195,
        "channel": 9
      },
      {
        "type": "note_on",
        "note": 42,
        "velocity": 42,
        "time": 120201,
        "channel": 9
      },
      {
        "type": "note_off",
        "note": 38,
        "time": 120273,
        "channel": 9
      },
      {
        "type": "note_off",
        "note": 42,
        "time": 120278,
        "channel": 9
      },
      {
        "type": "note_on",
        "note": 42,
        "velocity": 46,
        "time": 120310,
        "channel": 9
      },
      {
        "type": "note_off",
        "note": 42,
        "time": 120387,
        "channel": 9
      },
      {
        "type": "note_on",
        "note": 40,
        "velocity": 126,
        "time": 120443,
        "channel": 9
      },
      {
        "type": "note_off",
        "note": 40,
        "time": 120519,
        "channel": 9
      },
      {
        "type": "note_on",
        "note": 42,
        "velocity": 53,
        "time": 120560,
        "channel": 9
      },
      {
        "type": "note_off",
        "note": 42,
        "time": 120637,
        "channel": 9
      },
      {
        "type": "note_on",
        "note": 22,
        "velocity": 90,
        "time": 120692,
        "channel": 9
      },
      {
        "type": "note_off",
        "note": 22,
        "time": 120769,
        "channel": 9
      },
      {
        "type": "note_on",
        "note": 38,
        "velocity": 31,
        "time": 120805,
        "channel": 9
      },
      {
        "type": "note_off",
        "note": 38,
        "time": 120862,
        "channel": 9
      },
      {
        "type": "note_on",
        "note": 38,
        "velocity": 31,
        "time": 120862,
        "channel": 9
      },
      {
        "type": "note_off",
        "note": 38,
        "time": 120882,
        "channel": 9
      },
      {
        "type": "note_on",
        "note": 38,
        "velocity": 17,
        "time": 120901,
        "channel": 9
      },
      {
        "type": "note_on",
        "note": 36,
        "velocity": 61,
        "time": 120928,
        "channel": 9
      },
      {
        "type": "note_off",
        "note": 38,
        "time": 120939,
        "channel": 9
      },
      {
        "type": "note_on",
        "note": 22,
        "velocity": 79,
        "time": 120942,
        "channel": 9
      },
      {
        "type": "note_off",
        "note": 36,
        "time": 121004,
        "channel": 9
      },
      {
        "type": "note_off",
        "note": 22,
        "time": 121019,
        "channel": 9
      },
      {
        "type": "note_on",
        "note": 40,
        "velocity": 95,
        "time": 121060,
        "channel": 9
      },
      {
        "type": "note_off",
        "note": 40,
        "time": 121137,
        "channel": 9
      },
      {
        "type": "note_on",
        "note": 42,
        "velocity": 29,
        "time": 121173,
        "channel": 9
      },
      {
        "type": "note_off",
        "note": 42,
        "time": 121251,
        "channel": 9
      },
      {
        "type": "note_on",
        "note": 36,
        "velocity": 62,
        "time": 121289,
        "channel": 9
      },
      {
        "type": "note_on",
        "note": 22,
        "velocity": 80,
        "time": 121293,
        "channel": 9
      },
      {
        "type": "note_off",
        "note": 36,
        "time": 121366,
        "channel": 9
      },
      {
        "type": "note_off",
        "note": 22,
        "time": 121370,
        "channel": 9
      },
      {
        "type": "note_on",
        "note": 38,
        "velocity": 27,
        "time": 121414,
        "channel": 9
      },
      {
        "type": "note_on",
        "note": 44,
        "velocity": 82,
        "time": 121417,
        "channel": 9
      },
      {
        "type": "note_off",
        "note": 38,
        "time": 121491,
        "channel": 9
      },
      {
        "type": "note_off",
        "note": 44,
        "time": 121493,
        "channel": 9
      },
      {
        "type": "note_on",
        "note": 38,
        "velocity": 14,
        "time": 121500,
        "channel": 9
      },
      {
        "type": "note_on",
        "note": 42,
        "velocity": 29,
        "time": 121536,
        "channel": 9
      },
      {
        "type": "note_off",
        "note": 38,
        "time": 121577,
        "channel": 9
      },
      {
        "type": "note_off",
        "note": 42,
        "time": 121613,
        "channel": 9
      },
      {
        "type": "note_on",
        "note": 22,
        "velocity": 81,
        "time": 121658,
        "channel": 9
      },
      {
        "type": "note_off",
        "note": 22,
        "time": 121735,
        "channel": 9
      },
      {
        "type": "note_on",
        "note": 38,
        "velocity": 14,
        "time": 121777,
        "channel": 9
      },
      {
        "type": "note_off",
        "note": 38,
        "time": 121853,
        "channel": 9
      },
      {
        "type": "note_on",
        "note": 38,
        "velocity": 26,
        "time": 121880,
        "channel": 9
      },
      {
        "type": "note_on",
        "note": 42,
        "velocity": 36,
        "time": 121902,
        "channel": 9
      },
      {
        "type": "note_off",
        "note": 38,
        "time": 121957,
        "channel": 9
      },
      {
        "type": "note_off",
        "note": 42,
        "time": 121979,
        "channel": 9
      },
      {
        "type": "note_on",
        "note": 42,
        "velocity": 40,
        "time": 122015,
        "channel": 9
      },
      {
        "type": "note_on",
        "note": 36,
        "velocity": 50,
        "time": 122032,
        "channel": 9
      },
      {
        "type": "note_off",
        "note": 42,
        "time": 122093,
        "channel": 9
      },
      {
        "type": "note_off",
        "note": 36,
        "time": 122108,
        "channel": 9
      },
      {
        "type": "note_on",
        "note": 40,
        "velocity": 115,
        "time": 122152,
        "channel": 9
      },
      {
        "type": "note_off",
        "note": 40,
        "time": 122229,
        "channel": 9
      },
      {
        "type": "note_on",
        "note": 42,
        "velocity": 30,
        "time": 122266,
        "channel": 9
      },
      {
        "type": "note_off",
        "note": 42,
        "time": 122343,
        "channel": 9
      },
      {
        "type": "note_on",
        "note": 42,
        "velocity": 43,
        "time": 122395,
        "channel": 9
      },
      {
        "type": "note_off",
        "note": 42,
        "time": 122472,
        "channel": 9
      },
      {
        "type": "note_on",
        "note": 40,
        "velocity": 103,
        "time": 122519,
        "channel": 9
      },
      {
        "type": "note_off",
        "note": 40,
        "time": 122595,
        "channel": 9
      },
      {
        "type": "note_on",
        "note": 42,
        "velocity": 43,
        "time": 122638,
        "channel": 9
      },
      {
        "type": "note_off",
        "note": 42,
        "time": 122715,
        "channel": 9
      },
      {
        "type": "note_on",
        "note": 38,
        "velocity": 27,
        "time": 122738,
        "channel": 9
      },
      {
        "type": "note_off",
        "note": 38,
        "time": 122787,
        "channel": 9
      },
      {
        "type": "note_on",
        "note": 38,
        "velocity": 20,
        "time": 122787,
        "channel": 9
      },
      {
        "type": "note_off",
        "note": 38,
        "time": 122815,
        "channel": 9
      },
      {
        "type": "note_on",
        "note": 38,
        "velocity": 10,
        "time": 122826,
        "channel": 9
      },
      {
        "type": "note_off",
        "note": 38,
        "time": 122864,
        "channel": 9
      },
      {
        "type": "note_on",
        "note": 36,
        "velocity": 50,
        "time": 122865,
        "channel": 9
      },
      {
        "type": "note_on",
        "note": 42,
        "velocity": 32,
        "time": 122880,
        "channel": 9
      },
      {
        "type": "note_off",
        "note": 36,
        "time": 122942,
        "channel": 9
      },
      {
        "type": "note_off",
        "note": 42,
        "time": 122957,
        "channel": 9
      },
      {
        "type": "note_on",
        "note": 40,
        "velocity": 102,
        "time": 122987,
        "channel": 9
      },
      {
        "type": "note_off",
        "note": 40,
        "time": 123064,
        "channel": 9
      },
      {
        "type": "note_on",
        "note": 42,
        "velocity": 22,
        "time": 123111,
        "channel": 9
      },
      {
        "type": "note_off",
        "note": 42,
        "time": 123189,
        "channel": 9
      },
      {
        "type": "note_on",
        "note": 36,
        "velocity": 54,
        "time": 123221,
        "channel": 9
      },
      {
        "type": "note_on",
        "note": 46,
        "velocity": 57,
        "time": 123226,
        "channel": 9
      },
      {
        "type": "note_off",
        "note": 36,
        "time": 123298,
        "channel": 9
      },
      {
        "type": "note_off",
        "note": 46,
        "time": 123303,
        "channel": 9
      },
      {
        "type": "note_on",
        "note": 44,
        "velocity": 65,
        "time": 123308,
        "channel": 9
      },
      {
        "type": "note_on",
        "note": 38,
        "velocity": 11,
        "time": 123345,
        "channel": 9
      },
      {
        "type": "note_off",
        "note": 44,
        "time": 123385,
        "channel": 9
      },
      {
        "type": "note_off",
        "note": 38,
        "time": 123422,
        "channel": 9
      },
      {
        "type": "note_on",
        "note": 36,
        "velocity": 31,
        "time": 123465,
        "channel": 9
      },
      {
        "type": "note_on",
        "note": 42,
        "velocity": 48,
        "time": 123465,
        "channel": 9
      },
      {
        "type": "note_off",
        "note": 36,
        "time": 123542,
        "channel": 9
      },
      {
        "type": "note_off",
        "note": 42,
        "time": 123542,
        "channel": 9
      },
      {
        "type": "note_on",
        "note": 26,
        "velocity": 65,
        "time": 123579,
        "channel": 9
      },
      {
        "type": "note_on",
        "note": 36,
        "velocity": 49,
        "time": 123579,
        "channel": 9
      },
      {
        "type": "note_off",
        "note": 26,
        "time": 123656,
        "channel": 9
      },
      {
        "type": "note_off",
        "note": 36,
        "time": 123656,
        "channel": 9
      },
      {
        "type": "note_on",
        "note": 38,
        "velocity": 26,
        "time": 123692,
        "channel": 9
      },
      {
        "type": "note_on",
        "note": 44,
        "velocity": 32,
        "time": 123726,
        "channel": 9
      },
      {
        "type": "note_off",
        "note": 38,
        "time": 123769,
        "channel": 9
      },
      {
        "type": "note_off",
        "note": 44,
        "time": 123803,
        "channel": 9
      },
      {
        "type": "note_on",
        "note": 38,
        "velocity": 40,
        "time": 123828,
        "channel": 9
      },
      {
        "type": "note_off",
        "note": 38,
        "time": 123904,
        "channel": 9
      },
      {
        "type": "note_on",
        "note": 38,
        "velocity": 58,
        "time": 123937,
        "channel": 9
      },
      {
        "type": "note_off",
        "note": 38,
        "time": 124014,
        "channel": 9
      },
      {
        "type": "note_on",
        "note": 38,
        "velocity": 71,
        "time": 124065,
        "channel": 9
      },
      {
        "type": "note_off",
        "note": 38,
        "time": 124142,
        "channel": 9
      },
      {
        "type": "note_on",
        "note": 38,
        "velocity": 70,
        "time": 124182,
        "channel": 9
      },
      {
        "type": "note_off",
        "note": 38,
        "time": 124259,
        "channel": 9
      },
      {
        "type": "note_on",
        "note": 37,
        "velocity": 86,
        "time": 124286,
        "channel": 9
      },
      {
        "type": "note_on",
        "note": 38,
        "velocity": 124,
        "time": 124327,
        "channel": 9
      },
      {
        "type": "note_off",
        "note": 37,
        "time": 124362,
        "channel": 9
      },
      {
        "type": "note_off",
        "note": 38,
        "time": 124403,
        "channel": 9
      },
      {
        "type": "note_on",
        "note": 36,
        "velocity": 53,
        "time": 124411,
        "channel": 9
      },
      {
        "type": "note_off",
        "note": 36,
        "time": 124487,
        "channel": 9
      },
      {
        "type": "note_on",
        "note": 44,
        "velocity": 77,
        "time": 124516,
        "channel": 9
      },
      {
        "type": "note_off",
        "note": 44,
        "time": 124593,
        "channel": 9
      },
      {
        "type": "note_on",
        "note": 36,
        "velocity": 28,
        "time": 124621,
        "channel": 9
      },
      {
        "type": "note_off",
        "note": 36,
        "time": 124697,
        "channel": 9
      },
      {
        "type": "note_on",
        "note": 36,
        "velocity": 78,
        "time": 124756,
        "channel": 9
      },
      {
        "type": "note_on",
        "note": 55,
        "velocity": 94,
        "time": 124761,
        "channel": 9
      },
      {
        "type": "note_on",
        "note": 59,
        "velocity": 102,
        "time": 124770,
        "channel": 9
      },
      {
        "type": "note_off",
        "note": 36,
        "time": 124833,
        "channel": 9
      },
      {
        "type": "note_off",
        "note": 55,
        "time": 124838,
        "channel": 9
      },
      {
        "type": "note_off",
        "note": 59,
        "time": 124846,
        "channel": 9
      },
      {
        "type": "note_on",
        "note": 37,
        "velocity": 81,
        "time": 125010,
        "channel": 9
      },
      {
        "type": "note_off",
        "note": 37,
        "time": 125087,
        "channel": 9
      },
      {
        "type": "note_on",
        "note": 42,
        "velocity": 33,
        "time": 125125,
        "channel": 9
      },
      {
        "type": "note_on",
        "note": 36,
        "velocity": 64,
        "time": 125135,
        "channel": 9
      },
      {
        "type": "note_off",
        "note": 42,
        "time": 125201,
        "channel": 9
      },
      {
        "type": "note_off",
        "note": 36,
        "time": 125212,
        "channel": 9
      },
      {
        "type": "note_on",
        "note": 44,
        "velocity": 42,
        "time": 125228,
        "channel": 9
      },
      {
        "type": "note_on",
        "note": 42,
        "velocity": 27,
        "time": 125244,
        "channel": 9
      },
      {
        "type": "note_off",
        "note": 44,
        "time": 125304,
        "channel": 9
      },
      {
        "type": "note_off",
        "note": 42,
        "time": 125320,
        "channel": 9
      },
      {
        "type": "note_on",
        "note": 38,
        "velocity": 87,
        "time": 125368,
        "channel": 9
      },
      {
        "type": "note_off",
        "note": 38,
        "time": 125445,
        "channel": 9
      },
      {
        "type": "note_on",
        "note": 42,
        "velocity": 22,
        "time": 125490,
        "channel": 9
      },
      {
        "type": "note_off",
        "note": 42,
        "time": 125567,
        "channel": 9
      },
      {
        "type": "note_on",
        "note": 36,
        "velocity": 61,
        "time": 125619,
        "channel": 9
      },
      {
        "type": "note_on",
        "note": 22,
        "velocity": 77,
        "time": 125621,
        "channel": 9
      },
      {
        "type": "note_off",
        "note": 36,
        "time": 125695,
        "channel": 9
      },
      {
        "type": "note_off",
        "note": 22,
        "time": 125697,
        "channel": 9
      },
      {
        "type": "note_on",
        "note": 44,
        "velocity": 60,
        "time": 125719,
        "channel": 9
      },
      {
        "type": "note_off",
        "note": 44,
        "time": 125796,
        "channel": 9
      },
      {
        "type": "note_on",
        "note": 42,
        "velocity": 22,
        "time": 125871,
        "channel": 9
      },
      {
        "type": "note_off",
        "note": 42,
        "time": 125948,
        "channel": 9
      },
      {
        "type": "note_on",
        "note": 22,
        "velocity": 82,
        "time": 125997,
        "channel": 9
      },
      {
        "type": "note_off",
        "note": 22,
        "time": 126074,
        "channel": 9
      },
      {
        "type": "note_on",
        "note": 36,
        "velocity": 55,
        "time": 126101,
        "channel": 9
      },
      {
        "type": "note_off",
        "note": 36,
        "time": 126178,
        "channel": 9
      },
      {
        "type": "note_on",
        "note": 38,
        "velocity": 96,
        "time": 126230,
        "channel": 9
      },
      {
        "type": "note_on",
        "note": 26,
        "velocity": 106,
        "time": 126239,
        "channel": 9
      },
      {
        "type": "note_off",
        "note": 38,
        "time": 126277,
        "channel": 9
      },
      {
        "type": "note_on",
        "note": 38,
        "velocity": 35,
        "time": 126277,
        "channel": 9
      },
      {
        "type": "note_off",
        "note": 38,
        "time": 126306,
        "channel": 9
      },
      {
        "type": "note_off",
        "note": 26,
        "time": 126316,
        "channel": 9
      },
      {
        "type": "note_on",
        "note": 40,
        "velocity": 111,
        "time": 126484,
        "channel": 9
      },
      {
        "type": "note_on",
        "note": 26,
        "velocity": 107,
        "time": 126489,
        "channel": 9
      },
      {
        "type": "note_off",
        "note": 40,
        "time": 126560,
        "channel": 9
      },
      {
        "type": "note_off",
        "note": 26,
        "time": 126566,
        "channel": 9
      },
      {
        "type": "note_on",
        "note": 38,
        "velocity": 19,
        "time": 126605,
        "channel": 9
      },
      {
        "type": "note_off",
        "note": 38,
        "time": 126635,
        "channel": 9
      },
      {
        "type": "note_on",
        "note": 38,
        "velocity": 10,
        "time": 126635,
        "channel": 9
      },
      {
        "type": "note_off",
        "note": 38,
        "time": 126681,
        "channel": 9
      },
      {
        "type": "note_on",
        "note": 44,
        "velocity": 37,
        "time": 126714,
        "channel": 9
      },
      {
        "type": "note_on",
        "note": 42,
        "velocity": 29,
        "time": 126727,
        "channel": 9
      },
      {
        "type": "note_on",
        "note": 36,
        "velocity": 54,
        "time": 126734,
        "channel": 9
      },
      {
        "type": "note_off",
        "note": 44,
        "time": 126790,
        "channel": 9
      },
      {
        "type": "note_off",
        "note": 42,
        "time": 126804,
        "channel": 9
      },
      {
        "type": "note_off",
        "note": 36,
        "time": 126811,
        "channel": 9
      },
      {
        "type": "note_on",
        "note": 22,
        "velocity": 28,
        "time": 126843,
        "channel": 9
      },
      {
        "type": "note_off",
        "note": 22,
        "time": 126920,
        "channel": 9
      },
      {
        "type": "note_on",
        "note": 37,
        "velocity": 78,
        "time": 126944,
        "channel": 9
      },
      {
        "type": "note_off",
        "note": 37,
        "time": 127021,
        "channel": 9
      },
      {
        "type": "note_on",
        "note": 42,
        "velocity": 29,
        "time": 127086,
        "channel": 9
      },
      {
        "type": "note_on",
        "note": 36,
        "velocity": 60,
        "time": 127094,
        "channel": 9
      },
      {
        "type": "note_off",
        "note": 42,
        "time": 127163,
        "channel": 9
      },
      {
        "type": "note_off",
        "note": 36,
        "time": 127171,
        "channel": 9
      },
      {
        "type": "note_on",
        "note": 42,
        "velocity": 13,
        "time": 127202,
        "channel": 9
      },
      {
        "type": "note_off",
        "note": 42,
        "time": 127279,
        "channel": 9
      },
      {
        "type": "note_on",
        "note": 38,
        "velocity": 96,
        "time": 127322,
        "channel": 9
      },
      {
        "type": "note_off",
        "note": 38,
        "time": 127398,
        "channel": 9
      },
      {
        "type": "note_on",
        "note": 42,
        "velocity": 23,
        "time": 127441,
        "channel": 9
      },
      {
        "type": "note_off",
        "note": 42,
        "time": 127518,
        "channel": 9
      },
      {
        "type": "note_on",
        "note": 22,
        "velocity": 117,
        "time": 127556,
        "channel": 9
      },
      {
        "type": "note_off",
        "note": 22,
        "time": 127633,
        "channel": 9
      },
      {
        "type": "note_on",
        "note": 38,
        "velocity": 20,
        "time": 127671,
        "channel": 9
      },
      {
        "type": "note_off",
        "note": 38,
        "time": 127748,
        "channel": 9
      },
      {
        "type": "note_on",
        "note": 42,
        "velocity": 27,
        "time": 127788,
        "channel": 9
      },
      {
        "type": "note_on",
        "note": 38,
        "velocity": 19,
        "time": 127806,
        "channel": 9
      },
      {
        "type": "note_off",
        "note": 42,
        "time": 127865,
        "channel": 9
      },
      {
        "type": "note_off",
        "note": 38,
        "time": 127882,
        "channel": 9
      },
      {
        "type": "note_on",
        "note": 38,
        "velocity": 16,
        "time": 127900,
        "channel": 9
      },
      {
        "type": "note_on",
        "note": 42,
        "velocity": 29,
        "time": 127922,
        "channel": 9
      },
      {
        "type": "note_off",
        "note": 38,
        "time": 127977,
        "channel": 9
      },
      {
        "type": "note_on",
        "note": 36,
        "velocity": 49,
        "time": 127999,
        "channel": 9
      },
      {
        "type": "note_off",
        "note": 42,
        "time": 127999,
        "channel": 9
      },
      {
        "type": "note_off",
        "note": 36,
        "time": 128076,
        "channel": 9
      },
      {
        "type": "note_on",
        "note": 26,
        "velocity": 122,
        "time": 128131,
        "channel": 9
      },
      {
        "type": "note_on",
        "note": 40,
        "velocity": 124,
        "time": 128133,
        "channel": 9
      },
      {
        "type": "note_on",
        "note": 37,
        "velocity": 60,
        "time": 128165,
        "channel": 9
      },
      {
        "type": "note_on",
        "note": 38,
        "velocity": 34,
        "time": 128196,
        "channel": 9
      },
      {
        "type": "note_off",
        "note": 26,
        "time": 128208,
        "channel": 9
      },
      {
        "type": "note_off",
        "note": 40,
        "time": 128210,
        "channel": 9
      },
      {
        "type": "note_off",
        "note": 38,
        "time": 128226,
        "channel": 9
      },
      {
        "type": "note_on",
        "note": 38,
        "velocity": 26,
        "time": 128226,
        "channel": 9
      },
      {
        "type": "note_off",
        "note": 37,
        "time": 128242,
        "channel": 9
      },
      {
        "type": "note_off",
        "note": 38,
        "time": 128247,
        "channel": 9
      },
      {
        "type": "note_on",
        "note": 38,
        "velocity": 20,
        "time": 128247,
        "channel": 9
      },
      {
        "type": "note_off",
        "note": 38,
        "time": 128272,
        "channel": 9
      },
      {
        "type": "note_on",
        "note": 26,
        "velocity": 96,
        "time": 128381,
        "channel": 9
      },
      {
        "type": "note_off",
        "note": 26,
        "time": 128458,
        "channel": 9
      },
      {
        "type": "note_on",
        "note": 38,
        "velocity": 34,
        "time": 128501,
        "channel": 9
      },
      {
        "type": "note_off",
        "note": 38,
        "time": 128551,
        "channel": 9
      },
      {
        "type": "note_on",
        "note": 38,
        "velocity": 28,
        "time": 128551,
        "channel": 9
      },
      {
        "type": "note_off",
        "note": 38,
        "time": 128578,
        "channel": 9
      },
      {
        "type": "note_on",
        "note": 38,
        "velocity": 28,
        "time": 128579,
        "channel": 9
      },
      {
        "type": "note_off",
        "note": 38,
        "time": 128605,
        "channel": 9
      },
      {
        "type": "note_on",
        "note": 38,
        "velocity": 21,
        "time": 128605,
        "channel": 9
      },
      {
        "type": "note_on",
        "note": 44,
        "velocity": 57,
        "time": 128613,
        "channel": 9
      },
      {
        "type": "note_off",
        "note": 38,
        "time": 128628,
        "channel": 9
      },
      {
        "type": "note_on",
        "note": 42,
        "velocity": 31,
        "time": 128635,
        "channel": 9
      },
      {
        "type": "note_on",
        "note": 36,
        "velocity": 55,
        "time": 128637,
        "channel": 9
      },
      {
        "type": "note_off",
        "note": 44,
        "time": 128689,
        "channel": 9
      },
      {
        "type": "note_off",
        "note": 42,
        "time": 128711,
        "channel": 9
      },
      {
        "type": "note_off",
        "note": 36,
        "time": 128714,
        "channel": 9
      },
      {
        "type": "note_on",
        "note": 42,
        "velocity": 27,
        "time": 128750,
        "channel": 9
      },
      {
        "type": "note_off",
        "note": 42,
        "time": 128828,
        "channel": 9
      },
      {
        "type": "note_on",
        "note": 38,
        "velocity": 81,
        "time": 128863,
        "channel": 9
      },
      {
        "type": "note_off",
        "note": 38,
        "time": 128940,
        "channel": 9
      },
      {
        "type": "note_on",
        "note": 42,
        "velocity": 26,
        "time": 128989,
        "channel": 9
      },
      {
        "type": "note_on",
        "note": 36,
        "velocity": 61,
        "time": 129011,
        "channel": 9
      },
      {
        "type": "note_off",
        "note": 42,
        "time": 129066,
        "channel": 9
      },
      {
        "type": "note_off",
        "note": 36,
        "time": 129088,
        "channel": 9
      },
      {
        "type": "note_on",
        "note": 42,
        "velocity": 20,
        "time": 129120,
        "channel": 9
      },
      {
        "type": "note_off",
        "note": 42,
        "time": 129197,
        "channel": 9
      },
      {
        "type": "note_on",
        "note": 40,
        "velocity": 94,
        "time": 129233,
        "channel": 9
      },
      {
        "type": "note_off",
        "note": 40,
        "time": 129310,
        "channel": 9
      },
      {
        "type": "note_on",
        "note": 42,
        "velocity": 31,
        "time": 129354,
        "channel": 9
      },
      {
        "type": "note_off",
        "note": 42,
        "time": 129430,
        "channel": 9
      },
      {
        "type": "note_on",
        "note": 22,
        "velocity": 91,
        "time": 129475,
        "channel": 9
      },
      {
        "type": "note_off",
        "note": 22,
        "time": 129552,
        "channel": 9
      },
      {
        "type": "note_on",
        "note": 44,
        "velocity": 45,
        "time": 129586,
        "channel": 9
      },
      {
        "type": "note_on",
        "note": 38,
        "velocity": 7,
        "time": 129612,
        "channel": 9
      },
      {
        "type": "note_off",
        "note": 44,
        "time": 129663,
        "channel": 9
      },
      {
        "type": "note_off",
        "note": 38,
        "time": 129678,
        "channel": 9
      },
      {
        "type": "note_on",
        "note": 38,
        "velocity": 5,
        "time": 129678,
        "channel": 9
      },
      {
        "type": "note_off",
        "note": 38,
        "time": 129689,
        "channel": 9
      },
      {
        "type": "note_on",
        "note": 42,
        "velocity": 39,
        "time": 129718,
        "channel": 9
      },
      {
        "type": "note_off",
        "note": 42,
        "time": 129795,
        "channel": 9
      },
      {
        "type": "note_on",
        "note": 42,
        "velocity": 65,
        "time": 129841,
        "channel": 9
      },
      {
        "type": "note_off",
        "note": 42,
        "time": 129918,
        "channel": 9
      },
      {
        "type": "note_on",
        "note": 36,
        "velocity": 47,
        "time": 129945,
        "channel": 9
      },
      {
        "type": "note_off",
        "note": 36,
        "time": 130022,
        "channel": 9
      },
      {
        "type": "note_on",
        "note": 40,
        "velocity": 95,
        "time": 130087,
        "channel": 9
      },
      {
        "type": "note_on",
        "note": 26,
        "velocity": 127,
        "time": 130094,
        "channel": 9
      },
      {
        "type": "note_off",
        "note": 40,
        "time": 130163,
        "channel": 9
      },
      {
        "type": "note_off",
        "note": 26,
        "time": 130171,
        "channel": 9
      },
      {
        "type": "note_on",
        "note": 26,
        "velocity": 104,
        "time": 130326,
        "channel": 9
      },
      {
        "type": "note_off",
        "note": 26,
        "time": 130403,
        "channel": 9
      },
      {
        "type": "note_on",
        "note": 38,
        "velocity": 23,
        "time": 130427,
        "channel": 9
      },
      {
        "type": "note_off",
        "note": 38,
        "time": 130465,
        "channel": 9
      },
      {
        "type": "note_on",
        "note": 38,
        "velocity": 23,
        "time": 130465,
        "channel": 9
      },
      {
        "type": "note_off",
        "note": 38,
        "time": 130492,
        "channel": 9
      },
      {
        "type": "note_on",
        "note": 38,
        "velocity": 19,
        "time": 130492,
        "channel": 9
      },
      {
        "type": "note_off",
        "note": 38,
        "time": 130503,
        "channel": 9
      },
      {
        "type": "note_on",
        "note": 44,
        "velocity": 55,
        "time": 130553,
        "channel": 9
      },
      {
        "type": "note_on",
        "note": 38,
        "velocity": 10,
        "time": 130554,
        "channel": 9
      },
      {
        "type": "note_off",
        "note": 38,
        "time": 130569,
        "channel": 9
      },
      {
        "type": "note_on",
        "note": 36,
        "velocity": 57,
        "time": 130572,
        "channel": 9
      },
      {
        "type": "note_off",
        "note": 44,
        "time": 130630,
        "channel": 9
      },
      {
        "type": "note_off",
        "note": 36,
        "time": 130649,
        "channel": 9
      },
      {
        "type": "note_on",
        "note": 42,
        "velocity": 27,
        "time": 130683,
        "channel": 9
      },
      {
        "type": "note_off",
        "note": 42,
        "time": 130760,
        "channel": 9
      },
      {
        "type": "note_on",
        "note": 40,
        "velocity": 96,
        "time": 130803,
        "channel": 9
      },
      {
        "type": "note_off",
        "note": 40,
        "time": 130880,
        "channel": 9
      },
      {
        "type": "note_on",
        "note": 42,
        "velocity": 41,
        "time": 130927,
        "channel": 9
      },
      {
        "type": "note_on",
        "note": 36,
        "velocity": 60,
        "time": 130929,
        "channel": 9
      },
      {
        "type": "note_off",
        "note": 42,
        "time": 131004,
        "channel": 9
      },
      {
        "type": "note_off",
        "note": 36,
        "time": 131006,
        "channel": 9
      },
      {
        "type": "note_on",
        "note": 42,
        "velocity": 24,
        "time": 131040,
        "channel": 9
      },
      {
        "type": "note_off",
        "note": 42,
        "time": 131118,
        "channel": 9
      },
      {
        "type": "note_on",
        "note": 40,
        "velocity": 93,
        "time": 131149,
        "channel": 9
      },
      {
        "type": "note_off",
        "note": 40,
        "time": 131226,
        "channel": 9
      },
      {
        "type": "note_on",
        "note": 42,
        "velocity": 33,
        "time": 131264,
        "channel": 9
      },
      {
        "type": "note_off",
        "note": 42,
        "time": 131341,
        "channel": 9
      },
      {
        "type": "note_on",
        "note": 22,
        "velocity": 111,
        "time": 131392,
        "channel": 9
      },
      {
        "type": "note_off",
        "note": 22,
        "time": 131469,
        "channel": 9
      },
      {
        "type": "note_on",
        "note": 38,
        "velocity": 17,
        "time": 131520,
        "channel": 9
      },
      {
        "type": "note_on",
        "note": 44,
        "velocity": 87,
        "time": 131521,
        "channel": 9
      },
      {
        "type": "note_off",
        "note": 38,
        "time": 131597,
        "channel": 9
      },
      {
        "type": "note_off",
        "note": 44,
        "time": 131597,
        "channel": 9
      },
      {
        "type": "note_on",
        "note": 38,
        "velocity": 6,
        "time": 131626,
        "channel": 9
      },
      {
        "type": "note_on",
        "note": 42,
        "velocity": 41,
        "time": 131627,
        "channel": 9
      },
      {
        "type": "note_off",
        "note": 38,
        "time": 131702,
        "channel": 9
      },
      {
        "type": "note_off",
        "note": 42,
        "time": 131703,
        "channel": 9
      },
      {
        "type": "note_on",
        "note": 42,
        "velocity": 73,
        "time": 131756,
        "channel": 9
      },
      {
        "type": "note_off",
        "note": 42,
        "time": 131833,
        "channel": 9
      },
      {
        "type": "note_on",
        "note": 36,
        "velocity": 51,
        "time": 131863,
        "channel": 9
      },
      {
        "type": "note_off",
        "note": 36,
        "time": 131940,
        "channel": 9
      },
      {
        "type": "note_on",
        "note": 40,
        "velocity": 93,
        "time": 131994,
        "channel": 9
      },
      {
        "type": "note_on",
        "note": 26,
        "velocity": 127,
        "time": 132001,
        "channel": 9
      },
      {
        "type": "note_on",
        "note": 38,
        "velocity": 38,
        "time": 132040,
        "channel": 9
      },
      {
        "type": "note_off",
        "note": 40,
        "time": 132070,
        "channel": 9
      },
      {
        "type": "note_off",
        "note": 26,
        "time": 132078,
        "channel": 9
      },
      {
        "type": "note_off",
        "note": 38,
        "time": 132117,
        "channel": 9
      },
      {
        "type": "note_on",
        "note": 26,
        "velocity": 99,
        "time": 132234,
        "channel": 9
      },
      {
        "type": "note_off",
        "note": 26,
        "time": 132312,
        "channel": 9
      },
      {
        "type": "note_on",
        "note": 38,
        "velocity": 33,
        "time": 132333,
        "channel": 9
      },
      {
        "type": "note_off",
        "note": 38,
        "time": 132393,
        "channel": 9
      },
      {
        "type": "note_on",
        "note": 38,
        "velocity": 37,
        "time": 132393,
        "channel": 9
      },
      {
        "type": "note_off",
        "note": 38,
        "time": 132409,
        "channel": 9
      },
      {
        "type": "note_on",
        "note": 38,
        "velocity": 33,
        "time": 132425,
        "channel": 9
      },
      {
        "type": "note_on",
        "note": 44,
        "velocity": 52,
        "time": 132444,
        "channel": 9
      },
      {
        "type": "note_on",
        "note": 55,
        "velocity": 86,
        "time": 132453,
        "channel": 9
      },
      {
        "type": "note_on",
        "note": 36,
        "velocity": 62,
        "time": 132465,
        "channel": 9
      },
      {
        "type": "note_off",
        "note": 38,
        "time": 132470,
        "channel": 9
      },
      {
        "type": "note_off",
        "note": 44,
        "time": 132520,
        "channel": 9
      },
      {
        "type": "note_off",
        "note": 55,
        "time": 132530,
        "channel": 9
      },
      {
        "type": "note_off",
        "note": 36,
        "time": 132541,
        "channel": 9
      },
      {
        "type": "note_on",
        "note": 22,
        "velocity": 58,
        "time": 132589,
        "channel": 9
      },
      {
        "type": "note_off",
        "note": 22,
        "time": 132666,
        "channel": 9
      },
      {
        "type": "note_on",
        "note": 38,
        "velocity": 87,
        "time": 132712,
        "channel": 9
      },
      {
        "type": "note_off",
        "note": 38,
        "time": 132789,
        "channel": 9
      },
      {
        "type": "note_on",
        "note": 42,
        "velocity": 27,
        "time": 132820,
        "channel": 9
      },
      {
        "type": "note_on",
        "note": 36,
        "velocity": 57,
        "time": 132829,
        "channel": 9
      },
      {
        "type": "note_off",
        "note": 42,
        "time": 132897,
        "channel": 9
      },
      {
        "type": "note_off",
        "note": 36,
        "time": 132906,
        "channel": 9
      },
      {
        "type": "note_on",
        "note": 42,
        "velocity": 34,
        "time": 132942,
        "channel": 9
      },
      {
        "type": "note_off",
        "note": 42,
        "time": 133019,
        "channel": 9
      },
      {
        "type": "note_on",
        "note": 40,
        "velocity": 109,
        "time": 133061,
        "channel": 9
      },
      {
        "type": "note_off",
        "note": 40,
        "time": 133138,
        "channel": 9
      },
      {
        "type": "note_on",
        "note": 42,
        "velocity": 36,
        "time": 133172,
        "channel": 9
      },
      {
        "type": "note_off",
        "note": 42,
        "time": 133249,
        "channel": 9
      },
      {
        "type": "note_on",
        "note": 22,
        "velocity": 106,
        "time": 133302,
        "channel": 9
      },
      {
        "type": "note_off",
        "note": 22,
        "time": 133379,
        "channel": 9
      },
      {
        "type": "note_on",
        "note": 44,
        "velocity": 82,
        "time": 133416,
        "channel": 9
      },
      {
        "type": "note_on",
        "note": 38,
        "velocity": 15,
        "time": 133422,
        "channel": 9
      },
      {
        "type": "note_off",
        "note": 44,
        "time": 133493,
        "channel": 9
      },
      {
        "type": "note_off",
        "note": 38,
        "time": 133495,
        "channel": 9
      },
      {
        "type": "note_on",
        "note": 38,
        "velocity": 9,
        "time": 133495,
        "channel": 9
      },
      {
        "type": "note_off",
        "note": 38,
        "time": 133499,
        "channel": 9
      },
      {
        "type": "note_on",
        "note": 42,
        "velocity": 31,
        "time": 133555,
        "channel": 9
      },
      {
        "type": "note_off",
        "note": 42,
        "time": 133632,
        "channel": 9
      },
      {
        "type": "note_on",
        "note": 42,
        "velocity": 50,
        "time": 133662,
        "channel": 9
      },
      {
        "type": "note_off",
        "note": 42,
        "time": 133739,
        "channel": 9
      },
      {
        "type": "note_on",
        "note": 36,
        "velocity": 48,
        "time": 133768,
        "channel": 9
      },
      {
        "type": "note_off",
        "note": 36,
        "time": 133845,
        "channel": 9
      },
      {
        "type": "note_on",
        "note": 38,
        "velocity": 97,
        "time": 133898,
        "channel": 9
      },
      {
        "type": "note_on",
        "note": 26,
        "velocity": 118,
        "time": 133903,
        "channel": 9
      },
      {
        "type": "note_off",
        "note": 38,
        "time": 133974,
        "channel": 9
      },
      {
        "type": "note_off",
        "note": 26,
        "time": 133980,
        "channel": 9
      },
      {
        "type": "note_on",
        "note": 38,
        "velocity": 21,
        "time": 134034,
        "channel": 9
      },
      {
        "type": "note_off",
        "note": 38,
        "time": 134111,
        "channel": 9
      },
      {
        "type": "note_on",
        "note": 26,
        "velocity": 95,
        "time": 134138,
        "channel": 9
      },
      {
        "type": "note_off",
        "note": 26,
        "time": 134215,
        "channel": 9
      },
      {
        "type": "note_on",
        "note": 38,
        "velocity": 36,
        "time": 134247,
        "channel": 9
      },
      {
        "type": "note_off",
        "note": 38,
        "time": 134290,
        "channel": 9
      },
      {
        "type": "note_on",
        "note": 38,
        "velocity": 34,
        "time": 134290,
        "channel": 9
      },
      {
        "type": "note_off",
        "note": 38,
        "time": 134319,
        "channel": 9
      },
      {
        "type": "note_on",
        "note": 38,
        "velocity": 32,
        "time": 134319,
        "channel": 9
      },
      {
        "type": "note_off",
        "note": 38,
        "time": 134323,
        "channel": 9
      },
      {
        "type": "note_on",
        "note": 38,
        "velocity": 28,
        "time": 134347,
        "channel": 9
      },
      {
        "type": "note_on",
        "note": 44,
        "velocity": 47,
        "time": 134357,
        "channel": 9
      },
      {
        "type": "note_off",
        "note": 38,
        "time": 134367,
        "channel": 9
      },
      {
        "type": "note_on",
        "note": 42,
        "velocity": 45,
        "time": 134375,
        "channel": 9
      },
      {
        "type": "note_on",
        "note": 36,
        "velocity": 59,
        "time": 134381,
        "channel": 9
      },
      {
        "type": "note_on",
        "note": 38,
        "velocity": 18,
        "time": 134389,
        "channel": 9
      },
      {
        "type": "note_off",
        "note": 38,
        "time": 134395,
        "channel": 9
      },
      {
        "type": "note_off",
        "note": 44,
        "time": 134434,
        "channel": 9
      },
      {
        "type": "note_off",
        "note": 42,
        "time": 134452,
        "channel": 9
      },
      {
        "type": "note_off",
        "note": 36,
        "time": 134458,
        "channel": 9
      },
      {
        "type": "note_on",
        "note": 42,
        "velocity": 43,
        "time": 134488,
        "channel": 9
      },
      {
        "type": "note_off",
        "note": 42,
        "time": 134566,
        "channel": 9
      },
      {
        "type": "note_on",
        "note": 38,
        "velocity": 89,
        "time": 134612,
        "channel": 9
      },
      {
        "type": "note_off",
        "note": 38,
        "time": 134688,
        "channel": 9
      },
      {
        "type": "note_on",
        "note": 36,
        "velocity": 62,
        "time": 134749,
        "channel": 9
      },
      {
        "type": "note_on",
        "note": 42,
        "velocity": 25,
        "time": 134749,
        "channel": 9
      },
      {
        "type": "note_off",
        "note": 36,
        "time": 134826,
        "channel": 9
      },
      {
        "type": "note_off",
        "note": 42,
        "time": 134826,
        "channel": 9
      },
      {
        "type": "note_on",
        "note": 42,
        "velocity": 21,
        "time": 134870,
        "channel": 9
      },
      {
        "type": "note_off",
        "note": 42,
        "time": 134947,
        "channel": 9
      },
      {
        "type": "note_on",
        "note": 38,
        "velocity": 106,
        "time": 134991,
        "channel": 9
      },
      {
        "type": "note_off",
        "note": 38,
        "time": 135068,
        "channel": 9
      },
      {
        "type": "note_on",
        "note": 42,
        "velocity": 38,
        "time": 135111,
        "channel": 9
      },
      {
        "type": "note_off",
        "note": 42,
        "time": 135188,
        "channel": 9
      },
      {
        "type": "note_on",
        "note": 26,
        "velocity": 89,
        "time": 135234,
        "channel": 9
      },
      {
        "type": "note_off",
        "note": 26,
        "time": 135310,
        "channel": 9
      },
      {
        "type": "note_on",
        "note": 38,
        "velocity": 21,
        "time": 135343,
        "channel": 9
      },
      {
        "type": "note_on",
        "note": 44,
        "velocity": 67,
        "time": 135357,
        "channel": 9
      },
      {
        "type": "note_off",
        "note": 38,
        "time": 135420,
        "channel": 9
      },
      {
        "type": "note_off",
        "note": 44,
        "time": 135434,
        "channel": 9
      },
      {
        "type": "note_on",
        "note": 42,
        "velocity": 37,
        "time": 135465,
        "channel": 9
      },
      {
        "type": "note_off",
        "note": 42,
        "time": 135542,
        "channel": 9
      },
      {
        "type": "note_on",
        "note": 42,
        "velocity": 50,
        "time": 135590,
        "channel": 9
      },
      {
        "type": "note_off",
        "note": 42,
        "time": 135668,
        "channel": 9
      },
      {
        "type": "note_on",
        "note": 36,
        "velocity": 54,
        "time": 135696,
        "channel": 9
      },
      {
        "type": "note_off",
        "note": 36,
        "time": 135773,
        "channel": 9
      },
      {
        "type": "note_on",
        "note": 40,
        "velocity": 104,
        "time": 135833,
        "channel": 9
      },
      {
        "type": "note_on",
        "note": 26,
        "velocity": 112,
        "time": 135838,
        "channel": 9
      },
      {
        "type": "note_off",
        "note": 40,
        "time": 135910,
        "channel": 9
      },
      {
        "type": "note_off",
        "note": 26,
        "time": 135915,
        "channel": 9
      },
      {
        "type": "note_on",
        "note": 38,
        "velocity": 24,
        "time": 135979,
        "channel": 9
      },
      {
        "type": "note_off",
        "note": 38,
        "time": 136056,
        "channel": 9
      },
      {
        "type": "note_on",
        "note": 26,
        "velocity": 96,
        "time": 136073,
        "channel": 9
      },
      {
        "type": "note_off",
        "note": 26,
        "time": 136150,
        "channel": 9
      },
      {
        "type": "note_on",
        "note": 38,
        "velocity": 25,
        "time": 136186,
        "channel": 9
      },
      {
        "type": "note_off",
        "note": 38,
        "time": 136232,
        "channel": 9
      },
      {
        "type": "note_on",
        "note": 38,
        "velocity": 33,
        "time": 136232,
        "channel": 9
      },
      {
        "type": "note_off",
        "note": 38,
        "time": 136260,
        "channel": 9
      },
      {
        "type": "note_on",
        "note": 38,
        "velocity": 28,
        "time": 136260,
        "channel": 9
      },
      {
        "type": "note_off",
        "note": 38,
        "time": 136263,
        "channel": 9
      },
      {
        "type": "note_on",
        "note": 38,
        "velocity": 19,
        "time": 136285,
        "channel": 9
      },
      {
        "type": "note_on",
        "note": 44,
        "velocity": 67,
        "time": 136302,
        "channel": 9
      },
      {
        "type": "note_off",
        "note": 38,
        "time": 136308,
        "channel": 9
      },
      {
        "type": "note_on",
        "note": 38,
        "velocity": 12,
        "time": 136317,
        "channel": 9
      },
      {
        "type": "note_on",
        "note": 42,
        "velocity": 28,
        "time": 136323,
        "channel": 9
      },
      {
        "type": "note_on",
        "note": 36,
        "velocity": 59,
        "time": 136327,
        "channel": 9
      },
      {
        "type": "note_off",
        "note": 38,
        "time": 136337,
        "channel": 9
      },
      {
        "type": "note_off",
        "note": 44,
        "time": 136379,
        "channel": 9
      },
      {
        "type": "note_off",
        "note": 42,
        "time": 136400,
        "channel": 9
      },
      {
        "type": "note_off",
        "note": 36,
        "time": 136404,
        "channel": 9
      },
      {
        "type": "note_on",
        "note": 42,
        "velocity": 29,
        "time": 136441,
        "channel": 9
      },
      {
        "type": "note_off",
        "note": 42,
        "time": 136519,
        "channel": 9
      },
      {
        "type": "note_on",
        "note": 38,
        "velocity": 85,
        "time": 136553,
        "channel": 9
      },
      {
        "type": "note_off",
        "note": 38,
        "time": 136630,
        "channel": 9
      },
      {
        "type": "note_on",
        "note": 36,
        "velocity": 63,
        "time": 136688,
        "channel": 9
      },
      {
        "type": "note_on",
        "note": 42,
        "velocity": 27,
        "time": 136692,
        "channel": 9
      },
      {
        "type": "note_off",
        "note": 36,
        "time": 136765,
        "channel": 9
      },
      {
        "type": "note_off",
        "note": 42,
        "time": 136769,
        "channel": 9
      },
      {
        "type": "note_on",
        "note": 42,
        "velocity": 18,
        "time": 136810,
        "channel": 9
      },
      {
        "type": "note_off",
        "note": 42,
        "time": 136887,
        "channel": 9
      },
      {
        "type": "note_on",
        "note": 38,
        "velocity": 97,
        "time": 136931,
        "channel": 9
      },
      {
        "type": "note_off",
        "note": 38,
        "time": 137008,
        "channel": 9
      },
      {
        "type": "note_on",
        "note": 22,
        "velocity": 43,
        "time": 137034,
        "channel": 9
      },
      {
        "type": "note_off",
        "note": 22,
        "time": 137112,
        "channel": 9
      },
      {
        "type": "note_on",
        "note": 22,
        "velocity": 120,
        "time": 137158,
        "channel": 9
      },
      {
        "type": "note_off",
        "note": 22,
        "time": 137235,
        "channel": 9
      },
      {
        "type": "note_on",
        "note": 38,
        "velocity": 19,
        "time": 137267,
        "channel": 9
      },
      {
        "type": "note_on",
        "note": 44,
        "velocity": 65,
        "time": 137291,
        "channel": 9
      },
      {
        "type": "note_off",
        "note": 38,
        "time": 137343,
        "channel": 9
      },
      {
        "type": "note_off",
        "note": 44,
        "time": 137368,
        "channel": 9
      },
      {
        "type": "note_on",
        "note": 42,
        "velocity": 25,
        "time": 137382,
        "channel": 9
      },
      {
        "type": "note_off",
        "note": 42,
        "time": 137459,
        "channel": 9
      },
      {
        "type": "note_on",
        "note": 42,
        "velocity": 54,
        "time": 137504,
        "channel": 9
      },
      {
        "type": "note_off",
        "note": 42,
        "time": 137581,
        "channel": 9
      },
      {
        "type": "note_on",
        "note": 36,
        "velocity": 52,
        "time": 137620,
        "channel": 9
      },
      {
        "type": "note_off",
        "note": 36,
        "time": 137697,
        "channel": 9
      },
      {
        "type": "note_on",
        "note": 40,
        "velocity": 101,
        "time": 137749,
        "channel": 9
      },
      {
        "type": "note_on",
        "note": 26,
        "velocity": 118,
        "time": 137755,
        "channel": 9
      },
      {
        "type": "note_off",
        "note": 40,
        "time": 137826,
        "channel": 9
      },
      {
        "type": "note_off",
        "note": 26,
        "time": 137832,
        "channel": 9
      },
      {
        "type": "note_on",
        "note": 38,
        "velocity": 19,
        "time": 137890,
        "channel": 9
      },
      {
        "type": "note_off",
        "note": 38,
        "time": 137967,
        "channel": 9
      },
      {
        "type": "note_on",
        "note": 26,
        "velocity": 100,
        "time": 137987,
        "channel": 9
      },
      {
        "type": "note_off",
        "note": 26,
        "time": 138064,
        "channel": 9
      },
      {
        "type": "note_on",
        "note": 38,
        "velocity": 26,
        "time": 138083,
        "channel": 9
      },
      {
        "type": "note_off",
        "note": 38,
        "time": 138136,
        "channel": 9
      },
      {
        "type": "note_on",
        "note": 38,
        "velocity": 30,
        "time": 138136,
        "channel": 9
      },
      {
        "type": "note_off",
        "note": 38,
        "time": 138160,
        "channel": 9
      },
      {
        "type": "note_on",
        "note": 38,
        "velocity": 25,
        "time": 138173,
        "channel": 9
      },
      {
        "type": "note_off",
        "note": 38,
        "time": 138214,
        "channel": 9
      },
      {
        "type": "note_on",
        "note": 44,
        "velocity": 80,
        "time": 138233,
        "channel": 9
      },
      {
        "type": "note_off",
        "note": 44,
        "time": 138309,
        "channel": 9
      },
      {
        "type": "note_on",
        "note": 48,
        "velocity": 101,
        "time": 138339,
        "channel": 9
      },
      {
        "type": "note_on",
        "note": 42,
        "velocity": 13,
        "time": 138349,
        "channel": 9
      },
      {
        "type": "note_off",
        "note": 48,
        "time": 138415,
        "channel": 9
      },
      {
        "type": "note_off",
        "note": 42,
        "time": 138426,
        "channel": 9
      },
      {
        "type": "note_on",
        "note": 48,
        "velocity": 109,
        "time": 138443,
        "channel": 9
      },
      {
        "type": "note_off",
        "note": 48,
        "time": 138520,
        "channel": 9
      },
      {
        "type": "note_on",
        "note": 48,
        "velocity": 115,
        "time": 138566,
        "channel": 9
      },
      {
        "type": "note_off",
        "note": 48,
        "time": 138643,
        "channel": 9
      },
      {
        "type": "note_on",
        "note": 38,
        "velocity": 33,
        "time": 138666,
        "channel": 9
      },
      {
        "type": "note_off",
        "note": 38,
        "time": 138742,
        "channel": 9
      },
      {
        "type": "note_on",
        "note": 38,
        "velocity": 117,
        "time": 138801,
        "channel": 9
      },
      {
        "type": "note_off",
        "note": 38,
        "time": 138877,
        "channel": 9
      },
      {
        "type": "note_on",
        "note": 38,
        "velocity": 26,
        "time": 138913,
        "channel": 9
      },
      {
        "type": "note_off",
        "note": 38,
        "time": 138990,
        "channel": 9
      },
      {
        "type": "note_on",
        "note": 36,
        "velocity": 59,
        "time": 139027,
        "channel": 9
      },
      {
        "type": "note_on",
        "note": 26,
        "velocity": 94,
        "time": 139043,
        "channel": 9
      },
      {
        "type": "note_off",
        "note": 36,
        "time": 139104,
        "channel": 9
      },
      {
        "type": "note_off",
        "note": 26,
        "time": 139119,
        "channel": 9
      },
      {
        "type": "note_on",
        "note": 44,
        "velocity": 72,
        "time": 139132,
        "channel": 9
      },
      {
        "type": "note_on",
        "note": 38,
        "velocity": 17,
        "time": 139160,
        "channel": 9
      },
      {
        "type": "note_off",
        "note": 44,
        "time": 139208,
        "channel": 9
      },
      {
        "type": "note_off",
        "note": 38,
        "time": 139237,
        "channel": 9
      },
      {
        "type": "note_on",
        "note": 36,
        "velocity": 32,
        "time": 139279,
        "channel": 9
      },
      {
        "type": "note_off",
        "note": 36,
        "time": 139355,
        "channel": 9
      },
      {
        "type": "note_on",
        "note": 36,
        "velocity": 63,
        "time": 139396,
        "channel": 9
      },
      {
        "type": "note_on",
        "note": 26,
        "velocity": 127,
        "time": 139410,
        "channel": 9
      },
      {
        "type": "note_off",
        "note": 36,
        "time": 139472,
        "channel": 9
      },
      {
        "type": "note_off",
        "note": 26,
        "time": 139487,
        "channel": 9
      },
      {
        "type": "note_on",
        "note": 38,
        "velocity": 13,
        "time": 139532,
        "channel": 9
      },
      {
        "type": "note_off",
        "note": 38,
        "time": 139581,
        "channel": 9
      },
      {
        "type": "note_on",
        "note": 38,
        "velocity": 11,
        "time": 139581,
        "channel": 9
      },
      {
        "type": "note_off",
        "note": 38,
        "time": 139609,
        "channel": 9
      },
      {
        "type": "note_on",
        "note": 43,
        "velocity": 127,
        "time": 139665,
        "channel": 9
      },
      {
        "type": "note_off",
        "note": 43,
        "time": 139741,
        "channel": 9
      },
      {
        "type": "note_on",
        "note": 38,
        "velocity": 27,
        "time": 139764,
        "channel": 9
      },
      {
        "type": "note_off",
        "note": 38,
        "time": 139832,
        "channel": 9
      },
      {
        "type": "note_on",
        "note": 38,
        "velocity": 28,
        "time": 139832,
        "channel": 9
      },
      {
        "type": "note_off",
        "note": 38,
        "time": 139841,
        "channel": 9
      },
      {
        "type": "note_on",
        "note": 38,
        "velocity": 19,
        "time": 139866,
        "channel": 9
      },
      {
        "type": "note_on",
        "note": 44,
        "velocity": 52,
        "time": 139889,
        "channel": 9
      },
      {
        "type": "note_off",
        "note": 38,
        "time": 139904,
        "channel": 9
      },
      {
        "type": "note_on",
        "note": 38,
        "velocity": 42,
        "time": 139904,
        "channel": 9
      },
      {
        "type": "note_off",
        "note": 38,
        "time": 139909,
        "channel": 9
      },
      {
        "type": "note_on",
        "note": 38,
        "velocity": 48,
        "time": 139961,
        "channel": 9
      },
      {
        "type": "note_off",
        "note": 44,
        "time": 139965,
        "channel": 9
      },
      {
        "type": "note_off",
        "note": 38,
        "time": 139981,
        "channel": 9
      },
      {
        "type": "note_on",
        "note": 38,
        "velocity": 47,
        "time": 140015,
        "channel": 9
      },
      {
        "type": "note_off",
        "note": 38,
        "time": 140038,
        "channel": 9
      },
      {
        "type": "note_on",
        "note": 38,
        "velocity": 50,
        "time": 140067,
        "channel": 9
      },
      {
        "type": "note_off",
        "note": 38,
        "time": 140092,
        "channel": 9
      },
      {
        "type": "note_on",
        "note": 36,
        "velocity": 127,
        "time": 140125,
        "channel": 9
      },
      {
        "type": "note_on",
        "note": 59,
        "velocity": 127,
        "time": 140126,
        "channel": 9
      },
      {
        "type": "note_off",
        "note": 36,
        "time": 140202,
        "channel": 9
      },
      {
        "type": "note_off",
        "note": 59,
        "time": 140202,
        "channel": 9
      },
      {
        "type": "note_on",
        "note": 36,
        "velocity": 53,
        "time": 140514,
        "channel": 9
      },
      {
        "type": "note_off",
        "note": 36,
        "time": 140591,
        "channel": 9
      },
      {
        "type": "note_on",
        "note": 55,
        "velocity": 101,
        "time": 140657,
        "channel": 9
      },
      {
        "type": "note_off",
        "note": 55,
        "time": 140733,
        "channel": 9
      },
      {
        "type": "note_on",
        "note": 40,
        "velocity": 125,
        "time": 140762,
        "channel": 9
      },
      {
        "type": "note_off",
        "note": 40,
        "time": 140839,
        "channel": 9
      },
      {
        "type": "note_on",
        "note": 38,
        "velocity": 21,
        "time": 140992,
        "channel": 9
      },
      {
        "type": "note_off",
        "note": 38,
        "time": 141068,
        "channel": 9
      },
      {
        "type": "note_on",
        "note": 44,
        "velocity": 57,
        "time": 141142,
        "channel": 9
      },
      {
        "type": "note_on",
        "note": 51,
        "velocity": 101,
        "time": 141144,
        "channel": 9
      },
      {
        "type": "note_off",
        "note": 44,
        "time": 141219,
        "channel": 9
      },
      {
        "type": "note_off",
        "note": 51,
        "time": 141219,
        "channel": 9
      },
      {
        "type": "note_on",
        "note": 38,
        "velocity": 16,
        "time": 141233,
        "channel": 9
      },
      {
        "type": "note_off",
        "note": 38,
        "time": 141309,
        "channel": 9
      },
      {
        "type": "note_on",
        "note": 44,
        "velocity": 90,
        "time": 141331,
        "channel": 9
      },
      {
        "type": "note_on",
        "note": 38,
        "velocity": 23,
        "time": 141344,
        "channel": 9
      },
      {
        "type": "note_on",
        "note": 51,
        "velocity": 54,
        "time": 141357,
        "channel": 9
      },
      {
        "type": "note_off",
        "note": 44,
        "time": 141408,
        "channel": 9
      },
      {
        "type": "note_off",
        "note": 38,
        "time": 141421,
        "channel": 9
      },
      {
        "type": "note_off",
        "note": 51,
        "time": 141434,
        "channel": 9
      },
      {
        "type": "note_on",
        "note": 51,
        "velocity": 32,
        "time": 141464,
        "channel": 9
      },
      {
        "type": "note_off",
        "note": 51,
        "time": 141540,
        "channel": 9
      },
      {
        "type": "note_on",
        "note": 40,
        "velocity": 97,
        "time": 141570,
        "channel": 9
      },
      {
        "type": "note_on",
        "note": 59,
        "velocity": 111,
        "time": 141577,
        "channel": 9
      },
      {
        "type": "note_off",
        "note": 40,
        "time": 141646,
        "channel": 9
      },
      {
        "type": "note_off",
        "note": 59,
        "time": 141653,
        "channel": 9
      },
      {
        "type": "note_on",
        "note": 38,
        "velocity": 30,
        "time": 141707,
        "channel": 9
      },
      {
        "type": "note_off",
        "note": 38,
        "time": 141783,
        "channel": 9
      },
      {
        "type": "note_on",
        "note": 44,
        "velocity": 42,
        "time": 141801,
        "channel": 9
      },
      {
        "type": "note_on",
        "note": 51,
        "velocity": 46,
        "time": 141811,
        "channel": 9
      },
      {
        "type": "note_off",
        "note": 44,
        "time": 141878,
        "channel": 9
      },
      {
        "type": "note_off",
        "note": 51,
        "time": 141887,
        "channel": 9
      },
      {
        "type": "note_on",
        "note": 38,
        "velocity": 55,
        "time": 141923,
        "channel": 9
      },
      {
        "type": "note_off",
        "note": 38,
        "time": 141999,
        "channel": 9
      },
      {
        "type": "note_on",
        "note": 44,
        "velocity": 82,
        "time": 142038,
        "channel": 9
      },
      {
        "type": "note_on",
        "note": 36,
        "velocity": 50,
        "time": 142047,
        "channel": 9
      },
      {
        "type": "note_on",
        "note": 51,
        "velocity": 103,
        "time": 142047,
        "channel": 9
      },
      {
        "type": "note_off",
        "note": 44,
        "time": 142115,
        "channel": 9
      },
      {
        "type": "note_off",
        "note": 36,
        "time": 142122,
        "channel": 9
      },
      {
        "type": "note_off",
        "note": 51,
        "time": 142124,
        "channel": 9
      },
      {
        "type": "note_on",
        "note": 38,
        "velocity": 20,
        "time": 142165,
        "channel": 9
      },
      {
        "type": "note_off",
        "note": 38,
        "time": 142242,
        "channel": 9
      },
      {
        "type": "note_on",
        "note": 44,
        "velocity": 80,
        "time": 142278,
        "channel": 9
      },
      {
        "type": "note_on",
        "note": 38,
        "velocity": 29,
        "time": 142281,
        "channel": 9
      },
      {
        "type": "note_on",
        "note": 51,
        "velocity": 51,
        "time": 142293,
        "channel": 9
      },
      {
        "type": "note_off",
        "note": 44,
        "time": 142354,
        "channel": 9
      },
      {
        "type": "note_off",
        "note": 38,
        "time": 142358,
        "channel": 9
      },
      {
        "type": "note_off",
        "note": 51,
        "time": 142369,
        "channel": 9
      },
      {
        "type": "note_on",
        "note": 51,
        "velocity": 40,
        "time": 142412,
        "channel": 9
      },
      {
        "type": "note_on",
        "note": 36,
        "velocity": 49,
        "time": 142415,
        "channel": 9
      },
      {
        "type": "note_off",
        "note": 51,
        "time": 142489,
        "channel": 9
      },
      {
        "type": "note_off",
        "note": 36,
        "time": 142492,
        "channel": 9
      },
      {
        "type": "note_on",
        "note": 44,
        "velocity": 60,
        "time": 142517,
        "channel": 9
      },
      {
        "type": "note_on",
        "note": 51,
        "velocity": 127,
        "time": 142538,
        "channel": 9
      },
      {
        "type": "note_off",
        "note": 44,
        "time": 142594,
        "channel": 9
      },
      {
        "type": "note_off",
        "note": 51,
        "time": 142615,
        "channel": 9
      },
      {
        "type": "note_on",
        "note": 40,
        "velocity": 96,
        "time": 142660,
        "channel": 9
      },
      {
        "type": "note_off",
        "note": 40,
        "time": 142736,
        "channel": 9
      },
      {
        "type": "note_on",
        "note": 44,
        "velocity": 67,
        "time": 142784,
        "channel": 9
      },
      {
        "type": "note_on",
        "note": 51,
        "velocity": 42,
        "time": 142789,
        "channel": 9
      },
      {
        "type": "note_off",
        "note": 44,
        "time": 142861,
        "channel": 9
      },
      {
        "type": "note_off",
        "note": 51,
        "time": 142865,
        "channel": 9
      },
      {
        "type": "note_on",
        "note": 51,
        "velocity": 27,
        "time": 142922,
        "channel": 9
      },
      {
        "type": "note_off",
        "note": 51,
        "time": 142999,
        "channel": 9
      },
      {
        "type": "note_on",
        "note": 44,
        "velocity": 82,
        "time": 143036,
        "channel": 9
      },
      {
        "type": "note_on",
        "note": 51,
        "velocity": 103,
        "time": 143039,
        "channel": 9
      },
      {
        "type": "note_off",
        "note": 44,
        "time": 143112,
        "channel": 9
      },
      {
        "type": "note_off",
        "note": 51,
        "time": 143115,
        "channel": 9
      },
      {
        "type": "note_on",
        "note": 38,
        "velocity": 20,
        "time": 143157,
        "channel": 9
      },
      {
        "type": "note_off",
        "note": 38,
        "time": 143234,
        "channel": 9
      },
      {
        "type": "note_on",
        "note": 38,
        "velocity": 23,
        "time": 143264,
        "channel": 9
      },
      {
        "type": "note_on",
        "note": 44,
        "velocity": 95,
        "time": 143274,
        "channel": 9
      },
      {
        "type": "note_on",
        "note": 51,
        "velocity": 52,
        "time": 143283,
        "channel": 9
      },
      {
        "type": "note_off",
        "note": 38,
        "time": 143341,
        "channel": 9
      },
      {
        "type": "note_off",
        "note": 44,
        "time": 143351,
        "channel": 9
      },
      {
        "type": "note_off",
        "note": 51,
        "time": 143360,
        "channel": 9
      },
      {
        "type": "note_on",
        "note": 36,
        "velocity": 50,
        "time": 143388,
        "channel": 9
      },
      {
        "type": "note_on",
        "note": 51,
        "velocity": 32,
        "time": 143406,
        "channel": 9
      },
      {
        "type": "note_off",
        "note": 36,
        "time": 143464,
        "channel": 9
      },
      {
        "type": "note_off",
        "note": 51,
        "time": 143483,
        "channel": 9
      },
      {
        "type": "note_on",
        "note": 44,
        "velocity": 30,
        "time": 143517,
        "channel": 9
      },
      {
        "type": "note_on",
        "note": 40,
        "velocity": 125,
        "time": 143525,
        "channel": 9
      },
      {
        "type": "note_on",
        "note": 59,
        "velocity": 127,
        "time": 143528,
        "channel": 9
      },
      {
        "type": "note_off",
        "note": 44,
        "time": 143594,
        "channel": 9
      },
      {
        "type": "note_off",
        "note": 40,
        "time": 143601,
        "channel": 9
      },
      {
        "type": "note_off",
        "note": 59,
        "time": 143605,
        "channel": 9
      },
      {
        "type": "note_on",
        "note": 51,
        "velocity": 52,
        "time": 143763,
        "channel": 9
      },
      {
        "type": "note_on",
        "note": 44,
        "velocity": 85,
        "time": 143770,
        "channel": 9
      },
      {
        "type": "note_off",
        "note": 51,
        "time": 143839,
        "channel": 9
      },
      {
        "type": "note_off",
        "note": 44,
        "time": 143847,
        "channel": 9
      },
      {
        "type": "note_on",
        "note": 38,
        "velocity": 28,
        "time": 143869,
        "channel": 9
      },
      {
        "type": "note_off",
        "note": 38,
        "time": 143928,
        "channel": 9
      },
      {
        "type": "note_on",
        "note": 38,
        "velocity": 29,
        "time": 143928,
        "channel": 9
      },
      {
        "type": "note_off",
        "note": 38,
        "time": 143946,
        "channel": 9
      },
      {
        "type": "note_on",
        "note": 36,
        "velocity": 57,
        "time": 144000,
        "channel": 9
      },
      {
        "type": "note_on",
        "note": 51,
        "velocity": 92,
        "time": 144004,
        "channel": 9
      },
      {
        "type": "note_on",
        "note": 44,
        "velocity": 67,
        "time": 144007,
        "channel": 9
      },
      {
        "type": "note_off",
        "note": 36,
        "time": 144076,
        "channel": 9
      },
      {
        "type": "note_off",
        "note": 51,
        "time": 144081,
        "channel": 9
      },
      {
        "type": "note_off",
        "note": 44,
        "time": 144083,
        "channel": 9
      },
      {
        "type": "note_on",
        "note": 51,
        "velocity": 43,
        "time": 144123,
        "channel": 9
      },
      {
        "type": "note_off",
        "note": 51,
        "time": 144199,
        "channel": 9
      },
      {
        "type": "note_on",
        "note": 37,
        "velocity": 84,
        "time": 144225,
        "channel": 9
      },
      {
        "type": "note_on",
        "note": 44,
        "velocity": 92,
        "time": 144233,
        "channel": 9
      },
      {
        "type": "note_off",
        "note": 37,
        "time": 144301,
        "channel": 9
      },
      {
        "type": "note_off",
        "note": 44,
        "time": 144310,
        "channel": 9
      },
      {
        "type": "note_on",
        "note": 51,
        "velocity": 41,
        "time": 144356,
        "channel": 9
      },
      {
        "type": "note_on",
        "note": 36,
        "velocity": 58,
        "time": 144359,
        "channel": 9
      },
      {
        "type": "note_off",
        "note": 51,
        "time": 144433,
        "channel": 9
      },
      {
        "type": "note_off",
        "note": 36,
        "time": 144436,
        "channel": 9
      },
      {
        "type": "note_on",
        "note": 51,
        "velocity": 59,
        "time": 144473,
        "channel": 9
      },
      {
        "type": "note_on",
        "note": 44,
        "velocity": 67,
        "time": 144476,
        "channel": 9
      },
      {
        "type": "note_off",
        "note": 51,
        "time": 144550,
        "channel": 9
      },
      {
        "type": "note_off",
        "note": 44,
        "time": 144553,
        "channel": 9
      },
      {
        "type": "note_on",
        "note": 40,
        "velocity": 97,
        "time": 144588,
        "channel": 9
      },
      {
        "type": "note_off",
        "note": 40,
        "time": 144665,
        "channel": 9
      },
      {
        "type": "note_on",
        "note": 44,
        "velocity": 82,
        "time": 144716,
        "channel": 9
      },
      {
        "type": "note_on",
        "note": 51,
        "velocity": 45,
        "time": 144729,
        "channel": 9
      },
      {
        "type": "note_off",
        "note": 44,
        "time": 144793,
        "channel": 9
      },
      {
        "type": "note_off",
        "note": 51,
        "time": 144806,
        "channel": 9
      },
      {
        "type": "note_on",
        "note": 51,
        "velocity": 51,
        "time": 144848,
        "channel": 9
      },
      {
        "type": "note_off",
        "note": 51,
        "time": 144924,
        "channel": 9
      },
      {
        "type": "note_on",
        "note": 44,
        "velocity": 72,
        "time": 144952,
        "channel": 9
      },
      {
        "type": "note_on",
        "note": 51,
        "velocity": 115,
        "time": 144963,
        "channel": 9
      },
      {
        "type": "note_off",
        "note": 44,
        "time": 145029,
        "channel": 9
      },
      {
        "type": "note_off",
        "note": 51,
        "time": 145040,
        "channel": 9
      },
      {
        "type": "note_on",
        "note": 38,
        "velocity": 26,
        "time": 145062,
        "channel": 9
      },
      {
        "type": "note_off",
        "note": 38,
        "time": 145139,
        "channel": 9
      },
      {
        "type": "note_on",
        "note": 44,
        "velocity": 85,
        "time": 145167,
        "channel": 9
      },
      {
        "type": "note_on",
        "note": 38,
        "velocity": 26,
        "time": 145184,
        "channel": 9
      },
      {
        "type": "note_on",
        "note": 51,
        "velocity": 40,
        "time": 145195,
        "channel": 9
      },
      {
        "type": "note_off",
        "note": 44,
        "time": 145243,
        "channel": 9
      },
      {
        "type": "note_off",
        "note": 38,
        "time": 145260,
        "channel": 9
      },
      {
        "type": "note_off",
        "note": 51,
        "time": 145272,
        "channel": 9
      },
      {
        "type": "note_on",
        "note": 36,
        "velocity": 50,
        "time": 145289,
        "channel": 9
      },
      {
        "type": "note_on",
        "note": 51,
        "velocity": 39,
        "time": 145310,
        "channel": 9
      },
      {
        "type": "note_off",
        "note": 36,
        "time": 145366,
        "channel": 9
      },
      {
        "type": "note_off",
        "note": 51,
        "time": 145386,
        "channel": 9
      },
      {
        "type": "note_on",
        "note": 44,
        "velocity": 42,
        "time": 145418,
        "channel": 9
      },
      {
        "type": "note_on",
        "note": 40,
        "velocity": 95,
        "time": 145432,
        "channel": 9
      },
      {
        "type": "note_on",
        "note": 51,
        "velocity": 127,
        "time": 145432,
        "channel": 9
      },
      {
        "type": "note_off",
        "note": 44,
        "time": 145494,
        "channel": 9
      },
      {
        "type": "note_off",
        "note": 40,
        "time": 145508,
        "channel": 9
      },
      {
        "type": "note_off",
        "note": 51,
        "time": 145508,
        "channel": 9
      },
      {
        "type": "note_on",
        "note": 38,
        "velocity": 40,
        "time": 145552,
        "channel": 9
      },
      {
        "type": "note_off",
        "note": 38,
        "time": 145628,
        "channel": 9
      },
      {
        "type": "note_on",
        "note": 44,
        "velocity": 75,
        "time": 145671,
        "channel": 9
      },
      {
        "type": "note_on",
        "note": 51,
        "velocity": 54,
        "time": 145677,
        "channel": 9
      },
      {
        "type": "note_off",
        "note": 44,
        "time": 145748,
        "channel": 9
      },
      {
        "type": "note_off",
        "note": 51,
        "time": 145753,
        "channel": 9
      },
      {
        "type": "note_on",
        "note": 26,
        "velocity": 110,
        "time": 145784,
        "channel": 9
      },
      {
        "type": "note_off",
        "note": 26,
        "time": 145861,
        "channel": 9
      },
      {
        "type": "note_on",
        "note": 44,
        "velocity": 57,
        "time": 145908,
        "channel": 9
      },
      {
        "type": "note_on",
        "note": 51,
        "velocity": 93,
        "time": 145913,
        "channel": 9
      },
      {
        "type": "note_on",
        "note": 36,
        "velocity": 57,
        "time": 145920,
        "channel": 9
      },
      {
        "type": "note_off",
        "note": 44,
        "time": 145984,
        "channel": 9
      },
      {
        "type": "note_off",
        "note": 51,
        "time": 145989,
        "channel": 9
      },
      {
        "type": "note_off",
        "note": 36,
        "time": 145997,
        "channel": 9
      },
      {
        "type": "note_on",
        "note": 38,
        "velocity": 38,
        "time": 146030,
        "channel": 9
      },
      {
        "type": "note_off",
        "note": 38,
        "time": 146107,
        "channel": 9
      },
      {
        "type": "note_on",
        "note": 44,
        "velocity": 85,
        "time": 146136,
        "channel": 9
      },
      {
        "type": "note_on",
        "note": 51,
        "velocity": 45,
        "time": 146153,
        "channel": 9
      },
      {
        "type": "note_on",
        "note": 38,
        "velocity": 32,
        "time": 146160,
        "channel": 9
      },
      {
        "type": "note_off",
        "note": 44,
        "time": 146212,
        "channel": 9
      },
      {
        "type": "note_off",
        "note": 51,
        "time": 146229,
        "channel": 9
      },
      {
        "type": "note_off",
        "note": 38,
        "time": 146237,
        "channel": 9
      },
      {
        "type": "note_on",
        "note": 36,
        "velocity": 57,
        "time": 146269,
        "channel": 9
      },
      {
        "type": "note_on",
        "note": 51,
        "velocity": 45,
        "time": 146275,
        "channel": 9
      },
      {
        "type": "note_off",
        "note": 36,
        "time": 146346,
        "channel": 9
      },
      {
        "type": "note_off",
        "note": 51,
        "time": 146352,
        "channel": 9
      },
      {
        "type": "note_on",
        "note": 44,
        "velocity": 42,
        "time": 146382,
        "channel": 9
      },
      {
        "type": "note_on",
        "note": 51,
        "velocity": 72,
        "time": 146386,
        "channel": 9
      },
      {
        "type": "note_off",
        "note": 44,
        "time": 146459,
        "channel": 9
      },
      {
        "type": "note_off",
        "note": 51,
        "time": 146462,
        "channel": 9
      },
      {
        "type": "note_on",
        "note": 40,
        "velocity": 127,
        "time": 146495,
        "channel": 9
      },
      {
        "type": "note_off",
        "note": 40,
        "time": 146572,
        "channel": 9
      },
      {
        "type": "note_on",
        "note": 51,
        "velocity": 64,
        "time": 146618,
        "channel": 9
      },
      {
        "type": "note_on",
        "note": 44,
        "velocity": 82,
        "time": 146629,
        "channel": 9
      },
      {
        "type": "note_off",
        "note": 51,
        "time": 146694,
        "channel": 9
      },
      {
        "type": "note_off",
        "note": 44,
        "time": 146706,
        "channel": 9
      },
      {
        "type": "note_on",
        "note": 51,
        "velocity": 51,
        "time": 146738,
        "channel": 9
      },
      {
        "type": "note_on",
        "note": 36,
        "velocity": 46,
        "time": 146742,
        "channel": 9
      },
      {
        "type": "note_off",
        "note": 51,
        "time": 146814,
        "channel": 9
      },
      {
        "type": "note_off",
        "note": 36,
        "time": 146819,
        "channel": 9
      },
      {
        "type": "note_on",
        "note": 44,
        "velocity": 67,
        "time": 146863,
        "channel": 9
      },
      {
        "type": "note_on",
        "note": 51,
        "velocity": 90,
        "time": 146865,
        "channel": 9
      },
      {
        "type": "note_off",
        "note": 44,
        "time": 146940,
        "channel": 9
      },
      {
        "type": "note_off",
        "note": 51,
        "time": 146942,
        "channel": 9
      },
      {
        "type": "note_on",
        "note": 26,
        "velocity": 84,
        "time": 146981,
        "channel": 9
      },
      {
        "type": "note_off",
        "note": 26,
        "time": 147058,
        "channel": 9
      },
      {
        "type": "note_on",
        "note": 51,
        "velocity": 86,
        "time": 147096,
        "channel": 9
      },
      {
        "type": "note_on",
        "note": 44,
        "velocity": 95,
        "time": 147099,
        "channel": 9
      },
      {
        "type": "note_off",
        "note": 51,
        "time": 147173,
        "channel": 9
      },
      {
        "type": "note_off",
        "note": 44,
        "time": 147175,
        "channel": 9
      },
      {
        "type": "note_on",
        "note": 36,
        "velocity": 54,
        "time": 147216,
        "channel": 9
      },
      {
        "type": "note_on",
        "note": 38,
        "velocity": 32,
        "time": 147220,
        "channel": 9
      },
      {
        "type": "note_off",
        "note": 36,
        "time": 147293,
        "channel": 9
      },
      {
        "type": "note_off",
        "note": 38,
        "time": 147296,
        "channel": 9
      },
      {
        "type": "note_on",
        "note": 44,
        "velocity": 42,
        "time": 147341,
        "channel": 9
      },
      {
        "type": "note_on",
        "note": 43,
        "velocity": 127,
        "time": 147359,
        "channel": 9
      },
      {
        "type": "note_off",
        "note": 44,
        "time": 147418,
        "channel": 9
      },
      {
        "type": "note_off",
        "note": 43,
        "time": 147435,
        "channel": 9
      },
      {
        "type": "note_on",
        "note": 38,
        "velocity": 32,
        "time": 147443,
        "channel": 9
      },
      {
        "type": "note_off",
        "note": 38,
        "time": 147501,
        "channel": 9
      },
      {
        "type": "note_on",
        "note": 38,
        "velocity": 30,
        "time": 147501,
        "channel": 9
      },
      {
        "type": "note_off",
        "note": 38,
        "time": 147519,
        "channel": 9
      },
      {
        "type": "note_on",
        "note": 38,
        "velocity": 16,
        "time": 147534,
        "channel": 9
      },
      {
        "type": "note_off",
        "note": 38,
        "time": 147577,
        "channel": 9
      },
      {
        "type": "note_on",
        "note": 36,
        "velocity": 6,
        "time": 147578,
        "channel": 9
      },
      {
        "type": "note_on",
        "note": 38,
        "velocity": 34,
        "time": 147582,
        "channel": 9
      },
      {
        "type": "note_on",
        "note": 44,
        "velocity": 100,
        "time": 147595,
        "channel": 9
      },
      {
        "type": "note_off",
        "note": 38,
        "time": 147611,
        "channel": 9
      },
      {
        "type": "note_on",
        "note": 38,
        "velocity": 32,
        "time": 147626,
        "channel": 9
      },
      {
        "type": "note_off",
        "note": 36,
        "time": 147655,
        "channel": 9
      },
      {
        "type": "note_off",
        "note": 38,
        "time": 147658,
        "channel": 9
      },
      {
        "type": "note_off",
        "note": 44,
        "time": 147672,
        "channel": 9
      },
      {
        "type": "note_on",
        "note": 38,
        "velocity": 57,
        "time": 147698,
        "channel": 9
      },
      {
        "type": "note_off",
        "note": 38,
        "time": 147703,
        "channel": 9
      },
      {
        "type": "note_on",
        "note": 38,
        "velocity": 60,
        "time": 147751,
        "channel": 9
      },
      {
        "type": "note_off",
        "note": 38,
        "time": 147775,
        "channel": 9
      },
      {
        "type": "note_on",
        "note": 44,
        "velocity": 65,
        "time": 147819,
        "channel": 9
      },
      {
        "type": "note_on",
        "note": 36,
        "velocity": 86,
        "time": 147821,
        "channel": 9
      },
      {
        "type": "note_on",
        "note": 59,
        "velocity": 124,
        "time": 147827,
        "channel": 9
      },
      {
        "type": "note_off",
        "note": 44,
        "time": 147895,
        "channel": 9
      },
      {
        "type": "note_off",
        "note": 36,
        "time": 147898,
        "channel": 9
      },
      {
        "type": "note_off",
        "note": 59,
        "time": 147903,
        "channel": 9
      },
      {
        "type": "note_on",
        "note": 44,
        "velocity": 85,
        "time": 148059,
        "channel": 9
      },
      {
        "type": "note_on",
        "note": 51,
        "velocity": 49,
        "time": 148088,
        "channel": 9
      },
      {
        "type": "note_off",
        "note": 44,
        "time": 148136,
        "channel": 9
      },
      {
        "type": "note_off",
        "note": 51,
        "time": 148164,
        "channel": 9
      },
      {
        "type": "note_on",
        "note": 36,
        "velocity": 55,
        "time": 148183,
        "channel": 9
      },
      {
        "type": "note_on",
        "note": 51,
        "velocity": 47,
        "time": 148201,
        "channel": 9
      },
      {
        "type": "note_off",
        "note": 36,
        "time": 148260,
        "channel": 9
      },
      {
        "type": "note_off",
        "note": 51,
        "time": 148278,
        "channel": 9
      },
      {
        "type": "note_on",
        "note": 44,
        "velocity": 82,
        "time": 148308,
        "channel": 9
      },
      {
        "type": "note_on",
        "note": 51,
        "velocity": 127,
        "time": 148321,
        "channel": 9
      },
      {
        "type": "note_off",
        "note": 44,
        "time": 148384,
        "channel": 9
      },
      {
        "type": "note_off",
        "note": 51,
        "time": 148397,
        "channel": 9
      },
      {
        "type": "note_on",
        "note": 38,
        "velocity": 99,
        "time": 148449,
        "channel": 9
      },
      {
        "type": "note_off",
        "note": 38,
        "time": 148525,
        "channel": 9
      },
      {
        "type": "note_on",
        "note": 44,
        "velocity": 75,
        "time": 148546,
        "channel": 9
      },
      {
        "type": "note_on",
        "note": 51,
        "velocity": 49,
        "time": 148572,
        "channel": 9
      },
      {
        "type": "note_off",
        "note": 44,
        "time": 148623,
        "channel": 9
      },
      {
        "type": "note_off",
        "note": 51,
        "time": 148649,
        "channel": 9
      },
      {
        "type": "note_on",
        "note": 51,
        "velocity": 41,
        "time": 148677,
        "channel": 9
      },
      {
        "type": "note_off",
        "note": 51,
        "time": 148753,
        "channel": 9
      },
      {
        "type": "note_on",
        "note": 44,
        "velocity": 75,
        "time": 148795,
        "channel": 9
      },
      {
        "type": "note_on",
        "note": 51,
        "velocity": 127,
        "time": 148802,
        "channel": 9
      },
      {
        "type": "note_off",
        "note": 44,
        "time": 148872,
        "channel": 9
      },
      {
        "type": "note_off",
        "note": 51,
        "time": 148879,
        "channel": 9
      },
      {
        "type": "note_on",
        "note": 38,
        "velocity": 28,
        "time": 148907,
        "channel": 9
      },
      {
        "type": "note_off",
        "note": 38,
        "time": 148983,
        "channel": 9
      },
      {
        "type": "note_on",
        "note": 44,
        "velocity": 85,
        "time": 149013,
        "channel": 9
      },
      {
        "type": "note_on",
        "note": 38,
        "velocity": 26,
        "time": 149015,
        "channel": 9
      },
      {
        "type": "note_on",
        "note": 51,
        "velocity": 67,
        "time": 149034,
        "channel": 9
      },
      {
        "type": "note_off",
        "note": 44,
        "time": 149090,
        "channel": 9
      },
      {
        "type": "note_off",
        "note": 38,
        "time": 149092,
        "channel": 9
      },
      {
        "type": "note_off",
        "note": 51,
        "time": 149111,
        "channel": 9
      },
      {
        "type": "note_on",
        "note": 36,
        "velocity": 49,
        "time": 149132,
        "channel": 9
      },
      {
        "type": "note_on",
        "note": 51,
        "velocity": 45,
        "time": 149158,
        "channel": 9
      },
      {
        "type": "note_off",
        "note": 36,
        "time": 149209,
        "channel": 9
      },
      {
        "type": "note_off",
        "note": 51,
        "time": 149235,
        "channel": 9
      },
      {
        "type": "note_on",
        "note": 44,
        "velocity": 67,
        "time": 149262,
        "channel": 9
      },
      {
        "type": "note_on",
        "note": 40,
        "velocity": 126,
        "time": 149281,
        "channel": 9
      },
      {
        "type": "note_on",
        "note": 59,
        "velocity": 99,
        "time": 149285,
        "channel": 9
      },
      {
        "type": "note_off",
        "note": 44,
        "time": 149339,
        "channel": 9
      },
      {
        "type": "note_off",
        "note": 40,
        "time": 149357,
        "channel": 9
      },
      {
        "type": "note_off",
        "note": 59,
        "time": 149361,
        "channel": 9
      },
      {
        "type": "note_on",
        "note": 38,
        "velocity": 23,
        "time": 149421,
        "channel": 9
      },
      {
        "type": "note_off",
        "note": 38,
        "time": 149498,
        "channel": 9
      },
      {
        "type": "note_on",
        "note": 44,
        "velocity": 70,
        "time": 149515,
        "channel": 9
      },
      {
        "type": "note_on",
        "note": 51,
        "velocity": 52,
        "time": 149524,
        "channel": 9
      },
      {
        "type": "note_off",
        "note": 44,
        "time": 149591,
        "channel": 9
      },
      {
        "type": "note_off",
        "note": 51,
        "time": 149600,
        "channel": 9
      },
      {
        "type": "note_on",
        "note": 38,
        "velocity": 35,
        "time": 149638,
        "channel": 9
      },
      {
        "type": "note_off",
        "note": 38,
        "time": 149703,
        "channel": 9
      },
      {
        "type": "note_on",
        "note": 38,
        "velocity": 37,
        "time": 149703,
        "channel": 9
      },
      {
        "type": "note_off",
        "note": 38,
        "time": 149715,
        "channel": 9
      },
      {
        "type": "note_on",
        "note": 44,
        "velocity": 72,
        "time": 149751,
        "channel": 9
      },
      {
        "type": "note_on",
        "note": 36,
        "velocity": 53,
        "time": 149760,
        "channel": 9
      },
      {
        "type": "note_on",
        "note": 51,
        "velocity": 127,
        "time": 149770,
        "channel": 9
      },
      {
        "type": "note_off",
        "note": 44,
        "time": 149828,
        "channel": 9
      },
      {
        "type": "note_off",
        "note": 36,
        "time": 149837,
        "channel": 9
      },
      {
        "type": "note_off",
        "note": 51,
        "time": 149847,
        "channel": 9
      },
      {
        "type": "note_on",
        "note": 38,
        "velocity": 27,
        "time": 149888,
        "channel": 9
      },
      {
        "type": "note_off",
        "note": 38,
        "time": 149965,
        "channel": 9
      },
      {
        "type": "note_on",
        "note": 44,
        "velocity": 70,
        "time": 149991,
        "channel": 9
      },
      {
        "type": "note_on",
        "note": 38,
        "velocity": 27,
        "time": 149998,
        "channel": 9
      },
      {
        "type": "note_on",
        "note": 51,
        "velocity": 48,
        "time": 150001,
        "channel": 9
      },
      {
        "type": "note_off",
        "note": 44,
        "time": 150068,
        "channel": 9
      },
      {
        "type": "note_off",
        "note": 38,
        "time": 150074,
        "channel": 9
      },
      {
        "type": "note_off",
        "note": 51,
        "time": 150078,
        "channel": 9
      },
      {
        "type": "note_on",
        "note": 36,
        "velocity": 55,
        "time": 150111,
        "channel": 9
      },
      {
        "type": "note_on",
        "note": 51,
        "velocity": 46,
        "time": 150119,
        "channel": 9
      },
      {
        "type": "note_off",
        "note": 36,
        "time": 150189,
        "channel": 9
      },
      {
        "type": "note_off",
        "note": 51,
        "time": 150195,
        "channel": 9
      },
      {
        "type": "note_on",
        "note": 51,
        "velocity": 127,
        "time": 150236,
        "channel": 9
      },
      {
        "type": "note_on",
        "note": 44,
        "velocity": 77,
        "time": 150241,
        "channel": 9
      },
      {
        "type": "note_off",
        "note": 51,
        "time": 150313,
        "channel": 9
      },
      {
        "type": "note_off",
        "note": 44,
        "time": 150318,
        "channel": 9
      },
      {
        "type": "note_on",
        "note": 40,
        "velocity": 115,
        "time": 150353,
        "channel": 9
      },
      {
        "type": "note_off",
        "note": 40,
        "time": 150429,
        "channel": 9
      },
      {
        "type": "note_on",
        "note": 51,
        "velocity": 57,
        "time": 150466,
        "channel": 9
      },
      {
        "type": "note_on",
        "note": 44,
        "velocity": 80,
        "time": 150484,
        "channel": 9
      },
      {
        "type": "note_off",
        "note": 51,
        "time": 150543,
        "channel": 9
      },
      {
        "type": "note_off",
        "note": 44,
        "time": 150561,
        "channel": 9
      },
      {
        "type": "note_on",
        "note": 51,
        "velocity": 40,
        "time": 150579,
        "channel": 9
      },
      {
        "type": "note_off",
        "note": 51,
        "time": 150655,
        "channel": 9
      },
      {
        "type": "note_on",
        "note": 51,
        "velocity": 106,
        "time": 150705,
        "channel": 9
      },
      {
        "type": "note_on",
        "note": 44,
        "velocity": 75,
        "time": 150712,
        "channel": 9
      },
      {
        "type": "note_off",
        "note": 51,
        "time": 150782,
        "channel": 9
      },
      {
        "type": "note_off",
        "note": 44,
        "time": 150788,
        "channel": 9
      },
      {
        "type": "note_on",
        "note": 38,
        "velocity": 30,
        "time": 150809,
        "channel": 9
      },
      {
        "type": "note_off",
        "note": 38,
        "time": 150886,
        "channel": 9
      },
      {
        "type": "note_on",
        "note": 51,
        "velocity": 29,
        "time": 150925,
        "channel": 9
      },
      {
        "type": "note_on",
        "note": 44,
        "velocity": 75,
        "time": 150928,
        "channel": 9
      },
      {
        "type": "note_on",
        "note": 38,
        "velocity": 27,
        "time": 150935,
        "channel": 9
      },
      {
        "type": "note_off",
        "note": 51,
        "time": 151001,
        "channel": 9
      },
      {
        "type": "note_off",
        "note": 44,
        "time": 151004,
        "channel": 9
      },
      {
        "type": "note_off",
        "note": 38,
        "time": 151011,
        "channel": 9
      },
      {
        "type": "note_on",
        "note": 51,
        "velocity": 39,
        "time": 151050,
        "channel": 9
      },
      {
        "type": "note_on",
        "note": 36,
        "velocity": 47,
        "time": 151063,
        "channel": 9
      },
      {
        "type": "note_off",
        "note": 51,
        "time": 151127,
        "channel": 9
      },
      {
        "type": "note_off",
        "note": 36,
        "time": 151140,
        "channel": 9
      },
      {
        "type": "note_on",
        "note": 44,
        "velocity": 57,
        "time": 151169,
        "channel": 9
      },
      {
        "type": "note_on",
        "note": 37,
        "velocity": 84,
        "time": 151180,
        "channel": 9
      },
      {
        "type": "note_on",
        "note": 51,
        "velocity": 88,
        "time": 151183,
        "channel": 9
      },
      {
        "type": "note_off",
        "note": 44,
        "time": 151246,
        "channel": 9
      },
      {
        "type": "note_off",
        "note": 37,
        "time": 151257,
        "channel": 9
      },
      {
        "type": "note_off",
        "note": 51,
        "time": 151260,
        "channel": 9
      },
      {
        "type": "note_on",
        "note": 38,
        "velocity": 26,
        "time": 151301,
        "channel": 9
      },
      {
        "type": "note_off",
        "note": 38,
        "time": 151377,
        "channel": 9
      },
      {
        "type": "note_on",
        "note": 44,
        "velocity": 75,
        "time": 151407,
        "channel": 9
      },
      {
        "type": "note_on",
        "note": 51,
        "velocity": 35,
        "time": 151415,
        "channel": 9
      },
      {
        "type": "note_off",
        "note": 44,
        "time": 151484,
        "channel": 9
      },
      {
        "type": "note_off",
        "note": 51,
        "time": 151491,
        "channel": 9
      },
      {
        "type": "note_on",
        "note": 38,
        "velocity": 57,
        "time": 151518,
        "channel": 9
      },
      {
        "type": "note_on",
        "note": 51,
        "velocity": 40,
        "time": 151525,
        "channel": 9
      },
      {
        "type": "note_off",
        "note": 38,
        "time": 151594,
        "channel": 9
      },
      {
        "type": "note_off",
        "note": 51,
        "time": 151601,
        "channel": 9
      },
      {
        "type": "note_on",
        "note": 36,
        "velocity": 57,
        "time": 151647,
        "channel": 9
      },
      {
        "type": "note_on",
        "note": 44,
        "velocity": 72,
        "time": 151652,
        "channel": 9
      },
      {
        "type": "note_on",
        "note": 53,
        "velocity": 72,
        "time": 151653,
        "channel": 9
      },
      {
        "type": "note_off",
        "note": 36,
        "time": 151723,
        "channel": 9
      },
      {
        "type": "note_off",
        "note": 44,
        "time": 151728,
        "channel": 9
      },
      {
        "type": "note_off",
        "note": 53,
        "time": 151728,
        "channel": 9
      },
      {
        "type": "note_on",
        "note": 38,
        "velocity": 29,
        "time": 151759,
        "channel": 9
      },
      {
        "type": "note_off",
        "note": 38,
        "time": 151836,
        "channel": 9
      },
      {
        "type": "note_on",
        "note": 44,
        "velocity": 82,
        "time": 151875,
        "channel": 9
      },
      {
        "type": "note_on",
        "note": 38,
        "velocity": 35,
        "time": 151879,
        "channel": 9
      },
      {
        "type": "note_on",
        "note": 51,
        "velocity": 30,
        "time": 151886,
        "channel": 9
      },
      {
        "type": "note_off",
        "note": 44,
        "time": 151951,
        "channel": 9
      },
      {
        "type": "note_off",
        "note": 38,
        "time": 151955,
        "channel": 9
      },
      {
        "type": "note_off",
        "note": 51,
        "time": 151963,
        "channel": 9
      },
      {
        "type": "note_on",
        "note": 36,
        "velocity": 55,
        "time": 152008,
        "channel": 9
      },
      {
        "type": "note_on",
        "note": 51,
        "velocity": 26,
        "time": 152012,
        "channel": 9
      },
      {
        "type": "note_off",
        "note": 36,
        "time": 152085,
        "channel": 9
      },
      {
        "type": "note_off",
        "note": 51,
        "time": 152089,
        "channel": 9
      },
      {
        "type": "note_on",
        "note": 44,
        "velocity": 80,
        "time": 152126,
        "channel": 9
      },
      {
        "type": "note_on",
        "note": 53,
        "velocity": 97,
        "time": 152139,
        "channel": 9
      },
      {
        "type": "note_off",
        "note": 44,
        "time": 152203,
        "channel": 9
      },
      {
        "type": "note_off",
        "note": 53,
        "time": 152216,
        "channel": 9
      },
      {
        "type": "note_on",
        "note": 40,
        "velocity": 126,
        "time": 152262,
        "channel": 9
      },
      {
        "type": "note_off",
        "note": 40,
        "time": 152338,
        "channel": 9
      },
      {
        "type": "note_on",
        "note": 44,
        "velocity": 60,
        "time": 152375,
        "channel": 9
      },
      {
        "type": "note_off",
        "note": 44,
        "time": 152451,
        "channel": 9
      },
      {
        "type": "note_on",
        "note": 51,
        "velocity": 27,
        "time": 152487,
        "channel": 9
      },
      {
        "type": "note_off",
        "note": 51,
        "time": 152563,
        "channel": 9
      },
      {
        "type": "note_on",
        "note": 51,
        "velocity": 71,
        "time": 152618,
        "channel": 9
      },
      {
        "type": "note_on",
        "note": 44,
        "velocity": 70,
        "time": 152638,
        "channel": 9
      },
      {
        "type": "note_off",
        "note": 51,
        "time": 152695,
        "channel": 9
      },
      {
        "type": "note_off",
        "note": 44,
        "time": 152715,
        "channel": 9
      },
      {
        "type": "note_on",
        "note": 38,
        "velocity": 12,
        "time": 152761,
        "channel": 9
      },
      {
        "type": "note_off",
        "note": 38,
        "time": 152838,
        "channel": 9
      },
      {
        "type": "note_on",
        "note": 44,
        "velocity": 75,
        "time": 152851,
        "channel": 9
      },
      {
        "type": "note_on",
        "note": 51,
        "velocity": 31,
        "time": 152864,
        "channel": 9
      },
      {
        "type": "note_on",
        "note": 38,
        "velocity": 26,
        "time": 152872,
        "channel": 9
      },
      {
        "type": "note_off",
        "note": 44,
        "time": 152928,
        "channel": 9
      },
      {
        "type": "note_off",
        "note": 51,
        "time": 152941,
        "channel": 9
      },
      {
        "type": "note_off",
        "note": 38,
        "time": 152948,
        "channel": 9
      },
      {
        "type": "note_on",
        "note": 36,
        "velocity": 55,
        "time": 152976,
        "channel": 9
      },
      {
        "type": "note_on",
        "note": 51,
        "velocity": 32,
        "time": 152990,
        "channel": 9
      },
      {
        "type": "note_off",
        "note": 36,
        "time": 153053,
        "channel": 9
      },
      {
        "type": "note_off",
        "note": 51,
        "time": 153066,
        "channel": 9
      },
      {
        "type": "note_on",
        "note": 44,
        "velocity": 55,
        "time": 153097,
        "channel": 9
      },
      {
        "type": "note_on",
        "note": 53,
        "velocity": 61,
        "time": 153107,
        "channel": 9
      },
      {
        "type": "note_on",
        "note": 40,
        "velocity": 108,
        "time": 153109,
        "channel": 9
      },
      {
        "type": "note_off",
        "note": 44,
        "time": 153174,
        "channel": 9
      },
      {
        "type": "note_off",
        "note": 53,
        "time": 153184,
        "channel": 9
      },
      {
        "type": "note_off",
        "note": 40,
        "time": 153185,
        "channel": 9
      },
      {
        "type": "note_on",
        "note": 38,
        "velocity": 30,
        "time": 153213,
        "channel": 9
      },
      {
        "type": "note_off",
        "note": 38,
        "time": 153237,
        "channel": 9
      },
      {
        "type": "note_on",
        "note": 38,
        "velocity": 18,
        "time": 153237,
        "channel": 9
      },
      {
        "type": "note_off",
        "note": 38,
        "time": 153290,
        "channel": 9
      },
      {
        "type": "note_on",
        "note": 44,
        "velocity": 67,
        "time": 153345,
        "channel": 9
      },
      {
        "type": "note_on",
        "note": 51,
        "velocity": 26,
        "time": 153352,
        "channel": 9
      },
      {
        "type": "note_off",
        "note": 44,
        "time": 153422,
        "channel": 9
      },
      {
        "type": "note_off",
        "note": 51,
        "time": 153429,
        "channel": 9
      },
      {
        "type": "note_on",
        "note": 38,
        "velocity": 20,
        "time": 153452,
        "channel": 9
      },
      {
        "type": "note_on",
        "note": 51,
        "velocity": 26,
        "time": 153470,
        "channel": 9
      },
      {
        "type": "note_off",
        "note": 38,
        "time": 153529,
        "channel": 9
      },
      {
        "type": "note_off",
        "note": 51,
        "time": 153547,
        "channel": 9
      },
      {
        "type": "note_on",
        "note": 44,
        "velocity": 70,
        "time": 153584,
        "channel": 9
      },
      {
        "type": "note_on",
        "note": 53,
        "velocity": 46,
        "time": 153587,
        "channel": 9
      },
      {
        "type": "note_on",
        "note": 36,
        "velocity": 53,
        "time": 153589,
        "channel": 9
      },
      {
        "type": "note_off",
        "note": 44,
        "time": 153660,
        "channel": 9
      },
      {
        "type": "note_off",
        "note": 53,
        "time": 153663,
        "channel": 9
      },
      {
        "type": "note_off",
        "note": 36,
        "time": 153666,
        "channel": 9
      },
      {
        "type": "note_on",
        "note": 38,
        "velocity": 51,
        "time": 153715,
        "channel": 9
      },
      {
        "type": "note_off",
        "note": 38,
        "time": 153792,
        "channel": 9
      },
      {
        "type": "note_on",
        "note": 44,
        "velocity": 50,
        "time": 153815,
        "channel": 9
      },
      {
        "type": "note_on",
        "note": 51,
        "velocity": 27,
        "time": 153830,
        "channel": 9
      },
      {
        "type": "note_on",
        "note": 37,
        "velocity": 68,
        "time": 153839,
        "channel": 9
      },
      {
        "type": "note_off",
        "note": 44,
        "time": 153891,
        "channel": 9
      },
      {
        "type": "note_off",
        "note": 51,
        "time": 153907,
        "channel": 9
      },
      {
        "type": "note_off",
        "note": 37,
        "time": 153917,
        "channel": 9
      },
      {
        "type": "note_on",
        "note": 51,
        "velocity": 26,
        "time": 153956,
        "channel": 9
      },
      {
        "type": "note_on",
        "note": 36,
        "velocity": 57,
        "time": 153960,
        "channel": 9
      },
      {
        "type": "note_off",
        "note": 51,
        "time": 154033,
        "channel": 9
      },
      {
        "type": "note_off",
        "note": 36,
        "time": 154037,
        "channel": 9
      },
      {
        "type": "note_on",
        "note": 44,
        "velocity": 82,
        "time": 154061,
        "channel": 9
      },
      {
        "type": "note_on",
        "note": 53,
        "velocity": 44,
        "time": 154078,
        "channel": 9
      },
      {
        "type": "note_off",
        "note": 44,
        "time": 154138,
        "channel": 9
      },
      {
        "type": "note_off",
        "note": 53,
        "time": 154154,
        "channel": 9
      },
      {
        "type": "note_on",
        "note": 26,
        "velocity": 114,
        "time": 154196,
        "channel": 9
      },
      {
        "type": "note_off",
        "note": 26,
        "time": 154273,
        "channel": 9
      },
      {
        "type": "note_on",
        "note": 44,
        "velocity": 70,
        "time": 154300,
        "channel": 9
      },
      {
        "type": "note_on",
        "note": 51,
        "velocity": 30,
        "time": 154307,
        "channel": 9
      },
      {
        "type": "note_off",
        "note": 44,
        "time": 154376,
        "channel": 9
      },
      {
        "type": "note_off",
        "note": 51,
        "time": 154384,
        "channel": 9
      },
      {
        "type": "note_on",
        "note": 51,
        "velocity": 30,
        "time": 154424,
        "channel": 9
      },
      {
        "type": "note_on",
        "note": 36,
        "velocity": 56,
        "time": 154435,
        "channel": 9
      },
      {
        "type": "note_off",
        "note": 51,
        "time": 154500,
        "channel": 9
      },
      {
        "type": "note_off",
        "note": 36,
        "time": 154512,
        "channel": 9
      },
      {
        "type": "note_on",
        "note": 44,
        "velocity": 80,
        "time": 154548,
        "channel": 9
      },
      {
        "type": "note_on",
        "note": 53,
        "velocity": 58,
        "time": 154556,
        "channel": 9
      },
      {
        "type": "note_off",
        "note": 44,
        "time": 154624,
        "channel": 9
      },
      {
        "type": "note_off",
        "note": 53,
        "time": 154632,
        "channel": 9
      },
      {
        "type": "note_on",
        "note": 38,
        "velocity": 104,
        "time": 154672,
        "channel": 9
      },
      {
        "type": "note_off",
        "note": 38,
        "time": 154749,
        "channel": 9
      },
      {
        "type": "note_on",
        "note": 44,
        "velocity": 62,
        "time": 154786,
        "channel": 9
      },
      {
        "type": "note_on",
        "note": 48,
        "velocity": 94,
        "time": 154789,
        "channel": 9
      },
      {
        "type": "note_off",
        "note": 44,
        "time": 154863,
        "channel": 9
      },
      {
        "type": "note_off",
        "note": 48,
        "time": 154865,
        "channel": 9
      },
      {
        "type": "note_on",
        "note": 48,
        "velocity": 89,
        "time": 154907,
        "channel": 9
      },
      {
        "type": "note_off",
        "note": 48,
        "time": 154985,
        "channel": 9
      },
      {
        "type": "note_on",
        "note": 44,
        "velocity": 80,
        "time": 155029,
        "channel": 9
      },
      {
        "type": "note_on",
        "note": 43,
        "velocity": 119,
        "time": 155037,
        "channel": 9
      },
      {
        "type": "note_off",
        "note": 44,
        "time": 155105,
        "channel": 9
      },
      {
        "type": "note_off",
        "note": 43,
        "time": 155114,
        "channel": 9
      },
      {
        "type": "note_on",
        "note": 43,
        "velocity": 127,
        "time": 155143,
        "channel": 9
      },
      {
        "type": "note_off",
        "note": 43,
        "time": 155220,
        "channel": 9
      },
      {
        "type": "note_on",
        "note": 44,
        "velocity": 90,
        "time": 155251,
        "channel": 9
      },
      {
        "type": "note_on",
        "note": 43,
        "velocity": 101,
        "time": 155260,
        "channel": 9
      },
      {
        "type": "note_off",
        "note": 44,
        "time": 155328,
        "channel": 9
      },
      {
        "type": "note_off",
        "note": 43,
        "time": 155336,
        "channel": 9
      },
      {
        "type": "note_on",
        "note": 59,
        "velocity": 106,
        "time": 155382,
        "channel": 9
      },
      {
        "type": "note_on",
        "note": 36,
        "velocity": 48,
        "time": 155384,
        "channel": 9
      },
      {
        "type": "note_off",
        "note": 59,
        "time": 155459,
        "channel": 9
      },
      {
        "type": "note_off",
        "note": 36,
        "time": 155461,
        "channel": 9
      },
      {
        "type": "note_on",
        "note": 44,
        "velocity": 62,
        "time": 155500,
        "channel": 9
      },
      {
        "type": "note_on",
        "note": 55,
        "velocity": 109,
        "time": 155500,
        "channel": 9
      },
      {
        "type": "note_on",
        "note": 36,
        "velocity": 110,
        "time": 155508,
        "channel": 9
      },
      {
        "type": "note_off",
        "note": 44,
        "time": 155576,
        "channel": 9
      },
      {
        "type": "note_off",
        "note": 55,
        "time": 155576,
        "channel": 9
      },
      {
        "type": "note_off",
        "note": 36,
        "time": 155585,
        "channel": 9
      },
      {
        "type": "note_on",
        "note": 44,
        "velocity": 80,
        "time": 155738,
        "channel": 9
      },
      {
        "type": "note_on",
        "note": 51,
        "velocity": 38,
        "time": 155788,
        "channel": 9
      },
      {
        "type": "note_off",
        "note": 44,
        "time": 155814,
        "channel": 9
      },
      {
        "type": "note_off",
        "note": 51,
        "time": 155864,
        "channel": 9
      },
      {
        "type": "note_on",
        "note": 36,
        "velocity": 68,
        "time": 155873,
        "channel": 9
      },
      {
        "type": "note_on",
        "note": 51,
        "velocity": 19,
        "time": 155902,
        "channel": 9
      },
      {
        "type": "note_off",
        "note": 36,
        "time": 155950,
        "channel": 9
      },
      {
        "type": "note_off",
        "note": 51,
        "time": 155978,
        "channel": 9
      },
      {
        "type": "note_on",
        "note": 44,
        "velocity": 72,
        "time": 155998,
        "channel": 9
      },
      {
        "type": "note_on",
        "note": 53,
        "velocity": 86,
        "time": 156014,
        "channel": 9
      },
      {
        "type": "note_off",
        "note": 44,
        "time": 156075,
        "channel": 9
      },
      {
        "type": "note_off",
        "note": 53,
        "time": 156091,
        "channel": 9
      },
      {
        "type": "note_on",
        "note": 38,
        "velocity": 97,
        "time": 156121,
        "channel": 9
      },
      {
        "type": "note_off",
        "note": 38,
        "time": 156198,
        "channel": 9
      },
      {
        "type": "note_on",
        "note": 51,
        "velocity": 32,
        "time": 156235,
        "channel": 9
      },
      {
        "type": "note_on",
        "note": 44,
        "velocity": 72,
        "time": 156244,
        "channel": 9
      },
      {
        "type": "note_off",
        "note": 51,
        "time": 156311,
        "channel": 9
      },
      {
        "type": "note_off",
        "note": 44,
        "time": 156321,
        "channel": 9
      },
      {
        "type": "note_on",
        "note": 51,
        "velocity": 35,
        "time": 156350,
        "channel": 9
      },
      {
        "type": "note_off",
        "note": 51,
        "time": 156427,
        "channel": 9
      },
      {
        "type": "note_on",
        "note": 53,
        "velocity": 63,
        "time": 156478,
        "channel": 9
      },
      {
        "type": "note_on",
        "note": 44,
        "velocity": 87,
        "time": 156485,
        "channel": 9
      },
      {
        "type": "note_off",
        "note": 53,
        "time": 156554,
        "channel": 9
      },
      {
        "type": "note_off",
        "note": 44,
        "time": 156562,
        "channel": 9
      },
      {
        "type": "note_on",
        "note": 38,
        "velocity": 29,
        "time": 156596,
        "channel": 9
      },
      {
        "type": "note_off",
        "note": 38,
        "time": 156673,
        "channel": 9
      },
      {
        "type": "note_on",
        "note": 44,
        "velocity": 80,
        "time": 156699,
        "channel": 9
      },
      {
        "type": "note_on",
        "note": 51,
        "velocity": 31,
        "time": 156710,
        "channel": 9
      },
      {
        "type": "note_off",
        "note": 44,
        "time": 156776,
        "channel": 9
      },
      {
        "type": "note_off",
        "note": 51,
        "time": 156787,
        "channel": 9
      },
      {
        "type": "note_on",
        "note": 36,
        "velocity": 55,
        "time": 156812,
        "channel": 9
      },
      {
        "type": "note_on",
        "note": 51,
        "velocity": 29,
        "time": 156839,
        "channel": 9
      },
      {
        "type": "note_off",
        "note": 36,
        "time": 156889,
        "channel": 9
      },
      {
        "type": "note_off",
        "note": 51,
        "time": 156915,
        "channel": 9
      },
      {
        "type": "note_on",
        "note": 44,
        "velocity": 97,
        "time": 156950,
        "channel": 9
      },
      {
        "type": "note_on",
        "note": 40,
        "velocity": 105,
        "time": 156954,
        "channel": 9
      },
      {
        "type": "note_on",
        "note": 51,
        "velocity": 79,
        "time": 156956,
        "channel": 9
      },
      {
        "type": "note_off",
        "note": 44,
        "time": 157027,
        "channel": 9
      },
      {
        "type": "note_off",
        "note": 40,
        "time": 157031,
        "channel": 9
      },
      {
        "type": "note_off",
        "note": 51,
        "time": 157033,
        "channel": 9
      },
      {
        "type": "note_on",
        "note": 40,
        "velocity": 95,
        "time": 157181,
        "channel": 9
      },
      {
        "type": "note_on",
        "note": 44,
        "velocity": 67,
        "time": 157191,
        "channel": 9
      },
      {
        "type": "note_on",
        "note": 53,
        "velocity": 50,
        "time": 157196,
        "channel": 9
      },
      {
        "type": "note_off",
        "note": 40,
        "time": 157257,
        "channel": 9
      },
      {
        "type": "note_off",
        "note": 44,
        "time": 157268,
        "channel": 9
      },
      {
        "type": "note_off",
        "note": 53,
        "time": 157273,
        "channel": 9
      },
      {
        "type": "note_on",
        "note": 38,
        "velocity": 33,
        "time": 157302,
        "channel": 9
      },
      {
        "type": "note_off",
        "note": 38,
        "time": 157378,
        "channel": 9
      },
      {
        "type": "note_on",
        "note": 44,
        "velocity": 85,
        "time": 157434,
        "channel": 9
      },
      {
        "type": "note_on",
        "note": 51,
        "velocity": 65,
        "time": 157434,
        "channel": 9
      },
      {
        "type": "note_on",
        "note": 36,
        "velocity": 51,
        "time": 157445,
        "channel": 9
      },
      {
        "type": "note_off",
        "note": 51,
        "time": 157511,
        "channel": 9
      },
      {
        "type": "note_off",
        "note": 44,
        "time": 157512,
        "channel": 9
      },
      {
        "type": "note_off",
        "note": 36,
        "time": 157522,
        "channel": 9
      },
      {
        "type": "note_on",
        "note": 40,
        "velocity": 102,
        "time": 157553,
        "channel": 9
      },
      {
        "type": "note_off",
        "note": 40,
        "time": 157629,
        "channel": 9
      },
      {
        "type": "note_on",
        "note": 44,
        "velocity": 72,
        "time": 157663,
        "channel": 9
      },
      {
        "type": "note_off",
        "note": 44,
        "time": 157740,
        "channel": 9
      },
      {
        "type": "note_on",
        "note": 51,
        "velocity": 34,
        "time": 157774,
        "channel": 9
      },
      {
        "type": "note_on",
        "note": 36,
        "velocity": 65,
        "time": 157789,
        "channel": 9
      },
      {
        "type": "note_off",
        "note": 51,
        "time": 157851,
        "channel": 9
      },
      {
        "type": "note_off",
        "note": 36,
        "time": 157865,
        "channel": 9
      },
      {
        "type": "note_on",
        "note": 53,
        "velocity": 63,
        "time": 157894,
        "channel": 9
      },
      {
        "type": "note_on",
        "note": 44,
        "velocity": 82,
        "time": 157916,
        "channel": 9
      },
      {
        "type": "note_off",
        "note": 53,
        "time": 157970,
        "channel": 9
      },
      {
        "type": "note_off",
        "note": 44,
        "time": 157992,
        "channel": 9
      },
      {
        "type": "note_on",
        "note": 38,
        "velocity": 45,
        "time": 158012,
        "channel": 9
      },
      {
        "type": "note_off",
        "note": 38,
        "time": 158089,
        "channel": 9
      },
      {
        "type": "note_on",
        "note": 51,
        "velocity": 36,
        "time": 158130,
        "channel": 9
      },
      {
        "type": "note_on",
        "note": 38,
        "velocity": 10,
        "time": 158138,
        "channel": 9
      },
      {
        "type": "note_on",
        "note": 44,
        "velocity": 80,
        "time": 158152,
        "channel": 9
      },
      {
        "type": "note_off",
        "note": 51,
        "time": 158207,
        "channel": 9
      },
      {
        "type": "note_off",
        "note": 38,
        "time": 158214,
        "channel": 9
      },
      {
        "type": "note_off",
        "note": 44,
        "time": 158229,
        "channel": 9
      },
      {
        "type": "note_on",
        "note": 38,
        "velocity": 32,
        "time": 158251,
        "channel": 9
      },
      {
        "type": "note_on",
        "note": 51,
        "velocity": 30,
        "time": 158251,
        "channel": 9
      },
      {
        "type": "note_off",
        "note": 38,
        "time": 158328,
        "channel": 9
      },
      {
        "type": "note_off",
        "note": 51,
        "time": 158328,
        "channel": 9
      },
      {
        "type": "note_on",
        "note": 44,
        "velocity": 82,
        "time": 158378,
        "channel": 9
      },
      {
        "type": "note_on",
        "note": 51,
        "velocity": 72,
        "time": 158381,
        "channel": 9
      },
      {
        "type": "note_off",
        "note": 44,
        "time": 158455,
        "channel": 9
      },
      {
        "type": "note_off",
        "note": 51,
        "time": 158458,
        "channel": 9
      },
      {
        "type": "note_on",
        "note": 36,
        "velocity": 48,
        "time": 158485,
        "channel": 9
      },
      {
        "type": "note_off",
        "note": 36,
        "time": 158562,
        "channel": 9
      },
      {
        "type": "note_on",
        "note": 44,
        "velocity": 55,
        "time": 158604,
        "channel": 9
      },
      {
        "type": "note_on",
        "note": 40,
        "velocity": 113,
        "time": 158606,
        "channel": 9
      },
      {
        "type": "note_off",
        "note": 44,
        "time": 158681,
        "channel": 9
      },
      {
        "type": "note_off",
        "note": 40,
        "time": 158683,
        "channel": 9
      },
      {
        "type": "note_on",
        "note": 38,
        "velocity": 28,
        "time": 158727,
        "channel": 9
      },
      {
        "type": "note_off",
        "note": 38,
        "time": 158804,
        "channel": 9
      },
      {
        "type": "note_on",
        "note": 53,
        "velocity": 80,
        "time": 158856,
        "channel": 9
      },
      {
        "type": "note_on",
        "note": 44,
        "velocity": 72,
        "time": 158857,
        "channel": 9
      },
      {
        "type": "note_off",
        "note": 44,
        "time": 158932,
        "channel": 9
      },
      {
        "type": "note_off",
        "note": 53,
        "time": 158932,
        "channel": 9
      },
      {
        "type": "note_on",
        "note": 40,
        "velocity": 97,
        "time": 158967,
        "channel": 9
      },
      {
        "type": "note_off",
        "note": 40,
        "time": 159044,
        "channel": 9
      },
      {
        "type": "note_on",
        "note": 44,
        "velocity": 82,
        "time": 159079,
        "channel": 9
      },
      {
        "type": "note_on",
        "note": 51,
        "velocity": 31,
        "time": 159090,
        "channel": 9
      },
      {
        "type": "note_off",
        "note": 44,
        "time": 159156,
        "channel": 9
      },
      {
        "type": "note_off",
        "note": 51,
        "time": 159167,
        "channel": 9
      },
      {
        "type": "note_on",
        "note": 38,
        "velocity": 18,
        "time": 159182,
        "channel": 9
      },
      {
        "type": "note_on",
        "note": 51,
        "velocity": 32,
        "time": 159211,
        "channel": 9
      },
      {
        "type": "note_off",
        "note": 38,
        "time": 159258,
        "channel": 9
      },
      {
        "type": "note_off",
        "note": 51,
        "time": 159287,
        "channel": 9
      },
      {
        "type": "note_on",
        "note": 36,
        "velocity": 58,
        "time": 159318,
        "channel": 9
      },
      {
        "type": "note_on",
        "note": 44,
        "velocity": 60,
        "time": 159328,
        "channel": 9
      },
      {
        "type": "note_on",
        "note": 53,
        "velocity": 63,
        "time": 159332,
        "channel": 9
      },
      {
        "type": "note_off",
        "note": 36,
        "time": 159395,
        "channel": 9
      },
      {
        "type": "note_off",
        "note": 44,
        "time": 159405,
        "channel": 9
      },
      {
        "type": "note_off",
        "note": 53,
        "time": 159409,
        "channel": 9
      },
      {
        "type": "note_on",
        "note": 40,
        "velocity": 98,
        "time": 159462,
        "channel": 9
      },
      {
        "type": "note_off",
        "note": 40,
        "time": 159538,
        "channel": 9
      },
      {
        "type": "note_on",
        "note": 44,
        "velocity": 77,
        "time": 159546,
        "channel": 9
      },
      {
        "type": "note_on",
        "note": 38,
        "velocity": 24,
        "time": 159616,
        "channel": 9
      },
      {
        "type": "note_off",
        "note": 44,
        "time": 159623,
        "channel": 9
      },
      {
        "type": "note_off",
        "note": 38,
        "time": 159693,
        "channel": 9
      },
      {
        "type": "note_on",
        "note": 36,
        "velocity": 63,
        "time": 159709,
        "channel": 9
      },
      {
        "type": "note_off",
        "note": 36,
        "time": 159785,
        "channel": 9
      },
      {
        "type": "note_on",
        "note": 44,
        "velocity": 75,
        "time": 159808,
        "channel": 9
      },
      {
        "type": "note_on",
        "note": 53,
        "velocity": 65,
        "time": 159821,
        "channel": 9
      },
      {
        "type": "note_off",
        "note": 44,
        "time": 159885,
        "channel": 9
      },
      {
        "type": "note_off",
        "note": 53,
        "time": 159897,
        "channel": 9
      },
      {
        "type": "note_on",
        "note": 38,
        "velocity": 25,
        "time": 159920,
        "channel": 9
      },
      {
        "type": "note_off",
        "note": 38,
        "time": 159996,
        "channel": 9
      },
      {
        "type": "note_on",
        "note": 44,
        "velocity": 75,
        "time": 160052,
        "channel": 9
      },
      {
        "type": "note_on",
        "note": 51,
        "velocity": 40,
        "time": 160052,
        "channel": 9
      },
      {
        "type": "note_on",
        "note": 38,
        "velocity": 15,
        "time": 160062,
        "channel": 9
      },
      {
        "type": "note_off",
        "note": 44,
        "time": 160129,
        "channel": 9
      },
      {
        "type": "note_off",
        "note": 51,
        "time": 160129,
        "channel": 9
      },
      {
        "type": "note_off",
        "note": 38,
        "time": 160139,
        "channel": 9
      },
      {
        "type": "note_on",
        "note": 51,
        "velocity": 31,
        "time": 160170,
        "channel": 9
      },
      {
        "type": "note_on",
        "note": 38,
        "velocity": 16,
        "time": 160192,
        "channel": 9
      },
      {
        "type": "note_off",
        "note": 51,
        "time": 160247,
        "channel": 9
      },
      {
        "type": "note_off",
        "note": 38,
        "time": 160269,
        "channel": 9
      },
      {
        "type": "note_on",
        "note": 44,
        "velocity": 67,
        "time": 160284,
        "channel": 9
      },
      {
        "type": "note_on",
        "note": 53,
        "velocity": 84,
        "time": 160303,
        "channel": 9
      },
      {
        "type": "note_off",
        "note": 44,
        "time": 160361,
        "channel": 9
      },
      {
        "type": "note_off",
        "note": 53,
        "time": 160380,
        "channel": 9
      },
      {
        "type": "note_on",
        "note": 44,
        "velocity": 72,
        "time": 160520,
        "channel": 9
      },
      {
        "type": "note_on",
        "note": 40,
        "velocity": 127,
        "time": 160529,
        "channel": 9
      },
      {
        "type": "note_off",
        "note": 44,
        "time": 160597,
        "channel": 9
      },
      {
        "type": "note_off",
        "note": 40,
        "time": 160606,
        "channel": 9
      },
      {
        "type": "note_on",
        "note": 51,
        "velocity": 36,
        "time": 160648,
        "channel": 9
      },
      {
        "type": "note_off",
        "note": 51,
        "time": 160725,
        "channel": 9
      },
      {
        "type": "note_on",
        "note": 44,
        "velocity": 80,
        "time": 160771,
        "channel": 9
      },
      {
        "type": "note_on",
        "note": 53,
        "velocity": 56,
        "time": 160777,
        "channel": 9
      },
      {
        "type": "note_off",
        "note": 44,
        "time": 160848,
        "channel": 9
      },
      {
        "type": "note_off",
        "note": 53,
        "time": 160854,
        "channel": 9
      },
      {
        "type": "note_on",
        "note": 40,
        "velocity": 100,
        "time": 160893,
        "channel": 9
      },
      {
        "type": "note_off",
        "note": 40,
        "time": 160970,
        "channel": 9
      },
      {
        "type": "note_on",
        "note": 44,
        "velocity": 77,
        "time": 161000,
        "channel": 9
      },
      {
        "type": "note_on",
        "note": 51,
        "velocity": 38,
        "time": 161011,
        "channel": 9
      },
      {
        "type": "note_off",
        "note": 44,
        "time": 161076,
        "channel": 9
      },
      {
        "type": "note_off",
        "note": 51,
        "time": 161088,
        "channel": 9
      },
      {
        "type": "note_on",
        "note": 38,
        "velocity": 6,
        "time": 161125,
        "channel": 9
      },
      {
        "type": "note_on",
        "note": 51,
        "velocity": 24,
        "time": 161134,
        "channel": 9
      },
      {
        "type": "note_off",
        "note": 38,
        "time": 161202,
        "channel": 9
      },
      {
        "type": "note_off",
        "note": 51,
        "time": 161210,
        "channel": 9
      },
      {
        "type": "note_on",
        "note": 44,
        "velocity": 62,
        "time": 161249,
        "channel": 9
      },
      {
        "type": "note_on",
        "note": 36,
        "velocity": 60,
        "time": 161251,
        "channel": 9
      },
      {
        "type": "note_on",
        "note": 51,
        "velocity": 121,
        "time": 161251,
        "channel": 9
      },
      {
        "type": "note_off",
        "note": 44,
        "time": 161326,
        "channel": 9
      },
      {
        "type": "note_off",
        "note": 36,
        "time": 161328,
        "channel": 9
      },
      {
        "type": "note_off",
        "note": 51,
        "time": 161328,
        "channel": 9
      },
      {
        "type": "note_on",
        "note": 40,
        "velocity": 93,
        "time": 161386,
        "channel": 9
      },
      {
        "type": "note_off",
        "note": 40,
        "time": 161462,
        "channel": 9
      },
      {
        "type": "note_on",
        "note": 44,
        "velocity": 67,
        "time": 161475,
        "channel": 9
      },
      {
        "type": "note_off",
        "note": 44,
        "time": 161551,
        "channel": 9
      },
      {
        "type": "note_on",
        "note": 36,
        "velocity": 70,
        "time": 161622,
        "channel": 9
      },
      {
        "type": "note_off",
        "note": 36,
        "time": 161699,
        "channel": 9
      },
      {
        "type": "note_on",
        "note": 51,
        "velocity": 121,
        "time": 161732,
        "channel": 9
      },
      {
        "type": "note_on",
        "note": 44,
        "velocity": 72,
        "time": 161746,
        "channel": 9
      },
      {
        "type": "note_off",
        "note": 51,
        "time": 161809,
        "channel": 9
      },
      {
        "type": "note_off",
        "note": 44,
        "time": 161823,
        "channel": 9
      },
      {
        "type": "note_on",
        "note": 38,
        "velocity": 27,
        "time": 161857,
        "channel": 9
      },
      {
        "type": "note_off",
        "note": 38,
        "time": 161934,
        "channel": 9
      },
      {
        "type": "note_on",
        "note": 51,
        "velocity": 31,
        "time": 161973,
        "channel": 9
      },
      {
        "type": "note_on",
        "note": 44,
        "velocity": 80,
        "time": 161983,
        "channel": 9
      },
      {
        "type": "note_off",
        "note": 51,
        "time": 162050,
        "channel": 9
      },
      {
        "type": "note_off",
        "note": 44,
        "time": 162060,
        "channel": 9
      },
      {
        "type": "note_on",
        "note": 38,
        "velocity": 47,
        "time": 162104,
        "channel": 9
      },
      {
        "type": "note_on",
        "note": 51,
        "velocity": 24,
        "time": 162126,
        "channel": 9
      },
      {
        "type": "note_off",
        "note": 38,
        "time": 162181,
        "channel": 9
      },
      {
        "type": "note_off",
        "note": 51,
        "time": 162203,
        "channel": 9
      },
      {
        "type": "note_on",
        "note": 44,
        "velocity": 67,
        "time": 162217,
        "channel": 9
      },
      {
        "type": "note_on",
        "note": 38,
        "velocity": 39,
        "time": 162228,
        "channel": 9
      },
      {
        "type": "note_on",
        "note": 51,
        "velocity": 59,
        "time": 162235,
        "channel": 9
      },
      {
        "type": "note_off",
        "note": 44,
        "time": 162293,
        "channel": 9
      },
      {
        "type": "note_off",
        "note": 38,
        "time": 162305,
        "channel": 9
      },
      {
        "type": "note_off",
        "note": 51,
        "time": 162312,
        "channel": 9
      },
      {
        "type": "note_on",
        "note": 36,
        "velocity": 57,
        "time": 162339,
        "channel": 9
      },
      {
        "type": "note_off",
        "note": 36,
        "time": 162415,
        "channel": 9
      },
      {
        "type": "note_on",
        "note": 44,
        "velocity": 57,
        "time": 162456,
        "channel": 9
      },
      {
        "type": "note_on",
        "note": 40,
        "velocity": 122,
        "time": 162470,
        "channel": 9
      },
      {
        "type": "note_off",
        "note": 44,
        "time": 162532,
        "channel": 9
      },
      {
        "type": "note_off",
        "note": 40,
        "time": 162547,
        "channel": 9
      },
      {
        "type": "note_on",
        "note": 38,
        "velocity": 23,
        "time": 162598,
        "channel": 9
      },
      {
        "type": "note_off",
        "note": 38,
        "time": 162675,
        "channel": 9
      },
      {
        "type": "note_on",
        "note": 51,
        "velocity": 127,
        "time": 162712,
        "channel": 9
      },
      {
        "type": "note_on",
        "note": 44,
        "velocity": 90,
        "time": 162714,
        "channel": 9
      },
      {
        "type": "note_off",
        "note": 51,
        "time": 162789,
        "channel": 9
      },
      {
        "type": "note_off",
        "note": 44,
        "time": 162791,
        "channel": 9
      },
      {
        "type": "note_on",
        "note": 40,
        "velocity": 100,
        "time": 162828,
        "channel": 9
      },
      {
        "type": "note_off",
        "note": 40,
        "time": 162904,
        "channel": 9
      },
      {
        "type": "note_on",
        "note": 51,
        "velocity": 32,
        "time": 162953,
        "channel": 9
      },
      {
        "type": "note_on",
        "note": 44,
        "velocity": 80,
        "time": 162962,
        "channel": 9
      },
      {
        "type": "note_off",
        "note": 51,
        "time": 163030,
        "channel": 9
      },
      {
        "type": "note_off",
        "note": 44,
        "time": 163039,
        "channel": 9
      },
      {
        "type": "note_on",
        "note": 51,
        "velocity": 28,
        "time": 163076,
        "channel": 9
      },
      {
        "type": "note_on",
        "note": 38,
        "velocity": 18,
        "time": 163093,
        "channel": 9
      },
      {
        "type": "note_off",
        "note": 51,
        "time": 163153,
        "channel": 9
      },
      {
        "type": "note_off",
        "note": 38,
        "time": 163169,
        "channel": 9
      },
      {
        "type": "note_on",
        "note": 51,
        "velocity": 106,
        "time": 163203,
        "channel": 9
      },
      {
        "type": "note_on",
        "note": 44,
        "velocity": 67,
        "time": 163209,
        "channel": 9
      },
      {
        "type": "note_on",
        "note": 36,
        "velocity": 62,
        "time": 163214,
        "channel": 9
      },
      {
        "type": "note_off",
        "note": 51,
        "time": 163280,
        "channel": 9
      },
      {
        "type": "note_off",
        "note": 44,
        "time": 163286,
        "channel": 9
      },
      {
        "type": "note_off",
        "note": 36,
        "time": 163292,
        "channel": 9
      },
      {
        "type": "note_on",
        "note": 37,
        "velocity": 87,
        "time": 163341,
        "channel": 9
      },
      {
        "type": "note_off",
        "note": 37,
        "time": 163418,
        "channel": 9
      },
      {
        "type": "note_on",
        "note": 44,
        "velocity": 55,
        "time": 163431,
        "channel": 9
      },
      {
        "type": "note_off",
        "note": 44,
        "time": 163508,
        "channel": 9
      },
      {
        "type": "note_on",
        "note": 36,
        "velocity": 55,
        "time": 163560,
        "channel": 9
      },
      {
        "type": "note_off",
        "note": 36,
        "time": 163637,
        "channel": 9
      },
      {
        "type": "note_on",
        "note": 51,
        "velocity": 120,
        "time": 163680,
        "channel": 9
      },
      {
        "type": "note_on",
        "note": 44,
        "velocity": 80,
        "time": 163691,
        "channel": 9
      },
      {
        "type": "note_off",
        "note": 51,
        "time": 163756,
        "channel": 9
      },
      {
        "type": "note_off",
        "note": 44,
        "time": 163767,
        "channel": 9
      },
      {
        "type": "note_on",
        "note": 38,
        "velocity": 33,
        "time": 163787,
        "channel": 9
      },
      {
        "type": "note_off",
        "note": 38,
        "time": 163864,
        "channel": 9
      },
      {
        "type": "note_on",
        "note": 38,
        "velocity": 29,
        "time": 163908,
        "channel": 9
      },
      {
        "type": "note_on",
        "note": 51,
        "velocity": 29,
        "time": 163913,
        "channel": 9
      },
      {
        "type": "note_on",
        "note": 44,
        "velocity": 70,
        "time": 163927,
        "channel": 9
      },
      {
        "type": "note_off",
        "note": 38,
        "time": 163985,
        "channel": 9
      },
      {
        "type": "note_off",
        "note": 51,
        "time": 163989,
        "channel": 9
      },
      {
        "type": "note_off",
        "note": 44,
        "time": 164004,
        "channel": 9
      },
      {
        "type": "note_on",
        "note": 51,
        "velocity": 10,
        "time": 164037,
        "channel": 9
      },
      {
        "type": "note_off",
        "note": 51,
        "time": 164114,
        "channel": 9
      },
      {
        "type": "note_on",
        "note": 44,
        "velocity": 77,
        "time": 164146,
        "channel": 9
      },
      {
        "type": "note_on",
        "note": 51,
        "velocity": 103,
        "time": 164155,
        "channel": 9
      },
      {
        "type": "note_off",
        "note": 44,
        "time": 164223,
        "channel": 9
      },
      {
        "type": "note_off",
        "note": 51,
        "time": 164232,
        "channel": 9
      },
      {
        "type": "note_on",
        "note": 36,
        "velocity": 51,
        "time": 164265,
        "channel": 9
      },
      {
        "type": "note_off",
        "note": 36,
        "time": 164341,
        "channel": 9
      },
      {
        "type": "note_on",
        "note": 44,
        "velocity": 42,
        "time": 164373,
        "channel": 9
      },
      {
        "type": "note_on",
        "note": 37,
        "velocity": 89,
        "time": 164391,
        "channel": 9
      },
      {
        "type": "note_on",
        "note": 51,
        "velocity": 40,
        "time": 164391,
        "channel": 9
      },
      {
        "type": "note_off",
        "note": 44,
        "time": 164449,
        "channel": 9
      },
      {
        "type": "note_off",
        "note": 37,
        "time": 164467,
        "channel": 9
      },
      {
        "type": "note_off",
        "note": 51,
        "time": 164467,
        "channel": 9
      },
      {
        "type": "note_on",
        "note": 38,
        "velocity": 19,
        "time": 164545,
        "channel": 9
      },
      {
        "type": "note_off",
        "note": 38,
        "time": 164622,
        "channel": 9
      },
      {
        "type": "note_on",
        "note": 44,
        "velocity": 65,
        "time": 164634,
        "channel": 9
      },
      {
        "type": "note_on",
        "note": 51,
        "velocity": 115,
        "time": 164639,
        "channel": 9
      },
      {
        "type": "note_off",
        "note": 44,
        "time": 164711,
        "channel": 9
      },
      {
        "type": "note_off",
        "note": 51,
        "time": 164715,
        "channel": 9
      },
      {
        "type": "note_on",
        "note": 37,
        "velocity": 87,
        "time": 164743,
        "channel": 9
      },
      {
        "type": "note_off",
        "note": 37,
        "time": 164820,
        "channel": 9
      },
      {
        "type": "note_on",
        "note": 44,
        "velocity": 80,
        "time": 164854,
        "channel": 9
      },
      {
        "type": "note_off",
        "note": 44,
        "time": 164931,
        "channel": 9
      },
      {
        "type": "note_on",
        "note": 38,
        "velocity": 12,
        "time": 164995,
        "channel": 9
      },
      {
        "type": "note_off",
        "note": 38,
        "time": 165072,
        "channel": 9
      },
      {
        "type": "note_on",
        "note": 36,
        "velocity": 47,
        "time": 165096,
        "channel": 9
      },
      {
        "type": "note_on",
        "note": 51,
        "velocity": 98,
        "time": 165108,
        "channel": 9
      },
      {
        "type": "note_on",
        "note": 44,
        "velocity": 62,
        "time": 165110,
        "channel": 9
      },
      {
        "type": "note_off",
        "note": 36,
        "time": 165173,
        "channel": 9
      },
      {
        "type": "note_off",
        "note": 51,
        "time": 165185,
        "channel": 9
      },
      {
        "type": "note_off",
        "note": 44,
        "time": 165187,
        "channel": 9
      },
      {
        "type": "note_on",
        "note": 38,
        "velocity": 36,
        "time": 165228,
        "channel": 9
      },
      {
        "type": "note_off",
        "note": 38,
        "time": 165305,
        "channel": 9
      },
      {
        "type": "note_on",
        "note": 38,
        "velocity": 48,
        "time": 165338,
        "channel": 9
      },
      {
        "type": "note_on",
        "note": 44,
        "velocity": 72,
        "time": 165338,
        "channel": 9
      },
      {
        "type": "note_on",
        "note": 51,
        "velocity": 15,
        "time": 165344,
        "channel": 9
      },
      {
        "type": "note_off",
        "note": 38,
        "time": 165414,
        "channel": 9
      },
      {
        "type": "note_off",
        "note": 44,
        "time": 165416,
        "channel": 9
      },
      {
        "type": "note_off",
        "note": 51,
        "time": 165420,
        "channel": 9
      },
      {
        "type": "note_on",
        "note": 36,
        "velocity": 58,
        "time": 165458,
        "channel": 9
      },
      {
        "type": "note_off",
        "note": 36,
        "time": 165534,
        "channel": 9
      },
      {
        "type": "note_on",
        "note": 44,
        "velocity": 62,
        "time": 165581,
        "channel": 9
      },
      {
        "type": "note_on",
        "note": 51,
        "velocity": 122,
        "time": 165591,
        "channel": 9
      },
      {
        "type": "note_off",
        "note": 44,
        "time": 165658,
        "channel": 9
      },
      {
        "type": "note_off",
        "note": 51,
        "time": 165668,
        "channel": 9
      },
      {
        "type": "note_on",
        "note": 38,
        "velocity": 34,
        "time": 165704,
        "channel": 9
      },
      {
        "type": "note_off",
        "note": 38,
        "time": 165781,
        "channel": 9
      },
      {
        "type": "note_on",
        "note": 44,
        "velocity": 77,
        "time": 165809,
        "channel": 9
      },
      {
        "type": "note_on",
        "note": 51,
        "velocity": 34,
        "time": 165823,
        "channel": 9
      },
      {
        "type": "note_on",
        "note": 38,
        "velocity": 7,
        "time": 165839,
        "channel": 9
      },
      {
        "type": "note_off",
        "note": 44,
        "time": 165886,
        "channel": 9
      },
      {
        "type": "note_off",
        "note": 51,
        "time": 165899,
        "channel": 9
      },
      {
        "type": "note_off",
        "note": 38,
        "time": 165916,
        "channel": 9
      },
      {
        "type": "note_on",
        "note": 51,
        "velocity": 33,
        "time": 165939,
        "channel": 9
      },
      {
        "type": "note_off",
        "note": 51,
        "time": 166016,
        "channel": 9
      },
      {
        "type": "note_on",
        "note": 44,
        "velocity": 70,
        "time": 166045,
        "channel": 9
      },
      {
        "type": "note_on",
        "note": 53,
        "velocity": 47,
        "time": 166061,
        "channel": 9
      },
      {
        "type": "note_off",
        "note": 44,
        "time": 166122,
        "channel": 9
      },
      {
        "type": "note_off",
        "note": 53,
        "time": 166137,
        "channel": 9
      },
      {
        "type": "note_on",
        "note": 36,
        "velocity": 35,
        "time": 166165,
        "channel": 9
      },
      {
        "type": "note_off",
        "note": 36,
        "time": 166241,
        "channel": 9
      },
      {
        "type": "note_on",
        "note": 44,
        "velocity": 52,
        "time": 166265,
        "channel": 9
      },
      {
        "type": "note_on",
        "note": 40,
        "velocity": 114,
        "time": 166278,
        "channel": 9
      },
      {
        "type": "note_off",
        "note": 44,
        "time": 166342,
        "channel": 9
      },
      {
        "type": "note_off",
        "note": 40,
        "time": 166355,
        "channel": 9
      },
      {
        "type": "note_on",
        "note": 51,
        "velocity": 35,
        "time": 166405,
        "channel": 9
      },
      {
        "type": "note_on",
        "note": 38,
        "velocity": 13,
        "time": 166416,
        "channel": 9
      },
      {
        "type": "note_off",
        "note": 51,
        "time": 166481,
        "channel": 9
      },
      {
        "type": "note_off",
        "note": 38,
        "time": 166493,
        "channel": 9
      },
      {
        "type": "note_on",
        "note": 44,
        "velocity": 70,
        "time": 166520,
        "channel": 9
      },
      {
        "type": "note_on",
        "note": 53,
        "velocity": 66,
        "time": 166537,
        "channel": 9
      },
      {
        "type": "note_off",
        "note": 44,
        "time": 166597,
        "channel": 9
      },
      {
        "type": "note_off",
        "note": 53,
        "time": 166614,
        "channel": 9
      },
      {
        "type": "note_on",
        "note": 38,
        "velocity": 73,
        "time": 166644,
        "channel": 9
      },
      {
        "type": "note_off",
        "note": 38,
        "time": 166721,
        "channel": 9
      },
      {
        "type": "note_on",
        "note": 44,
        "velocity": 70,
        "time": 166754,
        "channel": 9
      },
      {
        "type": "note_on",
        "note": 51,
        "velocity": 38,
        "time": 166773,
        "channel": 9
      },
      {
        "type": "note_off",
        "note": 44,
        "time": 166831,
        "channel": 9
      },
      {
        "type": "note_off",
        "note": 51,
        "time": 166849,
        "channel": 9
      },
      {
        "type": "note_on",
        "note": 38,
        "velocity": 14,
        "time": 166859,
        "channel": 9
      },
      {
        "type": "note_on",
        "note": 51,
        "velocity": 30,
        "time": 166894,
        "channel": 9
      },
      {
        "type": "note_off",
        "note": 38,
        "time": 166935,
        "channel": 9
      },
      {
        "type": "note_off",
        "note": 51,
        "time": 166970,
        "channel": 9
      },
      {
        "type": "note_on",
        "note": 44,
        "velocity": 50,
        "time": 166992,
        "channel": 9
      },
      {
        "type": "note_on",
        "note": 53,
        "velocity": 45,
        "time": 167005,
        "channel": 9
      },
      {
        "type": "note_on",
        "note": 36,
        "velocity": 55,
        "time": 167014,
        "channel": 9
      },
      {
        "type": "note_off",
        "note": 44,
        "time": 167068,
        "channel": 9
      },
      {
        "type": "note_off",
        "note": 53,
        "time": 167082,
        "channel": 9
      },
      {
        "type": "note_off",
        "note": 36,
        "time": 167090,
        "channel": 9
      },
      {
        "type": "note_on",
        "note": 38,
        "velocity": 28,
        "time": 167120,
        "channel": 9
      },
      {
        "type": "note_off",
        "note": 38,
        "time": 167197,
        "channel": 9
      },
      {
        "type": "note_on",
        "note": 44,
        "velocity": 77,
        "time": 167219,
        "channel": 9
      },
      {
        "type": "note_on",
        "note": 51,
        "velocity": 29,
        "time": 167242,
        "channel": 9
      },
      {
        "type": "note_off",
        "note": 44,
        "time": 167296,
        "channel": 9
      },
      {
        "type": "note_off",
        "note": 51,
        "time": 167318,
        "channel": 9
      },
      {
        "type": "note_on",
        "note": 36,
        "velocity": 61,
        "time": 167354,
        "channel": 9
      },
      {
        "type": "note_on",
        "note": 51,
        "velocity": 30,
        "time": 167362,
        "channel": 9
      },
      {
        "type": "note_off",
        "note": 36,
        "time": 167431,
        "channel": 9
      },
      {
        "type": "note_off",
        "note": 51,
        "time": 167439,
        "channel": 9
      },
      {
        "type": "note_on",
        "note": 44,
        "velocity": 57,
        "time": 167472,
        "channel": 9
      },
      {
        "type": "note_on",
        "note": 53,
        "velocity": 58,
        "time": 167498,
        "channel": 9
      },
      {
        "type": "note_off",
        "note": 44,
        "time": 167548,
        "channel": 9
      },
      {
        "type": "note_off",
        "note": 53,
        "time": 167574,
        "channel": 9
      },
      {
        "type": "note_on",
        "note": 40,
        "velocity": 115,
        "time": 167622,
        "channel": 9
      },
      {
        "type": "note_off",
        "note": 40,
        "time": 167699,
        "channel": 9
      },
      {
        "type": "note_on",
        "note": 44,
        "velocity": 70,
        "time": 167713,
        "channel": 9
      },
      {
        "type": "note_off",
        "note": 44,
        "time": 167790,
        "channel": 9
      },
      {
        "type": "note_on",
        "note": 51,
        "velocity": 29,
        "time": 167855,
        "channel": 9
      },
      {
        "type": "note_off",
        "note": 51,
        "time": 167932,
        "channel": 9
      },
      {
        "type": "note_on",
        "note": 44,
        "velocity": 77,
        "time": 167971,
        "channel": 9
      },
      {
        "type": "note_on",
        "note": 53,
        "velocity": 64,
        "time": 167983,
        "channel": 9
      },
      {
        "type": "note_off",
        "note": 44,
        "time": 168047,
        "channel": 9
      },
      {
        "type": "note_off",
        "note": 53,
        "time": 168059,
        "channel": 9
      },
      {
        "type": "note_on",
        "note": 48,
        "velocity": 70,
        "time": 168100,
        "channel": 9
      },
      {
        "type": "note_on",
        "note": 46,
        "velocity": 12,
        "time": 168111,
        "channel": 9
      },
      {
        "type": "note_off",
        "note": 48,
        "time": 168176,
        "channel": 9
      },
      {
        "type": "note_off",
        "note": 46,
        "time": 168188,
        "channel": 9
      },
      {
        "type": "note_on",
        "note": 44,
        "velocity": 67,
        "time": 168217,
        "channel": 9
      },
      {
        "type": "note_on",
        "note": 48,
        "velocity": 112,
        "time": 168224,
        "channel": 9
      },
      {
        "type": "note_off",
        "note": 44,
        "time": 168293,
        "channel": 9
      },
      {
        "type": "note_off",
        "note": 48,
        "time": 168300,
        "channel": 9
      },
      {
        "type": "note_on",
        "note": 48,
        "velocity": 88,
        "time": 168342,
        "channel": 9
      },
      {
        "type": "note_off",
        "note": 48,
        "time": 168419,
        "channel": 9
      },
      {
        "type": "note_on",
        "note": 44,
        "velocity": 65,
        "time": 168452,
        "channel": 9
      },
      {
        "type": "note_on",
        "note": 48,
        "velocity": 112,
        "time": 168455,
        "channel": 9
      },
      {
        "type": "note_off",
        "note": 44,
        "time": 168528,
        "channel": 9
      },
      {
        "type": "note_off",
        "note": 48,
        "time": 168531,
        "channel": 9
      },
      {
        "type": "note_on",
        "note": 50,
        "velocity": 108,
        "time": 168563,
        "channel": 9
      },
      {
        "type": "note_off",
        "note": 50,
        "time": 168640,
        "channel": 9
      },
      {
        "type": "note_on",
        "note": 44,
        "velocity": 72,
        "time": 168686,
        "channel": 9
      },
      {
        "type": "note_on",
        "note": 51,
        "velocity": 72,
        "time": 168692,
        "channel": 9
      },
      {
        "type": "note_off",
        "note": 44,
        "time": 168763,
        "channel": 9
      },
      {
        "type": "note_off",
        "note": 51,
        "time": 168769,
        "channel": 9
      },
      {
        "type": "note_on",
        "note": 37,
        "velocity": 64,
        "time": 168797,
        "channel": 9
      },
      {
        "type": "note_off",
        "note": 37,
        "time": 168874,
        "channel": 9
      },
      {
        "type": "note_on",
        "note": 36,
        "velocity": 57,
        "time": 168924,
        "channel": 9
      },
      {
        "type": "note_on",
        "note": 44,
        "velocity": 67,
        "time": 168925,
        "channel": 9
      },
      {
        "type": "note_on",
        "note": 51,
        "velocity": 127,
        "time": 168929,
        "channel": 9
      },
      {
        "type": "note_off",
        "note": 36,
        "time": 169001,
        "channel": 9
      },
      {
        "type": "note_off",
        "note": 44,
        "time": 169002,
        "channel": 9
      },
      {
        "type": "note_off",
        "note": 51,
        "time": 169006,
        "channel": 9
      },
      {
        "type": "note_on",
        "note": 38,
        "velocity": 48,
        "time": 169049,
        "channel": 9
      },
      {
        "type": "note_off",
        "note": 38,
        "time": 169125,
        "channel": 9
      },
      {
        "type": "note_on",
        "note": 44,
        "velocity": 62,
        "time": 169153,
        "channel": 9
      },
      {
        "type": "note_on",
        "note": 38,
        "velocity": 44,
        "time": 169181,
        "channel": 9
      },
      {
        "type": "note_off",
        "note": 44,
        "time": 169230,
        "channel": 9
      },
      {
        "type": "note_off",
        "note": 38,
        "time": 169258,
        "channel": 9
      },
      {
        "type": "note_on",
        "note": 36,
        "velocity": 62,
        "time": 169291,
        "channel": 9
      },
      {
        "type": "note_on",
        "note": 51,
        "velocity": 127,
        "time": 169311,
        "channel": 9
      },
      {
        "type": "note_off",
        "note": 36,
        "time": 169368,
        "channel": 9
      },
      {
        "type": "note_off",
        "note": 51,
        "time": 169388,
        "channel": 9
      },
      {
        "type": "note_on",
        "note": 44,
        "velocity": 52,
        "time": 169404,
        "channel": 9
      },
      {
        "type": "note_on",
        "note": 51,
        "velocity": 36,
        "time": 169421,
        "channel": 9
      },
      {
        "type": "note_off",
        "note": 44,
        "time": 169480,
        "channel": 9
      },
      {
        "type": "note_off",
        "note": 51,
        "time": 169498,
        "channel": 9
      },
      {
        "type": "note_on",
        "note": 40,
        "velocity": 127,
        "time": 169527,
        "channel": 9
      },
      {
        "type": "note_off",
        "note": 40,
        "time": 169604,
        "channel": 9
      },
      {
        "type": "note_on",
        "note": 51,
        "velocity": 66,
        "time": 169648,
        "channel": 9
      },
      {
        "type": "note_off",
        "note": 51,
        "time": 169724,
        "channel": 9
      },
      {
        "type": "note_on",
        "note": 48,
        "velocity": 92,
        "time": 169770,
        "channel": 9
      },
      {
        "type": "note_off",
        "note": 48,
        "time": 169847,
        "channel": 9
      },
      {
        "type": "note_on",
        "note": 43,
        "velocity": 105,
        "time": 169905,
        "channel": 9
      },
      {
        "type": "note_off",
        "note": 43,
        "time": 169981,
        "channel": 9
      },
      {
        "type": "note_on",
        "note": 36,
        "velocity": 51,
        "time": 169985,
        "channel": 9
      },
      {
        "type": "note_off",
        "note": 36,
        "time": 170062,
        "channel": 9
      },
      {
        "type": "note_on",
        "note": 40,
        "velocity": 124,
        "time": 170107,
        "channel": 9
      },
      {
        "type": "note_off",
        "note": 40,
        "time": 170145,
        "channel": 9
      },
      {
        "type": "note_on",
        "note": 40,
        "velocity": 108,
        "time": 170145,
        "channel": 9
      },
      {
        "type": "note_off",
        "note": 40,
        "time": 170184,
        "channel": 9
      },
      {
        "type": "note_on",
        "note": 44,
        "velocity": 97,
        "time": 170355,
        "channel": 9
      },
      {
        "type": "note_off",
        "note": 44,
        "time": 170431,
        "channel": 9
      },
      {
        "type": "note_on",
        "note": 40,
        "velocity": 111,
        "time": 170474,
        "channel": 9
      },
      {
        "type": "note_off",
        "note": 40,
        "time": 170507,
        "channel": 9
      },
      {
        "type": "note_on",
        "note": 40,
        "velocity": 111,
        "time": 170507,
        "channel": 9
      },
      {
        "type": "note_off",
        "note": 40,
        "time": 170550,
        "channel": 9
      },
      {
        "type": "note_on",
        "note": 44,
        "velocity": 97,
        "time": 170671,
        "channel": 9
      },
      {
        "type": "note_off",
        "note": 44,
        "time": 170748,
        "channel": 9
      },
      {
        "type": "note_on",
        "note": 36,
        "velocity": 29,
        "time": 170778,
        "channel": 9
      },
      {
        "type": "note_off",
        "note": 36,
        "time": 170854,
        "channel": 9
      }
    ]
  },
  {
    "file": "data\\groove\\drummer1\\session1\\103_funk_95_fill_4-4.mid",
    "num_events": 35,
    "duration": 2281,
    "events": [
      {
        "type": "set_tempo",
        "tempo": 631578,
        "time": 0
      },
      {
        "type": "note_on",
        "note": 36,
        "velocity": 11,
        "time": 49,
        "channel": 9
      },
      {
        "type": "note_on",
        "note": 42,
        "velocity": 48,
        "time": 113,
        "channel": 9
      },
      {
        "type": "note_off",
        "note": 36,
        "time": 125,
        "channel": 9
      },
      {
        "type": "note_off",
        "note": 42,
        "time": 167,
        "channel": 9
      },
      {
        "type": "note_on",
        "note": 42,
        "velocity": 62,
        "time": 167,
        "channel": 9
      },
      {
        "type": "note_off",
        "note": 42,
        "time": 190,
        "channel": 9
      },
      {
        "type": "note_on",
        "note": 37,
        "velocity": 77,
        "time": 223,
        "channel": 9
      },
      {
        "type": "note_off",
        "note": 37,
        "time": 299,
        "channel": 9
      },
      {
        "type": "note_on",
        "note": 44,
        "velocity": 102,
        "time": 367,
        "channel": 9
      },
      {
        "type": "note_off",
        "note": 44,
        "time": 444,
        "channel": 9
      },
      {
        "type": "note_on",
        "note": 42,
        "velocity": 53,
        "time": 457,
        "channel": 9
      },
      {
        "type": "note_off",
        "note": 42,
        "time": 523,
        "channel": 9
      },
      {
        "type": "note_on",
        "note": 42,
        "velocity": 45,
        "time": 523,
        "channel": 9
      },
      {
        "type": "note_off",
        "note": 42,
        "time": 533,
        "channel": 9
      },
      {
        "type": "note_on",
        "note": 38,
        "velocity": 62,
        "time": 586,
        "channel": 9
      },
      {
        "type": "note_off",
        "note": 38,
        "time": 663,
        "channel": 9
      },
      {
        "type": "note_on",
        "note": 44,
        "velocity": 100,
        "time": 707,
        "channel": 9
      },
      {
        "type": "note_off",
        "note": 44,
        "time": 783,
        "channel": 9
      },
      {
        "type": "note_on",
        "note": 42,
        "velocity": 44,
        "time": 816,
        "channel": 9
      },
      {
        "type": "note_off",
        "note": 42,
        "time": 879,
        "channel": 9
      },
      {
        "type": "note_on",
        "note": 42,
        "velocity": 42,
        "time": 879,
        "channel": 9
      },
      {
        "type": "note_off",
        "note": 42,
        "time": 893,
        "channel": 9
      },
      {
        "type": "note_on",
        "note": 37,
        "velocity": 88,
        "time": 944,
        "channel": 9
      },
      {
        "type": "note_off",
        "note": 37,
        "time": 1021,
        "channel": 9
      },
      {
        "type": "note_on",
        "note": 48,
        "velocity": 90,
        "time": 1072,
        "channel": 9
      },
      {
        "type": "note_off",
        "note": 48,
        "time": 1149,
        "channel": 9
      },
      {
        "type": "note_on",
        "note": 38,
        "velocity": 42,
        "time": 1182,
        "channel": 9
      },
      {
        "type": "note_off",
        "note": 38,
        "time": 1259,
        "channel": 9
      },
      {
        "type": "note_on",
        "note": 38,
        "velocity": 82,
        "time": 1300,
        "channel": 9
      },
      {
        "type": "note_off",
        "note": 38,
        "time": 1377,
        "channel": 9
      },
      {
        "type": "note_on",
        "note": 40,
        "velocity": 127,
        "time": 1422,
        "channel": 9
      },
      {
        "type": "note_off",
        "note": 40,
        "time": 1499,
        "channel": 9
      },
      {
        "type": "note_on",
        "note": 36,
        "velocity": 88,
        "time": 1545,
        "channel": 9
      },
      {
        "type": "note_off",
        "note": 36,
        "time": 1622,
        "channel": 9
      }
    ]
  },
  {
    "file": "data\\groove\\drummer1\\session1\\104_funk_95_fill_4-4.mid",
    "num_events": 25,
    "duration": 2281,
    "events": [
      {
        "type": "set_tempo",
        "tempo": 631578,
        "time": 0
      },
      {
        "type": "note_on",
        "note": 26,
        "velocity": 105,
        "time": 0,
        "channel": 9
      },
      {
        "type": "note_off",
        "note": 26,
        "time": 70,
        "channel": 9
      },
      {
        "type": "note_on",
        "note": 44,
        "velocity": 62,
        "time": 220,
        "channel": 9
      },
      {
        "type": "note_on",
        "note": 42,
        "velocity": 43,
        "time": 248,
        "channel": 9
      },
      {
        "type": "note_off",
        "note": 44,
        "time": 296,
        "channel": 9
      },
      {
        "type": "note_off",
        "note": 42,
        "time": 326,
        "channel": 9
      },
      {
        "type": "note_on",
        "note": 42,
        "velocity": 39,
        "time": 354,
        "channel": 9
      },
      {
        "type": "note_off",
        "note": 42,
        "time": 431,
        "channel": 9
      },
      {
        "type": "note_on",
        "note": 26,
        "velocity": 116,
        "time": 480,
        "channel": 9
      },
      {
        "type": "note_off",
        "note": 26,
        "time": 557,
        "channel": 9
      },
      {
        "type": "note_on",
        "note": 44,
        "velocity": 65,
        "time": 715,
        "channel": 9
      },
      {
        "type": "note_off",
        "note": 44,
        "time": 792,
        "channel": 9
      },
      {
        "type": "note_on",
        "note": 38,
        "velocity": 87,
        "time": 813,
        "channel": 9
      },
      {
        "type": "note_off",
        "note": 38,
        "time": 889,
        "channel": 9
      },
      {
        "type": "note_on",
        "note": 44,
        "velocity": 82,
        "time": 924,
        "channel": 9
      },
      {
        "type": "note_off",
        "note": 44,
        "time": 1001,
        "channel": 9
      },
      {
        "type": "note_on",
        "note": 38,
        "velocity": 83,
        "time": 1049,
        "channel": 9
      },
      {
        "type": "note_off",
        "note": 38,
        "time": 1126,
        "channel": 9
      },
      {
        "type": "note_on",
        "note": 37,
        "velocity": 74,
        "time": 1172,
        "channel": 9
      },
      {
        "type": "note_off",
        "note": 37,
        "time": 1249,
        "channel": 9
      },
      {
        "type": "note_on",
        "note": 36,
        "velocity": 50,
        "time": 1277,
        "channel": 9
      },
      {
        "type": "note_off",
        "note": 36,
        "time": 1354,
        "channel": 9
      },
      {
        "type": "note_on",
        "note": 43,
        "velocity": 127,
        "time": 1424,
        "channel": 9
      },
      {
        "type": "note_off",
        "note": 43,
        "time": 1501,
        "channel": 9
      }
    ]
  },
  {
    "file": "data\\groove\\drummer1\\session1\\105_funk_95_fill_4-4.mid",
    "num_events": 39,
    "duration": 4561,
    "events": [
      {
        "type": "set_tempo",
        "tempo": 631578,
        "time": 0
      },
      {
        "type": "note_on",
        "note": 44,
        "velocity": 30,
        "time": 1480,
        "channel": 9
      },
      {
        "type": "note_off",
        "note": 44,
        "time": 1557,
        "channel": 9
      },
      {
        "type": "note_on",
        "note": 38,
        "velocity": 27,
        "time": 1857,
        "channel": 9
      },
      {
        "type": "note_off",
        "note": 38,
        "time": 1895,
        "channel": 9
      },
      {
        "type": "note_on",
        "note": 38,
        "velocity": 42,
        "time": 1895,
        "channel": 9
      },
      {
        "type": "note_off",
        "note": 38,
        "time": 1933,
        "channel": 9
      },
      {
        "type": "note_on",
        "note": 40,
        "velocity": 127,
        "time": 1948,
        "channel": 9
      },
      {
        "type": "note_off",
        "note": 40,
        "time": 2024,
        "channel": 9
      },
      {
        "type": "note_on",
        "note": 38,
        "velocity": 96,
        "time": 2274,
        "channel": 9
      },
      {
        "type": "note_off",
        "note": 38,
        "time": 2351,
        "channel": 9
      },
      {
        "type": "note_on",
        "note": 38,
        "velocity": 87,
        "time": 2501,
        "channel": 9
      },
      {
        "type": "note_off",
        "note": 38,
        "time": 2577,
        "channel": 9
      },
      {
        "type": "note_on",
        "note": 38,
        "velocity": 62,
        "time": 2623,
        "channel": 9
      },
      {
        "type": "note_off",
        "note": 38,
        "time": 2699,
        "channel": 9
      },
      {
        "type": "note_on",
        "note": 38,
        "velocity": 72,
        "time": 2734,
        "channel": 9
      },
      {
        "type": "note_off",
        "note": 38,
        "time": 2811,
        "channel": 9
      },
      {
        "type": "note_on",
        "note": 38,
        "velocity": 73,
        "time": 2856,
        "channel": 9
      },
      {
        "type": "note_off",
        "note": 38,
        "time": 2933,
        "channel": 9
      },
      {
        "type": "note_on",
        "note": 36,
        "velocity": 43,
        "time": 2971,
        "channel": 9
      },
      {
        "type": "note_on",
        "note": 26,
        "velocity": 82,
        "time": 2978,
        "channel": 9
      },
      {
        "type": "note_off",
        "note": 36,
        "time": 3047,
        "channel": 9
      },
      {
        "type": "note_on",
        "note": 44,
        "velocity": 62,
        "time": 3050,
        "channel": 9
      },
      {
        "type": "note_off",
        "note": 26,
        "time": 3055,
        "channel": 9
      },
      {
        "type": "note_on",
        "note": 38,
        "velocity": 18,
        "time": 3084,
        "channel": 9
      },
      {
        "type": "note_off",
        "note": 44,
        "time": 3127,
        "channel": 9
      },
      {
        "type": "note_off",
        "note": 38,
        "time": 3161,
        "channel": 9
      },
      {
        "type": "note_on",
        "note": 36,
        "velocity": 43,
        "time": 3204,
        "channel": 9
      },
      {
        "type": "note_on",
        "note": 26,
        "velocity": 93,
        "time": 3215,
        "channel": 9
      },
      {
        "type": "note_off",
        "note": 36,
        "time": 3281,
        "channel": 9
      },
      {
        "type": "note_on",
        "note": 44,
        "velocity": 57,
        "time": 3283,
        "channel": 9
      },
      {
        "type": "note_off",
        "note": 26,
        "time": 3291,
        "channel": 9
      },
      {
        "type": "note_on",
        "note": 38,
        "velocity": 27,
        "time": 3333,
        "channel": 9
      },
      {
        "type": "note_off",
        "note": 44,
        "time": 3360,
        "channel": 9
      },
      {
        "type": "note_off",
        "note": 38,
        "time": 3410,
        "channel": 9
      },
      {
        "type": "note_on",
        "note": 36,
        "velocity": 53,
        "time": 3436,
        "channel": 9
      },
      {
        "type": "note_on",
        "note": 26,
        "velocity": 101,
        "time": 3454,
        "channel": 9
      },
      {
        "type": "note_off",
        "note": 36,
        "time": 3513,
        "channel": 9
      },
      {
        "type": "note_off",
        "note": 26,
        "time": 3531,
        "channel": 9
      }
    ]
  },
  {
    "file": "data\\groove\\drummer1\\session1\\106_funk_95_fill_4-4.mid",
    "num_events": 33,
    "duration": 4561,
    "events": [
      {
        "type": "set_tempo",
        "tempo": 631578,
        "time": 0
      },
      {
        "type": "note_on",
        "note": 38,
        "velocity": 21,
        "time": 1823,
        "channel": 9
      },
      {
        "type": "note_off",
        "note": 38,
        "time": 1868,
        "channel": 9
      },
      {
        "type": "note_on",
        "note": 38,
        "velocity": 38,
        "time": 1868,
        "channel": 9
      },
      {
        "type": "note_off",
        "note": 38,
        "time": 1899,
        "channel": 9
      },
      {
        "type": "note_on",
        "note": 37,
        "velocity": 88,
        "time": 1949,
        "channel": 9
      },
      {
        "type": "note_off",
        "note": 37,
        "time": 2026,
        "channel": 9
      },
      {
        "type": "note_on",
        "note": 38,
        "velocity": 81,
        "time": 2050,
        "channel": 9
      },
      {
        "type": "note_off",
        "note": 38,
        "time": 2127,
        "channel": 9
      },
      {
        "type": "note_on",
        "note": 38,
        "velocity": 56,
        "time": 2160,
        "channel": 9
      },
      {
        "type": "note_off",
        "note": 38,
        "time": 2237,
        "channel": 9
      },
      {
        "type": "note_on",
        "note": 38,
        "velocity": 74,
        "time": 2272,
        "channel": 9
      },
      {
        "type": "note_off",
        "note": 38,
        "time": 2348,
        "channel": 9
      },
      {
        "type": "note_on",
        "note": 38,
        "velocity": 67,
        "time": 2386,
        "channel": 9
      },
      {
        "type": "note_off",
        "note": 38,
        "time": 2463,
        "channel": 9
      },
      {
        "type": "note_on",
        "note": 36,
        "velocity": 52,
        "time": 2492,
        "channel": 9
      },
      {
        "type": "note_on",
        "note": 26,
        "velocity": 83,
        "time": 2509,
        "channel": 9
      },
      {
        "type": "note_off",
        "note": 36,
        "time": 2569,
        "channel": 9
      },
      {
        "type": "note_off",
        "note": 26,
        "time": 2586,
        "channel": 9
      },
      {
        "type": "note_on",
        "note": 44,
        "velocity": 85,
        "time": 2596,
        "channel": 9
      },
      {
        "type": "note_off",
        "note": 44,
        "time": 2673,
        "channel": 9
      },
      {
        "type": "note_on",
        "note": 48,
        "velocity": 92,
        "time": 2737,
        "channel": 9
      },
      {
        "type": "note_off",
        "note": 48,
        "time": 2813,
        "channel": 9
      },
      {
        "type": "note_on",
        "note": 48,
        "velocity": 98,
        "time": 2854,
        "channel": 9
      },
      {
        "type": "note_off",
        "note": 48,
        "time": 2931,
        "channel": 9
      },
      {
        "type": "note_on",
        "note": 48,
        "velocity": 103,
        "time": 2967,
        "channel": 9
      },
      {
        "type": "note_off",
        "note": 48,
        "time": 3043,
        "channel": 9
      },
      {
        "type": "note_on",
        "note": 48,
        "velocity": 101,
        "time": 3088,
        "channel": 9
      },
      {
        "type": "note_off",
        "note": 48,
        "time": 3165,
        "channel": 9
      },
      {
        "type": "note_on",
        "note": 36,
        "velocity": 51,
        "time": 3194,
        "channel": 9
      },
      {
        "type": "note_off",
        "note": 36,
        "time": 3270,
        "channel": 9
      },
      {
        "type": "note_on",
        "note": 43,
        "velocity": 127,
        "time": 3329,
        "channel": 9
      },
      {
        "type": "note_off",
        "note": 43,
        "time": 3406,
        "channel": 9
      }
    ]
  },
  {
    "file": "data\\groove\\drummer1\\session1\\107_funk_95_fill_4-4.mid",
    "num_events": 35,
    "duration": 2281,
    "events": [
      {
        "type": "set_tempo",
        "tempo": 631578,
        "time": 0
      },
      {
        "type": "note_on",
        "note": 38,
        "velocity": 17,
        "time": 0,
        "channel": 9
      },
      {
        "type": "note_on",
        "note": 44,
        "velocity": 47,
        "time": 0,
        "channel": 9
      },
      {
        "type": "note_off",
        "note": 44,
        "time": 56,
        "channel": 9
      },
      {
        "type": "note_off",
        "note": 38,
        "time": 59,
        "channel": 9
      },
      {
        "type": "note_on",
        "note": 38,
        "velocity": 24,
        "time": 87,
        "channel": 9
      },
      {
        "type": "note_off",
        "note": 38,
        "time": 164,
        "channel": 9
      },
      {
        "type": "note_on",
        "note": 38,
        "velocity": 30,
        "time": 219,
        "channel": 9
      },
      {
        "type": "note_off",
        "note": 38,
        "time": 296,
        "channel": 9
      },
      {
        "type": "note_on",
        "note": 38,
        "velocity": 40,
        "time": 338,
        "channel": 9
      },
      {
        "type": "note_off",
        "note": 38,
        "time": 414,
        "channel": 9
      },
      {
        "type": "note_on",
        "note": 38,
        "velocity": 41,
        "time": 463,
        "channel": 9
      },
      {
        "type": "note_off",
        "note": 38,
        "time": 540,
        "channel": 9
      },
      {
        "type": "note_on",
        "note": 38,
        "velocity": 50,
        "time": 571,
        "channel": 9
      },
      {
        "type": "note_off",
        "note": 38,
        "time": 647,
        "channel": 9
      },
      {
        "type": "note_on",
        "note": 38,
        "velocity": 70,
        "time": 694,
        "channel": 9
      },
      {
        "type": "note_off",
        "note": 38,
        "time": 770,
        "channel": 9
      },
      {
        "type": "note_on",
        "note": 38,
        "velocity": 67,
        "time": 820,
        "channel": 9
      },
      {
        "type": "note_off",
        "note": 38,
        "time": 897,
        "channel": 9
      },
      {
        "type": "note_on",
        "note": 48,
        "velocity": 81,
        "time": 937,
        "channel": 9
      },
      {
        "type": "note_on",
        "note": 42,
        "velocity": 12,
        "time": 947,
        "channel": 9
      },
      {
        "type": "note_off",
        "note": 48,
        "time": 1014,
        "channel": 9
      },
      {
        "type": "note_off",
        "note": 42,
        "time": 1024,
        "channel": 9
      },
      {
        "type": "note_on",
        "note": 48,
        "velocity": 81,
        "time": 1047,
        "channel": 9
      },
      {
        "type": "note_on",
        "note": 42,
        "velocity": 11,
        "time": 1058,
        "channel": 9
      },
      {
        "type": "note_off",
        "note": 48,
        "time": 1124,
        "channel": 9
      },
      {
        "type": "note_off",
        "note": 42,
        "time": 1135,
        "channel": 9
      },
      {
        "type": "note_on",
        "note": 48,
        "velocity": 94,
        "time": 1162,
        "channel": 9
      },
      {
        "type": "note_off",
        "note": 48,
        "time": 1239,
        "channel": 9
      },
      {
        "type": "note_on",
        "note": 36,
        "velocity": 48,
        "time": 1273,
        "channel": 9
      },
      {
        "type": "note_off",
        "note": 36,
        "time": 1350,
        "channel": 9
      },
      {
        "type": "note_on",
        "note": 43,
        "velocity": 127,
        "time": 1395,
        "channel": 9
      },
      {
        "type": "note_on",
        "note": 40,
        "velocity": 127,
        "time": 1413,
        "channel": 9
      },
      {
        "type": "note_off",
        "note": 43,
        "time": 1471,
        "channel": 9
      },
      {
        "type": "note_off",
        "note": 40,
        "time": 1490,
        "channel": 9
      }
    ]
  },
  {
    "file": "data\\groove\\drummer1\\session1\\108_funk_95_fill_4-4.mid",
    "num_events": 33,
    "duration": 2281,
    "events": [
      {
        "type": "set_tempo",
        "tempo": 631578,
        "time": 0
      },
      {
        "type": "note_on",
        "note": 38,
        "velocity": 28,
        "time": 6,
        "channel": 9
      },
      {
        "type": "note_on",
        "note": 43,
        "velocity": 31,
        "time": 8,
        "channel": 9
      },
      {
        "type": "note_off",
        "note": 38,
        "time": 83,
        "channel": 9
      },
      {
        "type": "note_off",
        "note": 43,
        "time": 85,
        "channel": 9
      },
      {
        "type": "note_on",
        "note": 38,
        "velocity": 31,
        "time": 243,
        "channel": 9
      },
      {
        "type": "note_on",
        "note": 43,
        "velocity": 42,
        "time": 251,
        "channel": 9
      },
      {
        "type": "note_off",
        "note": 38,
        "time": 320,
        "channel": 9
      },
      {
        "type": "note_off",
        "note": 43,
        "time": 328,
        "channel": 9
      },
      {
        "type": "note_on",
        "note": 38,
        "velocity": 40,
        "time": 482,
        "channel": 9
      },
      {
        "type": "note_on",
        "note": 43,
        "velocity": 49,
        "time": 487,
        "channel": 9
      },
      {
        "type": "note_off",
        "note": 38,
        "time": 559,
        "channel": 9
      },
      {
        "type": "note_off",
        "note": 43,
        "time": 563,
        "channel": 9
      },
      {
        "type": "note_on",
        "note": 38,
        "velocity": 46,
        "time": 719,
        "channel": 9
      },
      {
        "type": "note_on",
        "note": 43,
        "velocity": 59,
        "time": 725,
        "channel": 9
      },
      {
        "type": "note_off",
        "note": 38,
        "time": 795,
        "channel": 9
      },
      {
        "type": "note_off",
        "note": 43,
        "time": 801,
        "channel": 9
      },
      {
        "type": "note_on",
        "note": 38,
        "velocity": 59,
        "time": 963,
        "channel": 9
      },
      {
        "type": "note_on",
        "note": 43,
        "velocity": 74,
        "time": 969,
        "channel": 9
      },
      {
        "type": "note_off",
        "note": 38,
        "time": 1039,
        "channel": 9
      },
      {
        "type": "note_off",
        "note": 43,
        "time": 1046,
        "channel": 9
      },
      {
        "type": "note_on",
        "note": 44,
        "velocity": 35,
        "time": 1186,
        "channel": 9
      },
      {
        "type": "note_on",
        "note": 38,
        "velocity": 60,
        "time": 1203,
        "channel": 9
      },
      {
        "type": "note_on",
        "note": 43,
        "velocity": 80,
        "time": 1204,
        "channel": 9
      },
      {
        "type": "note_off",
        "note": 44,
        "time": 1263,
        "channel": 9
      },
      {
        "type": "note_off",
        "note": 38,
        "time": 1280,
        "channel": 9
      },
      {
        "type": "note_off",
        "note": 43,
        "time": 1280,
        "channel": 9
      },
      {
        "type": "note_on",
        "note": 43,
        "velocity": 127,
        "time": 1444,
        "channel": 9
      },
      {
        "type": "note_on",
        "note": 40,
        "velocity": 120,
        "time": 1459,
        "channel": 9
      },
      {
        "type": "note_off",
        "note": 43,
        "time": 1520,
        "channel": 9
      },
      {
        "type": "note_off",
        "note": 40,
        "time": 1535,
        "channel": 9
      },
      {
        "type": "note_on",
        "note": 36,
        "velocity": 58,
        "time": 1566,
        "channel": 9
      },
      {
        "type": "note_off",
        "note": 36,
        "time": 1643,
        "channel": 9
      }
    ]
  },
  {
    "file": "data\\groove\\drummer1\\session1\\109_funk_95_fill_4-4.mid",
    "num_events": 35,
    "duration": 4561,
    "events": [
      {
        "type": "set_tempo",
        "tempo": 631578,
        "time": 0
      },
      {
        "type": "note_on",
        "note": 38,
        "velocity": 8,
        "time": 1805,
        "channel": 9
      },
      {
        "type": "note_off",
        "note": 38,
        "time": 1839,
        "channel": 9
      },
      {
        "type": "note_on",
        "note": 38,
        "velocity": 10,
        "time": 1839,
        "channel": 9
      },
      {
        "type": "note_off",
        "note": 38,
        "time": 1882,
        "channel": 9
      },
      {
        "type": "note_on",
        "note": 38,
        "velocity": 5,
        "time": 1885,
        "channel": 9
      },
      {
        "type": "note_on",
        "note": 40,
        "velocity": 127,
        "time": 1903,
        "channel": 9
      },
      {
        "type": "note_off",
        "note": 38,
        "time": 1917,
        "channel": 9
      },
      {
        "type": "note_off",
        "note": 40,
        "time": 1980,
        "channel": 9
      },
      {
        "type": "note_on",
        "note": 38,
        "velocity": 7,
        "time": 2268,
        "channel": 9
      },
      {
        "type": "note_off",
        "note": 38,
        "time": 2305,
        "channel": 9
      },
      {
        "type": "note_on",
        "note": 38,
        "velocity": 7,
        "time": 2305,
        "channel": 9
      },
      {
        "type": "note_off",
        "note": 38,
        "time": 2327,
        "channel": 9
      },
      {
        "type": "note_on",
        "note": 38,
        "velocity": 8,
        "time": 2327,
        "channel": 9
      },
      {
        "type": "note_off",
        "note": 38,
        "time": 2345,
        "channel": 9
      },
      {
        "type": "note_on",
        "note": 40,
        "velocity": 124,
        "time": 2386,
        "channel": 9
      },
      {
        "type": "note_off",
        "note": 40,
        "time": 2462,
        "channel": 9
      },
      {
        "type": "note_on",
        "note": 38,
        "velocity": 15,
        "time": 2753,
        "channel": 9
      },
      {
        "type": "note_off",
        "note": 38,
        "time": 2794,
        "channel": 9
      },
      {
        "type": "note_on",
        "note": 38,
        "velocity": 21,
        "time": 2794,
        "channel": 9
      },
      {
        "type": "note_off",
        "note": 38,
        "time": 2817,
        "channel": 9
      },
      {
        "type": "note_on",
        "note": 38,
        "velocity": 20,
        "time": 2817,
        "channel": 9
      },
      {
        "type": "note_off",
        "note": 38,
        "time": 2829,
        "channel": 9
      },
      {
        "type": "note_on",
        "note": 40,
        "velocity": 127,
        "time": 2863,
        "channel": 9
      },
      {
        "type": "note_off",
        "note": 40,
        "time": 2940,
        "channel": 9
      },
      {
        "type": "note_on",
        "note": 22,
        "velocity": 83,
        "time": 3219,
        "channel": 9
      },
      {
        "type": "note_on",
        "note": 36,
        "velocity": 55,
        "time": 3219,
        "channel": 9
      },
      {
        "type": "note_off",
        "note": 22,
        "time": 3296,
        "channel": 9
      },
      {
        "type": "note_off",
        "note": 36,
        "time": 3296,
        "channel": 9
      },
      {
        "type": "note_on",
        "note": 44,
        "velocity": 87,
        "time": 3306,
        "channel": 9
      },
      {
        "type": "note_off",
        "note": 44,
        "time": 3383,
        "channel": 9
      },
      {
        "type": "note_on",
        "note": 36,
        "velocity": 68,
        "time": 3449,
        "channel": 9
      },
      {
        "type": "note_on",
        "note": 26,
        "velocity": 81,
        "time": 3460,
        "channel": 9
      },
      {
        "type": "note_off",
        "note": 36,
        "time": 3525,
        "channel": 9
      },
      {
        "type": "note_off",
        "note": 26,
        "time": 3538,
        "channel": 9
      }
    ]
  }
]